<?xml version="1.0" encoding="UTF-8" standalone="no"?>
<!-- Created with Inkscape (http://www.inkscape.org/) -->

<svg
   xmlns:dc="http://purl.org/dc/elements/1.1/"
   xmlns:cc="http://creativecommons.org/ns#"
   xmlns:rdf="http://www.w3.org/1999/02/22-rdf-syntax-ns#"
   xmlns:svg="http://www.w3.org/2000/svg"
   xmlns="http://www.w3.org/2000/svg"
   xmlns:xlink="http://www.w3.org/1999/xlink"
   xmlns:sodipodi="http://sodipodi.sourceforge.net/DTD/sodipodi-0.dtd"
   xmlns:inkscape="http://www.inkscape.org/namespaces/inkscape"
   width="7038.7827"
   height="1746.8018"
   viewBox="0 0 1862.3445 462.17464"
   version="1.1"
   id="svg23489"
   inkscape:version="0.48.5 r10040"
   sodipodi:docname="paper_overlays_all.svg">
  <defs
     id="defs23483">
    <linearGradient
       inkscape:collect="always"
       xlink:href="#linearGradient31960"
       id="linearGradient31966"
       x1="1285.4922"
       y1="1281.0408"
       x2="1285.4922"
       y2="1302.0753"
       gradientUnits="userSpaceOnUse" />
    <linearGradient
       inkscape:collect="always"
       id="linearGradient31960">
      <stop
         style="stop-color:#f0ebd8;stop-opacity:1"
         offset="0"
         id="stop31962" />
      <stop
         style="stop-color:#ede7d0;stop-opacity:1"
         offset="1"
         id="stop31964" />
    </linearGradient>
    <linearGradient
       inkscape:collect="always"
       xlink:href="#linearGradient31603"
       id="linearGradient31920"
       gradientUnits="userSpaceOnUse"
       x1="1713.8989"
       y1="-912.41614"
       x2="1713.8989"
       y2="-1042.8845" />
    <linearGradient
       inkscape:collect="always"
       id="linearGradient31603">
      <stop
         style="stop-color:#ede7d0;stop-opacity:1"
         offset="0"
         id="stop31605" />
      <stop
         style="stop-color:#f0ebd8;stop-opacity:1"
         offset="1"
         id="stop31607" />
    </linearGradient>
    <linearGradient
       inkscape:collect="always"
       xlink:href="#linearGradient6716"
       id="linearGradient31858"
       gradientUnits="userSpaceOnUse"
       x1="8671.4893"
       y1="-202.21825"
       x2="8671.4893"
       y2="-286.31891" />
    <linearGradient
       id="linearGradient6716"
       inkscape:collect="always">
      <stop
         id="stop6718"
         offset="0"
         style="stop-color:#ede7d0;stop-opacity:1" />
      <stop
         id="stop6720"
         offset="1"
         style="stop-color:#f0ebd8;stop-opacity:1" />
    </linearGradient>
    <linearGradient
       inkscape:collect="always"
       xlink:href="#linearGradient31805"
       id="linearGradient31839"
       gradientUnits="userSpaceOnUse"
       x1="1422.4847"
       y1="-1271.2937"
       x2="1422.4847"
       y2="-1234.8198" />
    <linearGradient
       inkscape:collect="always"
       id="linearGradient31805">
      <stop
         style="stop-color:#f0ebd8;stop-opacity:1"
         offset="0"
         id="stop31807" />
      <stop
         style="stop-color:#ede7d0;stop-opacity:1"
         offset="1"
         id="stop31809" />
    </linearGradient>
    <linearGradient
       inkscape:collect="always"
       xlink:href="#linearGradient31702"
       id="linearGradient31708"
       x1="1211.3344"
       y1="1207.179"
       x2="1211.8138"
       y2="1165.8014"
       gradientUnits="userSpaceOnUse" />
    <linearGradient
       inkscape:collect="always"
       id="linearGradient31702">
      <stop
         style="stop-color:#eee8d3;stop-opacity:1"
         offset="0"
         id="stop31704" />
      <stop
         style="stop-color:#f0ebd8;stop-opacity:1"
         offset="1"
         id="stop31706" />
    </linearGradient>
    <linearGradient
       inkscape:collect="always"
       xlink:href="#linearGradient31578"
       id="linearGradient31601"
       gradientUnits="userSpaceOnUse"
       x1="1122.3896"
       y1="-599.55536"
       x2="1122.3896"
       y2="-842.98364" />
    <linearGradient
       inkscape:collect="always"
       id="linearGradient31578">
      <stop
         style="stop-color:#ede7d0;stop-opacity:1"
         offset="0"
         id="stop31580" />
      <stop
         style="stop-color:#f0ebd8;stop-opacity:1"
         offset="1"
         id="stop31582" />
    </linearGradient>
    <linearGradient
       inkscape:collect="always"
       xlink:href="#linearGradient31538"
       id="linearGradient31544"
       x1="1737.9163"
       y1="-468.09174"
       x2="1737.9163"
       y2="-701.65594"
       gradientUnits="userSpaceOnUse" />
    <linearGradient
       inkscape:collect="always"
       id="linearGradient31538">
      <stop
         style="stop-color:#ede7d0;stop-opacity:1"
         offset="0"
         id="stop31540" />
      <stop
         style="stop-color:#f0ebd8;stop-opacity:1"
         offset="1"
         id="stop31542" />
    </linearGradient>
    <linearGradient
       inkscape:collect="always"
       xlink:href="#linearGradient6334"
       id="linearGradient27812"
       gradientUnits="userSpaceOnUse"
       gradientTransform="translate(-842.01439,-772.84893)"
       x1="8512.0088"
       y1="295.36111"
       x2="8512.0088"
       y2="-56.756847" />
    <linearGradient
       id="linearGradient6334"
       inkscape:collect="always">
      <stop
         id="stop6336"
         offset="0"
         style="stop-color:#ede7d0;stop-opacity:1;" />
      <stop
         id="stop6338"
         offset="1"
         style="stop-color:#f0ebd8;stop-opacity:1" />
    </linearGradient>
    <linearGradient
       inkscape:collect="always"
       xlink:href="#linearGradient6334"
       id="linearGradient27814"
       gradientUnits="userSpaceOnUse"
       gradientTransform="translate(-842.01439,-772.84893)"
       x1="8512.0088"
       y1="295.36111"
       x2="8512.0088"
       y2="-56.756847" />
  </defs>
  <sodipodi:namedview
     id="base"
     pagecolor="#7d848b"
     bordercolor="#666666"
     borderopacity="1.0"
     inkscape:pageopacity="1"
     inkscape:pageshadow="2"
     inkscape:zoom="0.10654466"
     inkscape:cx="4013.5996"
     inkscape:cy="300.66304"
     inkscape:document-units="px"
     inkscape:current-layer="layer1"
     showgrid="false"
     inkscape:pagecheckerboard="false"
     showborder="true"
     units="px"
     inkscape:window-width="1920"
     inkscape:window-height="1017"
     inkscape:window-x="-8"
     inkscape:window-y="-8"
     inkscape:window-maximized="1"
     inkscape:showpageshadow="false"
     guidetolerance="28"
     fit-margin-top="0"
     fit-margin-left="0"
     fit-margin-right="0"
     fit-margin-bottom="0">
    <inkscape:grid
       type="xygrid"
       id="grid24034"
       spacingx="1px"
       spacingy="1px"
       empspacing="8"
       visible="true"
       enabled="true"
       snapvisiblegridlinesonly="true"
       originx="3296.2316px"
       originy="456.94687px" />
  </sodipodi:namedview>
  <metadata
     id="metadata23486">
    <rdf:RDF>
      <cc:Work
         rdf:about="">
        <dc:format>image/svg+xml</dc:format>
        <dc:type
           rdf:resource="http://purl.org/dc/dcmitype/StillImage" />
        <dc:title></dc:title>
        <cc:license
           rdf:resource="" />
        <dc:creator>
          <cc:Agent>
            <dc:title>Robert Brooks</dc:title>
          </cc:Agent>
        </dc:creator>
      </cc:Work>
    </rdf:RDF>
  </metadata>
  <g
     inkscape:label="Layer 1"
     inkscape:groupmode="layer"
     id="layer1"
     transform="translate(872.12797,44.274111)">
    <g
       transform="matrix(1.8166447,-0.03533817,0.03533817,1.8166447,-2878.6517,584.2548)"
       id="g27794">
      <g
         id="g27796"
         transform="translate(-222.78298,-204.48295)">
        <path
           transform="matrix(0.26458334,0,0,0.26458334,-6.3049604e-6,18.562493)"
           inkscape:connector-curvature="0"
           id="path27798"
           d="m 8663.7268,455.43411 c 69.1655,3.00719 215.0144,15.03597 215.0144,15.03597 l 0,-178.92806 z"
           style="opacity:0.53982299;color:#000000;fill:#000000;fill-opacity:1;fill-rule:nonzero;stroke:none;stroke-width:50;marker:none;visibility:visible;display:inline;overflow:visible;enable-background:accumulate" />
        <path
           inkscape:connector-curvature="0"
           style="color:#000000;fill:url(#linearGradient27812);fill-opacity:1;fill-rule:nonzero;stroke:#3b2213;stroke-width:13.7590313;stroke-linejoin:miter;stroke-miterlimit:4;stroke-opacity:1;stroke-dasharray:none;marker:none;visibility:visible;display:inline;overflow:visible;enable-background:accumulate"
           d="m 7354.7812,-952.28125 0,56.15625 14.3438,6.125 -9,8.375 0.1562,255.28125 -5.9374,268.3125 -1.75,42.125 43.5937,1.5 35.5,0.3125 C 7431.9252,-328.6332 7431.25,-341.5 7431.25,-341.5 l 26.25,27.65625 425.875,3.9375 163.9062,-16.53125 -3.6562,-246.375 4.8125,-258.78125 4.0313,-114.3125 -57.8438,0 -10.5,15.03125 -12.0312,-15.03125 -489.2188,-1.28125 -128.0938,-5.09375 z"
           transform="matrix(0.26458334,0,0,0.26458334,222.78297,223.04544)"
           id="path27800" />
        <path
           inkscape:connector-curvature="0"
           style="color:#000000;fill:url(#linearGradient27814);fill-opacity:1;fill-rule:nonzero;stroke:none;stroke-width:15;marker:none;visibility:visible;display:inline;overflow:visible;enable-background:accumulate"
           d="m 7354.7812,-952.28125 0,56.15625 14.3438,6.125 -9,8.375 0.1562,255.28125 -5.9374,268.3125 -1.75,42.125 43.5937,1.5 35.5,0.3125 C 7431.9252,-328.6332 7431.25,-341.5 7431.25,-341.5 l 26.25,27.65625 425.875,3.9375 163.9062,-16.53125 -3.6562,-246.375 4.8125,-258.78125 4.0313,-114.3125 -57.8438,0 -10.5,15.03125 -12.0312,-15.03125 -489.2188,-1.28125 -128.0938,-5.09375 z"
           transform="matrix(0.26458334,0,0,0.26458334,222.78297,223.04544)"
           id="path27802" />
        <path
           id="path27804"
           transform="matrix(0.26458334,0,0,0.26458334,-6.3049604e-6,18.562493)"
           d="m 8196.8125,-179.4375 0,56.15625 10.5313,4.5 0,-53.15625 128.0937,5.125 478.6563,1.28125 12.0312,15.03125 10.5,-15.03125 47.3438,0 3.5624,264.8125 2.9063,-158 4.0625,-114.34375 -57.875,0 -10.5,15.03125 -12.0312,-15.03125 -489.1876,-1.28125 -128.0937,-5.09375 z m 12.0937,64.34375 -6.7812,6.3125 0.1875,255.28125 -5.9687,268.3125 -1.75,42.125 0.3124,0 1.4376,-34.59375 5.9687,-268.3125 10.3437,-255.28125 9,-8.375 -12.75,-5.46875 z m 676.7813,318.125 -0.031,4.53125 3.5,238.84375 0.125,0 -3.5937,-243.375 z"
           style="color:#000000;fill:#ffffff;fill-opacity:1;fill-rule:nonzero;stroke:none;stroke-width:15;marker:none;visibility:visible;display:inline;overflow:visible;enable-background:accumulate"
           inkscape:connector-curvature="0" />
        <path
           inkscape:connector-curvature="0"
           style="opacity:0.08849559;color:#000000;fill:#925533;fill-opacity:1;fill-rule:nonzero;stroke:none;stroke-width:50;marker:none;visibility:visible;display:inline;overflow:visible;enable-background:accumulate"
           d="m 7355.9688,-431.125 -1.625,73.09375 -1.75,42.125 43.625,1.5 35.4687,0.3125 C 7431.9252,-328.6332 7431.25,-341.5 7431.25,-341.5 l 26.25,27.65625 425.875,3.9375 163.9062,-16.53125 -1.75,-101.9375 c -62.7824,10.24095 -586.6352,-2.75 -689.5624,-2.75 z"
           transform="matrix(0.26458334,0,0,0.26458334,222.78297,223.04544)"
           id="path27806" />
        <path
           inkscape:connector-curvature="0"
           style="opacity:0.67256637;color:#000000;fill:#b99a59;fill-opacity:1;fill-rule:nonzero;stroke:none;stroke-width:15;marker:none;visibility:visible;display:inline;overflow:visible;enable-background:accumulate"
           d="m 8052.125,-945.90625 -3.6875,103.6875 -4.7813,258.78125 0.094,5.96875 4.6875,-254.09375 4.0625,-114.34375 -0.375,0 z m -697.3125,39.15625 0,10.625 6.5,2.78125 7.8125,-7.28125 -14.3125,-6.125 z m 692.375,573.8125 -163.8125,16.53125 -432.0938,-4 6.2188,6.5625 425.875,3.9375 163.9062,-16.53125 -0.094,-6.5 z m -694.3125,10.53125 -0.2812,6.5 43.625,1.5 35.4687,0.3125 c 0.037,-2.2302 0.031,-4.38995 0.031,-6.5 l -35.5,-0.3125 -43.3438,-1.5 z"
           transform="matrix(0.26458334,0,0,0.26458334,222.78297,223.04544)"
           id="path27808" />
        <path
           inkscape:connector-curvature="0"
           style="color:#000000;fill:#a98c48;fill-opacity:1;fill-rule:nonzero;stroke:none;stroke-width:50;marker:none;visibility:visible;display:inline;overflow:visible;enable-background:accumulate"
           d="m 7431.25,-350 c 0,0 0.1293,3.89462 0.3438,8.875 l 25.9062,27.28125 0.875,0 0,-7.46875 L 7431.25,-350 z"
           transform="matrix(0.26458334,0,0,0.26458334,222.78297,223.04544)"
           id="path27810" />
      </g>
    </g>
    <g
       id="g31525"
       transform="translate(-2139.73,789.41674)">
      <path
         id="path31516"
         transform="matrix(0.26458334,0,0,0.26458334,-6.3049604e-6,18.562493)"
         d="m 4841.7188,-2894.0312 0,0.031 0,51.25 c -0.6608,3.9645 -1.0311,17.9683 -1.1563,39.375 -0.041,6.6719 -0.034,14.69 -0.031,22.7188 0,1.3082 0,2.4611 0,3.8124 0.01,6.3536 -6e-4,12.3417 0.031,19.4063 1e-4,0.011 -1e-4,0.02 0,0.031 0.011,4.3561 -0.021,8.1528 0,12.8124 0.01,1.519 0.026,3.1691 0.031,4.7188 6e-4,0.2155 -7e-4,0.4402 0,0.6562 -6e-4,11.9224 -0.038,24.589 -0.125,37.875 -0.045,6.7616 -0.092,13.6602 -0.1563,20.7188 -0.1295,14.1268 -0.2989,28.7858 -0.5,43.875 -0.6027,45.2348 -1.5086,94.1323 -2.5313,142.5625 -0.6817,32.2868 -1.412,64.3541 -2.1562,95.0313 -2.2325,92.0315 -4.5259,171.3659 -5.5312,205.2812 -0.3352,11.3046 -0.5313,17.5625 -0.5313,17.5625 l 0.375,0.8125 0,0.031 c -0.163,5.4299 -0.375,11.9688 -0.375,11.9688 l 27.5937,59.75 -32.7187,60.7188 -15.375,430.625 -5.125,107.6562 0.5625,0 0.062,0 -0.625,12.8125 1599.4375,-5.125 25.625,-41 35.9062,46.125 538.2813,-2.5625 112.7813,7.6875 41,-30.75 0,-12.8125 0,-864.7812 0,-11.8438 -31.9063,-45.5938 21.6563,-39 5.125,-389.5937 -0.1563,0 0.1563,-12.8125 0,-0.031 -2032.2813,0 0,0.031 -34.4375,36.2188 -29,-36.2188 0,-0.031 -213.9062,0 z"
         style="color:#000000;fill:#c7af7b;fill-opacity:1;fill-rule:nonzero;stroke:#3b2213;stroke-width:25;stroke-miterlimit:4;stroke-opacity:1;stroke-dasharray:none;marker:none;visibility:visible;display:inline;overflow:visible;enable-background:accumulate"
         inkscape:connector-curvature="0" />
      <path
         sodipodi:nodetypes="cscccccccccccccccccccc"
         inkscape:connector-curvature="0"
         id="path31509"
         d="m 1281.0358,-730.18989 c -0.2797,1.6783 -0.3554,10.1633 -0.2995,22.57626 0.2154,47.77846 -3.0432,153.75083 -3.0432,153.75083 l 8.1382,17.63271 -9.4945,17.63271 -4.0691,113.9344 -1.3564,28.48361 423.185,-1.35636 6.7818,-10.85091 9.4946,12.20727 142.418,-0.67818 29.84,2.03454 10.8509,-8.13816 0,-231.93794 -9.4946,-13.56362 6.7818,-12.20727 1.3564,-103.08352 -537.7074,0 -9.1114,9.59093 -7.6727,-9.59093 -56.5979,0 z"
         style="color:#000000;fill:#c7af7b;fill-opacity:1;fill-rule:nonzero;stroke:none;stroke-width:7;marker:none;visibility:visible;display:inline;overflow:visible;enable-background:accumulate" />
      <path
         sodipodi:nodetypes="cscccccccccccccccccccc"
         inkscape:connector-curvature="0"
         id="path24472"
         d="m 1281.0358,-733.5808 c -0.2797,1.67831 -0.3554,10.16331 -0.2995,22.57627 0.2154,47.77845 -3.0432,153.75083 -3.0432,153.75083 l 8.1382,17.63271 -9.4945,17.6327 -4.0691,113.9344 -1.3564,28.48362 423.185,-1.35636 6.7818,-10.85091 9.4946,12.20727 142.418,-0.67818 29.84,2.03454 10.8509,-8.13816 0,-231.93794 -9.4946,-13.56362 6.7818,-12.20727 1.3564,-103.08352 -537.7074,0 -9.1114,9.59093 -7.6727,-9.59093 -56.5979,0 z"
         style="color:#000000;fill:#efe9d4;fill-opacity:1;fill-rule:nonzero;stroke:none;stroke-width:7;marker:none;visibility:visible;display:inline;overflow:visible;enable-background:accumulate" />
      <path
         style="color:#000000;fill:url(#linearGradient31544);fill-opacity:1;fill-rule:nonzero;stroke:none;stroke-width:7;marker:none;visibility:visible;display:inline;overflow:visible;enable-background:accumulate"
         d="m 1281.0358,-733.5808 c -0.2797,1.67831 -0.3554,10.16331 -0.2995,22.57627 0.2154,47.77845 -3.0432,153.75083 -3.0432,153.75083 l 8.1382,17.63271 -9.4945,17.6327 -4.0691,113.9344 -1.3564,28.48362 423.185,-1.35636 6.7818,-10.85091 9.4946,12.20727 142.418,-0.67818 29.84,2.03454 10.8509,-8.13816 0,-231.93794 -9.4946,-13.56362 6.7818,-12.20727 1.3564,-103.08352 -537.7074,0 -9.1114,9.59093 -7.6727,-9.59093 -56.5979,0 z"
         id="path31507"
         inkscape:connector-curvature="0"
         sodipodi:nodetypes="cscccccccccccccccccccc" />
      <path
         inkscape:connector-curvature="0"
         id="path31511"
         d="m 1281.0381,-747.14781 0,13.56815 c -0.2797,1.67833 -0.3619,10.15931 -0.3059,22.57229 0.2153,47.77846 -3.0427,153.756 -3.0427,153.756 l 0.1075,0.23976 7.0776,-187.00253 52.7595,0 7.673,9.59115 9.1115,-9.59115 533.3918,0 2.8773,100.11172 0.083,-0.15711 1.356,-103.08828 -537.7078,0 -9.1115,9.59115 -7.673,-9.59115 -56.596,0 z m 603.9198,116.68125 -0.9674,1.74461 9.4919,13.56815 0,-3.13367 -8.5245,-12.17909 z m -599.9014,92.28998 -8.723,16.18919 -4.068,113.9362 -1.356,28.48404 0.1489,0 1.2071,-25.35036 4.068,-113.93621 9.5002,-17.63614 -0.7772,-1.68672 z"
         style="color:#000000;fill:#ffffff;fill-opacity:1;fill-rule:nonzero;stroke:none;stroke-width:7;marker:none;visibility:visible;display:inline;overflow:visible;enable-background:accumulate" />
      <path
         style="opacity:0.42920353;color:#000000;fill:#e5dac2;fill-opacity:1;fill-rule:nonzero;stroke:none;stroke-width:7;marker:none;visibility:visible;display:inline;overflow:visible;enable-background:accumulate"
         d="m 4726.8125,-1970.8125 -5.4063,150.7813 -5.125,107.6562 1599.4688,-5.125 25.625,-41 35.875,46.125 538.2812,-2.5625 112.7813,7.6875 41,-30.75 0,-232.8125 -2342.5,0 z"
         transform="matrix(0.26458334,0,0,0.26458334,23.05815,73.49516)"
         id="path31548"
         inkscape:connector-curvature="0" />
    </g>
    <g
       id="g31594"
       transform="translate(-1207.9093,879.61484)">
      <path
         sodipodi:nodetypes="cccccccccscccccccccccccccccccccccccc"
         inkscape:connector-curvature="0"
         id="path31568"
         transform="matrix(0.26458334,0,0,0.26458334,-6.3049604e-6,18.562493)"
         d="m 4623.125,-3522.0938 -180.7812,2.5626 -15.875,34.75 c 0,0 -16.6205,-22.6299 -22.3438,-34.75 l -520.4688,0 c 0,0 -142.2703,3e-4 -182,-1.2813 0.1206,4.8025 0.2268,9.3606 0.3438,14.0937 -0.1005,0 -0.2445,0 -0.3438,0 5.8309,232.2205 7.4182,382.8195 7.5626,513 0,11.3665 0.016,22.7495 0,33.875 -0.1547,110.2809 -1.1563,210.7976 -1.1563,342.5626 l 0.031,0 c 0,4.7711 -0.031,9.2398 -0.031,14.0937 l 27.7813,15.5937 -17.5313,8.7813 -7.6875,456.25 0,14.0937 0,231.9688 0,14.0938 c 0,0 251.5945,0.3125 289.6562,-5.125 l 25.2813,-43.7813 39.4375,40.5313 c 77.9357,10.8747 556.7813,5.664 556.7813,5.664 l 0.5391,-15 c 0.012,-5.8906 -0.5391,-9.9685 -0.5391,-9.9685 l -6.3438,-160.4143 c -1.9334,-0.7061 -4.767,-1.6714 -7.6875,-2.5 4.0081,-3.6794 7.6875,-6.7812 7.6875,-6.7812 l 0,-14.0938 0,-1255.9062 0,-14.0938 -2.125,-0.4688 c 3.5828,-2.456 7.1118,-4.8991 9.8125,-6.875 l 0,-14.0937 0,-142.6875 z"
         style="color:#000000;fill:#ab9366;fill-opacity:1;fill-rule:nonzero;stroke:#3b2213;stroke-width:25;stroke-opacity:1;marker:none;visibility:visible;display:inline;overflow:visible;enable-background:accumulate" />
      <path
         style="color:#000000;fill:#ab9366;fill-opacity:1;fill-rule:nonzero;stroke:none;stroke-width:25;marker:none;visibility:visible;display:inline;overflow:visible;enable-background:accumulate"
         d="m 1223.2012,-909.59348 -47.8318,0.678 -4.2002,9.1943 c 0,0 -4.3975,-5.9875 -5.9118,-9.1943 l -137.7067,0 c 0,0 -37.64352,10e-5 -48.15532,-0.339 3.0855,122.8833 1.6955,159.3729 1.6955,239.0593 l 10.8561,6.102 -8.1441,4.0762 -2.034,120.71618 0,65.10403 c 0,0 66.56772,0.0827 76.63822,-1.35599 l 6.689,-11.58377 10.4344,10.72385 c 20.6205,2.87729 147.5549,1.43865 147.5549,1.43865 l -1.9182,-45.26024 c -1.0746,-0.39243 -3.1794,-1.09966 -4.407,-1.09966 -1.6954,0 4.407,-5.08497 4.407,-5.08497 l 0,-336.02088 -4.746,-1.0335 c 0,0 4.51,-2.9778 6.78,-4.6385 z"
         id="path31566"
         inkscape:connector-curvature="0"
         sodipodi:nodetypes="ccccccccccccccccsccccc" />
      <path
         sodipodi:nodetypes="ccccccccccccccccsccccc"
         inkscape:connector-curvature="0"
         id="path31553"
         d="m 1223.2012,-913.32348 -47.8318,0.678 -4.2002,9.1943 c 0,0 -4.3975,-5.9875 -5.9118,-9.1943 l -137.7067,0 c 0,0 -37.64352,10e-5 -48.15532,-0.339 3.0855,122.8833 1.6955,159.3729 1.6955,239.0593 l 10.8561,6.102 -8.1441,4.0762 -2.034,120.71618 0,65.10403 c 0,0 66.56772,0.0827 76.63822,-1.35599 l 6.689,-11.58377 10.4344,10.72385 c 20.6205,2.87729 147.5549,1.43865 147.5549,1.43865 l -1.9182,-45.26024 c -1.0746,-0.39243 -3.1794,-1.09966 -4.407,-1.09966 -1.6954,0 4.407,-5.08497 4.407,-5.08497 l 0,-336.02088 -4.746,-1.0335 c 0,0 4.51,-2.9778 6.78,-4.6385 z"
         style="color:#000000;fill:url(#linearGradient31601);fill-opacity:1;fill-rule:nonzero;stroke:none;stroke-width:25;marker:none;visibility:visible;display:inline;overflow:visible;enable-background:accumulate" />
      <path
         id="path31573"
         transform="matrix(0.26458334,0,0,0.26458334,-6.3049604e-6,18.562493)"
         d="m 4623.125,-3522.0938 -180.7812,2.5626 -15.875,34.75 c 0,0 -16.6205,-22.6299 -22.3438,-34.75 l -520.4688,0 c 0,0 -142.2703,3e-4 -182,-1.2813 11.6618,464.4408 6.4063,602.3543 6.4063,903.5313 l 0.031,0.031 c 0.7707,-290.572 22.9602,-431.7718 11.5,-888.1875 39.7296,1.2816 164.0624,1.2813 164.0624,1.2813 l 520.4688,0 c 5.7233,12.1201 22.3438,34.75 22.3438,34.75 l 15.875,-34.75 167.9687,-2.5626 0,150.3438 c 4.5505,-3.0923 9.3437,-6.3998 12.8125,-8.9375 l 0,-156.7813 z M 4605,-3346.1562 c -8.8621,6.1902 -20.3125,13.75 -20.3125,13.75 l 17.9375,3.9062 12.6562,1254.75 c 0.01,0 0.1563,-0.125 0.1563,-0.125 l 0,-1270 -10.4375,-2.2812 z m -870.375,759.1874 -16.3125,8.1563 -7.6875,456.25 0,15.375 7.6875,-456.25 30.7813,-15.4063 -14.4688,-8.125 z m 874.1562,534.2813 c -6.2532,5.6601 -14.0773,13.4063 -10,13.4063 4.6398,0 12.5948,2.673 16.6563,4.1562 l 6.5937,155.6875 c 0.015,-2e-4 0.6563,0 0.6563,0 l -7.25,-171.0625 c -1.703,-0.6219 -4.1156,-1.432 -6.6563,-2.1875 z"
         style="color:#000000;fill:#fcfcf9;fill-opacity:1;fill-rule:nonzero;stroke:none;stroke-width:25;marker:none;visibility:visible;display:inline;overflow:visible;enable-background:accumulate"
         inkscape:connector-curvature="0" />
      <path
         id="rect31586"
         transform="matrix(0.26458334,0,0,0.26458334,-6.3049604e-6,18.562493)"
         d="m 3710.625,-1990.25 0,113.75 c 0,0 251.5945,0.3126 289.6562,-5.125 l 25.2813,-43.7812 39.4375,40.5312 c 77.9357,10.8748 557.6875,5.4375 557.6875,5.4375 L 4618,-1990.25 l -907.375,0 z"
         style="color:#000000;fill:#eae1ca;fill-opacity:1;fill-rule:nonzero;stroke:none;stroke-width:25;marker:none;visibility:visible;display:inline;overflow:visible;enable-background:accumulate"
         inkscape:connector-curvature="0" />
    </g>
    <g
       id="g31691"
       transform="translate(-1138.9619,-1197.1201)">
      <path
         id="path31684"
         transform="matrix(0.26458334,0,0,0.26458334,-6.3049604e-6,18.562493)"
         d="m 4657.5938,4296.0625 c -5.7167,-0.017 -13.7353,-9e-4 -23.1876,0.031 -1.7805,4.5414 -3.8437,8.5937 -3.8437,8.5937 0,0 -3.617,-3.907 -7.4687,-8.5313 -8.038,0.038 -16.0833,0.076 -25.3126,0.125 l 0,-0.031 c -62.9529,0.3591 -146.0624,1.0625 -146.0624,1.0625 l -1.25,10.2187 c -0.3725,0.3763 -0.3736,4.7928 -0.2188,12.1876 0.1531,7.3964 0.4612,17.7732 0.6875,30.0312 0.1518,8.1711 0.2654,17.1856 0.2813,26.7188 0,1.5541 0,2.8909 0,4.4687 4.6678,0.5611 9.8945,1.708 13.7187,2.7187 -0.7892,0.5034 -1.6208,1.1035 -2.5,1.6876 -0.01,0.01 -0.024,-0.01 -0.031,0 -1.6492,1.0958 -3.4262,2.2871 -5.2187,3.4374 -0.1045,0.067 -0.208,0.1209 -0.3125,0.1876 -0.091,0.058 -0.1904,0.099 -0.2812,0.1562 -0.8582,0.5443 -1.7152,1.0946 -2.5626,1.5938 -0.1195,0.07 -0.2247,0.1496 -0.3437,0.2187 -0.185,0.1072 -0.3789,0.2086 -0.5625,0.3125 -0.6195,0.3507 -1.2459,0.6953 -1.8438,1 0,1.2709 0,2.5668 0,3.8438 0.011,5.8237 0.026,11.676 0,17.5312 -0.063,14.2779 -0.2391,28.4173 -0.4374,41.3438 -0.062,3.9829 -0.1207,8.001 -0.1876,11.7187 -0.039,2.1733 -0.085,4.5605 -0.125,6.625 0,0.052 0,0.1038 0,0.1563 -0.1966,10.1984 -0.4001,18.3494 -0.5624,24.9374 -0.018,0.7431 -0.045,2.1265 -0.063,2.8126 -0.016,0.6324 -0.047,1.8272 -0.062,2.4062 -0.1115,4.2481 -0.2188,8.3438 -0.2188,8.3438 l 0.094,0 0.031,0 c -0.036,1.3041 -0.125,4.5 -0.125,4.5 l 12.1875,0.031 192.9063,0.7188 14,-10.8438 c 0,0 -0.03,-4.2248 -0.031,-4.4688 0,0 0,-0.03 0,-0.031 l 0.031,0 c 0,0 -0.1102,-32.851 -0.2813,-72.4375 -0.083,-19.7867 -0.1849,-41.2424 -0.2813,-61.125 -0.099,-19.8824 -0.1893,-38.1781 -0.2812,-51.625 -0.043,-6.2884 -0.1418,-11.3682 -0.2812,-14.9063 -0.1348,-3.537 -0.3201,-5.5342 -0.5626,-5.5937 -0.3072,-0.076 -3.7208,-0.1075 -9.4374,-0.125 z"
         style="color:#000000;fill:#c1774d;fill-opacity:1;fill-rule:nonzero;stroke:#3b2213;stroke-width:18;stroke-miterlimit:4;stroke-opacity:1;stroke-dasharray:none;marker:none;visibility:visible;display:inline;overflow:visible;enable-background:accumulate"
         inkscape:connector-curvature="0" />
      <path
         style="color:#000000;fill:#c7af7b;fill-opacity:1;fill-rule:nonzero;stroke:none;stroke-width:25;marker:none;visibility:visible;display:inline;overflow:visible;enable-background:accumulate"
         d="m 1216.4972,1156.4692 c -16.6563,0.095 -38.6448,0.2752 -38.6448,0.2752 l 0.1767,2.1985 c -0.2628,0.2655 -0.3245,8.6566 -0.3077,18.7459 2.5205,0.303 5.6622,1.2356 4.9923,1.2391 -0.6792,0 -3.0891,1.9732 -4.9789,2.9363 0.053,14.9598 -0.4391,31.6783 -0.4391,31.6783 l 3.2288,0.01 51.0375,0.1915 3.7058,-2.8718 c 0,0 -0.1324,-34.7657 -0.2297,-48.997 -0.023,-3.3276 -0.09,-5.3914 -0.2183,-5.4229 -0.1626,-0.04 -3.6305,-0.047 -8.6323,-0.03 -0.4711,1.2016 -1.0217,2.2791 -1.0217,2.2791 0,0 -0.9523,-1.04 -1.9714,-2.2635 -2.1267,0.01 -4.2553,0.022 -6.6972,0.035 z"
         id="path31677"
         inkscape:connector-curvature="0"
         sodipodi:nodetypes="scccsccccccccccs" />
      <path
         sodipodi:nodetypes="ccccsccccccccccsc"
         inkscape:connector-curvature="0"
         id="path31663"
         d="m 1216.4972,1155.2824 c -16.6563,0.095 -38.6448,0.2752 -38.6448,0.2752 l -0.3319,2.7071 c -0.2628,0.2655 0.1841,8.148 0.2009,18.2373 2.5205,0.303 5.6622,1.2356 4.9923,1.2391 -0.6792,0 -3.0891,1.9732 -4.9789,2.9363 0.053,14.9598 -0.4391,31.6783 -0.4391,31.6783 l 3.2288,0.01 51.0375,0.1915 3.7058,-2.8718 c 0,0 -0.1324,-34.7657 -0.2297,-48.997 -0.023,-3.3276 -0.09,-5.3914 -0.2183,-5.4229 -0.1626,-0.04 -3.6305,-0.047 -8.6323,-0.03 -0.4711,1.2016 -1.0217,2.2791 -1.0217,2.2791 0,0 -0.9523,-1.04 -1.9714,-2.2635 -2.1267,0.01 -4.2553,0.022 -6.6972,0.035 z"
         style="color:#000000;fill:url(#linearGradient31708);fill-opacity:1;fill-rule:nonzero;stroke:none;stroke-width:25;marker:none;visibility:visible;display:inline;overflow:visible;enable-background:accumulate" />
      <path
         id="path31679"
         transform="matrix(0.26458334,0,0,0.26458334,-6.3049604e-6,18.562493)"
         d="m 4657.5938,4296.0625 c -5.7167,-0.017 -13.7353,-9e-4 -23.1876,0.031 -1.7805,4.5414 -3.8437,8.5937 -3.8437,8.5937 0,0 -3.617,-3.907 -7.4687,-8.5313 -8.038,0.038 -16.0833,0.076 -25.3126,0.125 l 0,-0.031 c -62.9529,0.3591 -146.0624,1.0625 -146.0624,1.0625 l -1.25,10.2187 c -0.9933,1.0035 0.6865,30.8048 0.75,68.9376 0.01,0 0.021,0 0.031,0 0.1621,-36.2647 3.3843,-64.1245 4.3438,-65.0938 l 1.25,-10.2188 c 0,0 77.9845,-0.7034 140.9374,-1.0624 0,0 17.2746,-0.056 25.3126,-0.094 3.8517,4.6243 7.4687,8.5312 7.4687,8.5312 0,0 2.0632,-4.0522 3.8437,-8.5937 18.9045,-0.064 28.1667,-0.057 28.7813,0.094 0.4849,0.1191 1.3818,10.4858 1.4687,23.0626 0.3514,51.3828 3.6658,168.2596 3.9688,178.875 l 0.094,-0.094 c 0,0 -0.4761,-131.3999 -0.8438,-185.1875 -0.087,-12.5768 -0.3588,-20.3809 -0.8438,-20.5 -0.3072,-0.076 -3.7208,-0.1075 -9.4374,-0.125 z m -191.9063,87.1563 c -3.9914,2.4755 -9.6233,6.5937 -14.4063,9.0312 0,1.2709 0,2.5669 0,3.8438 7.1426,-3.6401 16.2455,-11.0938 18.8126,-11.0938 1.2038,-0.01 -0.8973,-0.8204 -4.4063,-1.7812 z m -14.4063,30.4062 c -0.2218,49.9726 -1.6562,98.3438 -1.6562,98.3438 l 0.094,0 c 0.2433,-8.6775 1.4163,-52.1452 1.5624,-98.3438 z"
         style="color:#000000;fill:#ffffff;fill-opacity:1;fill-rule:nonzero;stroke:none;stroke-width:25;marker:none;visibility:visible;display:inline;overflow:visible;enable-background:accumulate"
         inkscape:connector-curvature="0"
         sodipodi:nodetypes="cccccccccccccccccccccccccccccccccc" />
      <path
         style="opacity:0.58849553;color:#000000;fill:#e0d8c1;fill-opacity:1;fill-rule:nonzero;stroke:none;stroke-width:25;marker:none;visibility:visible;display:inline;overflow:visible;enable-background:accumulate"
         d="m 7079.625,-4335.8438 c -67.2226,-0.071 -161.2452,1.973 -211.125,3 -0.477,27.2013 -1.0625,47.1563 -1.0625,47.1563 l 12.2187,0.031 192.875,0.7187 14.0313,-10.8437 c 0,0 -0.1244,-24.3761 -0.1875,-40.0313 -2.2493,-0.01 -4.4284,-0.029 -6.75,-0.031 z"
         transform="matrix(0.26458334,0,0,0.26458334,-639.71495,2346.2808)"
         id="path31699"
         inkscape:connector-curvature="0" />
    </g>
    <g
       id="g31832"
       transform="translate(-1317.6782,1307.2263)">
      <path
         id="path31823"
         transform="matrix(0.26458334,0,0,0.26458334,-6.3049604e-6,18.562493)"
         d="m 5129.2812,-4901.5938 -12.6874,19.9376 0,45.3124 0,9 0.375,0.1876 -0.375,0.125 -1.0626,57.7812 -0.75,39.8438 0.125,0.125 0.031,0.062 -0.1563,8.8126 15.5313,18.125 13.4687,0 255.6876,0 7.0937,-9.0626 7.25,9.0626 1167.9063,0 2.9374,-12.6876 6.3438,12.6876 245.5938,0 29,-3.625 -0.1563,-8.9688 0.1563,-0.031 -0.875,-54.3438 -0.9376,-59.6875 c -7.9823,-1.9054 -15.0601,-3.5882 -21.3124,-5.0937 6.326,-2.4597 14.4583,-4.8926 21.3124,-5.9688 l -0.3437,-8.9375 c 0.112,-0.018 0.2325,-0.045 0.3437,-0.062 l -1.8124,-48.9688 -103.5,-0.2187 -5.25,18.3437 -14.1563,-18.375 c -62.7017,-0.097 -125.3772,-0.1932 -188.0625,-0.3124 -188.056,-0.3579 -376.1635,-0.8036 -564.9062,-1.25 -251.6571,-0.5954 -504.4661,-1.2084 -759.9376,-1.625 l -4.4687,17.9374 c 0,0 -0.4162,-0.5993 -1.0625,-1.5937 0,-0.01 0,-0.026 0,-0.031 -0.6624,-1.0196 -1.581,-2.4421 -2.6562,-4.1562 -2.1506,-3.4282 -4.8834,-7.9318 -7.1876,-12.1875 l -81.5,-0.1563 z"
         style="color:#000000;fill:#c7af7b;fill-opacity:1;fill-rule:nonzero;stroke:#3b2213;stroke-width:20;stroke-linejoin:round;stroke-miterlimit:4;stroke-opacity:1;stroke-dasharray:none;marker:none;visibility:visible;display:inline;overflow:visible;enable-background:accumulate"
         inkscape:connector-curvature="0" />
      <path
         style="color:#000000;fill:#c7af7b;fill-opacity:1;fill-rule:nonzero;stroke:none;stroke-width:18;marker:none;visibility:visible;display:inline;overflow:visible;enable-background:accumulate"
         d="m 1357.1204,-1275.9402 -3.3569,5.2751 0,11.9889 2.8774,1.4387 -2.8774,1.0252 -0.4795,25.83 4.1093,4.7955 3.5636,0 67.6506,0 1.8769,-2.3977 1.9182,2.3977 309.0086,0 0.7772,-3.3568 1.6784,3.3568 64.9801,0 7.6728,-0.959 -0.4795,-30.1708 c -3.1273,-0.7465 -6.932,-1.6545 -8.1525,-1.9596 -1.4781,-0.3696 4.1688,-2.7231 8.1525,-3.3486 l -0.4796,-12.9563 -27.3843,-0.058 -1.3891,4.8534 -3.7455,-4.8617 c -132.7185,-0.2062 -265.1028,-0.6229 -400.2898,-0.8434 l -1.1823,4.746 c 0,0 -1.6664,-2.5022 -2.8857,-4.7542 z"
         id="path31803"
         inkscape:connector-curvature="0"
         sodipodi:nodetypes="ccccccccccccccccccccccccccc" />
      <path
         sodipodi:nodetypes="ccccccccccccccccccccccccccc"
         inkscape:connector-curvature="0"
         id="rect31782"
         d="m 1357.1204,-1278.3138 -3.3569,5.2751 0,11.9889 2.8774,1.4387 -2.8774,1.0252 -0.4795,25.83 4.1093,4.7955 3.5636,0 67.6506,0 1.8769,-2.3977 1.9182,2.3977 309.0086,0 0.7772,-3.3568 1.6784,3.3568 64.9801,0 7.6728,-0.959 -0.4795,-30.1708 c -3.1273,-0.7465 -6.932,-1.6545 -8.1525,-1.9596 -1.4781,-0.3696 4.1688,-2.7231 8.1525,-3.3486 l -0.4796,-12.9563 -27.3843,-0.058 -1.3891,4.8534 -3.7455,-4.8617 c -132.7185,-0.2062 -265.1028,-0.6229 -400.2898,-0.8434 l -1.1823,4.746 c 0,0 -1.6664,-2.5022 -2.8857,-4.7542 z"
         style="color:#000000;fill:url(#linearGradient31839);fill-opacity:1;fill-rule:nonzero;stroke:none;stroke-width:18;marker:none;visibility:visible;display:inline;overflow:visible;enable-background:accumulate" />
      <path
         id="path31813"
         transform="matrix(0.26458334,0,0,0.26458334,-6.3049604e-6,18.562493)"
         d="m 5129.2812,-4901.5938 -12.6874,19.9376 0,45.3124 0.3437,0.1876 2.2187,-39.1563 12.6876,-19.9375 78.9374,0.1562 c 4.6084,8.5115 10.9063,17.9688 10.9063,17.9688 l 4.4687,-17.9375 c 510.943,0.8334 1011.2931,2.4082 1512.9063,3.1875 l 14.1563,18.375 5.25,-18.3438 94.4374,0.2188 5.0626,43.8125 c 1.9927,-0.466 3.9493,-0.895 5.8124,-1.1875 l -1.8124,-48.9688 -103.5,-0.2187 -5.25,18.3437 -14.1563,-18.375 c -501.6132,-0.7793 -1001.9633,-2.3541 -1512.9063,-3.1874 l -4.4687,17.9374 c 0,0 -6.2979,-9.4572 -10.9063,-17.9687 l -81.5,-0.1563 z m 1706.7188,66 c -3.8299,2.6644 -5.4513,4.9887 -3.0312,5.5938 4.6129,1.1531 13.5552,4.5848 25.375,7.4062 l 6.8437,107.75 0.4063,-0.062 -1.8126,-114.0313 c -10.4065,-2.4841 -21.8187,-5.1976 -27.7812,-6.6563 z m -1715.9375,7.3126 -3.4687,1.25 -1.8126,97.625 0.125,0.125 1.6876,-91.4063 10.875,-3.875 -7.4063,-3.7187 z"
         style="color:#000000;fill:#ffffff;fill-opacity:1;fill-rule:nonzero;stroke:none;stroke-width:18;marker:none;visibility:visible;display:inline;overflow:visible;enable-background:accumulate"
         inkscape:connector-curvature="0" />
      <path
         id="path31818"
         transform="matrix(0.26458334,0,0,0.26458334,-6.3049604e-6,18.562493)"
         d="m 5115.5312,-4769.25 -0.75,39.8438 15.5313,18.125 13.4687,0 255.6876,0 7.0937,-9.0626 7.25,9.0626 1167.9063,0 2.9374,-12.6876 6.3438,12.6876 245.5938,0 29,-3.625 -0.875,-54.3438 -1749.1876,0 z"
         style="opacity:0.06194691;color:#000000;fill:#c7af7b;fill-opacity:1;fill-rule:nonzero;stroke:none;stroke-width:18;marker:none;visibility:visible;display:inline;overflow:visible;enable-background:accumulate"
         inkscape:connector-curvature="0" />
    </g>
    <g
       id="g31841"
       transform="matrix(2.7980641,0,0,2.7980641,-6054.8865,277.032)">
      <path
         sodipodi:nodetypes="ccccccccccc"
         transform="matrix(0.26458334,0,0,0.26458334,-6.3049604e-6,18.562493)"
         inkscape:connector-curvature="0"
         id="path31843"
         d="m 8230.3246,-313.45129 c 0,16.53957 -0.8793,118.89103 -0.8793,118.89103 l 507.9578,0 6.0144,-12.02878 4.5108,12.02878 82.6978,0 0.3772,-119.58939 c -184.9949,-2.93522 -351.376,-0.8109 -525.1326,0 l -4.5108,10.52518 -9.0216,-9.02159 z"
         style="color:#000000;fill:#efead7;fill-opacity:1;fill-rule:nonzero;stroke:#3b2213;stroke-width:8.93474865;stroke-linecap:round;stroke-linejoin:round;stroke-miterlimit:4;stroke-opacity:1;stroke-dasharray:none;stroke-dashoffset:0;marker:none;visibility:visible;display:inline;overflow:visible;enable-background:accumulate" />
      <path
         transform="matrix(0.26458334,0,0,0.26458334,-6.3049604e-6,18.562493)"
         style="color:#000000;fill:url(#linearGradient31858);fill-opacity:1;fill-rule:nonzero;stroke:none;stroke-width:15;marker:none;visibility:visible;display:inline;overflow:visible;enable-background:accumulate"
         d="m 8230.3246,-313.45129 c 0,16.53957 -0.8793,118.89103 -0.8793,118.89103 l 507.9578,0 6.0144,-12.02878 4.5108,12.02878 82.6978,0 0.3772,-119.58939 -232.683,-3.00719 -292.4496,3.00719 -4.5108,10.52518 -9.0216,-9.02159 z"
         id="path31845"
         inkscape:connector-curvature="0"
         sodipodi:nodetypes="cccccccccccc" />
      <path
         transform="matrix(0.26458334,0,0,0.26458334,-6.3049604e-6,18.562493)"
         sodipodi:nodetypes="cccccccc"
         inkscape:connector-curvature="0"
         id="path31847"
         d="m 8230.2188,-227.72748 c -0.3545,32.47168 -0.7813,33.16498 -0.7813,33.16498 l 507.9687,0 6,-12.03125 4.5313,12.03125 82.6875,0 2.1562,-33.16498 z"
         style="opacity:0.08849559;color:#000000;fill:#5e371e;fill-opacity:1;fill-rule:nonzero;stroke:none;stroke-width:15;marker:none;visibility:visible;display:inline;overflow:visible;enable-background:accumulate" />
      <path
         style="color:#000000;fill:#c7af7b;fill-opacity:1;fill-rule:nonzero;stroke:none;stroke-width:15;marker:none;visibility:visible;display:inline;overflow:visible;enable-background:accumulate"
         d="m 6606.1875,1635.8125 -16.7813,33.6563 -1421.2187,0 c -0.01,0.8807 -0.094,11.9062 -0.094,11.9062 l 1421.3124,0 16.7813,-33.6875 0.031,0.062 4.8437,12.9062 7.8125,20.7188 231.375,0 0.031,-14.25 -0.062,2.3438 -231.3438,0 -12.6875,-33.6563 z"
         transform="matrix(0.09455943,0,0,0.09455943,1688.6821,-191.90401)"
         id="path31849"
         inkscape:connector-curvature="0" />
      <path
         sodipodi:nodetypes="cccccccccccccccccc"
         transform="matrix(0.26458334,0,0,0.26458334,-6.3049604e-6,18.562493)"
         id="path31851"
         d="m 8598.3125,-317.15625 -292.4375,3 -4.5,10.53125 -9.0312,-9.03125 -62.0198,-0.78125 c 0,16.53957 -0.8865,118.875 -0.8865,118.875 l 0.062,0 c 0.099,-6.73288 5.324,-99.16817 5.324,-115.125 l 57.5198,0.8125 9.0312,9 4.5,-10.53125 292.4375,-3 227.4398,3 4.8415,115.84375 0.031,0 0.3773,-119.59375 -232.6898,-3 z"
         style="color:#000000;fill:#ffffff;fill-opacity:1;fill-rule:nonzero;stroke:none;stroke-width:15;marker:none;visibility:visible;display:inline;overflow:visible;enable-background:accumulate"
         inkscape:connector-curvature="0" />
    </g>
    <g
       transform="matrix(0.96470641,0,0,0.96470641,-1278.1364,1248.2882)"
       id="g31898">
      <path
         inkscape:connector-curvature="0"
         style="color:#000000;fill:#c7af7b;fill-opacity:1;fill-rule:nonzero;stroke:#3b2213;stroke-width:27.99829483;stroke-miterlimit:4;stroke-opacity:1;stroke-dasharray:none;marker:none;visibility:visible;display:inline;overflow:visible;enable-background:accumulate"
         d="m 5143.5,-4189.1875 0,14.2813 0,15.125 c -0.9358,3.2218 -1.2393,18.439 -1.1562,40.4687 -0.042,6.6299 -0.036,14.2008 0.031,22.75 0.043,5.4697 0.08,11.5165 0.094,17.7187 -0.089,114.6819 -3.9063,316.6563 -3.9063,316.6563 l 0.25,0.1875 c -0.065,3.5552 -0.25,14.0938 -0.25,14.0938 l 15.7187,11.6874 -20.8437,4.3438 -2.5625,277.7188 0.125,0.094 -0.125,14.1875 35.9062,29.7188 39.0938,31.875 1519.3125,-2.7813 25.625,-23.5313 35.875,26.4688 558.7813,-2.9375 92.2812,5.875 41.0312,-17.6563 5.125,-510.4374 -0.1562,-0.125 0.1562,-14.1563 -28.1874,-23.0937 17.9374,-18.5 0,-14.2813 0,-201.4687 0,-14.2813 -2032.2812,0 -34.4375,20.7813 -29,-20.7813 -234.4375,0 z"
         transform="matrix(0.26458334,0,0,0.26458334,-6.3049604e-6,18.562493)"
         id="path31900" />
      <path
         style="color:#000000;fill:#c7af7b;fill-opacity:1;fill-rule:nonzero;stroke:none;stroke-width:7;marker:none;visibility:visible;display:inline;overflow:visible;enable-background:accumulate"
         d="m 1360.8861,-1078.2699 c -0.2796,0.9626 -0.3554,5.829 -0.2995,12.9482 0.2154,27.4023 -1.0086,92.24973 -1.0086,92.24973 l 8.1382,6.0438 -9.4946,1.9747 -0.6781,73.4829 9.5044,7.85894 10.3389,8.44128 401.9853,-0.74192 6.7818,-6.2234 9.4945,7.0013 147.8435,-0.7779 24.4145,1.5558 10.8509,-4.6675 1.3564,-135.05783 -9.4945,-7.7791 6.7818,-7.0012 -10e-5,-57.0869 -537.7073,0 -9.1114,5.5007 -7.6728,-5.5007 -62.0233,0 z"
         id="path31902"
         inkscape:connector-curvature="0"
         sodipodi:nodetypes="csccccccccccccccccccccc" />
      <path
         sodipodi:nodetypes="csccccccccccccccccccccc"
         inkscape:connector-curvature="0"
         id="path31904"
         d="m 1360.8861,-1082.0481 c -0.2796,0.9626 -0.3554,5.829 -0.2995,12.9482 0.2154,27.4023 -1.0086,92.24974 -1.0086,92.24974 l 8.1382,6.0438 -9.4946,1.9747 -0.6781,73.4829 9.5044,7.85894 10.3389,8.44128 401.9853,-0.74192 6.7818,-6.2234 9.4945,7.0013 147.8435,-0.7779 24.4145,1.5558 10.8509,-4.6675 1.3564,-135.05784 -9.4945,-7.7791 6.7818,-7.0012 -10e-5,-57.0869 -537.7073,0 -9.1114,5.5007 -7.6728,-5.5007 -62.0233,0 z"
         style="color:#000000;fill:url(#linearGradient31920);fill-opacity:1;fill-rule:nonzero;stroke:none;stroke-width:7;marker:none;visibility:visible;display:inline;overflow:visible;enable-background:accumulate" />
      <path
         inkscape:connector-curvature="0"
         style="color:#000000;fill:#ffffff;fill-opacity:1;fill-rule:nonzero;stroke:none;stroke-width:7;marker:none;visibility:visible;display:inline;overflow:visible;enable-background:accumulate"
         d="m 5143.5,-4189.1875 0,29.4063 c -1.0568,3.6381 -1.3363,22.0302 -1.125,48.9374 0.8141,103.5678 -3.8125,348.6563 -3.8125,348.6563 l 0.4375,0.3437 14.75,-414.5312 224.1875,0 29,20.7812 34.4375,-20.7812 2019.4375,0 12.125,203.6875 0.7187,-0.75 0,-215.75 -2032.2812,0 -34.4375,20.7813 -29,-20.7813 -234.4375,0 z m 2311.4375,247.875 -6.9375,7.1563 35.7812,29.3124 0.125,-12.7187 -28.9687,-23.75 z m -2299.0937,204.7813 -22.4063,4.6562 -2.5625,277.7188 0.125,0.094 2.4375,-265 35.875,-7.4687 -13.4687,-10 z"
         transform="matrix(0.26458334,0,0,0.26458334,-6.3049604e-6,18.562493)"
         id="path31906" />
      <path
         inkscape:connector-curvature="0"
         style="color:#000000;fill:#e5dac2;fill-opacity:1;fill-rule:nonzero;stroke:none;stroke-width:25;marker:none;visibility:visible;display:inline;overflow:visible;enable-background:accumulate"
         d="m 5132.0312,-3579.3438 -1.1562,125.1876 35.9062,29.7187 39.0938,31.9063 1519.3125,-2.8126 25.625,-23.5312 35.875,26.4688 558.7813,-2.9376 92.2812,5.875 41.0312,-17.6562 1.7188,-172.2188 -2348.4688,0 z"
         transform="matrix(0.26458334,0,0,0.26458334,-6.3049604e-6,18.562493)"
         id="path31908" />
      <path
         style="color:#000000;fill:#ffffff;fill-opacity:1;fill-rule:nonzero;stroke:none;stroke-width:25;marker:none;visibility:visible;display:inline;overflow:visible;enable-background:accumulate"
         d="m 5201.9062,-3474.125 c -17.0363,2.6355 -54.5068,11.0348 -71,16.25 l -5.1576,15.2532 41.0326,18.1843 35.249,44.0815 6.626,-12.1752 c 0.2886,-32.0538 -0.5029,-74.4599 1.0626,-79.1563 0.5607,-1.6821 -2.5808,-3.2469 -7.8126,-2.4375 z"
         transform="matrix(0.26458334,0,0,0.26458334,-6.3049604e-6,18.562493)"
         id="path31910"
         inkscape:connector-curvature="0"
         sodipodi:nodetypes="scccccss" />
      <path
         id="path31912"
         d="m 1374.9813,-897.07265 c -4.3908,1.16211 -13.7654,3.09557 -18.4463,3.6213 l -0.3491,1.66211 9.5002,7.86307 10.3435,8.44188 0.7359,0 c 0.076,-5.67386 -0.8113,-18.89577 -0.3971,-20.60435 0.1484,-0.44506 0.012,-0.98314 -1.3889,-0.98401 z"
         style="color:#000000;fill:#ede7d0;fill-opacity:1;fill-rule:nonzero;stroke:none;stroke-width:25;marker:none;visibility:visible;display:inline;overflow:visible;enable-background:accumulate"
         inkscape:connector-curvature="0"
         sodipodi:nodetypes="ccccccccc" />
      <path
         style="color:#000000;fill:#ffffff;fill-opacity:1;fill-rule:nonzero;stroke:#3b2213;stroke-width:25;stroke-linejoin:round;stroke-opacity:1;marker:none;visibility:visible;display:inline;overflow:visible;enable-background:accumulate"
         d="m 5129.6246,-3452.7486 7.9064,13.8734 38.6249,15.6721 24.5941,20.5784 6.1165,-1.2024 c 0.2887,-32.0539 -0.6357,-57.7174 -0.9925,-64.977 -12.005,2.6934 -59.7561,10.8403 -76.2494,16.0555 z"
         transform="matrix(0.26458334,0,0,0.26458334,-6.3049604e-6,18.562493)"
         id="path31914"
         inkscape:connector-curvature="0"
         sodipodi:nodetypes="ccccccc" />
      <path
         sodipodi:nodetypes="scccccss"
         inkscape:connector-curvature="0"
         id="path31916"
         transform="matrix(0.26458334,0,0,0.26458334,-6.3049604e-6,18.562493)"
         d="m 5199.0226,-3467.717 c -17.0363,2.6355 -52.9048,8.4716 -69.398,13.6868 l -6.1222,8.8452 43.2788,20.7475 33.6435,45.5233 5.6683,-9.4518 c 0.2886,-32.0538 0.514,-71.9683 0.7422,-76.9135 0.2403,-5.2065 -2.5808,-3.2469 -7.8126,-2.4375 z"
         style="color:#000000;fill:#ffffff;fill-opacity:1;fill-rule:nonzero;stroke:none;stroke-width:25;marker:none;visibility:visible;display:inline;overflow:visible;enable-background:accumulate" />
      <path
         sodipodi:nodetypes="cccccccc"
         inkscape:connector-curvature="0"
         style="color:#000000;fill:#ede7d0;fill-opacity:1;fill-rule:nonzero;stroke:none;stroke-width:25;marker:none;visibility:visible;display:inline;overflow:visible;enable-background:accumulate"
         d="m 1374.9813,-897.07265 c -4.3908,1.16211 -18.2858,3.41841 -19.3879,4.18137 l 10.0927,8.96511 10.2596,8.48426 -0.028,-3.26374 c 0.076,-5.67386 0.036,-15.67441 0.4506,-17.38299 0.1484,-0.44506 0.012,-0.98314 -1.3889,-0.98401 z"
         id="path31918" />
    </g>
    <g
       id="g31953"
       transform="translate(-1135.5216,-1312.1866)">
      <path
         inkscape:connector-curvature="0"
         id="path31922"
         d="m 1245.1875,1271.951 -0.099,0.9261 -0.3804,-0.025 c 0,0 -0.044,2.8655 -0.074,5.0684 -0.02,0.7082 -0.036,1.4941 -0.05,2.4226 0.01,0 0.011,0.01 0.016,0.01 -0.01,0.569 -0.01,0.909 -0.016,1.3726 0.5821,0.2569 1.185,0.487 1.7528,0.7028 l -1.7859,0.6366 c 0,0.4146 0,0.9432 0,1.3808 -0.01,1.6515 -0.018,3.3912 -0.016,5.2999 -2e-4,0.2301 0,0.4116 0,0.645 0,1.7592 0.01,3.5423 0.016,5.4157 0.054,14.4029 0.2811,31.5846 0.2811,31.5846 l 6.3914,0 c 0.8679,-2.3499 1.8355,-4.4566 1.8355,-4.4566 l 1.5627,4.4566 125.5035,0 0,-1.3808 0,-52.1973 0,-1.3808 -22.7129,0 -3.7289,4.407 -4.7543,-4.746 -95.283,0 -8.4584,-0.1406 z"
         style="color:#000000;fill:#c7af7b;fill-opacity:1;fill-rule:nonzero;stroke:#3b2213;stroke-width:5.29166698;stroke-linecap:round;stroke-linejoin:round;stroke-miterlimit:4;stroke-opacity:1;stroke-dasharray:none;stroke-dashoffset:0;marker:none;visibility:visible;display:inline;overflow:visible;enable-background:accumulate" />
      <path
         style="color:#000000;fill:#c7af7b;fill-opacity:1;fill-rule:nonzero;stroke:none;stroke-width:20;marker:none;visibility:visible;display:inline;overflow:visible;enable-background:accumulate"
         d="m 1244.7079,1272.8484 c 0,0 -0.079,5.8754 -0.124,8.8718 1.6604,0.7329 3.6793,1.4056 3.6793,1.4056 l -3.7124,1.3146 c -0.1115,14.2989 0.2811,42.9452 0.2811,42.9452 l 6.3913,0 c 0.8679,-2.3499 1.8356,-4.4566 1.8356,-4.4566 l 1.5627,4.4566 125.5034,0 0,-53.5781 -22.7128,0 -3.729,4.4069 -4.7542,-4.7459 -95.2831,0 z"
         id="path31943"
         inkscape:connector-curvature="0"
         sodipodi:nodetypes="ccccccccccccccc" />
      <path
         sodipodi:nodetypes="ccccccccccccccc"
         inkscape:connector-curvature="0"
         id="path31924"
         d="m 1244.7079,1271.4715 c 0,0 -0.079,5.8755 -0.124,8.8718 1.6604,0.7329 3.6794,1.4056 3.6794,1.4056 l -3.7125,1.3146 c -0.1115,14.2989 0.2811,42.9452 0.2811,42.9452 l 6.3914,0 c 0.8678,-2.3498 1.8355,-4.4566 1.8355,-4.4566 l 1.5627,4.4566 125.5035,0 0,-53.5781 -22.7129,0 -3.7289,4.407 -4.7543,-4.746 -95.283,0 z"
         style="color:#000000;fill:url(#linearGradient31966);fill-opacity:1;fill-rule:nonzero;stroke:none;stroke-width:20;marker:none;visibility:visible;display:inline;overflow:visible;enable-background:accumulate" />
      <path
         inkscape:connector-curvature="0"
         id="path31938"
         d="m 1244.7079,1271.4715 c 0,0 -0.079,5.8755 -0.124,8.8718 0.06,0.026 0.1212,0.056 0.1819,0.083 0.1306,-3.0367 1.1327,-7.7639 1.1327,-7.7639 l 7.7474,0.6201 95.283,0 4.7543,4.746 3.7289,-4.407 21.6959,0 0.9922,52.3875 0.025,0 0,-53.5781 -22.7129,0 -3.7289,4.407 -4.7543,-4.746 -95.283,0 -8.938,-0.6201 z m 2.3978,10.6825 -2.5549,0.9095 c 0,0.3575 0,0.8159 0,1.1906 l 3.7125,-1.3146 c 0,0 -0.475,-0.349 -1.1576,-0.7855 z"
         style="color:#000000;fill:#ffffff;fill-opacity:1;fill-rule:nonzero;stroke:none;stroke-width:20;marker:none;visibility:visible;display:inline;overflow:visible;enable-background:accumulate" />
      <path
         inkscape:connector-curvature="0"
         id="rect31948"
         d="m 1244.6417,1309.3234 c 0.085,9.2082 0.1902,16.6853 0.1902,16.6853 l 6.3914,0 c 0.8678,-2.3499 1.8355,-4.4566 1.8355,-4.4566 l 1.5627,4.4566 125.5035,0 0,-16.6853 -135.4833,0 z"
         style="color:#000000;fill:#e6dfc8;fill-opacity:1;fill-rule:nonzero;stroke:none;stroke-width:20;marker:none;visibility:visible;display:inline;overflow:visible;enable-background:accumulate" />
    </g>
  </g>
</svg>
