<?xml version="1.0" encoding="UTF-8" standalone="no"?>
<!-- Created with Inkscape (http://www.inkscape.org/) -->

<svg
   xmlns:dc="http://purl.org/dc/elements/1.1/"
   xmlns:cc="http://creativecommons.org/ns#"
   xmlns:rdf="http://www.w3.org/1999/02/22-rdf-syntax-ns#"
   xmlns:svg="http://www.w3.org/2000/svg"
   xmlns="http://www.w3.org/2000/svg"
   xmlns:sodipodi="http://sodipodi.sourceforge.net/DTD/sodipodi-0.dtd"
   xmlns:inkscape="http://www.inkscape.org/namespaces/inkscape"
   width="441.69272"
   height="1685.3014"
   viewBox="0 0 116.86452 445.90264"
   version="1.1"
   id="svg23489"
   inkscape:version="0.48.5 r10040"
   sodipodi:docname="panel_light_wood_small_plank.svg">
  <defs
     id="defs23483" />
  <sodipodi:namedview
     id="base"
     pagecolor="#7d848b"
     bordercolor="#666666"
     borderopacity="1.0"
     inkscape:pageopacity="1"
     inkscape:pageshadow="2"
     inkscape:zoom="0.10654466"
     inkscape:cx="302.89428"
     inkscape:cy="1572.3134"
     inkscape:document-units="px"
     inkscape:current-layer="layer1"
     showgrid="false"
     inkscape:pagecheckerboard="false"
     showborder="true"
     units="px"
     inkscape:window-width="1920"
     inkscape:window-height="1017"
     inkscape:window-x="-8"
     inkscape:window-y="-8"
     inkscape:window-maximized="1"
     inkscape:showpageshadow="false"
     guidetolerance="28"
     fit-margin-top="25"
     fit-margin-left="25"
     fit-margin-right="25"
     fit-margin-bottom="25">
    <inkscape:grid
       type="xygrid"
       id="grid24034"
       spacingx="1px"
       spacingy="1px"
       empspacing="8"
       visible="true"
       enabled="true"
       snapvisiblegridlinesonly="true"
       originx="-1829.6558px"
       originy="1550.6076px" />
  </sodipodi:namedview>
  <metadata
     id="metadata23486">
    <rdf:RDF>
      <cc:Work
         rdf:about="">
        <dc:format>image/svg+xml</dc:format>
        <dc:type
           rdf:resource="http://purl.org/dc/dcmitype/StillImage" />
        <dc:title></dc:title>
        <cc:license
           rdf:resource="" />
        <dc:creator>
          <cc:Agent>
            <dc:title>Robert Brooks</dc:title>
          </cc:Agent>
        </dc:creator>
      </cc:Work>
    </rdf:RDF>
  </metadata>
  <g
     inkscape:label="Layer 1"
     inkscape:groupmode="layer"
     id="layer1"
     transform="translate(-484.0964,-261.36227)">
    <g
       transform="matrix(-2.0443656,0,0,2.0443656,12036.365,-1407.6632)"
       id="g14121">
      <path
         inkscape:connector-curvature="0"
         style="color:#000000;fill:#3b2213;fill-opacity:1;fill-rule:nonzero;stroke:#3b2213;stroke-width:12;stroke-linejoin:round;stroke-miterlimit:4;stroke-opacity:1;stroke-dasharray:none;marker:none;visibility:visible;display:inline;overflow:visible;enable-background:accumulate"
         d="m 21159.469,3033.6875 0,775.3125 2.5,12.5938 37.75,0 c 4.723,-1.1319 8.696,-2.0643 9.937,-2.3126 2.951,-0.5902 80.715,1.2086 107.5,1.8438 l 19.406,-18.4062 2.5,-10.6876 c -0.173,-0.9543 -0.322,-1.8521 -0.468,-2.75 l 0.468,-0.4062 0,-9.4375 c -0.684,-3.7368 -1.117,-6.7258 -1.281,-7.9375 0.1,-4.9644 0.272,-10.3993 0.594,-13.875 0.53,-5.8337 0.655,-32.3478 0.687,-47.0312 l 0,-9.5313 0,-0.1875 0,-2.875 0,-9.5312 c 0,-4.2431 -4.937,-14.875 -4.937,-14.875 0,0 -1.745,-7.9689 -3.281,-13.9688 1.712,-3.4151 3.968,-6.6562 3.968,-6.6562 l 4.25,-5.6563 0,-12.5937 0,-82.2813 -5.656,-6.8125 c 0,0 2.24,-4.4145 5.656,-6.2188 l 0,-102.0937 c -0.411,-17.0266 -0.687,-29.3715 -0.687,-31 0,-5.1286 -0.705,-16.6853 -1.094,-24.0625 0.265,-4.2353 0.792,-9.5351 1.781,-13.25 l 0,-12.5938 0,-46.25 c -0.379,-6.4494 -0.967,-53.7424 -1.531,-98.25 l -9.281,-13.4687 c 0,0 5.334,-8.065 8.906,-14.4687 -0.349,-25.9562 -0.664,-48.1636 -0.906,-51.3126 -0.129,-1.6668 -0.177,-4.4937 -0.219,-7.6874 0.178,-13.473 0.769,-28.4731 1.625,-30.625 0.392,-0.9799 0.888,-4.0612 1.406,-8.1563 l 0,-12.5937 0,-17.2813 -24.031,-22.625 -155.562,0 z"
         transform="matrix(0.26458334,0,0,0.26458334,-6.3049604e-6,18.562493)"
         id="path14123" />
      <path
         inkscape:connector-curvature="0"
         style="color:#000000;fill:#ab8130;fill-opacity:1;fill-rule:nonzero;stroke:none;stroke-width:12;marker:none;visibility:visible;display:inline;overflow:visible;enable-background:accumulate"
         d="m 21159.469,3046.2812 0,761.0938 3,14.2188 37.25,0 c 4.723,-1.1319 8.696,-2.0643 9.937,-2.3126 2.951,-0.5902 80.715,1.2086 107.5,1.8438 l 19.406,-18.4062 2.5,-10.6876 c -0.842,-4.5966 -1.406,-8.9687 -1.406,-8.9687 0,0 0,-17.6592 0.719,-25.4375 0.53,-5.8337 0.655,-32.3478 0.687,-47.0312 l 0,-9.5313 c 0,-4.2428 -4.937,-14.875 -4.937,-14.875 0,0 -3.555,-16.2456 -4.969,-19.7813 -1.414,-3.5354 5.656,-13.4374 5.656,-13.4374 l 4.25,-5.6563 0,-98.4063 -5.656,-3.2812 c 0,0 2.24,-1.9458 5.656,-3.75 l 0,-91.9688 c -0.411,-17.0266 -0.687,-29.3713 -0.687,-31 0,-7.071 -1.344,-26.5893 -1.344,-30.125 0,-2.024 0.314,-13.3303 2.031,-19.7812 l 0,-46.25 c -0.45,-7.6634 -13.189,-73.9371 -13.843,-123.375 -0.371,-28.1105 11.287,-50.7928 11.031,-54.125 -0.707,-9.1925 0,-47.3707 1.406,-50.9062 0.392,-0.9798 0.888,-4.0612 1.406,-8.1563 l 0,-17.2813 -24.031,-22.625 -155.562,0 z"
         transform="matrix(0.26458334,0,0,0.26458334,-6.3049604e-6,18.562493)"
         id="path14125" />
      <path
         inkscape:connector-curvature="0"
         style="opacity:0.4557522;color:#000000;fill:#604107;fill-opacity:1;fill-rule:nonzero;stroke:none;stroke-width:3;marker:none;visibility:visible;display:inline;overflow:visible;enable-background:accumulate"
         d="m 21315.031,3780.375 c -0.676,7.0993 0.766,24.3636 2.438,40.4688 l 19.093,-18.125 2.5,-10.6876 c -0.842,-4.5966 -1.406,-8.9687 -1.406,-8.9687 0,0 0,-1.1123 0,-2.625 -0.99,-0.035 -1.957,-0.062 -2.844,-0.062 l -19.781,0 z"
         transform="matrix(0.26458334,0,0,0.26458334,-6.3049604e-6,18.562493)"
         id="path14127" />
      <path
         inkscape:connector-curvature="0"
         style="color:#000000;fill:#ceb254;fill-opacity:1;fill-rule:nonzero;stroke:none;stroke-width:12;marker:none;visibility:visible;display:inline;overflow:visible;enable-background:accumulate"
         d="m 21159.469,3033.6875 0,775.3125 157.187,0 22.406,-20.125 0,-9.4375 c -0.842,-4.5969 -1.406,-8.9687 -1.406,-8.9687 0,0 0.01,-17.659 0.719,-25.4376 0.53,-5.8336 0.654,-32.3477 0.687,-47.0312 0.01,-4.8945 0,-8.4706 0,-9.5312 0,-4.2431 -4.937,-14.875 -4.937,-14.875 0,0 -3.555,-16.2457 -4.969,-19.7813 -1.414,-3.5355 5.656,-13.4375 5.656,-13.4375 l 4.25,-5.6562 0,-85.8126 -5.656,-3.2812 c 0,0 2.24,-1.9458 5.656,-3.75 l 0,-104.5625 c -0.412,-17.0266 -0.687,-29.3715 -0.687,-31 0,-7.0711 -1.344,-26.5894 -1.344,-30.125 0,-2.0241 0.314,-13.3301 2.031,-19.7813 l 0,-46.25 c -0.379,-6.4494 -0.967,-53.7424 -1.531,-98.25 l -9.281,-13.4687 c 0,0 1.345,-2.027 3.125,-4.8437 1.335,-2.1127 2.912,-4.6562 4.375,-7.1563 0.488,-0.8334 0.96,-1.6683 1.406,-2.4687 -0.349,-25.9562 -0.664,-48.1636 -0.906,-51.3126 -0.707,-9.1924 0,-47.3706 1.406,-50.9062 0.392,-0.9797 0.888,-4.0611 1.406,-8.1562 l 0,-17.2813 -24.031,-22.625 -155.562,0 z"
         transform="matrix(0.26458334,0,0,0.26458334,-6.3049604e-6,18.562493)"
         id="path14129" />
      <path
         style="color:#000000;fill:#3b2213;fill-opacity:1;fill-rule:nonzero;stroke:none;stroke-width:3;marker:none;visibility:visible;display:inline;overflow:visible;enable-background:accumulate"
         d="m 21341.19,3363.1871 c -1.414,5.6569 -3.536,12.0209 -3.536,12.0209 0,0 -13.435,0.7071 -9.899,2.8284 3.535,2.1213 11.313,4.9497 11.313,4.9497 z"
         id="path14131"
         inkscape:connector-curvature="0"
         transform="matrix(0.26458334,0,0,0.26458334,-6.3049604e-6,18.562493)" />
      <g
         id="g27550"
         class="switchable"
         name="grain">
        <g
           id="g18755"
           class="switchable">
          <path
             id="path14133"
             d="m 5598.443,824.4172 0,0.79375 c 2.8321,0.11486 6.3341,0.51919 10.5833,1.42214 12.1256,2.57664 20.4047,7.91268 36.3635,9.29349 0.023,-0.29822 0.049,-0.55764 0.075,-0.77722 -15.8346,-1.36795 -23.9975,-6.68499 -36.2728,-9.29349 -4.3056,-0.91493 -7.8608,-1.32244 -10.7487,-1.43867 z m 0,6.37482 0,0.82682 c 3.0104,0.55764 6.3431,1.66524 9.7896,3.01789 6.8286,2.68015 14.0798,6.28026 20.2075,8.25998 6.327,2.04409 12.3428,1.97987 16.7018,1.43864 6e-4,-0.25918 0.01,-0.52342 0.01,-0.79375 -4.2748,0.54134 -10.2179,0.62003 -16.4621,-1.39732 -6.033,-1.94915 -13.29,-5.55304 -20.1663,-8.25169 -3.52,-1.38173 -6.9458,-2.53516 -10.0787,-3.10057 z m 0,5.55625 0,0.802 c 3.7531,0.45829 7.2033,1.00415 10.1534,1.70326 4.3349,1.02738 7.5927,2.38728 9.1942,4.11758 0.3794,0.41008 0.5461,0.78229 0.5705,1.13273 0.024,0.3505 -0.088,0.70782 -0.3556,1.09969 -0.5342,0.78372 -1.7029,1.6338 -3.2742,2.4226 -3.1428,1.57745 -7.8584,2.95979 -12.2534,3.86125 -1.6166,0.33158 -2.9398,0.56177 -4.0349,0.72761 l 0,0.81028 c 1.1345,-0.16936 2.505,-0.41462 4.1918,-0.76067 4.441,-0.9108 9.1913,-2.29071 12.4521,-3.92742 1.6303,-0.81828 2.8932,-1.69151 3.5718,-2.68717 0.3392,-0.49781 0.535,-1.04402 0.4961,-1.60403 -0.039,-0.56002 -0.3082,-1.10593 -0.7773,-1.61229 -1.818,-1.96419 -5.2007,-3.30661 -9.5994,-4.34912 -3.0183,-0.71533 -6.5272,-1.2718 -10.3351,-1.7363 z m 32.734,11.22823 c -0.3257,0.003 -0.6512,0.008 -0.9758,0.0166 -2.5974,0.0703 -5.1541,0.3283 -7.3504,0.90122 -7.3123,1.90752 -13.8467,5.38478 -24.4078,6.31693 l 0,0.7855 c 10.7368,-0.93557 17.3961,-4.45257 24.6062,-6.33349 4.2135,-1.09916 9.9888,-1.01751 14.6926,-0.6449 3.4126,0.27027 6.2177,0.68398 7.5242,0.89297 -0.01,-0.29152 -0.018,-0.5865 -0.025,-0.80203 -1.369,-0.21627 -4.0958,-0.61206 -7.4333,-0.87643 -2.0756,-0.16439 -4.3539,-0.27747 -6.6309,-0.25633 z m 4.9691,7.1851 c -1.2435,0.009 -2.5903,0.0358 -4.0431,0.0827 -5.8804,0.18968 -13.6451,2.21152 -21.3984,3.86954 -4.2024,0.89873 -8.3961,1.68103 -12.2616,2.0257 l 0,0.81031 c 3.9444,-0.34618 8.1857,-1.15183 12.4272,-2.0588 7.775,-1.6628 15.5379,-3.6685 21.2574,-3.853 6.4384,-0.20769 10.7191,-0.0153 13.254,0.19844 0,-0.31393 -0.012,-0.48538 -0.017,-0.78549 -1.4095,-0.11687 -3.3047,-0.23 -5.796,-0.27284 -1.0395,-0.0179 -2.1796,-0.0258 -3.4229,-0.0165 z m -37.7031,13.91542 0,0.79375 c 1.5047,0.0132 3.4605,0.0382 5.8208,0.0744 5.138,0.0789 11.9198,0.20211 18.6777,0.33073 10.0582,0.1914 18.1767,0.35454 22.6386,0.44648 0,-0.28646 -0.013,-0.50795 -0.017,-0.79375 -4.4791,-0.0923 -12.5735,-0.25556 -22.6052,-0.44648 -6.7588,-0.12862 -13.5379,-0.25178 -18.678,-0.33073 -2.3654,-0.0364 -4.3283,-0.0612 -5.8372,-0.0744 z m 47.1784,4.75424 c -1.4949,0.065 -3.188,0.14539 -5.2256,0.25633 -5.6417,0.30705 -13.0423,0.76904 -20.3975,1.24849 -8.4973,0.55388 -15.9409,1.0591 -21.5553,1.44693 l 0,0.79375 c 5.6171,-0.39023 13.0778,-0.89882 21.613,-1.45521 7.3544,-0.47932 14.7447,-0.93345 20.3814,-1.24021 2.0214,-0.11009 3.706,-0.19137 5.1922,-0.25633 0,-0.28196 0,-0.5108 -0.01,-0.79375 z m 0.066,4.82865 c -2.0159,0.029 -12.2248,0.17629 -24.6642,0.34727 -9.4157,0.12943 -17.2958,0.23079 -22.5803,0.29765 l 0,0.79375 c 5.2858,-0.0667 13.1588,-0.16793 22.597,-0.29765 12.4349,-0.17092 22.6338,-0.31811 24.6557,-0.34727 0,-0.2689 0,-0.52186 -0.01,-0.79375 z m -47.2445,5.23378 0,0.81031 c 3.0194,0.49459 6.2052,1.41449 9.6573,2.4474 6.1695,1.8462 13.1722,4.05103 21.5468,4.80382 8.3945,0.75454 13.0972,-1.03777 15.6933,-3.07578 0.1688,-0.13261 0.3281,-0.26305 0.4794,-0.39687 -0.01,-0.39481 -0.01,-0.66342 -0.016,-1.08315 -0.2762,0.2849 -0.5871,0.5743 -0.9509,0.85989 -2.4085,1.89095 -6.8744,3.65263 -15.1307,2.91042 -8.2767,-0.74388 -15.212,-2.93026 -21.39,-4.77901 -3.5031,-1.04825 -6.7636,-1.99626 -9.8888,-2.49703 z m 0,1.97612 0,0.81028 c 3.4737,0.58058 6.5889,1.49074 8.5492,2.41433 0.6882,0.32414 1.2319,0.64727 1.5875,0.94257 0.3556,0.29531 0.4963,0.5492 0.5046,0.66972 0.01,0.12059 -0.042,0.25024 -0.3969,0.45476 -0.3559,0.20453 -0.9837,0.41127 -1.8936,0.5705 -2.5863,0.45265 -5.5632,0.67323 -8.3508,0.77724 l 0,0.802 c 2.8154,-0.10488 5.8372,-0.3307 8.483,-0.79375 0.961,-0.16817 1.6632,-0.38534 2.1583,-0.66971 0.4939,-0.28443 0.8159,-0.71197 0.7852,-1.19063 -0.03,-0.47873 -0.3397,-0.86881 -0.777,-1.23197 -0.4374,-0.36317 -1.0343,-0.70774 -1.7614,-1.05006 -2.0949,-0.987 -5.3118,-1.92063 -8.8881,-2.50528 z m 0,2.40606 0,0.80201 c 1.4893,0.16925 2.5696,0.49956 3.0922,0.81029 0.1852,0.11001 0.2952,0.22055 0.3307,0.27286 0,0.002 -0.025,0.0279 -0.1487,0.0827 -0.1458,0.0643 -0.3852,0.1302 -0.7112,0.17364 -0.8104,0.10808 -1.7018,0.1664 -2.563,0.19844 l 0,0.79375 c 0.8882,-0.0322 1.8169,-0.0928 2.6704,-0.20672 0.376,-0.0501 0.6779,-0.12181 0.9261,-0.23151 0.2487,-0.10959 0.4598,-0.25731 0.5707,-0.50435 0.1108,-0.24704 0.055,-0.54882 -0.083,-0.75242 -0.1378,-0.20349 -0.3394,-0.35711 -0.5868,-0.50435 -0.7117,-0.42309 -1.9005,-0.76912 -3.4975,-0.9343 z m 47.4429,4.21678 c -0.2463,0.19767 -0.5209,0.39706 -0.8268,0.59531 -2.5032,1.62382 -7.0723,3.11594 -15.3373,2.37299 -12.4061,-1.11516 -21.6258,-2.11219 -31.2788,-1.14929 l 0,0.77724 c 9.5898,-0.95404 18.7632,0.0633 31.2126,1.18234 8.3857,0.75377 13.1535,-0.75319 15.8417,-2.49701 0.1423,-0.0923 0.2741,-0.18769 0.4053,-0.28112 -0.01,-0.32644 -0.01,-0.60203 -0.017,-1.00046 z m -44.3756,9.11161 c -1.0046,0.002 -2.027,0.037 -3.0673,0.10747 l 0,0.80201 c 16.6621,-1.14017 28.5133,7.10668 38.8194,9.64078 3.5046,0.86188 6.1759,1.42015 8.2103,1.78594 -0.016,-0.32822 -0.034,-0.59579 -0.042,-0.81031 -1.991,-0.36296 -4.5865,-0.91052 -7.9788,-1.74459 -9.1559,-2.25152 -19.9953,-9.39199 -34.6604,-9.76479 -0.423,-0.0107 -0.8517,-0.0174 -1.2816,-0.0165 z m -0.7771,5.06016 c -0.4889,0.008 -0.9797,0.0248 -1.4801,0.0496 -0.2693,0.0134 -0.5371,0.031 -0.8101,0.0496 l 0,0.802 c 16.2367,-1.11321 26.2863,7.10787 36.5868,9.64076 4.5858,1.12768 8.1108,1.73423 10.7074,2.06705 -0.01,-0.25437 -0.02,-0.51662 -0.033,-0.79375 -2.5411,-0.33673 -5.9883,-0.94498 -10.4841,-2.05052 -9.5428,-2.34651 -19.3286,-10.00876 -34.4869,-9.76476 z m -1.6785,8.96276 c -0.1924,0.003 -0.4003,0.014 -0.6117,0.0248 l 0,0.81029 c 1.2552,-0.0742 2.1333,-0.0104 2.712,0.1571 0.6352,0.18392 0.9247,0.44784 1.0665,0.77719 0.1418,0.32941 0.131,0.78423 0.058,1.34774 -0.145,1.12702 -0.6101,2.60172 -0.2481,4.02664 0.1809,0.71241 0.5871,1.38168 1.3147,1.96781 0.7273,0.58618 1.7848,1.07855 3.2493,1.4387 5.797,1.42549 16.9543,2.02451 26.7147,2.28203 4.8504,0.12793 9.343,0.16618 12.6421,0.17362 -0.01,-0.30604 -0.01,-0.48392 -0.016,-0.77721 -3.2938,-0.007 -7.7801,-0.0458 -12.6257,-0.17365 -9.7435,-0.25702 -20.9174,-0.90117 -26.5327,-2.28203 -1.3887,-0.34145 -2.3304,-0.76108 -2.9352,-1.24849 -0.6049,-0.48742 -0.8901,-1.03071 -1.0335,-1.59578 -0.2871,-1.13004 0.097,-2.45264 0.2564,-3.68761 0.079,-0.61753 0.1132,-1.23467 -0.1241,-1.78593 -0.2376,-0.55132 -0.7742,-0.98722 -1.5629,-1.21545 -0.5911,-0.17118 -1.3457,-0.25678 -2.3233,-0.23976 z m 46.9056,17.33846 c -9.1567,0.41053 -21.9562,2.58101 -32.775,2.8112 -5.8058,0.12351 -11.0265,-0.31359 -14.7423,-1.86034 l 0,0.84333 c 3.8748,1.52522 9.0384,1.94863 14.7423,1.8273 10.8918,-0.23175 23.7215,-2.42531 32.775,-2.84428 z m 0,5.67201 c -2.4688,0.1869 -12.6902,0.96385 -24.3083,1.91823 -6.5498,0.53795 -13.1083,1.09706 -18.0579,1.57096 -2.0703,0.1982 -3.7629,0.37658 -5.1511,0.53742 l 0,0.80203 c 1.3917,-0.16065 3.1176,-0.3439 5.2255,-0.5457 4.9427,-0.47323 11.5017,-1.03315 18.0496,-1.57096 11.5681,-0.95028 21.7115,-1.71821 24.2422,-1.90995 z m -47.5173,7.16028 0,0.80201 c 1.9185,0.14782 4.4807,0.36544 7.5406,0.64495 5.5671,0.50847 12.5931,1.19049 19.4799,1.86859 8.3963,0.82685 15.3784,1.53117 20.4968,2.05052 l 0,-0.802 c -5.1279,-0.51999 -12.088,-1.22151 -20.4224,-2.04227 -6.8876,-0.67821 -13.9094,-1.35154 -19.48,-1.86034 -3.1175,-0.28474 -5.6851,-0.51168 -7.6149,-0.66146 z m 0,13.59297 0,0.79375 c 8.9942,0.22855 33.0504,0.82645 47.5173,1.07487 l 0,-0.79375 c -14.465,-0.24902 -38.5506,-0.84714 -47.5173,-1.07487 z m 42.1431,4.79558 c -1.583,-0.005 -3.2869,0.0384 -5.1181,0.13229 -7.3991,0.37944 -15.8361,3.66892 -23.7215,6.11849 -4.7752,1.48338 -9.3303,2.63985 -13.3035,2.70372 l 0,0.81026 c 4.1166,-0.0585 8.7484,-1.26383 13.5432,-2.75331 7.9237,-2.46149 16.3211,-5.7165 23.5148,-6.08541 4.1212,-0.21135 7.5976,-0.13666 10.4593,0.0744 l 0,-0.79375 c -1.606,-0.1192 -3.3875,-0.20024 -5.3742,-0.20669 z m 5.3742,8.39226 c -0.7906,0.0398 -1.6044,0.093 -2.4638,0.15708 -6.3331,0.4726 -16.0467,2.7685 -25.5736,4.47313 -7.1273,1.27513 -14.1549,2.19956 -19.4799,1.82727 l 0,0.81856 c 5.4708,0.38751 12.4925,-0.59325 19.6204,-1.86864 9.556,-1.70977 19.2974,-3.99373 25.4992,-4.45657 0.8335,-0.0622 1.6307,-0.11019 2.3977,-0.14882 z m -3.5385,12.47675 c -0.1728,0.008 -0.3583,0.0248 -0.579,0.0248 -0.3098,0 -1.1845,0.0724 -2.6294,0.19016 -1.4441,0.11779 -3.4068,0.28609 -5.7049,0.48781 -4.5964,0.40354 -10.5437,0.94213 -16.4373,1.48003 -7.9563,0.72617 -14.3661,1.31678 -18.6282,1.71154 l 0,0.79375 c 4.2386,-0.39532 10.6825,-0.98859 18.6944,-1.7198 5.893,-0.53789 11.8427,-1.07669 16.4372,-1.48002 2.2971,-0.20167 4.2558,-0.36203 5.6968,-0.47956 1.4411,-0.11753 2.4138,-0.19016 2.5714,-0.19016 0.4943,0 0.8065,-0.0396 0.9758,-0.0166 0.1686,0.0231 0.2569,0.0588 0.5043,0.34729 0,0.005 0.012,0.0114 0.016,0.0165 -0.091,-0.23857 -0.044,-0.58462 0.083,-0.96737 -0.1624,-0.0974 -0.3291,-0.15912 -0.4961,-0.1819 -0.1727,-0.0236 -0.332,-0.0244 -0.5042,-0.0165 z m -43.9788,10.37664 0,0.802 c 1.7227,0.0385 3.8034,0.17632 6.1267,0.39688 4.1468,0.39367 9.0477,1.01888 13.9816,1.6619 9.8676,1.28608 19.8345,2.65269 24.4409,2.36469 1.0874,-0.068 2.0624,-0.1311 2.9517,-0.1984 0,-0.2836 0.01,-0.53096 0.01,-0.80202 -0.9009,0.0682 -1.9008,0.1374 -3.0096,0.20672 -4.3739,0.27337 -14.4217,-1.07006 -24.292,-2.35646 -4.9352,-0.6432 -9.8396,-1.27458 -14.0065,-1.67018 -2.3423,-0.22239 -4.4426,-0.36912 -6.201,-0.40513 z m 6.8709,2.36468 c -1.6779,0.0172 -3.4044,0.18241 -5.0604,0.42995 -0.6162,0.0922 -1.221,0.19661 -1.8105,0.30594 l 0,0.80203 c 0.6244,-0.11745 1.271,-0.22447 1.9264,-0.32247 2.4818,-0.37113 5.1258,-0.56259 7.4414,-0.32248 2.3156,0.24017 4.2868,0.91779 5.4983,2.21592 1.2147,1.3015 1.2827,2.6308 0.5043,4.1589 -0.7773,1.5282 -2.4828,3.1865 -4.8368,4.779 -2.7811,1.8814 -6.4588,3.6741 -10.5336,5.1759 l 0,0.8434 c 4.2309,-1.5347 8.0621,-3.3838 10.9802,-5.3578 2.4167,-1.6348 4.2188,-3.3425 5.1014,-5.0767 0.8827,-1.7341 0.7678,-3.5636 -0.6366,-5.06841 -1.4078,-1.50828 -3.5745,-2.20469 -5.9944,-2.45568 -0.6053,-0.0627 -1.2282,-0.0972 -1.8605,-0.1075 -0.2371,-0.004 -0.4797,-0.002 -0.7192,0 z m -3.3734,3.49749 c -0.3014,0 -0.6104,0 -0.9345,0.01 -0.7834,0.028 -1.6444,0.1091 -2.563,0.2316 l 0,0.802 c 0.9392,-0.1293 1.8095,-0.2118 2.5961,-0.2398 2.499,-0.089 4.2169,0.322 5.0601,0.9012 0.4218,0.2897 0.617,0.5969 0.6699,0.9178 0.052,0.321 -0.036,0.6956 -0.3474,1.141 -0.6223,0.8906 -2.1275,1.9579 -4.564,2.8774 -1.3063,0.4929 -2.4236,0.9179 -3.4147,1.3063 l 0,0.8599 c 1.0615,-0.4181 2.2479,-0.8757 3.6959,-1.4221 2.5213,-0.9514 4.1492,-2.0403 4.9361,-3.1667 0.3934,-0.5632 0.5728,-1.1596 0.4794,-1.7281 -0.093,-0.5684 -0.4598,-1.0617 -1.0086,-1.4386 -0.9604,-0.6597 -2.4992,-1.0289 -4.6053,-1.0501 z m 37.4714,4.8286 c -0.4713,0 -0.956,0 -1.4468,0.01 -2.6847,0.034 -5.6303,0.225 -8.7312,0.678 -10.0407,1.4671 -21.6758,5.6818 -30.7909,16.0817 l 0,1.2237 c 9.0535,-10.7579 20.7602,-15.0387 30.8983,-16.5199 6.5915,-0.9631 12.4833,-0.7314 16.5364,-0.3142 0,-0.2592 0.012,-0.5331 0.016,-0.8103 -1.8203,-0.1848 -4.0071,-0.3283 -6.4822,-0.3473 z m 0.736,8.938 c -0.4418,-9e-4 -0.8929,0.01 -1.356,0.017 -8.6873,0.2069 -20.4802,1.7021 -33.1812,11.2768 l 2.6407,0.187 c 16.1475,-11.7909 29.6457,-11.2808 37.3369,-10.3889 0,-0.2159 0.014,-0.5174 0.017,-0.7855 -1.5426,-0.1732 -3.3788,-0.3019 -5.4571,-0.3059 z"
             style="font-size:medium;font-style:normal;font-variant:normal;font-weight:normal;font-stretch:normal;text-indent:0;text-align:start;text-decoration:none;line-height:normal;letter-spacing:normal;word-spacing:normal;text-transform:none;direction:ltr;block-progression:tb;writing-mode:lr-tb;text-anchor:start;baseline-shift:baseline;color:#000000;fill:#f6de78;fill-opacity:1;stroke:none;stroke-width:3;marker:none;visibility:visible;display:inline;overflow:visible;enable-background:accumulate;font-family:Sans;-inkscape-font-specification:Sans"
             inkscape:connector-curvature="0"
             sodipodi:nodetypes="ccsccscccccsccsccccccccccscccccccscccsccsccccccccccccsccccccccsccscccccsccccccccsccsccccccsccccccccccccccccccccccccccccccccccccccccsccsccccccccccccccccccsccccccccccccccsccscccccccccsccscccccccsccccccccccscccccccssccssccccccccsscccsccscccssscccccccccssccccssccccccccccsccsccccccccccccccccsccccccccccscccccccccccc" />
          <path
             style="font-size:medium;font-style:normal;font-variant:normal;font-weight:normal;font-stretch:normal;text-indent:0;text-align:start;text-decoration:none;line-height:normal;letter-spacing:normal;word-spacing:normal;text-transform:none;direction:ltr;block-progression:tb;writing-mode:lr-tb;text-anchor:start;baseline-shift:baseline;color:#000000;fill:#caab43;fill-opacity:1;stroke:none;stroke-width:3;marker:none;visibility:visible;display:inline;overflow:visible;enable-background:accumulate;font-family:Sans;-inkscape-font-specification:Sans"
             d="m 21159.469,3043.75 0,3 c 10.704,0.4341 23.94,1.9623 40,5.375 45.829,9.7385 77.12,29.9062 137.437,35.125 0.09,-1.1271 0.186,-2.1076 0.282,-2.9375 -59.847,-5.1702 -90.699,-25.2661 -137.094,-35.125 -16.273,-3.458 -29.71,-4.9982 -40.625,-5.4375 z m 0,24.0938 0,3.125 c 11.378,2.1076 23.974,6.2938 37,11.4062 25.809,10.1297 53.215,23.7364 76.375,31.2188 23.913,7.7257 46.65,7.483 63.125,5.4374 0,-0.9796 0.02,-1.9783 0.03,-3 -16.157,2.046 -38.619,2.3434 -62.219,-5.2812 -22.802,-7.3669 -50.23,-20.9879 -76.219,-31.1875 -13.304,-5.2223 -26.252,-9.5817 -38.093,-11.7187 z m 0,21 0,3.0312 c 14.185,1.7321 27.225,3.7952 38.375,6.4375 16.384,3.883 28.697,9.0228 34.75,15.5625 1.434,1.5499 2.064,2.9567 2.156,4.2812 0.09,1.3247 -0.332,2.6752 -1.344,4.1563 -2.019,2.9621 -6.436,6.175 -12.375,9.1563 -11.878,5.962 -29.701,11.1866 -46.312,14.5937 -6.11,1.2532 -11.111,2.1232 -15.25,2.75 l 0,3.0625 c 4.288,-0.6401 9.468,-1.5671 15.843,-2.875 16.785,-3.4424 34.739,-8.6578 47.063,-14.8438 6.162,-3.0927 10.935,-6.3931 13.5,-10.1562 1.282,-1.8815 2.022,-3.9459 1.875,-6.0625 -0.147,-2.1166 -1.165,-4.1799 -2.938,-6.0937 -6.871,-7.4237 -19.656,-12.4974 -36.281,-16.4376 -11.408,-2.7036 -24.67,-4.8068 -39.062,-6.5624 z m 123.719,42.4374 c -1.231,0.012 -2.461,0.029 -3.688,0.063 -9.817,0.2657 -19.48,1.2408 -27.781,3.4062 -27.637,7.2095 -52.334,20.3519 -92.25,23.875 l 0,2.9688 c 40.58,-3.536 65.749,-16.8286 93,-23.9376 15.925,-4.1543 37.753,-3.8457 55.531,-2.4374 12.898,1.0215 23.5,2.5851 28.438,3.375 -0.03,-1.1018 -0.07,-2.2167 -0.09,-3.0313 -5.174,-0.8174 -15.48,-2.3133 -28.094,-3.3125 -7.845,-0.6213 -16.456,-1.0487 -25.062,-0.9688 z m 18.781,27.1563 c -4.7,0.035 -9.79,0.1354 -15.281,0.3125 -22.225,0.7169 -51.572,8.3585 -80.876,14.625 -15.883,3.3968 -31.733,6.3535 -46.343,7.6562 l 0,3.0626 c 14.908,-1.3084 30.938,-4.3534 46.969,-7.7813 29.386,-6.2846 58.726,-13.8652 80.343,-14.5625 24.334,-0.785 40.513,-0.058 50.094,0.75 -0.02,-1.1865 -0.04,-1.8345 -0.06,-2.9688 -5.327,-0.4417 -12.49,-0.8693 -21.906,-1.0312 -3.929,-0.068 -8.238,-0.098 -12.937,-0.062 z m -142.5,52.5937 0,3 c 5.687,0.05 13.079,0.1445 22,0.2813 19.419,0.2982 45.051,0.7639 70.593,1.25 38.015,0.7234 68.699,1.34 85.563,1.6875 -0.01,-1.0827 -0.05,-1.9198 -0.06,-3 -16.929,-0.3488 -47.522,-0.9659 -85.437,-1.6875 -25.545,-0.4861 -51.167,-0.9516 -70.594,-1.25 -8.94,-0.1374 -16.359,-0.2314 -22.062,-0.2813 z M 21337.781,3229 c -5.65,0.2457 -12.049,0.5495 -19.75,0.9688 -21.323,1.1605 -49.294,2.9066 -77.093,4.7187 -32.116,2.0934 -60.249,4.0029 -81.469,5.4687 l 0,3 c 21.23,-1.4749 49.428,-3.3971 81.687,-5.5 27.796,-1.8116 55.728,-3.528 77.032,-4.6874 7.64,-0.4161 14.007,-0.7233 19.624,-0.9688 -0.01,-1.0657 -0.02,-1.9306 -0.03,-3 z m 0.25,18.25 c -7.619,0.1098 -46.204,0.6663 -93.219,1.3125 -35.587,0.4892 -65.37,0.8723 -85.343,1.125 l 0,3 c 19.978,-0.2522 49.734,-0.6347 85.406,-1.125 46.998,-0.646 85.545,-1.2023 93.187,-1.3125 -0.01,-1.0163 -0.02,-1.9724 -0.03,-3 z m -178.562,19.7812 0,3.0626 c 11.412,1.8693 23.453,5.3461 36.5,9.25 23.318,6.9778 49.785,15.311 81.437,18.1562 31.727,2.8518 49.501,-3.9223 59.313,-11.625 0.638,-0.5012 1.24,-0.9942 1.812,-1.5 -0.02,-1.4922 -0.04,-2.5074 -0.06,-4.0938 -1.044,1.0768 -2.219,2.1706 -3.594,3.25 -9.103,7.1469 -25.982,13.8052 -57.187,11 -31.282,-2.8115 -57.494,-11.075 -80.844,-18.0624 -13.24,-3.9619 -25.563,-7.5449 -37.375,-9.4376 z m 0,7.4688 0,3.0625 c 13.129,2.1943 24.903,5.6343 32.312,9.125 2.601,1.2251 4.656,2.4464 6,3.5625 1.344,1.1161 1.876,2.0757 1.907,2.5312 0.04,0.4558 -0.159,0.9458 -1.5,1.7188 -1.345,0.773 -3.718,1.5544 -7.157,2.1562 -9.775,1.7108 -21.026,2.5445 -31.562,2.9376 l 0,3.0312 c 10.641,-0.3964 22.062,-1.2499 32.062,-3 3.632,-0.6356 6.286,-1.4564 8.157,-2.5312 1.867,-1.075 3.084,-2.6909 2.968,-4.5 -0.113,-1.8094 -1.284,-3.2837 -2.937,-4.6563 -1.653,-1.3726 -3.909,-2.6749 -6.657,-3.9687 -7.918,-3.7304 -20.076,-7.2591 -33.593,-9.4688 z m 0,9.0938 0,3.0312 c 5.629,0.6397 9.712,1.8881 11.687,3.0625 0.7,0.4158 1.116,0.8336 1.25,1.0313 0,0.01 -0.09,0.1053 -0.562,0.3124 -0.551,0.2432 -1.456,0.4921 -2.688,0.6563 -3.063,0.4085 -6.432,0.6289 -9.687,0.75 l 0,3 c 3.357,-0.1218 6.867,-0.3509 10.093,-0.7813 1.421,-0.1893 2.562,-0.4604 3.5,-0.875 0.94,-0.4142 1.738,-0.9725 2.157,-1.9062 0.419,-0.9337 0.209,-2.0743 -0.313,-2.8438 -0.521,-0.7691 -1.283,-1.3497 -2.218,-1.9062 -2.69,-1.5991 -7.183,-2.9069 -13.219,-3.5312 z m 179.312,15.9374 c -0.931,0.7471 -1.969,1.5007 -3.125,2.25 -9.461,6.1373 -26.73,11.7768 -57.968,8.9688 -46.889,-4.2148 -81.735,-7.9831 -118.219,-4.3438 l 0,2.9376 c 36.245,-3.6058 70.916,0.2392 117.969,4.4687 31.694,2.8489 49.714,-2.8467 59.874,-9.4375 0.538,-0.3487 1.036,-0.7094 1.532,-1.0625 -0.03,-1.2338 -0.03,-2.2754 -0.06,-3.7813 z m -167.719,34.4376 c -3.797,0.01 -7.661,0.1397 -11.593,0.4062 l 0,3.0312 c 62.975,-4.3093 107.767,26.8599 146.719,36.4376 13.246,3.2575 23.342,5.3675 31.031,6.75 -0.06,-1.2405 -0.129,-2.2518 -0.157,-3.0626 -7.525,-1.3718 -17.335,-3.4413 -30.156,-6.5937 -34.605,-8.5097 -75.573,-35.4973 -131,-36.9063 -1.599,-0.041 -3.219,-0.066 -4.844,-0.062 z m -2.937,19.125 c -1.848,0.03 -3.703,0.094 -5.594,0.1874 -1.018,0.051 -2.03,0.1171 -3.062,0.1876 l 0,3.0312 c 61.367,-4.2074 99.35,26.8644 138.281,36.4375 17.332,4.2621 30.655,6.5546 40.469,7.8125 -0.04,-0.9614 -0.08,-1.9526 -0.125,-3 -9.604,-1.2727 -22.633,-3.5716 -39.625,-7.75 -36.067,-8.8687 -73.053,-37.8284 -130.344,-36.9062 z m -6.344,33.875 c -0.727,0.012 -1.513,0.053 -2.312,0.094 l 0,3.0625 c 4.744,-0.2805 8.063,-0.039 10.25,0.5938 2.401,0.6951 3.495,1.6926 4.031,2.9374 0.536,1.245 0.495,2.964 0.219,5.0938 -0.548,4.2596 -2.306,9.8333 -0.938,15.2188 0.684,2.6926 2.219,5.2221 4.969,7.4374 2.749,2.2155 6.746,4.0764 12.281,5.4376 21.91,5.3877 64.079,7.6517 100.969,8.625 18.332,0.4835 35.312,0.6281 47.781,0.6562 -0.03,-1.1567 -0.04,-1.829 -0.06,-2.9375 -12.449,-0.028 -29.405,-0.1731 -47.719,-0.6563 -36.826,-0.9714 -79.058,-3.406 -100.281,-8.625 -5.249,-1.2905 -8.808,-2.8765 -11.094,-4.7187 -2.286,-1.8422 -3.364,-3.8956 -3.906,-6.0313 -1.085,-4.271 0.367,-9.2698 0.969,-13.9374 0.298,-2.334 0.428,-4.6665 -0.469,-6.75 -0.898,-2.0837 -2.926,-3.7312 -5.907,-4.5938 -2.234,-0.647 -5.086,-0.9705 -8.781,-0.9062 z m 177.281,65.5312 c -34.608,1.5516 -82.984,9.755 -123.874,10.625 -21.943,0.4668 -41.675,-1.1852 -55.719,-7.0312 l 0,3.1874 c 14.645,5.7646 34.161,7.3649 55.719,6.9063 41.166,-0.8759 89.656,-9.1665 123.874,-10.75 z m 0,21.4375 c -9.331,0.7064 -47.963,3.6429 -91.874,7.25 -24.755,2.0332 -49.543,4.1464 -68.25,5.9375 -7.825,0.7491 -14.222,1.4233 -19.469,2.0312 l 0,3.0313 c 5.26,-0.6072 11.783,-1.2998 19.75,-2.0625 18.681,-1.7886 43.471,-3.9048 68.219,-5.9375 43.722,-3.5916 82.059,-6.494 91.624,-7.2187 z m -179.593,27.0625 0,3.0312 c 7.251,0.5587 16.935,1.3812 28.5,2.4376 21.041,1.9218 47.596,4.4995 73.625,7.0624 31.734,3.1251 58.123,5.7871 77.468,7.75 l 0,-3.0312 c -19.381,-1.9653 -45.687,-4.6167 -77.187,-7.7188 -26.032,-2.5633 -52.571,-5.1082 -73.625,-7.0312 -11.783,-1.0762 -21.487,-1.9339 -28.781,-2.5 z m 0,51.375 0,3 c 33.994,0.8638 124.915,3.1236 179.593,4.0625 l 0,-3 c -54.671,-0.9412 -145.703,-3.2018 -179.593,-4.0625 z m 159.281,18.125 c -5.983,-0.019 -12.423,0.1451 -19.344,0.5 -27.965,1.4341 -59.853,13.8668 -89.656,23.125 -18.048,5.6065 -35.264,9.9774 -50.281,10.2188 l 0,3.0624 c 15.559,-0.2211 33.065,-4.7767 51.187,-10.4062 29.948,-9.3033 61.686,-21.6057 88.875,-23 15.576,-0.7988 28.715,-0.5165 39.531,0.2812 l 0,-3 c -6.07,-0.4505 -12.803,-0.7568 -20.312,-0.7812 z m 20.312,31.7188 c -2.988,0.1505 -6.064,0.3513 -9.312,0.5937 -23.936,1.7862 -60.649,10.4636 -96.656,16.9063 -26.938,4.8194 -53.499,8.3133 -73.625,6.9062 l 0,3.0938 c 20.677,1.4646 47.216,-2.2422 74.156,-7.0626 36.117,-6.4621 72.935,-15.0944 96.375,-16.8437 3.15,-0.2351 6.163,-0.4165 9.062,-0.5625 z m -13.374,47.1562 c -0.653,0.03 -1.354,0.094 -2.188,0.094 -1.171,0 -4.477,0.2737 -9.938,0.7187 -5.458,0.4452 -12.876,1.0813 -21.562,1.8437 -17.372,1.5252 -39.85,3.5608 -62.125,5.5938 -30.071,2.7446 -54.297,4.9768 -70.406,6.4688 l 0,3 c 16.02,-1.4941 40.375,-3.7364 70.656,-6.5 22.273,-2.033 44.76,-4.0694 62.125,-5.5938 8.682,-0.7622 16.085,-1.3683 21.531,-1.8125 5.447,-0.4442 9.123,-0.7187 9.719,-0.7187 1.868,0 3.048,-0.1495 3.688,-0.063 0.637,0.088 0.971,0.2224 1.906,1.3126 0.02,0.019 0.05,0.043 0.06,0.062 -0.346,-0.9017 -0.168,-2.2096 0.313,-3.6562 -0.614,-0.3681 -1.244,-0.6014 -1.875,-0.6875 -0.653,-0.089 -1.255,-0.092 -1.906,-0.062 z m -166.219,39.2188 0,3.0312 c 6.511,0.1455 14.375,0.6664 23.156,1.5 15.673,1.4879 34.196,3.8509 52.844,6.2812 37.295,4.8608 74.965,10.0258 92.375,8.9376 4.11,-0.257 7.795,-0.4958 11.156,-0.75 0,-1.0719 0.03,-2.0068 0.03,-3.0313 -3.405,0.2577 -7.184,0.5193 -11.375,0.7813 -16.531,1.0332 -54.507,-4.0443 -91.812,-8.9063 -18.653,-2.431 -37.189,-4.8173 -52.938,-6.3125 -8.853,-0.8405 -16.791,-1.3951 -23.437,-1.5312 z m 25.969,8.9374 c -6.342,0.065 -12.867,0.6894 -19.126,1.625 -2.329,0.3484 -4.615,0.7431 -6.843,1.1563 l 0,3.0313 c 2.36,-0.4439 4.804,-0.8484 7.281,-1.2188 9.38,-1.4027 19.373,-2.1263 28.125,-1.2188 8.752,0.9077 16.202,3.4688 20.781,8.375 4.591,4.9192 4.848,9.9433 1.906,15.7188 -2.938,5.7759 -9.384,12.0436 -18.281,18.0625 -10.511,7.1107 -24.411,13.8863 -39.812,19.5625 l 0,3.1875 c 15.991,-5.8004 30.471,-12.7891 41.5,-20.25 9.134,-6.1788 15.945,-12.633 19.281,-19.1875 3.336,-6.5541 2.902,-13.4689 -2.406,-19.1562 -5.321,-5.7006 -13.51,-8.3327 -22.656,-9.2813 -2.288,-0.237 -4.642,-0.3672 -7.032,-0.4063 -0.896,-0.015 -1.813,-0.01 -2.718,0 z m -12.75,13.2188 c -1.139,-0.012 -2.307,-0.012 -3.532,0.031 -2.961,0.1051 -6.215,0.4121 -9.687,0.875 l 0,3.0313 c 3.55,-0.4885 6.839,-0.8003 9.812,-0.9063 9.445,-0.3363 15.938,1.2172 19.125,3.4063 1.594,1.0946 2.332,2.2559 2.532,3.4687 0.196,1.2134 -0.136,2.629 -1.313,4.3126 -2.352,3.366 -8.041,7.3996 -17.25,10.875 -4.937,1.8629 -9.16,3.4692 -12.906,4.9374 l 0,3.25 c 4.012,-1.5802 8.496,-3.3097 13.969,-5.375 9.529,-3.5958 15.682,-7.7114 18.656,-11.9687 1.487,-2.1286 2.165,-4.3825 1.812,-6.5313 -0.351,-2.1482 -1.738,-4.0129 -3.812,-5.4374 -3.63,-2.4934 -9.446,-3.8885 -17.406,-3.9688 z m 141.624,18.25 c -1.781,-0.014 -3.613,0.01 -5.468,0.031 -10.147,0.1287 -21.28,0.8503 -33,2.5626 -37.949,5.5448 -81.924,21.4744 -116.375,60.7812 l 0,4.625 c 34.218,-40.6599 78.464,-56.839 116.781,-62.4375 24.913,-3.6401 47.181,-2.7644 62.5,-1.1875 0.02,-0.9796 0.05,-2.0147 0.06,-3.0625 -6.88,-0.6985 -15.145,-1.2408 -24.5,-1.3125 z m 2.782,33.7812 c -1.67,0 -3.375,0.021 -5.125,0.063 -32.834,0.782 -78.82,7.8472 -126.824,44.0349 l 7.152,0 c 61.03,-44.564 116.29,-43.3433 145.359,-39.9725 0,-0.8158 0.05,-1.9555 0.06,-2.9687 -5.83,-0.6547 -12.77,-1.141 -20.625,-1.1563 z"
             transform="matrix(0.26458334,0,0,0.26458334,-6.3049604e-6,18.562493)"
             id="path14135"
             inkscape:connector-curvature="0"
             sodipodi:nodetypes="ccsccscccssccscccccccccscccccscccccsccscccccssccccscccscccsccsscccscccccccsccscccccscccccsccccscccccsccsccccccccccccscccccsccsccccccccccccccccsccsccccccccccsccscsccccccsccscccccccccccccsccccscccccccssccssccccscccsscccsccscccscsccccccccssccccsscccccscccsccccccccsccccccccccssccscccccscccccccccc" />
        </g>
      </g>
      <path
         inkscape:connector-curvature="0"
         style="color:#000000;fill:#f6de78;fill-opacity:1;fill-rule:nonzero;stroke:none;stroke-width:12;marker:none;visibility:visible;display:inline;overflow:visible;enable-background:accumulate"
         d="m 21159.469,3033.6875 0,7.6875 0,148.375 c 0.203,0.6863 0.383,0.8163 0.531,0.125 0.75,-3.5 1.25,-94 2.5,-103.25 1.25,-9.25 1.5,-41.5 1.5,-41.5 l 4.125,-3.875 141.406,-2.0625 24.031,19.625 0,17.2813 c -0.518,4.095 -1.014,7.1765 -1.406,8.1562 -1.406,3.5356 -2.113,41.7138 -1.406,50.9062 0.24,3.1239 0.561,25.4924 0.906,51.4063 l -3.562,4.0937 c 0,0 -7.067,0.7188 -9.188,0.7188 -2.121,0 -19.444,4.2188 -22.625,4.2188 -3.182,0 -57.962,-1.0527 -60.437,-1.4063 -2.475,-0.3535 -70.369,-0.709 -72.844,-1.0625 -1.479,-0.2113 -2.334,-0.9278 -3.531,-2.375 l 0,13.9375 c 3.664,-1.1896 7.895,-2.5945 10.969,-2.375 4.949,0.3535 71.064,-1.7714 77.781,-2.125 6.718,-0.3535 72.806,2.1465 75.281,2.5 2.475,0.3536 3.535,0.3277 5.656,3.1563 0.986,1.3143 1.902,2.959 2.844,5.0624 0.579,45.4607 1.172,95.1063 1.562,101.75 l 0,46.25 c -1.717,6.4514 -2.031,17.7572 -2.031,19.7813 0,3.5356 1.344,23.0539 1.344,30.125 0,1.6285 0.276,13.9734 0.687,31 l 0,105.6875 c 0.257,-0.2191 2.295,-1.9323 5.5,-3.625 l 0,-104.5625 c -0.412,-17.0266 -0.687,-29.3715 -0.687,-31 0,-7.0711 -1.344,-26.5894 -1.344,-30.125 0,-2.0241 0.314,-13.3298 2.031,-19.7813 l 0,-46.25 c -0.343,-5.8422 -0.861,-45.8698 -1.374,-86.3124 -0.05,-4.2028 -0.104,-7.7477 -0.157,-11.9376 l -5.625,-8.1562 -3.656,-5.3125 c 0,0 1.345,-2.027 3.125,-4.8437 0.116,-0.1836 0.256,-0.404 0.375,-0.5938 0.858,-1.3641 1.782,-2.8537 2.719,-4.4062 0.194,-0.3244 0.37,-0.6426 0.562,-0.9688 0.238,-0.3995 0.485,-0.7883 0.719,-1.1875 0.488,-0.8334 0.96,-1.6683 1.406,-2.4687 0,-0.2607 0,-0.4276 0,-0.6876 -0.345,-25.6193 -0.666,-47.5076 -0.906,-50.625 -0.707,-9.1924 0,-47.3706 1.406,-50.9062 0.392,-0.9797 0.888,-4.0611 1.406,-8.1562 l 0,-17.2813 -24.031,-22.625 -149.812,0 -5.75,0 z m 174.093,512.0313 0,91.5 -4.25,5.6562 c 0,0 -7.07,9.902 -5.656,13.4375 1.414,3.5356 4.969,19.7813 4.969,19.7813 0,0 4.937,10.6317 4.937,14.875 l 0,9.5312 c -0.03,14.6833 -0.157,41.1975 -0.687,47.0312 -0.719,7.7788 -0.719,25.4376 -0.719,25.4376 0,0 0.564,4.372 1.406,8.9687 l 0,6.8437 c -3.847,2.3871 -25.235,15.5938 -27.062,15.5938 -2,0 -27,-3.5 -30.5,-4.5 -3.5,-1 -36.5,3.5 -39.5,2 -3,-1.5 -67,-0.5 -69.5,-1.5 -2.5,-1 -4,-77 -7.5,-159 0,0 -0.03,0.031 -0.03,0.031 l 0,167.5938 154.469,0 2.718,0 22.406,-20.125 0,-2.6875 0,-6.75 c -0.842,-4.5969 -1.406,-8.9687 -1.406,-8.9687 0,0 0.01,-17.6587 0.719,-25.4376 0.53,-5.8336 0.654,-32.3477 0.687,-47.0312 0.02,-4.8945 0,-8.4706 0,-9.5312 0,-4.2434 -4.937,-14.875 -4.937,-14.875 0,0 -3.555,-16.2457 -4.969,-19.7813 -1.414,-3.5355 5.656,-13.4375 5.656,-13.4375 l 4.25,-5.6562 0,-85.8126 -5.5,-3.1874 z"
         transform="matrix(0.26458334,0,0,0.26458334,-6.3049604e-6,18.562493)"
         id="path14137" />
      <path
         style="color:#000000;fill:#3b2213;fill-opacity:1;fill-rule:nonzero;stroke:none;stroke-width:3;marker:none;visibility:visible;display:inline;overflow:visible;enable-background:accumulate"
         d="m 21333.765,3668.6573 c -1.414,-4.5962 -4.95,-15.5564 -4.95,-15.5564 l -8.838,-1.4142 9.546,-1.7678 c 0,0 5.303,10.2531 6.363,12.728 1.061,2.4748 2.475,13.0814 2.475,13.0814 z"
         id="path14139"
         inkscape:connector-curvature="0"
         transform="matrix(0.26458334,0,0,0.26458334,-6.3049604e-6,18.562493)" />
      <path
         style="color:#000000;fill:#3b2213;fill-opacity:1;fill-rule:nonzero;stroke:none;stroke-width:3;marker:none;visibility:visible;display:inline;overflow:visible;enable-background:accumulate"
         d="m 21329.625,3196.3438 -90.339,0.053 -84.786,-0.08 0,3.5588 86.188,-1 88.562,1.0312 -1,-1.4687 c 0,0 0.692,-1.0463 1.375,-2.0937 z"
         transform="matrix(0.26458334,0,0,0.26458334,-6.3049604e-6,18.562493)"
         id="path14141"
         inkscape:connector-curvature="0"
         sodipodi:nodetypes="cccccccc" />
      <path
         inkscape:connector-curvature="0"
         style="color:#000000;fill:#f6de78;fill-opacity:1;fill-rule:nonzero;stroke:none;stroke-width:3;marker:none;visibility:visible;display:inline;overflow:visible;enable-background:accumulate"
         d="m 21159.469,3544.9062 0,21.9376 c 0.917,-9.5677 1.474,-15.7074 2.469,-15.9063 1.768,-0.3536 76.008,-4.2696 81.312,-3.5625 5.303,0.7071 84.5,1.7812 84.5,1.7812 0,0 4.959,5.6483 5.312,7.0626 0.355,1.4142 4.25,14.8713 4.25,12.75 0,-0.9473 0.973,-5.6678 1.75,-10.5938 l 0,-9.4688 -5.656,-3.2812 c 0,0 0.08,-0.079 0.09,-0.094 -28.446,-0.3141 -169.043,-0.615 -174.031,-0.625 z"
         transform="matrix(0.26458334,0,0,0.26458334,-6.3049604e-6,18.562493)"
         id="path14143" />
      <path
         style="color:#000000;fill:#f6de78;fill-opacity:1;fill-rule:nonzero;stroke:none;stroke-width:3;marker:none;visibility:visible;display:inline;overflow:visible;enable-background:accumulate"
         d="m 21336.24,3533.5999 c -4.243,9.1924 -3.889,7.071 -6.717,7.7782 -2.829,0.7071 -90.51,0.3535 -94.399,1.0606 -3.889,0.7071 -74.6,1.0607 -74.6,1.0607 l 0,4.5962 71.771,-1.7678 60.104,0.7071 41.013,0.7071 4.596,-4.9497 z"
         id="path14145"
         inkscape:connector-curvature="0"
         transform="matrix(0.26458334,0,0,0.26458334,-6.3049604e-6,18.562493)" />
      <path
         style="color:#000000;fill:#3b2213;fill-opacity:1;fill-rule:nonzero;stroke:none;stroke-width:3;marker:none;visibility:visible;display:inline;overflow:visible;enable-background:accumulate"
         d="m 21340.483,3541.7316 c -4.95,1.7678 -3.536,2.4749 -7.778,2.8284 -4.243,0.3536 -75.661,1.4142 -83.793,0.7071 -8.131,-0.7071 -91.924,-1.0606 -91.924,-1.0606 l 0.354,3.182 c 0,0 84.499,-2.8285 90.863,-2.8285 6.364,0 88.742,1.4142 88.742,1.4142 z"
         id="path14147"
         inkscape:connector-curvature="0"
         transform="matrix(0.26458334,0,0,0.26458334,-6.3049604e-6,18.562493)"
         sodipodi:nodetypes="cscccscc" />
      <path
         style="color:#000000;fill:#3b2213;fill-opacity:1;fill-rule:nonzero;stroke:none;stroke-width:3;marker:none;visibility:visible;display:inline;overflow:visible;enable-background:accumulate"
         d="m 21341.19,3081.0515 c -2.122,4.2427 -3.536,12.728 -3.536,12.728 0,0 -15.556,3.5355 -12.728,4.2426 2.829,0.7071 15.557,-0.7071 15.557,-0.7071 z"
         id="path14149"
         inkscape:connector-curvature="0"
         transform="matrix(0.26458334,0,0,0.26458334,-6.3049604e-6,18.562493)" />
    </g>
  </g>
</svg>
