<?xml version="1.0" encoding="UTF-8" standalone="no"?>
<!-- Created with Inkscape (http://www.inkscape.org/) -->

<svg
   xmlns:dc="http://purl.org/dc/elements/1.1/"
   xmlns:cc="http://creativecommons.org/ns#"
   xmlns:rdf="http://www.w3.org/1999/02/22-rdf-syntax-ns#"
   xmlns:svg="http://www.w3.org/2000/svg"
   xmlns="http://www.w3.org/2000/svg"
   xmlns:sodipodi="http://sodipodi.sourceforge.net/DTD/sodipodi-0.dtd"
   xmlns:inkscape="http://www.inkscape.org/namespaces/inkscape"
   width="331.59464"
   height="344.36292"
   viewBox="0 0 87.734411 91.112691"
   version="1.1"
   id="svg23489"
   inkscape:version="0.48.5 r10040"
   sodipodi:docname="panel_dark_wood_small_square_two.svg">
  <defs
     id="defs23483" />
  <sodipodi:namedview
     id="base"
     pagecolor="#7d848b"
     bordercolor="#666666"
     borderopacity="1.0"
     inkscape:pageopacity="1"
     inkscape:pageshadow="2"
     inkscape:zoom="0.1506769"
     inkscape:cx="-523.55902"
     inkscape:cy="809.30804"
     inkscape:document-units="px"
     inkscape:current-layer="layer1"
     showgrid="false"
     inkscape:pagecheckerboard="false"
     showborder="true"
     units="px"
     inkscape:window-width="1920"
     inkscape:window-height="1017"
     inkscape:window-x="-8"
     inkscape:window-y="-8"
     inkscape:window-maximized="1"
     inkscape:showpageshadow="false"
     guidetolerance="28"
     fit-margin-top="25"
     fit-margin-left="25"
     fit-margin-right="25"
     fit-margin-bottom="25">
    <inkscape:grid
       type="xygrid"
       id="grid24034"
       spacingx="1px"
       spacingy="1px"
       empspacing="8"
       visible="true"
       enabled="true"
       snapvisiblegridlinesonly="true"
       originx="-1855.0967px"
       originy="192.0877px" />
  </sodipodi:namedview>
  <metadata
     id="metadata23486">
    <rdf:RDF>
      <cc:Work
         rdf:about="">
        <dc:format>image/svg+xml</dc:format>
        <dc:type
           rdf:resource="http://purl.org/dc/dcmitype/StillImage" />
        <dc:title></dc:title>
        <cc:license
           rdf:resource="" />
        <dc:creator>
          <cc:Agent>
            <dc:title>Robert Brooks</dc:title>
          </cc:Agent>
        </dc:creator>
      </cc:Work>
    </rdf:RDF>
  </metadata>
  <g
     inkscape:label="Layer 1"
     inkscape:groupmode="layer"
     id="layer1"
     transform="translate(-490.82768,-256.71049)">
    <g
       id="g14391"
       transform="matrix(2.0443657,0,0,2.0443657,-12631.108,-1408.0745)">
      <g
         transform="translate(723.10501,-44.714588)"
         id="g14333">
        <path
           style="color:#000000;fill:#ab8130;fill-opacity:1;fill-rule:nonzero;stroke:#3b2213;stroke-width:3.17499995;stroke-linejoin:round;stroke-miterlimit:4;stroke-opacity:1;stroke-dasharray:none;marker:none;visibility:visible;display:inline;overflow:visible;enable-background:accumulate"
           d="m 5703.7717,863.86494 c -0.3968,0.13229 -3.4559,3.05921 -3.4559,3.45609 l 0,3.96049 0,2.07534 c -0.016,0.28716 -0.021,0.51864 0,0.5705 l 0,0.68627 c 0.062,0.12515 0.067,0.45877 0.058,0.84334 -0.02,0.0427 -0.038,0.0841 -0.058,0.13229 l 0,1.09969 c -0.016,0.2903 -0.021,0.51829 0,0.57052 l 0,10.13099 0,3.33209 0,1.26505 c -0.01,0.0931 0.044,0.23294 0.1405,0.39688 l -0.1405,0.11575 0,2.81945 c -0.066,0.66149 2.9271,3.46651 3.4559,3.45615 l 9.5584,0 6.4325,-0.16536 6.7967,0.16536 3.2824,0 c 0,0 3.6544,-2.92698 3.7205,-3.72073 l -0.074,-3.11711 c 0.042,-0.0806 0.07,-0.15589 0.074,-0.21497 l -0.2479,-8.9073 c 0.083,-0.18338 0.1405,-0.36888 0.1405,-0.52917 0,-0.2999 0.018,-1.4161 0.1074,-2.24896 l -0.041,-2.87734 c 0.011,-0.15436 0.026,-0.31157 0.041,-0.45477 l -0.066,-4.81211 c 0,0 -0.066,-1.92645 -0.1984,-4.57234 0.066,-0.79375 -3.456,-3.45609 -3.456,-3.45609 l -26.07,2.5e-4 z"
           id="path14335"
           inkscape:connector-curvature="0"
           sodipodi:nodetypes="csccccccccccccccsccccccccscccccccc" />
        <path
           sodipodi:nodetypes="ccccccccccccccccccscccccsscc"
           inkscape:connector-curvature="0"
           id="path14337"
           d="m 5703.7717,867.20044 c -0.3968,0.13229 -3.4559,3.05922 -3.4559,3.45609 l 0,3.9605 c 0.1825,0.3661 -0.072,2.46755 0,2.64583 0.1526,0.38182 0.613,0.717 0.9757,0.9343 -0.3032,-0.0679 -0.6918,0.0254 -0.9757,0.7276 l 0,11.80121 0.926,1.00872 -0.926,0.76893 0,2.81948 c -0.066,0.66146 2.9268,3.45612 3.4559,3.45612 l 9.5584,0 6.4325,-0.16536 6.7967,0.16536 3.2824,0 c 0,0 3.6544,-2.92695 3.7205,-3.7207 l -0.2645,-9.50261 -0.7724,-1.57827 c 0,0 0.9295,-1.02624 0.9295,-1.6877 0,-0.2999 0.018,-1.41607 0.1074,-2.24895 l -0.066,-4.81211 c 0,0 -0.066,-1.92649 -0.1984,-4.57235 0.066,-0.79375 -3.456,-3.45609 -3.456,-3.45609 l -5.7465,0 c -1.2306,0.1688 -2.4109,0.27284 -3.1419,0.27284 -1.1907,0 -6.35,-0.26459 -6.8792,-0.26459 -0.2688,0 -3.5613,0.26033 -4.9361,-0.008 z"
           style="color:#000000;fill:#ab8130;fill-opacity:1;fill-rule:nonzero;stroke:none;stroke-width:0.88834655;marker:none;visibility:visible;display:inline;overflow:visible;enable-background:accumulate" />
        <path
           style="color:#000000;fill:#ceb254;fill-opacity:1;fill-rule:nonzero;stroke:none;stroke-width:0.88834655;marker:none;visibility:visible;display:inline;overflow:visible;enable-background:accumulate"
           d="m 5703.7717,896.84689 c -0.3968,-0.13229 -3.4559,-3.05922 -3.4559,-3.45609 l 0,-3.9605 c 0.1825,-0.3661 0,-22.10924 0,-22.10924 -0.066,-0.66146 2.9268,-3.45612 3.4559,-3.45612 l 9.5584,0 6.4325,0.16536 6.7967,-0.16536 3.2824,0 c 0,0 3.6544,2.92695 3.7205,3.7207 l -0.066,21.23281 c 0,0 -0.066,1.92649 -0.1984,4.57235 0.066,0.79375 -3.456,3.45609 -3.456,3.45609 l -5.7465,0 c -1.2306,-0.1688 -2.4109,-0.27284 -3.1419,-0.27284 -1.1907,0 -6.35,0.26459 -6.8792,0.26459 -0.2688,0 -3.5613,-0.26033 -4.9361,0.008 z"
           id="path14339"
           inkscape:connector-curvature="0"
           sodipodi:nodetypes="ccccccccccccccsscc" />
        <g
           id="g18767"
           class="switchable"
           name="grain">
          <path
             id="path14389"
             d="m 5733.5635,868.7101 c -1.4549,0.12948 -3.1149,0.31247 -4.994,0.58705 -5.4092,0.79047 -12.3833,1.75536 -18.6613,1.57925 -3.5682,-0.10015 -6.8953,-0.57378 -9.583,-1.62886 0,0.29705 0.01,0.44842 0.01,0.86818 2.7565,1.02158 6.0659,1.45664 9.5499,1.55443 6.3751,0.1788 14.3134,-1.0609 19.7281,-1.85208 1.4761,-0.21575 2.7871,-0.36338 3.9439,-0.47131 l 0.01,-0.63666 z m -8.7312,3.48093 c -5.4428,0.068 -10.9374,1.35853 -16.0322,2.18282 -2.9943,0.48455 -5.8301,0.79901 -8.4333,0.63666 0,0.2761 0,0.51933 0,0.80201 2.6897,0.16258 5.5774,-0.16963 8.5656,-0.65321 6.2587,-1.01258 13.9284,-2.81802 20.3152,-2.16624 1.6489,0.16824 3.0657,0.37089 4.2995,0.58703 l 0,-0.57052 c -1.5026,-0.24432 -3.2041,-0.47189 -5.143,-0.66972 -0.822,-0.0839 -1.6526,-0.13314 -2.4804,-0.14883 -0.3623,-0.007 -0.7284,-0.004 -1.0914,0 z m 8.6981,6.92878 c -3.148,0.008 -8.3476,0.0256 -15.1058,0.0744 -6.636,0.048 -13.5192,0.11793 -18.0414,0.23151 0,0.27178 0.01,0.53221 0.01,0.80203 4.5003,-0.11282 11.4173,-0.19187 18.0414,-0.23979 6.7495,-0.0488 11.9398,-0.0662 15.0894,-0.0744 l 0.01,-0.79375 z m -0.016,4.37388 c -6.2373,0.2917 -24.0173,1.13514 -33.1226,1.65365 -3e-4,0.20179 8e-4,0.44455 0,0.63666 9.0347,-0.74022 25.9929,-1.50381 33.1226,-1.67843 l 0,-0.61188 z m -33.197,6.75516 0,0.79375 c 5.4684,0.18259 8.4889,0.85648 10.8728,1.57922 2.7935,0.84711 4.776,1.78501 8.7064,2.03401 5.7761,0.36586 9.1191,-0.84283 11.9888,-2.17456 0.5135,-0.23826 1.0022,-0.47482 1.4967,-0.71107 0.013,-0.2907 0.031,-0.645 0.041,-0.89297 -0.6231,0.29443 -1.2398,0.59293 -1.8687,0.88469 -2.8258,1.31122 -5.96,2.45793 -11.6084,2.10016 -3.8229,-0.24218 -5.6758,-1.13713 -8.5246,-2.00094 -2.4342,-0.73803 -5.5599,-1.42703 -11.1043,-1.61229 z"
             style="opacity:0.48999999;color:#000000;fill:#f6de78;fill-opacity:1;fill-rule:nonzero;stroke:none;stroke-width:0.88834655;marker:none;visibility:visible;display:inline;overflow:visible;enable-background:accumulate"
             inkscape:connector-curvature="0" />
          <path
             inkscape:connector-curvature="0"
             style="color:#000000;fill:#caab43;fill-opacity:1;fill-rule:nonzero;stroke:none;stroke-width:0.88834655;marker:none;visibility:visible;display:inline;overflow:visible;enable-background:accumulate"
             d="m 24403.156,3043.1562 c -5.499,0.4894 -11.773,1.181 -18.875,2.2188 -20.444,2.9876 -46.803,6.6344 -70.531,5.9688 -13.486,-0.3785 -26.061,-2.1686 -36.219,-6.1563 0,1.1227 0.02,1.6948 0.03,3.2813 10.418,3.8611 22.926,5.5054 36.094,5.875 24.095,0.6758 54.098,-4.0097 74.563,-7 5.579,-0.8154 10.534,-1.3734 14.906,-1.7813 l 0.03,-2.4063 z m -33,13.1563 c -20.571,0.2569 -41.338,5.1346 -60.594,8.25 -11.317,1.8314 -22.035,3.0199 -31.874,2.4063 0,1.0435 0,1.9628 0,3.0312 10.166,0.6145 21.08,-0.6411 32.374,-2.4688 23.655,-3.8271 52.643,-10.6508 76.782,-8.1874 6.232,0.6359 11.587,1.4018 16.25,2.2187 l 0,-2.1563 c -5.679,-0.9234 -12.11,-1.7835 -19.438,-2.5312 -3.107,-0.3171 -6.246,-0.5032 -9.375,-0.5625 -1.369,-0.026 -2.753,-0.017 -4.125,0 z m 32.875,26.1875 c -11.898,0.031 -31.55,0.097 -57.093,0.2812 -25.081,0.1813 -51.096,0.4457 -68.188,0.875 0,1.0272 0.03,2.0115 0.03,3.0313 17.009,-0.4264 43.152,-0.7252 68.188,-0.9063 25.51,-0.1843 45.127,-0.2503 57.031,-0.2812 l 0.03,-3 z m -0.06,16.5312 c -23.574,1.1025 -90.774,4.2903 -125.188,6.25 0,0.7627 0,1.6802 0,2.4063 34.147,-2.7977 98.241,-5.6837 125.188,-6.3437 l 0,-2.3126 z m -125.469,25.5313 0,3 c 20.668,0.6901 32.084,3.2371 41.094,5.9687 10.558,3.2017 18.051,6.7465 32.906,7.6876 21.831,1.3828 34.466,-3.1855 45.312,-8.2188 1.941,-0.9005 3.788,-1.7946 5.657,-2.6875 0.05,-1.0987 0.117,-2.4378 0.156,-3.375 -2.355,1.1128 -4.686,2.241 -7.063,3.3437 -10.68,4.9558 -22.526,9.2898 -43.874,7.9376 -14.449,-0.9153 -21.452,-4.2978 -32.219,-7.5626 -9.2,-2.7894 -21.014,-5.3935 -41.969,-6.0937 z"
             transform="matrix(0.26458334,0,0,0.26458334,-723.10502,63.277081)"
             id="path14386" />
        </g>
        <path
           id="path14354"
           transform="matrix(0.26458334,0,0,0.26458334,-723.10502,63.277081)"
           d="m 24290.562,3025.8438 c -1.999,0 -13.311,10.5624 -13.062,13.0624 0,0 0.69,82.1789 0,83.5626 l 0,14.9687 c 0,1.5 11.563,12.5625 13.062,13.0625 l 20.282,0 c 5.196,-1.0142 17.64,-0.031 18.656,-0.031 2,0 21.5,-1 26,-1 2.763,0 7.224,0.3932 11.875,1.0312 l 21.719,0 c 0,0 13.312,-10.0625 13.062,-13.0625 0.501,-10.0001 0.75,-17.2813 0.75,-17.2813 l 0.25,-80.25 c -0.25,-2.9999 -14.062,-14.0624 -14.062,-14.0624 l -12.406,0 -25.688,0.625 -24.312,-0.625 -36.126,0 z m 79.626,4.8437 c 8.593,0 14.562,0.1875 15.312,0.6875 3,2 12,7 12,7 0,0 -1.5,31 0,42 1.5,11 4,26 3.5,33.5 -0.398,5.9674 0.441,16.6468 0.812,20.9062 -3.895,3.2639 -8.703,7.3064 -10.312,8.5938 -2.5,2 -18,3.5 -18,3.5 0,0 -15,-1 -21,-1 -6,0 -55,1 -58,0.5 -3,-0.5 -4,-1 -8,-6 -2.815,-3.5192 -6.358,-4.3448 -8.219,-9.5625 2.796,-36.3476 3.219,-66.6948 3.219,-75.4375 0,-9.5 -1,-9 1.5,-13 2.5,-4 5,-10 9,-10 3,0 52.405,-1.6875 78.188,-1.6875 z"
           style="color:#000000;fill:#f6de78;fill-opacity:1;fill-rule:nonzero;stroke:none;stroke-width:0.88834655;marker:none;visibility:visible;display:inline;overflow:visible;enable-background:accumulate"
           inkscape:connector-curvature="0" />
      </g>
    </g>
  </g>
</svg>
