<?xml version="1.0" encoding="UTF-8" standalone="no"?>
<!-- Created with Inkscape (http://www.inkscape.org/) -->

<svg
   xmlns:dc="http://purl.org/dc/elements/1.1/"
   xmlns:cc="http://creativecommons.org/ns#"
   xmlns:rdf="http://www.w3.org/1999/02/22-rdf-syntax-ns#"
   xmlns:svg="http://www.w3.org/2000/svg"
   xmlns="http://www.w3.org/2000/svg"
   xmlns:sodipodi="http://sodipodi.sourceforge.net/DTD/sodipodi-0.dtd"
   xmlns:inkscape="http://www.inkscape.org/namespaces/inkscape"
   width="1229.0992"
   height="285.27771"
   viewBox="0 0 325.19914 75.479724"
   version="1.1"
   id="svg23489"
   inkscape:version="0.48.5 r10040"
   sodipodi:docname="panel_dark_wood_top_corner_meter_holder.svg">
  <defs
     id="defs23483" />
  <sodipodi:namedview
     id="base"
     pagecolor="#7d848b"
     bordercolor="#666666"
     borderopacity="1.0"
     inkscape:pageopacity="1"
     inkscape:pageshadow="2"
     inkscape:zoom="0.10654466"
     inkscape:cx="-705.99476"
     inkscape:cy="1637.7199"
     inkscape:document-units="px"
     inkscape:current-layer="layer1"
     showgrid="false"
     inkscape:pagecheckerboard="false"
     showborder="true"
     units="px"
     inkscape:window-width="1920"
     inkscape:window-height="1017"
     inkscape:window-x="-8"
     inkscape:window-y="-8"
     inkscape:window-maximized="1"
     inkscape:showpageshadow="false"
     guidetolerance="28"
     fit-margin-top="25"
     fit-margin-left="25"
     fit-margin-right="25"
     fit-margin-bottom="25">
    <inkscape:grid
       type="xygrid"
       id="grid24034"
       spacingx="1px"
       spacingy="1px"
       empspacing="8"
       visible="true"
       enabled="true"
       snapvisiblegridlinesonly="true"
       originx="-2838.5449px"
       originy="865.15525px" />
  </sodipodi:namedview>
  <metadata
     id="metadata23486">
    <rdf:RDF>
      <cc:Work
         rdf:about="">
        <dc:format>image/svg+xml</dc:format>
        <dc:type
           rdf:resource="http://purl.org/dc/dcmitype/StillImage" />
        <dc:title></dc:title>
        <cc:license
           rdf:resource="" />
        <dc:creator>
          <cc:Agent>
            <dc:title>Robert Brooks</dc:title>
          </cc:Agent>
        </dc:creator>
      </cc:Work>
    </rdf:RDF>
  </metadata>
  <g
     inkscape:label="Layer 1"
     inkscape:groupmode="layer"
     id="layer1"
     transform="translate(-751.03161,-450.4259)">
    <g
       id="g12918"
       transform="matrix(1.2164843,0,0,1.2164843,-5711.3056,-214.52527)">
      <path
         inkscape:connector-curvature="0"
         id="path12920"
         transform="matrix(0.36930994,0,0,0.36930994,-2518.1476,-377.29078)"
         d="m 21225.031,2523.8125 0,122.5313 12.188,0 c -0.516,-4.1907 -0.781,-8.4824 -0.781,-12.8126 0,-57.2039 46.389,-103.5624 103.593,-103.5624 57.204,0 103.563,46.3585 103.563,103.5624 0,4.2987 -0.273,8.5575 -0.782,12.7188 29.531,-0.2954 74.692,-0.5799 76.219,-0.7188 3.797,-0.3451 79.798,-0.909 83.594,-0.2187 3.293,0.5989 50.125,1.6895 64.531,1.75 l 2.906,0 c 0.625,-0.01 1.056,-0.01 1.25,-0.031 0.294,-0.032 2.301,-0.01 5.032,0.063 l 166.968,0.5 c 0.528,-0.1993 1.938,-0.7188 1.938,-0.7188 0,0 2.109,0.4255 3.812,0.75 l 25.063,-0.4688 c 1.585,0.2643 16.911,-13.5265 23.937,-19.0624 5.952,-4.6896 4.376,-12.4688 4.376,-12.4688 l 1.281,-51.8438 -2.469,-4.75 2.875,-11.2812 0.563,-23.9375 -679.657,0 z"
         style="color:#000000;fill:#3b2213;fill-opacity:1;fill-rule:nonzero;stroke:#3b2213;stroke-width:14.72329426;stroke-linejoin:round;stroke-miterlimit:4;stroke-opacity:1;stroke-dasharray:none;marker:none;visibility:visible;display:inline;overflow:visible;enable-background:accumulate" />
      <path
         inkscape:connector-curvature="0"
         id="path12922"
         transform="matrix(0.36930994,0,0,0.36930994,-2518.1476,-377.29078)"
         d="m 21225.375,2537.9688 0,12.5624 52.187,0.375 c 6.199,-4.6935 12.949,-8.6872 20.126,-11.9062 l -72.313,-1.0312 z m 159.656,2.2812 c 6.647,3.2117 12.893,7.0964 18.657,11.5938 l 21.874,0.1562 -21.156,0.4062 c 23.881,18.9746 39.188,48.2538 39.188,81.125 0,3.9685 -0.222,7.8977 -0.656,11.75 29.54,-0.295 74.6,-0.6114 76.124,-0.75 3.797,-0.3451 79.798,-0.909 83.594,-0.2187 3.294,0.5989 50.094,1.7207 64.5,1.7813 l 2.938,0 c 0.624,-0.01 1.024,-0.04 1.218,-0.063 0.294,-0.032 2.301,-0.01 5.032,0.063 l 166.968,0.5312 c 0.528,-0.1993 1.938,-0.7188 1.938,-0.7188 0,0 2.109,0.4255 3.812,0.75 l 25.063,-0.4687 c 2.441,-0.488 24.906,-18.8437 24.906,-18.8437 l 3.094,-10.9688 c -4.707,-0.2841 -31.552,-1.9375 -34.406,-1.9375 2.025,-0.093 26.127,-0.6702 34.937,-1.5 l -4.062,-43.7187 4.75,-19.625 -10.313,3.5312 c 0,0 -11.746,-0.4806 -12.843,-0.9688 -1.099,-0.4881 11.48,-0.7528 11.968,-0.875 0.276,-0.069 3.981,-1.7641 7.656,-3.7187 l -514.781,-7.3125 z m -112.5,14.75 -47.156,0.9062 -0.344,80.8126 1.688,9.3437 10.469,-0.031 c -0.492,-4.0915 -0.75,-8.276 -0.75,-12.5 0,-31.4127 14.011,-59.5361 36.093,-78.5312 z"
         style="color:#000000;fill:#ab8130;fill-opacity:1;fill-rule:nonzero;stroke:none;stroke-width:10;marker:none;visibility:visible;display:inline;overflow:visible;enable-background:accumulate" />
      <path
         inkscape:connector-curvature="0"
         id="path13193"
         transform="matrix(0.5125433,0,0,0.5125433,-5526.1597,-898.08387)"
         d="m 21647.75,2891.875 c -1.025,0.041 -2.17,0.2547 -3.562,0.7188 -6.799,2.2662 -13.046,6.4402 -14.094,7.1562 5.552,-0.1648 15.558,-0.4378 20.531,-0.9062 l -0.625,-6.7188 c -0.703,-0.1807 -1.433,-0.2824 -2.25,-0.25 z m -18.062,8.2188 c 0,7.2095 0.698,15.703 1.343,22.2187 3.894,-2.3882 16.969,-13.0937 16.969,-13.0937 l 2.25,-7.9063 c -2.55,-0.1539 -14.105,-0.875 -20.562,-1.2187 z"
         style="opacity:0.4557522;color:#000000;fill:#604107;fill-opacity:1;fill-rule:nonzero;stroke:none;stroke-width:10;marker:none;visibility:visible;display:inline;overflow:visible;enable-background:accumulate" />
      <path
         inkscape:connector-curvature="0"
         id="path12924"
         transform="matrix(0.36930994,0,0,0.36930994,-2518.1476,-377.29078)"
         d="m 21722.375,2523.3438 c -98.468,-0.014 -401.057,0.2848 -497.344,0.4687 l 0,113.2813 11.469,-0.031 c -0.04,-1.1681 -0.06,-2.3537 -0.06,-3.5313 0,-57.2039 46.389,-103.5624 103.593,-103.5624 57.204,0 103.563,46.3585 103.563,103.5624 0,0.8939 0,1.7992 -0.03,2.6876 29.574,-0.9168 74,-2.7699 75.5,-2.9063 3.797,-0.3451 79.798,-0.909 83.594,-0.2187 3.294,0.5987 50.094,1.7205 64.5,1.7812 l 2.938,0 c 0.624,-0.01 1.024,-0.04 1.218,-0.062 0.294,-0.032 2.301,0.026 5.032,0.094 l 166.968,0.5 c 0.528,-0.1995 1.938,-0.7187 1.938,-0.7187 0,0 2.109,0.4255 3.812,0.75 l 25.063,-0.4687 c 2.13,-0.4261 20.824,-14.8686 25.781,-18.7188 -7.289,-0.4383 -29.53,-1.8125 -32.187,-1.8125 1.979,-0.091 25.002,-0.6073 34.281,-1.4063 l 1.5,-53.4687 -11.156,-6.4687 c -1.806,-0.079 -11.161,-0.495 -12.156,-0.9376 -1.099,-0.4881 11.48,-0.7528 11.968,-0.875 0.389,-0.097 7.571,-3.4118 11.906,-6.125 l 0.657,-21.3437 c -62.837,-0.3503 -123.262,-0.4599 -182.344,-0.4687 z"
         style="color:#000000;fill:#ceb254;fill-opacity:1;fill-rule:nonzero;stroke:none;stroke-width:10;marker:none;visibility:visible;display:inline;overflow:visible;enable-background:accumulate" />
      <path
         inkscape:connector-curvature="0"
         id="path12926"
         transform="matrix(0.36930994,0,0,0.36930994,-2518.1476,-377.29078)"
         d="m 21600.219,2544.375 c -61.265,0 -32.93,3.5312 0,3.5312 98.624,0 153.676,7.7888 293.219,8.2813 l -1.094,-0.6563 c -1.806,-0.079 -11.162,-0.4951 -12.156,-0.9374 -1.099,-0.4882 11.48,-0.753 11.968,-0.875 0.06,-0.015 0.336,-0.137 0.719,-0.3126 l -0.531,-0.3124 c -0.703,-0.031 -2.546,-0.1295 -4.563,-0.25 -1.59,-0.09 -2.804,-0.1576 -4.281,-0.2813 -132.109,-0.8154 -186.868,-8.1875 -283.281,-8.1875 z m 266.062,19.2188 c -22.005,0.1345 -40.936,0.9783 -55.656,2.625 -12.818,1.4338 -22.436,3.4269 -28.406,6.4062 -2.986,1.4896 -5.167,3.2674 -6.125,5.6562 -0.957,2.389 -0.333,5.1012 1.437,7.5626 2.018,2.7996 5.863,4.7053 11.063,6.5 5.2,1.7946 11.815,3.3338 19.375,4.7187 15.121,2.7698 34.002,4.8311 52.5,6.3437 14.954,1.2228 29.519,2.084 41.719,2.6876 l 0.06,-2.25 0.03,-1.3438 c -12.158,-0.6039 -26.652,-1.4397 -41.531,-2.6562 -18.433,-1.5076 -37.249,-3.5505 -52.156,-6.2813 -7.454,-1.3656 -13.927,-2.9278 -18.844,-4.625 -4.918,-1.697 -8.223,-3.6728 -9.312,-5.1875 -1.334,-1.853 -1.455,-3.0265 -1,-4.1562 0.451,-1.1301 1.836,-2.468 4.406,-3.75 5.139,-2.5648 14.552,-4.6801 27.187,-6.0938 22.141,-2.4765 54.261,-3.0382 92.25,-2.2188 l 0.09,-3.5937 c -5.472,-0.1167 -10.844,-0.1905 -16.063,-0.25 -3.882,-0.044 -7.674,-0.084 -11.406,-0.094 -3.266,-0.01 -6.481,-0.019 -9.625,0 z m -342.093,0.5 c -14.968,0.062 -57.416,0.502 -106.188,1.2812 0.658,0.7517 1.301,1.5106 1.938,2.2812 107.946,-0.056 208.142,5.5996 244.624,13.125 54.081,11.1563 102.87,26.4707 210.094,33.4376 3.456,-0.1018 8.023,-0.2673 12.532,-0.4376 0.463,-0.018 0.913,-0.012 1.374,-0.031 1.653,-0.066 3.225,-0.1425 4.813,-0.2188 1.604,-0.077 3.156,-0.1342 4.563,-0.2187 1.52,-0.091 2.902,-0.1814 4.062,-0.2813 l 0.03,-0.8437 c -126.329,-5.9563 -178.045,-22.8278 -236.75,-34.9375 -35.6,-7.3438 -73.722,-12.8892 -132.406,-13.1562 -2.851,-0.014 -5.737,-0.014 -8.687,0 z m -265.594,5.4062 c -13.566,0.6155 -25.243,1.2668 -33.563,2 l 0,3.625 c 10.119,-0.8938 20.547,-1.6856 31.188,-2.4062 0.785,-1.0805 1.549,-2.1705 2.375,-3.2188 z m 644.562,2.4375 c -7.662,0.4817 -13.987,1.2063 -19.031,2.0937 -8.669,1.5252 -13.72,3.3512 -16.437,5.9063 -1.36,1.2775 -2.147,3.0047 -1.876,4.6563 0.273,1.6512 1.357,2.9265 2.75,3.9687 2.788,2.0844 7.141,3.5013 12.344,4.2187 6.642,0.9164 14.301,1.523 21.594,1.9376 l 0.06,-1.6563 0.03,-1.9063 c -7.205,-0.4076 -14.715,-1.0132 -21.188,-1.9062 -4.806,-0.6631 -8.772,-2.0996 -10.687,-3.5312 -0.957,-0.7158 -1.288,-1.3776 -1.344,-1.7188 -0.06,-0.3412 -0.05,-0.6873 0.75,-1.4375 1.596,-1.5004 6.252,-3.5581 14.625,-5.0313 4.804,-0.8452 10.897,-1.5281 18.312,-2 l 0.09,-3.5937 z m -386.656,8.7813 c -4.498,0.019 -9.035,0.075 -13.562,0.125 -11.435,0.1225 -40.378,0.3643 -73.376,0.625 0.682,1.1692 1.333,2.3647 1.969,3.5624 32.164,-0.2538 60.232,-0.4735 71.438,-0.5937 36.17,-0.3882 71.945,0.057 98.875,2.2813 13.466,1.1116 24.739,2.6758 32.656,4.75 3.958,1.0369 7.084,2.2177 9.156,3.4374 2.074,1.2196 2.926,2.4044 3.094,3.3438 0.06,0.3349 0.04,0.6526 -0.344,1.25 -0.39,0.5974 -1.151,1.3737 -2.281,2.1875 -2.256,1.6275 -5.956,3.4377 -10.781,5.2813 -9.649,3.6868 -23.874,7.5481 -41.094,11.4374 -22.709,5.1292 -50.7,10.3092 -80.469,15.25 2.866,-0.126 7.005,-0.3185 7.281,-0.3437 0.455,-0.041 2.171,-0.08 4.5,-0.125 0.295,-0.01 0.839,-0.026 1.157,-0.031 2.196,-0.038 5.391,-0.088 8.469,-0.125 0.949,-0.011 2.391,-0.02 3.406,-0.031 20.665,-3.6585 39.924,-7.3639 56.437,-11.0938 17.305,-3.9083 31.633,-7.7875 41.594,-11.5937 4.982,-1.9033 8.881,-3.7618 11.594,-5.7187 1.357,-0.9785 2.437,-1.9814 3.187,-3.125 0.747,-1.1436 1.117,-2.5275 0.875,-3.875 -0.437,-2.4259 -2.271,-4.2859 -4.812,-5.7813 -2.543,-1.4953 -5.917,-2.7262 -10.063,-3.8125 -8.292,-2.1728 -19.707,-3.723 -33.281,-4.8438 -20.362,-1.6812 -45.59,-2.3698 -72.219,-2.4374 -4.437,-0.011 -8.909,-0.019 -13.406,0 z m -267.312,2.6562 c -3.021,0.071 -5.458,0.1479 -7.25,0.2188 -6.084,0.24 -11.606,0.4648 -16.907,0.6874 l 0,3.5938 c 5.333,-0.2253 10.905,-0.4443 17.063,-0.6875 1.328,-0.052 3.36,-0.1035 5.375,-0.1563 0.622,-1.2347 1.268,-2.4504 1.937,-3.6562 -0.06,0 -0.157,0 -0.218,0 z m 459.874,31.5312 c -5.456,0.049 -10.546,0.2357 -15.124,0.5626 -32.969,2.3547 -53.68,5.4248 -83.626,18.0624 0.539,0.022 0.887,0.072 1.469,0.094 2.183,0.08 4.467,0.1326 7.219,0.2188 25.719,-10.0165 45.155,-12.6651 75.219,-14.8126 23.899,-1.7068 62.029,0.8561 100.5,3.875 31.716,2.489 63.635,5.2565 88.281,6.1563 0.962,-0.7046 1.973,-1.4432 2.969,-2.1875 0.566,-0.4218 1.087,-0.8225 1.656,-1.25 -24.967,-0.6969 -58.91,-3.6355 -92.625,-6.2812 -28.873,-2.2658 -57.543,-4.2985 -80.375,-4.4376 -1.903,-0.011 -3.743,-0.016 -5.563,0 z"
         style="font-size:medium;font-style:normal;font-variant:normal;font-weight:normal;font-stretch:normal;text-indent:0;text-align:start;text-decoration:none;line-height:normal;letter-spacing:normal;word-spacing:normal;text-transform:none;direction:ltr;block-progression:tb;writing-mode:lr-tb;text-anchor:start;baseline-shift:baseline;opacity:0.5;color:#000000;fill:#f6de78;fill-opacity:1;stroke:none;stroke-width:1.32291675;marker:none;visibility:visible;display:inline;overflow:visible;enable-background:accumulate;font-family:Sans;-inkscape-font-specification:Sans" />
      <path
         inkscape:connector-curvature="0"
         id="path12928"
         transform="matrix(0.36930994,0,0,0.36930994,-2518.1476,-377.29078)"
         d="m 21600.219,2541.9375 c -35.397,0 -120.712,2.7723 -202.5,5.5937 1.886,1.2681 3.735,2.5827 5.531,3.9688 80.21,-3.0614 162.142,-6.0312 196.969,-6.0312 98.624,0 153.677,7.7887 293.219,8.2812 l -1.094,-0.6562 c -1.806,-0.079 -11.162,-0.495 -12.156,-0.9376 -1.099,-0.488 11.48,-0.7528 11.968,-0.875 0.128,-0.032 1.143,-0.4956 2.406,-1.0937 -140.2,-0.4555 -195.281,-8.25 -294.343,-8.25 z m -323.719,9.7813 c -18.606,0.6287 -35.092,1.167 -45.5,1.4374 l -5.969,-0.3124 0,5.0624 c 10.599,-0.2235 27.166,-0.7835 45.813,-1.4374 1.832,-1.6461 3.709,-3.2364 5.656,-4.75 z m 589.781,9.4374 c -22.005,0.1347 -40.936,0.9472 -55.656,2.5938 -12.818,1.434 -22.436,3.4582 -28.406,6.4375 -2.986,1.4896 -5.167,3.2673 -6.125,5.6563 -0.957,2.3888 -0.334,5.1013 1.437,7.5624 2.018,2.7998 5.863,4.6741 11.063,6.4688 5.2,1.7947 11.815,3.3651 19.375,4.75 15.121,2.7698 34.002,4.831 52.5,6.3438 14.98,1.2247 29.568,2.0839 41.781,2.6874 l 0.125,-3.5937 c -12.171,-0.6041 -26.72,-1.4687 -41.625,-2.6875 -18.433,-1.5075 -37.249,-3.5192 -52.156,-6.25 -7.454,-1.3656 -13.927,-2.9278 -18.844,-4.625 -4.918,-1.697 -8.223,-3.6728 -9.312,-5.1875 -1.334,-1.853 -1.455,-3.0264 -1,-4.1563 0.451,-1.1299 1.836,-2.499 4.406,-3.7812 5.139,-2.5647 14.552,-4.6489 27.187,-6.0625 22.154,-2.478 54.293,-3.0405 92.313,-2.2187 l 0,-0.1563 0.09,-3.4375 c -5.495,-0.1176 -10.886,-0.2216 -16.126,-0.2812 -3.883,-0.044 -7.673,-0.053 -11.406,-0.063 -3.266,-0.01 -6.481,-0.019 -9.625,0 z m -342.093,0.5 c -15.188,0.064 -58.693,0.5103 -108.376,1.3126 0.696,0.7467 1.389,1.4829 2.063,2.25 108.733,-0.1301 209.973,5.5513 246.687,13.125 58.089,11.9827 110.021,28.7658 234.876,34.8437 0.891,-0.06 1.826,-0.093 2.562,-0.1563 l 0.09,-3.2812 c -126.379,-5.9534 -178.097,-22.8257 -236.813,-34.9375 -35.6,-7.3438 -73.723,-12.8891 -132.406,-13.1563 -2.852,-0.013 -5.737,-0.012 -8.687,0 z m -263.532,5.3126 c -14.458,0.6399 -26.893,1.3242 -35.625,2.0937 l 0,3.625 c 10.718,-0.9467 21.795,-1.7784 33.094,-2.5313 0.832,-1.0738 1.658,-2.1478 2.531,-3.1874 z m 642.563,2.5312 c -7.705,0.4818 -14.03,1.1713 -19.094,2.0625 -8.669,1.5252 -13.72,3.3824 -16.437,5.9375 -1.36,1.2775 -2.147,3.0048 -1.876,4.6562 0.273,1.6514 1.357,2.9266 2.75,3.9688 2.788,2.0844 7.141,3.5012 12.344,4.2188 6.672,0.9202 14.366,1.523 21.688,1.9374 l 0.09,-3.5624 c -7.226,-0.4079 -14.789,-1.0105 -21.282,-1.9063 -4.806,-0.663 -8.772,-2.1308 -10.687,-3.5625 -0.957,-0.7159 -1.288,-1.3463 -1.344,-1.6875 -0.06,-0.3412 -0.05,-0.6873 0.75,-1.4375 1.596,-1.5004 6.252,-3.5582 14.625,-5.0312 4.819,-0.848 10.926,-1.528 18.375,-2 l 0.09,-3.5938 z m -386.719,8.7812 c -4.498,0.019 -9.035,0.075 -13.562,0.125 -11.598,0.1244 -41.213,0.3591 -74.844,0.625 0.726,1.1716 1.444,2.3604 2.125,3.5626 32.729,-0.2586 61.398,-0.4721 72.75,-0.5938 36.17,-0.3882 71.945,0.058 98.875,2.2812 13.466,1.1119 24.739,2.676 32.656,4.75 3.958,1.0371 7.084,2.2177 9.156,3.4376 2.074,1.2194 2.926,2.4043 3.094,3.3437 0.06,0.3349 0.04,0.6526 -0.344,1.25 -0.39,0.5974 -1.152,1.3737 -2.281,2.1875 -2.256,1.6276 -5.956,3.4378 -10.781,5.2812 -9.649,3.6871 -23.874,7.5481 -41.094,11.4376 -27.724,6.2617 -63.262,12.606 -100.375,18.5 4.941,-0.1963 10.496,-0.4023 14.344,-0.5626 0.16,-0.01 0.374,-0.025 0.531,-0.031 2.174,-0.091 2.079,-0.084 3.75,-0.1562 4.948,-0.2106 8.197,-0.373 8.562,-0.4063 0.3,-0.027 1.156,-0.064 2.282,-0.094 26.428,-4.493 51.172,-9.1164 71.687,-13.75 17.305,-3.9085 31.633,-7.7876 41.594,-11.5938 4.982,-1.9033 8.881,-3.7618 11.594,-5.7188 1.357,-0.9783 2.438,-1.9813 3.187,-3.125 0.747,-1.1435 1.117,-2.5273 0.875,-3.875 -0.437,-2.4257 -2.271,-4.2858 -4.812,-5.7812 -2.543,-1.4953 -5.917,-2.7262 -10.063,-3.8125 -8.292,-2.1728 -19.707,-3.723 -33.281,-4.8437 -20.362,-1.6813 -45.59,-2.3698 -72.219,-2.4376 -4.437,-0.011 -8.909,-0.018 -13.406,0 z m -265.688,2.625 c -3.677,0.082 -6.81,0.1685 -8.874,0.25 -6.084,0.2403 -11.605,0.4648 -16.907,0.6876 l 0,3.5937 c 5.333,-0.2252 10.905,-0.4443 17.063,-0.6875 1.645,-0.065 3.971,-0.1221 6.656,-0.1875 0.663,-1.2329 1.351,-2.4539 2.062,-3.6563 z m 458.25,31.5626 c -5.456,0.049 -10.546,0.2356 -15.124,0.5624 -34.827,2.4877 -55.946,5.7613 -88.75,20.2813 0.213,0.013 0.356,0.018 0.593,0.031 1.891,0.1052 4.426,0.1978 7.625,0.3124 28.61,-11.8984 48.603,-14.7617 80.813,-17.0624 23.899,-1.707 62.029,0.8559 100.5,3.875 33.065,2.5946 66.373,5.5134 91.406,6.2812 0.01,3e-4 0.02,-3e-4 0.03,0 1.566,-1.1677 3.032,-2.3071 4.563,-3.4688 -25.211,-0.5238 -60.595,-3.6185 -95.719,-6.375 -28.873,-2.2655 -57.543,-4.2986 -80.375,-4.4374 -1.903,-0.012 -3.743,-0.017 -5.563,0 z"
         style="font-size:medium;font-style:normal;font-variant:normal;font-weight:normal;font-stretch:normal;text-indent:0;text-align:start;text-decoration:none;line-height:normal;letter-spacing:normal;word-spacing:normal;text-transform:none;direction:ltr;block-progression:tb;writing-mode:lr-tb;text-anchor:start;baseline-shift:baseline;color:#000000;fill:#caab43;fill-opacity:1;stroke:none;stroke-width:1.32291675;marker:none;visibility:visible;display:inline;overflow:visible;enable-background:accumulate;font-family:Sans;-inkscape-font-specification:Sans" />
      <path
         inkscape:connector-curvature="0"
         id="path12930"
         transform="matrix(0.36930994,0,0,0.36930994,-2518.1476,-377.29078)"
         d="m 21722.375,2523.3438 c -98.468,-0.014 -401.057,0.2847 -497.344,0.4687 l 0,26.7187 0.125,0 c 2.812,-5.9827 4.25,-21.75 4.25,-21.75 l 671.969,0 c 0,0 0.905,8.5756 2.281,16.625 0.13,-0.08 0.28,-0.1709 0.406,-0.25 l 0.657,-21.3437 c -62.837,-0.3505 -123.262,-0.4598 -182.344,-0.4687 z m 123.219,27.3437 c -0.388,0.136 38.464,4.4799 42.125,4.9375 3.905,0.4881 11.192,5.372 12.656,7.8125 1.464,2.4405 1.512,22.4224 2,34.625 0,0.2798 0.02,0.4955 0.03,0.75 l 1.094,-39.25 -11.156,-6.4687 c -1.806,-0.079 -11.161,-0.495 -12.156,-0.9376 -0.04,-0.016 -0.06,-0.048 -0.06,-0.062 -13.482,-0.4724 -29.844,-1.0625 -33.906,-1.375 -0.397,-0.03 -0.599,-0.04 -0.625,-0.031 z m -620.563,35.5313 0,50.875 11.469,-0.031 c -0.04,-1.1681 -0.06,-2.3537 -0.06,-3.5313 0,-0.2523 0,-0.498 0,-0.75 -0.598,0 -8.032,-0.062 -8.032,-0.062 0,0 -2.066,-22.2346 -3.375,-46.5 z m 662.875,29.3124 c -23.639,0.3388 -67.236,0.5938 -70.5,0.5938 -4.393,0 63.467,1.9494 69.813,2.4375 6.345,0.4881 -13.673,10.7351 -15.625,12.6875 -1.953,1.9524 -72.727,-0.4837 -82,1.4688 -9.274,1.9524 -107.864,-5.3588 -117.625,-3.4063 -9.762,1.9525 -46.367,2.4375 -53.688,2.4375 -7.322,0 -95.173,-2.9256 -101.031,-2.4375 -5.103,0.4252 -56.842,3.8212 -73.656,4.6875 0,0.7372 -0.01,1.4853 -0.03,2.2188 29.574,-0.9168 74,-2.7699 75.5,-2.9063 3.797,-0.3451 79.798,-0.909 83.594,-0.2187 3.294,0.5987 50.094,1.7204 64.5,1.7812 l 2.938,0 c 0.624,-0.01 1.024,-0.04 1.218,-0.062 0.294,-0.032 2.301,0.026 5.032,0.094 l 166.968,0.5 c 0.528,-0.1995 1.938,-0.7187 1.938,-0.7187 0,0 2.109,0.4255 3.812,0.75 l 25.063,-0.4687 c 2.13,-0.4262 20.824,-14.8687 25.781,-18.7188 -2.451,-0.1473 -7.476,-0.4507 -12,-0.7188 z"
         style="color:#000000;fill:#f6de78;fill-opacity:1;fill-rule:nonzero;stroke:none;stroke-width:15;marker:none;visibility:visible;display:inline;overflow:visible;enable-background:accumulate" />
    </g>
  </g>
</svg>
