<?xml version="1.0" encoding="UTF-8" standalone="no"?>
<!-- Created with Inkscape (http://www.inkscape.org/) -->

<svg
   xmlns:dc="http://purl.org/dc/elements/1.1/"
   xmlns:cc="http://creativecommons.org/ns#"
   xmlns:rdf="http://www.w3.org/1999/02/22-rdf-syntax-ns#"
   xmlns:svg="http://www.w3.org/2000/svg"
   xmlns="http://www.w3.org/2000/svg"
   xmlns:sodipodi="http://sodipodi.sourceforge.net/DTD/sodipodi-0.dtd"
   xmlns:inkscape="http://www.inkscape.org/namespaces/inkscape"
   width="938.03467"
   height="945.79401"
   viewBox="0 0 248.18833 250.24134"
   version="1.1"
   id="svg23489"
   inkscape:version="0.48.5 r10040"
   sodipodi:docname="panel_light_wood_small_square_one.svg">
  <defs
     id="defs23483" />
  <sodipodi:namedview
     id="base"
     pagecolor="#7d848b"
     bordercolor="#666666"
     borderopacity="1.0"
     inkscape:pageopacity="1"
     inkscape:pageshadow="2"
     inkscape:zoom="0.1506769"
     inkscape:cx="-1753.7055"
     inkscape:cy="1155.7892"
     inkscape:document-units="px"
     inkscape:current-layer="layer1"
     showgrid="false"
     inkscape:pagecheckerboard="false"
     showborder="true"
     units="px"
     inkscape:window-width="1920"
     inkscape:window-height="1017"
     inkscape:window-x="-8"
     inkscape:window-y="-8"
     inkscape:window-maximized="1"
     inkscape:showpageshadow="false"
     guidetolerance="28"
     fit-margin-top="25"
     fit-margin-left="25"
     fit-margin-right="25"
     fit-margin-bottom="25">
    <inkscape:grid
       type="xygrid"
       id="grid24034"
       spacingx="1px"
       spacingy="1px"
       empspacing="8"
       visible="true"
       enabled="true"
       snapvisiblegridlinesonly="true"
       originx="-3085.2432px"
       originy="538.56883px" />
  </sodipodi:namedview>
  <metadata
     id="metadata23486">
    <rdf:RDF>
      <cc:Work
         rdf:about="">
        <dc:format>image/svg+xml</dc:format>
        <dc:type
           rdf:resource="http://purl.org/dc/dcmitype/StillImage" />
        <dc:title></dc:title>
        <cc:license
           rdf:resource="" />
        <dc:creator>
          <cc:Agent>
            <dc:title>Robert Brooks</dc:title>
          </cc:Agent>
        </dc:creator>
      </cc:Work>
    </rdf:RDF>
  </metadata>
  <g
     inkscape:label="Layer 1"
     inkscape:groupmode="layer"
     id="layer1"
     transform="translate(-816.30395,-189.25498)">
    <g
       transform="matrix(0.34950401,0,0,0.53943191,-579.18922,51.945552)"
       id="g22215">
      <g
         id="g22217"
         transform="translate(-214.8368,-118.92752)">
        <g
           transform="matrix(2.0479952,0,0,2.0443656,-7421.659,-1667.7233)"
           id="g22219">
          <g
             transform="translate(-17.212158,37.417735)"
             id="g22221">
            <path
               inkscape:connector-curvature="0"
               id="path22223"
               transform="matrix(0.26458334,0,0,0.26458334,17.212152,-18.855242)"
               d="m 22610.062,3736.1875 c -12.493,1.5842 -57.553,2.8985 -74.343,3.4687 -21.251,0.7204 -145.872,0.5585 -219.375,-1.4687 0,0 -234.157,0.5313 -245.156,0.5313 -4.296,0 -16.079,-0.2786 -29.063,-0.5313 l -42.344,0 c -1.841,0.1342 -21.124,0.2967 -21.593,0.5313 -4,2 -41,5 -41,5 0,0 -146.301,-5.5313 -217.094,-5.5313 l -173.032,0 -37.281,28.875 0,12.5937 0,3.9376 0,12.5937 0.594,0.1563 c -0.2,0.4474 -0.379,0.8711 -0.594,1.3437 l 0,12.5937 0,34.0313 0,11.8437 0,0.75 0,11.8438 0,26.4062 0,2.625 2.5,10.4688 823.276,2.7273 c 25.283,0.5697 144.477,-1.135 144.318,-1.1648 l 242.469,0.4063 2.094,-14 -0.407,-24.1876 -0.06,-15.5 -0.09,-0.031 -0.06,-9.5312 0.09,-0.031 -0.25,-38.9687 -1.844,-8.8438 1.688,-5.7188 0,-0.031 -0.06,-12.375 0.06,-0.1875 0,-0.031 -0.06,-13.7187 -27.876,-28.875 -85.5,-2 z"
               style="color:#000000;fill:#ab8130;fill-opacity:1;fill-rule:nonzero;stroke:#3b2213;stroke-width:20.00576019;stroke-linejoin:round;stroke-miterlimit:4;stroke-opacity:1;stroke-dasharray:none;marker:none;visibility:visible;display:inline;overflow:visible;enable-background:accumulate"
               sodipodi:nodetypes="cccsccccsccccccccccccccccccccccccccccccccccc" />
            <path
               inkscape:connector-curvature="0"
               id="path22225"
               transform="matrix(0.26458334,0,0,0.26458334,17.212152,-18.855242)"
               d="m 22610.062,3748.8125 c -12.493,1.5842 -57.553,2.8673 -74.343,3.4375 -21.251,0.7203 -145.873,0.5896 -219.375,-1.4375 0,0 -234.156,0.5313 -245.156,0.5313 -4.295,0 -16.078,-0.2786 -29.063,-0.5313 l -42.344,0 c -1.841,0.1342 -21.124,0.2967 -21.593,0.5313 -4,2 -41,5 -41,5 0,0 -146.302,-5.5313 -217.094,-5.5313 l -173.032,0 -37.281,28.875 0,16.5313 5.157,1.3437 c 0.04,0.011 0.08,0.028 0.124,0.031 7.039,1.0686 21.888,3.3139 22.25,3.375 1.334,0.2226 2.24,0.38 2.594,0.4687 0.07,0.019 0.1,0.039 0.125,0.062 0.04,0.026 0.04,0.061 0,0.094 -0.07,0.1065 -0.427,0.2336 -0.969,0.4062 -0.325,0.1039 -0.687,0.2209 -1.156,0.3438 -0.587,0.1538 -24.962,4.6179 -26.781,4.9374 -0.426,0.978 -0.858,1.9645 -1.344,3.0313 l 0,46.625 13.375,5.5625 -13.375,6.2812 0,26 2.5,13.5 714.217,1.1876 119.354,2.9232 c 32.652,-0.4199 134.25,-2.5354 134.148,-2.5482 l 242.344,0.4062 2.094,-14.0312 -0.438,-27.0626 -12.688,-3.8124 -12.124,-0.1876 c -20.562,-0.1209 -14.063,-0.7812 -14.063,-0.7812 l 31.563,-1.5 7.25,-3.3125 -0.25,-38.9687 -3.376,-16.25 3.219,-10.9063 0,-0.031 -0.09,-13.7187 -27.876,-28.875 -85.5,-2 z"
               style="color:#000000;fill:#ab8130;fill-opacity:1;fill-rule:nonzero;stroke:none;stroke-width:12;marker:none;visibility:visible;display:inline;overflow:visible;enable-background:accumulate"
               sodipodi:nodetypes="cccsccccsccccccccccccccccccccccccccccccccccccc" />
            <path
               inkscape:connector-curvature="0"
               id="path22227"
               transform="matrix(0.26458334,0,0,0.26458334,17.212152,-18.855242)"
               d="m 22610.062,3736.2188 c -12.493,1.5841 -57.553,2.8673 -74.343,3.4374 -21.251,0.7204 -145.873,0.5897 -219.375,-1.4374 0,0 -234.156,0.5312 -245.156,0.5312 -4.295,0 -16.078,-0.2786 -29.063,-0.5312 l -42.344,0 c -1.841,0.1341 -21.124,0.2967 -21.593,0.5312 -4,2 -41,5 -41,5 0,0 -146.302,-5.5312 -217.094,-5.5312 l -173.032,0 -37.281,28.875 0,16.5312 5.157,1.3438 c 0.04,0.011 0.08,0.027 0.124,0.031 7.039,1.0687 21.888,3.314 22.25,3.375 1.334,0.2226 2.24,0.38 2.594,0.4688 0.07,0.019 0.1,0.039 0.125,0.062 0.04,0.026 0.04,0.061 0,0.094 -0.07,0.1066 -0.427,0.2336 -0.969,0.4062 -0.325,0.104 -0.687,0.221 -1.156,0.3438 -0.587,0.1538 -24.962,4.6179 -26.781,4.9375 -0.426,0.9779 -0.858,1.9644 -1.344,3.0313 l 0,46.625 13.375,5.5624 -13.375,6.2813 0,38.9687 758.844,0 74.736,2.767 c 26.511,-0.095 145.701,-2.767 145.701,-2.767 l 235.063,0 -0.125,-38.5937 -12.688,-3.8125 -12.124,-0.1875 c -20.562,-0.1209 -14.063,-0.7813 -14.063,-0.7813 l 31.563,-1.5 7.25,-3.3124 -0.25,-38.9688 -3.376,-16.25 3.219,-10.9062 0,-0.031 -0.09,-13.7187 -27.876,-28.875 -85.5,-2 z"
               style="color:#000000;fill:#ceb254;fill-opacity:1;fill-rule:nonzero;stroke:none;stroke-width:12;marker:none;visibility:visible;display:inline;overflow:visible;enable-background:accumulate"
               sodipodi:nodetypes="cccsccscsccccccccccccccccccccccccccccccccccc" />
            <path
               inkscape:connector-curvature="0"
               id="path22229"
               transform="matrix(0.26458334,0,0,0.26458334,17.212152,-18.855242)"
               d="m 22210.438,3740.4375 c -3.758,0.01 -4.058,0.024 -7.876,0.031 -14.337,6.1475 -26.168,12.6892 -37.156,19.5 -25.91,16.0607 -47.151,33.4947 -86.594,50.75 -9.519,4.165 -25.119,6.1843 -45.124,6.4374 -20.009,0.2533 -44.449,-1.2392 -71.813,-3.8437 -54.729,-5.2093 -121.204,-14.9113 -187.813,-24.2813 -66.603,-9.3702 -133.345,-18.3811 -188.656,-22.1874 -26.77,-1.8422 -50.832,-2.5207 -70.968,-1.375 l -4.407,3.4062 c 20.797,-1.5468 46.434,-1.041 75.188,0.9375 55.152,3.7954 121.842,12.8188 188.437,22.1875 66.595,9.3683 133.087,19.0918 187.938,24.3125 27.425,2.6105 51.939,4.0994 72.125,3.8437 20.185,-0.2532 36.002,-2.2218 46.281,-6.7187 39.756,-17.3934 61.292,-34.9704 87,-50.9063 12.563,-7.7874 26.165,-15.2231 43.438,-22.0937 z m -38.719,0.094 c -3.255,0.01 -3.623,0.024 -6.813,0.031 -50.478,25.4124 -87.027,48.3132 -114.5,48.8125 -77.514,1.4094 -193.869,-17.3017 -306.156,-31.625 -71.895,-9.1709 -142.077,-16.5659 -199.594,-15.6562 l -4.031,3.125 c 57.905,-1.3112 129.711,6.1192 203.25,15.5 112.219,14.3142 228.511,33.075 306.563,31.6562 30.091,-0.5474 68.16,-25.3942 121.281,-51.8438 z m 161.125,0.063 c -38.842,5.8378 -71.732,12.8136 -97.938,20.1874 -20.478,5.7624 -36.854,11.7728 -48.875,17.7188 -12.02,5.946 -19.736,11.7202 -22.719,17.6562 -1.489,2.9683 -1.693,6.1023 -0.406,8.9063 1.288,2.804 3.898,5.2133 7.688,7.3437 7.578,4.2613 20.078,7.5231 38.031,9.6563 71.739,8.5236 171.124,-3.2069 263.781,-16.4687 92.658,-13.2621 178.689,-28.0698 222.813,-25.9688 10.568,0.5032 19.871,1.0333 28.219,1.5312 l 0.09,-0.3124 0,-0.031 -0.03,-2.6875 c -8.33,-0.4944 -17.596,-0.9987 -28.125,-1.5 -44.971,-2.1415 -130.771,12.746 -223.375,26 -92.604,13.2544 -191.904,24.8847 -263,16.4375 -17.756,-2.1094 -30.031,-5.3995 -36.938,-9.2813 -3.451,-1.941 -5.496,-3.9871 -6.406,-5.9687 -0.909,-1.9812 -0.84,-3.9552 0.344,-6.3125 2.367,-4.715 9.576,-10.4916 21.344,-16.3125 11.767,-5.8205 28.017,-11.8033 48.375,-17.5313 30.055,-8.4572 69.084,-16.3948 115.875,-22.6874 -6.399,-0.1127 -12.739,-0.2428 -18.75,-0.375 z m 98.562,1.2812 c -75.13,6.6445 -128.822,16.6326 -162.75,26.6562 -13.844,4.0904 -24.401,8.1767 -31.844,12.0938 -7.438,3.9171 -11.901,7.5187 -13.218,11.4688 -0.659,1.9748 -0.302,4.0913 0.937,5.75 1.24,1.6587 3.212,2.9559 5.844,4.0312 5.264,2.1509 13.28,3.4653 24.125,3.9062 43.317,1.7634 114.052,-9.038 193.5,-20.3437 79.448,-11.3057 167.55,-23.1162 245.188,-23.4687 8.248,-0.038 16.005,-0.049 23.312,-0.063 l -2.875,-3 c -6.517,0.015 -13.224,0.03 -20.469,0.063 -77.929,0.3552 -166.127,12.1915 -245.594,23.5 -79.463,11.3078 -150.254,22.0496 -192.937,20.3124 -10.655,-0.4335 -18.464,-1.7833 -23.125,-3.6874 -2.331,-0.9526 -3.821,-2.0377 -4.562,-3.0313 -0.745,-0.9933 -0.898,-1.8117 -0.5,-3 0.79,-2.3769 4.614,-6.0088 11.781,-9.7813 7.165,-3.7722 17.562,-7.8213 31.281,-11.875 38.82,-11.4696 104.168,-22.995 198.5,-29.375 -11.568,-0.023 -23.812,-0.077 -36.594,-0.1562 z m -893.375,48.625 c 0.788,0.1346 1.619,0.2795 1.875,0.3438 0.07,0.019 0.1,0.039 0.125,0.062 0.04,0.026 0.04,0.061 0,0.094 -0.07,0.1066 -0.427,0.2336 -0.969,0.4062 -0.325,0.104 -0.687,0.221 -1.156,0.3438 -0.189,0.049 -4.74,0.8764 -8.281,1.5312 334.995,8.3138 625.151,71.2188 790.906,71.2188 127.482,0 214.566,-18.585 283.813,-33.3438 45.339,-9.6628 82.983,-17.6715 119.375,-17.8124 l -0.03,-3 c -36.778,0.1436 -74.655,8.217 -119.969,17.875 -69.248,14.759 -155.996,33.2812 -283.188,33.2812 -163.625,0 -450.665,-61.8649 -782.5,-71 z m 13.625,40.0312 c -14.587,0.05 -28.567,0.3617 -41.875,0.9376 l 0,3.0312 c 18.045,-0.8068 37.354,-1.1054 57.719,-0.9375 85.69,0.7064 189.876,9.3666 295.031,21.0313 109.716,12.17 219.494,27.4791 311.438,40.5624 l 21.437,0 c -95.821,-13.669 -214.343,-30.4491 -332.562,-43.5624 -105.209,-11.6706 -209.441,-20.3234 -295.313,-21.0313 -5.367,-0.044 -10.656,-0.05 -15.875,-0.031 z m -2.281,19.6876 c -2.867,-0.011 -5.692,-9e-4 -8.469,0.031 -6.982,0.083 -13.646,0.3308 -20,0.7188 l 2.25,0.9374 -4.937,2.3126 c 16.98,-1.2182 36.618,-1.2554 57.937,-0.3438 49.494,2.1177 108.127,9.1757 164.313,17.6562 50.4,7.6078 98.586,16.3065 136.593,23.625 l 15.594,0 c -39.902,-7.8385 -94.393,-17.9092 -151.718,-26.5624 -56.248,-8.49 -114.979,-15.5936 -164.657,-17.7188 -9.314,-0.3985 -18.306,-0.6236 -26.906,-0.6562 z m 1163.813,5.0937 c -11.358,1.1429 -25.253,3.0769 -42.188,6.1875 -31.899,5.8591 -75.036,20.5384 -123.188,33.6562 l 11.157,0 c 44.065,-12.3408 83.345,-25.3214 112.562,-30.6874 20.815,-3.823 36.98,-5.8359 49.438,-6.8126 l -7.781,-2.3437 z"
               style="opacity:0.5;color:#000000;fill:#f6de78;fill-opacity:1;fill-rule:nonzero;stroke:none;stroke-width:12;marker:none;visibility:visible;display:inline;overflow:visible;enable-background:accumulate" />
            <path
               style="color:#000000;fill:#f6de78;fill-opacity:1;fill-rule:nonzero;stroke:none;stroke-width:12;marker:none;visibility:visible;display:inline;overflow:visible;enable-background:accumulate"
               d="m 17125.625,1638.625 c -44.54,-0.041 -82.422,0.095 -91.437,0.625 -24.042,1.4142 -74.927,2.8277 -110.282,5.6562 -12.716,1.0173 -36.718,2.0206 -67.344,2.9063 l 142.626,5.2813 c 54.294,-0.1943 298.374,-5.6563 298.374,-5.6563 l 130.563,0 c 5.501,-2.0788 9.343,-3.5414 10.531,-3.9375 8.486,-2.8285 -24.036,-4.2347 -39.594,-1.4062 -15.556,2.8285 -83.42,-2.8438 -97.562,-2.8438 -8.839,0 -101.642,-0.5559 -175.875,-0.625 z"
               transform="matrix(0.12919139,0,0,0.12942075,3732.7466,798.5254)"
               id="path22231"
               inkscape:connector-curvature="0" />
            <path
               inkscape:connector-curvature="0"
               id="path22233"
               transform="matrix(0.26458334,0,0,0.26458334,17.212152,-18.855242)"
               d="m 22210.438,3738.4375 c -3.758,0.01 -4.058,0.023 -7.876,0.031 -14.337,6.1476 -26.168,12.6893 -37.156,19.5 -25.91,16.0607 -47.152,33.4948 -86.594,50.75 -9.519,4.165 -25.119,6.1842 -45.124,6.4374 -20.009,0.2534 -44.449,-1.2392 -71.813,-3.8437 -54.729,-5.2093 -121.205,-14.9113 -187.813,-24.2813 -66.604,-9.3702 -133.345,-18.3811 -188.656,-22.1874 -26.77,-1.8421 -50.831,-2.5206 -70.968,-1.375 l -4.407,3.4062 c 20.797,-1.5468 46.434,-1.041 75.188,0.9375 55.152,3.7954 121.842,12.8188 188.437,22.1875 66.595,9.3683 133.087,19.0918 187.938,24.3125 27.425,2.6105 51.939,4.0993 72.125,3.8437 20.185,-0.2532 36.002,-2.2218 46.281,-6.7187 39.756,-17.3934 61.292,-34.9705 87,-50.9063 12.563,-7.7874 26.166,-15.2231 43.438,-22.0937 z m -38.719,0.094 c -3.255,0.01 -3.623,0.024 -6.813,0.031 -50.478,25.4124 -87.027,48.3132 -114.5,48.8125 -77.514,1.4094 -193.869,-17.3017 -306.156,-31.625 -71.895,-9.1709 -142.077,-16.5659 -199.594,-15.6562 l -4.031,3.125 c 57.905,-1.3112 129.711,6.1193 203.25,15.5 112.219,14.3142 228.512,33.075 306.563,31.6562 30.092,-0.5474 68.16,-25.3942 121.281,-51.8438 z m 161.125,0.063 c -38.842,5.8379 -71.732,12.8136 -97.938,20.1874 -20.478,5.7624 -36.854,11.7728 -48.875,17.7188 -12.02,5.946 -19.737,11.7201 -22.719,17.6562 -1.489,2.9682 -1.693,6.1023 -0.406,8.9063 1.288,2.804 3.898,5.2132 7.688,7.3437 7.579,4.2612 20.078,7.5231 38.031,9.6563 71.739,8.5236 171.124,-3.2068 263.781,-16.4687 92.658,-13.2621 178.689,-28.0698 222.813,-25.9688 10.605,0.505 19.942,1.0317 28.312,1.5312 l -0.03,-3.0312 c -8.33,-0.4944 -17.596,-0.9987 -28.125,-1.5 -44.971,-2.1415 -130.771,12.746 -223.375,26 -92.604,13.2544 -191.904,24.8847 -263,16.4375 -17.756,-2.1094 -30.031,-5.3996 -36.938,-9.2813 -3.451,-1.9411 -5.496,-3.9871 -6.406,-5.9687 -0.91,-1.9812 -0.84,-3.9552 0.344,-6.3125 2.367,-4.715 9.576,-10.4916 21.344,-16.3125 11.767,-5.8205 28.018,-11.8033 48.375,-17.5313 30.055,-8.4573 69.084,-16.3947 115.875,-22.6874 -6.399,-0.1126 -12.739,-0.2425 -18.75,-0.375 z m 98.562,1.2812 c -75.13,6.6445 -128.823,16.6326 -162.75,26.6562 -13.844,4.0904 -24.402,8.1767 -31.844,12.0938 -7.439,3.9171 -11.901,7.5187 -13.218,11.4688 -0.659,1.9748 -0.302,4.0914 0.937,5.75 1.24,1.6588 3.212,2.9559 5.844,4.0312 5.264,2.1509 13.28,3.4652 24.125,3.9062 43.317,1.7633 114.052,-9.038 193.5,-20.3437 79.448,-11.3057 167.55,-23.1161 245.188,-23.4687 8.248,-0.037 16.005,-0.049 23.312,-0.063 l -2.875,-3 c -6.517,0.015 -13.224,0.03 -20.469,0.063 -77.929,0.3552 -166.128,12.1915 -245.594,23.5 -79.463,11.3079 -150.254,22.0496 -192.937,20.3124 -10.655,-0.4335 -18.464,-1.7833 -23.125,-3.6874 -2.331,-0.9526 -3.821,-2.0377 -4.562,-3.0313 -0.745,-0.9933 -0.898,-1.8117 -0.5,-3 0.791,-2.3769 4.614,-6.0088 11.781,-9.7813 7.165,-3.7723 17.562,-7.8213 31.281,-11.875 38.82,-11.4697 104.168,-22.9951 198.5,-29.375 -11.568,-0.023 -23.812,-0.077 -36.594,-0.1562 z m -893.375,48.625 c 0.787,0.1347 1.619,0.2796 1.875,0.3438 0.07,0.019 0.1,0.039 0.125,0.062 0.04,0.026 0.04,0.061 0,0.094 -0.07,0.1066 -0.427,0.2336 -0.969,0.4062 -0.325,0.104 -0.687,0.221 -1.156,0.3438 -0.188,0.049 -4.74,0.8764 -8.281,1.5312 334.995,8.3138 625.151,71.2188 790.906,71.2188 127.482,0 214.566,-18.585 283.813,-33.3438 45.339,-9.6629 82.983,-17.6715 119.375,-17.8124 l -0.03,-3 c -36.777,0.1436 -74.655,8.217 -119.969,17.875 -69.248,14.759 -155.996,33.2812 -283.188,33.2812 -163.625,0 -450.665,-61.8649 -782.5,-71 z m 13.625,40.0312 c -14.587,0.05 -28.567,0.3616 -41.875,0.9376 l 0,3.0312 c 18.045,-0.8068 37.354,-1.1054 57.719,-0.9375 85.69,0.7064 189.876,9.3668 295.031,21.0313 115.277,12.7871 230.869,29.0708 325.5,42.5624 l 21.407,0 c -98.071,-13.9942 -222.649,-31.814 -346.594,-45.5624 -105.209,-11.6706 -209.441,-20.3234 -295.313,-21.0313 -5.367,-0.044 -10.656,-0.049 -15.875,-0.031 z m -2.281,19.6876 c -2.867,-0.011 -5.692,0 -8.469,0.031 -6.982,0.083 -13.646,0.3309 -20,0.7188 l 2.25,0.9374 -4.937,2.3126 c 16.98,-1.2184 36.618,-1.2558 57.937,-0.3438 49.494,2.1177 108.128,9.1757 164.313,17.6562 55.038,8.3077 107.578,17.9373 146.937,25.625 l 15.406,0 c -40.474,-8.0601 -99.619,-19.1652 -161.874,-28.5624 -56.248,-8.4901 -114.979,-15.5936 -164.657,-17.7188 -9.314,-0.3986 -18.306,-0.6235 -26.906,-0.6562 z m 1163.813,5.0937 c -11.357,1.143 -25.253,3.077 -42.188,6.1875 -33.535,6.1593 -79.48,22.0625 -130.625,35.6562 l 11.406,0 c 46.98,-12.9096 88.952,-27.0309 119.75,-32.6874 20.815,-3.8232 36.98,-5.836 49.438,-6.8126 l -7.781,-2.3437 z"
               style="color:#000000;fill:#caab43;fill-opacity:1;fill-rule:nonzero;stroke:none;stroke-width:12;marker:none;visibility:visible;display:inline;overflow:visible;enable-background:accumulate" />
            <path
               inkscape:connector-curvature="0"
               id="path22235"
               transform="matrix(0.26458334,0,0,0.26458334,17.212152,-18.855242)"
               d="m 22610.062,3736.2188 c -12.493,1.5841 -57.553,2.8673 -74.343,3.4374 -21.251,0.7205 -145.873,0.5897 -219.375,-1.4374 0,0 -234.156,0.5312 -245.156,0.5312 -4.296,0 -16.078,-0.2786 -29.063,-0.5312 l -42.344,0 c -1.841,0.1341 -21.124,0.2967 -21.593,0.5312 -4.001,2 -41,5 -41,5 0,0 -146.302,-5.5312 -217.094,-5.5312 l -173.032,0 -37.281,28.875 0,16.5312 5.157,1.3438 c 0.04,0.011 0.08,0.027 0.124,0.031 7.04,1.0687 21.888,3.314 22.25,3.375 1.335,0.2226 2.24,0.3799 2.594,0.4688 0.07,0.019 0.1,0.039 0.125,0.062 0.04,0.027 0.04,0.061 0,0.094 -0.07,0.1066 -0.426,0.2336 -0.969,0.4062 -0.325,0.1041 -0.687,0.221 -1.156,0.3438 -0.587,0.1538 -24.962,4.6179 -26.781,4.9375 -0.426,0.9779 -0.858,1.9643 -1.344,3.0313 l 0,46.625 13.375,5.5624 -13.375,6.2813 0,38.9687 83.281,0 c 5.417,-0.6218 8.523,-1.1316 7.626,-1.2812 -4.245,-0.7071 -86.25,-3.9062 -86.25,-3.9062 0,0 -1.073,-21.9216 -0.719,-24.75 0.353,-2.8287 -1.06,-5.2831 1.062,-6.3438 2.121,-1.0607 25.461,-10.2714 21.219,-10.625 -4.243,-0.3536 -23.677,-5.3044 -24.031,-6.7188 -0.353,-1.4142 1.043,-36.4117 1.75,-39.5937 0.707,-3.182 38.535,-11.6698 35,-13.4375 -3.536,-1.7678 -21.574,-3.1616 -22.281,-6.3438 -0.709,-3.182 -7.072,-8.1403 -6.719,-10.9687 0.354,-2.8285 7.071,-3.8762 12.375,-10.5937 5.303,-6.7178 16.633,-14.8572 20.875,-16.625 4.243,-1.7679 334.1,5.2963 344,8.125 9.899,2.8284 60.121,-0.6992 63.656,-1.4063 3.536,-0.7071 15.541,-2.8437 27.563,-2.8437 12.021,0 380.424,-4.2231 391.031,-0.6876 10.606,3.5358 163.781,-3.7812 175.781,-2.7812 12,1 48,-6 53,-7 5,-1 55.483,1.9804 63.969,2.6875 8.485,0.7071 19.431,6.3866 21.906,7.0937 2.475,0.7073 19.117,13.4197 20.531,15.1876 1.414,1.7678 5.301,9.5661 4.594,11.6874 -0.707,2.1215 1.393,10.9492 -1.438,11.6563 -2.828,0.7072 -9.531,10.5937 -9.531,10.5937 0,0 6.359,1.0619 9.188,6.7188 2.828,5.6568 3.885,11.6635 3.531,15.9062 -0.353,4.2428 1.062,23 1.062,23 l -5.656,5.6563 -39.937,4.5937 8,-0.125 c -0.323,-0.1521 0.906,-0.25 0.906,-0.25 l 31.563,-1.5 7.25,-3.3124 -0.25,-38.9688 -3.376,-16.25 3.219,-10.9062 0,-0.031 -0.09,-13.7187 -27.876,-28.875 -85.5,-2 z m 97.469,116.4687 c 3.789,1.282 14.243,5.5809 13.938,6.3437 -0.353,0.8841 1.238,30.4285 0,31.3126 -1.237,0.8838 -57.447,4.417 -56.031,4.5937 0.05,0.01 0.186,0.087 0.406,0.2187 l 58.281,0 -0.125,-38.5937 -12.688,-3.8125 -3.781,-0.062 z"
               style="color:#000000;fill:#f6de78;fill-opacity:1;fill-rule:nonzero;stroke:none;stroke-width:12;marker:none;visibility:visible;display:inline;overflow:visible;enable-background:accumulate"
               sodipodi:nodetypes="cccsccccsccccccccccccccccccccccccscccccscscssscccccccccccccccccccccccccccccccc" />
            <path
               inkscape:connector-curvature="0"
               id="path22237"
               transform="matrix(0.26458334,0,0,0.26458334,17.212152,-18.855242)"
               d="m 21994.125,3885.5 c -1.776,0.024 -3.061,0.1174 -3.813,0.25 -12.021,2.1213 -66.454,2.1017 -82.718,0.6875 -16.263,-1.4142 -171.839,4.2616 -181.032,4.9687 -7.061,0.5433 -27.807,2.3058 -46.062,3.75 l 501.375,0 c -10.045,-1.0555 -18.185,-1.6133 -20.437,-0.9374 -6.63,1.9888 -140.68,-9.0762 -167.313,-8.7188 z"
               style="color:#000000;fill:#f6de78;fill-opacity:1;fill-rule:nonzero;stroke:none;stroke-width:12;marker:none;visibility:visible;display:inline;overflow:visible;enable-background:accumulate" />
          </g>
          <path
             transform="matrix(0.26458334,0,0,0.26458334,-6.3049604e-6,18.562493)"
             inkscape:connector-curvature="0"
             id="path22239"
             d="m 21507.5,3783.8622 c 2.75,0.5 27.25,4.75 29.75,5 2.5,0.25 -28.75,-9.25 -29.5,-8.25 -0.75,1 -0.25,3.25 -0.25,3.25 z"
             style="color:#000000;fill:#3b2213;fill-opacity:1;fill-rule:nonzero;stroke:none;stroke-width:3;marker:none;visibility:visible;display:inline;overflow:visible;enable-background:accumulate" />
          <path
             transform="matrix(0.26458334,0,0,0.26458334,-6.3049604e-6,18.562493)"
             inkscape:connector-curvature="0"
             id="path22241"
             d="m 21508.5,3801.1122 c 1,-3.25 2.25,-5.75 2.25,-5.75 0,0 17.5,-4 16,-3.75 -1.5,0.25 -19.5,0.5 -19.5,1.75 0,1.25 1.25,7.75 1.25,7.75 z"
             style="color:#000000;fill:#3b2213;fill-opacity:1;fill-rule:nonzero;stroke:none;stroke-width:3;marker:none;visibility:visible;display:inline;overflow:visible;enable-background:accumulate" />
          <path
             transform="matrix(0.26458334,0,0,0.26458334,-6.3049604e-6,18.562493)"
             inkscape:connector-curvature="0"
             id="path22243"
             d="m 21506.75,3846.3622 c 3.75,1 13.25,2 13.25,2 l -12.75,-7 z"
             style="color:#000000;fill:#3b2213;fill-opacity:1;fill-rule:nonzero;stroke:none;stroke-width:3;marker:none;visibility:visible;display:inline;overflow:visible;enable-background:accumulate" />
          <path
             transform="matrix(0.26458334,0,0,0.26458334,-6.3049604e-6,18.562493)"
             inkscape:connector-curvature="0"
             id="path22245"
             d="m 21718.078,3895.6386 c 26.87,-4.2427 241.123,-5.6569 251.73,-4.9498 10.606,0.7071 141.421,4.9498 141.421,4.9498 0,0 -321.026,8.4852 -335.169,8.4852 -14.142,0 -57.982,-8.4852 -57.982,-8.4852 z"
             style="color:#000000;fill:#caab43;fill-opacity:1;fill-rule:nonzero;stroke:none;stroke-width:3;marker:none;visibility:visible;display:inline;overflow:visible;enable-background:accumulate" />
        </g>
        <g
           id="g22247"
           transform="translate(187.25824,20.050569)">
          <g
             transform="matrix(1.0011319,0,0,1,-5.3249325,-67.351922)"
             id="g22249">
            <g
               id="g22251"
               transform="translate(-0.74835469,8.2319017)">
              <path
                 sodipodi:nodetypes="cccccccccccccccccccccccccccc"
                 id="path22253"
                 transform="matrix(0.2642842,0,0,0.26458334,6.0672604,77.682513)"
                 d="m 17337.75,1684.9428 -1002.756,15.9946 -473.994,20.7965 -114.125,-0.2812 -448.969,-51.4839 c 0,0 -3.36,9.7492 -3.094,23.75 0.517,27.1484 1.359,70.2191 1.813,88.75 -0.07,1.0011 -0.152,1.8811 -0.25,2.4687 -0.533,3.1927 -0.19,9.9631 0.563,18.125 0.02,7.5169 -0.145,13.3659 -0.563,15.875 -1.383,8.2864 2.928,40.0958 5.75,59.1875 l -9.781,82.8125 1.031,34 11,32 1333.5,2 134.156,0 991.125,-2 14,-34 1.688,-35.5 0.844,-183.6875 c -14.661,-6.1067 -30.972,-12.8031 -35.688,-14.375 -5.591,-1.8638 15.049,-10.6983 35.812,-15.9062 l 0.188,-40.5626 -2.844,-30.9374 -197.218,19.0677 -27.282,6.9687 -43.781,-7.0312 z"
                 style="color:#000000;fill:#ab8130;fill-opacity:1;fill-rule:nonzero;stroke:#3b2213;stroke-width:40.93537903;stroke-linejoin:round;stroke-miterlimit:4;stroke-opacity:1;stroke-dasharray:none;marker:none;visibility:visible;display:inline;overflow:visible;enable-background:accumulate"
                 inkscape:connector-curvature="0" />
              <g
                 transform="translate(0,21.166667)"
                 id="g22255">
                <path
                   transform="matrix(0.2642842,0,0,0.26458334,-180.97926,36.465277)"
                   id="path22257"
                   d="m 16006.25,2023.125 c 15.284,-1.7062 30.329,-3.4019 44.125,-5.0625 15.026,-1.8087 28.775,-3.5964 40.344,-5.3437 5.784,-0.8737 11.036,-1.7369 15.625,-2.5938 4.589,-0.8569 8.514,-1.692 11.687,-2.5312 3.173,-0.8393 5.589,-1.6795 7.125,-2.5 0.769,-0.4103 1.307,-0.8133 1.625,-1.2188 0.318,-0.4055 0.41,-0.8182 0.25,-1.2188 -0.641,-1.602 -2.036,-4.2868 -4.031,-7.7812 -1.995,-3.4944 -4.603,-7.8101 -7.656,-12.6562 -3.054,-4.8462 -6.558,-10.2179 -10.375,-15.875 -3.817,-5.6572 -7.934,-11.6038 -12.219,-17.5313 -4.285,-5.9275 -8.73,-11.8428 -13.188,-17.5 -4.457,-5.6572 -8.914,-11.0289 -13.25,-15.875 -2.167,-2.4231 -4.324,-4.7248 -6.406,-6.8437 -2.081,-2.119 -4.104,-4.0653 -6.062,-5.8126 -1.959,-1.7472 -3.827,-3.2858 -5.625,-4.5937 -1.799,-1.3079 -3.523,-2.3865 -5.125,-3.1875 -1.252,-0.6258 -2.402,-1.3274 -3.438,-2.0938 -1.036,-0.7663 -1.959,-1.5859 -2.812,-2.4687 -0.853,-0.8828 -1.609,-1.8375 -2.313,-2.8125 -0.703,-0.975 -1.351,-1.9881 -1.937,-3.0312 -1.174,-2.0863 -2.159,-4.2862 -3.063,-6.5 -0.904,-2.2139 -1.726,-4.4457 -2.625,-6.5938 -0.898,-2.1481 -1.875,-4.2046 -3.031,-6.0938 -0.578,-0.9445 -1.183,-1.8438 -1.875,-2.6874 -0.692,-0.8437 -1.473,-1.6253 -2.312,-2.3438 -0.84,-0.7185 -1.731,-1.3683 -2.75,-1.9375 -1.02,-0.5692 -2.144,-1.073 -3.376,-1.4687 -1.231,-0.3958 -2.584,-0.6768 -4.062,-0.875 -1.478,-0.1983 -3.087,-0.3048 -4.844,-0.2813 -0.133,0 -0.303,0.028 -0.437,0.031 0.451,17.6663 0.686,34.1711 -0.09,38.8437 -2.002,12 8,74 8,74 l -5.875,54.4375 z"
                   style="color:#000000;fill:#ab8130;fill-opacity:1;fill-rule:nonzero;stroke:none;stroke-width:13.77000046;marker:none;visibility:visible;display:inline;overflow:visible;enable-background:accumulate"
                   inkscape:connector-curvature="0" />
                <path
                   transform="matrix(0.2642842,0,0,0.26458334,-180.97926,36.465277)"
                   id="path22259"
                   d="m 18351.031,1773.6875 -2348.937,23 c 0,0 1.418,31.4529 2.125,59.1563 0.134,0 0.304,-0.03 0.437,-0.031 1.757,-0.024 3.366,0.083 4.844,0.2813 1.478,0.1982 2.831,0.4792 4.062,0.875 1.232,0.3957 2.356,0.8995 3.376,1.4687 1.019,0.5692 1.91,1.219 2.75,1.9375 0.839,0.7185 1.62,1.5001 2.312,2.3438 0.692,0.8436 1.297,1.7429 1.875,2.6874 1.156,1.8892 2.133,3.9457 3.031,6.0938 0.899,2.1481 1.721,4.3799 2.625,6.5938 0.904,2.2138 1.889,4.4137 3.063,6.5 0.586,1.0431 1.234,2.0562 1.937,3.0312 0.704,0.975 1.46,1.9297 2.313,2.8125 0.853,0.8828 1.776,1.7024 2.812,2.4687 1.036,0.7664 2.186,1.468 3.438,2.0938 1.602,0.801 3.326,1.8796 5.125,3.1875 1.798,1.3079 3.666,2.8465 5.625,4.5937 1.958,1.7473 3.981,3.6936 6.062,5.8126 2.082,2.1189 4.239,4.4206 6.406,6.8437 4.336,4.8461 8.793,10.2178 13.25,15.875 4.458,5.6572 8.903,11.5725 13.188,17.5 4.285,5.9275 8.402,11.8741 12.219,17.5313 3.817,5.6571 7.321,11.0288 10.375,15.875 3.053,4.8461 5.661,9.1618 7.656,12.6562 1.995,3.4944 3.39,6.1792 4.031,7.7812 0.16,0.4006 0.07,0.8133 -0.25,1.2188 -0.318,0.4055 -0.856,0.8085 -1.625,1.2188 -1.536,0.8205 -3.952,1.6607 -7.125,2.5 -3.173,0.8392 -7.098,1.6743 -11.687,2.5312 -4.589,0.8569 -9.841,1.7201 -15.625,2.5938 -11.569,1.7473 -25.318,3.535 -40.344,5.3437 -13.796,1.6606 -28.841,3.3563 -44.125,5.0625 l -5.156,47.5625 11.031,32 1333.5,2 134.156,0 991.125,-2 14,-34 -17,-167.0937 c -1.913,-1.2156 -3.467,-2.1696 -5.406,-3.4063 -15.268,-9.7363 -31.297,-20.0742 -47.156,-30.4063 -31.719,-20.664 -62.79,-41.2695 -85.938,-56.6874 -23.148,-15.418 -38.375,-25.6563 -38.375,-25.6563 l 60,-11.75 z"
                   style="color:#000000;fill:#caab43;fill-opacity:1;fill-rule:nonzero;stroke:none;stroke-width:13.77000046;marker:none;visibility:visible;display:inline;overflow:visible;enable-background:accumulate"
                   inkscape:connector-curvature="0" />
                <path
                   transform="matrix(0.2642842,0,0,0.26458334,-180.97926,36.465277)"
                   id="path22261"
                   d="m 18351.031,1773.6875 -60,11.75 c 0,0 15.227,10.2383 38.375,25.6563 23.148,15.4179 54.219,36.0234 85.938,56.6874 15.859,10.3321 31.888,20.67 47.156,30.4063 1.939,1.2367 3.493,2.1907 5.406,3.4063 l -4,-39.4376 25,-42.4687 -14.125,-47.2187 -123.75,1.2187 z"
                   style="color:#000000;fill:#ab8130;fill-opacity:1;fill-rule:nonzero;stroke:none;stroke-width:13.77000046;marker:none;visibility:visible;display:inline;overflow:visible;enable-background:accumulate"
                   inkscape:connector-curvature="0" />
                <path
                   id="path22263"
                   transform="matrix(0.2642842,0,0,0.26458334,6.0672604,56.515846)"
                   d="m 17337.781,1665.7188 -1476.781,0.9062 -114.125,-0.2812 -446.844,3.5937 c 0,0 -5.14,13.6078 -4.562,31.5 1.011,31.3377 2.181,75.8301 0.906,83.4687 -1.144,6.8558 1.627,30.0459 4.219,48.6563 1.944,13.9643 20.781,29.3437 20.781,29.3437 l -21.063,30.5938 -7.968,67.4062 1.031,34 1344.5,2 134.156,0 1005.125,-4 1.688,-35.4687 0.844,-183.6875 c -14.661,-6.1067 -30.972,-12.8031 -35.688,-14.375 -5.591,-1.8638 15.049,-10.6983 35.812,-15.9062 l 0.188,-40.5626 -2.844,-30.9687 -197.218,-0.1563 -27.282,7 -43.781,-7.0312 -171.094,-6.0312 z"
                   style="color:#000000;fill:#ceb254;fill-opacity:1;fill-rule:nonzero;stroke:none;stroke-width:13.77000046;marker:none;visibility:visible;display:inline;overflow:visible;enable-background:accumulate"
                   inkscape:connector-curvature="0" />
                <g
                   name="grain"
                   class="switchable"
                   id="g22265">
                  <path
                     inkscape:connector-curvature="0"
                     style="opacity:0.5;color:#000000;fill:#f6de78;fill-opacity:1;fill-rule:nonzero;stroke:none;stroke-width:13.77000046;marker:none;visibility:visible;display:inline;overflow:visible;enable-background:accumulate"
                     d="m 16873.781,1703.0625 c -404.488,-0.1308 -931.625,10.8013 -1576.937,53.4687 0.03,2.0405 0.05,4.132 0.06,6.0313 764.383,-50.5522 1362.877,-56.587 1788.188,-52.4375 217.407,2.1209 389.563,6.921 515.531,9.75 77.252,1.7347 136.922,2.764 179.281,1.9688 l 0.03,-6.0626 c -42.131,0.7845 -101.983,-0.1724 -179.188,-1.9062 -125.939,-2.8284 -298.13,-7.6285 -515.594,-9.75 -54.365,-0.5306 -111.583,-0.8731 -171.594,-1 -13.126,-0.026 -26.385,-0.058 -39.781,-0.062 z m 888.157,45.7813 c -830.234,3.2783 -1105.123,73.666 -2464.813,56.25 0.191,1.9496 0.396,3.973 0.625,6.0312 1351.317,17.2831 1631.182,-52.2137 2449.688,-56.25 3.393,-1.8217 8.537,-3.9428 14.5,-6.0312 z m -12.782,20.8124 c -338.226,-0.756 -910.252,107.0484 -1435.094,160.0626 -361.987,36.5643 -774.684,44.7411 -1021.281,45.9687 l 0.188,6 c 246.715,-1.2286 659.451,-9.4103 1021.687,-46 539.826,-54.5277 1129.574,-166.696 1462,-159.6563 -5.238,-2.1768 -10.41,-4.3066 -15.25,-6.2812 -4.06,-0.043 -8.119,-0.085 -12.25,-0.094 z m -44.937,55.9063 c -6.821,0.023 -13.754,0.085 -20.813,0.1875 -94.114,1.3695 -209.389,10.2752 -345.656,33.2812 -217.593,36.7365 -672.279,91.2113 -1103.562,132.2188 -17.732,1.6859 -35.403,3.3355 -53.032,4.9688 l 62.969,0.094 c 428.586,-40.9114 878.217,-94.8073 1094.625,-131.3437 186.576,-31.4999 333.582,-36.4918 440.656,-31.9376 l 0.03,-6 c -23.235,-0.9841 -48.265,-1.5514 -75.219,-1.4687 z m -2309.094,8 c -32.575,0 -64.114,0.6518 -94.156,1.875 0.476,1.9778 1.236,3.9802 2.219,5.9375 29.363,-1.1707 60.16,-1.8125 91.937,-1.8125 100.026,0 270.603,6.1825 416.063,16.1563 72.729,4.9869 139.187,10.9199 187.374,17.5 24.097,3.2899 43.629,6.7521 56.969,10.2812 6.671,1.7644 11.838,3.5486 15.063,5.2188 1.612,0.8351 2.708,1.6633 3.281,2.25 0.573,0.5866 0.531,0.7874 0.531,0.75 0,-0.038 0.04,0.1632 -0.531,0.75 -0.573,0.5866 -1.669,1.3836 -3.281,2.2187 -3.225,1.6704 -8.392,3.4855 -15.063,5.25 -13.34,3.5291 -32.872,6.9601 -56.969,10.25 -48.187,6.5802 -114.645,12.5132 -187.374,17.5 -145.46,9.9739 -316.037,16.1563 -416.063,16.1563 -34.736,0 -68.296,-0.7668 -100.094,-2.1563 l -0.719,6 c 32.024,1.3996 65.822,2.1563 100.813,2.1563 100.272,0 270.86,-6.172 416.469,-16.1563 72.804,-4.992 139.339,-10.9167 187.781,-17.5313 24.221,-3.3073 43.919,-6.787 57.719,-10.4374 6.899,-1.8253 12.285,-3.6816 16.218,-5.7188 1.968,-1.0188 3.612,-2.0506 4.876,-3.3438 1.263,-1.293 2.218,-2.9966 2.218,-4.9374 0,-1.9408 -0.955,-3.6757 -2.218,-4.9688 -1.264,-1.2932 -2.908,-2.3251 -4.876,-3.3438 -3.933,-2.0373 -9.319,-3.8933 -16.218,-5.7187 -13.8,-3.6504 -33.498,-7.1303 -57.719,-10.4375 -48.442,-6.6146 -114.977,-12.5393 -187.781,-17.5312 -145.609,-9.9841 -316.197,-16.1563 -416.469,-16.1563 z m -68.437,20.2813 c -4.903,0 -9.744,0.018 -14.563,0.062 2.149,2.3921 4.202,4.434 5.844,5.9688 2.899,-0.011 5.795,-0.031 8.719,-0.031 63.161,0 173.474,3.9179 267.906,10.2187 47.216,3.1506 90.481,6.9098 121.844,11.0625 15.68,2.0763 28.401,4.2577 37.031,6.4688 4.314,1.1055 7.639,2.2541 9.625,3.25 0.718,0.3601 1.005,0.6169 1.344,0.875 -0.337,0.2581 -0.625,0.5144 -1.344,0.875 -1.986,0.9958 -5.311,2.1132 -9.625,3.2187 -8.63,2.2112 -21.351,4.3924 -37.031,6.4687 -31.363,4.1525 -74.628,7.912 -121.844,11.0626 -94.432,6.3008 -204.745,10.2187 -267.906,10.2187 -9.994,0 -19.815,-0.1224 -29.469,-0.3125 l -0.719,6 c 9.887,0.1977 19.945,0.3125 30.188,0.3125 63.407,0 173.734,-3.9081 268.312,-10.2187 47.289,-3.1554 90.612,-6.9088 122.219,-11.0938 15.803,-2.0926 28.673,-4.2995 37.75,-6.625 4.538,-1.163 8.127,-2.3095 10.812,-3.6562 1.343,-0.6734 2.454,-1.4023 3.407,-2.3438 0.95,-0.9416 1.812,-2.2827 1.812,-3.9062 0,-1.6235 -0.862,-2.9961 -1.812,-3.9376 -0.953,-0.9415 -2.064,-1.6391 -3.407,-2.3124 -2.685,-1.3468 -6.274,-2.5247 -10.812,-3.6876 -9.077,-2.3256 -21.947,-4.5325 -37.75,-6.625 -31.607,-4.185 -74.93,-7.9383 -122.219,-11.0937 -94.578,-6.3105 -204.905,-10.2187 -268.312,-10.2187 z m 2354.25,22.375 c -133.267,0.3798 -257.264,16.7759 -350.938,36.625 -62.449,13.2326 -111.379,27.9639 -140.812,40.6562 -14.721,6.346 -24.506,11.8995 -29.188,17.5625 -1.171,1.416 -2.041,2.8952 -2.438,4.5625 -0.395,1.6669 -0.166,3.5366 0.688,5.0625 1.712,3.0523 5.025,4.6048 9.531,5.8125 12.276,3.2892 31.199,6.1432 55.094,8.625 l 73.813,-0.3125 c -59.549,-3.5935 -105.539,-8.251 -127.344,-14.0937 -3.81,-1.0207 -5.575,-2.4329 -5.875,-2.9688 -0.152,-0.268 -0.161,-0.3266 -0.06,-0.75 0.102,-0.4236 0.44,-1.1832 1.219,-2.125 3.115,-3.7681 12.556,-9.6742 26.937,-15.875 28.764,-12.4021 77.502,-27.1354 139.688,-40.3125 115.97,-24.5732 278.87,-43.8151 447.938,-33.7187 l 0.03,-6.0313 c -33.105,-1.9645 -65.973,-2.8109 -98.281,-2.7187 z"
                     transform="matrix(0.2642842,0,0,0.26458334,6.0672604,56.515846)"
                     id="path22267" />
                  <path
                     inkscape:connector-curvature="0"
                     style="color:#000000;fill:#caab43;fill-opacity:1;fill-rule:nonzero;stroke:none;stroke-width:13.77000046;marker:none;visibility:visible;display:inline;overflow:visible;enable-background:accumulate"
                     d="m 16873.781,1699.5312 c -404.501,-0.1309 -931.659,10.7979 -1577,53.4688 0.03,2.1094 0.04,4.0457 0.06,6.0312 764.413,-50.556 1362.928,-56.587 1788.25,-52.4374 217.407,2.1209 389.563,6.921 515.531,9.75 77.27,1.7351 136.952,2.765 179.313,1.9687 l 0.03,-6.0625 c -42.132,0.7855 -101.996,-0.1721 -179.219,-1.9062 -125.939,-2.8284 -298.13,-7.6285 -515.594,-9.75 -54.366,-0.5306 -111.583,-0.8731 -171.594,-1 -13.126,-0.028 -26.385,-0.058 -39.781,-0.063 z m 899.438,45.7188 c -839.183,2.6768 -1110.259,73.8228 -2476.407,56.3125 0.17,1.9408 0.345,3.9359 0.563,6.0313 1355.989,17.3565 1633.201,-52.6555 2457.906,-56.2813 5.1,-2.0464 11.373,-4.1799 17.938,-6.0625 z m -24.063,20.875 c -338.226,-0.7561 -910.253,107.0484 -1435.094,160.0625 -362.031,36.5688 -774.788,44.7426 -1021.374,45.9687 l 0.187,6 c 246.705,-1.2271 659.501,-9.4059 1021.781,-46 539.826,-54.5277 1129.574,-166.696 1462,-159.6562 -5.238,-2.1769 -10.41,-4.3066 -15.25,-6.2812 -4.06,-0.043 -8.119,-0.085 -12.25,-0.094 z m -44.937,55.9062 c -6.821,0.021 -13.754,0.085 -20.813,0.1876 -94.114,1.3695 -209.389,10.2752 -345.656,33.2812 -217.593,36.7364 -672.279,91.2113 -1103.562,132.2188 -30.383,2.8887 -60.628,5.6933 -90.688,8.4374 l 63.938,0.125 c 9.096,-0.8548 18.192,-1.7266 27.312,-2.5937 431.386,-41.0171 886.015,-95.4473 1104,-132.25 186.594,-31.5029 333.611,-36.494 440.688,-31.9375 l 0.03,-6 c -23.243,-0.985 -48.284,-1.5515 -75.25,-1.4688 z m -2309.094,8 c -32.788,0 -64.531,0.6676 -94.75,1.9063 0.07,0.5351 0.145,1.0968 0.219,1.625 0.2,1.4394 0.573,2.8927 1.094,4.3437 29.811,-1.2086 61.122,-1.875 93.437,-1.875 100.026,0 270.603,6.1825 416.063,16.1563 72.729,4.9869 139.186,10.92 187.374,17.5 24.096,3.2899 43.629,6.7522 56.969,10.2813 6.671,1.7644 11.838,3.5485 15.063,5.2187 1.612,0.8352 2.708,1.6633 3.281,2.25 0.573,0.5867 0.531,0.7874 0.531,0.75 0,-0.038 0.04,0.1634 -0.531,0.75 -0.573,0.5867 -1.669,1.3836 -3.281,2.2187 -3.225,1.6704 -8.392,3.4855 -15.063,5.25 -13.34,3.5291 -32.873,6.9601 -56.969,10.25 -48.188,6.5802 -114.645,12.5132 -187.374,17.5 -145.46,9.9739 -316.037,16.1563 -416.063,16.1563 -34.736,0 -68.296,-0.7668 -100.094,-2.1563 l -0.719,6 c 32.024,1.3996 65.822,2.1563 100.813,2.1563 100.272,0 270.86,-6.172 416.469,-16.1563 72.804,-4.992 139.339,-10.9167 187.781,-17.5312 24.221,-3.3073 43.919,-6.7871 57.719,-10.4375 6.899,-1.8252 12.285,-3.6815 16.218,-5.7187 1.968,-1.0188 3.612,-2.0507 4.876,-3.3438 1.263,-1.2931 2.218,-2.9967 2.218,-4.9375 0,-1.9408 -0.955,-3.6756 -2.218,-4.9687 -1.264,-1.2932 -2.908,-2.3251 -4.876,-3.3438 -3.933,-2.0373 -9.319,-3.8934 -16.218,-5.7188 -13.8,-3.6504 -33.498,-7.1302 -57.719,-10.4374 -48.442,-6.6146 -114.977,-12.5393 -187.781,-17.5313 -145.609,-9.9841 -316.197,-16.1563 -416.469,-16.1563 z m -68.437,20.2813 c -5.908,0 -11.737,0.027 -17.532,0.094 1.751,2.189 3.568,4.1971 5.25,5.9376 4.065,-0.033 8.164,-0.031 12.282,-0.031 63.161,0 173.474,3.9179 267.906,10.2187 47.216,3.1506 90.481,6.9099 121.844,11.0626 15.68,2.0763 28.401,4.2576 37.031,6.4687 4.314,1.1055 7.639,2.2541 9.625,3.25 0.718,0.3602 1.005,0.6169 1.344,0.875 -0.338,0.2581 -0.625,0.5145 -1.344,0.875 -1.986,0.9959 -5.311,2.1132 -9.625,3.2187 -8.63,2.2112 -21.351,4.3925 -37.031,6.4688 -31.363,4.1525 -74.628,7.912 -121.844,11.0625 -94.432,6.3009 -204.745,10.2187 -267.906,10.2187 -9.993,0 -19.815,-0.1226 -29.469,-0.3124 l -0.719,6 c 9.887,0.1977 19.946,0.3124 30.188,0.3124 63.407,0 173.734,-3.9081 268.312,-10.2187 47.289,-3.1553 90.612,-6.9087 122.219,-11.0937 15.803,-2.0926 28.673,-4.2995 37.75,-6.625 4.538,-1.163 8.127,-2.3095 10.812,-3.6563 1.343,-0.6734 2.455,-1.4022 3.407,-2.3437 0.95,-0.9416 1.812,-2.2828 1.812,-3.9063 0,-1.6235 -0.862,-2.996 -1.812,-3.9375 -0.952,-0.9415 -2.064,-1.6391 -3.407,-2.3125 -2.685,-1.3468 -6.274,-2.5247 -10.812,-3.6875 -9.077,-2.3256 -21.947,-4.5325 -37.75,-6.625 -31.607,-4.1851 -74.93,-7.9384 -122.219,-11.0938 -94.578,-6.3105 -204.905,-10.2187 -268.312,-10.2187 z m 2354.25,22.375 c -133.267,0.3798 -257.264,16.776 -350.938,36.625 -62.449,13.2327 -111.378,27.964 -140.812,40.6563 -14.72,6.346 -24.506,11.8994 -29.188,17.5624 -1.171,1.416 -2.041,2.8953 -2.438,4.5626 -0.395,1.6669 -0.166,3.5365 0.688,5.0624 1.712,3.0523 5.025,4.6049 9.531,5.8126 18.268,4.8946 50.999,8.8158 93.438,12 l 100.125,-0.4063 c -2.973,-0.1268 -5.974,-0.2444 -8.906,-0.375 -86.262,-3.8419 -154.875,-9.4386 -183.094,-17 -3.81,-1.0207 -5.575,-2.4328 -5.875,-2.9687 -0.151,-0.2681 -0.161,-0.3266 -0.06,-0.75 0.102,-0.4236 0.44,-1.1832 1.219,-2.125 3.115,-3.7681 12.556,-9.6742 26.937,-15.875 28.764,-12.4021 77.502,-27.1355 139.688,-40.3126 115.97,-24.5732 278.87,-43.815 447.938,-33.7187 l 0.03,-6.0313 c -33.105,-1.9645 -65.973,-2.8108 -98.281,-2.7187 z"
                     transform="matrix(0.2642842,0,0,0.26458334,6.0672604,56.515846)"
                     id="path22269" />
                </g>
                <path
                   sodipodi:nodetypes="cccccccsscccccscsccsccccccccccccccccccccccccsccsscccss"
                   id="path22271"
                   transform="matrix(0.2642842,0,0,0.26458334,6.0672604,56.515846)"
                   d="m 16440.375,1666.2812 -579.375,0.3438 -114.125,-0.2812 -446.844,3.5937 c 0,0 -5.14,13.6078 -4.562,31.5 1.011,31.3377 2.181,75.8301 0.906,83.4687 -1.031,6.1789 1.136,25.5986 3.469,43 -1.224,-47.4555 8.406,-137.6562 16.156,-141.5312 8,-4 656.295,-19.9268 684.579,-17.0983 12.764,1.2765 245.67,8.2598 439.796,-2.9955 z m 963.469,1.7813 c 67.634,7.0327 118.221,13.6104 126.75,17.875 28.285,14.1421 67.875,16.9687 67.875,16.9687 l 155.562,-14.1562 c 0,0 16.969,19.8113 16.969,31.125 0,1.5031 -0.156,8.5755 -0.344,17.25 -24.831,10.0249 -46.36,21.0275 -42.656,23.25 4.283,2.5699 32.52,17.7013 41.656,22.5938 -1.669,72.0888 -4.312,180.1562 -4.312,180.1562 0,0 -311.122,22.625 -339.406,22.625 -14.583,0 -232.834,5.2143 -445.469,10.3125 l 796.687,-3.1563 1.688,-35.4687 0.781,-169.0937 0.06,-14.5938 c -3.275,-1.3636 -6.412,-2.6653 -9.719,-4.0312 -11.518,-4.7566 -22.286,-9.1163 -25.969,-10.3438 -4.742,-1.5807 9.402,-8.1686 26.469,-13.3125 0,0.012 0,0.019 0,0.031 1.304,-0.3928 2.616,-0.7768 3.937,-1.1563 0.51,-0.1464 1.019,-0.2947 1.532,-0.4375 1.29,-0.3512 2.577,-0.7058 3.874,-1.0312 l 0.03,-9.9376 0.156,-30.625 -2.844,-30.9687 -197.218,-0.1563 -27.282,7 -43.781,-7.0312 -105.031,-3.6875 z m -2084.094,193.4063 c 0.939,0.8313 1.625,1.4374 1.625,1.4374 l -21.063,30.5938 -5.593,47.3438 c 6.894,-24.7783 14.303,-38.5127 17.281,-44.4688 4,-8 20,-28 20,-28 z m 650.969,116.3124 c -27.348,0.035 -50.913,1.236 -66.469,5.125 -45.255,11.314 -186.683,2.8431 -220.625,8.5 -6.391,1.0654 -13.571,2.4333 -21.094,4.0626 l 782.625,1.1562 c -110.66,-8.0196 -258.678,-18.2899 -306.156,-16.5312 -50.116,1.8561 -116.071,-2.3796 -168.281,-2.3126 z"
                   style="opacity:0.64159324;color:#000000;fill:#f6de78;fill-opacity:1;fill-rule:nonzero;stroke:none;stroke-width:13.77000046;marker:none;visibility:visible;display:inline;overflow:visible;enable-background:accumulate"
                   inkscape:connector-curvature="0" />
              </g>
            </g>
          </g>
        </g>
        <g
           id="g22273"
           transform="matrix(1.0041039,0,0,1,168.70315,-16.675788)">
          <g
             id="g22275"
             transform="translate(-0.60166398,81.053183)">
            <path
               id="path22277"
               transform="matrix(0.26458334,0,0,0.26458334,0.60165768,-62.49069)"
               d="m 15299.531,2137.6248 c 0,0 -1.656,41.0309 -3.656,53.0309 -2,12 4.156,71.9379 4.156,71.9379 l -0.125,4.7812 -0.03,0.125 c -0.05,0.4545 -0.1,0.8792 -0.156,1.2188 -0.306,1.8372 -0.303,4.9394 -0.125,8.7187 l -3.875,133.2813 1,34 11,22 569.437,2.1562 706.375,-3.7812 190.188,3.625 658.5,-1.4688 54.375,-0.25 177.625,-7.5 43.312,7.2188 40.657,-0.9063 29.531,-23.0937 c 2.119,-55.5789 6.976,-94.7231 0,-204.875 l 0,-44.4066 0,-7.125 0,-43.4108 -26.5,-2.7957 -255.54,15.8637 -902.617,-7.9072 -1031.812,-1.0626 c 0,0 -117.932,7.4368 -135.875,10 -19.224,1.2816 -116.233,-22.5786 -125.845,-19.3746 z"
               style="color:#000000;fill:#ab8130;fill-opacity:1;fill-rule:nonzero;stroke:#3b2213;stroke-width:40.85163879;stroke-linejoin:round;stroke-miterlimit:4;stroke-opacity:1;stroke-dasharray:none;marker:none;visibility:visible;display:inline;overflow:visible;enable-background:accumulate"
               inkscape:connector-curvature="0"
               sodipodi:nodetypes="csccccccccccccccccccccccccccc" />
            <path
               transform="matrix(0.26350195,0,0,0.26458334,-167.41198,-45.814902)"
               id="path22279"
               d="m 18444.031,2109.6562 -2445.906,-1.9687 c 0,0 4.008,86 2,98 -2.008,12 8.031,74 8.031,74 l -11.031,102 11.031,22 571.75,2.1563 709.313,-3.7813 190.969,3.625 661.187,-1.4687 54.594,-0.25 178.343,-7.5 43.5,7.2187 40.844,-0.9063 29.656,-23.0937 0,-146.5625 -215.218,-93.9688 170.937,-29.5 z"
               style="color:#000000;fill:#caab43;fill-opacity:1;fill-rule:nonzero;stroke:none;stroke-width:13.77000046;marker:none;visibility:visible;display:inline;overflow:visible;enable-background:accumulate"
               inkscape:connector-curvature="0" />
            <path
               transform="matrix(0.26350195,0,0,0.26458334,-167.41198,-45.814902)"
               id="path22281"
               d="m 18444.031,2109.6562 -170.937,29.5 215.218,93.9688 0,-123.4375 -44.281,-0.031 z"
               style="color:#000000;fill:#ab8130;fill-opacity:1;fill-rule:nonzero;stroke:none;stroke-width:13.77000046;marker:none;visibility:visible;display:inline;overflow:visible;enable-background:accumulate"
               inkscape:connector-curvature="0" />
            <path
               sodipodi:nodetypes="scsccccccscccccccccccccs"
               inkscape:connector-curvature="0"
               id="path22283"
               transform="matrix(0.26458334,0,0,0.26458334,0.60165768,-61.982054)"
               d="m 15334.219,2130.5625 c -12.234,0.1016 -26.888,1.0148 -36.5,4.2187 0,0 0.156,28.3438 -1.844,40.3438 -2,12 4.156,85.5312 4.156,85.5312 l -4.312,148.125 1,34 1198,0.1876 279,1.8124 646.625,-2.5624 c 42.193,-4.195 156.817,-10.5626 165.937,-10.5626 10.875,0 83.375,1.8126 83.375,1.8126 l 37.032,7.5937 71.031,-0.2813 c 2.119,-55.5788 6.976,-94.7231 0,-204.875 l -47.125,-29 47.125,-29 0,-33.8752 -26.495,-7.2683 -241.505,-0.1689 -916.657,-4.0626 -1031.812,-1.0624 c 0,0 -117.932,7.4368 -135.875,10 -19.224,1.2815 -69.094,-10.2813 -69.094,-10.2813 0,0 -9.828,-0.7266 -22.062,-0.625 z"
               style="color:#000000;fill:#ceb254;fill-opacity:1;fill-rule:nonzero;stroke:none;stroke-width:13.77000046;marker:none;visibility:visible;display:inline;overflow:visible;enable-background:accumulate" />
            <path
               id="path22287"
               transform="matrix(0.26458334,0,0,0.26458334,0.60165768,-62.49069)"
               d="m 15788,2166.9375 c -14.898,-4e-4 -30.028,0.031 -45.406,0.062 -129.583,0.2725 -276.772,1.7342 -445.75,4.7188 -0.155,2.1531 -0.344,4.1792 -0.563,6 1430.338,-25.2936 1279.009,59.376 2439.219,37.7812 l -4.906,-3 2.968,-1.8125 -1.812,-1.125 c -1002.736,18.5101 -1023.037,-42.6088 -1943.75,-42.625 z m -410.156,50.4063 c -32.842,-0.023 -59.869,0.2439 -81.032,0.75 0.123,2.01 0.246,4.0018 0.376,6 21.049,-0.5008 47.968,-0.7707 80.656,-0.75 73.024,0.046 173.035,1.3072 291.156,3.4374 236.242,4.2606 544.886,11.9898 854.781,20.4063 309.896,8.4161 621.042,17.5352 862.375,24.5313 180.032,5.2189 320.921,9.2526 393.782,10.9687 -0.09,-1.9725 -0.183,-3.9729 -0.282,-6 -72.867,-1.7227 -213.687,-5.7615 -393.312,-10.9687 -241.333,-6.9961 -552.504,-16.0835 -862.406,-24.5 -309.906,-8.4165 -618.534,-16.1764 -854.813,-20.4376 -118.139,-2.1305 -218.191,-3.3913 -291.281,-3.4374 z m -78.469,37.1562 c 0.219,2.749 0.433,5.1896 0.5,6 47.585,0.2178 105.315,0.5715 171.187,1.0625 182.704,1.3616 424.92,3.7884 666.813,7.3125 241.893,3.5244 483.483,8.154 664.875,14 90.696,2.9232 166.348,6.1573 219.438,9.6875 26.542,1.7648 47.464,3.5935 61.718,5.5 7.128,0.9531 12.595,1.9342 16.156,2.875 0.398,0.1043 0.497,0.1777 0.844,0.2813 -0.06,0.019 -0.06,0.045 -0.125,0.062 -3.357,0.9249 -8.728,1.9002 -15.812,2.8438 -14.17,1.8877 -35.269,3.7049 -62.219,5.4375 -53.9,3.4649 -131.271,6.5833 -224.25,9.4063 -185.959,5.646 -434.409,10.0734 -683.031,13.4374 -314.695,4.2582 -628.749,6.8315 -817.594,8.1563 l -0.187,6 c 188.819,-1.3242 502.989,-3.8959 817.843,-8.1563 248.639,-3.3642 497.128,-7.7893 683.157,-13.4374 93.013,-2.824 170.402,-5.9639 224.437,-9.4376 27.018,-1.7368 48.184,-3.5453 62.625,-5.4687 7.221,-0.962 12.747,-1.9318 16.625,-3 1.939,-0.5344 3.459,-1.0648 4.75,-1.8125 0.645,-0.3738 1.249,-0.7838 1.813,-1.5 0.56,-0.716 1.022,-1.9311 0.843,-3.0938 -0.347,-2.2618 -1.88,-3.1007 -3.219,-3.7812 -1.336,-0.6803 -2.956,-1.1875 -4.968,-1.7188 -4.024,-1.0622 -9.652,-2.0605 -16.906,-3.0312 -14.517,-1.9408 -35.482,-3.7932 -62.094,-5.5625 -53.224,-3.5391 -128.927,-6.7631 -219.656,-9.6875 -181.464,-5.8484 -423.058,-10.4753 -664.969,-14 -241.912,-3.5244 -484.129,-5.9508 -666.844,-7.3125 -66.097,-0.4927 -124.059,-0.8448 -171.75,-1.0625 z m 2475.875,69.2812 c -1010.946,1.462 -1084.684,47.8419 -2478.312,48.625 l -0.188,6 c 1396.67,-0.7805 1468.044,-47.3369 2484.531,-48.625 -0.04,-1.9697 -0.06,-3.9668 -0.09,-6 l -5.938,0 z m -4.719,19.6876 c -53.167,-0.023 -117.313,0.9397 -194.719,3.3437 -202.375,6.2849 -737.51,52.5159 -1282.843,98.0625 l 71.687,0 c 520.062,-43.5359 1018.351,-86.0699 1211.313,-92.0625 82.774,-2.5707 150.164,-3.4847 205.343,-3.3125 0,-0.1926 0,-0.3693 0,-0.5625 0.02,-1.7562 0,-3.6314 0,-5.4375 -3.569,-0.011 -7.106,-0.031 -10.781,-0.031 z"
               style="color:#000000;fill:#e2c866;fill-opacity:1;fill-rule:nonzero;stroke:none;stroke-width:13.77000046;marker:none;visibility:visible;display:inline;overflow:visible;enable-background:accumulate"
               inkscape:connector-curvature="0" />
            <path
               inkscape:connector-curvature="0"
               id="path22289"
               transform="matrix(0.26458334,0,0,0.26458334,0.60165768,-61.982054)"
               d="m 15788,2161.3438 c -14.898,-4e-4 -30.028,0.03 -45.406,0.062 -129.583,0.2725 -276.772,1.7342 -445.75,4.7188 -0.156,2.1531 -0.346,4.1792 -0.563,6 1430.338,-25.2936 1279.009,59.376 2439.219,37.7812 l -4.906,-3 4.875,-3 C 16729.011,2222.639 16709.865,2161.36 15788,2161.3438 z m -410.156,50.4062 c -32.948,-0.021 -60.057,0.2408 -81.25,0.75 0.116,2.0046 0.249,3.9863 0.375,6 21.08,-0.5039 48.081,-0.7707 80.875,-0.75 73.024,0.046 173.035,1.3072 291.156,3.4375 236.242,4.2606 544.886,11.9898 854.781,20.4063 309.896,8.4161 621.042,17.5351 862.375,24.5312 180.032,5.219 320.921,9.2527 393.782,10.9688 -0.09,-1.9725 -0.187,-3.9729 -0.282,-6 -72.867,-1.7227 -213.687,-5.7616 -393.312,-10.9688 -241.333,-6.9961 -552.503,-16.0835 -862.406,-24.5 -309.905,-8.4165 -618.534,-16.1763 -854.813,-20.4375 -118.139,-2.1306 -218.191,-3.3914 -291.281,-3.4375 z m -78.75,37.1562 c 0.279,3.6215 0.303,3.9521 0.468,6 47.639,0.2177 105.497,0.5706 171.5,1.0626 182.703,1.3616 424.92,3.7883 666.813,7.3124 241.893,3.5244 483.483,8.154 664.875,14 90.696,2.9232 166.348,6.1574 219.438,9.6876 26.543,1.7648 47.464,3.5935 61.718,5.5 7.128,0.9531 12.595,1.9342 16.156,2.875 0.398,0.1043 0.497,0.1776 0.844,0.2812 -0.06,0.019 -0.06,0.045 -0.125,0.062 -3.357,0.9249 -8.728,1.9001 -15.812,2.8437 -14.17,1.8877 -35.269,3.705 -62.219,5.4376 -53.9,3.4649 -131.271,6.5832 -224.25,9.4062 -185.959,5.646 -434.409,10.0734 -683.031,13.4375 -314.695,4.2581 -628.749,6.8315 -817.594,8.1563 l -0.187,6 c 188.819,-1.3242 502.989,-3.896 817.843,-8.1563 248.639,-3.3643 497.128,-7.7894 683.157,-13.4375 93.013,-2.824 170.402,-5.9638 224.437,-9.4375 27.018,-1.7368 48.184,-3.5453 62.625,-5.4687 7.221,-0.962 12.747,-1.9318 16.625,-3 1.939,-0.5344 3.459,-1.0649 4.75,-1.8126 0.645,-0.3737 1.249,-0.7838 1.813,-1.5 0.56,-0.716 1.022,-1.931 0.843,-3.0937 -0.347,-2.2619 -1.88,-3.1008 -3.219,-3.7813 -1.336,-0.6803 -2.956,-1.1875 -4.968,-1.7187 -4.024,-1.0623 -9.651,-2.0606 -16.906,-3.0313 -14.516,-1.9408 -35.482,-3.7931 -62.094,-5.5624 -53.224,-3.5391 -128.927,-6.7632 -219.656,-9.6876 -181.464,-5.8484 -423.058,-10.4753 -664.969,-14 -241.912,-3.5244 -484.129,-5.9507 -666.844,-7.3124 -66.215,-0.4936 -124.292,-0.845 -172.031,-1.0626 z m 2476.156,69.2813 c -1010.946,1.4619 -1084.684,47.8419 -2478.312,48.625 l -0.188,6 c 1396.67,-0.7806 1468.044,-47.337 2484.531,-48.625 -0.02,-1.9697 -0.06,-3.9669 -0.09,-6 -1.957,0 -3.988,0 -5.938,0 z m -4.719,19.6875 c -53.167,-0.023 -117.314,0.9398 -194.719,3.3438 -206.635,6.4172 -760.046,54.48 -1317.156,100.9374 -3.106,0.2591 -6.206,0.5224 -9.312,0.7813 l 71.781,0 c 535.677,-44.7855 1056.474,-89.5582 1254.844,-95.7187 82.774,-2.5707 150.163,-3.4848 205.343,-3.3126 0.01,-1.964 0.03,-3.9727 0.03,-6 -3.58,-0.011 -7.128,-0.03 -10.813,-0.031 z"
               style="color:#000000;fill:#caab43;fill-opacity:1;fill-rule:nonzero;stroke:none;stroke-width:13.77000046;marker:none;visibility:visible;display:inline;overflow:visible;enable-background:accumulate" />
            <path
               style="opacity:0;color:#000000;fill:#cb8157;fill-opacity:1;fill-rule:nonzero;stroke:none;stroke-width:13.77000046;marker:none;visibility:visible;display:inline;overflow:visible;enable-background:accumulate"
               d="m 15338.688,2132.4688 c -1.442,-0.01 -2.94,0.018 -4.469,0.031 -3.059,0.025 -6.256,0.1 -9.5,0.25 -4.867,0.2249 -9.809,0.6148 -14.438,1.25 -1.543,0.2117 -3.073,0.4499 -4.531,0.7188 -2.917,0.5377 -5.628,1.1989 -8.031,2 0,0 0,1.2997 0,3.4374 0,1.6991 -0.02,3.3424 -0.06,6.1563 -0.01,0.8755 -0.01,1.4247 -0.03,2.375 0,0.2269 -0.03,0.4569 -0.03,0.6875 -0.03,1.5234 -0.05,3.047 -0.09,4.6875 -0.05,1.631 -0.09,3.2631 -0.156,4.9375 -0.01,0.2523 -0.02,0.4976 -0.03,0.75 -0.08,2.0032 -0.193,4.001 -0.312,5.9375 -0.07,1.0862 -0.139,2.1526 -0.219,3.1875 -0.05,0.6283 -0.102,1.3035 -0.156,1.9062 926.379,-18.2154 1383.533,19.7685 1732.031,35.0313 290.803,12.7358 606.363,7.8847 706.5,5.8437 l -4.562,-2.8124 47.125,-29 0,-33.875 -26.5,-7.2813 -241.5,-0.1563 -916.657,-4.0624 -1031.812,-1.0626 c 0,0 -29.493,1.8517 -61.219,4.0313 -15.863,1.0898 -32.264,2.2548 -45.843,3.3125 -3.395,0.2644 -6.639,0.5339 -9.626,0.7812 -8.958,0.7422 -15.823,1.3944 -19.187,1.875 -1.202,0.08 -2.516,0.1081 -3.937,0.094 -0.711,-0.01 -1.461,-0.034 -2.219,-0.062 -8.34,-0.3135 -19.409,-1.8706 -29.938,-3.6875 -9.571,-1.6517 -18.686,-3.5138 -24.906,-4.8438 -4.976,-1.0639 -8.094,-1.7812 -8.094,-1.7812 0,0 -0.681,-0.059 -1.719,-0.125 -0.781,-0.047 -2.08,-0.1284 -3.312,-0.1875 -0.644,-0.032 -1.537,-0.062 -2.281,-0.094 -1.577,-0.063 -3.366,-0.1109 -5.313,-0.1563 -0.271,-0.01 -0.566,-0.025 -0.844,-0.031 -1.32,-0.027 -2.685,-0.052 -4.124,-0.062 z m -39.469,120.1562 c 0.421,5.3783 0.812,9.9688 0.812,9.9688 l -2.219,76.1874 c 352.316,-2.0748 1792.67,-12.3779 1805,-42.4062 12.848,-31.2904 -1533.855,-36.2028 -1803.593,-43.75 z"
               transform="matrix(0.26458334,0,0,0.26458334,0.60165768,-62.49069)"
               id="path22291"
               inkscape:connector-curvature="0" />
            <path
               sodipodi:nodetypes="cccscccccssccccsscssssccccccccccccccccssscccssssscccsccccccs"
               id="path22293"
               transform="matrix(0.26458334,0,0,0.26458334,0.60165768,-62.49069)"
               d="m 15338.688,2132.4688 c -1.441,-0.01 -2.94,0.018 -4.469,0.031 -12.234,0.1016 -26.888,1.0147 -36.5,4.2188 0,0 0.156,28.3437 -1.844,40.3437 -2,12 4.156,85.5313 4.156,85.5313 l -4.312,148.125 1,34 917.093,0.1562 c 2.719,-0.2091 10.522,-0.8378 8.719,-0.6875 -30.758,2.5632 -544.681,-17.9389 -569.031,-12.8125 -24.351,5.1264 -42.306,-2.5636 -65.375,1.2812 -23.069,3.845 -116.623,-7.6871 -126.875,-8.9687 -10.253,-1.2816 -87.153,2.5621 -96.125,3.8437 -8.971,1.2818 -48.687,2.5648 -52.531,-5.125 -3.845,-7.6896 -3.843,-20.5272 -5.125,-34.625 -1.281,-14.0977 3.843,-93.5593 3.843,-105.0937 0,-11.5344 12.814,-16.6533 8.969,-26.9063 -3.845,-10.2529 -10.251,-92.2794 -6.406,-98.6874 3.845,-6.4082 38.434,-6.4063 51.25,-6.4063 12.816,0 43.589,3.8437 61.531,3.8437 17.943,0 107.648,-2.5614 140.969,-6.4062 33.322,-3.8448 511.366,-1.2812 545.969,-1.2812 28.225,0 361.676,-8.4425 500.906,-12.2813 l -21.438,-0.094 -1031.812,-1.0626 c 0,0 -110.682,0.187 -128.625,2.7502 -19.224,1.2817 -76.344,-3.0314 -76.344,-3.0314 0,0 -7.517,-0.5852 -17.593,-0.6562 z m 1740.812,4.1562 c 199.123,6.811 660.595,15.0317 668.094,19.5312 9.062,5.4375 19.937,18.125 19.937,18.125 0,0 -0.786,6.6208 -3.062,13.7188 l 13.25,-8.1562 0,-33.8126 c -12.352,-2.4502 -24.65,-4.8807 -36.969,-7.3437 l -231.031,-0.1563 z m 631.375,71.375 c -24.213,-0.085 -58.89,1.625 -46.656,4.3438 16.312,3.6249 65.25,7.2502 81.562,19.9374 16.312,12.6875 25.376,12.6877 23.563,23.5626 -1.812,10.8748 -9.062,56.1879 -7.25,77.9374 1.813,21.7498 3.625,87 3.625,87 0,0 -52.563,16.3125 -61.625,7.25 -9.062,-9.0623 -3.627,-34.4374 -56.188,-27.1874 -52.562,7.2499 -90.625,16.3124 -150.437,18.125 -59.811,1.8125 -72.501,10.8749 -126.875,14.5 -54.373,3.6249 -518.346,1.8124 -587.219,0 -52.736,-1.3879 -189.33,4.6452 -259.437,11.625 l 249.781,1.625 646.625,-2.5626 c 42.193,-4.195 156.817,-10.5624 165.937,-10.5624 10.875,0 83.375,1.8124 83.375,1.8124 l 37.032,7.5938 71.031,-0.2812 c 2.119,-55.579 6.976,-94.7231 0,-204.875 l -47.125,-29 c -0.376,-0.04 -0.712,-0.073 -1.125,-0.125 -3.625,-0.4533 -10.523,-0.6905 -18.594,-0.7188 z"
               style="opacity:0.5442478;color:#000000;fill:#f6de78;fill-opacity:1;fill-rule:nonzero;stroke:none;stroke-width:13.77000046;marker:none;visibility:visible;display:inline;overflow:visible;enable-background:accumulate"
               inkscape:connector-curvature="0" />
          </g>
        </g>
        <g
           transform="matrix(-1.0040966,0,0,1,8955.537,189.30916)"
           id="g22295">
          <g
             id="g22297"
             transform="matrix(1.0011319,0,0,1,-5.3249325,-67.351922)">
            <g
               transform="translate(-0.74835469,8.2319017)"
               id="g22299">
              <path
                 sodipodi:nodetypes="ccccccccccccccccccccccccccc"
                 inkscape:connector-curvature="0"
                 style="color:#000000;fill:#ab8130;fill-opacity:1;fill-rule:nonzero;stroke:#3b2213;stroke-width:40.85178757;stroke-linejoin:round;stroke-miterlimit:4;stroke-opacity:1;stroke-dasharray:none;marker:none;visibility:visible;display:inline;overflow:visible;enable-background:accumulate"
                 d="m 17337.75,1700.1555 -1452.4,1.0728 -114.125,-0.2812 -473.319,-30.9783 c 0,0 -3.36,9.7492 -3.094,23.75 0.517,27.1484 1.359,70.2191 1.813,88.75 -0.07,1.0011 -0.152,1.8811 -0.25,2.4687 -0.533,3.1927 -0.19,9.9631 0.563,18.125 0.02,7.5169 -0.145,13.3659 -0.563,15.875 -1.383,8.2864 2.928,40.0958 5.75,59.1875 l -9.781,82.8125 1.031,34 11,32 1333.5,2 134.156,0 991.125,-2 14,-34 1.688,-35.5 0.844,-183.6875 c -14.661,-6.1067 -30.972,-12.8031 -35.688,-14.375 -5.591,-1.8638 15.049,-10.6983 35.812,-15.9062 l 0.188,-40.5626 -2.844,-30.9374 -197.218,34.2804 -27.282,6.9687 -43.781,-7.0312 z"
                 transform="matrix(0.2642842,0,0,0.26458334,6.0672604,77.682513)"
                 id="path22301" />
              <g
                 id="g22303"
                 transform="translate(0,21.166667)">
                <path
                   style="color:#000000;fill:#ab8130;fill-opacity:1;fill-rule:nonzero;stroke:none;stroke-width:13.77000046;marker:none;visibility:visible;display:inline;overflow:visible;enable-background:accumulate"
                   d="m 4048.1252,511.84166 c 0,0 1.0583,22.75417 0.5291,25.92917 -0.5291,3.175 2.1167,19.57917 2.1167,19.57917 l -2.9104,26.9875 2.9104,8.46666 352.425,0.52917 35.4542,0 261.9374,-0.52917 3.7042,-8.99583 -5.55,-54.65081 6.6071,-11.23044 -3.7378,-12.49694 z"
                   id="path22305"
                   inkscape:connector-curvature="0"
                   sodipodi:nodetypes="ccccccccccccc" />
                <path
                   inkscape:connector-curvature="0"
                   style="color:#000000;fill:#ceb254;fill-opacity:1;fill-rule:nonzero;stroke:none;stroke-width:13.77000046;marker:none;visibility:visible;display:inline;overflow:visible;enable-background:accumulate"
                   d="m 17337.781,1665.7188 -1476.781,0.9062 -114.125,-0.2812 -446.844,3.5937 c 0,0 -5.14,13.6078 -4.562,31.5 1.011,31.3377 2.181,75.8301 0.906,83.4687 -1.144,6.8558 1.627,30.0459 4.219,48.6563 1.944,13.9643 20.781,29.3437 20.781,29.3437 l -21.063,30.5938 -7.968,67.4062 1.031,34 1344.5,2 134.156,0 1005.125,-4 1.688,-35.4687 0.844,-183.6875 c -14.661,-6.1067 -30.972,-12.8031 -35.688,-14.375 -5.591,-1.8638 15.049,-10.6983 35.812,-15.9062 l 0.188,-40.5626 -2.844,-30.9687 -197.218,-0.1563 -27.282,7 -43.781,-7.0312 -171.094,-6.0312 z"
                   transform="matrix(0.2642842,0,0,0.26458334,6.0672604,56.515846)"
                   id="path22307" />
                <g
                   id="g22309"
                   class="switchable"
                   name="grain">
                  <path
                     id="path22311"
                     transform="matrix(0.2642842,0,0,0.26458334,6.0672604,56.515846)"
                     d="m 16873.781,1703.0625 c -404.488,-0.1308 -931.625,10.8013 -1576.937,53.4687 0.03,2.0405 0.05,4.132 0.06,6.0313 764.383,-50.5522 1362.877,-56.587 1788.188,-52.4375 217.407,2.1209 389.563,6.921 515.531,9.75 77.252,1.7347 136.922,2.764 179.281,1.9688 l 0.03,-6.0626 c -42.131,0.7845 -101.983,-0.1724 -179.188,-1.9062 -125.939,-2.8284 -298.13,-7.6285 -515.594,-9.75 -54.365,-0.5306 -111.583,-0.8731 -171.594,-1 -13.126,-0.026 -26.385,-0.058 -39.781,-0.062 z m 888.157,45.7813 c -830.234,3.2783 -1105.123,73.666 -2464.813,56.25 0.191,1.9496 0.396,3.973 0.625,6.0312 1351.317,17.2831 1631.182,-52.2137 2449.688,-56.25 3.393,-1.8217 8.537,-3.9428 14.5,-6.0312 z m -12.782,20.8124 c -338.226,-0.756 -910.252,107.0484 -1435.094,160.0626 -361.987,36.5643 -774.684,44.7411 -1021.281,45.9687 l 0.188,6 c 246.715,-1.2286 659.451,-9.4103 1021.687,-46 539.826,-54.5277 1129.574,-166.696 1462,-159.6563 -5.238,-2.1768 -10.41,-4.3066 -15.25,-6.2812 -4.06,-0.043 -8.119,-0.085 -12.25,-0.094 z m -44.937,55.9063 c -6.821,0.023 -13.754,0.085 -20.813,0.1875 -94.114,1.3695 -209.389,10.2752 -345.656,33.2812 -217.593,36.7365 -672.279,91.2113 -1103.562,132.2188 -17.732,1.6859 -35.403,3.3355 -53.032,4.9688 l 62.969,0.094 c 428.586,-40.9114 878.217,-94.8073 1094.625,-131.3437 186.576,-31.4999 333.582,-36.4918 440.656,-31.9376 l 0.03,-6 c -23.235,-0.9841 -48.265,-1.5514 -75.219,-1.4687 z m -2309.094,8 c -32.575,0 -64.114,0.6518 -94.156,1.875 0.476,1.9778 1.236,3.9802 2.219,5.9375 29.363,-1.1707 60.16,-1.8125 91.937,-1.8125 100.026,0 270.603,6.1825 416.063,16.1563 72.729,4.9869 139.187,10.9199 187.374,17.5 24.097,3.2899 43.629,6.7521 56.969,10.2812 6.671,1.7644 11.838,3.5486 15.063,5.2188 1.612,0.8351 2.708,1.6633 3.281,2.25 0.573,0.5866 0.531,0.7874 0.531,0.75 0,-0.038 0.04,0.1632 -0.531,0.75 -0.573,0.5866 -1.669,1.3836 -3.281,2.2187 -3.225,1.6704 -8.392,3.4855 -15.063,5.25 -13.34,3.5291 -32.872,6.9601 -56.969,10.25 -48.187,6.5802 -114.645,12.5132 -187.374,17.5 -145.46,9.9739 -316.037,16.1563 -416.063,16.1563 -34.736,0 -68.296,-0.7668 -100.094,-2.1563 l -0.719,6 c 32.024,1.3996 65.822,2.1563 100.813,2.1563 100.272,0 270.86,-6.172 416.469,-16.1563 72.804,-4.992 139.339,-10.9167 187.781,-17.5313 24.221,-3.3073 43.919,-6.787 57.719,-10.4374 6.899,-1.8253 12.285,-3.6816 16.218,-5.7188 1.968,-1.0188 3.612,-2.0506 4.876,-3.3438 1.263,-1.293 2.218,-2.9966 2.218,-4.9374 0,-1.9408 -0.955,-3.6757 -2.218,-4.9688 -1.264,-1.2932 -2.908,-2.3251 -4.876,-3.3438 -3.933,-2.0373 -9.319,-3.8933 -16.218,-5.7187 -13.8,-3.6504 -33.498,-7.1303 -57.719,-10.4375 -48.442,-6.6146 -114.977,-12.5393 -187.781,-17.5312 -145.609,-9.9841 -316.197,-16.1563 -416.469,-16.1563 z m -68.437,20.2813 c -4.903,0 -9.744,0.018 -14.563,0.062 2.149,2.3921 4.202,4.434 5.844,5.9688 2.899,-0.011 5.795,-0.031 8.719,-0.031 63.161,0 173.474,3.9179 267.906,10.2187 47.216,3.1506 90.481,6.9098 121.844,11.0625 15.68,2.0763 28.401,4.2577 37.031,6.4688 4.314,1.1055 7.639,2.2541 9.625,3.25 0.718,0.3601 1.005,0.6169 1.344,0.875 -0.337,0.2581 -0.625,0.5144 -1.344,0.875 -1.986,0.9958 -5.311,2.1132 -9.625,3.2187 -8.63,2.2112 -21.351,4.3924 -37.031,6.4687 -31.363,4.1525 -74.628,7.912 -121.844,11.0626 -94.432,6.3008 -204.745,10.2187 -267.906,10.2187 -9.994,0 -19.815,-0.1224 -29.469,-0.3125 l -0.719,6 c 9.887,0.1977 19.945,0.3125 30.188,0.3125 63.407,0 173.734,-3.9081 268.312,-10.2187 47.289,-3.1554 90.612,-6.9088 122.219,-11.0938 15.803,-2.0926 28.673,-4.2995 37.75,-6.625 4.538,-1.163 8.127,-2.3095 10.812,-3.6562 1.343,-0.6734 2.454,-1.4023 3.407,-2.3438 0.95,-0.9416 1.812,-2.2827 1.812,-3.9062 0,-1.6235 -0.862,-2.9961 -1.812,-3.9376 -0.953,-0.9415 -2.064,-1.6391 -3.407,-2.3124 -2.685,-1.3468 -6.274,-2.5247 -10.812,-3.6876 -9.077,-2.3256 -21.947,-4.5325 -37.75,-6.625 -31.607,-4.185 -74.93,-7.9383 -122.219,-11.0937 -94.578,-6.3105 -204.905,-10.2187 -268.312,-10.2187 z m 2354.25,22.375 c -133.267,0.3798 -257.264,16.7759 -350.938,36.625 -62.449,13.2326 -111.379,27.9639 -140.812,40.6562 -14.721,6.346 -24.506,11.8995 -29.188,17.5625 -1.171,1.416 -2.041,2.8952 -2.438,4.5625 -0.395,1.6669 -0.166,3.5366 0.688,5.0625 1.712,3.0523 5.025,4.6048 9.531,5.8125 12.276,3.2892 31.199,6.1432 55.094,8.625 l 73.813,-0.3125 c -59.549,-3.5935 -105.539,-8.251 -127.344,-14.0937 -3.81,-1.0207 -5.575,-2.4329 -5.875,-2.9688 -0.152,-0.268 -0.161,-0.3266 -0.06,-0.75 0.102,-0.4236 0.44,-1.1832 1.219,-2.125 3.115,-3.7681 12.556,-9.6742 26.937,-15.875 28.764,-12.4021 77.502,-27.1354 139.688,-40.3125 115.97,-24.5732 278.87,-43.8151 447.938,-33.7187 l 0.03,-6.0313 c -33.105,-1.9645 -65.973,-2.8109 -98.281,-2.7187 z"
                     style="opacity:0.5;color:#000000;fill:#f6de78;fill-opacity:1;fill-rule:nonzero;stroke:none;stroke-width:13.77000046;marker:none;visibility:visible;display:inline;overflow:visible;enable-background:accumulate"
                     inkscape:connector-curvature="0" />
                  <path
                     id="path22313"
                     transform="matrix(0.2642842,0,0,0.26458334,6.0672604,56.515846)"
                     d="m 16873.781,1699.5312 c -404.501,-0.1309 -931.659,10.7979 -1577,53.4688 0.03,2.1094 0.04,4.0457 0.06,6.0312 764.413,-50.556 1362.928,-56.587 1788.25,-52.4374 217.407,2.1209 389.563,6.921 515.531,9.75 77.27,1.7351 136.952,2.765 179.313,1.9687 l 0.03,-6.0625 c -42.132,0.7855 -101.996,-0.1721 -179.219,-1.9062 -125.939,-2.8284 -298.13,-7.6285 -515.594,-9.75 -54.366,-0.5306 -111.583,-0.8731 -171.594,-1 -13.126,-0.028 -26.385,-0.058 -39.781,-0.063 z m 899.438,45.7188 c -839.183,2.6768 -1110.259,73.8228 -2476.407,56.3125 0.17,1.9408 0.345,3.9359 0.563,6.0313 1355.989,17.3565 1633.201,-52.6555 2457.906,-56.2813 5.1,-2.0464 11.373,-4.1799 17.938,-6.0625 z m -24.063,20.875 c -338.226,-0.7561 -910.253,107.0484 -1435.094,160.0625 -362.031,36.5688 -774.788,44.7426 -1021.374,45.9687 l 0.187,6 c 246.705,-1.2271 659.501,-9.4059 1021.781,-46 539.826,-54.5277 1129.574,-166.696 1462,-159.6562 -5.238,-2.1769 -10.41,-4.3066 -15.25,-6.2812 -4.06,-0.043 -8.119,-0.085 -12.25,-0.094 z m -44.937,55.9062 c -6.821,0.021 -13.754,0.085 -20.813,0.1876 -94.114,1.3695 -209.389,10.2752 -345.656,33.2812 -217.593,36.7364 -672.279,91.2113 -1103.562,132.2188 -30.383,2.8887 -60.628,5.6933 -90.688,8.4374 l 63.938,0.125 c 9.096,-0.8548 18.192,-1.7266 27.312,-2.5937 431.386,-41.0171 886.015,-95.4473 1104,-132.25 186.594,-31.5029 333.611,-36.494 440.688,-31.9375 l 0.03,-6 c -23.243,-0.985 -48.284,-1.5515 -75.25,-1.4688 z m -2309.094,8 c -32.788,0 -64.531,0.6676 -94.75,1.9063 0.07,0.5351 0.145,1.0968 0.219,1.625 0.2,1.4394 0.573,2.8927 1.094,4.3437 29.811,-1.2086 61.122,-1.875 93.437,-1.875 100.026,0 270.603,6.1825 416.063,16.1563 72.729,4.9869 139.186,10.92 187.374,17.5 24.096,3.2899 43.629,6.7522 56.969,10.2813 6.671,1.7644 11.838,3.5485 15.063,5.2187 1.612,0.8352 2.708,1.6633 3.281,2.25 0.573,0.5867 0.531,0.7874 0.531,0.75 0,-0.038 0.04,0.1634 -0.531,0.75 -0.573,0.5867 -1.669,1.3836 -3.281,2.2187 -3.225,1.6704 -8.392,3.4855 -15.063,5.25 -13.34,3.5291 -32.873,6.9601 -56.969,10.25 -48.188,6.5802 -114.645,12.5132 -187.374,17.5 -145.46,9.9739 -316.037,16.1563 -416.063,16.1563 -34.736,0 -68.296,-0.7668 -100.094,-2.1563 l -0.719,6 c 32.024,1.3996 65.822,2.1563 100.813,2.1563 100.272,0 270.86,-6.172 416.469,-16.1563 72.804,-4.992 139.339,-10.9167 187.781,-17.5312 24.221,-3.3073 43.919,-6.7871 57.719,-10.4375 6.899,-1.8252 12.285,-3.6815 16.218,-5.7187 1.968,-1.0188 3.612,-2.0507 4.876,-3.3438 1.263,-1.2931 2.218,-2.9967 2.218,-4.9375 0,-1.9408 -0.955,-3.6756 -2.218,-4.9687 -1.264,-1.2932 -2.908,-2.3251 -4.876,-3.3438 -3.933,-2.0373 -9.319,-3.8934 -16.218,-5.7188 -13.8,-3.6504 -33.498,-7.1302 -57.719,-10.4374 -48.442,-6.6146 -114.977,-12.5393 -187.781,-17.5313 -145.609,-9.9841 -316.197,-16.1563 -416.469,-16.1563 z m -68.437,20.2813 c -5.908,0 -11.737,0.027 -17.532,0.094 1.751,2.189 3.568,4.1971 5.25,5.9376 4.065,-0.033 8.164,-0.031 12.282,-0.031 63.161,0 173.474,3.9179 267.906,10.2187 47.216,3.1506 90.481,6.9099 121.844,11.0626 15.68,2.0763 28.401,4.2576 37.031,6.4687 4.314,1.1055 7.639,2.2541 9.625,3.25 0.718,0.3602 1.005,0.6169 1.344,0.875 -0.338,0.2581 -0.625,0.5145 -1.344,0.875 -1.986,0.9959 -5.311,2.1132 -9.625,3.2187 -8.63,2.2112 -21.351,4.3925 -37.031,6.4688 -31.363,4.1525 -74.628,7.912 -121.844,11.0625 -94.432,6.3009 -204.745,10.2187 -267.906,10.2187 -9.993,0 -19.815,-0.1226 -29.469,-0.3124 l -0.719,6 c 9.887,0.1977 19.946,0.3124 30.188,0.3124 63.407,0 173.734,-3.9081 268.312,-10.2187 47.289,-3.1553 90.612,-6.9087 122.219,-11.0937 15.803,-2.0926 28.673,-4.2995 37.75,-6.625 4.538,-1.163 8.127,-2.3095 10.812,-3.6563 1.343,-0.6734 2.455,-1.4022 3.407,-2.3437 0.95,-0.9416 1.812,-2.2828 1.812,-3.9063 0,-1.6235 -0.862,-2.996 -1.812,-3.9375 -0.952,-0.9415 -2.064,-1.6391 -3.407,-2.3125 -2.685,-1.3468 -6.274,-2.5247 -10.812,-3.6875 -9.077,-2.3256 -21.947,-4.5325 -37.75,-6.625 -31.607,-4.1851 -74.93,-7.9384 -122.219,-11.0938 -94.578,-6.3105 -204.905,-10.2187 -268.312,-10.2187 z m 2354.25,22.375 c -133.267,0.3798 -257.264,16.776 -350.938,36.625 -62.449,13.2327 -111.378,27.964 -140.812,40.6563 -14.72,6.346 -24.506,11.8994 -29.188,17.5624 -1.171,1.416 -2.041,2.8953 -2.438,4.5626 -0.395,1.6669 -0.166,3.5365 0.688,5.0624 1.712,3.0523 5.025,4.6049 9.531,5.8126 18.268,4.8946 50.999,8.8158 93.438,12 l 100.125,-0.4063 c -2.973,-0.1268 -5.974,-0.2444 -8.906,-0.375 -86.262,-3.8419 -154.875,-9.4386 -183.094,-17 -3.81,-1.0207 -5.575,-2.4328 -5.875,-2.9687 -0.151,-0.2681 -0.161,-0.3266 -0.06,-0.75 0.102,-0.4236 0.44,-1.1832 1.219,-2.125 3.115,-3.7681 12.556,-9.6742 26.937,-15.875 28.764,-12.4021 77.502,-27.1355 139.688,-40.3126 115.97,-24.5732 278.87,-43.815 447.938,-33.7187 l 0.03,-6.0313 c -33.105,-1.9645 -65.973,-2.8108 -98.281,-2.7187 z"
                     style="color:#000000;fill:#caab43;fill-opacity:1;fill-rule:nonzero;stroke:none;stroke-width:13.77000046;marker:none;visibility:visible;display:inline;overflow:visible;enable-background:accumulate"
                     inkscape:connector-curvature="0" />
                </g>
                <path
                   inkscape:connector-curvature="0"
                   style="opacity:0.34513275;color:#000000;fill:#f6de78;fill-opacity:1;fill-rule:nonzero;stroke:none;stroke-width:13.77000046;marker:none;visibility:visible;display:inline;overflow:visible;enable-background:accumulate"
                   d="m 16440.375,1666.2812 -579.375,0.3438 -114.125,-0.2812 -446.844,3.5937 c 0,0 -5.14,13.6078 -4.562,31.5 1.011,31.3377 2.181,75.8301 0.906,83.4687 -1.031,6.1789 1.136,25.5986 3.469,43 -1.224,-47.4555 8.406,-137.6562 16.156,-141.5312 8,-4 712.685,-3.266 740.969,-0.4375 12.764,1.2765 189.28,-8.401 383.406,-19.6563 z m 963.469,1.7813 c 67.634,7.0327 118.221,13.6104 126.75,17.875 28.285,14.1421 67.875,16.9687 67.875,16.9687 l 155.562,-14.1562 c 0,0 16.969,19.8113 16.969,31.125 0,1.5031 -0.156,8.5755 -0.344,17.25 -24.831,10.0249 -46.36,21.0275 -42.656,23.25 4.283,2.5699 32.52,17.7013 41.656,22.5938 -1.669,72.0888 -4.312,180.1562 -4.312,180.1562 0,0 -311.122,22.625 -339.406,22.625 -14.583,0 -232.834,5.2143 -445.469,10.3125 l 796.687,-3.1563 1.688,-35.4687 0.781,-169.0937 0.06,-14.5938 c -3.275,-1.3636 -6.412,-2.6653 -9.719,-4.0312 -11.518,-4.7566 -22.286,-9.1163 -25.969,-10.3438 -4.742,-1.5807 9.402,-8.1686 26.469,-13.3125 0,0.012 0,0.019 0,0.031 1.304,-0.3928 2.616,-0.7768 3.937,-1.1563 0.51,-0.1464 1.019,-0.2947 1.532,-0.4375 1.29,-0.3512 2.577,-0.7058 3.874,-1.0312 l 0.03,-9.9376 0.156,-30.625 -2.844,-30.9687 -197.218,-0.1563 -27.282,7 -43.781,-7.0312 -105.031,-3.6875 z m -2084.094,193.4063 c 0.939,0.8313 1.625,1.4374 1.625,1.4374 l -21.063,30.5938 -5.593,47.3438 c 6.894,-24.7783 14.303,-38.5127 17.281,-44.4688 4,-8 20,-28 20,-28 l -12.25,-6.9062 z m 650.969,116.3124 c -27.348,0.035 -50.913,1.236 -66.469,5.125 -45.255,11.314 -186.683,2.8431 -220.625,8.5 -6.391,1.0654 -13.571,2.4333 -21.094,4.0626 l 782.625,1.1562 c -110.66,-8.0196 -258.678,-18.2899 -306.156,-16.5312 -50.116,1.8561 -116.071,-2.3796 -168.281,-2.3126 z"
                   transform="matrix(0.2642842,0,0,0.26458334,6.0672604,56.515846)"
                   id="path22315" />
              </g>
            </g>
          </g>
        </g>
        <g
           id="g22317"
           transform="matrix(2.0566098,0,0,2.0544403,-7566.0503,-838.23656)">
          <g
             id="g22319">
            <path
               style="color:#000000;fill:#ab8130;fill-opacity:1;fill-rule:nonzero;stroke:#3b2213;stroke-width:19.91480637;stroke-linejoin:round;stroke-miterlimit:4;stroke-opacity:1;stroke-dasharray:none;marker:none;visibility:visible;display:inline;overflow:visible;enable-background:accumulate"
               d="m 21682.188,2840.75 0.06,7.7812 12.75,3.8438 -12.688,5.8125 0.219,38.5937 3.469,16.5938 -3.281,11.1562 0.156,24.5 27.875,28.875 85.5,2 c 12.494,-1.5841 37.741,-0.056 54.531,-0.625 21.251,-0.7203 165.685,-3.4021 239.188,-1.375 l 120.843,0 c 38.452,-2.8179 308.586,-3.5312 312.188,-3.5312 9,0 108,3 119,3 4.295,0 16.078,0.2786 29.062,0.5312 l 42.344,0 c 1.841,-0.1341 21.125,-0.2967 21.594,-0.5312 4,-2 41,-5 41,-5 0,0 30.447,2.3903 50.219,5.5312 l 33.031,0 37.281,-28.875 0,-28.0937 c -11.56,-1.7026 -28.123,-4.156 -30.125,-4.6563 -2.124,-0.5312 17.324,-4.2452 30.125,-6.0624 l 0.75,-48.7188 c -4.403,-0.6964 -14.164,-3.6607 -13.469,-6.0938 0.87,-3.0425 9.917,-4.5738 12.719,-6.4687 l 0,-8.1875 z"
               transform="matrix(0.26458334,0,0,0.26458334,-6.3049604e-6,18.562493)"
               id="path22321"
               inkscape:connector-curvature="0"
               sodipodi:nodetypes="ccccccccccsccssccscccccccccccc" />
            <path
               style="color:#000000;fill:#3b2213;fill-opacity:1;fill-rule:nonzero;stroke:#3b2213;stroke-width:12;stroke-linejoin:round;stroke-opacity:1;marker:none;visibility:visible;display:inline;overflow:visible;enable-background:accumulate"
               d="m 21682.188,2829.75 0.561,18.1433 25.354,0.7199 -25.432,48.2463 3.818,16.0015 -4.153,11.2635 0.539,13.9067 27.875,28.875 85.5,2 c 12.494,-1.5842 37.741,-0.056 54.531,-0.625 21.251,-0.7203 165.685,-3.4021 239.188,-1.375 l 120.843,0 c 38.453,-2.8179 308.586,-3.5312 312.188,-3.5312 9,0 108,3 119,3 4.295,0 16.077,0.2786 29.062,0.5312 l 42.344,0 c 1.841,-0.1342 21.125,-0.2966 21.594,-0.5312 4,-2 41,-5 41,-5 0,0 30.447,2.3902 50.219,5.5312 l 33.031,0 37.281,-28.875 0,-16.4374 c -10.889,-1.8265 -23.522,-3.9968 -24.781,-4.4688 -1.609,-0.6034 9.479,-4.5893 24.781,-8.3438 l 0,-35.5624 c -3.385,-0.949 -6.281,-10.8438 -6.281,-10.8438 0,0 2.544,-6.3492 6.281,-14.9062 l 0,-17.7188 -149.999,9.9426 -739.517,-1.1204 z"
               transform="matrix(0.26458334,0,0,0.26458334,-6.3049604e-6,18.562493)"
               id="path22323"
               inkscape:connector-curvature="0"
               sodipodi:nodetypes="cccccccccsccssccccccccccccccccc" />
            <path
               style="color:#000000;fill:#ab8130;fill-opacity:1;fill-rule:nonzero;stroke:none;stroke-width:12;marker:none;visibility:visible;display:inline;overflow:visible;enable-background:accumulate"
               d="m 21682.188,2840.75 0.06,7.7812 12.75,3.8438 -12.688,5.8125 0.219,38.5937 3.469,16.5938 -3.281,11.1562 0.156,24.5 27.875,28.875 85.5,2 c 12.494,-1.5841 37.741,-0.056 54.531,-0.625 21.251,-0.7203 165.685,-3.4021 239.188,-1.375 l 120.843,0 c 38.452,-2.8179 308.586,-3.5312 312.188,-3.5312 9,0 108,3 119,3 4.295,0 16.078,0.2786 29.062,0.5312 l 42.344,0 c 1.841,-0.1341 21.125,-0.2967 21.594,-0.5312 4,-2 41,-5 41,-5 0,0 30.447,2.3903 50.219,5.5312 l 33.031,0 37.281,-28.875 0,-28.0937 c -11.56,-1.7026 -28.123,-4.156 -30.125,-4.6563 -2.124,-0.5312 17.324,-4.2452 30.125,-6.0624 l 0,-49.4688 c -4.403,-0.6964 -8.164,-1.4107 -7.469,-3.8438 0.87,-3.0425 4.667,-6.0738 7.469,-7.9687 l 0,-8.1875 -1214.343,0 z"
               transform="matrix(0.26458334,0,0,0.26458334,-6.3049604e-6,18.562493)"
               id="path22325"
               inkscape:connector-curvature="0" />
            <path
               style="opacity:0.4557522;color:#000000;fill:#604107;fill-opacity:1;fill-rule:nonzero;stroke:none;stroke-width:12;marker:none;visibility:visible;display:inline;overflow:visible;enable-background:accumulate"
               d="m 21686.25,2924.7812 c -1.374,4.3109 -2.497,8.7574 -3.438,13.2188 l 0.06,11.0312 26.813,27.7813 c 1.496,-12.1342 6.202,-27.9678 4.156,-32.9375 -2.475,-6.0104 -3.178,-8.1305 -9.188,-11.3125 -6.011,-3.182 -18.406,-7.7813 -18.406,-7.7813 z"
               transform="matrix(0.26458334,0,0,0.26458334,-6.3049604e-6,18.562493)"
               id="path22327"
               inkscape:connector-curvature="0" />
            <path
               style="opacity:0.4557522;color:#000000;fill:#604107;fill-opacity:1;fill-rule:nonzero;stroke:none;stroke-width:12;marker:none;visibility:visible;display:inline;overflow:visible;enable-background:accumulate"
               d="m 22760.031,2931.3125 c -10.821,0.046 -27.25,4.7813 -27.25,4.7813 0,0 -0.905,18.6853 0.563,41.4062 0.894,-0.034 1.581,-0.087 1.656,-0.125 4,-2 41,-5 41,-5 0,0 1.58,0.1277 2.312,0.1875 -1.576,-7.3299 -3.485,-14.99 -4.531,-22.3125 -2.121,-14.8493 -0.694,-9.2101 -4.937,-16.2812 -1.193,-1.9889 -4.578,-2.6742 -8.813,-2.6563 z m 121.781,0.4687 c -0.473,0.01 -0.895,0.018 -1.25,0.063 -5.657,0.7071 -23.343,9.1874 -23.343,9.1874 1.452,12.4915 1.832,25.5951 1.969,36.875 l 0.06,0 37.281,-28.875 0,-15.0937 c -6.042,-1.4405 -11.605,-2.196 -14.719,-2.1563 z"
               transform="matrix(0.26458334,0,0,0.26458334,-6.3049604e-6,18.562493)"
               id="path22329"
               inkscape:connector-curvature="0" />
            <path
               sodipodi:nodetypes="cccccccccccccccccssccccccccccccccccccccccc"
               inkscape:connector-curvature="0"
               id="path22331"
               d="m 21682.188,2829.75 0.124,18.8125 12.688,3.8125 12.106,0.1885 c 20.561,0.1196 28.206,0.7803 28.206,0.7803 l -45.687,1.5 -7.25,3.3124 0.25,38.9688 3.375,16.25 -3.219,10.9062 0,0.031 0.09,13.7187 27.875,28.875 85.5,2 c 12.494,-1.5842 37.741,-0.055 54.531,-0.625 21.251,-0.7203 165.685,-3.4021 239.188,-1.375 l 120.843,0 c 38.456,-2.8179 308.586,-3.5312 312.188,-3.5312 9,0 108,3 119,3 4.295,0 16.077,0.2786 29.062,0.5312 l 42.344,0 c 1.841,-0.1342 21.125,-0.2966 21.594,-0.5312 4,-2 41,-5 41,-5 0,0 30.447,2.3902 50.219,5.5312 l 33.031,0 37.281,-28.875 0,-16.5312 -5.156,-1.3438 c -0.04,-0.01 -0.08,-0.025 -0.125,-0.031 -7.039,-1.0687 -21.888,-3.314 -22.25,-3.375 -1.334,-0.2227 -2.24,-0.3801 -2.594,-0.4688 -0.07,-0.017 -0.1,-0.039 -0.125,-0.062 -0.03,-0.026 -0.02,-0.061 0,-0.094 0.07,-0.1066 0.427,-0.2334 0.969,-0.4062 0.326,-0.1038 0.687,-0.2211 1.156,-0.3438 0.588,-0.1539 24.963,-4.6179 26.782,-4.9375 0.426,-0.9779 0.857,-1.9645 1.343,-3.0313 l 0,-46.625 -13.375,-5.5624 13.375,-6.2813 0,-19.1875 z"
               style="color:#000000;fill:#ceb254;fill-opacity:1;fill-rule:nonzero;stroke:none;stroke-width:12;marker:none;visibility:visible;display:inline;overflow:visible;enable-background:accumulate"
               transform="matrix(0.26458334,0,0,0.26458334,-6.3049604e-6,18.562493)" />
            <path
               style="color:#000000;fill:#774321;fill-opacity:1;fill-rule:nonzero;stroke:none;stroke-width:12;marker:none;visibility:visible;display:inline;overflow:visible;enable-background:accumulate"
               d="m 22882.948,2855.3961 c 0.53,-0.1768 6.717,-3.5355 7.159,-3.4472 0.442,0.088 5.922,-1.2374 5.834,-0.7955 -0.09,0.442 -1.149,7.4247 -1.591,7.1595 -0.442,-0.2652 -11.402,-2.9168 -11.402,-2.9168 z"
               id="path22333"
               inkscape:connector-curvature="0"
               transform="matrix(0.26458334,0,0,0.26458334,-6.3049604e-6,18.562493)" />
            <path
               style="color:#000000;fill:#774321;fill-opacity:1;fill-rule:nonzero;stroke:none;stroke-width:12;marker:none;visibility:visible;display:inline;overflow:visible;enable-background:accumulate"
               d="m 22866.25,2916.1122 c 1,-0.25 30,-6.5 30,-6.5 l -4.75,9.25 z"
               id="path22335"
               inkscape:connector-curvature="0"
               transform="matrix(0.26458334,0,0,0.26458334,-6.3049604e-6,18.562493)" />
            <path
               sodipodi:nodetypes="cccccccccccsscscsccssc"
               inkscape:connector-curvature="0"
               style="color:#000000;fill:#f6de78;fill-opacity:1;fill-rule:nonzero;stroke:none;stroke-width:12;marker:none;visibility:visible;display:inline;overflow:visible;enable-background:accumulate"
               d="m 21682.75,2897.7188 3.25,15.6562 -3.219,10.9062 0,0.031 0.09,13.7187 27.875,28.875 85.5,2 c 12.494,-1.5842 37.741,-0.055 54.531,-0.625 21.251,-0.7203 165.685,-3.4021 239.188,-1.375 l 120.843,0 c 23.113,-1.6936 140.126,-0.8507 211.844,-3.0937 -2.865,-0.905 -74.887,-3.6642 -97.868,-4.7249 -6.039,-0.2787 -41.345,3.186 -76.741,3.8629 -49.046,0.9379 -101.842,-0.8746 -109.235,-2.1067 -12.728,-2.1214 -75.664,-1.4259 -99,-0.7188 -23.334,0.7071 -233.35,5.6679 -237.593,6.375 -4.242,0.7071 -14.148,-0.7188 -21.219,-0.7188 -7.071,0 -62.933,-5.6446 -66.469,-4.9374 -3.535,0.7071 -23.327,-22.6207 -26.156,-26.1563 -2.828,-3.5355 -2.832,-4.2457 -2.125,-7.7813 0.707,-3.5356 3.531,-10.6206 3.531,-14.1562 0,-2.1892 -3.081,-7.8462 -7.031,-15.0312 z"
               transform="matrix(0.26458334,0,0,0.26458334,-6.3049604e-6,18.562493)"
               id="path22337" />
            <path
               style="color:#000000;fill:#f6de78;fill-opacity:1;fill-rule:nonzero;stroke:none;stroke-width:12;marker:none;visibility:visible;display:inline;overflow:visible;enable-background:accumulate"
               d="m 22896.531,2847.75 c -6.935,2.2855 -15.632,7.3144 -17.375,7.75 -2.828,0.7071 10.59,5.6286 14.125,7.75 3.536,2.1213 -1.406,44.5625 -1.406,44.5625 0,0 -2.826,1.3983 -11.313,2.8125 -8.485,1.4142 -25.442,5.6716 -21.906,8.5 3.535,2.8284 34.625,6.375 34.625,6.375 l -2.125,11.3125 c 0,0 -18.362,16.2457 -23.312,19.7813 -4.949,3.5356 -9.906,5.6758 -15.563,4.9687 -5.657,-0.7071 -59.397,-8.5116 -66.469,-9.2187 -7.071,-0.7072 -47.385,8.5036 -53.75,10.625 -2.072,0.6908 -6.949,2.1413 -13.937,3.8437 6.294,-0.1113 16.533,-0.2666 16.875,-0.4375 4,-2 41,-5 41,-5 0,0 30.447,2.3902 50.219,5.5312 l 33.031,0 37.281,-28.875 0,-16.5312 -5.156,-1.3438 c -0.04,-0.01 -0.08,-0.025 -0.125,-0.031 -7.039,-1.0687 -21.888,-3.314 -22.25,-3.375 -1.334,-0.2227 -2.24,-0.3801 -2.594,-0.4688 -0.07,-0.017 -0.1,-0.039 -0.125,-0.062 -0.03,-0.026 -0.02,-0.061 0,-0.094 0.07,-0.1066 0.427,-0.2334 0.969,-0.4062 0.326,-0.1038 0.687,-0.2211 1.156,-0.3438 0.588,-0.1539 24.963,-4.6179 26.782,-4.9375 0.426,-0.9779 0.857,-1.9645 1.343,-3.0313 l 0,-46.625 -13.375,-5.5624 13.375,-6.2813 0,-1.1875 z"
               transform="matrix(0.26458334,0,0,0.26458334,-6.3049604e-6,18.562493)"
               id="path22339"
               inkscape:connector-curvature="0" />
            <path
               id="path22341"
               transform="matrix(0.26458334,0,0,0.26458334,-6.3049604e-6,18.562493)"
               d="m 21682.188,2829.75 0.124,18.8125 4,1.1875 -0.124,-18 1205.406,0 0,19.1875 -13.282,6.2813 13.282,5.5624 0,46.625 c -0.293,0.6485 -0.549,1.2387 -0.813,1.8438 1.246,-0.2268 4.114,-0.7616 4.407,-0.8125 0.426,-0.9779 0.857,-1.9642 1.343,-3.0313 l 0,-46.625 -13.375,-5.5624 13.375,-6.2813 0,-19.1875 -1214.343,0 z m 17.531,22 c -1.165,-0.01 -1.88,0.01 -1.969,0.031 -0.241,0.06 -1.123,0.664 -2.125,1.3438 19.631,0.1144 39.687,0.2188 39.687,0.2188 0,0 -27.438,-1.5431 -35.593,-1.5938 z m 35.593,1.5938 -45.687,1.5 -7.25,3.3124 0.25,38.9688 3.375,16.25 -3.219,10.9062 0,0.031 0.09,13.7187 27.875,28.875 1.906,0.031 -25.781,-26.9063 -0.09,-13.7187 0,-0.031 3.188,-10.9062 -3.344,-16.25 -0.25,-38.9688 7.313,-3.375 c 1.839,-0.7276 3.343,-1.2812 3.343,-1.2812 l 38.281,-2.1562 z m -41.374,-0.4688 -0.5,0.2188 c 0.644,0 0.664,0 1.312,0 l -0.812,-0.2188 z m 1174.031,63.6875 c -1.212,0.2289 -4.215,0.7867 -4.313,0.8125 -0.465,0.1228 -0.8,0.2399 -1.125,0.3438 -0.538,0.1726 -0.894,0.2996 -0.969,0.4062 -0.04,0.033 -0.04,0.067 0,0.094 0.03,0.023 0.05,0.044 0.126,0.062 0.35,0.089 1.238,0.2462 2.562,0.4688 0.359,0.061 15.107,2.3063 22.094,3.375 0.04,0 0.09,0.024 0.125,0.031 l 5.125,1.3438 0,16.5312 -34.438,26.875 2.094,0 37.281,-28.875 0,-16.5312 -5.156,-1.3438 c -0.04,-0.01 -0.08,-0.025 -0.125,-0.031 -7.039,-1.0687 -21.888,-3.314 -22.25,-3.375 -0.53,-0.089 -0.644,-0.1198 -1.031,-0.1875 z"
               style="color:#000000;fill:#f6de78;fill-opacity:1;fill-rule:nonzero;stroke:none;stroke-width:12;marker:none;visibility:visible;display:inline;overflow:visible;enable-background:accumulate"
               inkscape:connector-curvature="0" />
            <path
               id="path22343"
               transform="matrix(0.26458334,0,0,0.26458334,-6.3049604e-6,18.562493)"
               d="m 22063.125,2832.2188 c -63.569,10.4242 -128.416,15.9802 -186.406,18.625 -52.273,2.3841 -98.963,2.4103 -134.188,1.5937 -29.076,-0.6743 -50.303,-1.9518 -60.219,-2.9375 l 0,1.5312 6.813,2.0313 c 21.867,0.1269 46.187,0.2813 46.187,0.2813 l -38.531,1.25 c 11.397,0.71 26.665,1.4034 45.657,1.8437 35.307,0.8184 82.089,0.7639 134.468,-1.625 65.054,-2.9671 138.709,-9.5439 209.656,-22.5937 l -23.437,0 z m 304.375,0 c -62.154,3.7461 -122.613,8.5283 -177.719,14.625 -153.441,16.976 -285.274,25.0523 -378.812,29.2187 -46.769,2.083 -83.964,3.1835 -109.5,3.9375 -7.433,0.2196 -13.562,0.3895 -18.969,0.5625 l 0.03,4 c 5.417,-0.1742 11.549,-0.3415 19.031,-0.5625 25.539,-0.754 62.763,-1.8531 109.563,-3.9375 93.601,-4.1692 225.541,-12.2619 379.094,-29.25 77.006,-8.5198 164.498,-14.4599 252.531,-18.5937 l -75.25,0 z m 378.906,9.25 c -176.397,0.061 -293.447,9.8265 -412.968,21.5937 -161.31,15.8807 -327.267,35.4062 -650.188,39.5625 l 0.844,3.9688 c 322.555,-4.1794 488.623,-23.6686 649.75,-39.5313 150.445,-14.8115 296.773,-26.4439 562.687,-19.5313 l 0,-4 c -47.898,-1.2419 -92,-1.9012 -132.875,-2.0312 -5.816,-0.019 -11.56,-0.035 -17.25,-0.031 z m 143.844,12.875 c -118.112,2.5827 -304.76,10.7281 -510.938,23.25 -14.401,0.8746 -23.583,1.732 -28.406,2.625 -1.205,0.2229 -2.134,0.4392 -2.906,0.7187 -0.386,0.1395 -0.744,0.271 -1.125,0.5313 -0.381,0.26 -0.935,0.6992 -1.094,1.625 -0.158,0.9257 0.385,1.7973 0.781,2.1562 0.402,0.3591 0.731,0.504 1.094,0.6562 0.726,0.3043 1.557,0.5015 2.625,0.7188 8.542,1.7401 32.358,3.2515 67.719,4.6875 70.722,2.8717 186.595,5.2512 309.875,6.8125 55.906,0.7082 113.233,1.2304 168.656,1.5625 l 0,-4 c -55.403,-0.3322 -112.712,-0.8547 -168.593,-1.5625 -123.261,-1.5612 -239.147,-3.9443 -309.782,-6.8125 -29.409,-1.1943 -50.468,-2.5204 -61.25,-3.8125 5.105,-0.6222 11.986,-1.26 22.625,-1.9062 203.002,-12.3291 387.228,-20.4154 505.5,-23.125 l -1.875,-0.7813 7.094,-3.3437 z m -1204.25,61.5312 -1.188,4 c 369.181,1.5968 679.397,2.0978 898.438,1.75 110.509,-0.1754 197.873,-0.5693 257.969,-1.1562 12.588,-0.1229 23.281,-0.2711 33.437,-0.4063 -1.597,-0.2426 -5.564,-0.8283 -5.656,-0.8437 -1.334,-0.2227 -2.24,-0.3801 -2.594,-0.4688 -0.07,-0.015 -0.1,-0.039 -0.125,-0.062 -0.04,-0.026 -0.04,-0.061 0,-0.094 0.07,-0.1066 0.427,-0.2337 0.969,-0.4063 0.325,-0.1039 0.687,-0.2209 1.156,-0.3437 0.223,-0.058 5.241,-0.9865 9.719,-1.8126 -10.946,0.1516 -23.043,0.3016 -36.969,0.4376 -60.075,0.5867 -147.403,0.9808 -257.906,1.1562 -218.79,0.3473 -528.609,-0.1576 -897.25,-1.75 z m 1210.531,18.5938 c -103.45,0.9973 -376.947,4.6427 -642,8.75 -153.69,2.3815 -304.21,4.9078 -416.375,7.1562 -56.082,1.1244 -102.55,2.1647 -135.062,3.0938 -2.8,0.08 -4.879,0.171 -7.469,0.25 l 3.75,3.875 c 1.375,-0.04 2.373,-0.084 3.813,-0.125 32.487,-0.9285 78.985,-1.9694 135.062,-3.0938 112.153,-2.2481 262.657,-4.7747 416.344,-7.1562 264.997,-4.1065 538.537,-7.7518 641.937,-8.75 l 0,-4 z"
               style="color:#000000;fill:#e2c866;fill-opacity:1;fill-rule:nonzero;stroke:none;stroke-width:12;marker:none;visibility:visible;display:inline;overflow:visible;enable-background:accumulate"
               inkscape:connector-curvature="0" />
            <path
               id="path22345"
               transform="matrix(0.26458334,0,0,0.26458334,-6.3049604e-6,18.562493)"
               d="m 22063.125,2829.75 c -63.569,10.4242 -128.416,15.9802 -186.406,18.625 -52.273,2.3841 -98.963,2.4104 -134.188,1.5938 -29.076,-0.6744 -50.303,-1.9518 -60.219,-2.9376 l 0,1.5313 11.219,3.375 c 6.917,0.4635 15.779,0.9138 26.031,1.3125 5.114,0.03 15.75,0.094 15.75,0.094 l -7.093,0.2187 c 4.501,0.1457 9.22,0.2904 14.219,0.4063 35.308,0.8184 82.089,0.7639 134.468,-1.625 65.054,-2.9672 138.708,-9.544 209.656,-22.5938 l -23.437,0 z m 304.375,0 c -62.154,3.7461 -122.613,8.5284 -177.719,14.625 -153.441,16.976 -285.274,25.0523 -378.812,29.2188 -46.769,2.083 -83.964,3.1834 -109.5,3.9374 -7.433,0.2197 -13.562,0.3895 -18.969,0.5626 l 0.03,4 c 5.417,-0.1743 11.549,-0.3414 19.031,-0.5626 25.54,-0.754 62.763,-1.853 109.563,-3.9374 93.601,-4.1693 225.541,-12.2619 379.094,-29.25 77.007,-8.5199 164.498,-14.4599 252.531,-18.5938 l -75.25,0 z m 378.906,9.25 c -176.397,0.061 -293.446,9.8265 -412.968,21.5938 -161.31,15.8807 -327.267,35.4061 -650.188,39.5624 l 0.844,3.9688 c 322.555,-4.1793 488.623,-23.6685 649.75,-39.5312 150.445,-14.8116 296.772,-26.4439 562.687,-19.5313 l 0,-4 c -47.898,-1.2419 -92,-1.9012 -132.875,-2.0313 -5.816,-0.018 -11.56,-0.033 -17.25,-0.031 z m 143.844,12.875 c -118.112,2.5827 -304.76,10.7282 -510.938,23.25 -14.401,0.8747 -23.583,1.732 -28.406,2.625 -1.205,0.223 -2.134,0.4392 -2.906,0.7188 -0.386,0.1394 -0.744,0.271 -1.125,0.5312 -0.381,0.26 -0.935,0.6992 -1.094,1.625 -0.158,0.9258 0.384,1.7973 0.781,2.1562 0.402,0.3593 0.731,0.5041 1.094,0.6563 0.726,0.3043 1.557,0.5014 2.625,0.7187 8.542,1.7402 32.358,3.2515 67.719,4.6876 70.722,2.8717 186.595,5.2511 309.875,6.8124 55.906,0.7083 113.232,1.2304 168.656,1.5626 l 0,-4 c -55.403,-0.3322 -112.712,-0.8547 -168.593,-1.5626 -123.262,-1.5612 -239.147,-3.9442 -309.782,-6.8124 -29.409,-1.1944 -50.468,-2.5204 -61.25,-3.8126 5.105,-0.6222 11.986,-1.26 22.625,-1.9062 203.002,-12.3291 387.228,-20.4153 505.5,-23.125 l -1.875,-0.7812 7.094,-3.3438 z m -1204.25,61.5312 -1.188,4 c 369.181,1.5969 679.397,2.0979 898.438,1.75 110.509,-0.1753 197.873,-0.5692 257.969,-1.1562 12.588,-0.123 23.281,-0.271 33.437,-0.4062 -1.597,-0.2426 -5.564,-0.8283 -5.656,-0.8438 -1.334,-0.2227 -2.24,-0.38 -2.594,-0.4688 -0.07,-0.017 -0.1,-0.039 -0.125,-0.062 -0.03,-0.026 -0.02,-0.061 0,-0.094 0.07,-0.1066 0.427,-0.2334 0.969,-0.4062 0.326,-0.1039 0.687,-0.2211 1.156,-0.3438 0.221,-0.058 5.241,-0.9865 9.719,-1.8125 -10.946,0.1516 -23.044,0.3015 -36.969,0.4375 -60.075,0.5868 -147.403,0.9808 -257.906,1.1562 -218.79,0.3474 -528.609,-0.1574 -897.25,-1.75 z M 22896.531,2932 c -103.45,0.9974 -376.947,4.6427 -642,8.75 -153.69,2.3816 -304.21,4.9078 -416.375,7.1562 -56.082,1.1245 -102.55,2.1648 -135.062,3.0938 -2.8,0.08 -4.879,0.171 -7.469,0.25 l 3.75,3.875 c 1.375,-0.04 2.373,-0.084 3.813,-0.125 32.488,-0.9284 78.985,-1.9693 135.062,-3.0938 112.153,-2.2481 262.657,-4.7747 416.344,-7.1562 264.997,-4.1065 538.536,-7.7518 641.937,-8.75 l 0,-4 z"
               style="color:#000000;fill:#caab43;fill-opacity:1;fill-rule:nonzero;stroke:none;stroke-width:12;marker:none;visibility:visible;display:inline;overflow:visible;enable-background:accumulate"
               inkscape:connector-curvature="0" />
          </g>
          <path
             transform="matrix(0.26458334,0,0,0.26458334,-6.3049604e-6,18.562493)"
             inkscape:connector-curvature="0"
             id="path22347"
             d="m 22775,2975.8622 c 0,-5 -0.5,-14.5 -0.5,-14.5 0,0 7,-10.5 6,-8 -1,2.5 -2.5,9 -2.5,9 l 3,14 z"
             style="color:#000000;fill:#3b2213;fill-opacity:1;fill-rule:nonzero;stroke:none;stroke-width:12;marker:none;visibility:visible;display:inline;overflow:visible;enable-background:accumulate" />
          <path
             sodipodi:nodetypes="ccccccccc"
             transform="matrix(0.26458334,0,0,0.26458334,-6.3049604e-6,18.562493)"
             inkscape:connector-curvature="0"
             id="path22349"
             d="m 22898.5,2892.8622 c 0,6.5 -1.53,10.1057 -1.53,10.1057 l -5.628,6.2385 -26.155,4.3881 -70.954,2.0303 70.969,0.5 30.025,-3.7323 2.656,-4.2585 z"
             style="color:#000000;fill:#3b2213;fill-opacity:1;fill-rule:nonzero;stroke:none;stroke-width:12;marker:none;visibility:visible;display:inline;overflow:visible;enable-background:accumulate" />
          <path
             transform="matrix(0.26458334,0,0,0.26458334,-6.3049604e-6,18.562493)"
             inkscape:connector-curvature="0"
             id="path22351"
             d="m 22899,2845.3622 -19.5,9 -28.5,1.5 34.5,0.5 16.5,-7.5 z"
             style="color:#000000;fill:#3b2213;fill-opacity:1;fill-rule:nonzero;stroke:none;stroke-width:12;marker:none;visibility:visible;display:inline;overflow:visible;enable-background:accumulate" />
          <path
             transform="matrix(0.26458334,0,0,0.26458334,-6.3049604e-6,18.562493)"
             inkscape:connector-curvature="0"
             id="path22353"
             d="m 21683.783,2911.1691 c 2.121,0.1768 29.168,0.3536 29.168,0.3536 l -29.345,3.3587 z"
             style="color:#000000;fill:#3b2213;fill-opacity:1;fill-rule:nonzero;stroke:none;stroke-width:12;marker:none;visibility:visible;display:inline;overflow:visible;enable-background:accumulate" />
        </g>
      </g>
    </g>
  </g>
</svg>
