<?xml version="1.0" encoding="UTF-8" standalone="no"?>
<!-- Created with Inkscape (http://www.inkscape.org/) -->

<svg
   xmlns:dc="http://purl.org/dc/elements/1.1/"
   xmlns:cc="http://creativecommons.org/ns#"
   xmlns:rdf="http://www.w3.org/1999/02/22-rdf-syntax-ns#"
   xmlns:svg="http://www.w3.org/2000/svg"
   xmlns="http://www.w3.org/2000/svg"
   xmlns:sodipodi="http://sodipodi.sourceforge.net/DTD/sodipodi-0.dtd"
   xmlns:inkscape="http://www.inkscape.org/namespaces/inkscape"
   width="1608.0315"
   height="276.991"
   viewBox="0 0 425.45829 73.287198"
   version="1.1"
   id="svg23489"
   inkscape:version="0.48.5 r10040"
   sodipodi:docname="panel_light_wood_top_corner_meter_holder.svg">
  <defs
     id="defs23483" />
  <sodipodi:namedview
     id="base"
     pagecolor="#7d848b"
     bordercolor="#666666"
     borderopacity="1.0"
     inkscape:pageopacity="1"
     inkscape:pageshadow="2"
     inkscape:zoom="0.10654466"
     inkscape:cx="-1291.9207"
     inkscape:cy="992.93426"
     inkscape:document-units="px"
     inkscape:current-layer="layer1"
     showgrid="false"
     inkscape:pagecheckerboard="false"
     showborder="true"
     units="px"
     inkscape:window-width="1920"
     inkscape:window-height="1017"
     inkscape:window-x="-8"
     inkscape:window-y="-8"
     inkscape:window-maximized="1"
     inkscape:showpageshadow="false"
     guidetolerance="28"
     fit-margin-top="25"
     fit-margin-left="25"
     fit-margin-right="25"
     fit-margin-bottom="25">
    <inkscape:grid
       type="xygrid"
       id="grid24034"
       spacingx="1px"
       spacingy="1px"
       empspacing="8"
       visible="true"
       enabled="true"
       snapvisiblegridlinesonly="true"
       originx="-3424.4708px"
       originy="971.22849px" />
  </sodipodi:namedview>
  <metadata
     id="metadata23486">
    <rdf:RDF>
      <cc:Work
         rdf:about="">
        <dc:format>image/svg+xml</dc:format>
        <dc:type
           rdf:resource="http://purl.org/dc/dcmitype/StillImage" />
        <dc:title></dc:title>
        <cc:license
           rdf:resource="" />
        <dc:creator>
          <cc:Agent>
            <dc:title>Robert Brooks</dc:title>
          </cc:Agent>
        </dc:creator>
      </cc:Work>
    </rdf:RDF>
  </metadata>
  <g
     inkscape:label="Layer 1"
     inkscape:groupmode="layer"
     id="layer1"
     transform="translate(-906.05784,-480.68364)">
    <g
       id="g15519"
       transform="matrix(1.2612717,0,0,1.2612717,-6319.4273,-476.94064)">
      <g
         id="g15521">
        <path
           style="color:#000000;fill:#ab8130;fill-opacity:1;fill-rule:nonzero;stroke:#3b2213;stroke-width:12;stroke-linejoin:round;stroke-miterlimit:4;stroke-opacity:1;stroke-dasharray:none;marker:none;visibility:visible;display:inline;overflow:visible;enable-background:accumulate"
           d="m 21682.188,2840.75 0.06,7.7812 12.75,3.8438 -12.688,5.8125 0.219,38.5937 3.469,16.5938 -3.281,11.1562 0.156,24.5 27.875,28.875 85.5,2 c 12.494,-1.5841 37.741,-0.056 54.531,-0.625 21.251,-0.7203 165.685,-3.4021 239.188,-1.375 l 120.843,0 c 38.452,-2.8179 308.586,-3.5312 312.188,-3.5312 9,0 108,3 119,3 4.295,0 16.078,0.2786 29.062,0.5312 l 42.344,0 c 1.841,-0.1341 21.125,-0.2967 21.594,-0.5312 4,-2 41,-5 41,-5 0,0 30.447,2.3903 50.219,5.5312 l 33.031,0 37.281,-28.875 0,-28.0937 c -11.56,-1.7026 -28.123,-4.156 -30.125,-4.6563 -2.124,-0.5312 17.324,-4.2452 30.125,-6.0624 l 0.75,-48.7188 c -4.403,-0.6964 -14.164,-3.6607 -13.469,-6.0938 0.87,-3.0425 9.917,-4.5738 12.719,-6.4687 l 0,-8.1875 z"
           transform="matrix(0.26458334,0,0,0.26458334,-6.3049604e-6,18.562493)"
           id="path15523"
           inkscape:connector-curvature="0"
           sodipodi:nodetypes="ccccccccccsccssccscccccccccccc" />
        <path
           style="color:#000000;fill:#3b2213;fill-opacity:1;fill-rule:nonzero;stroke:#3b2213;stroke-width:20.9271698;stroke-linejoin:round;stroke-miterlimit:4;stroke-opacity:1;stroke-dasharray:none;marker:none;visibility:visible;display:inline;overflow:visible;enable-background:accumulate"
           d="m 21682.188,2829.75 0.561,18.1433 25.354,0.7199 -25.432,48.2463 3.818,16.0015 -4.153,11.2635 0.539,33.7875 27.875,28.875 85.5,2 c 12.494,-1.5842 37.741,-0.056 54.531,-0.625 21.251,-0.7203 165.685,-3.4021 239.188,-1.375 l 120.843,0 c 38.453,-2.8179 308.586,-3.5312 312.188,-3.5312 9,0 108,3 119,3 4.295,0 16.077,0.2786 29.062,0.5312 l 42.344,0 c 1.841,-0.1342 21.125,-0.2966 21.594,-0.5312 4,-2 41,-5 41,-5 0,0 30.447,2.3902 50.219,5.5312 l 33.031,0 37.281,-28.875 0,-36.3182 c -10.889,-1.8265 -23.522,-3.9968 -24.781,-4.4688 -1.609,-0.6034 9.479,-4.5893 24.781,-8.3438 l 0,-35.5624 c -3.385,-0.949 -6.281,-10.8438 -6.281,-10.8438 0,0 2.544,-6.3492 6.281,-14.9062 l 0,-17.7188 z"
           transform="matrix(0.26458334,0,0,0.26458334,-6.3049604e-6,18.562493)"
           id="path15525"
           inkscape:connector-curvature="0"
           sodipodi:nodetypes="cccccccccsccssccccccccccccccc" />
        <path
           style="color:#000000;fill:#ab8130;fill-opacity:1;fill-rule:nonzero;stroke:none;stroke-width:12;marker:none;visibility:visible;display:inline;overflow:visible;enable-background:accumulate"
           d="m 21682.188,2840.75 0.06,7.7812 12.75,3.8438 -12.688,5.8125 0.219,38.5937 3.469,16.5938 -3.281,11.1562 0.156,32.3477 27.875,28.875 85.5,2 c 12.494,-1.5841 37.741,-0.056 54.531,-0.625 21.251,-0.7203 165.685,-3.4021 239.188,-1.375 l 120.843,0 c 38.452,-2.8179 308.586,-3.5312 312.188,-3.5312 9,0 108,3 119,3 4.295,0 16.078,0.2786 29.062,0.5312 l 42.344,0 c 1.841,-0.1341 21.125,-0.2967 21.594,-0.5312 4,-2 41,-5 41,-5 0,0 30.447,2.3903 50.219,5.5312 l 33.031,0 37.281,-28.875 0,-35.9414 c -11.56,-1.7026 -28.123,-4.156 -30.125,-4.6563 -2.124,-0.5312 17.324,-4.2452 30.125,-6.0624 l 0,-49.4688 c -4.403,-0.6964 -8.164,-1.4107 -7.469,-3.8438 0.87,-3.0425 4.667,-6.0738 7.469,-7.9687 l 0,-8.1875 -1214.343,0 z"
           transform="matrix(0.26458334,0,0,0.26458334,-6.3049604e-6,18.562493)"
           id="path15527"
           inkscape:connector-curvature="0"
           sodipodi:nodetypes="ccccccccccsccssccsccccccccccccc" />
        <path
           style="opacity:0.4557522;color:#000000;fill:#604107;fill-opacity:1;fill-rule:nonzero;stroke:none;stroke-width:12;marker:none;visibility:visible;display:inline;overflow:visible;enable-background:accumulate"
           d="m 21686.25,2924.7812 c -1.374,4.3109 -2.497,8.7574 -3.438,13.2188 l 0.06,18.8789 26.813,27.7813 c 1.496,-12.1342 6.202,-35.8155 4.156,-40.7852 -2.475,-6.0104 -3.178,-8.1305 -9.188,-11.3125 -6.011,-3.182 -18.406,-7.7813 -18.406,-7.7813 z"
           transform="matrix(0.26458334,0,0,0.26458334,-6.3049604e-6,18.562493)"
           id="path15529"
           inkscape:connector-curvature="0"
           sodipodi:nodetypes="cccccccc" />
        <path
           style="opacity:0.4557522;color:#000000;fill:#604107;fill-opacity:1;fill-rule:nonzero;stroke:none;stroke-width:12;marker:none;visibility:visible;display:inline;overflow:visible;enable-background:accumulate"
           d="m 22760.031,2931.3125 c -10.821,0.046 -27.25,4.7813 -27.25,4.7813 0,0 -0.905,26.533 0.563,49.2539 0.894,-0.034 1.581,-0.087 1.656,-0.125 4,-2 41,-5 41,-5 0,0 1.58,0.1277 2.312,0.1875 -1.576,-7.3299 -3.485,-22.8377 -4.531,-30.1602 -2.121,-14.8493 -0.694,-9.2101 -4.937,-16.2812 -1.193,-1.9889 -4.578,-2.6742 -8.813,-2.6563 z m 121.781,0.4687 c -0.473,0.01 -0.895,0.018 -1.25,0.063 -5.657,0.7071 -23.343,9.1874 -23.343,9.1874 1.452,12.4915 1.832,33.4428 1.969,44.7227 l 0.06,0 37.281,-28.875 0,-22.9414 c -6.042,-1.4405 -11.605,-2.196 -14.719,-2.1563 z"
           transform="matrix(0.26458334,0,0,0.26458334,-6.3049604e-6,18.562493)"
           id="path15531"
           inkscape:connector-curvature="0"
           sodipodi:nodetypes="cccccccccccccccccc" />
        <path
           sodipodi:nodetypes="cccccccccccccccccssccccccccccccccccccccccc"
           inkscape:connector-curvature="0"
           id="path15533"
           d="m 21682.188,2829.75 0.124,18.8125 12.688,3.8125 12.106,0.1885 c 20.561,0.1196 28.206,0.7803 28.206,0.7803 l -45.687,1.5 -7.25,3.3124 0.25,38.9688 3.375,16.25 -3.219,10.9062 0,0.031 0.09,13.7187 27.875,28.875 85.5,2 c 12.494,-1.5842 37.741,-0.055 54.531,-0.625 21.251,-0.7203 165.685,-3.4021 239.188,-1.375 l 120.843,0 c 38.456,-2.8179 308.586,-3.5312 312.188,-3.5312 9,0 108,3 119,3 4.295,0 16.077,0.2786 29.062,0.5312 l 42.344,0 c 1.841,-0.1342 21.125,-0.2966 21.594,-0.5312 4,-2 41,-5 41,-5 0,0 30.447,2.3902 50.219,5.5312 l 33.031,0 37.281,-28.875 0,-16.5312 -5.156,-1.3438 c -0.04,-0.01 -0.08,-0.025 -0.125,-0.031 -7.039,-1.0687 -21.888,-3.314 -22.25,-3.375 -1.334,-0.2227 -2.24,-0.3801 -2.594,-0.4688 -0.07,-0.017 -0.1,-0.039 -0.125,-0.062 -0.03,-0.026 -0.02,-0.061 0,-0.094 0.07,-0.1066 0.427,-0.2334 0.969,-0.4062 0.326,-0.1038 0.687,-0.2211 1.156,-0.3438 0.588,-0.1539 24.963,-4.6179 26.782,-4.9375 0.426,-0.9779 0.857,-1.9645 1.343,-3.0313 l 0,-46.625 -13.375,-5.5624 13.375,-6.2813 0,-19.1875 z"
           style="color:#000000;fill:#ceb254;fill-opacity:1;fill-rule:nonzero;stroke:none;stroke-width:12;marker:none;visibility:visible;display:inline;overflow:visible;enable-background:accumulate"
           transform="matrix(0.26458334,0,0,0.26458334,-6.3049604e-6,18.562493)" />
        <path
           style="color:#000000;fill:#774321;fill-opacity:1;fill-rule:nonzero;stroke:none;stroke-width:12;marker:none;visibility:visible;display:inline;overflow:visible;enable-background:accumulate"
           d="m 22882.948,2855.3961 c 0.53,-0.1768 6.717,-3.5355 7.159,-3.4472 0.442,0.088 5.922,-1.2374 5.834,-0.7955 -0.09,0.442 -1.149,7.4247 -1.591,7.1595 -0.442,-0.2652 -11.402,-2.9168 -11.402,-2.9168 z"
           id="path15535"
           inkscape:connector-curvature="0"
           transform="matrix(0.26458334,0,0,0.26458334,-6.3049604e-6,18.562493)" />
        <path
           style="color:#000000;fill:#774321;fill-opacity:1;fill-rule:nonzero;stroke:none;stroke-width:12;marker:none;visibility:visible;display:inline;overflow:visible;enable-background:accumulate"
           d="m 22866.25,2916.1122 c 1,-0.25 30,-6.5 30,-6.5 l -4.75,9.25 z"
           id="path15537"
           inkscape:connector-curvature="0"
           transform="matrix(0.26458334,0,0,0.26458334,-6.3049604e-6,18.562493)" />
        <path
           sodipodi:nodetypes="cccccccccccsscscsccssc"
           inkscape:connector-curvature="0"
           style="color:#000000;fill:#f6de78;fill-opacity:1;fill-rule:nonzero;stroke:none;stroke-width:12;marker:none;visibility:visible;display:inline;overflow:visible;enable-background:accumulate"
           d="m 21682.75,2897.7188 3.25,15.6562 -3.219,10.9062 0,0.031 0.09,13.7187 27.875,28.875 85.5,2 c 12.494,-1.5842 37.741,-0.055 54.531,-0.625 21.251,-0.7203 165.685,-3.4021 239.188,-1.375 l 120.843,0 c 23.113,-1.6936 140.126,-0.8507 211.844,-3.0937 -2.865,-0.905 -74.887,-3.6642 -97.868,-4.7249 -6.039,-0.2787 -41.345,3.186 -76.741,3.8629 -49.046,0.9379 -101.842,-0.8746 -109.235,-2.1067 -12.728,-2.1214 -75.664,-1.4259 -99,-0.7188 -23.334,0.7071 -233.35,5.6679 -237.593,6.375 -4.242,0.7071 -14.148,-0.7188 -21.219,-0.7188 -7.071,0 -62.933,-5.6446 -66.469,-4.9374 -3.535,0.7071 -23.327,-22.6207 -26.156,-26.1563 -2.828,-3.5355 -2.832,-4.2457 -2.125,-7.7813 0.707,-3.5356 3.531,-10.6206 3.531,-14.1562 0,-2.1892 -3.081,-7.8462 -7.031,-15.0312 z"
           transform="matrix(0.26458334,0,0,0.26458334,-6.3049604e-6,18.562493)"
           id="path15539" />
        <path
           style="color:#000000;fill:#f6de78;fill-opacity:1;fill-rule:nonzero;stroke:none;stroke-width:12;marker:none;visibility:visible;display:inline;overflow:visible;enable-background:accumulate"
           d="m 22896.531,2847.75 c -6.935,2.2855 -15.632,7.3144 -17.375,7.75 -2.828,0.7071 10.59,5.6286 14.125,7.75 3.536,2.1213 -1.406,44.5625 -1.406,44.5625 0,0 -2.826,1.3983 -11.313,2.8125 -8.485,1.4142 -25.442,5.6716 -21.906,8.5 3.535,2.8284 34.625,6.375 34.625,6.375 l -2.125,11.3125 c 0,0 -18.362,16.2457 -23.312,19.7813 -4.949,3.5356 -9.906,5.6758 -15.563,4.9687 -5.657,-0.7071 -59.397,-8.5116 -66.469,-9.2187 -7.071,-0.7072 -47.385,8.5036 -53.75,10.625 -2.072,0.6908 -6.949,2.1413 -13.937,3.8437 6.294,-0.1113 16.533,-0.2666 16.875,-0.4375 4,-2 41,-5 41,-5 0,0 30.447,2.3902 50.219,5.5312 l 33.031,0 37.281,-28.875 0,-16.5312 -5.156,-1.3438 c -0.04,-0.01 -0.08,-0.025 -0.125,-0.031 -7.039,-1.0687 -21.888,-3.314 -22.25,-3.375 -1.334,-0.2227 -2.24,-0.3801 -2.594,-0.4688 -0.07,-0.017 -0.1,-0.039 -0.125,-0.062 -0.03,-0.026 -0.02,-0.061 0,-0.094 0.07,-0.1066 0.427,-0.2334 0.969,-0.4062 0.326,-0.1038 0.687,-0.2211 1.156,-0.3438 0.588,-0.1539 24.963,-4.6179 26.782,-4.9375 0.426,-0.9779 0.857,-1.9645 1.343,-3.0313 l 0,-46.625 -13.375,-5.5624 13.375,-6.2813 0,-1.1875 z"
           transform="matrix(0.26458334,0,0,0.26458334,-6.3049604e-6,18.562493)"
           id="path15541"
           inkscape:connector-curvature="0" />
        <path
           id="path15543"
           transform="matrix(0.26458334,0,0,0.26458334,-6.3049604e-6,18.562493)"
           d="m 21682.188,2829.75 0.124,18.8125 4,1.1875 -0.124,-18 1205.406,0 0,19.1875 -13.282,6.2813 13.282,5.5624 0,46.625 c -0.293,0.6485 -0.549,1.2387 -0.813,1.8438 1.246,-0.2268 4.114,-0.7616 4.407,-0.8125 0.426,-0.9779 0.857,-1.9642 1.343,-3.0313 l 0,-46.625 -13.375,-5.5624 13.375,-6.2813 0,-19.1875 -1214.343,0 z m 17.531,22 c -1.165,-0.01 -1.88,0.01 -1.969,0.031 -0.241,0.06 -1.123,0.664 -2.125,1.3438 19.631,0.1144 39.687,0.2188 39.687,0.2188 0,0 -27.438,-1.5431 -35.593,-1.5938 z m 35.593,1.5938 -45.687,1.5 -7.25,3.3124 0.25,38.9688 3.375,16.25 -3.219,10.9062 0,0.031 0.09,13.7187 27.875,28.875 1.906,0.031 -25.781,-26.9063 -0.09,-13.7187 0,-0.031 3.188,-10.9062 -3.344,-16.25 -0.25,-38.9688 7.313,-3.375 c 1.839,-0.7276 3.343,-1.2812 3.343,-1.2812 l 38.281,-2.1562 z m -41.374,-0.4688 -0.5,0.2188 c 0.644,0 0.664,0 1.312,0 l -0.812,-0.2188 z m 1174.031,63.6875 c -1.212,0.2289 -4.215,0.7867 -4.313,0.8125 -0.465,0.1228 -0.8,0.2399 -1.125,0.3438 -0.538,0.1726 -0.894,0.2996 -0.969,0.4062 -0.04,0.033 -0.04,0.067 0,0.094 0.03,0.023 0.05,0.044 0.126,0.062 0.35,0.089 1.238,0.2462 2.562,0.4688 0.359,0.061 15.107,2.3063 22.094,3.375 0.04,0 0.09,0.024 0.125,0.031 l 5.125,1.3438 0,16.5312 -34.438,26.875 2.094,0 37.281,-28.875 0,-16.5312 -5.156,-1.3438 c -0.04,-0.01 -0.08,-0.025 -0.125,-0.031 -7.039,-1.0687 -21.888,-3.314 -22.25,-3.375 -0.53,-0.089 -0.644,-0.1198 -1.031,-0.1875 z"
           style="color:#000000;fill:#f6de78;fill-opacity:1;fill-rule:nonzero;stroke:none;stroke-width:12;marker:none;visibility:visible;display:inline;overflow:visible;enable-background:accumulate"
           inkscape:connector-curvature="0" />
        <path
           id="path15545"
           transform="matrix(0.26458334,0,0,0.26458334,-6.3049604e-6,18.562493)"
           d="m 22063.125,2832.2188 c -63.569,10.4242 -128.416,15.9802 -186.406,18.625 -52.273,2.3841 -98.963,2.4103 -134.188,1.5937 -29.076,-0.6743 -50.303,-1.9518 -60.219,-2.9375 l 0,1.5312 6.813,2.0313 c 21.867,0.1269 46.187,0.2813 46.187,0.2813 l -38.531,1.25 c 11.397,0.71 26.665,1.4034 45.657,1.8437 35.307,0.8184 82.089,0.7639 134.468,-1.625 65.054,-2.9671 138.709,-9.5439 209.656,-22.5937 l -23.437,0 z m 304.375,0 c -62.154,3.7461 -122.613,8.5283 -177.719,14.625 -153.441,16.976 -285.274,25.0523 -378.812,29.2187 -46.769,2.083 -83.964,3.1835 -109.5,3.9375 -7.433,0.2196 -13.562,0.3895 -18.969,0.5625 l 0.03,4 c 5.417,-0.1742 11.549,-0.3415 19.031,-0.5625 25.539,-0.754 62.763,-1.8531 109.563,-3.9375 93.601,-4.1692 225.541,-12.2619 379.094,-29.25 77.006,-8.5198 164.498,-14.4599 252.531,-18.5937 l -75.25,0 z m 378.906,9.25 c -176.397,0.061 -293.447,9.8265 -412.968,21.5937 -161.31,15.8807 -327.267,35.4062 -650.188,39.5625 l 0.844,3.9688 c 322.555,-4.1794 488.623,-23.6686 649.75,-39.5313 150.445,-14.8115 296.773,-26.4439 562.687,-19.5313 l 0,-4 c -47.898,-1.2419 -92,-1.9012 -132.875,-2.0312 -5.816,-0.019 -11.56,-0.035 -17.25,-0.031 z m 143.844,12.875 c -118.112,2.5827 -304.76,10.7281 -510.938,23.25 -14.401,0.8746 -23.583,1.732 -28.406,2.625 -1.205,0.2229 -2.134,0.4392 -2.906,0.7187 -0.386,0.1395 -0.744,0.271 -1.125,0.5313 -0.381,0.26 -0.935,0.6992 -1.094,1.625 -0.158,0.9257 0.385,1.7973 0.781,2.1562 0.402,0.3591 0.731,0.504 1.094,0.6562 0.726,0.3043 1.557,0.5015 2.625,0.7188 8.542,1.7401 32.358,3.2515 67.719,4.6875 70.722,2.8717 186.595,5.2512 309.875,6.8125 55.906,0.7082 113.233,1.2304 168.656,1.5625 l 0,-4 c -55.403,-0.3322 -112.712,-0.8547 -168.593,-1.5625 -123.261,-1.5612 -239.147,-3.9443 -309.782,-6.8125 -29.409,-1.1943 -50.468,-2.5204 -61.25,-3.8125 5.105,-0.6222 11.986,-1.26 22.625,-1.9062 203.002,-12.3291 387.228,-20.4154 505.5,-23.125 l -1.875,-0.7813 7.094,-3.3437 z m -1204.25,61.5312 -1.188,4 c 369.181,1.5968 679.397,2.0978 898.438,1.75 110.509,-0.1754 197.873,-0.5693 257.969,-1.1562 12.588,-0.1229 23.281,-0.2711 33.437,-0.4063 -1.597,-0.2426 -5.564,-0.8283 -5.656,-0.8437 -1.334,-0.2227 -2.24,-0.3801 -2.594,-0.4688 -0.07,-0.015 -0.1,-0.039 -0.125,-0.062 -0.04,-0.026 -0.04,-0.061 0,-0.094 0.07,-0.1066 0.427,-0.2337 0.969,-0.4063 0.325,-0.1039 0.687,-0.2209 1.156,-0.3437 0.223,-0.058 5.241,-0.9865 9.719,-1.8126 -10.946,0.1516 -23.043,0.3016 -36.969,0.4376 -60.075,0.5867 -147.403,0.9808 -257.906,1.1562 -218.79,0.3473 -528.609,-0.1576 -897.25,-1.75 z m 1210.531,18.5938 c -103.45,0.9973 -376.947,4.6427 -642,8.75 -153.69,2.3815 -304.21,4.9078 -416.375,7.1562 -56.082,1.1244 -102.55,2.1647 -135.062,3.0938 -2.8,0.08 -4.879,0.171 -7.469,0.25 l 3.75,3.875 c 1.375,-0.04 2.373,-0.084 3.813,-0.125 32.487,-0.9285 78.985,-1.9694 135.062,-3.0938 112.153,-2.2481 262.657,-4.7747 416.344,-7.1562 264.997,-4.1065 538.537,-7.7518 641.937,-8.75 l 0,-4 z"
           style="color:#000000;fill:#f6de78;fill-opacity:1;fill-rule:nonzero;stroke:none;stroke-width:12;marker:none;visibility:visible;display:inline;overflow:visible;enable-background:accumulate"
           inkscape:connector-curvature="0" />
        <path
           id="path15547"
           transform="matrix(0.26458334,0,0,0.26458334,-6.3049604e-6,18.562493)"
           d="m 22063.125,2829.75 c -63.569,10.4242 -128.416,15.9802 -186.406,18.625 -52.273,2.3841 -98.963,2.4104 -134.188,1.5938 -29.076,-0.6744 -50.303,-1.9518 -60.219,-2.9376 l 0,1.5313 11.219,3.375 c 6.917,0.4635 15.779,0.9138 26.031,1.3125 5.114,0.03 15.75,0.094 15.75,0.094 l -7.093,0.2187 c 4.501,0.1457 9.22,0.2904 14.219,0.4063 35.308,0.8184 82.089,0.7639 134.468,-1.625 65.054,-2.9672 138.708,-9.544 209.656,-22.5938 l -23.437,0 z m 304.375,0 c -62.154,3.7461 -122.613,8.5284 -177.719,14.625 -153.441,16.976 -285.274,25.0523 -378.812,29.2188 -46.769,2.083 -83.964,3.1834 -109.5,3.9374 -7.433,0.2197 -13.562,0.3895 -18.969,0.5626 l 0.03,4 c 5.417,-0.1743 11.549,-0.3414 19.031,-0.5626 25.54,-0.754 62.763,-1.853 109.563,-3.9374 93.601,-4.1693 225.541,-12.2619 379.094,-29.25 77.007,-8.5199 164.498,-14.4599 252.531,-18.5938 l -75.25,0 z m 378.906,9.25 c -176.397,0.061 -293.446,9.8265 -412.968,21.5938 -161.31,15.8807 -327.267,35.4061 -650.188,39.5624 l 0.844,3.9688 c 322.555,-4.1793 488.623,-23.6685 649.75,-39.5312 150.445,-14.8116 296.772,-26.4439 562.687,-19.5313 l 0,-4 c -47.898,-1.2419 -92,-1.9012 -132.875,-2.0313 -5.816,-0.018 -11.56,-0.033 -17.25,-0.031 z m 143.844,12.875 c -118.112,2.5827 -304.76,10.7282 -510.938,23.25 -14.401,0.8747 -23.583,1.732 -28.406,2.625 -1.205,0.223 -2.134,0.4392 -2.906,0.7188 -0.386,0.1394 -0.744,0.271 -1.125,0.5312 -0.381,0.26 -0.935,0.6992 -1.094,1.625 -0.158,0.9258 0.384,1.7973 0.781,2.1562 0.402,0.3593 0.731,0.5041 1.094,0.6563 0.726,0.3043 1.557,0.5014 2.625,0.7187 8.542,1.7402 32.358,3.2515 67.719,4.6876 70.722,2.8717 186.595,5.2511 309.875,6.8124 55.906,0.7083 113.232,1.2304 168.656,1.5626 l 0,-4 c -55.403,-0.3322 -112.712,-0.8547 -168.593,-1.5626 -123.262,-1.5612 -239.147,-3.9442 -309.782,-6.8124 -29.409,-1.1944 -50.468,-2.5204 -61.25,-3.8126 5.105,-0.6222 11.986,-1.26 22.625,-1.9062 203.002,-12.3291 387.228,-20.4153 505.5,-23.125 l -1.875,-0.7812 7.094,-3.3438 z m -1204.25,61.5312 -1.188,4 c 369.181,1.5969 679.397,2.0979 898.438,1.75 110.509,-0.1753 197.873,-0.5692 257.969,-1.1562 12.588,-0.123 23.281,-0.271 33.437,-0.4062 -1.597,-0.2426 -5.564,-0.8283 -5.656,-0.8438 -1.334,-0.2227 -2.24,-0.38 -2.594,-0.4688 -0.07,-0.017 -0.1,-0.039 -0.125,-0.062 -0.03,-0.026 -0.02,-0.061 0,-0.094 0.07,-0.1066 0.427,-0.2334 0.969,-0.4062 0.326,-0.1039 0.687,-0.2211 1.156,-0.3438 0.221,-0.058 5.241,-0.9865 9.719,-1.8125 -10.946,0.1516 -23.044,0.3015 -36.969,0.4375 -60.075,0.5868 -147.403,0.9808 -257.906,1.1562 -218.79,0.3474 -528.609,-0.1574 -897.25,-1.75 z M 22896.531,2932 c -103.45,0.9974 -376.947,4.6427 -642,8.75 -153.69,2.3816 -304.21,4.9078 -416.375,7.1562 -56.082,1.1245 -102.55,2.1648 -135.062,3.0938 -2.8,0.08 -4.879,0.171 -7.469,0.25 l 3.75,3.875 c 1.375,-0.04 2.373,-0.084 3.813,-0.125 32.488,-0.9284 78.985,-1.9693 135.062,-3.0938 112.153,-2.2481 262.657,-4.7747 416.344,-7.1562 264.997,-4.1065 538.536,-7.7518 641.937,-8.75 l 0,-4 z"
           style="color:#000000;fill:#caab43;fill-opacity:1;fill-rule:nonzero;stroke:none;stroke-width:12;marker:none;visibility:visible;display:inline;overflow:visible;enable-background:accumulate"
           inkscape:connector-curvature="0" />
      </g>
      <path
         transform="matrix(0.26458334,0,0,0.26458334,-6.3049604e-6,18.562493)"
         inkscape:connector-curvature="0"
         id="path15549"
         d="m 22775,2983.7099 c 0,-5 -0.5,-22.3477 -0.5,-22.3477 0,0 7,-10.5 6,-8 -1,2.5 -2.5,9 -2.5,9 l 3,21.8477 z"
         style="color:#000000;fill:#3b2213;fill-opacity:1;fill-rule:nonzero;stroke:none;stroke-width:12;marker:none;visibility:visible;display:inline;overflow:visible;enable-background:accumulate"
         sodipodi:nodetypes="ccsccc" />
      <path
         sodipodi:nodetypes="ccccccccc"
         transform="matrix(0.26458334,0,0,0.26458334,-6.3049604e-6,18.562493)"
         inkscape:connector-curvature="0"
         id="path15551"
         d="m 22898.5,2892.8622 c 0,6.5 -1.53,10.1057 -1.53,10.1057 l -5.628,6.2385 -26.155,4.3881 -70.954,2.0303 70.969,0.5 30.025,-3.7323 2.656,-4.2585 z"
         style="color:#000000;fill:#3b2213;fill-opacity:1;fill-rule:nonzero;stroke:none;stroke-width:12;marker:none;visibility:visible;display:inline;overflow:visible;enable-background:accumulate" />
      <path
         transform="matrix(0.26458334,0,0,0.26458334,-6.3049604e-6,18.562493)"
         inkscape:connector-curvature="0"
         id="path15553"
         d="m 22899,2845.3622 -19.5,9 -28.5,1.5 34.5,0.5 16.5,-7.5 z"
         style="color:#000000;fill:#3b2213;fill-opacity:1;fill-rule:nonzero;stroke:none;stroke-width:12;marker:none;visibility:visible;display:inline;overflow:visible;enable-background:accumulate" />
      <path
         transform="matrix(0.26458334,0,0,0.26458334,-6.3049604e-6,18.562493)"
         inkscape:connector-curvature="0"
         id="path15555"
         d="m 21683.783,2911.1691 c 2.121,0.1768 29.168,0.3536 29.168,0.3536 l -29.345,3.3587 z"
         style="color:#000000;fill:#3b2213;fill-opacity:1;fill-rule:nonzero;stroke:none;stroke-width:12;marker:none;visibility:visible;display:inline;overflow:visible;enable-background:accumulate" />
    </g>
  </g>
</svg>
