<?xml version="1.0" encoding="UTF-8" standalone="no"?>
<!-- Created with Inkscape (http://www.inkscape.org/) -->

<svg
   xmlns:dc="http://purl.org/dc/elements/1.1/"
   xmlns:cc="http://creativecommons.org/ns#"
   xmlns:rdf="http://www.w3.org/1999/02/22-rdf-syntax-ns#"
   xmlns:svg="http://www.w3.org/2000/svg"
   xmlns="http://www.w3.org/2000/svg"
   xmlns:sodipodi="http://sodipodi.sourceforge.net/DTD/sodipodi-0.dtd"
   xmlns:inkscape="http://www.inkscape.org/namespaces/inkscape"
   width="1921.5099"
   height="327.30859"
   viewBox="0 0 508.39947 86.600402"
   version="1.1"
   id="svg23489"
   inkscape:version="0.48.5 r10040"
   sodipodi:docname="panel_light_wood_medium_square.svg">
  <defs
     id="defs23483" />
  <sodipodi:namedview
     id="base"
     pagecolor="#7d848b"
     bordercolor="#666666"
     borderopacity="1.0"
     inkscape:pageopacity="1"
     inkscape:pageshadow="2"
     inkscape:zoom="0.1506769"
     inkscape:cx="-1397.0538"
     inkscape:cy="1173.8321"
     inkscape:document-units="px"
     inkscape:current-layer="layer1"
     showgrid="false"
     inkscape:pagecheckerboard="false"
     showborder="true"
     units="px"
     inkscape:window-width="1920"
     inkscape:window-height="1017"
     inkscape:window-x="-8"
     inkscape:window-y="-8"
     inkscape:window-maximized="1"
     inkscape:showpageshadow="false"
     guidetolerance="28"
     fit-margin-top="25"
     fit-margin-left="25"
     fit-margin-right="25"
     fit-margin-bottom="25">
    <inkscape:grid
       type="xygrid"
       id="grid24034"
       spacingx="1px"
       spacingy="1px"
       empspacing="8"
       visible="true"
       enabled="true"
       snapvisiblegridlinesonly="true"
       originx="-2728.5915px"
       originy="556.61181px" />
  </sodipodi:namedview>
  <metadata
     id="metadata23486">
    <rdf:RDF>
      <cc:Work
         rdf:about="">
        <dc:format>image/svg+xml</dc:format>
        <dc:type
           rdf:resource="http://purl.org/dc/dcmitype/StillImage" />
        <dc:title></dc:title>
        <cc:license
           rdf:resource="" />
        <dc:creator>
          <cc:Agent>
            <dc:title>Robert Brooks</dc:title>
          </cc:Agent>
        </dc:creator>
      </cc:Work>
    </rdf:RDF>
  </metadata>
  <g
     inkscape:label="Layer 1"
     inkscape:groupmode="layer"
     id="layer1"
     transform="translate(-721.93986,-357.66979)">
    <g
       id="g22181"
       transform="matrix(0.98818373,0,0,1.0337897,-597.92798,-1197.2055)">
      <g
         transform="matrix(1.5409431,0,0,1.3243081,-7424.1888,179.26334)"
         id="g22048">
        <g
           transform="translate(-17.212158,37.417735)"
           id="g22050">
          <path
             sodipodi:nodetypes="cccsccccscccccccccccccccccccc"
             inkscape:connector-curvature="0"
             id="path22052"
             transform="matrix(0.12919139,0,0,0.12942075,5113.3154,262.0186)"
             d="m 6859.1562,5467.9062 c -25.5856,3.2387 -117.8641,5.9281 -152.25,7.0938 -43.5219,1.4728 -298.7474,1.1131 -449.2812,-3.0312 0,0 -479.5679,1.0937 -502.0938,1.0937 -8.7981,0 -32.94,-0.5771 -59.5312,-1.0937 l -86.7188,0 c -3.7703,0.2743 -43.2582,0.6141 -44.2187,1.0937 -8.192,4.0887 -83.9687,10.2187 -83.9687,10.2187 0,0 -299.6101,-11.3124 -444.5938,-11.3124 l -354.375,0 -76.3438,59.0312 0,25.75 0,8.0625 0,25.75 1.2188,0.3125 c -0.4096,0.9146 -0.7784,1.7838 -1.2188,2.75 l 0,25.75 0,23.7033 2486.4376,0 -0.4376,-28.4221 -3.75,-18.0937 3.4376,-11.6875 0,-0.062 -0.125,-25.3125 0.125,-0.375 0,-0.062 -0.125,-28.0313 L 7034.25,5472 z"
             style="color:#000000;fill:#ab8130;fill-opacity:1;fill-rule:nonzero;stroke:#3b2213;stroke-width:29.35671234;stroke-linejoin:round;stroke-miterlimit:4;stroke-opacity:1;stroke-dasharray:none;marker:none;visibility:visible;display:inline;overflow:visible;enable-background:accumulate" />
          <path
             sodipodi:nodetypes="cccsccccscccccccccccccccccccccc"
             inkscape:connector-curvature="0"
             id="path22054"
             transform="matrix(0.12919139,0,0,0.12942075,5113.3154,262.0186)"
             d="m 6859.1562,5493.7188 c -25.5856,3.2386 -117.8641,5.8343 -152.25,7 -43.5219,1.4725 -298.7495,1.2066 -449.2812,-2.9376 0,0 -479.5658,1.0938 -502.0938,1.0938 -8.7961,0 -32.938,-0.5771 -59.5312,-1.0938 l -86.7188,0 c -3.7703,0.2744 -43.2582,0.6142 -44.2187,1.0938 -8.192,4.0887 -83.9687,10.2188 -83.9687,10.2188 0,0 -299.6121,-11.3126 -444.5938,-11.3126 l -354.375,0 -76.3438,59.0313 0,33.8125 10.5626,2.75 c 0.082,0.023 0.1598,0.056 0.25,0.062 14.4158,2.1846 44.8211,6.7813 45.5624,6.9063 2.7321,0.455 4.5876,0.7561 5.3126,0.9374 0.1433,0.039 0.1988,0.078 0.25,0.125 0.082,0.053 0.082,0.1201 0,0.1876 -0.1434,0.2177 -0.8588,0.4908 -1.9688,0.8437 -0.6656,0.2124 -1.4145,0.4675 -2.375,0.7187 -1.2022,0.3145 -51.1184,9.4406 -54.8438,10.0938 -0.8724,1.9994 -1.7546,4.0066 -2.75,6.1875 l 0,37.1165 2486.3126,0 -0.25,-16.1165 -6.9063,-33.2187 6.5937,-22.2813 0,-0.062 -0.1874,-28.0625 -57.0938,-59.0313 z"
             style="color:#000000;fill:#ab8130;fill-opacity:1;fill-rule:nonzero;stroke:none;stroke-width:12;marker:none;visibility:visible;display:inline;overflow:visible;enable-background:accumulate" />
          <path
             sodipodi:nodetypes="cccsccscscccccccccccccccccccccc"
             inkscape:connector-curvature="0"
             id="path22056"
             transform="matrix(0.12919139,0,0,0.12942075,5113.3154,262.0186)"
             d="m 6859.1562,5467.9688 c -25.5856,3.2384 -117.8641,5.8657 -152.25,7.0312 -43.5219,1.4728 -298.7495,1.2066 -449.2812,-2.9375 0,0 -479.5658,1.0625 -502.0938,1.0625 -8.7961,0 -32.938,-0.5461 -59.5312,-1.0625 l -86.7188,0 c -3.7703,0.2741 -43.2582,0.5831 -44.2187,1.0625 -8.192,4.0887 -83.9687,10.2188 -83.9687,10.2188 0,0 -299.6121,-11.2813 -444.5938,-11.2813 l -354.375,0 -76.3438,59.0313 0,33.7812 10.5626,2.75 c 0.082,0.023 0.1598,0.054 0.25,0.062 14.4158,2.1848 44.8211,6.7815 45.5624,6.9063 2.7321,0.455 4.5876,0.7559 5.3126,0.9374 0.1433,0.039 0.1988,0.078 0.25,0.125 0.082,0.053 0.082,0.1513 0,0.2188 -0.1434,0.2179 -0.8588,0.4596 -1.9688,0.8125 -0.6656,0.2126 -1.4145,0.4677 -2.375,0.7187 -1.2022,0.3145 -51.1184,9.4404 -54.8438,10.0938 -0.8724,1.9992 -1.7546,4.0064 -2.75,6.1875 l 0,49.3908 2486.5,0 -0.4374,-28.3595 -6.9063,-33.2188 6.5937,-22.3125 0,-0.062 -0.1874,-28.0312 -57.0938,-59.0313 z"
             style="color:#000000;fill:#ceb254;fill-opacity:1;fill-rule:nonzero;stroke:none;stroke-width:12;marker:none;visibility:visible;display:inline;overflow:visible;enable-background:accumulate" />
          <g
             id="g22060"
             class="switchable"
             name="grain">
            <g
               id="g22211"
               class="switchable"
               name="grain">
              <path
                 style="opacity:0.5;color:#000000;fill:#f6de78;fill-opacity:1;fill-rule:nonzero;stroke:none;stroke-width:12;marker:none;visibility:visible;display:inline;overflow:visible;enable-background:accumulate"
                 d="m 6144.5938,5597.4062 c -5.7909,0.013 -6.2418,0.022 -12.125,0.031 -22.0926,8.1412 -40.3181,16.7929 -57.25,25.8125 -39.9259,21.2693 -72.6581,44.3362 -133.4376,67.1875 -14.6681,5.5158 -38.7359,8.2273 -69.5624,8.5625 -30.8328,0.3354 -68.4899,-1.6758 -110.6563,-5.125 -84.3343,-6.8987 -186.7655,-19.7162 -289.4063,-32.125 -102.6314,-12.409 -205.4876,-24.3655 -290.7187,-29.4062 -41.251,-2.4397 -78.3153,-3.3298 -109.3437,-1.8126 l -6.7813,4.5 c 32.047,-2.0484 71.5355,-1.3701 115.8437,1.25 84.9862,5.0263 187.756,16.968 290.375,29.375 102.6191,12.4065 205.1028,25.2737 289.625,32.1876 42.2604,3.457 80.0196,5.4635 111.125,5.125 31.104,-0.3353 55.4732,-2.951 71.3126,-8.9063 61.2616,-23.0342 94.4479,-46.3022 134.0624,-67.4063 19.3589,-10.3129 40.3208,-20.1512 66.9376,-29.25 z m -59.6876,0.094 c -5.0157,0.013 -5.5531,0.053 -10.4687,0.062 -77.7838,33.6538 -134.1032,63.9637 -176.4375,64.625 -119.4447,1.8665 -298.7534,-22.9066 -471.7812,-41.875 -110.7862,-12.1451 -218.9322,-21.9547 -307.5626,-20.75 l -6.2187,4.1563 c 89.2283,-1.7365 199.8681,8.0769 313.1875,20.5 172.9231,18.9564 352.1326,43.8163 472.4062,41.9374 46.3686,-0.7249 105.0186,-33.6288 186.875,-68.6562 z m 248.3126,0.094 c -59.8533,7.731 -110.5556,16.9848 -150.9376,26.75 -31.5553,7.6312 -56.7888,15.5632 -75.3124,23.4374 -18.5223,7.8744 -30.4035,15.5452 -35,23.4063 -2.2945,3.9309 -2.6083,8.0679 -0.625,11.7813 1.9847,3.7133 6.0035,6.8973 11.8437,9.7187 11.3529,5.4865 29.9014,9.735 56.3437,12.5625 l 77.5,0 c -26.4692,-0.2236 -51.5492,-1.3905 -74.6562,-3.75 -27.361,-2.7935 -46.263,-7.1406 -56.9062,-12.2812 -5.3178,-2.5706 -8.4728,-5.282 -9.875,-7.9063 -1.4007,-2.6237 -1.2933,-5.2219 0.5312,-8.3437 3.6474,-6.2442 14.7412,-13.8851 32.875,-21.5938 18.1323,-7.7081 43.192,-15.6331 74.5625,-23.2188 46.313,-11.1999 106.4603,-21.7291 178.5625,-30.0624 -9.8605,-0.1493 -19.6436,-0.325 -28.9062,-0.5 z m 151.875,1.6874 c -115.7711,8.7994 -198.5314,22.0382 -250.8126,35.3126 -21.3327,5.4169 -37.5932,10.8437 -49.0624,16.0312 -11.4616,5.1875 -18.3143,9.9251 -20.3438,15.1562 -1.0155,2.6153 -0.4718,5.4284 1.4375,7.625 1.9108,2.1967 4.9443,3.9198 9,5.3438 8.1115,2.8484 20.4759,4.5724 37.1875,5.1562 66.749,2.3354 175.7314,-11.934 298.1562,-26.9062 122.4249,-14.9722 258.1768,-30.627 377.8126,-31.0938 12.7097,-0.051 24.6778,-0.075 35.9374,-0.094 l -4.4374,-3.9687 c -10.0424,0.02 -20.3672,0.05 -31.5313,0.094 -120.0841,0.4704 -256.0146,16.1178 -378.4687,31.0937 -122.4481,14.9751 -231.5093,29.2069 -297.2813,26.9063 -16.4188,-0.5741 -28.4739,-2.3534 -35.6563,-4.875 -3.5919,-1.2616 -5.8893,-2.6842 -7.0312,-4 -1.148,-1.3155 -1.3633,-2.4263 -0.75,-4 1.2173,-3.1477 7.1123,-7.9415 18.1562,-12.9375 11.0409,-4.9956 27.0786,-10.3504 48.2188,-15.7188 59.8194,-15.1892 160.4835,-30.4571 305.8438,-38.9062 -17.8257,-0.03 -36.6787,-0.1138 -56.375,-0.2188 z m 393.0312,45.75 c -72.1473,-0.1062 -196.6898,18.2634 -330.4688,34.7188 -105.5366,12.9818 -216.712,24.7592 -311.7812,25.5 l 99.25,0 c 69.3069,-4.6965 142.4773,-12.9036 213.125,-21.5938 142.7807,-17.563 275.3512,-37.1573 343.3438,-34.375 16.2847,0.6664 30.6361,1.3719 43.5,2.0313 l 0.1562,-0.4063 0,-0.062 -0.062,-3.5626 c -12.8361,-0.6547 -27.1192,-1.3049 -43.3437,-1.9687 -4.3312,-0.1772 -8.909,-0.2742 -13.7188,-0.2813 z m -1769.6875,18.6563 c 1.2142,0.1783 2.5118,0.3523 2.9063,0.4375 0.1078,0.025 0.1489,0.063 0.1874,0.094 0.062,0.034 0.062,0.081 0,0.125 -0.1078,0.1411 -0.6648,0.3027 -1.5,0.5312 -0.5008,0.1378 -1.0585,0.3062 -1.7812,0.4688 -0.2913,0.065 -7.2935,1.164 -12.75,2.0312 206.2513,4.3991 401.3731,20.3246 577.7188,37.875 l 40.0312,0 c -182.9876,-18.7013 -387.6058,-36.4236 -604.8125,-41.5625 z"
                 transform="matrix(0.17170221,0,0,0.19978987,4838.6843,-147.49851)"
                 id="path22062"
                 inkscape:connector-curvature="0" />
              <path
                 style="color:#000000;fill:#caab43;fill-opacity:1;fill-rule:nonzero;stroke:none;stroke-width:12;marker:none;visibility:visible;display:inline;overflow:visible;enable-background:accumulate"
                 d="m 6132.4375,5594.7812 c -22.08,8.1384 -40.294,16.8281 -57.2187,25.8438 -39.9259,21.2693 -72.6596,44.3363 -133.4376,67.1875 -14.6681,5.5158 -38.7359,8.1959 -69.5624,8.5313 -30.8328,0.3355 -68.4899,-1.6447 -110.6563,-5.0938 -84.3343,-6.8988 -186.7671,-19.7475 -289.4063,-32.1562 -102.6329,-12.4091 -205.4876,-24.3656 -290.7187,-29.4063 -41.21,-2.4371 -78.2389,-3.3233 -109.25,-1.8125 l -6.8125,4.5312 c 32.0361,-2.0436 71.5013,-1.3684 115.7812,1.25 84.9862,5.0263 187.756,16.968 290.375,29.375 102.6191,12.4066 205.1028,25.2737 289.625,32.1876 42.2604,3.457 80.0196,5.4322 111.125,5.0937 31.104,-0.3354 55.4732,-2.951 71.3126,-8.9063 61.2616,-23.0342 94.4479,-46.3022 134.0624,-67.4062 19.3497,-10.308 40.3091,-20.1236 66.9063,-29.2188 -5.7702,0.011 -6.2312,-0.011 -12.0937,0 -0.015,10e-5 -0.016,0 -0.031,0 z m -47.5313,0.094 c -5.0157,0.013 -5.5531,0.022 -10.4687,0.031 -77.7838,33.6539 -134.1032,63.9639 -176.4375,64.625 -119.4447,1.8666 -298.7534,-22.9065 -471.7812,-41.875 -110.7862,-12.1451 -218.9322,-21.9234 -307.5626,-20.7187 l -6.1874,4.125 c 89.2229,-1.7335 199.8499,8.1097 313.1562,20.5313 172.9231,18.9563 352.1342,43.8163 472.4062,41.9374 46.3701,-0.7249 105.0186,-33.6288 186.875,-68.6562 z m 247.9376,0.125 c -59.688,7.7212 -110.266,16.9429 -150.5626,26.6875 -31.5553,7.6312 -56.7888,15.5944 -75.3124,23.4687 -18.5223,7.8744 -30.405,15.5139 -35,23.375 -2.2945,3.9309 -2.6083,8.0679 -0.625,11.7813 1.9847,3.7134 6.0035,6.8973 11.8437,9.7187 11.6788,5.6432 30.9292,9.9876 58.5937,12.8126 10.0389,1.025 20.4545,1.8051 31.1563,2.4062 l 114.75,0 c 82.7233,-3.5886 173.551,-13.5157 260.5625,-24.2188 142.7807,-17.5631 275.3512,-37.1573 343.3438,-34.375 16.3293,0.6683 30.7348,1.339 43.625,2 l 0,-2.7187 -0.031,-1.3125 c -12.8361,-0.6547 -27.1192,-1.3049 -43.3437,-1.9688 -69.2978,-2.836 -201.49,16.8852 -344.1876,34.4376 -142.6974,17.5528 -295.7263,32.9679 -405.2812,21.7812 -27.361,-2.7935 -46.263,-7.1719 -56.9062,-12.3125 -5.3178,-2.5706 -8.4728,-5.282 -9.875,-7.9063 -1.4023,-2.6237 -1.2933,-5.2219 0.5312,-8.3437 3.6474,-6.2441 14.7724,-13.8851 32.9062,-21.5937 18.1324,-7.7082 43.1623,-15.6332 74.5313,-23.2188 46.2524,-11.1855 106.3048,-21.7031 178.2813,-30.0312 -9.9431,-0.1501 -19.666,-0.2916 -29,-0.4688 z m 152.1874,1.6562 c -115.738,8.7994 -198.4799,22.0094 -250.75,35.2813 -21.3327,5.417 -37.5948,10.8439 -49.0624,16.0313 -11.4632,5.1874 -18.3143,9.9563 -20.3438,15.1874 -1.0155,2.6153 -0.4718,5.3973 1.4375,7.5938 1.9108,2.1967 4.9443,3.9197 9,5.3438 8.1115,2.8484 20.4759,4.6034 37.1875,5.1874 66.749,2.3352 175.7314,-11.9652 298.1562,-26.9374 122.4249,-14.9723 258.1768,-30.6269 377.8126,-31.0938 12.6986,-0.049 24.6551,-0.075 35.9062,-0.094 l -4.4688,-3.9687 c -10.0236,0.02 -20.3267,0.05 -31.4687,0.094 -120.0841,0.4705 -256.0162,16.1491 -378.4687,31.125 -122.4481,14.9752 -231.5093,29.1757 -297.2813,26.875 -16.4188,-0.574 -28.4739,-2.3533 -35.6563,-4.875 -3.5919,-1.2614 -5.8893,-2.6842 -7.0312,-4 -1.148,-1.3154 -1.3633,-2.395 -0.75,-3.9687 1.2189,-3.1478 7.1123,-7.9728 18.1562,-12.9687 11.0409,-4.9958 27.0786,-10.3505 48.2188,-15.7188 59.8065,-15.1862 160.4405,-30.4562 305.75,-38.9062 -8.8842,-0.015 -18.0325,-0.029 -27.4062,-0.063 -9.4281,-0.033 -19.0731,-0.073 -28.875,-0.125 -0.021,0 -0.041,0 -0.063,0 z m -1376.5937,64.375 c 0.5062,0.073 1.0822,0.1613 1.4687,0.2188 0.5145,0.077 1.2424,0.1767 1.4376,0.2188 0.1078,0.025 0.1489,0.063 0.1874,0.094 0.012,0.01 -0.01,0.022 0,0.031 0.062,0.034 0.062,0.081 0,0.125 -0.1078,0.1411 -0.6648,0.2713 -1.5,0.5 -0.5008,0.1377 -1.0585,0.3061 -1.7812,0.4687 -0.2883,0.065 -7.2424,1.1662 -12.6875,2.0313 216.4668,4.6194 420.6618,21.963 603.7813,40.5312 l 39.4374,0 c -189.4122,-19.6503 -402.9935,-38.8399 -630.3437,-44.2188 z"
                 transform="matrix(0.17170221,0,0,0.19978987,4838.6843,-147.49851)"
                 id="path22064"
                 inkscape:connector-curvature="0" />
            </g>
          </g>
          <path
             sodipodi:nodetypes="cccsccccscccccccccccccccccccccscscssscscccccccccccccc"
             inkscape:connector-curvature="0"
             id="path22066"
             transform="matrix(0.12919139,0,0,0.12942075,5113.3154,262.0186)"
             d="m 6859.1562,5467.9688 c -25.5856,3.2384 -117.8641,5.8657 -152.25,7.0312 -43.5219,1.473 -298.7495,1.2066 -449.2812,-2.9375 0,0 -479.5658,1.0625 -502.0938,1.0625 -8.7981,0 -32.938,-0.5461 -59.5312,-1.0625 l -86.7188,0 c -3.7703,0.2741 -43.2582,0.5831 -44.2187,1.0625 -8.194,4.0887 -83.9687,10.2188 -83.9687,10.2188 0,0 -299.6121,-11.2813 -444.5938,-11.2813 l -354.375,0 -76.3438,59.0313 0,33.7812 10.5626,2.75 c 0.082,0.023 0.1598,0.054 0.25,0.062 14.4178,2.1848 44.8211,6.7815 45.5624,6.9063 2.7341,0.455 4.5876,0.7557 5.3126,0.9374 0.1433,0.039 0.1988,0.078 0.25,0.125 0.082,0.055 0.082,0.1513 0,0.2188 -0.1434,0.2179 -0.8567,0.4596 -1.9688,0.8125 -0.6656,0.2128 -1.4145,0.4677 -2.375,0.7187 -1.2022,0.3145 -51.1184,9.4404 -54.8438,10.0938 -0.8724,1.9992 -1.7546,4.0062 -2.75,6.1875 l 0,49.3908 4.375,0 c 0.1027,-16.0048 2.4263,-35.0994 3.6876,-40.7658 1.4479,-6.5052 78.9271,-23.8549 71.6874,-27.4687 -7.2417,-3.6141 -44.2083,-6.4632 -45.6562,-12.9688 -1.452,-6.5052 -14.4729,-16.6552 -13.75,-22.4375 0.725,-5.7825 14.4812,-7.9232 25.3438,-21.6563 10.8605,-13.7336 34.0624,-30.3547 42.75,-33.9687 8.6896,-3.6142 684.2248,10.8109 704.5,16.5937 20.2731,5.7823 123.1353,-1.4294 130.375,-2.875 7.2417,-1.4455 31.8477,-5.8124 56.4687,-5.8124 24.619,0 779.0894,-8.6342 800.8125,-1.4063 21.721,7.2285 335.4241,-7.7319 360,-5.6875 24.5759,2.0444 98.3225,-12.2681 108.5625,-14.3125 10.24,-2.0444 113.6207,4.0544 131,5.5 17.3772,1.4456 39.775,13.0544 44.8437,14.5 5.0688,1.446 39.1667,27.4483 42.0626,31.0625 2.8958,3.614 10.8541,19.5383 9.4062,23.875 -1.4479,4.3371 2.8604,22.3982 -2.9375,23.8438 -5.7917,1.4457 -19.5313,21.6562 -19.5313,21.6562 0,0 13.0188,2.154 18.8126,13.7188 5.7917,11.5645 7.9749,23.8576 7.25,32.5312 -0.5727,6.8702 1.0499,-4.2236 1.7812,6.0783 l 4.6562,0 -0.4374,-28.3595 -6.9063,-33.2188 6.5937,-22.3125 0,-0.062 -0.1874,-28.0312 -57.0938,-59.0313 z"
             style="color:#000000;fill:#f6de78;fill-opacity:1;fill-rule:nonzero;stroke:none;stroke-width:12;marker:none;visibility:visible;display:inline;overflow:visible;enable-background:accumulate" />
        </g>
        <path
           transform="matrix(0.26458334,0,0,0.26458334,-6.3049604e-6,18.562493)"
           inkscape:connector-curvature="0"
           id="path22070"
           d="m 21507.5,3783.8622 c 2.75,0.5 27.25,4.75 29.75,5 2.5,0.25 -28.75,-9.25 -29.5,-8.25 -0.75,1 -0.25,3.25 -0.25,3.25 z"
           style="color:#000000;fill:#3b2213;fill-opacity:1;fill-rule:nonzero;stroke:none;stroke-width:3;marker:none;visibility:visible;display:inline;overflow:visible;enable-background:accumulate" />
        <path
           transform="matrix(0.26458334,0,0,0.26458334,-6.3049604e-6,18.562493)"
           inkscape:connector-curvature="0"
           id="path22072"
           d="m 21508.5,3801.1122 c 1,-3.25 2.25,-5.75 2.25,-5.75 0,0 17.5,-4 16,-3.75 -1.5,0.25 -19.5,0.5 -19.5,1.75 0,1.25 1.25,7.75 1.25,7.75 z"
           style="color:#000000;fill:#3b2213;fill-opacity:1;fill-rule:nonzero;stroke:none;stroke-width:3;marker:none;visibility:visible;display:inline;overflow:visible;enable-background:accumulate" />
      </g>
      <g
         id="g22078"
         transform="matrix(1.5424975,0,0,1.5621553,-7503.9295,318.04771)">
        <path
           sodipodi:nodetypes="ccccccccccccccsccssccsccccccccccccccscccscccsscc"
           inkscape:connector-curvature="0"
           id="path22080"
           transform="matrix(0.1705848,0,0,0.1693707,4874.8598,-187.80565)"
           d="m 5054.8438,5750.3438 4.375,18.4374 -0.5938,1.6563 -0.1875,-0.8437 -1.8437,6.4062 -3.8126,10.375 0.6876,18.625 0.125,20.2812 21.875,22.8126 -4.8126,-22.2188 24.4688,25.5312 c -5.866,-0.373 -11.748,-0.7844 -17.625,-1.1874 l 19.3438,20.1874 132.5937,3.125 c 19.3787,-2.4745 58.5519,-0.1111 84.5937,-1 32.9612,-1.1252 256.963,-5.2916 370.9688,-2.125 l 187.4375,0 c 59.6405,-4.4019 478.6319,-5.5312 484.2187,-5.5312 13.9593,0 167.5323,4.6875 184.5938,4.6875 6.6617,0 24.9238,0.4491 45.0625,0.8437 l 65.6875,0 c 2.8555,-0.2094 32.7414,-0.4774 33.4688,-0.8437 6.2041,-3.1243 63.625,-7.8125 63.625,-7.8125 0,0 47.2078,3.7497 77.875,8.6562 l 51.25,0 57.8124,-45.125 0,-17.1874 0,-25.6876 0,-1 c -12.153,-1.8027 -27.4188,-4.0919 -37.25,-5.6562 -0.5016,-0.118 -0.9983,-0.2411 -1.1874,-0.3125 -1.7001,-0.6421 5.8665,-3.7351 18.2812,-7.5 6.8483,-1.2149 13.9844,-2.3988 20.1562,-3.2813 l 0.2188,-14.3124 c -0.073,4e-4 -0.1458,-5e-4 -0.2188,0 -626.9959,0.024 -1217.32,13.3836 -1881.1874,0 z m 22.6562,99.875 -2.0312,-2.125 5.4493,-2.0468 c 0.531,0.037 -3.9489,4.135 -3.4181,4.172 z m 506.0938,1.8124 c 3.4328,0 6.732,0.023 10.125,0.031 -145.4637,7.5226 -293.0219,9.7039 -444.0938,2.375 l 79.8125,1.9063 c 19.3787,-2.4748 58.5519,-0.08 84.5937,-0.9688 24.7209,-0.8439 156.9136,-3.4446 269.5626,-3.3438 z"
           style="color:#000000;fill:#ab8130;fill-opacity:1;fill-rule:nonzero;stroke:#3b2213;stroke-width:20.55182266;stroke-linejoin:round;stroke-miterlimit:4;stroke-opacity:1;stroke-dasharray:none;marker:none;visibility:visible;display:inline;overflow:visible;enable-background:accumulate" />
        <path
           inkscape:connector-curvature="0"
           id="path22084"
           transform="matrix(0.12970927,0,0,0.12878609,5139.2886,7.8904345)"
           d="m 4608.625,6042.9062 5.2812,25.3126 -6.6874,22.9374 0.3124,50.3126 56.8438,59.3437 174.4062,4.0937 c 25.4855,-3.2544 77.0015,-0.1122 111.25,-1.2812 43.3482,-1.4798 337.9423,-6.9771 487.875,-2.8125 l 246.5,0 c 78.4351,-5.7892 629.4651,-7.2813 636.8126,-7.2813 18.3583,0 220.3119,6.1876 242.75,6.1876 8.761,0 32.7962,0.5747 59.2812,1.0937 l 86.375,0 c 3.7553,-0.2755 43.0746,-0.612 44.0312,-1.0937 8.1593,-4.1089 83.6563,-10.2813 83.6563,-10.2813 0,0 62.1062,4.9222 102.4375,11.375 l 67.375,0 76.0312,-59.3437 0,-57.7188 c -23.5802,-3.4979 -57.3537,-8.5347 -61.4374,-9.5625 -4.3326,-1.0913 35.3257,-8.7042 61.4374,-12.4375 l 0,-18.8438 -2474.5312,0 z"
           style="color:#000000;fill:#ab8130;fill-opacity:1;fill-rule:nonzero;stroke:none;stroke-width:12;marker:none;visibility:visible;display:inline;overflow:visible;enable-background:accumulate" />
        <path
           inkscape:connector-curvature="0"
           id="path22086"
           transform="matrix(0.26458334,0,0,0.26458334,-6.3049604e-6,18.562493)"
           d="m 21686.25,2924.7812 c -1.374,4.3109 -2.497,8.7574 -3.438,13.2188 l 0.06,11.0312 26.813,27.7813 c 1.496,-12.1342 6.202,-27.9678 4.156,-32.9375 -2.475,-6.0104 -3.178,-8.1305 -9.188,-11.3125 -6.011,-3.182 -18.406,-7.7813 -18.406,-7.7813 z"
           style="opacity:0.4557522;color:#000000;fill:#604107;fill-opacity:1;fill-rule:nonzero;stroke:none;stroke-width:12;marker:none;visibility:visible;display:inline;overflow:visible;enable-background:accumulate" />
        <path
           inkscape:connector-curvature="0"
           id="path22088"
           transform="matrix(0.26458334,0,0,0.26458334,-6.3049604e-6,18.562493)"
           d="m 22760.031,2931.3125 c -10.821,0.046 -27.25,4.7813 -27.25,4.7813 0,0 -0.905,18.6853 0.563,41.4062 0.894,-0.034 1.581,-0.087 1.656,-0.125 4,-2 41,-5 41,-5 0,0 1.58,0.1277 2.312,0.1875 -1.576,-7.3299 -3.485,-14.99 -4.531,-22.3125 -2.121,-14.8493 -0.694,-9.2101 -4.937,-16.2812 -1.193,-1.9889 -4.578,-2.6742 -8.813,-2.6563 z m 121.781,0.4687 c -0.473,0.01 -0.895,0.018 -1.25,0.063 -5.657,0.7071 -23.343,9.1874 -23.343,9.1874 1.452,12.4915 1.832,25.5951 1.969,36.875 l 0.06,0 37.281,-28.875 0,-15.0937 c -6.042,-1.4405 -11.605,-2.196 -14.719,-2.1563 z"
           style="opacity:0.4557522;color:#000000;fill:#604107;fill-opacity:1;fill-rule:nonzero;stroke:none;stroke-width:12;marker:none;visibility:visible;display:inline;overflow:visible;enable-background:accumulate" />
        <path
           sodipodi:nodetypes="ccccccccccssccccccccccccccccccccc"
           inkscape:connector-curvature="0"
           id="path22090"
           transform="matrix(0.12970927,0,0,0.12878609,5139.2886,7.8904345)"
           d="m 4608.6875,6042.9062 5.2187,25.3126 -6.5624,22.4062 0,0.062 0.1874,28.1875 56.8438,59.3125 174.4062,4.125 c 25.4856,-3.2546 77.0015,-0.1102 111.25,-1.2813 43.3483,-1.4797 337.9423,-7.0083 487.875,-2.8437 l 246.5,0 c 78.4434,-5.7892 629.465,-7.25 636.8126,-7.25 18.3583,0 220.3118,6.1563 242.75,6.1563 8.761,0 32.7942,0.5747 59.2812,1.0937 l 86.375,0 c 3.7553,-0.2757 43.0746,-0.6119 44.0312,-1.0937 8.1594,-4.1089 83.625,-10.25 83.625,-10.25 0,0 62.1062,4.8907 102.4376,11.3437 l 67.375,0 76.0624,-59.3125 0,-33.9688 -10.5312,-2.75 c -0.082,-0.02 -0.1582,-0.05 -0.25,-0.062 -14.3583,-2.1956 -44.6366,-6.8122 -45.375,-6.9376 -2.7211,-0.4574 -4.5592,-0.7865 -5.2812,-0.9687 -0.1429,-0.035 -0.2303,-0.078 -0.2813,-0.125 -0.061,-0.053 -0.041,-0.1197 0,-0.1875 0.1428,-0.219 0.8944,-0.4887 2,-0.8438 0.665,-0.2131 1.3871,-0.4355 2.3437,-0.6874 1.1996,-0.3162 50.9146,-9.4997 54.625,-10.1563 0.8691,-2.009 1.7587,-4.0272 2.75,-6.2187 l 0,-18.5404 c -801.9727,-9.8058 -1611.5562,-18.6855 -2474.4687,5.4778 z"
           style="color:#000000;fill:#ceb254;fill-opacity:1;fill-rule:nonzero;stroke:none;stroke-width:12;marker:none;visibility:visible;display:inline;overflow:visible;enable-background:accumulate" />
        <path
           transform="matrix(0.26458334,0,0,0.26458334,-6.3049604e-6,18.562493)"
           inkscape:connector-curvature="0"
           id="path22094"
           d="m 22866.25,2916.1122 c 1,-0.25 30,-6.5 30,-6.5 l -4.75,9.25 z"
           style="color:#000000;fill:#774321;fill-opacity:1;fill-rule:nonzero;stroke:none;stroke-width:12;marker:none;visibility:visible;display:inline;overflow:visible;enable-background:accumulate" />
        <g
           id="g22102"
           class="switchable"
           name="grain">
          <g
             id="g22207"
             class="switchable"
             name="grain">
            <path
               style="color:#000000;fill:#e2c866;fill-opacity:1;fill-rule:nonzero;stroke:none;stroke-width:12;marker:none;visibility:visible;display:inline;overflow:visible;enable-background:accumulate"
               d="m 4613.9062,6073.3438 -2.4374,8.2187 c 753.0621,3.2805 1385.8524,4.3083 1832.6562,3.5937 225.4183,-0.3603 403.6338,-1.1692 526.2188,-2.375 25.6772,-0.2524 47.4711,-0.5347 68.1874,-0.8124 -3.2575,-0.4985 -11.3435,-1.7184 -11.5312,-1.75 -2.7211,-0.4576 -4.5592,-0.7866 -5.2812,-0.9688 -0.1428,-0.031 -0.1991,-0.078 -0.25,-0.125 -0.082,-0.053 -0.082,-0.1197 0,-0.1875 0.1427,-0.219 0.8631,-0.4892 1.9687,-0.8437 0.6629,-0.2135 1.3871,-0.4353 2.3437,-0.6876 0.4549,-0.1191 -14.7833,-2.4429 -5.649,-4.1401 -22.3279,0.3115 -21.5069,1.017 -49.9134,1.2964 -122.5421,1.2053 -300.6878,2.0459 -526.0938,2.4063 -446.2918,0.7135 -1078.2581,-0.3536 -1830.2188,-3.625 z m 2469.25,38.2187 c -211.0192,2.0489 -768.9025,9.5305 -1309.5624,17.9687 -313.4997,4.8927 -620.5163,10.0996 -849.3126,14.7188 -114.397,2.31 -201.7326,4.435 -268.0512,6.3438 -5.7114,0.1643 -9.9668,0.3376 -15.25,0.5 l 7.6563,7.9687 c 2.8048,-0.082 4.8439,-0.1658 7.7813,-0.25 66.2675,-1.9075 153.6643,-4.0337 268.0512,-6.3437 228.7717,-4.6186 535.7564,-9.8262 849.25,-14.7188 540.5457,-8.4366 1098.5202,-15.918 1309.4374,-17.9688 z"
               transform="matrix(0.12970927,0,0,0.12878609,5139.2886,7.8904345)"
               id="path22104"
               inkscape:connector-curvature="0"
               sodipodi:nodetypes="ccssccccccccssccssccccsscc" />
            <path
               style="color:#000000;fill:#caab43;fill-opacity:1;fill-rule:nonzero;stroke:none;stroke-width:12;marker:none;visibility:visible;display:inline;overflow:visible;enable-background:accumulate"
               d="m 4613.9062,6068.2812 -2.4374,8.2188 c 753.0621,3.2807 1385.8524,4.3085 1832.6562,3.5938 225.4183,-0.3602 403.6338,-1.1691 526.2188,-2.375 25.6772,-0.2527 47.4711,-0.566 68.1874,-0.8438 -3.2575,-0.4984 -11.3435,-1.6869 -11.5312,-1.7188 -2.7211,-0.4575 -4.5592,-0.7863 -5.2812,-0.9687 -0.1428,-0.035 -0.1991,-0.078 -0.25,-0.125 -0.061,-0.053 -0.041,-0.1197 0,-0.1875 0.1427,-0.219 0.8631,-0.4887 1.9687,-0.8438 0.665,-0.2134 1.3871,-0.4354 2.3437,-0.6874 0.4508,-0.1192 10.7095,-2.0531 19.8438,-3.75 -22.3279,0.3114 -47.0018,0.6268 -75.4062,0.9062 -122.5421,1.2055 -300.6878,2.0147 -526.0938,2.375 -446.2918,0.7137 -1078.2581,-0.3218 -1830.2188,-3.5938 z m 2469.25,38.2188 c -211.0192,2.0491 -768.9025,9.5305 -1309.5624,17.9688 -313.4997,4.8928 -620.5163,10.0682 -849.3126,14.6874 -114.397,2.3103 -201.7326,4.4665 -268.0512,6.375 -5.7114,0.1644 -9.9668,0.3377 -15.25,0.5 l 7.6563,7.9688 c 2.8048,-0.082 4.8439,-0.1658 7.7813,-0.25 66.2696,-1.9073 153.6643,-4.0648 268.0512,-6.375 228.7717,-4.6186 535.7564,-9.7949 849.25,-14.6875 540.5457,-8.4366 1098.5182,-15.918 1309.4374,-17.9687 z"
               transform="matrix(0.12970927,0,0,0.12878609,5139.2886,7.8904345)"
               id="path22106"
               inkscape:connector-curvature="0"
               sodipodi:nodetypes="ccssccccccccssccssscccsscc" />
          </g>
        </g>
        <path
           id="path22096"
           transform="matrix(0.26458334,0,0,0.26458334,-6.3049604e-6,18.562493)"
           d="m 21683.989,2902.231 2.011,11.144 -3.219,10.9062 0,0.031 0.09,13.7187 27.875,28.875 85.5,2 c 12.494,-1.5842 37.741,-0.055 54.531,-0.625 21.251,-0.7203 165.685,-3.4021 239.188,-1.375 l 120.843,0 c 23.113,-1.6936 140.126,-0.8507 211.844,-3.0937 -2.865,-0.905 -74.887,-3.6642 -97.868,-4.7249 -6.039,-0.2787 -41.345,3.186 -76.741,3.8629 -49.046,0.9379 -101.842,-0.8746 -109.235,-2.1067 -12.728,-2.1214 -75.664,-1.4259 -99,-0.7188 -23.334,0.7071 -233.35,5.6679 -237.593,6.375 -4.242,0.7071 -14.148,-0.7188 -21.219,-0.7188 -7.071,0 -62.933,-5.6446 -66.469,-4.9374 -3.535,0.7071 -23.327,-22.6207 -26.156,-26.1563 -2.828,-3.5355 -2.832,-4.2457 -2.125,-7.7813 0.707,-3.5356 3.531,-10.6206 3.531,-14.1562 0,-2.1892 1.36,-4.1544 -2.59,-11.3394 z"
           style="color:#000000;fill:#f6de78;fill-opacity:1;fill-rule:nonzero;stroke:none;stroke-width:12;marker:none;visibility:visible;display:inline;overflow:visible;enable-background:accumulate"
           inkscape:connector-curvature="0"
           sodipodi:nodetypes="cccccccccccsscscsccsscc" />
        <path
           inkscape:connector-curvature="0"
           id="path22098"
           transform="matrix(0.1705848,0,0,0.1693707,4874.8598,-187.80565)"
           d="m 6623.6562,5742.5625 c 90.0785,4.7335 208.668,10.6792 218.1876,9.4375 14.7382,-1.9224 80.7187,1.2812 80.7187,1.2812 0,0 4.4846,-0.017 3.8437,3.1876 -0.1385,0.6929 0.1996,2.5911 0.7813,5.0624 -2.239,0.8062 -7.0681,2.2615 -15.9375,3.75 -13.1606,2.2093 -39.4531,8.863 -33.9688,13.2813 5.015,4.0413 44.1707,8.8359 51.0938,9.6563 l 0,14.2812 -0.6875,3.6875 c 0,0 -28.4785,25.3831 -36.1563,30.9063 -7.676,5.5231 -15.3507,8.8857 -24.125,7.7812 -8.7741,-1.1046 -92.156,-13.3016 -103.125,-14.4062 -10.9674,-1.1048 -73.4714,13.2485 -83.3437,16.5624 -3.2137,1.0792 -10.7863,3.3719 -21.625,6.0313 9.7622,-0.1739 25.6258,-0.4205 26.1563,-0.6875 6.2041,-3.1243 63.625,-7.8125 63.625,-7.8125 0,0 47.2078,3.7183 77.875,8.625 l 47.9687,0 3.2813,0 57.8124,-45.0937 0,-24.25 0,-1.5626 -1.5624,-0.4062 -6.4376,-1.6875 c -0.062,-0.016 -0.1177,-0.053 -0.1874,-0.062 -10.9177,-1.6695 -33.9698,-5.186 -34.5313,-5.2812 -2.0691,-0.3479 -3.451,-0.5803 -4,-0.7188 -0.1086,-0.027 -0.1488,-0.058 -0.1875,-0.094 -0.046,-0.04 -0.031,-0.1046 0,-0.1562 0.1085,-0.1665 0.6593,-0.355 1.5,-0.625 0.5057,-0.1621 1.0539,-0.3396 1.7812,-0.5312 0.767,-0.2022 24.5107,-4.5956 34.7188,-6.4688 0.3354,-0.061 0.7341,-0.1352 1.1875,-0.2188 1.4049,-0.2573 5.256,-0.9659 5.625,-1.0312 0,-4e-4 0.029,4e-4 0.031,0 0.6607,-1.5276 1.3087,-3.0523 2.0624,-4.7188 l 0,-9.9374 0,-4.1876 c -103.8842,-1.27 -207.9827,-2.4851 -312.375,-3.5937 z m -1569.1562,7.7813 3.9375,19.25 -4.9687,17.0312 0,0.031 0.125,21.4376 43.25,45.0937 2.9687,0.062 -40,-42.0312 -0.1563,-21.4063 0,-0.062 4.9376,-17.0312 -4.5626,-22.375 -5.5312,0 z"
           style="color:#000000;fill:#f6de78;fill-opacity:1;fill-rule:nonzero;stroke:none;stroke-width:12;marker:none;visibility:visible;display:inline;overflow:visible;enable-background:accumulate" />
        <path
           inkscape:connector-curvature="0"
           id="path22178"
           transform="matrix(0.1705848,0,0,0.1693707,4874.8598,-187.80565)"
           d="m 5353.5625,5743.5625 c -98.8238,1.7238 -198.4573,3.9641 -299.0625,6.7813 l 2.9062,14.25 c 3.3795,4.6499 5.295,4.9879 5.6876,1.0624 0.9062,-9.0623 -8.156,-3.6251 2.7187,-8.1562 10.8748,-4.5312 268.2501,-10.875 271.875,-8.1562 1.1872,0.8904 8.2123,-1.7421 15.875,-5.7813 z"
           style="color:#000000;fill:#f6de78;fill-opacity:1;fill-rule:nonzero;stroke:none;stroke-width:12;marker:none;visibility:visible;display:inline;overflow:visible;enable-background:accumulate" />
      </g>
    </g>
  </g>
</svg>
