<?xml version="1.0" encoding="UTF-8" standalone="no"?>
<!-- Created with Inkscape (http://www.inkscape.org/) -->

<svg
   xmlns:dc="http://purl.org/dc/elements/1.1/"
   xmlns:cc="http://creativecommons.org/ns#"
   xmlns:rdf="http://www.w3.org/1999/02/22-rdf-syntax-ns#"
   xmlns:svg="http://www.w3.org/2000/svg"
   xmlns="http://www.w3.org/2000/svg"
   xmlns:sodipodi="http://sodipodi.sourceforge.net/DTD/sodipodi-0.dtd"
   xmlns:inkscape="http://www.inkscape.org/namespaces/inkscape"
   width="553.578"
   height="238.46982"
   viewBox="0 0 146.46752 63.095141"
   version="1.1"
   id="svg23489"
   inkscape:version="0.48.5 r10040"
   sodipodi:docname="toggle_button_on_green.svg">
  <defs
     id="defs23483" />
  <sodipodi:namedview
     id="base"
     pagecolor="#7d848b"
     bordercolor="#666666"
     borderopacity="1.0"
     inkscape:pageopacity="1"
     inkscape:pageshadow="2"
     inkscape:zoom="0.21308932"
     inkscape:cx="-752.56248"
     inkscape:cy="-519.32456"
     inkscape:document-units="px"
     inkscape:current-layer="layer1"
     showgrid="false"
     inkscape:pagecheckerboard="false"
     showborder="true"
     units="px"
     inkscape:window-width="1920"
     inkscape:window-height="1017"
     inkscape:window-x="-8"
     inkscape:window-y="-8"
     inkscape:window-maximized="1"
     inkscape:showpageshadow="false"
     guidetolerance="28"
     fit-margin-top="15"
     fit-margin-left="15"
     fit-margin-right="15"
     fit-margin-bottom="15">
    <inkscape:grid
       type="xygrid"
       id="grid24034"
       spacingx="1px"
       spacingy="1px"
       empspacing="8"
       visible="true"
       enabled="true"
       snapvisiblegridlinesonly="true"
       originx="729.27057px"
       originy="-2527.548px" />
  </sodipodi:namedview>
  <metadata
     id="metadata23486">
    <rdf:RDF>
      <cc:Work
         rdf:about="">
        <dc:format>image/svg+xml</dc:format>
        <dc:type
           rdf:resource="http://purl.org/dc/dcmitype/StillImage" />
        <dc:title></dc:title>
        <cc:license
           rdf:resource="" />
        <dc:creator>
          <cc:Agent>
            <dc:title>Robert Brooks</dc:title>
          </cc:Agent>
        </dc:creator>
      </cc:Work>
    </rdf:RDF>
  </metadata>
  <g
     inkscape:label="Layer 1"
     inkscape:groupmode="layer"
     id="layer1"
     transform="translate(192.95286,434.84225)">
    <g
       transform="matrix(1.6812747,0,0,1.9776487,-3111.2799,70.585007)"
       id="g24306"
       style="stroke:#6b3e25;stroke-opacity:1" />
    <g
       transform="matrix(1.9453867,0,0,2.1483805,-8871.4989,-993.96991)"
       style="font-size:9.36137009px;font-style:normal;font-variant:normal;font-weight:800;font-stretch:normal;text-align:center;line-height:100%;letter-spacing:0px;word-spacing:0px;text-anchor:middle;fill:#ff6600;fill-opacity:1;stroke:none;font-family:'MOON GET!';-inkscape-font-specification:'MOON GET! Ultra-Bold'"
       id="g28746" />
    <g
       transform="matrix(1.9453867,0,0,2.1483805,-8871.4989,-993.11628)"
       style="font-size:9.36137009px;font-style:normal;font-variant:normal;font-weight:800;font-stretch:normal;text-align:center;line-height:100%;letter-spacing:0px;word-spacing:0px;text-anchor:middle;fill:#ff6600;fill-opacity:1;stroke:none;font-family:'MOON GET!';-inkscape-font-specification:'MOON GET! Ultra-Bold'"
       id="g28776" />
    <path
       switchable="shadow"
       name="shadow"
       class="switchable"
       style="opacity:0.27433627;color:#000000;fill:#000000;fill-opacity:1;fill-rule:nonzero;stroke:none;stroke-width:15;marker:none;visibility:visible;display:inline;overflow:visible;enable-background:accumulate"
       d="m -181.83474,-430.86994 c -3.91623,0.23733 -7.38933,4.12167 -7.13636,8.76997 l 0.8175,15.02148 c -0.75529,10.91829 -0.3204,18.60577 -0.61558,23.68056 0.005,4.02461 2.23105,7.46076 6.47086,7.65551 3.26785,0.15009 122.04878,-0.38478 125.915178,-0.38478 6.953318,0 5.867548,-5.42454 5.867548,-8.33216 0,-2.09762 -0.05329,-8.12933 -1.086501,-17.60001 l 0.8175,-20.0406 c 0.195878,-4.80204 -3.374068,-8.76997 -7.460757,-8.76997 l -123.204938,0 c -0.12768,0 -0.25812,-0.008 -0.38445,0 z"
       id="path28864"
       inkscape:connector-curvature="0"
       sodipodi:nodetypes="csccssscsssc" />
    <g
       gds_color="background"
       transform="matrix(1.6812747,0,0,1.9776487,-3086.6964,-160.56724)"
       id="g28866">
      <g
         id="g28868">
        <path
           id="path28870"
           d="m 1727.9959,-133.39818 73.2732,0 c 1.3656,0 2.465,1.09937 2.465,2.46495 l 0,16.16806 c 0,1.36558 -1.0994,2.46494 -2.465,2.46494 l -73.2732,0 c -1.3655,0 -2.4649,-1.09936 -2.4649,-2.46494 l 0,-16.16806 c 0,-1.36558 1.0994,-2.46495 2.4649,-2.46495 z"
           style="color:#000000;fill:#231d19;fill-opacity:1;fill-rule:nonzero;stroke:#2e1a0e;stroke-width:3.7407701;stroke-linecap:round;stroke-linejoin:round;stroke-miterlimit:4;stroke-opacity:1;stroke-dasharray:none;stroke-dashoffset:0;marker:none;visibility:visible;display:inline;overflow:visible;enable-background:accumulate"
           inkscape:connector-curvature="0" />
        <path
           sodipodi:nodetypes="sssssssss"
           style="color:#000000;fill:#693f27;fill-opacity:1;fill-rule:nonzero;stroke:none;stroke-width:0;marker:none;visibility:visible;display:inline;overflow:visible;enable-background:accumulate"
           d="m 1727.9959,-133.39818 73.2732,0 c 1.3656,0 2.4012,1.10068 2.465,2.46495 0.3882,8.3049 0.1793,12.12533 0,16.16806 -0.06,1.3644 -1.0994,2.46494 -2.465,2.46494 l -73.2732,0 c -1.3655,0 -2.2921,-1.10902 -2.4649,-2.46494 -0.4433,-3.47756 0.1028,-8.84916 0,-16.16806 -0.019,-1.36546 1.0994,-2.46495 2.4649,-2.46495 z"
           id="path28872"
           inkscape:connector-curvature="0" />
        <path
           sodipodi:nodetypes="csssscssc"
           id="path28874"
           transform="matrix(0.26458334,0,0,0.26458334,-6.3049604e-6,18.562493)"
           d="m 6521.6875,-514.5625 0,10.65625 c 0,5.16125 4.1516,9.30778 9.3125,9.3125 76.9923,0.0704 156.9687,1.71658 276.9375,0 5.1607,-0.0738 9.3125,-4.15125 9.3125,-9.3125 l 0,-10.65625 c 0,5.16125 -4.1551,9.15441 -9.3125,9.34375 -98.7484,3.62538 -189.1647,2.55723 -276.9375,0 -5.1584,-0.15029 -9.3125,-4.1825 -9.3125,-9.34375 z"
           style="color:#000000;fill:#492b19;fill-opacity:1;fill-rule:nonzero;stroke:none;stroke-width:0;marker:none;visibility:visible;display:inline;overflow:visible;enable-background:accumulate"
           inkscape:connector-curvature="0" />
        <path
           sodipodi:nodetypes="ssccssccsss"
           id="path28876"
           transform="matrix(0.26458334,0,0,0.26458334,-6.3049604e-6,18.562493)"
           d="m 6531,-574.34375 c -5.1599,0.0934 -9.3125,4.15125 -9.3125,9.3125 l 0,20.09375 2.125,-13.03125 c 0.7979,-4.89014 3.9829,-8.9375 8.9375,-8.9375 l 273.3125,0 c 4.955,0 7.8014,4.11479 8.9375,8.9375 l 2.25,9.53125 0,-16.59375 c 0,-5.16125 -4.1606,-9.01929 -9.3125,-9.3125 -73.5207,-4.18431 -175.572,-1.83438 -276.9375,0 z"
           style="color:#000000;fill:#5d3822;fill-opacity:1;fill-rule:nonzero;stroke:none;stroke-width:0;marker:none;visibility:visible;display:inline;overflow:visible;enable-background:accumulate"
           inkscape:connector-curvature="0" />
      </g>
    </g>
    <g
       id="g28878"
       transform="matrix(2.7429705,0,0,3.1705582,-4893.4237,-580.18715)">
      <g
         style="stroke:#6b3e25;stroke-opacity:1"
         id="g28880"
         transform="matrix(0.80835005,0,0,0.86100308,321.83243,163.80413)" />
      <g
         transform="matrix(0.80835005,0,0,0.86100308,321.83243,164.92935)"
         id="g28882">
        <path
           style="color:#000000;fill:#00bdec;fill-opacity:1;fill-rule:nonzero;stroke:#0c2126;stroke-width:2.6382854;stroke-linejoin:round;stroke-miterlimit:4;stroke-opacity:1;stroke-dasharray:none;marker:none;visibility:visible;display:inline;overflow:visible;enable-background:accumulate"
           d="m 1726.6675,-134.71496 26.2513,0 c 0.8767,0 1.5826,0.70582 1.5826,1.58254 l 0,12.30978 c 0,0.87673 -0.7059,1.58253 -1.5826,1.58253 l -26.2513,0 c -0.8766,0 -1.5825,-0.7058 -1.5825,-1.58253 l 0,-12.30978 c 0,-0.87672 0.7059,-1.58254 1.5825,-1.58254 z"
           id="path28884"
           inkscape:connector-curvature="0"
           sodipodi:nodetypes="sssssssss" />
        <path
           sodipodi:nodetypes="sssssssss"
           inkscape:connector-curvature="0"
           id="path28886"
           d="m 1726.6675,-134.71496 26.2513,0 c 0.8767,0 1.5826,0.70582 1.5826,1.58254 l 0,12.30978 c 0,0.87673 -0.7059,1.58253 -1.5826,1.58253 l -26.2513,0 c -0.8766,0 -1.5825,-0.7058 -1.5825,-1.58253 l 0,-12.30978 c 0,-0.87672 0.7059,-1.58254 1.5825,-1.58254 z"
           style="color:#000000;fill:#49da12;fill-opacity:1;fill-rule:nonzero;stroke:none;stroke-width:0;marker:none;visibility:visible;display:inline;overflow:visible;enable-background:accumulate" />
        <path
           sodipodi:nodetypes="csssscssc"
           inkscape:connector-curvature="0"
           style="opacity:0.36725661;color:#000000;fill:#225500;fill-opacity:1;fill-rule:nonzero;stroke:none;stroke-width:0;marker:none;visibility:visible;display:inline;overflow:visible;enable-background:accumulate"
           d="m 6520.0035,-533.64544 0,6.84148 c 0,3.31361 2.6654,5.97878 5.9788,5.97878 l 99.2169,0 c 3.3136,0 5.9787,-2.66517 5.9787,-5.97878 l 0,-6.84148 c 0,3.31361 -2.6651,5.99884 -5.9787,5.99884 l -99.2169,0 c -3.3134,0 -5.9788,-2.68523 -5.9788,-5.99884 z"
           transform="matrix(0.26458334,0,0,0.26458334,-6.3049604e-6,18.562493)"
           id="path28888" />
        <path
           sodipodi:nodetypes="ssccssccsss"
           inkscape:connector-curvature="0"
           style="opacity:0.57522122;color:#000000;fill:#ccff00;fill-opacity:1;fill-rule:nonzero;stroke:none;stroke-width:0;marker:none;visibility:visible;display:inline;overflow:visible;enable-background:accumulate"
           d="m 6525.9823,-579.31904 c -3.3134,0 -5.9788,2.66517 -5.9788,5.97878 l 0,12.90051 1.3643,-8.36627 c 0.5123,-3.13955 2.5571,-5.73802 5.738,-5.73802 l 96.8896,0 c 3.1812,0 5.0086,2.64176 5.738,5.73802 l 1.4445,6.11921 0,-10.65345 c 0,-3.31361 -2.6651,-5.97878 -5.9787,-5.97878 z"
           transform="matrix(0.26458334,0,0,0.26458334,-6.3049604e-6,18.562493)"
           id="path28890" />
      </g>
    </g>
    <g
       transform="translate(24.583507,-233.73678)"
       name="text"
       class="switchable"
       id="g28892">
      <g
         id="g28894"
         style="font-size:9.36137104px;font-style:normal;font-variant:normal;font-weight:800;font-stretch:normal;text-align:center;line-height:100%;letter-spacing:0px;word-spacing:0px;text-anchor:middle;fill:#ffffff;fill-opacity:1;stroke:none;font-family:'MOON GET!';-inkscape-font-specification:'MOON GET! Ultra-Bold'"
         transform="matrix(1.9453867,0,0,2.1483805,-8701.8535,-993.3156)">
        <path
           inkscape:connector-curvature="0"
           id="path28896"
           transform="matrix(0.13600553,0,0,0.12315479,4473.0714,470.99576)"
           d="m -719,-755.84375 c -6.78722,0.0844 -12.92927,1.87768 -18.40625,5.40625 -5.47772,3.52873 -9.82219,8.2858 -13.0625,14.25 -3.24104,5.96428 -4.9228,12.64047 -5,20.03125 0.0809,7.39078 1.75896,14.06818 5,20.03125 3.24031,5.96298 7.58478,10.69124 13.0625,14.21875 5.47698,3.52743 11.61903,5.35346 18.40625,5.4375 6.78796,-0.0844 12.92927,-1.90909 18.40625,-5.4375 5.47772,-3.52849 9.82146,-8.2556 13.0625,-14.21875 3.24031,-5.96315 4.89155,-12.64282 4.96875,-20.03125 -0.0809,-7.38851 -1.72844,-14.0668 -4.96875,-20.03125 -3.24104,-5.96428 -7.58478,-10.72038 -13.0625,-14.25 -5.47698,-3.52962 -11.61829,-5.32197 -18.40625,-5.40625 z m 39.90625,1.125 c -0.38234,0.008 -0.71508,0.15899 -0.96875,0.4375 -0.24999,0.27851 -0.36765,0.64051 -0.375,1.0625 l 0,73.03125 c 0,0.42223 0.14891,0.78423 0.40625,1.0625 0.24999,0.27851 0.55443,0.39569 0.9375,0.40625 l 16.625,0 c 0.38234,-0.008 0.71508,-0.15736 0.96875,-0.4375 0.24999,-0.28014 0.36765,-0.61202 0.375,-1.03125 l 0,-27.46875 20.4375,0 c 0.38234,-0.008 0.71582,-0.12611 0.96875,-0.40625 0.24999,-0.28014 0.36765,-0.64327 0.375,-1.0625 l 0,-15.15625 c 0,-0.42223 -0.11766,-0.78423 -0.375,-1.0625 -0.24999,-0.27851 -0.59303,-0.42694 -0.96875,-0.4375 l -20.4375,0 0,-10.8125 23.53125,0 c 0.38234,-0.008 0.71508,-0.15736 0.96875,-0.4375 0.24999,-0.28014 0.36765,-0.61202 0.375,-1.03125 l 0,-15.15625 c 0,-0.42223 -0.14891,-0.78423 -0.40625,-1.0625 -0.25734,-0.27851 -0.56178,-0.42694 -0.9375,-0.4375 l -41.5,0 z m 46.25,0 c -0.38234,0.008 -0.71508,0.15899 -0.96875,0.4375 -0.24999,0.27851 -0.36765,0.64051 -0.375,1.0625 l 0,73.03125 c 0,0.42223 0.14891,0.78423 0.40625,1.0625 0.25734,0.27851 0.56104,0.39569 0.9375,0.40625 l 16.625,0 c 0.38234,-0.008 0.71582,-0.15736 0.96875,-0.4375 0.24999,-0.28014 0.36765,-0.61202 0.375,-1.03125 l 0,-27.46875 20.4375,0 c 0.38234,-0.008 0.71508,-0.12611 0.96875,-0.40625 0.24999,-0.28014 0.36765,-0.64327 0.375,-1.0625 l 0,-15.15625 c 0,-0.42223 -0.14891,-0.78423 -0.40625,-1.0625 -0.24999,-0.27851 -0.56104,-0.42694 -0.9375,-0.4375 l -20.4375,0 0,-10.8125 23.53125,0 c 0.38234,-0.008 0.68457,-0.15736 0.9375,-0.4375 0.24999,-0.28014 0.3989,-0.61202 0.40625,-1.03125 l 0,-15.15625 c 0,-0.42223 -0.14891,-0.78423 -0.40625,-1.0625 -0.24999,-0.27851 -0.55443,-0.42694 -0.9375,-0.4375 l -41.5,0 z M -719,-734.3125 c 4.72701,0.12992 8.64314,1.89493 11.78125,5.3125 3.13737,3.41757 4.7864,7.69941 4.90625,12.84375 -0.11764,5.14434 -1.76888,9.42626 -4.90625,12.84375 -3.13811,3.41757 -7.05424,5.18242 -11.78125,5.3125 -4.72628,-0.12992 -8.67439,-1.89493 -11.8125,-5.3125 -3.13811,-3.41749 -4.75589,-7.69941 -4.875,-12.84375 0.11764,-5.14434 1.73689,-9.42618 4.875,-12.84375 3.13811,-3.41757 7.08622,-5.18242 11.8125,-5.3125 z" />
        <path
           inkscape:connector-curvature="0"
           transform="matrix(0.13600553,0,0,0.12315479,4473.0714,470.99576)"
           d="m -719,-755.84375 c -6.78722,0.0844 -12.92927,1.87768 -18.40625,5.40625 -5.47772,3.52873 -9.82219,8.2858 -13.0625,14.25 -3.24104,5.96428 -4.9228,12.64047 -5,20.03125 0.0809,7.39078 1.75896,14.06818 5,20.03125 3.24031,5.96298 7.58478,10.69124 13.0625,14.21875 5.47698,3.52743 11.61903,5.35346 18.40625,5.4375 6.78796,-0.0844 12.92927,-1.90909 18.40625,-5.4375 5.47772,-3.52849 9.82146,-8.2556 13.0625,-14.21875 3.24031,-5.96315 4.89155,-12.64282 4.96875,-20.03125 -0.0809,-7.38851 -1.72844,-14.0668 -4.96875,-20.03125 -3.24104,-5.96428 -7.58478,-10.72038 -13.0625,-14.25 -5.47698,-3.52962 -11.61829,-5.32197 -18.40625,-5.40625 z m 39.90625,1.125 c -0.38234,0.008 -0.71508,0.15899 -0.96875,0.4375 -0.24999,0.27851 -0.36765,0.64051 -0.375,1.0625 l 0,73.03125 c 0,0.42223 0.14891,0.78423 0.40625,1.0625 0.24999,0.27851 0.55443,0.39569 0.9375,0.40625 l 16.625,0 c 0.38234,-0.008 0.71508,-0.15736 0.96875,-0.4375 0.24999,-0.28014 0.36765,-0.61202 0.375,-1.03125 l 0,-27.46875 20.4375,0 c 0.38234,-0.008 0.71582,-0.12611 0.96875,-0.40625 0.24999,-0.28014 0.36765,-0.64327 0.375,-1.0625 l 0,-15.15625 c 0,-0.42223 -0.11766,-0.78423 -0.375,-1.0625 -0.24999,-0.27851 -0.59303,-0.42694 -0.96875,-0.4375 l -20.4375,0 0,-10.8125 23.53125,0 c 0.38234,-0.008 0.71508,-0.15736 0.96875,-0.4375 0.24999,-0.28014 0.36765,-0.61202 0.375,-1.03125 l 0,-15.15625 c 0,-0.42223 -0.14891,-0.78423 -0.40625,-1.0625 -0.25734,-0.27851 -0.56178,-0.42694 -0.9375,-0.4375 l -41.5,0 z m 46.25,0 c -0.38234,0.008 -0.71508,0.15899 -0.96875,0.4375 -0.24999,0.27851 -0.36765,0.64051 -0.375,1.0625 l 0,73.03125 c 0,0.42223 0.14891,0.78423 0.40625,1.0625 0.25734,0.27851 0.56104,0.39569 0.9375,0.40625 l 16.625,0 c 0.38234,-0.008 0.71582,-0.15736 0.96875,-0.4375 0.24999,-0.28014 0.36765,-0.61202 0.375,-1.03125 l 0,-27.46875 20.4375,0 c 0.38234,-0.008 0.71508,-0.12611 0.96875,-0.40625 0.24999,-0.28014 0.36765,-0.64327 0.375,-1.0625 l 0,-15.15625 c 0,-0.42223 -0.14891,-0.78423 -0.40625,-1.0625 -0.24999,-0.27851 -0.56104,-0.42694 -0.9375,-0.4375 l -20.4375,0 0,-10.8125 23.53125,0 c 0.38234,-0.008 0.68457,-0.15736 0.9375,-0.4375 0.24999,-0.28014 0.3989,-0.61202 0.40625,-1.03125 l 0,-15.15625 c 0,-0.42223 -0.14891,-0.78423 -0.40625,-1.0625 -0.24999,-0.27851 -0.55443,-0.42694 -0.9375,-0.4375 l -41.5,0 z M -719,-734.3125 c 4.72701,0.12992 8.64314,1.89493 11.78125,5.3125 3.13737,3.41757 4.7864,7.69941 4.90625,12.84375 -0.11764,5.14434 -1.76888,9.42626 -4.90625,12.84375 -3.13811,3.41757 -7.05424,5.18242 -11.78125,5.3125 -4.72628,-0.12992 -8.67439,-1.89493 -11.8125,-5.3125 -3.13811,-3.41749 -4.75589,-7.69941 -4.875,-12.84375 0.11764,-5.14434 1.73689,-9.42618 4.875,-12.84375 3.13811,-3.41757 7.08622,-5.18242 11.8125,-5.3125 z"
           id="path28898" />
        <path
           inkscape:connector-curvature="0"
           style="opacity:0.76991152;fill:#34bb00;fill-opacity:1"
           d="m -719,-755.84375 c -6.78722,0.0844 -12.92927,1.87768 -18.40625,5.40625 -5.47772,3.52873 -9.82219,8.2858 -13.0625,14.25 -3.24104,5.96428 -4.9228,12.64047 -5,20.03125 0.007,0.62988 0.0324,1.25548 0.0625,1.875 0.3193,-6.65341 1.97119,-12.7288 4.9375,-18.1875 3.24031,-5.9642 7.58478,-10.72127 13.0625,-14.25 5.47698,-3.52857 11.61903,-5.3218 18.40625,-5.40625 6.78796,0.0843 12.92927,1.87663 18.40625,5.40625 5.47772,3.52962 9.82146,8.28572 13.0625,14.25 2.96563,5.45885 4.58894,11.53553 4.90625,18.1875 0.0294,-0.61938 0.0559,-1.24532 0.0625,-1.875 -0.0809,-7.38851 -1.72844,-14.0668 -4.96875,-20.03125 -3.24104,-5.96428 -7.58478,-10.72038 -13.0625,-14.25 -5.47698,-3.52962 -11.61829,-5.32197 -18.40625,-5.40625 z m 39.90625,1.125 c -0.38234,0.008 -0.71508,0.15899 -0.96875,0.4375 -0.24999,0.27851 -0.36765,0.64051 -0.375,1.0625 l 0,3.71875 c 0.007,-0.42183 0.12501,-0.78399 0.375,-1.0625 0.25587,-0.27851 0.58641,-0.42954 0.96875,-0.4375 l 41.5,0 c 0.37866,0.0106 0.68016,0.15899 0.9375,0.4375 0.25734,0.27811 0.40625,0.64027 0.40625,1.0625 l 0,-3.71875 c 0,-0.42223 -0.14891,-0.78423 -0.40625,-1.0625 -0.25734,-0.27851 -0.56178,-0.42694 -0.9375,-0.4375 l -41.5,0 z m 46.25,0 c -0.38234,0.008 -0.71508,0.15899 -0.96875,0.4375 -0.24999,0.27851 -0.36765,0.64051 -0.375,1.0625 l 0,3.71875 c 0.007,-0.42183 0.12501,-0.78399 0.375,-1.0625 0.25587,-0.27851 0.58641,-0.42954 0.96875,-0.4375 l 41.5,0 c 0.38601,0.0106 0.68751,0.15899 0.9375,0.4375 0.25734,0.27811 0.40625,0.64027 0.40625,1.0625 l 0,-3.71875 c 0,-0.42223 -0.14891,-0.78423 -0.40625,-1.0625 -0.24999,-0.27851 -0.55443,-0.42694 -0.9375,-0.4375 l -41.5,0 z m -28.28125,28.9375 0,3.71875 20.4375,0 c 0.37278,0.0106 0.71876,0.15899 0.96875,0.4375 0.25734,0.27811 0.375,0.64027 0.375,1.0625 l 0,-3.71875 c 0,-0.42223 -0.11766,-0.78423 -0.375,-1.0625 -0.24999,-0.27851 -0.59303,-0.42694 -0.96875,-0.4375 l -20.4375,0 z m 46.25,0 0,3.71875 20.4375,0 c 0.37866,0.0106 0.68751,0.15899 0.9375,0.4375 0.25734,0.27811 0.40625,0.64027 0.40625,1.0625 l 0,-3.71875 c 0,-0.42223 -0.14891,-0.78423 -0.40625,-1.0625 -0.24999,-0.27851 -0.56104,-0.42694 -0.9375,-0.4375 l -20.4375,0 z m -120.6875,11.5 c -0.0599,0.6063 -0.11054,1.21138 -0.125,1.84375 0.11911,5.14434 1.73689,9.42626 4.875,12.84375 3.13811,3.41757 7.08622,5.18258 11.8125,5.3125 4.72701,-0.13008 8.64314,-1.89493 11.78125,-5.3125 3.13737,-3.41749 4.78861,-7.69941 4.90625,-12.84375 -0.0147,-0.63237 -0.0641,-1.23745 -0.125,-1.84375 -0.43776,4.31262 -2.03605,7.97845 -4.78125,10.96875 -3.13811,3.41757 -7.05424,5.18242 -11.78125,5.3125 -4.72628,-0.12992 -8.67439,-1.89493 -11.8125,-5.3125 -2.74585,-2.9903 -4.31765,-6.65613 -4.75,-10.96875 z"
           transform="matrix(0.13600552,0,0,0.12315479,4473.0713,470.99575)"
           id="path28900" />
      </g>
    </g>
  </g>
</svg>
