<?xml version="1.0" encoding="UTF-8" standalone="no"?>
<!-- Created with Inkscape (http://www.inkscape.org/) -->

<svg
   xmlns:dc="http://purl.org/dc/elements/1.1/"
   xmlns:cc="http://creativecommons.org/ns#"
   xmlns:rdf="http://www.w3.org/1999/02/22-rdf-syntax-ns#"
   xmlns:svg="http://www.w3.org/2000/svg"
   xmlns="http://www.w3.org/2000/svg"
   xmlns:sodipodi="http://sodipodi.sourceforge.net/DTD/sodipodi-0.dtd"
   xmlns:inkscape="http://www.inkscape.org/namespaces/inkscape"
   width="402.35461"
   height="422.70441"
   viewBox="0 0 106.45632 111.84055"
   version="1.1"
   id="svg23489"
   inkscape:version="0.48.5 r10040"
   sodipodi:docname="panel_medium_wood_small_rectangle.svg">
  <defs
     id="defs23483" />
  <sodipodi:namedview
     id="base"
     pagecolor="#7d848b"
     bordercolor="#666666"
     borderopacity="1.0"
     inkscape:pageopacity="1"
     inkscape:pageshadow="2"
     inkscape:zoom="0.1506769"
     inkscape:cx="-328.3014"
     inkscape:cy="1391.5579"
     inkscape:document-units="px"
     inkscape:current-layer="layer1"
     showgrid="false"
     inkscape:pagecheckerboard="false"
     showborder="true"
     units="px"
     inkscape:window-width="1920"
     inkscape:window-height="1017"
     inkscape:window-x="-8"
     inkscape:window-y="-8"
     inkscape:window-maximized="1"
     inkscape:showpageshadow="false"
     guidetolerance="28"
     fit-margin-left="25"
     fit-margin-top="25"
     fit-margin-bottom="25"
     fit-margin-right="25">
    <inkscape:grid
       type="xygrid"
       id="grid24034"
       spacingx="1px"
       spacingy="1px"
       empspacing="8"
       visible="true"
       enabled="true"
       snapvisiblegridlinesonly="true"
       originx="-1597.2703px"
       originy="1276.6364px" />
  </sodipodi:namedview>
  <metadata
     id="metadata23486">
    <rdf:RDF>
      <cc:Work
         rdf:about="">
        <dc:format>image/svg+xml</dc:format>
        <dc:type
           rdf:resource="http://purl.org/dc/dcmitype/StillImage" />
        <dc:title></dc:title>
        <cc:license
           rdf:resource="" />
        <dc:creator>
          <cc:Agent>
            <dc:title>Robert Brooks</dc:title>
          </cc:Agent>
        </dc:creator>
      </cc:Work>
    </rdf:RDF>
  </metadata>
  <g
     inkscape:label="Layer 1"
     inkscape:groupmode="layer"
     id="layer1"
     transform="translate(-422.61112,-522.93618)">
    <g
       transform="matrix(1.0227699,0,0,1.0227699,-4128.7122,338.67886)"
       id="g23583">
      <path
         inkscape:connector-curvature="0"
         style="color:#000000;fill:#3b2213;fill-opacity:1;fill-rule:nonzero;stroke:#3b2213;stroke-width:25;stroke-miterlimit:4;stroke-opacity:1;stroke-dasharray:none;marker:none;visibility:visible;display:inline;overflow:visible;enable-background:accumulate"
         d="m 17019.375,647.8125 c -1.848,-0.0188 -3.698,-0.002 -5.563,0.0312 -34.758,0.62574 -72.239,7.76004 -98.5,26.5 -16.056,11.45802 -31.003,30.95498 -41.656,47.8125 -15.731,24.89284 -18.315,55.4601 -17.75,86.84375 0.06,3.40755 0.201,6.76279 0.406,10.09375 -0.06,4.17786 -0.04,8.40668 0.03,12.625 0.788,43.77872 8.673,75.38922 36.718,103.9375 3.552,0.48839 11.594,6.78125 11.594,6.78125 0,0 -0.05,2.36998 -0.06,5.71875 0.661,0.58851 1.321,1.17052 2,1.75 29.934,25.60225 74.111,37.86196 113.312,37.15625 45.283,-0.81517 85.797,-20.59218 114.094,-51.59375 26.321,-28.83734 42.071,-67.38212 41.312,-109.5 -0.06,-3.56609 -0.291,-7.22146 -0.624,-10.90625 0,-0.0206 0,-0.0419 0,-0.0625 0.214,-3.8811 0.289,-7.80146 0.218,-11.75 -0.499,-27.72321 -9.471,-59.94075 -22.406,-82.375 -26.966,-46.7805 -75.844,-72.47948 -133.125,-73.0625 z"
         transform="matrix(0.26458334,0,0,0.26458334,-6.3049604e-6,18.562493)"
         id="path23585" />
      <path
         inkscape:connector-curvature="0"
         style="color:#000000;fill:#734125;fill-opacity:1;fill-rule:nonzero;stroke:none;stroke-width:12;marker:none;visibility:visible;display:inline;overflow:visible;enable-background:accumulate"
         d="m 4501.6762,195.98428 c -9.1963,0.16556 -19.1012,2.04693 -26.0494,7.0052 -4.2482,3.03161 -8.2049,8.1832 -11.0235,12.64342 -4.1621,6.58625 -4.8482,14.68091 -4.6987,22.9845 0.2085,11.58312 3.497,21.51788 10.9174,29.07128 0.9398,0.12922 1.8712,0.22656 1.8712,0.22656 0,0 -0.012,0.62967 -0.016,1.5157 0.175,0.15571 0.3495,0.31167 0.529,0.46499 7.9202,6.77393 19.6081,10.01015 29.9802,9.82343 11.981,-0.21568 22.6989,-5.44406 30.1858,-13.64656 6.964,-7.62988 11.1287,-17.83103 10.9281,-28.97472 -0.1321,-7.3351 -2.4963,-15.86265 -5.9183,-21.79835 -7.3652,-12.77665 -20.9139,-19.59974 -36.7031,-19.3155 z"
         id="path23587" />
      <path
         style="opacity:0.5;color:#000000;fill:#3b2213;fill-opacity:1;fill-rule:nonzero;stroke:none;stroke-width:18.89800072;marker:none;visibility:visible;display:inline;overflow:visible;enable-background:accumulate"
         d="m 4534.5444,255.45231 c 0,0 -1.5513,2.78366 -1.5453,3.11736 0,0.16663 0.1435,3.7338 0.2335,7.64674 0.046,-0.048 0.1,-0.1002 0.1441,-0.14814 0.4034,-0.4422 0.7878,-0.88838 1.1724,-1.34754 0.059,-4.0108 0.088,-7.76799 0,-9.2684 z m -63.864,5.20975 c -0.032,1.59902 0.1386,4.54557 0.2892,7.04728 0.8802,0.11797 1.7182,0.21167 1.7182,0.21167 0,0 -0.01,0.61849 0,1.50442 0.062,0.0554 0.1175,0.11957 0.1811,0.17457 -0.014,-2.8282 0.017,-5.99845 -0.064,-6.1455 -0.1216,-0.23374 -2.1207,-2.7925 -2.1207,-2.7925 z"
         id="path23589"
         class="switchable"
         inkscape:connector-curvature="0"
         name="grain" />
      <path
         inkscape:connector-curvature="0"
         style="color:#000000;fill:#af683f;fill-opacity:1;fill-rule:nonzero;stroke:none;stroke-width:12;marker:none;visibility:visible;display:inline;overflow:visible;enable-background:accumulate"
         d="m 4501.5679,189.97039 c -9.1962,0.16556 -19.1011,2.04697 -26.0494,7.00523 -2.4248,1.73062 -4.7504,4.15751 -6.8277,6.75101 l 7.6173,1.37835 -10.1887,2.06625 c -0.574,0.82949 -1.1183,1.66271 -1.6241,2.46309 -4.1621,6.58625 -4.8484,14.66564 -4.699,22.96919 0.2296,12.75114 4.2064,23.51687 13.2991,31.29389 7.9203,6.77397 19.6079,9.99484 29.98,9.80812 11.9814,-0.21569 22.6985,-5.44401 30.1858,-13.64658 2.4912,-2.72944 4.622,-5.7856 6.3266,-9.09932 -1.7072,-0.12167 -5.3,-0.4391 -7.4431,-1.02937 3.0549,-0.72803 5.3725,-0.2274 8.1954,-0.53025 2.5753,-5.56332 3.9669,-11.77463 3.8492,-18.31575 -0.1321,-7.33511 -2.496,-15.84732 -5.9182,-21.78305 -7.365,-12.7767 -20.9134,-19.61506 -36.7032,-19.33081 z"
         id="path23591" />
      <path
         inkscape:connector-curvature="0"
         style="color:#000000;fill:#4cdaff;fill-opacity:1;fill-rule:nonzero;stroke:none;stroke-width:12;marker:none;visibility:visible;display:inline;overflow:visible;enable-background:accumulate"
         d="m 4463.1586,250.14657 c -0.047,-0.11614 -0.098,-0.23282 -0.1452,-0.34947 5e-4,0.0309 0.02,0.0442 0.021,0.0761 0.035,0.0937 0.089,0.17994 0.1282,0.27326 z"
         id="path23593" />
      <path
         inkscape:connector-curvature="0"
         style="color:#000000;fill:#9b5933;fill-opacity:1;fill-rule:nonzero;stroke:none;stroke-width:12;marker:none;visibility:visible;display:inline;overflow:visible;enable-background:accumulate"
         d="m 4476.9456,263.49138 c -1.2602,0.0884 -2.7666,0.18441 -3.9901,0.2708 0.05,0.0431 0.09,0.0923 0.1393,0.13521 7.9203,6.77413 19.6079,9.99484 29.98,9.80812 6.1239,-0.11024 11.9187,-1.52552 17.1186,-3.98195 -7.3687,2.33736 -17.7532,3.61616 -30.041,-0.45414 -5.3634,-1.77664 -9.7023,-3.75053 -13.2074,-5.77804 z"
         id="path23595" />
      <path
         inkscape:connector-curvature="0"
         style="color:#000000;fill:#9b5933;fill-opacity:1;fill-rule:nonzero;stroke:none;stroke-width:12;marker:none;visibility:visible;display:inline;overflow:visible;enable-background:accumulate"
         d="m 4463.7336,250.64134 -0.3523,-0.009 c 1.779,4.15368 4.2866,7.89524 7.5642,11.19132 0.9478,-0.0562 2.1911,-0.13648 3.1653,-0.19471 -6.0816,-4.11699 -9.0685,-8.17021 -10.3772,-10.98762 z"
         id="path23597" />
      <path
         inkscape:connector-curvature="0"
         style="color:#000000;fill:#4cdaff;fill-opacity:1;fill-rule:nonzero;stroke:none;stroke-width:12;marker:none;visibility:visible;display:inline;overflow:visible;enable-background:accumulate"
         d="m 4462.8815,248.36058 c 0,-4.5e-4 -0.02,7.8e-4 -0.029,5.2e-4 0.037,0.39979 0.074,0.85961 0.1628,1.43598 0.047,0.11672 0.096,0.23338 0.1452,0.34946 0.068,0.16547 0.1525,0.32158 0.2228,0.48584 l 0.3525,0.009 c -0.4138,-0.89046 -0.7118,-1.68986 -0.8524,-2.28076 z"
         id="path23599" />
      <path
         inkscape:connector-curvature="0"
         style="color:#000000;fill:#4cdaff;fill-opacity:1;fill-rule:nonzero;stroke:none;stroke-width:12;marker:none;visibility:visible;display:inline;overflow:visible;enable-background:accumulate"
         d="m 4462.8328,248.22365 c 7e-4,0.0372 0.021,0.099 0.022,0.13733 0.019,8e-5 0.019,-8e-4 0.029,-5.3e-4 -0.02,-0.0388 -0.041,-0.0994 -0.047,-0.13687 z"
         id="path23601" />
      <path
         inkscape:connector-curvature="0"
         style="color:#000000;fill:#4cdaff;fill-opacity:1;fill-rule:nonzero;stroke:none;stroke-width:12;marker:none;visibility:visible;display:inline;overflow:visible;enable-background:accumulate"
         d="m 4462.7493,246.98529 c -5e-4,-0.027 2e-4,0.008 -0.028,0.0923 -0.042,0.18288 -0.013,0.58236 0.1126,1.146 -0.058,-0.72391 -0.07,-1.17095 -0.083,-1.23837 z"
         id="path23603" />
      <path
         inkscape:connector-curvature="0"
         style="color:#000000;fill:#d3865b;fill-opacity:1;fill-rule:nonzero;stroke:none;stroke-width:12;marker:none;visibility:visible;display:inline;overflow:visible;enable-background:accumulate"
         d="m 4460.6824,219.75998 c 0.368,-0.0203 0.8023,-0.0321 1.1777,-0.0521 0.5197,-1.60344 1.1012,-3.17486 1.9064,-4.65711 -0.6322,0.0695 -1.2803,0.17153 -1.9097,0.23335 l -0.02,3.5e-4 c -0.4911,1.44779 -0.8648,2.94686 -1.1591,4.47536 z"
         id="path23605"
         sodipodi:nodetypes="ccccccc" />
      <path
         inkscape:connector-curvature="0"
         style="color:#000000;fill:#d3865b;fill-opacity:1;fill-rule:nonzero;stroke:none;stroke-width:12;marker:none;visibility:visible;display:inline;overflow:visible;enable-background:accumulate"
         d="m 4461.1396,222.1856 c -0.2622,0.0165 -0.5378,0.0293 -0.7952,0.0446 -0.4456,3.36204 -0.6118,6.83089 -0.5481,10.37297 0.01,0.499 0.018,0.99162 0.046,1.48403 0.024,-4.11385 1.315,-11.00152 2.2192,-14.78382 z"
         id="path23607"
         sodipodi:nodetypes="ccsccc" />
      <path
         inkscape:connector-curvature="0"
         style="color:#000000;fill:#d3865b;fill-opacity:1;fill-rule:nonzero;stroke:none;stroke-width:12;marker:none;visibility:visible;display:inline;overflow:visible;enable-background:accumulate"
         d="m 4533.5965,203.00214 c -1.0938,0.12005 -2.3505,0.28787 -3.5586,0.44677 3.2407,2.73971 6.0825,5.99025 8.3051,9.84622 0.588,1.01997 1.1018,2.18482 1.6218,3.33844 0.3842,-0.0128 1.094,-0.0447 1.4684,-0.0568 -0.902,-2.62497 -1.9319,-5.14184 -3.1621,-7.27531 -1.3383,-2.32259 -2.9511,-4.37615 -4.6746,-6.29909 z"
         id="path23609" />
      <path
         inkscape:connector-curvature="0"
         style="color:#000000;fill:#d3865b;fill-opacity:1;fill-rule:nonzero;stroke:none;stroke-width:12;marker:none;visibility:visible;display:inline;overflow:visible;enable-background:accumulate"
         d="m 4501.5646,189.96951 c -9.1961,0.16555 -19.0973,2.04543 -26.0455,7.00374 -1.7973,1.28264 -3.5432,2.95196 -5.1714,4.78391 -0.019,0.0219 -0.027,0.0437 -0.048,0.0656 -0.2642,0.29925 -0.5333,0.59648 -0.7927,0.90395 -0.2767,0.32886 -0.5549,0.66617 -0.8232,1.0015 l 3.1158,0.55863 4.5118,0.8246 -6.4628,1.29713 -3.7229,0.76257 c -0.038,0.0578 -0.084,0.10618 -0.1262,0.16406 -0.5301,0.77204 -1.0411,1.54715 -1.5116,2.29177 -0.7278,1.1518 -1.3145,2.37151 -1.8441,3.60798 -0.1596,0.37168 -0.3054,0.74564 -0.4487,1.12421 -0.097,0.26946 -0.2172,0.52728 -0.3092,0.79813 -0.019,0.0395 -0.022,0.0904 -0.029,0.12984 0.63,-0.0618 1.2726,-0.15888 1.9044,-0.22836 0.2595,-0.47796 0.5062,-0.9745 0.7991,-1.43781 0.1332,-0.21157 0.3351,-0.425 0.4735,-0.6394 1.1104,-1.71678 2.3108,-3.50323 3.6912,-5.22638 3.039,-0.8891 9.6903,-2.84771 10.4889,-3.19744 0.6908,-0.30245 -2.8752,-1.13969 -5.6962,-1.91935 0.6786,-0.59925 1.3756,-1.15715 2.0732,-1.65488 6.9483,-4.95828 16.8495,-6.83818 26.0456,-7.00373 9.7542,-0.1756 18.641,2.37361 25.754,7.34906 0.9278,0.64906 1.7755,1.38857 2.6422,2.11993 1.2085,-0.15909 2.4729,-0.33235 3.5671,-0.45243 -0.6159,-0.68675 -1.2043,-1.40231 -1.8643,-2.03688 -0.068,-0.0651 -0.1297,-0.14204 -0.1993,-0.20666 -7.6497,-7.23637 -18.182,-10.99547 -29.9729,-10.7832 z m 39.8661,26.60255 c -0.3746,0.0126 -1.0867,0.046 -1.471,0.0588 0.3148,0.69881 0.6261,1.39835 0.9121,2.13494 l 1.2937,-0.0233 c -0.2174,-0.73861 -0.488,-1.45208 -0.7348,-2.17049 z m -79.5753,3.13093 c -0.3755,0.0205 -0.8115,0.0342 -1.1797,0.0537 -0.018,0.0829 -0.03,0.16018 -0.044,0.2434 -0.055,0.2995 -0.1124,0.60675 -0.1617,0.90874 -0.07,0.43129 -0.064,0.89242 -0.1209,1.32855 0.2576,-0.0164 0.5296,-0.0311 0.7917,-0.0465 0.2018,-0.84207 0.4514,-1.67163 0.7157,-2.48776 z m 12.2557,41.93255 c -0.9742,0.0582 -2.2192,0.13033 -3.167,0.18632 0.6527,0.65618 1.2914,1.31806 2.0086,1.9372 1.2231,-0.0862 2.7298,-0.17748 3.99,-0.2659 -1.0649,-0.61605 -1.9156,-1.2375 -2.8316,-1.85766 z"
         id="path23611" />
      <path
         inkscape:connector-curvature="0"
         style="color:#000000;fill:#d3865b;fill-opacity:1;fill-rule:nonzero;stroke:none;stroke-width:12;marker:none;visibility:visible;display:inline;overflow:visible;enable-background:accumulate"
         d="m 4542.1609,218.73708 c -0.3604,0.006 -0.9133,0.0164 -1.2855,0.0231 1.7521,4.50826 2.9787,9.60401 3.3055,14.39071 0.021,-0.68376 0.02,-1.37516 0.01,-2.06667 -0.072,-3.97703 -0.8318,-8.27638 -2.0284,-12.34717 z"
         id="path23613" />
      <path
         inkscape:connector-curvature="0"
         style="color:#000000;fill:#9b5933;fill-opacity:1;fill-rule:nonzero;stroke:none;stroke-width:12;marker:none;visibility:visible;display:inline;overflow:visible;enable-background:accumulate"
         d="m 4531.3793,200.6082 c 1.7906,1.85382 3.399,3.88228 4.7945,6.11317 3.6424,5.82271 6.1638,14.1919 6.2934,21.39362 0.1265,7.02705 -0.9527,14.76577 -3.7171,21.39019 0.517,-0.0132 1.0438,-0.0468 1.59,-0.10512 2.5739,-5.56216 3.9669,-11.77463 3.8492,-18.31576 -0.1321,-7.3351 -2.496,-15.84731 -5.9182,-21.78304 -1.9031,-3.30226 -4.2306,-6.20553 -6.8918,-8.69301 z m 6.7823,50.22402 c -1.4654,3.16687 -3.3396,6.02389 -5.6811,8.38357 -8.0023,8.06514 -21.171,10.57593 -33.9565,10.8061 -7.7419,0.13937 -16.1551,-1.35253 -23.4102,-4.53818 7.8076,5.68896 18.4373,8.39327 27.9616,8.22181 11.9814,-0.21569 22.6985,-5.44401 30.1858,-13.64658 2.4902,-2.72854 4.6239,-5.78753 6.3266,-9.09932 -0.3687,-0.0262 -0.9149,-0.0825 -1.4262,-0.12732 z"
         id="path23615" />
      <g
         transform="matrix(1.955699,-0.03520698,0.03520698,1.955699,-3353.5509,-481.98563)"
         id="g23617"
         class="switchable"
         name="grain">
        <g
           id="g23619">
          <path
             id="path23621"
             d="m 4024.2696,422.03312 c -0.6576,0.0688 -1.3461,0.1477 -2.0815,0.24257 -5.3733,0.69332 -14.3001,2.95323 -23.5596,4.3974 -3.251,0.50703 -6.5393,0.90221 -9.7182,1.10327 -0.152,0.33883 -0.2809,0.69029 -0.4069,1.04066 3.2532,-0.26052 6.6129,-0.72737 9.9764,-1.25193 9.3343,-1.45584 18.6615,-3.37392 23.865,-4.04528 1.0972,-0.14162 2.0837,-0.24481 3.0046,-0.32865 -0.3461,-0.40171 -0.7043,-0.78953 -1.0798,-1.15804 z m 4.9451,8.17667 c -4.8745,0.0752 -11.4119,0.18618 -19.1388,0.33644 -6.5799,0.128 -13.3223,0.27816 -18.7556,0.43818 -1.2379,0.0364 -2.3774,0.0731 -3.4583,0.10956 -0.088,0.41499 -0.1634,0.83482 -0.2272,1.25975 7.571,-0.34853 19.0193,-0.81453 23.4033,-0.89983 7.3188,-0.14231 13.891,-0.15077 18.5053,-0.13301 -0.1024,-0.37348 -0.2113,-0.74728 -0.3287,-1.11109 z m -40.4321,15.48592 c 0.1334,0.39789 0.2814,0.78839 0.4381,1.17371 l 38.0191,1.17138 c 0.044,-0.0805 0.09,-0.16132 0.1333,-0.24255 -0.8719,-0.0779 -2.1624,-0.30338 -3.2523,-0.62483 1.4963,-0.32823 2.641,-0.0984 3.9984,-0.18779 -13.649,-0.12238 -26.3839,-0.70321 -39.3366,-1.28992 z m 36.4766,5.16096 c -5.827,0.39118 -12.1784,0.90938 -18.7593,1.22274 -5.0486,0.24045 -9.0821,0.19915 -13.2149,0.36909 0.3315,0.34618 0.6832,0.68195 1.0483,1.00936 4.3272,-0.22686 8.5077,-0.23281 13.5047,-0.47081 5.9351,-0.28258 11.028,-0.47438 16.1707,-0.7456 0.35,-0.37861 0.9282,-0.98173 1.2505,-1.38478 z"
             style="font-size:medium;font-style:normal;font-variant:normal;font-weight:normal;font-stretch:normal;text-indent:0;text-align:start;text-decoration:none;line-height:normal;letter-spacing:normal;word-spacing:normal;text-transform:none;direction:ltr;block-progression:tb;writing-mode:lr-tb;text-anchor:start;baseline-shift:baseline;opacity:0.5;color:#000000;fill:#c1774d;fill-opacity:1;stroke:none;stroke-width:5.00009584;marker:none;visibility:visible;display:inline;overflow:visible;enable-background:accumulate;font-family:Sans;-inkscape-font-specification:Sans"
             inkscape:connector-curvature="0"
             sodipodi:nodetypes="ccsccsccccscccccccccccccccccccc" />
          <path
             inkscape:connector-curvature="0"
             style="font-size:medium;font-style:normal;font-variant:normal;font-weight:normal;font-stretch:normal;text-indent:0;text-align:start;text-decoration:none;line-height:normal;letter-spacing:normal;word-spacing:normal;text-transform:none;direction:ltr;block-progression:tb;writing-mode:lr-tb;text-anchor:start;baseline-shift:baseline;color:#000000;fill:#9b5933;fill-opacity:1;stroke:none;stroke-width:5;marker:none;visibility:visible;display:inline;overflow:visible;enable-background:accumulate;font-family:Sans;-inkscape-font-specification:Sans"
             d="m 4024.2696,421.55063 c -0.6575,0.0688 -1.3461,0.1477 -2.0815,0.24257 -5.3733,0.69332 -14.3,2.95323 -23.5595,4.3974 -3.251,0.50703 -6.5394,0.90222 -9.7182,1.10328 -0.152,0.33882 -0.281,0.69028 -0.4069,1.04065 3.2532,-0.26053 6.6129,-0.72737 9.9763,-1.25193 9.3344,-1.45584 18.6615,-3.37392 23.8651,-4.04528 1.0972,-0.14162 2.0837,-0.2448 3.0046,-0.32866 -0.346,-0.40169 -0.7043,-0.78951 -1.0799,-1.15803 z m 4.9451,8.17667 c -4.8745,0.0753 -11.4118,0.18619 -19.1387,0.33644 -6.5799,0.128 -13.3223,0.27816 -18.7557,0.43818 -1.2379,0.0365 -2.3774,0.0731 -3.4583,0.10957 -0.088,0.41499 -0.1633,0.83481 -0.2271,1.25974 7.5709,-0.34854 19.0193,-0.81453 23.4033,-0.89984 7.3188,-0.14229 13.8909,-0.15076 18.5053,-0.133 -0.1025,-0.37348 -0.2114,-0.74728 -0.3288,-1.11109 z m -40.7035,15.51608 c 0.1335,0.39789 0.2815,0.78839 0.4382,1.17371 l 38.8333,1.11106 c 0.045,-0.0806 0.089,-0.16132 0.1332,-0.24255 -0.8718,-0.0779 -2.7051,-0.27322 -3.7951,-0.59466 1.4964,-0.32824 2.6411,-0.0984 3.9985,-0.18779 -13.6491,-0.12239 -26.6554,-0.67307 -39.6081,-1.25977 z m 37.2607,5.28159 c -5.827,0.39118 -12.6911,0.75859 -19.2719,1.07195 -5.0486,0.24044 -9.6852,0.4404 -13.8181,0.61034 0.3315,0.34618 0.6833,0.68195 1.0484,1.00935 4.3271,-0.22685 9.1108,-0.47405 14.1077,-0.71204 5.9352,-0.28259 11.7819,-0.5347 16.9246,-0.80592 0.35,-0.37861 0.687,-0.77064 1.0093,-1.17368 z"
             id="path23623" />
        </g>
        <path
           id="path23625"
           d="m 4024.2618,421.55063 c -0.6552,0.0687 -1.3398,0.14805 -2.0737,0.24257 -0.012,0.003 -0.033,0.006 -0.047,0.008 0.4682,0.3403 0.8939,0.7293 1.3303,1.11112 0.619,-0.0702 1.2629,-0.14433 1.8231,-0.19563 -0.3085,-0.3567 -0.5995,-0.73371 -0.9312,-1.06414 -0.034,-0.0339 -0.067,-0.068 -0.1017,-0.10173 z m -34.1073,5.63368 c -0.4044,0.0316 -0.8192,0.084 -1.2206,0.10957 -0.085,0.18851 -0.166,0.37901 -0.2426,0.57118 -0.052,0.13686 -0.1147,0.26926 -0.1643,0.40687 -0.01,0.02 -0.01,0.0425 -0.015,0.0626 0.3227,-0.0258 0.6545,-0.072 0.9782,-0.10171 0.137,-0.24194 0.2685,-0.48572 0.4224,-0.71986 0.07,-0.10691 0.1698,-0.22034 0.2427,-0.32865 z m 39.0211,2.54299 c -0.1915,0.003 -0.5546,0.0125 -0.7511,0.0155 0.1545,0.36011 0.3065,0.71631 0.4459,1.09544 0.1903,0 0.473,0 0.6573,0 -0.1042,-0.37953 -0.2326,-0.74159 -0.3521,-1.11108 z m -40.7034,0.86851 c -0.1921,0.007 -0.4142,0.009 -0.6025,0.0158 -0.01,0.0422 -0.023,0.0828 -0.031,0.12519 -0.031,0.15259 -0.058,0.30772 -0.086,0.46164 -0.04,0.21981 -0.045,0.45049 -0.078,0.67291 0.1317,-0.006 0.2727,-0.01 0.4069,-0.0155 0.1106,-0.42856 0.2484,-0.84505 0.3911,-1.25976 z m 5.8763,21.54102 c -0.4985,0.0208 -1.1348,0.0505 -1.6198,0.0704 0.3275,0.34143 0.6488,0.68626 1.0096,1.00935 0.6262,-0.0328 1.3971,-0.0681 2.0421,-0.1017 -0.5388,-0.3247 -0.9695,-0.65263 -1.4319,-0.97808 z"
           style="color:#000000;fill:#9b5933;fill-opacity:1;fill-rule:nonzero;stroke:none;stroke-width:12;marker:none;visibility:visible;display:inline;overflow:visible;enable-background:accumulate"
           inkscape:connector-curvature="0" />
      </g>
    </g>
  </g>
</svg>
