<?xml version="1.0" encoding="UTF-8" standalone="no"?>
<!-- Created with Inkscape (http://www.inkscape.org/) -->

<svg
   xmlns:dc="http://purl.org/dc/elements/1.1/"
   xmlns:cc="http://creativecommons.org/ns#"
   xmlns:rdf="http://www.w3.org/1999/02/22-rdf-syntax-ns#"
   xmlns:svg="http://www.w3.org/2000/svg"
   xmlns="http://www.w3.org/2000/svg"
   xmlns:xlink="http://www.w3.org/1999/xlink"
   xmlns:sodipodi="http://sodipodi.sourceforge.net/DTD/sodipodi-0.dtd"
   xmlns:inkscape="http://www.inkscape.org/namespaces/inkscape"
   width="582.55957"
   height="279.49454"
   viewBox="0 0 154.13555 73.9496"
   version="1.1"
   id="svg23489"
   inkscape:version="0.48.5 r10040"
   sodipodi:docname="paper_overlay_strip.svg">
  <defs
     id="defs23483">
    <linearGradient
       inkscape:collect="always"
       xlink:href="#linearGradient31960"
       id="linearGradient31966"
       x1="1285.4922"
       y1="1281.0408"
       x2="1285.4922"
       y2="1302.0753"
       gradientUnits="userSpaceOnUse" />
    <linearGradient
       inkscape:collect="always"
       id="linearGradient31960">
      <stop
         style="stop-color:#f0ebd8;stop-opacity:1"
         offset="0"
         id="stop31962" />
      <stop
         style="stop-color:#ede7d0;stop-opacity:1"
         offset="1"
         id="stop31964" />
    </linearGradient>
  </defs>
  <sodipodi:namedview
     id="base"
     pagecolor="#7d848b"
     bordercolor="#666666"
     borderopacity="1.0"
     inkscape:pageopacity="1"
     inkscape:pageshadow="2"
     inkscape:zoom="0.30135381"
     inkscape:cx="12.05025"
     inkscape:cy="303.48875"
     inkscape:document-units="px"
     inkscape:current-layer="layer1"
     showgrid="false"
     inkscape:pagecheckerboard="false"
     showborder="true"
     units="px"
     inkscape:window-width="1920"
     inkscape:window-height="1017"
     inkscape:window-x="-8"
     inkscape:window-y="-8"
     inkscape:window-maximized="1"
     inkscape:showpageshadow="false"
     guidetolerance="28"
     fit-margin-left="25"
     fit-margin-top="25"
     fit-margin-bottom="25"
     fit-margin-right="25">
    <inkscape:grid
       type="xygrid"
       id="grid24034"
       spacingx="1px"
       spacingy="1px"
       empspacing="8"
       visible="true"
       enabled="true"
       snapvisiblegridlinesonly="true"
       originx="-1139.1703px"
       originy="-669.4096px" />
  </sodipodi:namedview>
  <metadata
     id="metadata23486">
    <rdf:RDF>
      <cc:Work
         rdf:about="">
        <dc:format>image/svg+xml</dc:format>
        <dc:type
           rdf:resource="http://purl.org/dc/dcmitype/StillImage" />
        <dc:title></dc:title>
        <cc:license
           rdf:resource="" />
        <dc:creator>
          <cc:Agent>
            <dc:title>Robert Brooks</dc:title>
          </cc:Agent>
        </dc:creator>
      </cc:Work>
    </rdf:RDF>
  </metadata>
  <g
     inkscape:label="Layer 1"
     inkscape:groupmode="layer"
     id="layer1"
     transform="translate(-301.4055,-45.935755)">
    <g
       id="g31953"
       transform="translate(-933.85481,-1216.7605)">
      <path
         inkscape:connector-curvature="0"
         id="path31922"
         d="m 1245.1875,1271.951 -0.099,0.9261 -0.3804,-0.025 c 0,0 -0.044,2.8655 -0.074,5.0684 -0.02,0.7082 -0.036,1.4941 -0.05,2.4226 0.01,0 0.011,0.01 0.016,0.01 -0.01,0.569 -0.01,0.909 -0.016,1.3726 0.5821,0.2569 1.185,0.487 1.7528,0.7028 l -1.7859,0.6366 c 0,0.4146 0,0.9432 0,1.3808 -0.01,1.6515 -0.018,3.3912 -0.016,5.2999 -2e-4,0.2301 0,0.4116 0,0.645 0,1.7592 0.01,3.5423 0.016,5.4157 0.054,14.4029 0.2811,31.5846 0.2811,31.5846 l 6.3914,0 c 0.8679,-2.3499 1.8355,-4.4566 1.8355,-4.4566 l 1.5627,4.4566 125.5035,0 0,-1.3808 0,-52.1973 0,-1.3808 -22.7129,0 -3.7289,4.407 -4.7543,-4.746 -95.283,0 -8.4584,-0.1406 z"
         style="color:#000000;fill:#c7af7b;fill-opacity:1;fill-rule:nonzero;stroke:#3b2213;stroke-width:5.29166698;stroke-linecap:round;stroke-linejoin:round;stroke-miterlimit:4;stroke-opacity:1;stroke-dasharray:none;stroke-dashoffset:0;marker:none;visibility:visible;display:inline;overflow:visible;enable-background:accumulate" />
      <path
         style="color:#000000;fill:#c7af7b;fill-opacity:1;fill-rule:nonzero;stroke:none;stroke-width:20;marker:none;visibility:visible;display:inline;overflow:visible;enable-background:accumulate"
         d="m 1244.7079,1272.8484 c 0,0 -0.079,5.8754 -0.124,8.8718 1.6604,0.7329 3.6793,1.4056 3.6793,1.4056 l -3.7124,1.3146 c -0.1115,14.2989 0.2811,42.9452 0.2811,42.9452 l 6.3913,0 c 0.8679,-2.3499 1.8356,-4.4566 1.8356,-4.4566 l 1.5627,4.4566 125.5034,0 0,-53.5781 -22.7128,0 -3.729,4.4069 -4.7542,-4.7459 -95.2831,0 z"
         id="path31943"
         inkscape:connector-curvature="0"
         sodipodi:nodetypes="ccccccccccccccc" />
      <path
         sodipodi:nodetypes="ccccccccccccccc"
         inkscape:connector-curvature="0"
         id="path31924"
         d="m 1244.7079,1271.4715 c 0,0 -0.079,5.8755 -0.124,8.8718 1.6604,0.7329 3.6794,1.4056 3.6794,1.4056 l -3.7125,1.3146 c -0.1115,14.2989 0.2811,42.9452 0.2811,42.9452 l 6.3914,0 c 0.8678,-2.3498 1.8355,-4.4566 1.8355,-4.4566 l 1.5627,4.4566 125.5035,0 0,-53.5781 -22.7129,0 -3.7289,4.407 -4.7543,-4.746 -95.283,0 z"
         style="color:#000000;fill:url(#linearGradient31966);fill-opacity:1;fill-rule:nonzero;stroke:none;stroke-width:20;marker:none;visibility:visible;display:inline;overflow:visible;enable-background:accumulate" />
      <path
         inkscape:connector-curvature="0"
         id="path31938"
         d="m 1244.7079,1271.4715 c 0,0 -0.079,5.8755 -0.124,8.8718 0.06,0.026 0.1212,0.056 0.1819,0.083 0.1306,-3.0367 1.1327,-7.7639 1.1327,-7.7639 l 7.7474,0.6201 95.283,0 4.7543,4.746 3.7289,-4.407 21.6959,0 0.9922,52.3875 0.025,0 0,-53.5781 -22.7129,0 -3.7289,4.407 -4.7543,-4.746 -95.283,0 -8.938,-0.6201 z m 2.3978,10.6825 -2.5549,0.9095 c 0,0.3575 0,0.8159 0,1.1906 l 3.7125,-1.3146 c 0,0 -0.475,-0.349 -1.1576,-0.7855 z"
         style="color:#000000;fill:#ffffff;fill-opacity:1;fill-rule:nonzero;stroke:none;stroke-width:20;marker:none;visibility:visible;display:inline;overflow:visible;enable-background:accumulate" />
      <path
         inkscape:connector-curvature="0"
         id="rect31948"
         d="m 1244.6417,1309.3234 c 0.085,9.2082 0.1902,16.6853 0.1902,16.6853 l 6.3914,0 c 0.8678,-2.3499 1.8355,-4.4566 1.8355,-4.4566 l 1.5627,4.4566 125.5035,0 0,-16.6853 -135.4833,0 z"
         style="color:#000000;fill:#e6dfc8;fill-opacity:1;fill-rule:nonzero;stroke:none;stroke-width:20;marker:none;visibility:visible;display:inline;overflow:visible;enable-background:accumulate" />
    </g>
  </g>
</svg>
