<?xml version="1.0" encoding="UTF-8" standalone="no"?>
<!-- Created with Inkscape (http://www.inkscape.org/) -->

<svg
   xmlns:dc="http://purl.org/dc/elements/1.1/"
   xmlns:cc="http://creativecommons.org/ns#"
   xmlns:rdf="http://www.w3.org/1999/02/22-rdf-syntax-ns#"
   xmlns:svg="http://www.w3.org/2000/svg"
   xmlns="http://www.w3.org/2000/svg"
   xmlns:xlink="http://www.w3.org/1999/xlink"
   xmlns:sodipodi="http://sodipodi.sourceforge.net/DTD/sodipodi-0.dtd"
   xmlns:inkscape="http://www.inkscape.org/namespaces/inkscape"
   width="996.46881"
   height="1734.6909"
   viewBox="0 0 263.64903 458.97032"
   version="1.1"
   id="svg23489"
   inkscape:version="0.48.5 r10040"
   sodipodi:docname="paper_overlay_large.svg">
  <defs
     id="defs23483">
    <linearGradient
       inkscape:collect="always"
       xlink:href="#linearGradient31578"
       id="linearGradient31601"
       gradientUnits="userSpaceOnUse"
       x1="1122.3896"
       y1="-599.55536"
       x2="1122.3896"
       y2="-842.98364" />
    <linearGradient
       inkscape:collect="always"
       id="linearGradient31578">
      <stop
         style="stop-color:#ede7d0;stop-opacity:1"
         offset="0"
         id="stop31580" />
      <stop
         style="stop-color:#f0ebd8;stop-opacity:1"
         offset="1"
         id="stop31582" />
    </linearGradient>
    <linearGradient
       inkscape:collect="always"
       xlink:href="#linearGradient31578"
       id="linearGradient33066"
       gradientUnits="userSpaceOnUse"
       x1="1122.3896"
       y1="-599.55536"
       x2="1122.3896"
       y2="-842.98364" />
  </defs>
  <sodipodi:namedview
     id="base"
     pagecolor="#7d848b"
     bordercolor="#666666"
     borderopacity="1.0"
     inkscape:pageopacity="1"
     inkscape:pageshadow="2"
     inkscape:zoom="0.30135381"
     inkscape:cx="-538.73386"
     inkscape:cy="1316.6503"
     inkscape:document-units="px"
     inkscape:current-layer="layer1"
     showgrid="false"
     inkscape:pagecheckerboard="false"
     showborder="true"
     units="px"
     inkscape:window-width="1920"
     inkscape:window-height="1017"
     inkscape:window-x="-8"
     inkscape:window-y="-8"
     inkscape:window-maximized="1"
     inkscape:showpageshadow="false"
     guidetolerance="28"
     fit-margin-left="25"
     fit-margin-top="25"
     fit-margin-bottom="25"
     fit-margin-right="25">
    <inkscape:grid
       type="xygrid"
       id="grid24034"
       spacingx="1px"
       spacingy="1px"
       empspacing="8"
       visible="true"
       enabled="true"
       snapvisiblegridlinesonly="true"
       originx="-733.36197px"
       originy="878.71447px" />
  </sodipodi:namedview>
  <metadata
     id="metadata23486">
    <rdf:RDF>
      <cc:Work
         rdf:about="">
        <dc:format>image/svg+xml</dc:format>
        <dc:type
           rdf:resource="http://purl.org/dc/dcmitype/StillImage" />
        <dc:title></dc:title>
        <cc:license
           rdf:resource="" />
        <dc:creator>
          <cc:Agent>
            <dc:title>Robert Brooks</dc:title>
          </cc:Agent>
        </dc:creator>
      </cc:Work>
    </rdf:RDF>
  </metadata>
  <g
     inkscape:label="Layer 1"
     inkscape:groupmode="layer"
     id="layer1"
     transform="translate(-194.03536,-70.522876)">
    <g
       id="g31594"
       transform="translate(-775.43934,993.7696)">
      <path
         sodipodi:nodetypes="cccccccccscccccccccccccccccccccccccc"
         inkscape:connector-curvature="0"
         id="path31568"
         transform="matrix(0.26458334,0,0,0.26458334,-6.3049604e-6,18.562493)"
         d="m 4623.125,-3522.0938 -180.7812,2.5626 -15.875,34.75 c 0,0 -16.6205,-22.6299 -22.3438,-34.75 l -520.4688,0 c 0,0 -142.2703,3e-4 -182,-1.2813 0.1206,4.8025 0.2268,9.3606 0.3438,14.0937 -0.1005,0 -0.2445,0 -0.3438,0 5.8309,232.2205 7.4182,382.8195 7.5626,513 0,11.3665 0.016,22.7495 0,33.875 -0.1547,110.2809 -1.1563,210.7976 -1.1563,342.5626 l 0.031,0 c 0,4.7711 -0.031,9.2398 -0.031,14.0937 l 27.7813,15.5937 -17.5313,8.7813 -7.6875,456.25 0,14.0937 0,231.9688 0,14.0938 c 0,0 251.5945,0.3125 289.6562,-5.125 l 25.2813,-43.7813 39.4375,40.5313 c 77.9357,10.8747 556.7813,5.664 556.7813,5.664 l 0.5391,-15 c 0.012,-5.8906 -0.5391,-9.9685 -0.5391,-9.9685 l -6.3438,-160.4143 c -1.9334,-0.7061 -4.767,-1.6714 -7.6875,-2.5 4.0081,-3.6794 7.6875,-6.7812 7.6875,-6.7812 l 0,-14.0938 0,-1255.9062 0,-14.0938 -2.125,-0.4688 c 3.5828,-2.456 7.1118,-4.8991 9.8125,-6.875 l 0,-14.0937 0,-142.6875 z"
         style="color:#000000;fill:#ab9366;fill-opacity:1;fill-rule:nonzero;stroke:#3b2213;stroke-width:25;stroke-opacity:1;marker:none;visibility:visible;display:inline;overflow:visible;enable-background:accumulate" />
      <path
         style="color:#000000;fill:#ab9366;fill-opacity:1;fill-rule:nonzero;stroke:none;stroke-width:25;marker:none;visibility:visible;display:inline;overflow:visible;enable-background:accumulate"
         d="m 1223.2012,-909.59348 -47.8318,0.678 -4.2002,9.1943 c 0,0 -4.3975,-5.9875 -5.9118,-9.1943 l -137.7067,0 c 0,0 -37.64352,10e-5 -48.15532,-0.339 3.0855,122.8833 1.6955,159.3729 1.6955,239.0593 l 10.8561,6.102 -8.1441,4.0762 -2.034,120.71618 0,65.10403 c 0,0 66.56772,0.0827 76.63822,-1.35599 l 6.689,-11.58377 10.4344,10.72385 c 20.6205,2.87729 147.5549,1.43865 147.5549,1.43865 l -1.9182,-45.26024 c -1.0746,-0.39243 -3.1794,-1.09966 -4.407,-1.09966 -1.6954,0 4.407,-5.08497 4.407,-5.08497 l 0,-336.02088 -4.746,-1.0335 c 0,0 4.51,-2.9778 6.78,-4.6385 z"
         id="path31566"
         inkscape:connector-curvature="0"
         sodipodi:nodetypes="ccccccccccccccccsccccc" />
      <path
         sodipodi:nodetypes="ccccccccccccccccsccccc"
         inkscape:connector-curvature="0"
         id="path31553"
         d="m 1223.2012,-913.32348 -47.8318,0.678 -4.2002,9.1943 c 0,0 -4.3975,-5.9875 -5.9118,-9.1943 l -137.7067,0 c 0,0 -37.64352,10e-5 -48.15532,-0.339 3.0855,122.8833 1.6955,159.3729 1.6955,239.0593 l 10.8561,6.102 -8.1441,4.0762 -2.034,120.71618 0,65.10403 c 0,0 66.56772,0.0827 76.63822,-1.35599 l 6.689,-11.58377 10.4344,10.72385 c 20.6205,2.87729 147.5549,1.43865 147.5549,1.43865 l -1.9182,-45.26024 c -1.0746,-0.39243 -3.1794,-1.09966 -4.407,-1.09966 -1.6954,0 4.407,-5.08497 4.407,-5.08497 l 0,-336.02088 -4.746,-1.0335 c 0,0 4.51,-2.9778 6.78,-4.6385 z"
         style="color:#000000;fill:url(#linearGradient33066);fill-opacity:1;fill-rule:nonzero;stroke:none;stroke-width:25;marker:none;visibility:visible;display:inline;overflow:visible;enable-background:accumulate" />
      <path
         id="path31573"
         transform="matrix(0.26458334,0,0,0.26458334,-6.3049604e-6,18.562493)"
         d="m 4623.125,-3522.0938 -180.7812,2.5626 -15.875,34.75 c 0,0 -16.6205,-22.6299 -22.3438,-34.75 l -520.4688,0 c 0,0 -142.2703,3e-4 -182,-1.2813 11.6618,464.4408 6.4063,602.3543 6.4063,903.5313 l 0.031,0.031 c 0.7707,-290.572 22.9602,-431.7718 11.5,-888.1875 39.7296,1.2816 164.0624,1.2813 164.0624,1.2813 l 520.4688,0 c 5.7233,12.1201 22.3438,34.75 22.3438,34.75 l 15.875,-34.75 167.9687,-2.5626 0,150.3438 c 4.5505,-3.0923 9.3437,-6.3998 12.8125,-8.9375 l 0,-156.7813 z M 4605,-3346.1562 c -8.8621,6.1902 -20.3125,13.75 -20.3125,13.75 l 17.9375,3.9062 12.6562,1254.75 c 0.01,0 0.1563,-0.125 0.1563,-0.125 l 0,-1270 -10.4375,-2.2812 z m -870.375,759.1874 -16.3125,8.1563 -7.6875,456.25 0,15.375 7.6875,-456.25 30.7813,-15.4063 -14.4688,-8.125 z m 874.1562,534.2813 c -6.2532,5.6601 -14.0773,13.4063 -10,13.4063 4.6398,0 12.5948,2.673 16.6563,4.1562 l 6.5937,155.6875 c 0.015,-2e-4 0.6563,0 0.6563,0 l -7.25,-171.0625 c -1.703,-0.6219 -4.1156,-1.432 -6.6563,-2.1875 z"
         style="color:#000000;fill:#fcfcf9;fill-opacity:1;fill-rule:nonzero;stroke:none;stroke-width:25;marker:none;visibility:visible;display:inline;overflow:visible;enable-background:accumulate"
         inkscape:connector-curvature="0" />
      <path
         id="rect31586"
         transform="matrix(0.26458334,0,0,0.26458334,-6.3049604e-6,18.562493)"
         d="m 3710.625,-1990.25 0,113.75 c 0,0 251.5945,0.3126 289.6562,-5.125 l 25.2813,-43.7812 39.4375,40.5312 c 77.9357,10.8748 557.6875,5.4375 557.6875,5.4375 L 4618,-1990.25 l -907.375,0 z"
         style="color:#000000;fill:#eae1ca;fill-opacity:1;fill-rule:nonzero;stroke:none;stroke-width:25;marker:none;visibility:visible;display:inline;overflow:visible;enable-background:accumulate"
         inkscape:connector-curvature="0" />
    </g>
  </g>
</svg>
