<?xml version="1.0" encoding="UTF-8" standalone="no"?>
<!-- Created with Inkscape (http://www.inkscape.org/) -->

<svg
   xmlns:dc="http://purl.org/dc/elements/1.1/"
   xmlns:cc="http://creativecommons.org/ns#"
   xmlns:rdf="http://www.w3.org/1999/02/22-rdf-syntax-ns#"
   xmlns:svg="http://www.w3.org/2000/svg"
   xmlns="http://www.w3.org/2000/svg"
   xmlns:xlink="http://www.w3.org/1999/xlink"
   xmlns:sodipodi="http://sodipodi.sourceforge.net/DTD/sodipodi-0.dtd"
   xmlns:inkscape="http://www.inkscape.org/namespaces/inkscape"
   width="1820.8164"
   height="269.31329"
   viewBox="0 0 481.75766 71.255813"
   version="1.1"
   id="svg23489"
   inkscape:version="0.48.5 r10040"
   sodipodi:docname="paper_overlay_horizontal_thin.svg">
  <defs
     id="defs23483">
    <linearGradient
       inkscape:collect="always"
       xlink:href="#linearGradient31578"
       id="linearGradient31601"
       gradientUnits="userSpaceOnUse"
       x1="1122.3896"
       y1="-599.55536"
       x2="1122.3896"
       y2="-842.98364" />
    <linearGradient
       inkscape:collect="always"
       id="linearGradient31578">
      <stop
         style="stop-color:#ede7d0;stop-opacity:1"
         offset="0"
         id="stop31580" />
      <stop
         style="stop-color:#f0ebd8;stop-opacity:1"
         offset="1"
         id="stop31582" />
    </linearGradient>
    <linearGradient
       inkscape:collect="always"
       xlink:href="#linearGradient6716"
       id="linearGradient31858"
       gradientUnits="userSpaceOnUse"
       x1="8671.4893"
       y1="-202.21825"
       x2="8671.4893"
       y2="-286.31891" />
    <linearGradient
       id="linearGradient6716"
       inkscape:collect="always">
      <stop
         id="stop6718"
         offset="0"
         style="stop-color:#ede7d0;stop-opacity:1" />
      <stop
         id="stop6720"
         offset="1"
         style="stop-color:#f0ebd8;stop-opacity:1" />
    </linearGradient>
    <linearGradient
       inkscape:collect="always"
       xlink:href="#linearGradient31805"
       id="linearGradient31839"
       gradientUnits="userSpaceOnUse"
       x1="1422.4847"
       y1="-1271.2937"
       x2="1422.4847"
       y2="-1234.8198" />
    <linearGradient
       inkscape:collect="always"
       id="linearGradient31805">
      <stop
         style="stop-color:#f0ebd8;stop-opacity:1"
         offset="0"
         id="stop31807" />
      <stop
         style="stop-color:#ede7d0;stop-opacity:1"
         offset="1"
         id="stop31809" />
    </linearGradient>
  </defs>
  <sodipodi:namedview
     id="base"
     pagecolor="#7d848b"
     bordercolor="#666666"
     borderopacity="1.0"
     inkscape:pageopacity="1"
     inkscape:pageshadow="2"
     inkscape:zoom="0.30135381"
     inkscape:cx="693.04245"
     inkscape:cy="1039.788"
     inkscape:document-units="px"
     inkscape:current-layer="layer1"
     showgrid="false"
     inkscape:pagecheckerboard="false"
     showborder="true"
     units="px"
     inkscape:window-width="1920"
     inkscape:window-height="1017"
     inkscape:window-x="-8"
     inkscape:window-y="-8"
     inkscape:window-maximized="1"
     inkscape:showpageshadow="false"
     guidetolerance="28"
     fit-margin-left="25"
     fit-margin-top="25"
     fit-margin-bottom="25"
     fit-margin-right="25">
    <inkscape:grid
       type="xygrid"
       id="grid24034"
       spacingx="1px"
       spacingy="1px"
       empspacing="8"
       visible="true"
       enabled="true"
       snapvisiblegridlinesonly="true"
       originx="-347.49469px"
       originy="679.39067px" />
  </sodipodi:namedview>
  <metadata
     id="metadata23486">
    <rdf:RDF>
      <cc:Work
         rdf:about="">
        <dc:format>image/svg+xml</dc:format>
        <dc:type
           rdf:resource="http://purl.org/dc/dcmitype/StillImage" />
        <dc:title></dc:title>
        <cc:license
           rdf:resource="" />
        <dc:creator>
          <cc:Agent>
            <dc:title>Robert Brooks</dc:title>
          </cc:Agent>
        </dc:creator>
      </cc:Work>
    </rdf:RDF>
  </metadata>
  <g
     inkscape:label="Layer 1"
     inkscape:groupmode="layer"
     id="layer1"
     transform="translate(-91.941309,-405.49963)">
    <g
       id="g31832"
       transform="translate(-1252.0837,1693.0776)">
      <path
         id="path31823"
         transform="matrix(0.26458334,0,0,0.26458334,-6.3049604e-6,18.562493)"
         d="m 5129.2812,-4901.5938 -12.6874,19.9376 0,45.3124 0,9 0.375,0.1876 -0.375,0.125 -1.0626,57.7812 -0.75,39.8438 0.125,0.125 0.031,0.062 -0.1563,8.8126 15.5313,18.125 13.4687,0 255.6876,0 7.0937,-9.0626 7.25,9.0626 1167.9063,0 2.9374,-12.6876 6.3438,12.6876 245.5938,0 29,-3.625 -0.1563,-8.9688 0.1563,-0.031 -0.875,-54.3438 -0.9376,-59.6875 c -7.9823,-1.9054 -15.0601,-3.5882 -21.3124,-5.0937 6.326,-2.4597 14.4583,-4.8926 21.3124,-5.9688 l -0.3437,-8.9375 c 0.112,-0.018 0.2325,-0.045 0.3437,-0.062 l -1.8124,-48.9688 -103.5,-0.2187 -5.25,18.3437 -14.1563,-18.375 c -62.7017,-0.097 -125.3772,-0.1932 -188.0625,-0.3124 -188.056,-0.3579 -376.1635,-0.8036 -564.9062,-1.25 -251.6571,-0.5954 -504.4661,-1.2084 -759.9376,-1.625 l -4.4687,17.9374 c 0,0 -0.4162,-0.5993 -1.0625,-1.5937 0,-0.01 0,-0.026 0,-0.031 -0.6624,-1.0196 -1.581,-2.4421 -2.6562,-4.1562 -2.1506,-3.4282 -4.8834,-7.9318 -7.1876,-12.1875 l -81.5,-0.1563 z"
         style="color:#000000;fill:#c7af7b;fill-opacity:1;fill-rule:nonzero;stroke:#3b2213;stroke-width:20;stroke-linejoin:round;stroke-miterlimit:4;stroke-opacity:1;stroke-dasharray:none;marker:none;visibility:visible;display:inline;overflow:visible;enable-background:accumulate"
         inkscape:connector-curvature="0" />
      <path
         style="color:#000000;fill:#c7af7b;fill-opacity:1;fill-rule:nonzero;stroke:none;stroke-width:18;marker:none;visibility:visible;display:inline;overflow:visible;enable-background:accumulate"
         d="m 1357.1204,-1275.9402 -3.3569,5.2751 0,11.9889 2.8774,1.4387 -2.8774,1.0252 -0.4795,25.83 4.1093,4.7955 3.5636,0 67.6506,0 1.8769,-2.3977 1.9182,2.3977 309.0086,0 0.7772,-3.3568 1.6784,3.3568 64.9801,0 7.6728,-0.959 -0.4795,-30.1708 c -3.1273,-0.7465 -6.932,-1.6545 -8.1525,-1.9596 -1.4781,-0.3696 4.1688,-2.7231 8.1525,-3.3486 l -0.4796,-12.9563 -27.3843,-0.058 -1.3891,4.8534 -3.7455,-4.8617 c -132.7185,-0.2062 -265.1028,-0.6229 -400.2898,-0.8434 l -1.1823,4.746 c 0,0 -1.6664,-2.5022 -2.8857,-4.7542 z"
         id="path31803"
         inkscape:connector-curvature="0"
         sodipodi:nodetypes="ccccccccccccccccccccccccccc" />
      <path
         sodipodi:nodetypes="ccccccccccccccccccccccccccc"
         inkscape:connector-curvature="0"
         id="rect31782"
         d="m 1357.1204,-1278.3138 -3.3569,5.2751 0,11.9889 2.8774,1.4387 -2.8774,1.0252 -0.4795,25.83 4.1093,4.7955 3.5636,0 67.6506,0 1.8769,-2.3977 1.9182,2.3977 309.0086,0 0.7772,-3.3568 1.6784,3.3568 64.9801,0 7.6728,-0.959 -0.4795,-30.1708 c -3.1273,-0.7465 -6.932,-1.6545 -8.1525,-1.9596 -1.4781,-0.3696 4.1688,-2.7231 8.1525,-3.3486 l -0.4796,-12.9563 -27.3843,-0.058 -1.3891,4.8534 -3.7455,-4.8617 c -132.7185,-0.2062 -265.1028,-0.6229 -400.2898,-0.8434 l -1.1823,4.746 c 0,0 -1.6664,-2.5022 -2.8857,-4.7542 z"
         style="color:#000000;fill:url(#linearGradient31839);fill-opacity:1;fill-rule:nonzero;stroke:none;stroke-width:18;marker:none;visibility:visible;display:inline;overflow:visible;enable-background:accumulate" />
      <path
         id="path31813"
         transform="matrix(0.26458334,0,0,0.26458334,-6.3049604e-6,18.562493)"
         d="m 5129.2812,-4901.5938 -12.6874,19.9376 0,45.3124 0.3437,0.1876 2.2187,-39.1563 12.6876,-19.9375 78.9374,0.1562 c 4.6084,8.5115 10.9063,17.9688 10.9063,17.9688 l 4.4687,-17.9375 c 510.943,0.8334 1011.2931,2.4082 1512.9063,3.1875 l 14.1563,18.375 5.25,-18.3438 94.4374,0.2188 5.0626,43.8125 c 1.9927,-0.466 3.9493,-0.895 5.8124,-1.1875 l -1.8124,-48.9688 -103.5,-0.2187 -5.25,18.3437 -14.1563,-18.375 c -501.6132,-0.7793 -1001.9633,-2.3541 -1512.9063,-3.1874 l -4.4687,17.9374 c 0,0 -6.2979,-9.4572 -10.9063,-17.9687 l -81.5,-0.1563 z m 1706.7188,66 c -3.8299,2.6644 -5.4513,4.9887 -3.0312,5.5938 4.6129,1.1531 13.5552,4.5848 25.375,7.4062 l 6.8437,107.75 0.4063,-0.062 -1.8126,-114.0313 c -10.4065,-2.4841 -21.8187,-5.1976 -27.7812,-6.6563 z m -1715.9375,7.3126 -3.4687,1.25 -1.8126,97.625 0.125,0.125 1.6876,-91.4063 10.875,-3.875 -7.4063,-3.7187 z"
         style="color:#000000;fill:#ffffff;fill-opacity:1;fill-rule:nonzero;stroke:none;stroke-width:18;marker:none;visibility:visible;display:inline;overflow:visible;enable-background:accumulate"
         inkscape:connector-curvature="0" />
      <path
         id="path31818"
         transform="matrix(0.26458334,0,0,0.26458334,-6.3049604e-6,18.562493)"
         d="m 5115.5312,-4769.25 -0.75,39.8438 15.5313,18.125 13.4687,0 255.6876,0 7.0937,-9.0626 7.25,9.0626 1167.9063,0 2.9374,-12.6876 6.3438,12.6876 245.5938,0 29,-3.625 -0.875,-54.3438 -1749.1876,0 z"
         style="opacity:0.06194691;color:#000000;fill:#c7af7b;fill-opacity:1;fill-rule:nonzero;stroke:none;stroke-width:18;marker:none;visibility:visible;display:inline;overflow:visible;enable-background:accumulate"
         inkscape:connector-curvature="0" />
    </g>
  </g>
</svg>
