<?xml version="1.0" encoding="UTF-8" standalone="no"?>
<!-- Created with Inkscape (http://www.inkscape.org/) -->

<svg
   xmlns:dc="http://purl.org/dc/elements/1.1/"
   xmlns:cc="http://creativecommons.org/ns#"
   xmlns:rdf="http://www.w3.org/1999/02/22-rdf-syntax-ns#"
   xmlns:svg="http://www.w3.org/2000/svg"
   xmlns="http://www.w3.org/2000/svg"
   xmlns:xlink="http://www.w3.org/1999/xlink"
   xmlns:sodipodi="http://sodipodi.sourceforge.net/DTD/sodipodi-0.dtd"
   xmlns:inkscape="http://www.inkscape.org/namespaces/inkscape"
   width="1758.2188"
   height="413.85095"
   viewBox="0 0 465.19536 109.49807"
   version="1.1"
   id="svg23489"
   inkscape:version="0.48.5 r10040"
   sodipodi:docname="paper_overlay_large_square.svg">
  <defs
     id="defs23483">
    <linearGradient
       inkscape:collect="always"
       xlink:href="#linearGradient31578"
       id="linearGradient31601"
       gradientUnits="userSpaceOnUse"
       x1="1122.3896"
       y1="-599.55536"
       x2="1122.3896"
       y2="-842.98364" />
    <linearGradient
       inkscape:collect="always"
       id="linearGradient31578">
      <stop
         style="stop-color:#ede7d0;stop-opacity:1"
         offset="0"
         id="stop31580" />
      <stop
         style="stop-color:#f0ebd8;stop-opacity:1"
         offset="1"
         id="stop31582" />
    </linearGradient>
    <linearGradient
       inkscape:collect="always"
       xlink:href="#linearGradient6716"
       id="linearGradient31858"
       gradientUnits="userSpaceOnUse"
       x1="8671.4893"
       y1="-202.21825"
       x2="8671.4893"
       y2="-286.31891" />
    <linearGradient
       id="linearGradient6716"
       inkscape:collect="always">
      <stop
         id="stop6718"
         offset="0"
         style="stop-color:#ede7d0;stop-opacity:1" />
      <stop
         id="stop6720"
         offset="1"
         style="stop-color:#f0ebd8;stop-opacity:1" />
    </linearGradient>
  </defs>
  <sodipodi:namedview
     id="base"
     pagecolor="#7d848b"
     bordercolor="#666666"
     borderopacity="1.0"
     inkscape:pageopacity="1"
     inkscape:pageshadow="2"
     inkscape:zoom="0.30135381"
     inkscape:cx="582.35898"
     inkscape:cy="427.28694"
     inkscape:document-units="px"
     inkscape:current-layer="layer1"
     showgrid="false"
     inkscape:pagecheckerboard="false"
     showborder="true"
     units="px"
     inkscape:window-width="1920"
     inkscape:window-height="1017"
     inkscape:window-x="-8"
     inkscape:window-y="-8"
     inkscape:window-maximized="1"
     inkscape:showpageshadow="false"
     guidetolerance="28"
     fit-margin-left="25"
     fit-margin-top="25"
     fit-margin-bottom="25"
     fit-margin-right="25">
    <inkscape:grid
       type="xygrid"
       id="grid24034"
       spacingx="1px"
       spacingy="1px"
       empspacing="8"
       visible="true"
       enabled="true"
       snapvisiblegridlinesonly="true"
       originx="-458.17815px"
       originy="66.889633px" />
  </sodipodi:namedview>
  <metadata
     id="metadata23486">
    <rdf:RDF>
      <cc:Work
         rdf:about="">
        <dc:format>image/svg+xml</dc:format>
        <dc:type
           rdf:resource="http://purl.org/dc/dcmitype/StillImage" />
        <dc:title></dc:title>
        <cc:license
           rdf:resource="" />
        <dc:creator>
          <cc:Agent>
            <dc:title>Robert Brooks</dc:title>
          </cc:Agent>
        </dc:creator>
      </cc:Work>
    </rdf:RDF>
  </metadata>
  <g
     inkscape:label="Layer 1"
     inkscape:groupmode="layer"
     id="layer1"
     transform="translate(-121.22631,-205.1998)">
    <g
       id="g31841"
       transform="matrix(2.7980641,0,0,2.7980641,-5961.2773,396.87466)">
      <path
         sodipodi:nodetypes="ccccccccccc"
         transform="matrix(0.26458334,0,0,0.26458334,-6.3049604e-6,18.562493)"
         inkscape:connector-curvature="0"
         id="path31843"
         d="m 8230.3246,-313.45129 c 0,16.53957 -0.8793,118.89103 -0.8793,118.89103 l 507.9578,0 6.0144,-12.02878 4.5108,12.02878 82.6978,0 0.3772,-119.58939 c -184.9949,-2.93522 -351.376,-0.8109 -525.1326,0 l -4.5108,10.52518 -9.0216,-9.02159 z"
         style="color:#000000;fill:#efead7;fill-opacity:1;fill-rule:nonzero;stroke:#3b2213;stroke-width:8.93474865;stroke-linecap:round;stroke-linejoin:round;stroke-miterlimit:4;stroke-opacity:1;stroke-dasharray:none;stroke-dashoffset:0;marker:none;visibility:visible;display:inline;overflow:visible;enable-background:accumulate" />
      <path
         transform="matrix(0.26458334,0,0,0.26458334,-6.3049604e-6,18.562493)"
         style="color:#000000;fill:url(#linearGradient31858);fill-opacity:1;fill-rule:nonzero;stroke:none;stroke-width:15;marker:none;visibility:visible;display:inline;overflow:visible;enable-background:accumulate"
         d="m 8230.3246,-313.45129 c 0,16.53957 -0.8793,118.89103 -0.8793,118.89103 l 507.9578,0 6.0144,-12.02878 4.5108,12.02878 82.6978,0 0.3772,-119.58939 -232.683,-3.00719 -292.4496,3.00719 -4.5108,10.52518 -9.0216,-9.02159 z"
         id="path31845"
         inkscape:connector-curvature="0"
         sodipodi:nodetypes="cccccccccccc" />
      <path
         transform="matrix(0.26458334,0,0,0.26458334,-6.3049604e-6,18.562493)"
         sodipodi:nodetypes="cccccccc"
         inkscape:connector-curvature="0"
         id="path31847"
         d="m 8230.2188,-227.72748 c -0.3545,32.47168 -0.7813,33.16498 -0.7813,33.16498 l 507.9687,0 6,-12.03125 4.5313,12.03125 82.6875,0 2.1562,-33.16498 z"
         style="opacity:0.08849559;color:#000000;fill:#5e371e;fill-opacity:1;fill-rule:nonzero;stroke:none;stroke-width:15;marker:none;visibility:visible;display:inline;overflow:visible;enable-background:accumulate" />
      <path
         style="color:#000000;fill:#c7af7b;fill-opacity:1;fill-rule:nonzero;stroke:none;stroke-width:15;marker:none;visibility:visible;display:inline;overflow:visible;enable-background:accumulate"
         d="m 6606.1875,1635.8125 -16.7813,33.6563 -1421.2187,0 c -0.01,0.8807 -0.094,11.9062 -0.094,11.9062 l 1421.3124,0 16.7813,-33.6875 0.031,0.062 4.8437,12.9062 7.8125,20.7188 231.375,0 0.031,-14.25 -0.062,2.3438 -231.3438,0 -12.6875,-33.6563 z"
         transform="matrix(0.09455943,0,0,0.09455943,1688.6821,-191.90401)"
         id="path31849"
         inkscape:connector-curvature="0" />
      <path
         sodipodi:nodetypes="cccccccccccccccccc"
         transform="matrix(0.26458334,0,0,0.26458334,-6.3049604e-6,18.562493)"
         id="path31851"
         d="m 8598.3125,-317.15625 -292.4375,3 -4.5,10.53125 -9.0312,-9.03125 -62.0198,-0.78125 c 0,16.53957 -0.8865,118.875 -0.8865,118.875 l 0.062,0 c 0.099,-6.73288 5.324,-99.16817 5.324,-115.125 l 57.5198,0.8125 9.0312,9 4.5,-10.53125 292.4375,-3 227.4398,3 4.8415,115.84375 0.031,0 0.3773,-119.59375 -232.6898,-3 z"
         style="color:#000000;fill:#ffffff;fill-opacity:1;fill-rule:nonzero;stroke:none;stroke-width:15;marker:none;visibility:visible;display:inline;overflow:visible;enable-background:accumulate"
         inkscape:connector-curvature="0" />
    </g>
  </g>
</svg>
