<?xml version="1.0" encoding="UTF-8" standalone="no"?>
<!-- Created with Inkscape (http://www.inkscape.org/) -->

<svg
   xmlns:dc="http://purl.org/dc/elements/1.1/"
   xmlns:cc="http://creativecommons.org/ns#"
   xmlns:rdf="http://www.w3.org/1999/02/22-rdf-syntax-ns#"
   xmlns:svg="http://www.w3.org/2000/svg"
   xmlns="http://www.w3.org/2000/svg"
   xmlns:xlink="http://www.w3.org/1999/xlink"
   xmlns:sodipodi="http://sodipodi.sourceforge.net/DTD/sodipodi-0.dtd"
   xmlns:inkscape="http://www.inkscape.org/namespaces/inkscape"
   width="287.375"
   height="289.16071"
   viewBox="0 0 76.034634 76.507107"
   version="1.1"
   id="svg23489"
   inkscape:version="0.48.5 r10040"
   sodipodi:docname="paper_overlay_small_rectangle.svg">
  <defs
     id="defs23483">
    <linearGradient
       inkscape:collect="always"
       xlink:href="#linearGradient31702"
       id="linearGradient31708"
       x1="1211.3344"
       y1="1207.179"
       x2="1211.8138"
       y2="1165.8014"
       gradientUnits="userSpaceOnUse" />
    <linearGradient
       inkscape:collect="always"
       id="linearGradient31702">
      <stop
         style="stop-color:#eee8d3;stop-opacity:1"
         offset="0"
         id="stop31704" />
      <stop
         style="stop-color:#f0ebd8;stop-opacity:1"
         offset="1"
         id="stop31706" />
    </linearGradient>
    <linearGradient
       inkscape:collect="always"
       xlink:href="#linearGradient31702"
       id="linearGradient33422"
       gradientUnits="userSpaceOnUse"
       x1="1211.3344"
       y1="1207.179"
       x2="1211.8138"
       y2="1165.8014" />
  </defs>
  <sodipodi:namedview
     id="base"
     pagecolor="#7d848b"
     bordercolor="#666666"
     borderopacity="1.0"
     inkscape:pageopacity="1"
     inkscape:pageshadow="2"
     inkscape:zoom="0.30135381"
     inkscape:cx="-46.572426"
     inkscape:cy="424.8418"
     inkscape:document-units="px"
     inkscape:current-layer="layer1"
     showgrid="false"
     inkscape:pagecheckerboard="false"
     showborder="true"
     units="px"
     inkscape:window-width="1920"
     inkscape:window-height="1017"
     inkscape:window-x="-8"
     inkscape:window-y="-8"
     inkscape:window-maximized="1"
     inkscape:showpageshadow="false"
     guidetolerance="28"
     fit-margin-left="25"
     fit-margin-top="25"
     fit-margin-bottom="25"
     fit-margin-right="25">
    <inkscape:grid
       type="xygrid"
       id="grid24034"
       spacingx="1px"
       spacingy="1px"
       empspacing="8"
       visible="true"
       enabled="true"
       snapvisiblegridlinesonly="true"
       originx="-1197.793px"
       originy="-548.05655px" />
  </sodipodi:namedview>
  <metadata
     id="metadata23486">
    <rdf:RDF>
      <cc:Work
         rdf:about="">
        <dc:format>image/svg+xml</dc:format>
        <dc:type
           rdf:resource="http://purl.org/dc/dcmitype/StillImage" />
        <dc:title></dc:title>
        <cc:license
           rdf:resource="" />
        <dc:creator>
          <cc:Agent>
            <dc:title>Robert Brooks</dc:title>
          </cc:Agent>
        </dc:creator>
      </cc:Work>
    </rdf:RDF>
  </metadata>
  <g
     inkscape:label="Layer 1"
     inkscape:groupmode="layer"
     id="layer1"
     transform="translate(-316.91608,-75.486246)">
    <g
       id="g31691"
       transform="translate(-851.31858,-1070.7458)">
      <path
         id="path31684"
         transform="matrix(0.26458334,0,0,0.26458334,-6.3049604e-6,18.562493)"
         d="m 4657.5938,4296.0625 c -5.7167,-0.017 -13.7353,-9e-4 -23.1876,0.031 -1.7805,4.5414 -3.8437,8.5937 -3.8437,8.5937 0,0 -3.617,-3.907 -7.4687,-8.5313 -8.038,0.038 -16.0833,0.076 -25.3126,0.125 l 0,-0.031 c -62.9529,0.3591 -146.0624,1.0625 -146.0624,1.0625 l -1.25,10.2187 c -0.3725,0.3763 -0.3736,4.7928 -0.2188,12.1876 0.1531,7.3964 0.4612,17.7732 0.6875,30.0312 0.1518,8.1711 0.2654,17.1856 0.2813,26.7188 0,1.5541 0,2.8909 0,4.4687 4.6678,0.5611 9.8945,1.708 13.7187,2.7187 -0.7892,0.5034 -1.6208,1.1035 -2.5,1.6876 -0.01,0.01 -0.024,-0.01 -0.031,0 -1.6492,1.0958 -3.4262,2.2871 -5.2187,3.4374 -0.1045,0.067 -0.208,0.1209 -0.3125,0.1876 -0.091,0.058 -0.1904,0.099 -0.2812,0.1562 -0.8582,0.5443 -1.7152,1.0946 -2.5626,1.5938 -0.1195,0.07 -0.2247,0.1496 -0.3437,0.2187 -0.185,0.1072 -0.3789,0.2086 -0.5625,0.3125 -0.6195,0.3507 -1.2459,0.6953 -1.8438,1 0,1.2709 0,2.5668 0,3.8438 0.011,5.8237 0.026,11.676 0,17.5312 -0.063,14.2779 -0.2391,28.4173 -0.4374,41.3438 -0.062,3.9829 -0.1207,8.001 -0.1876,11.7187 -0.039,2.1733 -0.085,4.5605 -0.125,6.625 0,0.052 0,0.1038 0,0.1563 -0.1966,10.1984 -0.4001,18.3494 -0.5624,24.9374 -0.018,0.7431 -0.045,2.1265 -0.063,2.8126 -0.016,0.6324 -0.047,1.8272 -0.062,2.4062 -0.1115,4.2481 -0.2188,8.3438 -0.2188,8.3438 l 0.094,0 0.031,0 c -0.036,1.3041 -0.125,4.5 -0.125,4.5 l 12.1875,0.031 192.9063,0.7188 14,-10.8438 c 0,0 -0.03,-4.2248 -0.031,-4.4688 0,0 0,-0.03 0,-0.031 l 0.031,0 c 0,0 -0.1102,-32.851 -0.2813,-72.4375 -0.083,-19.7867 -0.1849,-41.2424 -0.2813,-61.125 -0.099,-19.8824 -0.1893,-38.1781 -0.2812,-51.625 -0.043,-6.2884 -0.1418,-11.3682 -0.2812,-14.9063 -0.1348,-3.537 -0.3201,-5.5342 -0.5626,-5.5937 -0.3072,-0.076 -3.7208,-0.1075 -9.4374,-0.125 z"
         style="color:#000000;fill:#c1774d;fill-opacity:1;fill-rule:nonzero;stroke:#3b2213;stroke-width:18;stroke-miterlimit:4;stroke-opacity:1;stroke-dasharray:none;marker:none;visibility:visible;display:inline;overflow:visible;enable-background:accumulate"
         inkscape:connector-curvature="0" />
      <path
         style="color:#000000;fill:#c7af7b;fill-opacity:1;fill-rule:nonzero;stroke:none;stroke-width:25;marker:none;visibility:visible;display:inline;overflow:visible;enable-background:accumulate"
         d="m 1216.4972,1156.4692 c -16.6563,0.095 -38.6448,0.2752 -38.6448,0.2752 l 0.1767,2.1985 c -0.2628,0.2655 -0.3245,8.6566 -0.3077,18.7459 2.5205,0.303 5.6622,1.2356 4.9923,1.2391 -0.6792,0 -3.0891,1.9732 -4.9789,2.9363 0.053,14.9598 -0.4391,31.6783 -0.4391,31.6783 l 3.2288,0.01 51.0375,0.1915 3.7058,-2.8718 c 0,0 -0.1324,-34.7657 -0.2297,-48.997 -0.023,-3.3276 -0.09,-5.3914 -0.2183,-5.4229 -0.1626,-0.04 -3.6305,-0.047 -8.6323,-0.03 -0.4711,1.2016 -1.0217,2.2791 -1.0217,2.2791 0,0 -0.9523,-1.04 -1.9714,-2.2635 -2.1267,0.01 -4.2553,0.022 -6.6972,0.035 z"
         id="path31677"
         inkscape:connector-curvature="0"
         sodipodi:nodetypes="scccsccccccccccs" />
      <path
         sodipodi:nodetypes="ccccsccccccccccsc"
         inkscape:connector-curvature="0"
         id="path31663"
         d="m 1216.4972,1155.2824 c -16.6563,0.095 -38.6448,0.2752 -38.6448,0.2752 l -0.3319,2.7071 c -0.2628,0.2655 0.1841,8.148 0.2009,18.2373 2.5205,0.303 5.6622,1.2356 4.9923,1.2391 -0.6792,0 -3.0891,1.9732 -4.9789,2.9363 0.053,14.9598 -0.4391,31.6783 -0.4391,31.6783 l 3.2288,0.01 51.0375,0.1915 3.7058,-2.8718 c 0,0 -0.1324,-34.7657 -0.2297,-48.997 -0.023,-3.3276 -0.09,-5.3914 -0.2183,-5.4229 -0.1626,-0.04 -3.6305,-0.047 -8.6323,-0.03 -0.4711,1.2016 -1.0217,2.2791 -1.0217,2.2791 0,0 -0.9523,-1.04 -1.9714,-2.2635 -2.1267,0.01 -4.2553,0.022 -6.6972,0.035 z"
         style="color:#000000;fill:url(#linearGradient33422);fill-opacity:1;fill-rule:nonzero;stroke:none;stroke-width:25;marker:none;visibility:visible;display:inline;overflow:visible;enable-background:accumulate" />
      <path
         id="path31679"
         transform="matrix(0.26458334,0,0,0.26458334,-6.3049604e-6,18.562493)"
         d="m 4657.5938,4296.0625 c -5.7167,-0.017 -13.7353,-9e-4 -23.1876,0.031 -1.7805,4.5414 -3.8437,8.5937 -3.8437,8.5937 0,0 -3.617,-3.907 -7.4687,-8.5313 -8.038,0.038 -16.0833,0.076 -25.3126,0.125 l 0,-0.031 c -62.9529,0.3591 -146.0624,1.0625 -146.0624,1.0625 l -1.25,10.2187 c -0.9933,1.0035 0.6865,30.8048 0.75,68.9376 0.01,0 0.021,0 0.031,0 0.1621,-36.2647 3.3843,-64.1245 4.3438,-65.0938 l 1.25,-10.2188 c 0,0 77.9845,-0.7034 140.9374,-1.0624 0,0 17.2746,-0.056 25.3126,-0.094 3.8517,4.6243 7.4687,8.5312 7.4687,8.5312 0,0 2.0632,-4.0522 3.8437,-8.5937 18.9045,-0.064 28.1667,-0.057 28.7813,0.094 0.4849,0.1191 1.3818,10.4858 1.4687,23.0626 0.3514,51.3828 3.6658,168.2596 3.9688,178.875 l 0.094,-0.094 c 0,0 -0.4761,-131.3999 -0.8438,-185.1875 -0.087,-12.5768 -0.3588,-20.3809 -0.8438,-20.5 -0.3072,-0.076 -3.7208,-0.1075 -9.4374,-0.125 z m -191.9063,87.1563 c -3.9914,2.4755 -9.6233,6.5937 -14.4063,9.0312 0,1.2709 0,2.5669 0,3.8438 7.1426,-3.6401 16.2455,-11.0938 18.8126,-11.0938 1.2038,-0.01 -0.8973,-0.8204 -4.4063,-1.7812 z m -14.4063,30.4062 c -0.2218,49.9726 -1.6562,98.3438 -1.6562,98.3438 l 0.094,0 c 0.2433,-8.6775 1.4163,-52.1452 1.5624,-98.3438 z"
         style="color:#000000;fill:#ffffff;fill-opacity:1;fill-rule:nonzero;stroke:none;stroke-width:25;marker:none;visibility:visible;display:inline;overflow:visible;enable-background:accumulate"
         inkscape:connector-curvature="0"
         sodipodi:nodetypes="cccccccccccccccccccccccccccccccccc" />
      <path
         style="opacity:0.58849553;color:#000000;fill:#e0d8c1;fill-opacity:1;fill-rule:nonzero;stroke:none;stroke-width:25;marker:none;visibility:visible;display:inline;overflow:visible;enable-background:accumulate"
         d="m 7079.625,-4335.8438 c -67.2226,-0.071 -161.2452,1.973 -211.125,3 -0.477,27.2013 -1.0625,47.1563 -1.0625,47.1563 l 12.2187,0.031 192.875,0.7187 14.0313,-10.8437 c 0,0 -0.1244,-24.3761 -0.1875,-40.0313 -2.2493,-0.01 -4.4284,-0.029 -6.75,-0.031 z"
         transform="matrix(0.26458334,0,0,0.26458334,-639.71495,2346.2808)"
         id="path31699"
         inkscape:connector-curvature="0" />
    </g>
  </g>
</svg>
