<?xml version="1.0" encoding="UTF-8" standalone="no"?>
<!-- Created with Inkscape (http://www.inkscape.org/) -->

<svg
   xmlns:dc="http://purl.org/dc/elements/1.1/"
   xmlns:cc="http://creativecommons.org/ns#"
   xmlns:rdf="http://www.w3.org/1999/02/22-rdf-syntax-ns#"
   xmlns:svg="http://www.w3.org/2000/svg"
   xmlns="http://www.w3.org/2000/svg"
   xmlns:sodipodi="http://sodipodi.sourceforge.net/DTD/sodipodi-0.dtd"
   xmlns:inkscape="http://www.inkscape.org/namespaces/inkscape"
   width="112.96171"
   height="123.73882"
   viewBox="0 0 29.887784 32.739231"
   version="1.1"
   id="svg23489"
   inkscape:version="0.48.5 r10040"
   sodipodi:docname="nail_head_01.svg">
  <defs
     id="defs23483" />
  <sodipodi:namedview
     id="base"
     pagecolor="#7d848b"
     bordercolor="#666666"
     borderopacity="1.0"
     inkscape:pageopacity="1"
     inkscape:pageshadow="2"
     inkscape:zoom="1.2054152"
     inkscape:cx="322.11177"
     inkscape:cy="53.549702"
     inkscape:document-units="px"
     inkscape:current-layer="layer1"
     showgrid="false"
     inkscape:pagecheckerboard="false"
     showborder="true"
     units="px"
     inkscape:window-width="1920"
     inkscape:window-height="1017"
     inkscape:window-x="-8"
     inkscape:window-y="-8"
     inkscape:window-maximized="1"
     inkscape:showpageshadow="false"
     guidetolerance="28"
     fit-margin-top="12"
     fit-margin-left="12"
     fit-margin-right="12"
     fit-margin-bottom="12">
    <inkscape:grid
       type="xygrid"
       id="grid24034"
       spacingx="1px"
       spacingy="1px"
       empspacing="8"
       visible="true"
       enabled="true"
       snapvisiblegridlinesonly="true"
       originx="-47.876594px"
       originy="-457.49218px" />
  </sodipodi:namedview>
  <metadata
     id="metadata23486">
    <rdf:RDF>
      <cc:Work
         rdf:about="">
        <dc:format>image/svg+xml</dc:format>
        <dc:type
           rdf:resource="http://purl.org/dc/dcmitype/StillImage" />
        <dc:title></dc:title>
        <cc:license
           rdf:resource="" />
        <dc:creator>
          <cc:Agent>
            <dc:title>Robert Brooks</dc:title>
          </cc:Agent>
        </dc:creator>
      </cc:Work>
    </rdf:RDF>
  </metadata>
  <g
     inkscape:label="Layer 1"
     inkscape:groupmode="layer"
     id="layer1"
     transform="translate(111.62788,-237.65978)">
    <g
       id="g7973"
       transform="matrix(1.7933656,0,0,1.7933656,-6707.4851,-585.88784)">
      <path
         transform="matrix(0.26458334,0,0,0.26458334,0.12745759,18.052637)"
         style="opacity:0.35840705;color:#000000;fill:#0d2525;fill-opacity:1;fill-rule:nonzero;stroke:none;stroke-width:12;marker:none;visibility:visible;display:inline;overflow:visible;enable-background:accumulate"
         d="m 13956.393,1712.1233 c 0,9.7114 -7.873,17.584 -17.584,17.584 -9.712,0 -17.584,-7.8726 -17.584,-17.584 0,-9.7114 7.872,-17.584 17.584,-17.584 9.711,0 17.584,7.8726 17.584,17.584 z"
         id="path7971"
         class="switchable"
         inkscape:connector-curvature="0"
         switchable="true"
         name="shadow" />
      <path
         transform="matrix(0.22447758,0,0,0.22447758,558.76571,85.866368)"
         d="m 13954.465,1700.3203 c 0,12.239 -9.921,22.1607 -22.16,22.1607 -12.239,0 -22.161,-9.9217 -22.161,-22.1607 0,-12.239 9.922,-22.1606 22.161,-22.1606 12.239,0 22.16,9.9216 22.16,22.1606 z"
         sodipodi:ry="22.16065"
         sodipodi:rx="22.16065"
         sodipodi:cy="1700.3203"
         sodipodi:cx="13932.305"
         id="path7956"
         style="color:#000000;fill:#0f2625;fill-opacity:1;fill-rule:nonzero;stroke:#0c2323;stroke-width:14.14395142;stroke-linecap:round;stroke-linejoin:round;stroke-miterlimit:4;stroke-opacity:1;stroke-dasharray:none;stroke-dashoffset:0;marker:none;visibility:visible;display:inline;overflow:visible;enable-background:accumulate"
         sodipodi:type="arc" />
      <path
         sodipodi:type="arc"
         style="color:#000000;fill:#3db7b7;fill-opacity:1;fill-rule:nonzero;stroke:none;stroke-width:12;marker:none;visibility:visible;display:inline;overflow:visible;enable-background:accumulate"
         id="path7958"
         sodipodi:cx="13932.305"
         sodipodi:cy="1700.3203"
         sodipodi:rx="22.16065"
         sodipodi:ry="22.16065"
         d="m 13954.465,1700.3203 c 0,12.239 -9.921,22.1607 -22.16,22.1607 -12.239,0 -22.161,-9.9217 -22.161,-22.1607 0,-12.239 9.922,-22.1606 22.161,-22.1606 12.239,0 22.16,9.9216 22.16,22.1606 z"
         transform="matrix(0.22447758,0,0,0.22447758,558.76571,85.866368)" />
      <path
         id="path7960"
         transform="matrix(0.26458334,0,0,0.26458334,-6.3049604e-6,18.562493)"
         d="m 13932.312,1678.1562 c -10.383,0 -18.812,8.4288 -18.812,18.8126 0,0.5746 0.04,1.1259 0.09,1.6874 0.849,-9.5977 8.9,-17.125 18.718,-17.125 9.819,0 17.839,7.5273 18.688,17.125 0.05,-0.5615 0.09,-1.1128 0.09,-1.6874 0,-10.3838 -8.398,-18.8126 -18.782,-18.8126 z"
         style="color:#000000;fill:#51ffff;fill-opacity:1;fill-rule:nonzero;stroke:none;stroke-width:12;marker:none;visibility:visible;display:inline;overflow:visible;enable-background:accumulate"
         inkscape:connector-curvature="0" />
      <path
         sodipodi:nodetypes="ccsc"
         inkscape:connector-curvature="0"
         id="path7966"
         transform="matrix(0.26458334,0,0,0.26458334,-6.3049604e-6,18.562493)"
         d="m 13951,1698.6562 c -9.25,9.2499 -31.833,9.8723 -37.406,0.2188 0.963,9.4808 8.984,16.875 18.718,16.875 9.81,0 17.826,-7.5089 18.688,-17.0938 z"
         style="color:#000000;fill:#36a3a3;fill-opacity:1;fill-rule:nonzero;stroke:none;stroke-width:15;marker:none;visibility:visible;display:inline;overflow:visible;enable-background:accumulate" />
    </g>
  </g>
</svg>
