<?xml version="1.0" encoding="UTF-8" standalone="no"?>
<!-- Created with Inkscape (http://www.inkscape.org/) -->

<svg
   xmlns:dc="http://purl.org/dc/elements/1.1/"
   xmlns:cc="http://creativecommons.org/ns#"
   xmlns:rdf="http://www.w3.org/1999/02/22-rdf-syntax-ns#"
   xmlns:svg="http://www.w3.org/2000/svg"
   xmlns="http://www.w3.org/2000/svg"
   xmlns:xlink="http://www.w3.org/1999/xlink"
   xmlns:sodipodi="http://sodipodi.sourceforge.net/DTD/sodipodi-0.dtd"
   xmlns:inkscape="http://www.inkscape.org/namespaces/inkscape"
   width="145.79425"
   height="145.79425"
   viewBox="0 0 38.574727 38.57473"
   version="1.1"
   id="svg23489"
   inkscape:version="0.48.5 r10040"
   sodipodi:docname="SVGS.svg">
  <defs
     id="defs23483">
    <linearGradient
       inkscape:collect="always"
       xlink:href="#linearGradient8999"
       id="linearGradient9046"
       gradientUnits="userSpaceOnUse"
       x1="13931.697"
       y1="835.20203"
       x2="13943.96"
       y2="812.01807" />
    <linearGradient
       inkscape:collect="always"
       id="linearGradient8999">
      <stop
         style="stop-color:#42a1a1;stop-opacity:1;"
         offset="0"
         id="stop9001" />
      <stop
         style="stop-color:#6bc2c2;stop-opacity:1"
         offset="1"
         id="stop9003" />
    </linearGradient>
    <linearGradient
       inkscape:collect="always"
       xlink:href="#linearGradient8999"
       id="linearGradient23175"
       gradientUnits="userSpaceOnUse"
       x1="13931.697"
       y1="835.20203"
       x2="13943.96"
       y2="812.01807" />
  </defs>
  <sodipodi:namedview
     id="base"
     pagecolor="#7d848b"
     bordercolor="#666666"
     borderopacity="1.0"
     inkscape:pageopacity="1"
     inkscape:pageshadow="2"
     inkscape:zoom="1.2054152"
     inkscape:cx="67.910942"
     inkscape:cy="96.140339"
     inkscape:document-units="px"
     inkscape:current-layer="layer1"
     showgrid="false"
     inkscape:pagecheckerboard="false"
     showborder="true"
     units="px"
     inkscape:window-width="1920"
     inkscape:window-height="1017"
     inkscape:window-x="-8"
     inkscape:window-y="-8"
     inkscape:window-maximized="1"
     inkscape:showpageshadow="false"
     guidetolerance="28"
     fit-margin-top="0"
     fit-margin-left="0"
     fit-margin-right="0"
     fit-margin-bottom="0">
    <inkscape:grid
       type="xygrid"
       id="grid24034"
       spacingx="1px"
       spacingy="1px"
       empspacing="8"
       visible="true"
       enabled="true"
       snapvisiblegridlinesonly="true"
       originx="-302.07742px"
       originy="-414.90155px" />
  </sodipodi:namedview>
  <metadata
     id="metadata23486">
    <rdf:RDF>
      <cc:Work
         rdf:about="">
        <dc:format>image/svg+xml</dc:format>
        <dc:type
           rdf:resource="http://purl.org/dc/dcmitype/StillImage" />
        <dc:title></dc:title>
        <cc:license
           rdf:resource="" />
        <dc:creator>
          <cc:Agent>
            <dc:title>Robert Brooks</dc:title>
          </cc:Agent>
        </dc:creator>
      </cc:Work>
    </rdf:RDF>
  </metadata>
  <g
     inkscape:label="Layer 1"
     inkscape:groupmode="layer"
     id="layer1"
     transform="translate(-79.924652,-148.64922)">
    <g
       id="g9026"
       transform="matrix(1.9929673,-0.45553538,0.45553538,1.9929673,-7367.5944,1378.5013)">
      <path
         transform="matrix(0.26458334,0,0,0.26458334,-6.3049604e-6,18.562493)"
         style="opacity:0.21238936;color:#000000;fill:#000000;fill-opacity:1;fill-rule:nonzero;stroke:none;stroke-width:12;marker:none;visibility:visible;display:inline;overflow:visible;enable-background:accumulate"
         d="m 13991.561,824.01111 c 0,19.68881 -15.961,35.64974 -35.65,35.64974 -19.689,0 -35.65,-15.96093 -35.65,-35.64974 0,-19.68881 15.961,-35.64974 35.65,-35.64974 19.689,0 35.65,15.96093 35.65,35.64974 z"
         id="path9028" />
      <path
         transform="matrix(0.1706198,0,0,0.1706198,1311.3468,96.463636)"
         d="m 13991.561,824.01111 c 0,19.68881 -15.961,35.64974 -35.65,35.64974 -19.689,0 -35.65,-15.96093 -35.65,-35.64974 0,-19.68881 15.961,-35.64974 35.65,-35.64974 19.689,0 35.65,15.96093 35.65,35.64974 z"
         sodipodi:ry="35.649742"
         sodipodi:rx="35.649742"
         sodipodi:cy="824.01111"
         sodipodi:cx="13955.911"
         id="path9030"
         style="color:#000000;fill:#263c6f;fill-opacity:1;fill-rule:nonzero;stroke:#091515;stroke-width:18.60862541;stroke-linejoin:round;stroke-miterlimit:4;stroke-opacity:1;stroke-dasharray:none;marker:none;visibility:visible;display:inline;overflow:visible;enable-background:accumulate"
         sodipodi:type="arc" />
      <path
         sodipodi:type="arc"
         style="color:#000000;fill:url(#linearGradient23175);fill-opacity:1;fill-rule:nonzero;stroke:none;stroke-width:12;marker:none;visibility:visible;display:inline;overflow:visible;enable-background:accumulate"
         id="path9032"
         sodipodi:cx="13955.911"
         sodipodi:cy="824.01111"
         sodipodi:rx="35.649742"
         sodipodi:ry="35.649742"
         d="m 13991.561,824.01111 c 0,19.68881 -15.961,35.64974 -35.65,35.64974 -19.689,0 -35.65,-15.96093 -35.65,-35.64974 0,-19.68881 15.961,-35.64974 35.65,-35.64974 19.689,0 35.65,15.96093 35.65,35.64974 z"
         transform="matrix(0.1706198,0,0,0.1706198,1311.3468,96.463636)" />
      <path
         id="path9034"
         transform="matrix(0.26458334,0,0,0.26458334,-6.3049604e-6,18.562493)"
         d="m 13955.906,802.8125 c -12.696,0 -22.968,10.30343 -22.968,23 0,0.56809 -0.01,1.12975 0.03,1.6875 0.858,-11.91415 10.804,-21.3125 22.937,-21.3125 12.133,0 22.079,9.39835 22.938,21.3125 0.04,-0.55775 0.06,-1.11941 0.06,-1.6875 0,-12.69657 -10.303,-23 -23,-23 z"
         style="color:#000000;fill:#7be0e0;fill-opacity:1;fill-rule:nonzero;stroke:none;stroke-width:12;marker:none;visibility:visible;display:inline;overflow:visible;enable-background:accumulate"
         inkscape:connector-curvature="0" />
      <path
         sodipodi:nodetypes="cscsc"
         inkscape:connector-curvature="0"
         id="path9036"
         transform="matrix(0.26458334,0,0,0.26458334,-6.3049604e-6,18.562493)"
         d="m 13933.25,829.71875 c 1.857,10.83356 11.293,19.0625 22.656,19.0625 10.678,0 19.665,-7.25848 22.25,-17.125 -4.076,8.01375 -9.502,13.65169 -22,13.65169 -14.703,0 -19.253,-6.52934 -22.906,-15.58919 z"
         style="opacity:0.78761058;color:#000000;fill:#007d7d;fill-opacity:1;fill-rule:nonzero;stroke:none;stroke-width:12;marker:none;visibility:visible;display:inline;overflow:visible;enable-background:accumulate" />
      <path
         sodipodi:nodetypes="cccccccccccccccccccccccccc"
         style="color:#000000;fill:#3dd8d8;fill-opacity:1;fill-rule:nonzero;stroke:none;stroke-width:12;marker:none;visibility:visible;display:inline;overflow:visible;enable-background:accumulate"
         d="m 3694.8572,233.76782 c -0.3294,0.0591 -0.5914,0.23815 -0.7869,0.50133 -0.4991,0.5812 -1.0055,1.15702 -1.5004,1.74157 -0.616,-0.60228 -1.2477,-1.19214 -1.8739,-1.78547 -0.2285,-0.15961 -0.5629,-0.27193 -0.8643,-0.218 -0.2496,0.0354 -0.4711,0.16179 -0.6441,0.32608 -0.2965,0.28724 -0.4285,0.79157 -0.2612,1.19802 0.1205,0.36497 0.3651,0.56303 0.6305,0.8371 0.4741,0.45172 0.7314,0.85275 1.2048,1.30508 -0.563,0.64477 -0.8106,1.36495 -1.3715,2.01142 -0.182,0.23348 -0.3325,0.58172 -0.2631,0.90382 0.038,0.28152 0.1766,0.53382 0.3811,0.71195 0.1889,0.14513 0.4571,0.28166 0.7229,0.27298 0.3622,0.0118 0.7043,-0.16701 0.9238,-0.43407 0.5249,-0.60855 1.0571,-1.21163 1.5774,-1.82359 0.6137,0.59983 1.2431,1.18722 1.8666,1.7781 0.1834,0.12432 0.4424,0.24235 0.6905,0.23342 0.3179,0.004 0.624,-0.13642 0.8368,-0.35147 0.2803,-0.28921 0.408,-0.7824 0.2422,-1.18068 -0.1204,-0.36497 -0.4583,-0.58432 -0.7236,-0.85835 -0.4714,-0.44928 -0.8028,-0.79994 -1.2736,-1.24983 0.5565,-0.6453 1.1405,-1.31006 1.6749,-1.94778 0.3567,-0.39215 0.2352,-1.13439 -0.1041,-1.54371 -0.066,-0.11445 -0.1922,-0.19419 -0.3099,-0.27538 -0.2278,-0.14764 -0.5068,-0.19724 -0.7748,-0.15254 z"
         id="path9038"
         inkscape:connector-curvature="0" />
      <path
         sodipodi:nodetypes="cccccccccccccccccccccccccc"
         inkscape:connector-curvature="0"
         id="path9040"
         d="m 3694.8572,233.4059 c -0.3294,0.0591 -0.5914,0.23815 -0.7869,0.50133 -0.4991,0.5812 -1.0055,1.15703 -1.5004,1.74157 -0.616,-0.60228 -1.2477,-1.19214 -1.8739,-1.78546 -0.2285,-0.15962 -0.5629,-0.27194 -0.8643,-0.21801 -0.2496,0.0354 -0.4711,0.16179 -0.6441,0.32608 -0.2965,0.28724 -0.4285,0.79157 -0.2612,1.19802 0.1205,0.36497 0.4583,0.58433 0.7237,0.85841 0.4741,0.45171 0.9488,0.90245 1.4222,1.35478 -0.563,0.64477 -1.1212,1.29394 -1.6821,1.94041 -0.182,0.23348 -0.3325,0.58172 -0.2631,0.90382 0.038,0.28152 0.1766,0.53382 0.3811,0.71195 0.1889,0.14513 0.4571,0.28166 0.7229,0.27298 0.3622,0.0118 0.7043,-0.16701 0.9238,-0.43407 0.5249,-0.60855 1.0571,-1.21163 1.5774,-1.82359 0.6137,0.59983 1.2431,1.18722 1.8666,1.7781 0.1834,0.12432 0.4424,0.24235 0.6905,0.23342 0.3179,0.004 0.624,-0.13642 0.8368,-0.35147 0.2803,-0.28921 0.408,-0.7824 0.2422,-1.18068 -0.1204,-0.36497 -0.4583,-0.58431 -0.7236,-0.85835 -0.4714,-0.44928 -0.9439,-0.89757 -1.4147,-1.34746 0.5565,-0.6453 1.1405,-1.31006 1.6749,-1.94778 0.3567,-0.39215 0.3763,-1.03676 0.037,-1.44608 -0.066,-0.11445 -0.1922,-0.19419 -0.3099,-0.27538 -0.2278,-0.14764 -0.5068,-0.19724 -0.7748,-0.15254 z"
         style="color:#000000;fill:#183939;fill-opacity:1;fill-rule:nonzero;stroke:none;stroke-width:12;marker:none;visibility:visible;display:inline;overflow:visible;enable-background:accumulate" />
      <path
         sodipodi:nodetypes="ccccccccccccccccccccccccccccccccccccc"
         inkscape:connector-curvature="0"
         id="path9042"
         transform="matrix(0.26458334,0,0,0.26458334,-6.3049604e-6,18.562493)"
         d="m 13965.565,811.93549 c -0.255,-0.003 -0.5,0.0414 -0.754,0.0836 -1.244,0.22326 -2.244,0.8736 -2.984,1.86831 -1.885,2.19666 -3.789,4.39949 -5.66,6.60879 -2.328,-2.27635 -4.716,-4.50573 -7.083,-6.74822 -0.864,-0.60328 -2.123,-1.04039 -3.262,-0.83655 -0.943,0.13389 -1.772,0.60598 -2.426,1.22694 -0.981,0.94993 -1.484,2.523 -1.171,3.93182 0.185,-0.80426 0.61,-1.54858 1.171,-2.09139 0.654,-0.62096 1.483,-1.12094 2.426,-1.25484 1.139,-0.20383 2.398,0.23328 3.262,0.83656 2.367,2.24249 4.755,4.47187 7.083,6.74822 1.871,-2.2093 3.775,-4.38425 5.66,-6.58091 0.74,-0.9947 1.74,-1.67293 2.984,-1.89619 1.013,-0.16896 2.068,0.0276 2.929,0.58559 0.444,0.30687 0.921,0.59919 1.171,1.03175 0.424,0.51022 0.677,1.11921 0.808,1.75677 0.27,-1.23569 0,-2.57889 -0.808,-3.56931 -0.25,-0.43256 -0.727,-0.75277 -1.171,-1.05964 -0.646,-0.41849 -1.412,-0.63375 -2.175,-0.64136 z m -3.095,14.53893 -0.03,1.8018 c 1.779,1.70035 3.572,3.40494 5.354,5.10299 1.003,1.03572 2.277,1.85527 2.732,3.23469 0.07,0.16934 0.125,0.35299 0.168,0.52982 0.168,-0.78275 0.142,-1.59848 -0.168,-2.34236 -0.455,-1.37941 -1.729,-2.22686 -2.732,-3.26257 -1.495,-1.42559 -3.83,-3.63826 -5.325,-5.06437 z m -11.955,0.62881 c -1.833,2.1078 -4.535,5.17001 -6.366,7.27985 -0.688,0.88247 -1.267,2.18463 -1.004,3.402 0.02,0.10506 0.06,0.20399 0.08,0.30673 0.179,-0.70643 0.518,-1.37998 0.92,-1.89619 2.12,-2.44333 4.23,-4.89689 6.358,-7.33381 z"
         style="opacity:0.67256637;color:#000000;fill:#091515;fill-opacity:1;fill-rule:nonzero;stroke:none;stroke-width:12;marker:none;visibility:visible;display:inline;overflow:visible;enable-background:accumulate" />
    </g>
  </g>
</svg>
