<?xml version="1.0" encoding="UTF-8" standalone="no"?>
<!-- Created with Inkscape (http://www.inkscape.org/) -->

<svg
   xmlns:dc="http://purl.org/dc/elements/1.1/"
   xmlns:cc="http://creativecommons.org/ns#"
   xmlns:rdf="http://www.w3.org/1999/02/22-rdf-syntax-ns#"
   xmlns:svg="http://www.w3.org/2000/svg"
   xmlns="http://www.w3.org/2000/svg"
   xmlns:sodipodi="http://sodipodi.sourceforge.net/DTD/sodipodi-0.dtd"
   xmlns:inkscape="http://www.inkscape.org/namespaces/inkscape"
   width="331.59464"
   height="344.37067"
   viewBox="0 0 87.734411 91.114742"
   version="1.1"
   id="svg23489"
   inkscape:version="0.48.5 r10040"
   sodipodi:docname="panel_dark_wood_medium_square.svg">
  <defs
     id="defs23483" />
  <sodipodi:namedview
     id="base"
     pagecolor="#7d848b"
     bordercolor="#666666"
     borderopacity="1.0"
     inkscape:pageopacity="1"
     inkscape:pageshadow="2"
     inkscape:zoom="0.1506769"
     inkscape:cx="-987.79384"
     inkscape:cy="1201.5217"
     inkscape:document-units="px"
     inkscape:current-layer="layer1"
     showgrid="false"
     inkscape:pagecheckerboard="false"
     showborder="true"
     units="px"
     inkscape:window-width="1920"
     inkscape:window-height="1017"
     inkscape:window-x="-8"
     inkscape:window-y="-8"
     inkscape:window-maximized="1"
     inkscape:showpageshadow="false"
     guidetolerance="28"
     fit-margin-top="25"
     fit-margin-left="25"
     fit-margin-right="25"
     fit-margin-bottom="25">
    <inkscape:grid
       type="xygrid"
       id="grid24034"
       spacingx="1px"
       spacingy="1px"
       empspacing="8"
       visible="true"
       enabled="true"
       snapvisiblegridlinesonly="true"
       originx="-2319.3315px"
       originy="584.30136px" />
  </sodipodi:namedview>
  <metadata
     id="metadata23486">
    <rdf:RDF>
      <cc:Work
         rdf:about="">
        <dc:format>image/svg+xml</dc:format>
        <dc:type
           rdf:resource="http://purl.org/dc/dcmitype/StillImage" />
        <dc:title></dc:title>
        <cc:license
           rdf:resource="" />
        <dc:creator>
          <cc:Agent>
            <dc:title>Robert Brooks</dc:title>
          </cc:Agent>
        </dc:creator>
      </cc:Work>
    </rdf:RDF>
  </metadata>
  <g
     inkscape:label="Layer 1"
     inkscape:groupmode="layer"
     id="layer1"
     transform="translate(-613.65648,-360.48165)">
    <g
       id="g14400"
       transform="matrix(2.0443657,0,0,2.0443657,-12412.539,-1304.3013)">
      <g
         id="g14317"
         transform="translate(676.27376,-44.714588)">
        <path
           sodipodi:nodetypes="csccccccccccccccsccccccccscccccccssccc"
           inkscape:connector-curvature="0"
           id="path14319"
           d="m 5703.7717,863.86494 c -0.3968,0.13229 -3.4559,3.05921 -3.4559,3.45609 l 0,3.96049 0,2.07534 c -0.016,0.28716 -0.021,0.51864 0,0.5705 l 0,0.68627 c 0.062,0.12515 0.067,0.45877 0.058,0.84334 -0.02,0.0427 -0.038,0.0841 -0.058,0.13229 l 0,1.09969 c -0.016,0.2903 -0.021,0.51829 0,0.57052 l 0,10.13099 0,3.33209 0,1.26505 c -0.01,0.0931 0.044,0.23294 0.1405,0.39688 l -0.1405,0.11575 0,2.81945 c -0.066,0.66149 2.9271,3.46651 3.4559,3.45615 l 9.5584,0 6.4325,-0.16536 6.7967,0.16536 3.2824,0 c 0,0 3.6544,-2.92698 3.7205,-3.72073 l -0.074,-3.11711 c 0.042,-0.0806 0.07,-0.15589 0.074,-0.21497 l -0.2479,-8.9073 c 0.083,-0.18338 0.1405,-0.36888 0.1405,-0.52917 0,-0.2999 0.018,-1.4161 0.1074,-2.24896 l -0.041,-2.87734 c 0.011,-0.15436 0.026,-0.31157 0.041,-0.45477 l -0.066,-4.81211 c 0,0 -0.066,-1.92645 -0.1984,-4.57234 0.066,-0.79375 -3.456,-3.45609 -3.456,-3.45609 l -5.7465,0 c -1.2306,0.1688 -2.4109,0.27283 -3.1419,0.27283 -1.1907,0 -6.35,-0.26458 -6.8792,-0.26458 -0.2688,0 -3.5613,0.26027 -4.9361,-0.008 l -5.3663,0 z"
           style="color:#000000;fill:#5a331d;fill-opacity:1;fill-rule:nonzero;stroke:#3b2213;stroke-width:3.17499995;stroke-linejoin:round;stroke-miterlimit:4;stroke-opacity:1;stroke-dasharray:none;marker:none;visibility:visible;display:inline;overflow:visible;enable-background:accumulate" />
        <path
           style="color:#000000;fill:#5a331d;fill-opacity:1;fill-rule:nonzero;stroke:none;stroke-width:0.88834655;marker:none;visibility:visible;display:inline;overflow:visible;enable-background:accumulate"
           d="m 5703.7717,867.20044 c -0.3968,0.13229 -3.4559,3.05922 -3.4559,3.45609 l 0,3.9605 c 0.1825,0.3661 -0.072,2.46755 0,2.64583 0.1526,0.38182 0.613,0.717 0.9757,0.9343 -0.3032,-0.0679 -0.6918,0.0254 -0.9757,0.7276 l 0,11.80121 0.926,1.00872 -0.926,0.76893 0,2.81948 c -0.066,0.66146 2.9268,3.45612 3.4559,3.45612 l 9.5584,0 6.4325,-0.16536 6.7967,0.16536 3.2824,0 c 0,0 3.6544,-2.92695 3.7205,-3.7207 l -0.2645,-9.50261 -0.7724,-1.57827 c 0,0 0.9295,-1.02624 0.9295,-1.6877 0,-0.2999 0.018,-1.41607 0.1074,-2.24895 l -0.066,-4.81211 c 0,0 -0.066,-1.92649 -0.1984,-4.57235 0.066,-0.79375 -3.456,-3.45609 -3.456,-3.45609 l -5.7465,0 c -1.2306,0.1688 -2.4109,0.27284 -3.1419,0.27284 -1.1907,0 -6.35,-0.26459 -6.8792,-0.26459 -0.2688,0 -3.5613,0.26033 -4.9361,-0.008 z"
           id="path14321"
           inkscape:connector-curvature="0"
           sodipodi:nodetypes="ccccccccccccccccccscccccsscc" />
        <path
           sodipodi:nodetypes="ccccccccccccccccccscccccsscc"
           inkscape:connector-curvature="0"
           id="path14323"
           transform="matrix(0.26458334,0,0,0.26458334,-6.3049604e-6,18.562493)"
           d="m 21557.562,3194.8438 c -1.5,0.5 -13.062,11.5624 -13.062,13.0624 l 0,14.9688 c 0.69,1.3837 -0.27,9.3262 0,10 0.577,1.4431 2.317,2.7099 3.688,3.5312 -1.146,-0.2567 -2.615,0.096 -3.688,2.75 l 0,49.9063 3.5,3.8125 -3.5,2.9062 0,10.6563 c -0.25,2.5 11.062,13.0625 13.062,13.0625 l 36.126,0 24.312,-0.625 25.688,0.625 12.406,0 c 0,0 13.812,-11.0625 14.062,-14.0625 l -1,-41.2187 -2.919,-5.9651 c 0,0 3.513,-3.8787 3.513,-6.3787 0,-1.1335 0.07,-5.3521 0.406,-8.5 l -0.25,-18.1875 c 0,0 -0.25,-7.2812 -0.75,-17.2813 0.25,-3 -13.062,-13.0624 -13.062,-13.0624 l -21.719,0 c -4.651,0.638 -9.112,1.0312 -11.875,1.0312 -4.5,0 -24,-1 -26,-1 -1.016,0 -13.46,0.9839 -18.656,-0.031 z"
           style="color:#000000;fill:#7f4a2c;fill-opacity:1;fill-rule:nonzero;stroke:none;stroke-width:0.88834655;marker:none;visibility:visible;display:inline;overflow:visible;enable-background:accumulate" />
        <g
           id="g18763"
           class="switchable"
           name="grain">
          <path
             inkscape:connector-curvature="0"
             style="font-size:medium;font-style:normal;font-variant:normal;font-weight:normal;font-stretch:normal;text-indent:0;text-align:start;text-decoration:none;line-height:normal;letter-spacing:normal;word-spacing:normal;text-transform:none;direction:ltr;block-progression:tb;writing-mode:lr-tb;text-anchor:start;baseline-shift:baseline;opacity:0.5;color:#000000;fill:#a5613c;fill-opacity:1;stroke:none;stroke-width:3;marker:none;visibility:visible;display:inline;overflow:visible;enable-background:accumulate;font-family:Sans;-inkscape-font-specification:Sans"
             d="m 21669.312,3211.4375 c -11.143,3.0882 -29.74,7.948 -50.437,12.2187 -25.013,5.1615 -53.136,9.3405 -74.437,8.5 0,0.3526 0.02,0.6226 0.06,0.7188 0.326,0.8146 1.021,1.5649 1.812,2.2188 21.347,0.2735 48.092,-4.5389 72.438,-9.5626 21.057,-4.345 39.338,-8.6874 50.688,-11.4687 -0.04,-0.8856 -0.08,-1.6586 -0.126,-2.625 z m -124.812,45.5937 0,2.6563 c 42.924,-1.0197 82.902,-0.7673 122.312,-0.2813 l -0.562,-1.1562 c 0,0 0.433,-0.4833 1,-1.2188 l -122.75,0 z m 124.625,7.1563 c -19.048,0.7546 -35.919,3.6378 -47.187,7.2187 -3.608,1.1466 -6.648,2.3819 -9.032,3.6563 -2.384,1.2747 -4.149,2.5557 -5.156,4.1563 -0.503,0.8003 -0.791,1.7341 -0.719,2.6874 0.07,0.9533 0.524,1.8312 1.188,2.5626 1.326,1.4627 3.44,2.5146 6.531,3.4374 12.142,3.6245 29.785,4.8327 44.469,5.1876 3.821,0.092 7.39,0.1287 10.656,0.125 l -0.09,-3 c -3.212,0 -6.747,-0.034 -10.5,-0.125 -14.573,-0.3523 -32.11,-1.616 -43.656,-5.0626 -2.831,-0.8449 -4.54,-1.8459 -5.187,-2.5624 -0.326,-0.3583 -0.391,-0.5783 -0.407,-0.7813 0,-0.203 0.04,-0.4764 0.281,-0.875 0.502,-0.7967 1.885,-1.9771 4.032,-3.125 2.147,-1.1478 5.015,-2.2988 8.5,-3.4063 10.881,-3.4579 27.557,-6.305 46.375,-7.0624 l -0.06,-3 -0.03,-0.031 z m -124.625,13.25 0,3.0937 c 8.735,2.0474 19.727,5.2931 31.938,8.6563 19.12,5.267 41.309,10.7609 63.062,12.1875 11.824,0.7753 21.972,0.7768 30.562,0.375 l -0.06,-2.9688 c -8.478,0.3964 -18.53,0.3977 -30.312,-0.375 -21.382,-1.402 -43.406,-6.8736 -62.469,-12.125 -12.522,-3.449 -23.683,-6.7793 -32.719,-8.8437 z m 2.344,16.4063 -2.344,1.9374 0,0.75 c 9.427,1.1248 18.033,3.271 26.594,5.8438 16.971,5.1002 33.794,11.8636 56.25,15.25 4.834,0.7289 9.451,1.321 13.906,1.8125 l 2.438,0.062 12.406,0 c 0,0 0.857,-0.6968 1.937,-1.5938 -8.963,-0.5433 -19.106,-1.5383 -30.25,-3.2187 -22.091,-3.3311 -38.666,-10.0035 -55.812,-15.1563 -8.056,-2.4209 -16.237,-4.4748 -25.125,-5.6874 z"
             transform="matrix(0.26458334,0,0,0.26458334,-6.3049604e-6,18.562493)"
             id="path14325" />
          <path
             inkscape:connector-curvature="0"
             style="font-size:medium;font-style:normal;font-variant:normal;font-weight:normal;font-stretch:normal;text-indent:0;text-align:start;text-decoration:none;line-height:normal;letter-spacing:normal;word-spacing:normal;text-transform:none;direction:ltr;block-progression:tb;writing-mode:lr-tb;text-anchor:start;baseline-shift:baseline;color:#000000;fill:#6b3e25;fill-opacity:1;stroke:none;stroke-width:3;marker:none;visibility:visible;display:inline;overflow:visible;enable-background:accumulate;font-family:Sans;-inkscape-font-specification:Sans"
             d="m 21669.25,3210.0312 c -11.15,3.0891 -29.715,7.9556 -50.375,12.2188 -24.989,5.1565 -53.081,9.3299 -74.375,8.5 -0.06,1.0711 -0.08,1.9308 0,2.125 0.109,0.2732 0.287,0.5225 0.469,0.7812 21.561,0.502 48.918,-4.4008 73.781,-9.5312 21.016,-4.3366 39.267,-8.6547 50.625,-11.4375 -0.04,-0.9403 -0.08,-1.6391 -0.125,-2.6563 z m -124.75,45.5938 0,2.6562 c 42.8,-1.0166 82.669,-0.7644 121.969,-0.2812 0.28,-0.3199 0.999,-1.1741 1.781,-2.375 l -123.75,0 z m 123.5,7.1875 c -18.591,0.8212 -35.014,3.6765 -46.062,7.1875 -3.609,1.1465 -6.648,2.3818 -9.032,3.6562 -2.384,1.2748 -4.149,2.5557 -5.156,4.1563 -0.503,0.8003 -0.791,1.7342 -0.719,2.6875 0.07,0.9533 0.524,1.8311 1.188,2.5625 1.326,1.4627 3.44,2.5147 6.531,3.4375 12.142,3.6245 29.785,4.8326 44.469,5.1875 3.793,0.092 7.346,0.1283 10.593,0.125 l -0.06,-3 c -3.203,0 -6.73,-0.035 -10.469,-0.125 -14.573,-0.3523 -32.11,-1.6159 -43.656,-5.0625 -2.831,-0.845 -4.539,-1.8459 -5.187,-2.5625 -0.327,-0.3583 -0.391,-0.5782 -0.407,-0.7813 0,-0.2029 0.04,-0.4763 0.281,-0.875 0.503,-0.7967 1.885,-1.977 4.032,-3.125 2.147,-1.1478 5.015,-2.2988 8.5,-3.4062 10.875,-3.456 27.539,-6.3031 46.344,-7.0625 l -0.03,-1.5937 -0.687,-1.4063 c -0.155,0.01 -0.315,-0.01 -0.469,0 z m -123.5,13.2187 0,3.0938 c 8.735,2.0474 19.727,5.293 31.938,8.6562 19.12,5.2671 41.309,10.7609 63.062,12.1876 11.809,0.7743 21.947,0.7753 30.531,0.375 l -0.06,-2.9688 c -8.472,0.3947 -18.514,0.3966 -30.281,-0.375 -21.383,-1.4021 -43.406,-6.8737 -62.469,-12.125 -12.522,-3.4491 -23.683,-6.7794 -32.719,-8.8438 z m 3.188,16.5 0.312,0.3438 -2.812,2.3438 c 9.157,1.1461 17.554,3.24 25.906,5.75 16.971,5.1002 33.794,11.8635 56.25,15.25 10.572,1.5942 20.246,2.5887 28.906,3.1562 0.149,-0.1198 1.471,-1.1899 3.344,-2.7812 -9.348,-0.5199 -20.002,-1.5316 -31.813,-3.3126 -22.091,-3.3311 -38.666,-10.0034 -55.812,-15.1562 -7.801,-2.3443 -15.718,-4.3665 -24.281,-5.5938 z"
             transform="matrix(0.26458334,0,0,0.26458334,-6.3049604e-6,18.562493)"
             id="path14327" />
        </g>
        <path
           sodipodi:nodetypes="cscccccccsccsscccccscccccssscccsccccccccccccccccsccccccccccccccccccccccscccccsscc"
           inkscape:connector-curvature="0"
           id="path14329"
           transform="matrix(0.26458334,0,0,0.26458334,-6.3049604e-6,18.562493)"
           d="m 21557.562,3194.8438 c -1.5,0.5 -13.062,11.5624 -13.062,13.0624 l 0,14.9688 c 0.69,1.3837 -0.27,9.3262 0,10 0.446,1.1144 1.592,2.1261 2.719,2.9062 -0.301,-0.3589 -0.562,-0.7333 -0.719,-1.125 -0.261,-0.6522 18.671,2.5426 18.003,1.2032 l -13.302,-2.854 -4.254,-4.0747 0.303,-18.4307 c 0.02,-1.4518 10.454,-12.1722 11.906,-12.6562 l 19.625,0 c 5.03,0.9824 17.08,0.031 18.063,0.031 1.936,0 20.8,0.9688 25.156,0.9688 2.674,0 6.998,-0.3825 11.5,-1 l 21.031,0 c 0,0 12.899,9.7523 12.657,12.6562 0.484,9.6795 0.718,16.7188 0.718,16.7188 l 0.25,17.5937 c -0.323,3.0469 -0.406,7.1215 -0.406,8.2187 0,2.42 -3.406,6.1876 -3.406,6.1876 l 2.844,5.7812 2.093,40.625 c -0.03,0.3099 -0.211,0.7245 -0.5,1.1875 -4.027,3.1486 -13.97,10.7638 -15.781,10.5625 -2.25,-0.25 -26.5,-2.25 -31.25,-2.5 -4.75,-0.25 -33,3.5 -36.25,3.5 -3.25,0 -26.25,-2.5 -27.5,-2.75 -1.25,-0.25 -9,-8.25 -9,-8.25 l 0.75,-9.25 c 0,0 14.267,-3.9743 17.906,-4.4688 -1.348,0.084 -14.399,0.4418 -16.406,0.2188 -2.25,-0.25 -3.75,1.5 -5.5,2.75 -0.157,0.1118 -0.239,0.1621 -0.375,0.25 l 0,-0.75 3.469,-2.875 -2.219,-5 -0.125,-47.5 c 1.039,-2.5689 2.485,-2.9359 3.594,-2.6875 -0.755,-0.4522 -1.631,-1.0354 -2.344,-1.7187 0,-0.01 -0.03,0.01 -0.03,0 -0.143,-0.01 -0.29,-0.018 -0.438,0 -0.947,0.1153 -1.976,0.8219 -2.781,2.8124 l 0,49.9063 3.5,3.8125 -3.5,2.9062 0,1.6563 0,9 c -0.25,2.5 11.062,13.0625 13.062,13.0625 l 0.688,0 35.438,0 24.312,-0.625 25.688,0.625 11.718,0 0.688,0 c 0,0 0.867,-0.6879 2.031,-1.6562 0.04,-0.032 0.08,-0.092 0.125,-0.125 0.646,-0.5383 1.408,-1.1785 2.219,-1.875 0.703,-0.6055 1.467,-1.2655 2.219,-1.9376 0.115,-0.103 0.228,-0.2084 0.343,-0.3124 0.728,-0.6562 1.457,-1.3017 2.157,-1.9688 0.146,-0.1391 0.262,-0.2678 0.406,-0.4062 0.411,-0.3974 0.809,-0.8018 1.187,-1.1876 0.37,-0.3772 0.737,-0.7679 1.063,-1.125 0.668,-0.7324 1.224,-1.4094 1.625,-2 0.151,-0.2229 0.272,-0.4297 0.375,-0.625 0.07,-0.141 0.141,-0.2813 0.187,-0.4062 0.01,-0.031 0.05,-0.064 0.06,-0.094 0.04,-0.1189 0.05,-0.2424 0.06,-0.3437 l -1,-41.2187 -2.906,-5.9688 c 0,0 3.5,-3.875 3.5,-6.375 0,-1.1335 0.07,-5.3521 0.406,-8.5 l -0.25,-18.1875 c 0,0 -0.25,-7.281 -0.75,-17.2813 0.25,-3 -13.062,-13.0624 -13.062,-13.0624 l -21.719,0 c -4.651,0.638 -9.112,1.0312 -11.875,1.0312 -4.5,0 -24,-1 -26,-1 -1.016,0 -13.46,0.9837 -18.656,-0.031 z"
           style="color:#000000;fill:#a5613c;fill-opacity:1;fill-rule:nonzero;stroke:none;stroke-width:0.88834655;marker:none;visibility:visible;display:inline;overflow:visible;enable-background:accumulate" />
        <path
           sodipodi:nodetypes="cccccccsccccccccccccsccc"
           inkscape:connector-curvature="0"
           id="path14331"
           transform="matrix(0.26458334,0,0,0.26458334,-6.3049604e-6,18.562493)"
           d="m 21544.562,3229.5312 c -1.39,1.0789 -2.134,2.2259 -0.06,3.3438 0.255,0.6374 0.736,1.2359 1.312,1.7812 0.945,0.7138 1.554,1.1857 1.969,1.5 0.135,0.085 0.277,0.1727 0.407,0.25 -0.02,0 -0.04,0 -0.06,0 0.09,0.067 0.625,0.4688 0.625,0.4688 0,0 17.498,-0.5156 15.748,-1.0156 -1.75,-0.5 -13.998,-0.7344 -14.998,-1.4844 -0.619,-0.464 -2.95,-2.8059 -4.938,-4.8438 z m 125.542,20.6269 -5.576,7.2598 -6.778,0.7777 8.5,0.054 4.03,-4.6072 z m -121.604,42.9669 c 0,0 -2.174,1.4293 -3.812,2.5 l -0.188,0.1562 c -0.571,1.7365 -1.258,3.5019 0,4.7813 1.442,1.4673 2.852,-3.7385 3.75,-4.1875 1.5,-0.75 11.75,-3 11.75,-3 z"
           style="color:#000000;fill:#3b2213;fill-opacity:1;fill-rule:nonzero;stroke:none;stroke-width:12;marker:none;visibility:visible;display:inline;overflow:visible;enable-background:accumulate" />
      </g>
    </g>
  </g>
</svg>
