<?xml version="1.0" encoding="UTF-8" standalone="no"?>
<!-- Created with Inkscape (http://www.inkscape.org/) -->

<svg
   xmlns:dc="http://purl.org/dc/elements/1.1/"
   xmlns:cc="http://creativecommons.org/ns#"
   xmlns:rdf="http://www.w3.org/1999/02/22-rdf-syntax-ns#"
   xmlns:svg="http://www.w3.org/2000/svg"
   xmlns="http://www.w3.org/2000/svg"
   xmlns:sodipodi="http://sodipodi.sourceforge.net/DTD/sodipodi-0.dtd"
   xmlns:inkscape="http://www.inkscape.org/namespaces/inkscape"
   width="1822.8264"
   height="710.05829"
   viewBox="0 0 482.28947 187.86959"
   version="1.1"
   id="svg23489"
   inkscape:version="0.48.5 r10040"
   sodipodi:docname="panel_light_wood_medium_horizontal.svg">
  <defs
     id="defs23483" />
  <sodipodi:namedview
     id="base"
     pagecolor="#7d848b"
     bordercolor="#666666"
     borderopacity="1.0"
     inkscape:pageopacity="1"
     inkscape:pageshadow="2"
     inkscape:zoom="0.1506769"
     inkscape:cx="-2257.1895"
     inkscape:cy="1523.6992"
     inkscape:document-units="px"
     inkscape:current-layer="layer1"
     showgrid="false"
     inkscape:pagecheckerboard="false"
     showborder="true"
     units="px"
     inkscape:window-width="1920"
     inkscape:window-height="1017"
     inkscape:window-x="-8"
     inkscape:window-y="-8"
     inkscape:window-maximized="1"
     inkscape:showpageshadow="false"
     guidetolerance="28"
     fit-margin-top="25"
     fit-margin-left="25"
     fit-margin-right="25"
     fit-margin-bottom="25">
    <inkscape:grid
       type="xygrid"
       id="grid24034"
       spacingx="1px"
       spacingy="1px"
       empspacing="8"
       visible="true"
       enabled="true"
       snapvisiblegridlinesonly="true"
       originx="-3588.7272px"
       originy="906.4789px" />
  </sodipodi:namedview>
  <metadata
     id="metadata23486">
    <rdf:RDF>
      <cc:Work
         rdf:about="">
        <dc:format>image/svg+xml</dc:format>
        <dc:type
           rdf:resource="http://purl.org/dc/dcmitype/StillImage" />
        <dc:title></dc:title>
        <cc:license
           rdf:resource="" />
        <dc:creator>
          <cc:Agent>
            <dc:title>Robert Brooks</dc:title>
          </cc:Agent>
        </dc:creator>
      </cc:Work>
    </rdf:RDF>
  </metadata>
  <g
     inkscape:label="Layer 1"
     inkscape:groupmode="layer"
     id="layer1"
     transform="translate(-949.51742,-348.96961)">
    <g
       id="g20356"
       transform="matrix(0.70237632,0,0,1,73.159394,-501.27671)">
      <g
         transform="matrix(2.0509573,0,0,2.0443656,-10411.458,-1198.7115)"
         id="g20224">
        <g
           transform="translate(-17.212158,37.417735)"
           id="g20226">
          <path
             inkscape:connector-curvature="0"
             id="path20228"
             transform="matrix(0.26458334,0,0,0.26458334,17.212152,-18.855242)"
             d="m 22610.062,3736.1875 c -12.493,1.5842 -57.553,2.8985 -74.343,3.4687 -21.251,0.7204 -145.872,0.5585 -219.375,-1.4687 0,0 -234.157,0.5313 -245.156,0.5313 -4.296,0 -16.079,-0.2786 -29.063,-0.5313 l -42.344,0 c -1.841,0.1342 -21.124,0.2967 -21.593,0.5313 -4,2 -41,5 -41,5 0,0 -146.301,-5.5313 -217.094,-5.5313 l -173.032,0 -37.281,28.875 0,12.5937 0,3.9376 0,12.5937 0.594,0.1563 c -0.2,0.4474 -0.379,0.8711 -0.594,1.3437 l 0,12.5937 0,34.0313 0,11.8437 0,0.75 0,11.8438 0,26.4062 0,2.625 2.5,10.4688 823.276,2.7273 c 25.283,0.5697 144.477,-1.135 144.318,-1.1648 l 242.469,0.4063 2.094,-14 -0.407,-24.1876 -0.06,-15.5 -0.09,-0.031 -0.06,-9.5312 0.09,-0.031 -0.25,-38.9687 -1.844,-8.8438 1.688,-5.7188 0,-0.031 -0.06,-12.375 0.06,-0.1875 0,-0.031 -0.06,-13.7187 -27.876,-28.875 -85.5,-2 z"
             style="color:#000000;fill:#5a331d;fill-opacity:1;fill-rule:nonzero;stroke:#3b2213;stroke-width:12.21789169;stroke-linejoin:round;stroke-miterlimit:4;stroke-opacity:1;stroke-dasharray:none;marker:none;visibility:visible;display:inline;overflow:visible;enable-background:accumulate"
             sodipodi:nodetypes="cccsccccsccccccccccccccccccccccccccccccccccc" />
          <path
             inkscape:connector-curvature="0"
             id="path20230"
             transform="matrix(0.26458334,0,0,0.26458334,17.212152,-18.855242)"
             d="m 22610.062,3748.8125 c -12.493,1.5842 -57.553,2.8673 -74.343,3.4375 -21.251,0.7203 -145.873,0.5896 -219.375,-1.4375 0,0 -234.156,0.5313 -245.156,0.5313 -4.295,0 -16.078,-0.2786 -29.063,-0.5313 l -42.344,0 c -1.841,0.1342 -21.124,0.2967 -21.593,0.5313 -4,2 -41,5 -41,5 0,0 -146.302,-5.5313 -217.094,-5.5313 l -173.032,0 -37.281,28.875 0,16.5313 5.157,1.3437 c 0.04,0.011 0.08,0.028 0.124,0.031 7.039,1.0686 21.888,3.3139 22.25,3.375 1.334,0.2226 2.24,0.38 2.594,0.4687 0.07,0.019 0.1,0.039 0.125,0.062 0.04,0.026 0.04,0.061 0,0.094 -0.07,0.1065 -0.427,0.2336 -0.969,0.4062 -0.325,0.1039 -0.687,0.2209 -1.156,0.3438 -0.587,0.1538 -24.962,4.6179 -26.781,4.9374 -0.426,0.978 -0.858,1.9645 -1.344,3.0313 l 0,46.625 13.375,5.5625 -13.375,6.2812 0,26 2.5,13.5 714.217,1.1876 119.354,2.9232 c 32.652,-0.4199 134.25,-2.5354 134.148,-2.5482 l 242.344,0.4062 2.094,-14.0312 -0.438,-27.0626 -12.688,-3.8124 -12.124,-0.1876 c -20.562,-0.1209 -14.063,-0.7812 -14.063,-0.7812 l 31.563,-1.5 7.25,-3.3125 -0.25,-38.9687 -3.376,-16.25 3.219,-10.9063 0,-0.031 -0.09,-13.7187 -27.876,-28.875 -85.5,-2 z"
             style="color:#000000;fill:#5a331d;fill-opacity:1;fill-rule:nonzero;stroke:none;stroke-width:12;marker:none;visibility:visible;display:inline;overflow:visible;enable-background:accumulate"
             sodipodi:nodetypes="cccsccccsccccccccccccccccccccccccccccccccccccc" />
          <path
             inkscape:connector-curvature="0"
             id="path20232"
             transform="matrix(0.26458334,0,0,0.26458334,17.212152,-18.855242)"
             d="m 22610.062,3736.2188 c -12.493,1.5841 -57.553,2.8673 -74.343,3.4374 -21.251,0.7204 -145.873,0.5897 -219.375,-1.4374 0,0 -234.156,0.5312 -245.156,0.5312 -4.295,0 -16.078,-0.2786 -29.063,-0.5312 l -42.344,0 c -1.841,0.1341 -21.124,0.2967 -21.593,0.5312 -4,2 -41,5 -41,5 0,0 -146.302,-5.5312 -217.094,-5.5312 l -173.032,0 -37.281,28.875 0,16.5312 5.157,1.3438 c 0.04,0.011 0.08,0.027 0.124,0.031 7.039,1.0687 21.888,3.314 22.25,3.375 1.334,0.2226 2.24,0.38 2.594,0.4688 0.07,0.019 0.1,0.039 0.125,0.062 0.04,0.026 0.04,0.061 0,0.094 -0.07,0.1066 -0.427,0.2336 -0.969,0.4062 -0.325,0.104 -0.687,0.221 -1.156,0.3438 -0.587,0.1538 -24.962,4.6179 -26.781,4.9375 -0.426,0.9779 -0.858,1.9644 -1.344,3.0313 l 0,46.625 13.375,5.5624 -13.375,6.2813 0,38.9687 758.844,0 74.736,2.767 c 26.511,-0.095 145.701,-2.767 145.701,-2.767 l 235.063,0 -0.125,-38.5937 -12.688,-3.8125 -12.124,-0.1875 c -20.562,-0.1209 -14.063,-0.7813 -14.063,-0.7813 l 31.563,-1.5 7.25,-3.3124 -0.25,-38.9688 -3.376,-16.25 3.219,-10.9062 0,-0.031 -0.09,-13.7187 -27.876,-28.875 -85.5,-2 z"
             style="color:#000000;fill:#7f4a2c;fill-opacity:1;fill-rule:nonzero;stroke:none;stroke-width:12;marker:none;visibility:visible;display:inline;overflow:visible;enable-background:accumulate"
             sodipodi:nodetypes="cccsccscsccccccccccccccccccccccccccccccccccc" />
          <path
             inkscape:connector-curvature="0"
             id="path20234"
             transform="matrix(0.26458334,0,0,0.26458334,17.212152,-18.855242)"
             d="m 22210.438,3740.4375 c -3.758,0.01 -4.058,0.024 -7.876,0.031 -14.337,6.1475 -26.168,12.6892 -37.156,19.5 -25.91,16.0607 -47.151,33.4947 -86.594,50.75 -9.519,4.165 -25.119,6.1843 -45.124,6.4374 -20.009,0.2533 -44.449,-1.2392 -71.813,-3.8437 -54.729,-5.2093 -121.204,-14.9113 -187.813,-24.2813 -66.603,-9.3702 -133.345,-18.3811 -188.656,-22.1874 -26.77,-1.8422 -50.832,-2.5207 -70.968,-1.375 l -4.407,3.4062 c 20.797,-1.5468 46.434,-1.041 75.188,0.9375 55.152,3.7954 121.842,12.8188 188.437,22.1875 66.595,9.3683 133.087,19.0918 187.938,24.3125 27.425,2.6105 51.939,4.0994 72.125,3.8437 20.185,-0.2532 36.002,-2.2218 46.281,-6.7187 39.756,-17.3934 61.292,-34.9704 87,-50.9063 12.563,-7.7874 26.165,-15.2231 43.438,-22.0937 z m -38.719,0.094 c -3.255,0.01 -3.623,0.024 -6.813,0.031 -50.478,25.4124 -87.027,48.3132 -114.5,48.8125 -77.514,1.4094 -193.869,-17.3017 -306.156,-31.625 -71.895,-9.1709 -142.077,-16.5659 -199.594,-15.6562 l -4.031,3.125 c 57.905,-1.3112 129.711,6.1192 203.25,15.5 112.219,14.3142 228.511,33.075 306.563,31.6562 30.091,-0.5474 68.16,-25.3942 121.281,-51.8438 z m 161.125,0.063 c -38.842,5.8378 -71.732,12.8136 -97.938,20.1874 -20.478,5.7624 -36.854,11.7728 -48.875,17.7188 -12.02,5.946 -19.736,11.7202 -22.719,17.6562 -1.489,2.9683 -1.693,6.1023 -0.406,8.9063 1.288,2.804 3.898,5.2133 7.688,7.3437 7.578,4.2613 20.078,7.5231 38.031,9.6563 71.739,8.5236 171.124,-3.2069 263.781,-16.4687 92.658,-13.2621 178.689,-28.0698 222.813,-25.9688 10.568,0.5032 19.871,1.0333 28.219,1.5312 l 0.09,-0.3124 0,-0.031 -0.03,-2.6875 c -8.33,-0.4944 -17.596,-0.9987 -28.125,-1.5 -44.971,-2.1415 -130.771,12.746 -223.375,26 -92.604,13.2544 -191.904,24.8847 -263,16.4375 -17.756,-2.1094 -30.031,-5.3995 -36.938,-9.2813 -3.451,-1.941 -5.496,-3.9871 -6.406,-5.9687 -0.909,-1.9812 -0.84,-3.9552 0.344,-6.3125 2.367,-4.715 9.576,-10.4916 21.344,-16.3125 11.767,-5.8205 28.017,-11.8033 48.375,-17.5313 30.055,-8.4572 69.084,-16.3948 115.875,-22.6874 -6.399,-0.1127 -12.739,-0.2428 -18.75,-0.375 z m 98.562,1.2812 c -75.13,6.6445 -128.822,16.6326 -162.75,26.6562 -13.844,4.0904 -24.401,8.1767 -31.844,12.0938 -7.438,3.9171 -11.901,7.5187 -13.218,11.4688 -0.659,1.9748 -0.302,4.0913 0.937,5.75 1.24,1.6587 3.212,2.9559 5.844,4.0312 5.264,2.1509 13.28,3.4653 24.125,3.9062 43.317,1.7634 114.052,-9.038 193.5,-20.3437 79.448,-11.3057 167.55,-23.1162 245.188,-23.4687 8.248,-0.038 16.005,-0.049 23.312,-0.063 l -2.875,-3 c -6.517,0.015 -13.224,0.03 -20.469,0.063 -77.929,0.3552 -166.127,12.1915 -245.594,23.5 -79.463,11.3078 -150.254,22.0496 -192.937,20.3124 -10.655,-0.4335 -18.464,-1.7833 -23.125,-3.6874 -2.331,-0.9526 -3.821,-2.0377 -4.562,-3.0313 -0.745,-0.9933 -0.898,-1.8117 -0.5,-3 0.79,-2.3769 4.614,-6.0088 11.781,-9.7813 7.165,-3.7722 17.562,-7.8213 31.281,-11.875 38.82,-11.4696 104.168,-22.995 198.5,-29.375 -11.568,-0.023 -23.812,-0.077 -36.594,-0.1562 z m -893.375,48.625 c 0.788,0.1346 1.619,0.2795 1.875,0.3438 0.07,0.019 0.1,0.039 0.125,0.062 0.04,0.026 0.04,0.061 0,0.094 -0.07,0.1066 -0.427,0.2336 -0.969,0.4062 -0.325,0.104 -0.687,0.221 -1.156,0.3438 -0.189,0.049 -4.74,0.8764 -8.281,1.5312 334.995,8.3138 625.151,71.2188 790.906,71.2188 127.482,0 214.566,-18.585 283.813,-33.3438 45.339,-9.6628 82.983,-17.6715 119.375,-17.8124 l -0.03,-3 c -36.778,0.1436 -74.655,8.217 -119.969,17.875 -69.248,14.759 -155.996,33.2812 -283.188,33.2812 -163.625,0 -450.665,-61.8649 -782.5,-71 z m 13.625,40.0312 c -14.587,0.05 -28.567,0.3617 -41.875,0.9376 l 0,3.0312 c 18.045,-0.8068 37.354,-1.1054 57.719,-0.9375 85.69,0.7064 189.876,9.3666 295.031,21.0313 109.716,12.17 219.494,27.4791 311.438,40.5624 l 21.437,0 c -95.821,-13.669 -214.343,-30.4491 -332.562,-43.5624 -105.209,-11.6706 -209.441,-20.3234 -295.313,-21.0313 -5.367,-0.044 -10.656,-0.05 -15.875,-0.031 z m -2.281,19.6876 c -2.867,-0.011 -5.692,-9e-4 -8.469,0.031 -6.982,0.083 -13.646,0.3308 -20,0.7188 l 2.25,0.9374 -4.937,2.3126 c 16.98,-1.2182 36.618,-1.2554 57.937,-0.3438 49.494,2.1177 108.127,9.1757 164.313,17.6562 50.4,7.6078 98.586,16.3065 136.593,23.625 l 15.594,0 c -39.902,-7.8385 -94.393,-17.9092 -151.718,-26.5624 -56.248,-8.49 -114.979,-15.5936 -164.657,-17.7188 -9.314,-0.3985 -18.306,-0.6236 -26.906,-0.6562 z m 1163.813,5.0937 c -11.358,1.1429 -25.253,3.0769 -42.188,6.1875 -31.899,5.8591 -75.036,20.5384 -123.188,33.6562 l 11.157,0 c 44.065,-12.3408 83.345,-25.3214 112.562,-30.6874 20.815,-3.823 36.98,-5.8359 49.438,-6.8126 l -7.781,-2.3437 z"
             style="opacity:0.5;color:#000000;fill:#a5613c;fill-opacity:1;fill-rule:nonzero;stroke:none;stroke-width:12;marker:none;visibility:visible;display:inline;overflow:visible;enable-background:accumulate" />
          <path
             style="color:#000000;fill:#a5613c;fill-opacity:1;fill-rule:nonzero;stroke:none;stroke-width:12;marker:none;visibility:visible;display:inline;overflow:visible;enable-background:accumulate"
             d="m 17125.625,1638.625 c -44.54,-0.041 -82.422,0.095 -91.437,0.625 -24.042,1.4142 -74.927,2.8277 -110.282,5.6562 -12.716,1.0173 -36.718,2.0206 -67.344,2.9063 l 142.626,5.2813 c 54.294,-0.1943 298.374,-5.6563 298.374,-5.6563 l 130.563,0 c 5.501,-2.0788 9.343,-3.5414 10.531,-3.9375 8.486,-2.8285 -24.036,-4.2347 -39.594,-1.4062 -15.556,2.8285 -83.42,-2.8438 -97.562,-2.8438 -8.839,0 -101.642,-0.5559 -175.875,-0.625 z"
             transform="matrix(0.12919139,0,0,0.12942075,3732.7466,798.5254)"
             id="path20236"
             inkscape:connector-curvature="0" />
          <path
             inkscape:connector-curvature="0"
             id="path20238"
             transform="matrix(0.26458334,0,0,0.26458334,17.212152,-18.855242)"
             d="m 22210.438,3738.4375 c -3.758,0.01 -4.058,0.023 -7.876,0.031 -14.337,6.1476 -26.168,12.6893 -37.156,19.5 -25.91,16.0607 -47.152,33.4948 -86.594,50.75 -9.519,4.165 -25.119,6.1842 -45.124,6.4374 -20.009,0.2534 -44.449,-1.2392 -71.813,-3.8437 -54.729,-5.2093 -121.205,-14.9113 -187.813,-24.2813 -66.604,-9.3702 -133.345,-18.3811 -188.656,-22.1874 -26.77,-1.8421 -50.831,-2.5206 -70.968,-1.375 l -4.407,3.4062 c 20.797,-1.5468 46.434,-1.041 75.188,0.9375 55.152,3.7954 121.842,12.8188 188.437,22.1875 66.595,9.3683 133.087,19.0918 187.938,24.3125 27.425,2.6105 51.939,4.0993 72.125,3.8437 20.185,-0.2532 36.002,-2.2218 46.281,-6.7187 39.756,-17.3934 61.292,-34.9705 87,-50.9063 12.563,-7.7874 26.166,-15.2231 43.438,-22.0937 z m -38.719,0.094 c -3.255,0.01 -3.623,0.024 -6.813,0.031 -50.478,25.4124 -87.027,48.3132 -114.5,48.8125 -77.514,1.4094 -193.869,-17.3017 -306.156,-31.625 -71.895,-9.1709 -142.077,-16.5659 -199.594,-15.6562 l -4.031,3.125 c 57.905,-1.3112 129.711,6.1193 203.25,15.5 112.219,14.3142 228.512,33.075 306.563,31.6562 30.092,-0.5474 68.16,-25.3942 121.281,-51.8438 z m 161.125,0.063 c -38.842,5.8379 -71.732,12.8136 -97.938,20.1874 -20.478,5.7624 -36.854,11.7728 -48.875,17.7188 -12.02,5.946 -19.737,11.7201 -22.719,17.6562 -1.489,2.9682 -1.693,6.1023 -0.406,8.9063 1.288,2.804 3.898,5.2132 7.688,7.3437 7.579,4.2612 20.078,7.5231 38.031,9.6563 71.739,8.5236 171.124,-3.2068 263.781,-16.4687 92.658,-13.2621 178.689,-28.0698 222.813,-25.9688 10.605,0.505 19.942,1.0317 28.312,1.5312 l -0.03,-3.0312 c -8.33,-0.4944 -17.596,-0.9987 -28.125,-1.5 -44.971,-2.1415 -130.771,12.746 -223.375,26 -92.604,13.2544 -191.904,24.8847 -263,16.4375 -17.756,-2.1094 -30.031,-5.3996 -36.938,-9.2813 -3.451,-1.9411 -5.496,-3.9871 -6.406,-5.9687 -0.91,-1.9812 -0.84,-3.9552 0.344,-6.3125 2.367,-4.715 9.576,-10.4916 21.344,-16.3125 11.767,-5.8205 28.018,-11.8033 48.375,-17.5313 30.055,-8.4573 69.084,-16.3947 115.875,-22.6874 -6.399,-0.1126 -12.739,-0.2425 -18.75,-0.375 z m 98.562,1.2812 c -75.13,6.6445 -128.823,16.6326 -162.75,26.6562 -13.844,4.0904 -24.402,8.1767 -31.844,12.0938 -7.439,3.9171 -11.901,7.5187 -13.218,11.4688 -0.659,1.9748 -0.302,4.0914 0.937,5.75 1.24,1.6588 3.212,2.9559 5.844,4.0312 5.264,2.1509 13.28,3.4652 24.125,3.9062 43.317,1.7633 114.052,-9.038 193.5,-20.3437 79.448,-11.3057 167.55,-23.1161 245.188,-23.4687 8.248,-0.037 16.005,-0.049 23.312,-0.063 l -2.875,-3 c -6.517,0.015 -13.224,0.03 -20.469,0.063 -77.929,0.3552 -166.128,12.1915 -245.594,23.5 -79.463,11.3079 -150.254,22.0496 -192.937,20.3124 -10.655,-0.4335 -18.464,-1.7833 -23.125,-3.6874 -2.331,-0.9526 -3.821,-2.0377 -4.562,-3.0313 -0.745,-0.9933 -0.898,-1.8117 -0.5,-3 0.791,-2.3769 4.614,-6.0088 11.781,-9.7813 7.165,-3.7723 17.562,-7.8213 31.281,-11.875 38.82,-11.4697 104.168,-22.9951 198.5,-29.375 -11.568,-0.023 -23.812,-0.077 -36.594,-0.1562 z m -893.375,48.625 c 0.787,0.1347 1.619,0.2796 1.875,0.3438 0.07,0.019 0.1,0.039 0.125,0.062 0.04,0.026 0.04,0.061 0,0.094 -0.07,0.1066 -0.427,0.2336 -0.969,0.4062 -0.325,0.104 -0.687,0.221 -1.156,0.3438 -0.188,0.049 -4.74,0.8764 -8.281,1.5312 334.995,8.3138 625.151,71.2188 790.906,71.2188 127.482,0 214.566,-18.585 283.813,-33.3438 45.339,-9.6629 82.983,-17.6715 119.375,-17.8124 l -0.03,-3 c -36.777,0.1436 -74.655,8.217 -119.969,17.875 -69.248,14.759 -155.996,33.2812 -283.188,33.2812 -163.625,0 -450.665,-61.8649 -782.5,-71 z m 13.625,40.0312 c -14.587,0.05 -28.567,0.3616 -41.875,0.9376 l 0,3.0312 c 18.045,-0.8068 37.354,-1.1054 57.719,-0.9375 85.69,0.7064 189.876,9.3668 295.031,21.0313 115.277,12.7871 230.869,29.0708 325.5,42.5624 l 21.407,0 c -98.071,-13.9942 -222.649,-31.814 -346.594,-45.5624 -105.209,-11.6706 -209.441,-20.3234 -295.313,-21.0313 -5.367,-0.044 -10.656,-0.049 -15.875,-0.031 z m -2.281,19.6876 c -2.867,-0.011 -5.692,0 -8.469,0.031 -6.982,0.083 -13.646,0.3309 -20,0.7188 l 2.25,0.9374 -4.937,2.3126 c 16.98,-1.2184 36.618,-1.2558 57.937,-0.3438 49.494,2.1177 108.128,9.1757 164.313,17.6562 55.038,8.3077 107.578,17.9373 146.937,25.625 l 15.406,0 c -40.474,-8.0601 -99.619,-19.1652 -161.874,-28.5624 -56.248,-8.4901 -114.979,-15.5936 -164.657,-17.7188 -9.314,-0.3986 -18.306,-0.6235 -26.906,-0.6562 z m 1163.813,5.0937 c -11.357,1.143 -25.253,3.077 -42.188,6.1875 -33.535,6.1593 -79.48,22.0625 -130.625,35.6562 l 11.406,0 c 46.98,-12.9096 88.952,-27.0309 119.75,-32.6874 20.815,-3.8232 36.98,-5.836 49.438,-6.8126 l -7.781,-2.3437 z"
             style="color:#000000;fill:#6b3e25;fill-opacity:1;fill-rule:nonzero;stroke:none;stroke-width:12;marker:none;visibility:visible;display:inline;overflow:visible;enable-background:accumulate" />
          <path
             inkscape:connector-curvature="0"
             id="path20240"
             transform="matrix(0.26458334,0,0,0.26458334,17.212152,-18.855242)"
             d="m 22610.062,3736.2188 c -12.493,1.5841 -57.553,2.8673 -74.343,3.4374 -21.251,0.7205 -145.873,0.5897 -219.375,-1.4374 0,0 -234.156,0.5312 -245.156,0.5312 -4.296,0 -16.078,-0.2786 -29.063,-0.5312 l -42.344,0 c -1.841,0.1341 -21.124,0.2967 -21.593,0.5312 -4.001,2 -41,5 -41,5 0,0 -146.302,-5.5312 -217.094,-5.5312 l -173.032,0 -37.281,28.875 0,16.5312 5.157,1.3438 c 0.04,0.011 0.08,0.027 0.124,0.031 7.04,1.0687 21.888,3.314 22.25,3.375 1.335,0.2226 2.24,0.3799 2.594,0.4688 0.07,0.019 0.1,0.039 0.125,0.062 0.04,0.027 0.04,0.061 0,0.094 -0.07,0.1066 -0.426,0.2336 -0.969,0.4062 -0.325,0.1041 -0.687,0.221 -1.156,0.3438 -0.587,0.1538 -24.962,4.6179 -26.781,4.9375 -0.426,0.9779 -0.858,1.9643 -1.344,3.0313 l 0,46.625 13.375,5.5624 -13.375,6.2813 0,38.9687 83.281,0 c 5.417,-0.6218 8.523,-1.1316 7.626,-1.2812 -4.245,-0.7071 -86.25,-3.9062 -86.25,-3.9062 0,0 -1.073,-21.9216 -0.719,-24.75 0.353,-2.8287 -1.06,-5.2831 1.062,-6.3438 2.121,-1.0607 25.461,-10.2714 21.219,-10.625 -4.243,-0.3536 -23.677,-5.3044 -24.031,-6.7188 -0.353,-1.4142 1.043,-36.4117 1.75,-39.5937 0.707,-3.182 38.535,-11.6698 35,-13.4375 -3.536,-1.7678 -21.574,-3.1616 -22.281,-6.3438 -0.709,-3.182 -7.072,-8.1403 -6.719,-10.9687 0.354,-2.8285 7.071,-3.8762 12.375,-10.5937 5.303,-6.7178 16.633,-14.8572 20.875,-16.625 4.243,-1.7679 334.1,5.2963 344,8.125 9.899,2.8284 60.121,-0.6992 63.656,-1.4063 3.536,-0.7071 15.541,-2.8437 27.563,-2.8437 12.021,0 380.424,-4.2231 391.031,-0.6876 10.606,3.5358 163.781,-3.7812 175.781,-2.7812 12,1 48,-6 53,-7 5,-1 55.483,1.9804 63.969,2.6875 8.485,0.7071 19.431,6.3866 21.906,7.0937 2.475,0.7073 19.117,13.4197 20.531,15.1876 1.414,1.7678 5.301,9.5661 4.594,11.6874 -0.707,2.1215 1.393,10.9492 -1.438,11.6563 -2.828,0.7072 -9.531,10.5937 -9.531,10.5937 0,0 6.359,1.0619 9.188,6.7188 2.828,5.6568 3.885,11.6635 3.531,15.9062 -0.353,4.2428 1.062,23 1.062,23 l -5.656,5.6563 -39.937,4.5937 8,-0.125 c -0.323,-0.1521 0.906,-0.25 0.906,-0.25 l 31.563,-1.5 7.25,-3.3124 -0.25,-38.9688 -3.376,-16.25 3.219,-10.9062 0,-0.031 -0.09,-13.7187 -27.876,-28.875 -85.5,-2 z m 97.469,116.4687 c 3.789,1.282 14.243,5.5809 13.938,6.3437 -0.353,0.8841 1.238,30.4285 0,31.3126 -1.237,0.8838 -57.447,4.417 -56.031,4.5937 0.05,0.01 0.186,0.087 0.406,0.2187 l 58.281,0 -0.125,-38.5937 -12.688,-3.8125 -3.781,-0.062 z"
             style="color:#000000;fill:#a5613c;fill-opacity:1;fill-rule:nonzero;stroke:none;stroke-width:12;marker:none;visibility:visible;display:inline;overflow:visible;enable-background:accumulate"
             sodipodi:nodetypes="cccsccccsccccccccccccccccccccccccscccccscscssscccccccccccccccccccccccccccccccc" />
          <path
             sodipodi:nodetypes="ccsccccc"
             inkscape:connector-curvature="0"
             id="path20242"
             transform="matrix(0.26458334,0,0,0.26458334,17.212152,-18.855242)"
             d="m 21994.125,3896.1572 c -1.776,0.024 -3.813,8.8949 -3.813,0.25 -12.021,2.1213 -66.454,2.1017 -82.718,0.6875 -16.263,-1.4142 -171.839,-6.3956 -181.032,-5.6885 -7.061,0.5433 -27.807,2.3058 -46.062,3.75 l 501.375,0 c -10.045,-1.0555 -18.185,-1.6133 -20.437,-0.9374 -6.63,1.9888 -140.68,1.581 -167.313,1.9384 z"
             style="opacity:0.31858407;color:#000000;fill:#a5613c;fill-opacity:1;fill-rule:nonzero;stroke:none;stroke-width:12;marker:none;visibility:visible;display:inline;overflow:visible;enable-background:accumulate" />
        </g>
        <path
           transform="matrix(0.26458334,0,0,0.26458334,-6.3049604e-6,18.562493)"
           inkscape:connector-curvature="0"
           id="path20244"
           d="m 21507.5,3783.8622 c 2.75,0.5 27.25,4.75 29.75,5 2.5,0.25 -28.75,-9.25 -29.5,-8.25 -0.75,1 -0.25,3.25 -0.25,3.25 z"
           style="color:#000000;fill:#3b2213;fill-opacity:1;fill-rule:nonzero;stroke:none;stroke-width:3;marker:none;visibility:visible;display:inline;overflow:visible;enable-background:accumulate" />
        <path
           transform="matrix(0.26458334,0,0,0.26458334,-6.3049604e-6,18.562493)"
           inkscape:connector-curvature="0"
           id="path20246"
           d="m 21508.5,3801.1122 c 1,-3.25 2.25,-5.75 2.25,-5.75 0,0 17.5,-4 16,-3.75 -1.5,0.25 -19.5,0.5 -19.5,1.75 0,1.25 1.25,7.75 1.25,7.75 z"
           style="color:#000000;fill:#3b2213;fill-opacity:1;fill-rule:nonzero;stroke:none;stroke-width:3;marker:none;visibility:visible;display:inline;overflow:visible;enable-background:accumulate" />
        <path
           transform="matrix(0.26458334,0,0,0.26458334,-6.3049604e-6,18.562493)"
           inkscape:connector-curvature="0"
           id="path20248"
           d="m 21506.75,3846.3622 c 3.75,1 13.25,2 13.25,2 l -12.75,-7 z"
           style="color:#000000;fill:#3b2213;fill-opacity:1;fill-rule:nonzero;stroke:none;stroke-width:3;marker:none;visibility:visible;display:inline;overflow:visible;enable-background:accumulate" />
        <path
           transform="matrix(0.26458334,0,0,0.26458334,-6.3049604e-6,18.562493)"
           inkscape:connector-curvature="0"
           id="path20250"
           d="m 21718.078,3895.6386 c 26.87,-4.2427 241.123,-5.6569 251.73,-4.9498 10.606,0.7071 141.421,4.9498 141.421,4.9498 0,0 -321.026,8.4852 -335.169,8.4852 -14.142,0 -57.982,-8.4852 -57.982,-8.4852 z"
           style="color:#000000;fill:#6b3e25;fill-opacity:1;fill-rule:nonzero;stroke:none;stroke-width:3;marker:none;visibility:visible;display:inline;overflow:visible;enable-background:accumulate" />
      </g>
      <g
         id="g20274"
         transform="matrix(-2.0566098,0,0,2.0544403,13719.872,-629.7363)">
        <g
           id="g20276">
          <path
             style="color:#000000;fill:#5a331d;fill-opacity:1;fill-rule:nonzero;stroke:#3b2213;stroke-width:12.16224194;stroke-linejoin:round;stroke-miterlimit:4;stroke-opacity:1;stroke-dasharray:none;marker:none;visibility:visible;display:inline;overflow:visible;enable-background:accumulate"
             d="m 21682.188,2840.75 0.06,7.7812 12.75,3.8438 -12.688,5.8125 0.219,38.5937 3.469,16.5938 -3.281,11.1562 0.156,24.5 27.875,28.875 85.5,2 c 12.494,-1.5841 37.741,-0.056 54.531,-0.625 21.251,-0.7203 165.685,-3.4021 239.188,-1.375 l 120.843,0 c 38.452,-2.8179 308.586,-3.5312 312.188,-3.5312 9,0 108,3 119,3 4.295,0 16.078,0.2786 29.062,0.5312 l 42.344,0 c 1.841,-0.1341 21.125,-0.2967 21.594,-0.5312 4,-2 41,-5 41,-5 0,0 30.447,2.3903 50.219,5.5312 l 33.031,0 37.281,-28.875 0,-28.0937 c -11.56,-1.7026 -28.123,-4.156 -30.125,-4.6563 -2.124,-0.5312 17.324,-4.2452 30.125,-6.0624 l 0.75,-48.7188 c -4.403,-0.6964 -14.164,-3.6607 -13.469,-6.0938 0.87,-3.0425 9.917,-4.5738 12.719,-6.4687 l 0,-8.1875 z"
             transform="matrix(0.26458334,0,0,0.26458334,-6.3049604e-6,18.562493)"
             id="path20278"
             inkscape:connector-curvature="0"
             sodipodi:nodetypes="ccccccccccsccssccscccccccccccc" />
          <path
             style="color:#000000;fill:#3b2213;fill-opacity:1;fill-rule:nonzero;stroke:#3b2213;stroke-width:12;stroke-linejoin:round;stroke-opacity:1;marker:none;visibility:visible;display:inline;overflow:visible;enable-background:accumulate"
             d="m 21682.188,2829.75 0.561,18.1433 25.354,0.7199 -25.432,48.2463 3.818,16.0015 -4.153,11.2635 0.539,13.9067 27.875,28.875 85.5,2 c 12.494,-1.5842 37.741,-0.056 54.531,-0.625 21.251,-0.7203 165.685,-3.4021 239.188,-1.375 l 120.843,0 c 38.453,-2.8179 308.586,-3.5312 312.188,-3.5312 9,0 108,3 119,3 4.295,0 16.077,0.2786 29.062,0.5312 l 42.344,0 c 1.841,-0.1342 21.125,-0.2966 21.594,-0.5312 4,-2 41,-5 41,-5 0,0 30.447,2.3902 50.219,5.5312 l 33.031,0 37.281,-28.875 0,-16.4374 c -10.889,-1.8265 -23.522,-3.9968 -24.781,-4.4688 -1.609,-0.6034 9.479,-4.5893 24.781,-8.3438 l 0,-35.5624 c -3.385,-0.949 -6.281,-10.8438 -6.281,-10.8438 0,0 2.544,-6.3492 6.281,-14.9062 l 0,-17.7188 -149.999,9.9426 -739.517,-1.1204 z"
             transform="matrix(0.26458334,0,0,0.26458334,-6.3049604e-6,18.562493)"
             id="path20280"
             inkscape:connector-curvature="0"
             sodipodi:nodetypes="cccccccccsccssccccccccccccccccc" />
          <path
             style="color:#000000;fill:#5a331d;fill-opacity:1;fill-rule:nonzero;stroke:none;stroke-width:12;marker:none;visibility:visible;display:inline;overflow:visible;enable-background:accumulate"
             d="m 21682.188,2840.75 0.06,7.7812 12.75,3.8438 -12.688,5.8125 0.219,38.5937 3.469,16.5938 -3.281,11.1562 0.156,24.5 27.875,28.875 85.5,2 c 12.494,-1.5841 37.741,-0.056 54.531,-0.625 21.251,-0.7203 165.685,-3.4021 239.188,-1.375 l 120.843,0 c 38.452,-2.8179 308.586,-3.5312 312.188,-3.5312 9,0 108,3 119,3 4.295,0 16.078,0.2786 29.062,0.5312 l 42.344,0 c 1.841,-0.1341 21.125,-0.2967 21.594,-0.5312 4,-2 41,-5 41,-5 0,0 30.447,2.3903 50.219,5.5312 l 33.031,0 37.281,-28.875 0,-28.0937 c -11.56,-1.7026 -28.123,-4.156 -30.125,-4.6563 -2.124,-0.5312 17.324,-4.2452 30.125,-6.0624 l 0,-49.4688 c -4.403,-0.6964 -8.164,-1.4107 -7.469,-3.8438 0.87,-3.0425 4.667,-6.0738 7.469,-7.9687 l 0,-8.1875 -1214.343,0 z"
             transform="matrix(0.26458334,0,0,0.26458334,-6.3049604e-6,18.562493)"
             id="path20282"
             inkscape:connector-curvature="0" />
          <path
             style="color:#000000;fill:#5a331d;fill-opacity:1;fill-rule:nonzero;stroke:none;stroke-width:12;marker:none;visibility:visible;display:inline;overflow:visible;enable-background:accumulate"
             d="m 21686.25,2924.7812 c -1.374,4.3109 -2.497,8.7574 -3.438,13.2188 l 0.06,11.0312 26.813,27.7813 c 1.496,-12.1342 6.202,-27.9678 4.156,-32.9375 -2.475,-6.0104 -3.178,-8.1305 -9.188,-11.3125 -6.011,-3.182 -18.406,-7.7813 -18.406,-7.7813 z"
             transform="matrix(0.26458334,0,0,0.26458334,-6.3049604e-6,18.562493)"
             id="path20284"
             inkscape:connector-curvature="0" />
          <path
             style="color:#000000;fill:#5a331d;fill-opacity:1;fill-rule:nonzero;stroke:none;stroke-width:12;marker:none;visibility:visible;display:inline;overflow:visible;enable-background:accumulate"
             d="m 22760.031,2931.3125 c -10.821,0.046 -27.25,4.7813 -27.25,4.7813 0,0 -0.905,18.6853 0.563,41.4062 0.894,-0.034 1.581,-0.087 1.656,-0.125 4,-2 41,-5 41,-5 0,0 1.58,0.1277 2.312,0.1875 -1.576,-7.3299 -3.485,-14.99 -4.531,-22.3125 -2.121,-14.8493 -0.694,-9.2101 -4.937,-16.2812 -1.193,-1.9889 -4.578,-2.6742 -8.813,-2.6563 z m 121.781,0.4687 c -0.473,0.01 -0.895,0.018 -1.25,0.063 -5.657,0.7071 -23.343,9.1874 -23.343,9.1874 1.452,12.4915 1.832,25.5951 1.969,36.875 l 0.06,0 37.281,-28.875 0,-15.0937 c -6.042,-1.4405 -11.605,-2.196 -14.719,-2.1563 z"
             transform="matrix(0.26458334,0,0,0.26458334,-6.3049604e-6,18.562493)"
             id="path20286"
             inkscape:connector-curvature="0" />
          <path
             sodipodi:nodetypes="cccccccccccccccccssccccccccccccccccccccccc"
             inkscape:connector-curvature="0"
             id="path20288"
             d="m 21682.188,2829.75 0.124,18.8125 12.688,3.8125 12.106,0.1885 c 20.561,0.1196 28.206,0.7803 28.206,0.7803 l -45.687,1.5 -7.25,3.3124 0.25,38.9688 3.375,16.25 -3.219,10.9062 0,0.031 0.09,13.7187 27.875,28.875 85.5,2 c 12.494,-1.5842 37.741,-0.055 54.531,-0.625 21.251,-0.7203 165.685,-3.4021 239.188,-1.375 l 120.843,0 c 38.456,-2.8179 308.586,-3.5312 312.188,-3.5312 9,0 108,3 119,3 4.295,0 16.077,0.2786 29.062,0.5312 l 42.344,0 c 1.841,-0.1342 21.125,-0.2966 21.594,-0.5312 4,-2 41,-5 41,-5 0,0 30.447,2.3902 50.219,5.5312 l 33.031,0 37.281,-28.875 0,-16.5312 -5.156,-1.3438 c -0.04,-0.01 -0.08,-0.025 -0.125,-0.031 -7.039,-1.0687 -21.888,-3.314 -22.25,-3.375 -1.334,-0.2227 -2.24,-0.3801 -2.594,-0.4688 -0.07,-0.017 -0.1,-0.039 -0.125,-0.062 -0.03,-0.026 -0.02,-0.061 0,-0.094 0.07,-0.1066 0.427,-0.2334 0.969,-0.4062 0.326,-0.1038 0.687,-0.2211 1.156,-0.3438 0.588,-0.1539 24.963,-4.6179 26.782,-4.9375 0.426,-0.9779 0.857,-1.9645 1.343,-3.0313 l 0,-46.625 -13.375,-5.5624 13.375,-6.2813 0,-19.1875 z"
             style="color:#000000;fill:#7f4a2c;fill-opacity:1;fill-rule:nonzero;stroke:none;stroke-width:12;marker:none;visibility:visible;display:inline;overflow:visible;enable-background:accumulate"
             transform="matrix(0.26458334,0,0,0.26458334,-6.3049604e-6,18.562493)" />
          <path
             style="color:#000000;fill:#774321;fill-opacity:1;fill-rule:nonzero;stroke:none;stroke-width:12;marker:none;visibility:visible;display:inline;overflow:visible;enable-background:accumulate"
             d="m 22882.948,2855.3961 c 0.53,-0.1768 6.717,-3.5355 7.159,-3.4472 0.442,0.088 5.922,-1.2374 5.834,-0.7955 -0.09,0.442 -1.149,7.4247 -1.591,7.1595 -0.442,-0.2652 -11.402,-2.9168 -11.402,-2.9168 z"
             id="path20290"
             inkscape:connector-curvature="0"
             transform="matrix(0.26458334,0,0,0.26458334,-6.3049604e-6,18.562493)" />
          <path
             style="color:#000000;fill:#774321;fill-opacity:1;fill-rule:nonzero;stroke:none;stroke-width:12;marker:none;visibility:visible;display:inline;overflow:visible;enable-background:accumulate"
             d="m 22866.25,2916.1122 c 1,-0.25 30,-6.5 30,-6.5 l -4.75,9.25 z"
             id="path20292"
             inkscape:connector-curvature="0"
             transform="matrix(0.26458334,0,0,0.26458334,-6.3049604e-6,18.562493)" />
          <path
             sodipodi:nodetypes="cccccccccccsscscsccssc"
             inkscape:connector-curvature="0"
             style="color:#000000;fill:#a5613c;fill-opacity:1;fill-rule:nonzero;stroke:none;stroke-width:12;marker:none;visibility:visible;display:inline;overflow:visible;enable-background:accumulate"
             d="m 21682.75,2897.7188 3.25,15.6562 -3.219,10.9062 0,0.031 0.09,13.7187 27.875,28.875 85.5,2 c 12.494,-1.5842 37.741,-0.055 54.531,-0.625 21.251,-0.7203 165.685,-3.4021 239.188,-1.375 l 120.843,0 c 23.113,-1.6936 140.126,-0.8507 211.844,-3.0937 -2.865,-0.905 -74.887,-3.6642 -97.868,-4.7249 -6.039,-0.2787 -41.345,3.186 -76.741,3.8629 -49.046,0.9379 -101.842,-0.8746 -109.235,-2.1067 -12.728,-2.1214 -75.664,-1.4259 -99,-0.7188 -23.334,0.7071 -233.35,5.6679 -237.593,6.375 -4.242,0.7071 -14.148,-0.7188 -21.219,-0.7188 -7.071,0 -62.933,-5.6446 -66.469,-4.9374 -3.535,0.7071 -23.327,-22.6207 -26.156,-26.1563 -2.828,-3.5355 -2.832,-4.2457 -2.125,-7.7813 0.707,-3.5356 3.531,-10.6206 3.531,-14.1562 0,-2.1892 -3.081,-7.8462 -7.031,-15.0312 z"
             transform="matrix(0.26458334,0,0,0.26458334,-6.3049604e-6,18.562493)"
             id="path20294" />
          <path
             id="path20298"
             transform="matrix(0.26458334,0,0,0.26458334,-6.3049604e-6,18.562493)"
             d="m 21682.188,2829.75 0.124,18.8125 4,1.1875 -0.124,-18 1205.406,0 0,19.1875 -13.282,6.2813 13.282,5.5624 0,46.625 c -0.293,0.6485 -0.549,1.2387 -0.813,1.8438 1.246,-0.2268 4.114,-0.7616 4.407,-0.8125 0.426,-0.9779 0.857,-1.9642 1.343,-3.0313 l 0,-46.625 -13.375,-5.5624 13.375,-6.2813 0,-19.1875 -1214.343,0 z m 17.531,22 c -1.165,-0.01 -1.88,0.01 -1.969,0.031 -0.241,0.06 -1.123,0.664 -2.125,1.3438 19.631,0.1144 39.687,0.2188 39.687,0.2188 0,0 -27.438,-1.5431 -35.593,-1.5938 z m 35.593,1.5938 -45.687,1.5 -7.25,3.3124 0.25,38.9688 3.375,16.25 -3.219,10.9062 0,0.031 0.09,13.7187 27.875,28.875 1.906,0.031 -25.781,-26.9063 -0.09,-13.7187 0,-0.031 3.188,-10.9062 -3.344,-16.25 -0.25,-38.9688 7.313,-3.375 c 1.839,-0.7276 3.343,-1.2812 3.343,-1.2812 l 38.281,-2.1562 z m -41.374,-0.4688 -0.5,0.2188 c 0.644,0 0.664,0 1.312,0 l -0.812,-0.2188 z m 1174.031,63.6875 c -1.212,0.2289 -4.215,0.7867 -4.313,0.8125 -0.465,0.1228 -0.8,0.2399 -1.125,0.3438 -0.538,0.1726 -0.894,0.2996 -0.969,0.4062 -0.04,0.033 -0.04,0.067 0,0.094 0.03,0.023 0.05,0.044 0.126,0.062 0.35,0.089 1.238,0.2462 2.562,0.4688 0.359,0.061 15.107,2.3063 22.094,3.375 0.04,0 0.09,0.024 0.125,0.031 l 5.125,1.3438 0,16.5312 -34.438,26.875 2.094,0 37.281,-28.875 0,-16.5312 -5.156,-1.3438 c -0.04,-0.01 -0.08,-0.025 -0.125,-0.031 -7.039,-1.0687 -21.888,-3.314 -22.25,-3.375 -0.53,-0.089 -0.644,-0.1198 -1.031,-0.1875 z"
             style="color:#000000;fill:#a5613c;fill-opacity:1;fill-rule:nonzero;stroke:none;stroke-width:12;marker:none;visibility:visible;display:inline;overflow:visible;enable-background:accumulate"
             inkscape:connector-curvature="0" />
          <path
             id="path20300"
             transform="matrix(0.26458334,0,0,0.26458334,-6.3049604e-6,18.562493)"
             d="m 22063.125,2832.2188 c -63.569,10.4242 -128.416,15.9802 -186.406,18.625 -52.273,2.3841 -98.963,2.4103 -134.188,1.5937 -29.076,-0.6743 -50.303,-1.9518 -60.219,-2.9375 l 0,1.5312 6.813,2.0313 c 21.867,0.1269 46.187,0.2813 46.187,0.2813 l -38.531,1.25 c 11.397,0.71 26.665,1.4034 45.657,1.8437 35.307,0.8184 82.089,0.7639 134.468,-1.625 65.054,-2.9671 138.709,-9.5439 209.656,-22.5937 l -23.437,0 z m 304.375,0 c -62.154,3.7461 -122.613,8.5283 -177.719,14.625 -153.441,16.976 -285.274,25.0523 -378.812,29.2187 -46.769,2.083 -83.964,3.1835 -109.5,3.9375 -7.433,0.2196 -13.562,0.3895 -18.969,0.5625 l 0.03,4 c 5.417,-0.1742 11.549,-0.3415 19.031,-0.5625 25.539,-0.754 62.763,-1.8531 109.563,-3.9375 93.601,-4.1692 225.541,-12.2619 379.094,-29.25 77.006,-8.5198 164.498,-14.4599 252.531,-18.5937 l -75.25,0 z m 378.906,9.25 c -176.397,0.061 -293.447,9.8265 -412.968,21.5937 -161.31,15.8807 -327.267,35.4062 -650.188,39.5625 l 0.844,3.9688 c 322.555,-4.1794 488.623,-23.6686 649.75,-39.5313 150.445,-14.8115 296.773,-26.4439 562.687,-19.5313 l 0,-4 c -47.898,-1.2419 -92,-1.9012 -132.875,-2.0312 -5.816,-0.019 -11.56,-0.035 -17.25,-0.031 z m 143.844,12.875 c -118.112,2.5827 -304.76,10.7281 -510.938,23.25 -14.401,0.8746 -23.583,1.732 -28.406,2.625 -1.205,0.2229 -2.134,0.4392 -2.906,0.7187 -0.386,0.1395 -0.744,0.271 -1.125,0.5313 -0.381,0.26 -0.935,0.6992 -1.094,1.625 -0.158,0.9257 0.385,1.7973 0.781,2.1562 0.402,0.3591 0.731,0.504 1.094,0.6562 0.726,0.3043 1.557,0.5015 2.625,0.7188 8.542,1.7401 32.358,3.2515 67.719,4.6875 70.722,2.8717 186.595,5.2512 309.875,6.8125 55.906,0.7082 113.233,1.2304 168.656,1.5625 l 0,-4 c -55.403,-0.3322 -112.712,-0.8547 -168.593,-1.5625 -123.261,-1.5612 -239.147,-3.9443 -309.782,-6.8125 -29.409,-1.1943 -50.468,-2.5204 -61.25,-3.8125 5.105,-0.6222 11.986,-1.26 22.625,-1.9062 203.002,-12.3291 387.228,-20.4154 505.5,-23.125 l -1.875,-0.7813 7.094,-3.3437 z m -1204.25,61.5312 -1.188,4 c 369.181,1.5968 679.397,2.0978 898.438,1.75 110.509,-0.1754 197.873,-0.5693 257.969,-1.1562 12.588,-0.1229 23.281,-0.2711 33.437,-0.4063 -1.597,-0.2426 -5.564,-0.8283 -5.656,-0.8437 -1.334,-0.2227 -2.24,-0.3801 -2.594,-0.4688 -0.07,-0.015 -0.1,-0.039 -0.125,-0.062 -0.04,-0.026 -0.04,-0.061 0,-0.094 0.07,-0.1066 0.427,-0.2337 0.969,-0.4063 0.325,-0.1039 0.687,-0.2209 1.156,-0.3437 0.223,-0.058 5.241,-0.9865 9.719,-1.8126 -10.946,0.1516 -23.043,0.3016 -36.969,0.4376 -60.075,0.5867 -147.403,0.9808 -257.906,1.1562 -218.79,0.3473 -528.609,-0.1576 -897.25,-1.75 z m 1210.531,18.5938 c -103.45,0.9973 -376.947,4.6427 -642,8.75 -153.69,2.3815 -304.21,4.9078 -416.375,7.1562 -56.082,1.1244 -102.55,2.1647 -135.062,3.0938 -2.8,0.08 -4.879,0.171 -7.469,0.25 l 3.75,3.875 c 1.375,-0.04 2.373,-0.084 3.813,-0.125 32.487,-0.9285 78.985,-1.9694 135.062,-3.0938 112.153,-2.2481 262.657,-4.7747 416.344,-7.1562 264.997,-4.1065 538.537,-7.7518 641.937,-8.75 l 0,-4 z"
             style="color:#000000;fill:#8d5231;fill-opacity:1;fill-rule:nonzero;stroke:none;stroke-width:12;marker:none;visibility:visible;display:inline;overflow:visible;enable-background:accumulate"
             inkscape:connector-curvature="0" />
          <path
             id="path20302"
             transform="matrix(0.26458334,0,0,0.26458334,-6.3049604e-6,18.562493)"
             d="m 22063.125,2829.75 c -63.569,10.4242 -128.416,15.9802 -186.406,18.625 -52.273,2.3841 -98.963,2.4104 -134.188,1.5938 -29.076,-0.6744 -50.303,-1.9518 -60.219,-2.9376 l 0,1.5313 11.219,3.375 c 6.917,0.4635 15.779,0.9138 26.031,1.3125 5.114,0.03 15.75,0.094 15.75,0.094 l -7.093,0.2187 c 4.501,0.1457 9.22,0.2904 14.219,0.4063 35.308,0.8184 82.089,0.7639 134.468,-1.625 65.054,-2.9672 138.708,-9.544 209.656,-22.5938 l -23.437,0 z m 304.375,0 c -62.154,3.7461 -122.613,8.5284 -177.719,14.625 -153.441,16.976 -285.274,25.0523 -378.812,29.2188 -46.769,2.083 -83.964,3.1834 -109.5,3.9374 -7.433,0.2197 -13.562,0.3895 -18.969,0.5626 l 0.03,4 c 5.417,-0.1743 11.549,-0.3414 19.031,-0.5626 25.54,-0.754 62.763,-1.853 109.563,-3.9374 93.601,-4.1693 225.541,-12.2619 379.094,-29.25 77.007,-8.5199 164.498,-14.4599 252.531,-18.5938 l -75.25,0 z m 378.906,9.25 c -176.397,0.061 -293.446,9.8265 -412.968,21.5938 -161.31,15.8807 -327.267,35.4061 -650.188,39.5624 l 0.844,3.9688 c 322.555,-4.1793 488.623,-23.6685 649.75,-39.5312 150.445,-14.8116 296.772,-26.4439 562.687,-19.5313 l 0,-4 c -47.898,-1.2419 -92,-1.9012 -132.875,-2.0313 -5.816,-0.018 -11.56,-0.033 -17.25,-0.031 z m 143.844,12.875 c -118.112,2.5827 -304.76,10.7282 -510.938,23.25 -14.401,0.8747 -23.583,1.732 -28.406,2.625 -1.205,0.223 -2.134,0.4392 -2.906,0.7188 -0.386,0.1394 -0.744,0.271 -1.125,0.5312 -0.381,0.26 -0.935,0.6992 -1.094,1.625 -0.158,0.9258 0.384,1.7973 0.781,2.1562 0.402,0.3593 0.731,0.5041 1.094,0.6563 0.726,0.3043 1.557,0.5014 2.625,0.7187 8.542,1.7402 32.358,3.2515 67.719,4.6876 70.722,2.8717 186.595,5.2511 309.875,6.8124 55.906,0.7083 113.232,1.2304 168.656,1.5626 l 0,-4 c -55.403,-0.3322 -112.712,-0.8547 -168.593,-1.5626 -123.262,-1.5612 -239.147,-3.9442 -309.782,-6.8124 -29.409,-1.1944 -50.468,-2.5204 -61.25,-3.8126 5.105,-0.6222 11.986,-1.26 22.625,-1.9062 203.002,-12.3291 387.228,-20.4153 505.5,-23.125 l -1.875,-0.7812 7.094,-3.3438 z m -1204.25,61.5312 -1.188,4 c 369.181,1.5969 679.397,2.0979 898.438,1.75 110.509,-0.1753 197.873,-0.5692 257.969,-1.1562 12.588,-0.123 23.281,-0.271 33.437,-0.4062 -1.597,-0.2426 -5.564,-0.8283 -5.656,-0.8438 -1.334,-0.2227 -2.24,-0.38 -2.594,-0.4688 -0.07,-0.017 -0.1,-0.039 -0.125,-0.062 -0.03,-0.026 -0.02,-0.061 0,-0.094 0.07,-0.1066 0.427,-0.2334 0.969,-0.4062 0.326,-0.1039 0.687,-0.2211 1.156,-0.3438 0.221,-0.058 5.241,-0.9865 9.719,-1.8125 -10.946,0.1516 -23.044,0.3015 -36.969,0.4375 -60.075,0.5868 -147.403,0.9808 -257.906,1.1562 -218.79,0.3474 -528.609,-0.1574 -897.25,-1.75 z M 22896.531,2932 c -103.45,0.9974 -376.947,4.6427 -642,8.75 -153.69,2.3816 -304.21,4.9078 -416.375,7.1562 -56.082,1.1245 -102.55,2.1648 -135.062,3.0938 -2.8,0.08 -4.879,0.171 -7.469,0.25 l 3.75,3.875 c 1.375,-0.04 2.373,-0.084 3.813,-0.125 32.488,-0.9284 78.985,-1.9693 135.062,-3.0938 112.153,-2.2481 262.657,-4.7747 416.344,-7.1562 264.997,-4.1065 538.536,-7.7518 641.937,-8.75 l 0,-4 z"
             style="color:#000000;fill:#6b3e25;fill-opacity:1;fill-rule:nonzero;stroke:none;stroke-width:12;marker:none;visibility:visible;display:inline;overflow:visible;enable-background:accumulate"
             inkscape:connector-curvature="0" />
          <path
             style="color:#000000;fill:#a5613c;fill-opacity:1;fill-rule:nonzero;stroke:none;stroke-width:12;marker:none;visibility:visible;display:inline;overflow:visible;enable-background:accumulate"
             d="m 22896.531,2847.75 c -6.935,2.2855 -15.632,7.3144 -17.375,7.75 -2.828,0.7071 10.59,5.6286 14.125,7.75 3.536,2.1213 -1.406,44.5625 -1.406,44.5625 0,0 -2.826,1.3983 -11.313,2.8125 -8.485,1.4142 -25.442,5.6716 -21.906,8.5 3.535,2.8284 34.625,6.375 34.625,6.375 l -2.125,11.3125 c 0,0 -18.362,16.2457 -23.312,19.7813 -4.949,3.5356 -9.906,5.6758 -15.563,4.9687 -5.657,-0.7071 -59.397,-8.5116 -66.469,-9.2187 -7.071,-0.7072 -47.385,8.5036 -53.75,10.625 -2.072,0.6908 -6.949,2.1413 -13.937,3.8437 6.294,-0.1113 16.533,-0.2666 16.875,-0.4375 4,-2 41,-5 41,-5 0,0 30.447,2.3902 50.219,5.5312 l 33.031,0 37.281,-28.875 0,-16.5312 -5.156,-1.3438 c -0.04,-0.01 -0.08,-0.025 -0.125,-0.031 -7.039,-1.0687 -21.888,-3.314 -22.25,-3.375 -1.334,-0.2227 -2.24,-0.3801 -2.594,-0.4688 -0.07,-0.017 -0.1,-0.039 -0.125,-0.062 -0.03,-0.026 -0.02,-0.061 0,-0.094 0.07,-0.1066 0.427,-0.2334 0.969,-0.4062 0.326,-0.1038 0.687,-0.2211 1.156,-0.3438 0.588,-0.1539 24.963,-4.6179 26.782,-4.9375 0.426,-0.9779 0.857,-1.9645 1.343,-3.0313 l 0,-46.625 -13.375,-5.5624 13.375,-6.2813 0,-1.1875 z"
             transform="matrix(0.26458334,0,0,0.26458334,-6.3049604e-6,18.562493)"
             id="path20296"
             inkscape:connector-curvature="0" />
        </g>
        <path
           transform="matrix(0.26458334,0,0,0.26458334,-6.3049604e-6,18.562493)"
           inkscape:connector-curvature="0"
           id="path20304"
           d="m 22775,2975.8622 c 0,-5 -0.5,-14.5 -0.5,-14.5 0,0 7,-10.5 6,-8 -1,2.5 -2.5,9 -2.5,9 l 3,14 z"
           style="color:#000000;fill:#3b2213;fill-opacity:1;fill-rule:nonzero;stroke:none;stroke-width:12;marker:none;visibility:visible;display:inline;overflow:visible;enable-background:accumulate" />
        <path
           sodipodi:nodetypes="ccccccccc"
           transform="matrix(0.26458334,0,0,0.26458334,-6.3049604e-6,18.562493)"
           inkscape:connector-curvature="0"
           id="path20306"
           d="m 22898.5,2892.8622 c 0,6.5 -1.53,10.1057 -1.53,10.1057 l -5.628,6.2385 -26.155,4.3881 -70.954,2.0303 70.969,0.5 30.025,-3.7323 2.656,-4.2585 z"
           style="color:#000000;fill:#3b2213;fill-opacity:1;fill-rule:nonzero;stroke:none;stroke-width:12;marker:none;visibility:visible;display:inline;overflow:visible;enable-background:accumulate" />
        <path
           transform="matrix(0.26458334,0,0,0.26458334,-6.3049604e-6,18.562493)"
           inkscape:connector-curvature="0"
           id="path20308"
           d="m 22899,2845.3622 -19.5,9 -28.5,1.5 34.5,0.5 16.5,-7.5 z"
           style="color:#000000;fill:#3b2213;fill-opacity:1;fill-rule:nonzero;stroke:none;stroke-width:12;marker:none;visibility:visible;display:inline;overflow:visible;enable-background:accumulate" />
        <path
           transform="matrix(0.26458334,0,0,0.26458334,-6.3049604e-6,18.562493)"
           inkscape:connector-curvature="0"
           id="path20310"
           d="m 21683.783,2911.1691 c 2.121,0.1768 29.168,0.3536 29.168,0.3536 l -29.345,3.3587 z"
           style="color:#000000;fill:#3b2213;fill-opacity:1;fill-rule:nonzero;stroke:none;stroke-width:12;marker:none;visibility:visible;display:inline;overflow:visible;enable-background:accumulate" />
      </g>
    </g>
  </g>
</svg>
