<?xml version="1.0" encoding="UTF-8" standalone="no"?>
<!-- Created with Inkscape (http://www.inkscape.org/) -->

<svg
   xmlns:dc="http://purl.org/dc/elements/1.1/"
   xmlns:cc="http://creativecommons.org/ns#"
   xmlns:rdf="http://www.w3.org/1999/02/22-rdf-syntax-ns#"
   xmlns:svg="http://www.w3.org/2000/svg"
   xmlns="http://www.w3.org/2000/svg"
   xmlns:sodipodi="http://sodipodi.sourceforge.net/DTD/sodipodi-0.dtd"
   xmlns:inkscape="http://www.inkscape.org/namespaces/inkscape"
   width="629.05945"
   height="344.84546"
   viewBox="0 0 166.43864 91.240363"
   version="1.1"
   id="svg23489"
   inkscape:version="0.48.5 r10040"
   sodipodi:docname="panel_light_wood_mobile_vertical.svg">
  <defs
     id="defs23483" />
  <sodipodi:namedview
     id="base"
     pagecolor="#7d848b"
     bordercolor="#666666"
     borderopacity="1.0"
     inkscape:pageopacity="1"
     inkscape:pageshadow="2"
     inkscape:zoom="0.1506769"
     inkscape:cx="-2320.4057"
     inkscape:cy="1206.8681"
     inkscape:document-units="px"
     inkscape:current-layer="layer1"
     showgrid="false"
     inkscape:pagecheckerboard="false"
     showborder="true"
     units="px"
     inkscape:window-width="1920"
     inkscape:window-height="1017"
     inkscape:window-x="-8"
     inkscape:window-y="-8"
     inkscape:window-maximized="1"
     inkscape:showpageshadow="false"
     guidetolerance="28"
     fit-margin-top="25"
     fit-margin-left="25"
     fit-margin-right="25"
     fit-margin-bottom="25">
    <inkscape:grid
       type="xygrid"
       id="grid24034"
       spacingx="1px"
       spacingy="1px"
       empspacing="8"
       visible="true"
       enabled="true"
       snapvisiblegridlinesonly="true"
       originx="-3651.9434px"
       originy="589.64778px" />
  </sodipodi:namedview>
  <metadata
     id="metadata23486">
    <rdf:RDF>
      <cc:Work
         rdf:about="">
        <dc:format>image/svg+xml</dc:format>
        <dc:type
           rdf:resource="http://purl.org/dc/dcmitype/StillImage" />
        <dc:title></dc:title>
        <cc:license
           rdf:resource="" />
        <dc:creator>
          <cc:Agent>
            <dc:title>Robert Brooks</dc:title>
          </cc:Agent>
        </dc:creator>
      </cc:Work>
    </rdf:RDF>
  </metadata>
  <g
     inkscape:label="Layer 1"
     inkscape:groupmode="layer"
     id="layer1"
     transform="translate(-966.24335,-361.77059)">
    <g
       id="g27287"
       transform="translate(-3293.6943,252.50996)">
      <g
         id="g27241"
         transform="matrix(2.0443656,0,0,2.0443656,-8861.9335,-1555.4605)">
        <g
           transform="translate(723.10501,-44.714588)"
           id="g27243">
          <path
             style="color:#000000;fill:#5a331d;fill-opacity:1;fill-rule:nonzero;stroke:#3b2213;stroke-width:3.23551893;stroke-linejoin:round;stroke-miterlimit:4;stroke-opacity:1;stroke-dasharray:none;marker:none;visibility:visible;display:inline;overflow:visible;enable-background:accumulate"
             d="m 5703.7717,863.86494 c -0.3968,0.13229 -3.4559,3.05921 -3.4559,3.45609 l 0,3.96049 0,2.07534 c -0.016,0.28716 -0.021,0.51864 0,0.5705 l 0,0.68627 c 0.062,0.12515 0.067,0.45877 0.058,0.84334 -0.02,0.0427 -0.038,0.0841 -0.058,0.13229 l 0,1.09969 c -0.016,0.2903 -0.021,0.51829 0,0.57052 l 0,10.13099 0,3.33209 0,1.26505 c -0.01,0.0931 0.044,0.23294 0.1405,0.39688 l -0.1405,0.11575 0,2.81945 c -0.066,0.66149 2.9271,3.46651 3.4559,3.45615 l 9.5584,0 44.8704,-0.16536 6.7967,0.16536 3.2824,0 c 0,0 3.6544,-2.92698 3.7205,-3.72073 l -0.074,-3.11711 c 0.042,-0.0806 0.07,-0.15589 0.074,-0.21497 l -0.2479,-8.9073 c 0.083,-0.18338 0.1405,-0.36888 0.1405,-0.52917 0,-0.2999 0.018,-1.4161 0.1074,-2.24896 l -0.041,-2.87734 c 0.011,-0.15436 0.026,-0.31157 0.041,-0.45477 l -0.066,-4.81211 c 0,0 -0.066,-1.92645 -0.1984,-4.57234 0.066,-0.79375 -3.456,-3.45609 -3.456,-3.45609 l -64.5079,2.5e-4 z"
             id="path27245"
             inkscape:connector-curvature="0"
             sodipodi:nodetypes="csccccccccccccccsccccccccscccccccc" />
          <path
             sodipodi:nodetypes="ccccccccccccccccccscccccsscc"
             inkscape:connector-curvature="0"
             id="path27247"
             d="m 5703.7717,867.20044 c -0.3968,0.13229 -3.4559,3.05922 -3.4559,3.45609 l 0,3.9605 c 0.1825,0.3661 -0.072,2.46755 0,2.64583 0.1526,0.38182 0.613,0.717 0.9757,0.9343 -0.3032,-0.0679 -0.6918,0.0254 -0.9757,0.7276 l 0,11.80121 0.926,1.00872 -0.926,0.76893 0,2.81948 c -0.066,0.66146 2.9268,3.45612 3.4559,3.45612 l 9.5584,0 44.8704,-0.16536 6.7967,0.16536 3.2824,0 c 0,0 3.6544,-2.92695 3.7205,-3.7207 l -0.2645,-9.50261 -0.7724,-1.57827 c 0,0 0.9295,-1.02624 0.9295,-1.6877 0,-0.2999 0.018,-1.41607 0.1074,-2.24895 l -0.066,-4.81211 c 0,0 -0.066,-1.92649 -0.1984,-4.57235 0.066,-0.79375 -3.456,-3.45609 -3.456,-3.45609 l -5.7465,0 c -1.2306,0.1688 -2.4109,0.27284 -3.1419,0.27284 -1.1907,0 -44.7879,-0.26459 -45.3171,-0.26459 -0.2688,0 -3.5613,0.26033 -4.9361,-0.008 z"
             style="color:#000000;fill:#5a331d;fill-opacity:1;fill-rule:nonzero;stroke:none;stroke-width:0.88834655;marker:none;visibility:visible;display:inline;overflow:visible;enable-background:accumulate" />
          <path
             style="color:#000000;fill:#7f4a2c;fill-opacity:1;fill-rule:nonzero;stroke:none;stroke-width:0.88834655;marker:none;visibility:visible;display:inline;overflow:visible;enable-background:accumulate"
             d="m 5703.7717,896.84689 c -0.3968,-0.13229 -3.4559,-3.05922 -3.4559,-3.45609 l 0,-3.9605 c 0.1825,-0.3661 0,-22.10924 0,-22.10924 -0.066,-0.66146 2.9268,-3.45612 3.4559,-3.45612 l 9.5584,0 44.8704,0.16536 6.7967,-0.16536 3.2824,0 c 0,0 3.6544,2.92695 3.7205,3.7207 l -0.066,21.23281 c 0,0 -0.066,1.92649 -0.1984,4.57235 0.066,0.79375 -3.456,3.45609 -3.456,3.45609 l -5.7465,0 c -1.2306,-0.1688 -2.4109,-0.27284 -3.1419,-0.27284 -1.1907,0 -44.7879,0.26459 -45.3171,0.26459 -0.2688,0 -3.5613,-0.26033 -4.9361,0.008 z"
             id="path27249"
             inkscape:connector-curvature="0"
             sodipodi:nodetypes="ccccccccccccccsscc" />
          <path
             inkscape:connector-curvature="0"
             style="opacity:0.5;color:#000000;fill:#a5613c;fill-opacity:1;fill-rule:nonzero;stroke:none;stroke-width:0.88834655;marker:none;visibility:visible;display:inline;overflow:visible;enable-background:accumulate"
             d="m 5726.1514,864.18619 c 0.1218,0.36088 0.1407,0.6838 0.065,0.97066 -0.082,0.31163 -0.2774,0.60053 -0.6551,0.87763 -0.8736,0.64064 -2.7739,1.36471 -5.1729,1.95344 -2.3989,0.58873 -5.3106,1.06535 -8.2829,1.30635 -4.2406,0.34382 -8.6111,0.17835 -11.7813,-0.73609 0,0.17604 0,0.52966 0,0.8372 3.309,0.92421 7.6382,1.01222 11.842,0.67137 3.0135,-0.24433 5.9578,-0.7222 8.4043,-1.32252 2.4462,-0.60033 4.38,-1.29988 5.4477,-2.08287 0.4907,-0.35979 0.8148,-0.8086 0.9465,-1.30634 0.1004,-0.37966 0.09,-0.77461 -0.01,-1.16883 l -0.8089,0 z m 37.1519,2.33362 c -4.7803,0.0226 -10.4764,0.3127 -16.4648,1.18905 -7.9734,1.16683 -18.9363,3.30246 -28.6869,4.35177 -4.8753,0.52466 -9.4449,0.77612 -13.1726,0.50555 -1.7546,-0.12734 -3.3166,-0.37587 -4.6349,-0.7563 0,0.19987 0,0.47794 0,0.68755 1.3371,0.36533 2.8804,0.59233 4.5823,0.71586 3.7949,0.27542 8.398,0.0173 13.2939,-0.5096 9.792,-1.05377 20.7659,-3.18902 28.7113,-4.35177 10.1583,-1.48659 19.4526,-1.28206 24.8406,-0.94234 -0.1451,-0.20077 -0.3533,-0.43762 -0.5944,-0.68755 -2.1454,-0.12317 -4.8217,-0.21671 -7.8785,-0.20222 z m 8.6712,8.70759 c -11.5083,0.11452 -61.2357,0.60732 -71.6062,0.6835 0,0.27407 0,0.49798 0,0.77653 10.4061,-0.0758 60.0862,-0.56877 71.6021,-0.68351 l 0,-0.77652 z m -71.5819,5.40331 c 8e-4,0.26111 -6e-4,0.52317 0,0.78057 2.2157,0.1108 5.136,0.26314 8.655,0.45298 7.5341,0.40642 17.4841,0.95853 27.4009,1.51665 16.5874,0.93355 30.543,1.73388 35.4976,2.01815 l 0,-0.77652 c -4.999,-0.28671 -18.9082,-1.08273 -35.4572,-2.01411 -9.917,-0.55814 -19.8656,-1.11421 -27.4007,-1.5207 -3.5388,-0.19089 -6.475,-0.34605 -8.6956,-0.45702 z m 71.5495,5.94931 c -28.9061,0.55763 -49.4571,6.34855 -71.0417,6.55597 l 0,0.52982 c 0,0.0476 0.047,0.13131 0.1254,0.24266 21.67,-0.22757 42.1624,-5.99344 70.9122,-6.55192 l 0,-0.77653 z m -0.01,2.29722 c -6.2235,0.0813 -15.0069,0.54041 -22.4787,1.22141 -4.327,0.39436 -8.2073,0.86095 -10.9037,1.37914 -1.3483,0.25909 -2.3954,0.52558 -3.09,0.82506 -0.3473,0.14974 -0.6165,0.2959 -0.8048,0.5379 -0.094,0.121 -0.1628,0.2839 -0.1578,0.46106 0.01,0.17716 0.083,0.33766 0.1861,0.45702 0.2199,0.25478 0.5165,0.36215 0.914,0.48533 0.3974,0.12318 0.9004,0.23222 1.5005,0.33164 1.2002,0.19884 2.7908,0.36121 4.647,0.49746 3.7123,0.27251 8.4779,0.43723 13.1847,0.53386 5.8091,0.11925 11.5156,0.13695 15.0452,0.13347 0.2918,-0.25435 0.5802,-0.51838 0.8412,-0.77653 -3.3938,0.007 -9.5457,-0.004 -15.8702,-0.13346 -4.6995,-0.0965 -9.4578,-0.25922 -13.1442,-0.52982 -1.8433,-0.1353 -3.42,-0.29748 -4.5783,-0.48937 -0.5792,-0.096 -1.0534,-0.20144 -1.3954,-0.30738 -0.2915,-0.0904 -0.4536,-0.18861 -0.5095,-0.22648 0.064,-0.0567 0.2039,-0.15728 0.4489,-0.26289 0.5829,-0.25129 1.6052,-0.51825 2.9282,-0.77248 2.6457,-0.50845 6.5136,-0.97793 10.8268,-1.37105 7.4353,-0.67765 16.1992,-1.1312 22.3898,-1.21332 0.01,-0.17171 0.02,-0.56621 0.02,-0.56621 l 0,-0.21436 z"
             id="path27285"
             sodipodi:nodetypes="cccssccscccccccsssccsssccccccccccccssccsscccscccccscsccccssscccscccccscccc" />
          <path
             id="path27282"
             transform="matrix(0.12942075,0,0,0.12942075,3611.7035,814.64683)"
             d="m 16337.781,380.65625 c 0.941,2.7884 1.087,5.28354 0.5,7.5 -0.637,2.40794 -2.143,4.64015 -5.062,6.78125 -6.75,4.95005 -21.433,10.54479 -39.969,15.09375 -18.536,4.54896 -41.034,8.23161 -64,10.09375 -32.766,2.65668 -66.536,1.37811 -91.031,-5.6875 0.01,1.36016 0.01,4.09249 0.03,6.46875 25.568,7.14115 59.018,7.82123 91.5,5.1875 23.284,-1.88787 46.034,-5.58021 64.938,-10.21875 18.901,-4.63854 33.843,-10.04382 42.093,-16.09375 3.791,-2.78003 6.295,-6.24789 7.313,-10.09375 0.776,-2.93355 0.694,-5.9852 -0.06,-9.03125 l -6.25,0 z m 287.063,18.03125 c -36.936,0.17499 -80.948,2.41614 -127.219,9.1875 -61.608,9.01576 -146.316,25.51723 -221.656,33.625 -37.67,4.05388 -72.978,5.99686 -101.781,3.90625 -13.558,-0.98397 -25.627,-2.90429 -35.813,-5.84375 0.01,1.54437 0.02,3.6929 0.03,5.3125 10.331,2.82282 22.256,4.57675 35.406,5.53125 29.322,2.12814 64.889,0.13377 102.719,-3.9375 75.66,-8.14224 160.452,-24.64072 221.844,-33.625 78.491,-11.48652 150.305,-9.90617 191.937,-7.28125 -1.121,-1.55126 -2.73,-3.38131 -4.593,-5.3125 -16.577,-0.95172 -37.256,-1.67442 -60.875,-1.5625 z m 67,67.28125 c -88.921,0.8849 -473.152,4.69264 -553.282,5.28125 0.01,2.11763 0.02,3.84775 0.03,6 80.405,-0.58582 464.27,-4.39471 553.25,-5.28125 l 0,-6 z m -553.094,41.75 c 0,2.01748 0,4.04238 0,6.03125 17.12,0.85613 39.684,2.03318 66.875,3.5 58.214,3.14037 135.095,7.40631 211.719,11.71875 128.167,7.21335 235.998,13.39724 274.281,15.59375 l 0,-6 c -38.626,-2.21528 -146.099,-8.36595 -273.969,-15.5625 -76.626,-4.31255 -153.496,-8.60914 -211.718,-11.75 -27.343,-1.47499 -50.03,-2.67388 -67.188,-3.53125 z m 552.844,45.96875 c -223.35,4.30862 -382.142,49.05357 -548.921,50.65625 l 0,4.09375 c 0,0.36812 0.364,1.01461 0.969,1.875 167.439,-1.75844 325.778,-46.30976 547.92,-50.625 l 0.03,-6 z m -0.06,17.75 c -48.087,0.62808 -115.954,4.1756 -173.687,9.4375 -33.433,3.04709 -63.415,6.65229 -84.25,10.65625 -10.418,2.00194 -18.508,4.06098 -23.875,6.375 -2.684,1.15699 -4.764,2.28633 -6.219,4.15625 -0.727,0.93494 -1.258,2.19363 -1.219,3.5625 0.04,1.36887 0.641,2.60901 1.438,3.53125 1.699,1.96857 3.991,2.7982 7.062,3.75 3.071,0.95176 6.957,1.79431 11.594,2.5625 9.274,1.53642 21.564,2.79096 35.906,3.84375 28.684,2.10557 65.507,3.37839 101.875,4.125 44.885,0.92143 88.978,1.0582 116.25,1.03125 2.255,-1.96525 4.483,-4.00537 6.5,-6 -26.223,0.0566 -73.757,-0.028 -122.625,-1.03125 -36.312,-0.74547 -73.078,-2.00288 -101.562,-4.09375 -14.242,-1.04546 -26.425,-2.29858 -35.375,-3.78125 -4.475,-0.74135 -8.139,-1.55643 -10.782,-2.375 -2.252,-0.69846 -3.505,-1.45739 -3.937,-1.75 0.494,-0.43824 1.576,-1.21525 3.469,-2.03125 4.504,-1.94169 12.403,-4.00442 22.625,-5.96875 20.443,-3.92867 50.329,-7.55626 83.656,-10.59375 57.451,-5.23606 125.167,-8.74053 173,-9.375 0.05,-1.32678 0.156,-4.375 0.156,-4.375 z"
             style="color:#000000;fill:#6b3e25;fill-opacity:1;fill-rule:nonzero;stroke:none;stroke-width:0.88834655;marker:none;visibility:visible;display:inline;overflow:visible;enable-background:accumulate"
             inkscape:connector-curvature="0"
             sodipodi:nodetypes="cccssccscscccccsssccsssccccccccccccssccsscccscccccsccccccsssccssscccssccc" />
          <path
             sodipodi:nodetypes="cccsccsscccccccccccsscsccccssccssss"
             id="path27255"
             transform="matrix(0.26458334,0,0,0.26458334,-723.10502,63.277081)"
             d="m 24290.562,3025.8438 c -1.999,0 -13.311,10.5624 -13.062,13.0624 0,0 0.69,82.1789 0,83.5626 l 0,14.9687 c 0,1.5 11.563,12.5625 13.062,13.0625 l 20.282,0 c 5.196,-1.0142 17.64,-0.031 18.656,-0.031 2,0 166.778,-1 171.278,-1 2.763,0 7.224,0.3932 11.875,1.0312 l 21.719,0 c 0,0 13.312,-10.0625 13.062,-13.0625 0.501,-10.0001 0.75,-17.2813 0.75,-17.2813 l 0.25,-80.25 c -0.25,-2.9999 -14.062,-14.0624 -14.062,-14.0624 l -12.406,0 -25.688,0.625 -169.59,-0.625 -36.126,0 z m 224.904,4.8437 c 8.593,0 14.562,0.1875 15.312,0.6875 3,2 12,7 12,7 0,0 -1.5,31 0,42 1.5,11 4,26 3.5,33.5 -0.398,5.9674 0.441,16.6468 0.812,20.9062 -3.895,3.2639 -8.703,7.3064 -10.312,8.5938 -2.5,2 -18,3.5 -18,3.5 0,0 -15,-1 -21,-1 -6,0 -200.278,1 -203.278,0.5 -3,-0.5 -4,-1 -8,-6 -2.815,-3.5192 -6.358,-4.3448 -8.219,-9.5625 2.796,-36.3476 3.219,-66.6948 3.219,-75.4375 0,-9.5 -1,-9 1.5,-13 2.5,-4 5,-10 9,-10 3,0 197.683,-1.6875 223.466,-1.6875 z"
             style="color:#000000;fill:#a5613c;fill-opacity:1;fill-rule:nonzero;stroke:none;stroke-width:0.88834655;marker:none;visibility:visible;display:inline;overflow:visible;enable-background:accumulate"
             inkscape:connector-curvature="0" />
        </g>
      </g>
    </g>
  </g>
</svg>
