<?xml version="1.0" encoding="UTF-8" standalone="no"?>
<!-- Created with Inkscape (http://www.inkscape.org/) -->

<svg
   xmlns:dc="http://purl.org/dc/elements/1.1/"
   xmlns:cc="http://creativecommons.org/ns#"
   xmlns:rdf="http://www.w3.org/1999/02/22-rdf-syntax-ns#"
   xmlns:svg="http://www.w3.org/2000/svg"
   xmlns="http://www.w3.org/2000/svg"
   xmlns:sodipodi="http://sodipodi.sourceforge.net/DTD/sodipodi-0.dtd"
   xmlns:inkscape="http://www.inkscape.org/namespaces/inkscape"
   width="2337.229"
   height="871.69775"
   viewBox="0 0 618.39181 230.63671"
   version="1.1"
   id="svg23489"
   inkscape:version="0.48.5 r10040"
   sodipodi:docname="inner_panels_tiny_square.svg">
  <defs
     id="defs23483" />
  <sodipodi:namedview
     id="base"
     pagecolor="#7d848b"
     bordercolor="#666666"
     borderopacity="1.0"
     inkscape:pageopacity="1"
     inkscape:pageshadow="2"
     inkscape:zoom="0.10654466"
     inkscape:cx="101.89142"
     inkscape:cy="-511.86401"
     inkscape:document-units="px"
     inkscape:current-layer="layer1"
     showgrid="false"
     inkscape:pagecheckerboard="false"
     showborder="true"
     units="px"
     inkscape:window-width="1920"
     inkscape:window-height="1017"
     inkscape:window-x="-8"
     inkscape:window-y="-8"
     inkscape:window-maximized="1"
     inkscape:showpageshadow="false"
     guidetolerance="28"
     fit-margin-top="20"
     fit-margin-left="20"
     fit-margin-right="20"
     fit-margin-bottom="20">
    <inkscape:grid
       type="xygrid"
       id="grid24034"
       spacingx="1px"
       spacingy="1px"
       empspacing="8"
       visible="true"
       enabled="true"
       snapvisiblegridlinesonly="true"
       originx="1802.2863px"
       originy="-1427.6738px" />
  </sodipodi:namedview>
  <metadata
     id="metadata23486">
    <rdf:RDF>
      <cc:Work
         rdf:about="">
        <dc:format>image/svg+xml</dc:format>
        <dc:type
           rdf:resource="http://purl.org/dc/dcmitype/StillImage" />
        <dc:title></dc:title>
        <cc:license
           rdf:resource="" />
        <dc:creator>
          <cc:Agent>
            <dc:title>Robert Brooks</dc:title>
          </cc:Agent>
        </dc:creator>
      </cc:Work>
    </rdf:RDF>
  </metadata>
  <g
     inkscape:label="Layer 1"
     inkscape:groupmode="layer"
     id="layer1"
     transform="translate(476.85497,311.37539)">
    <g
       id="g33502"
       transform="matrix(1.9523341,0,0,1.888347,-3818.1413,-393.01734)">
      <path
         transform="matrix(0.26458334,0,0,0.26458334,-6.3049604e-6,18.562493)"
         inkscape:connector-curvature="0"
         id="path33504"
         d="m 6483.9481,123.65371 c -3.7212,31.36451 -5.3161,407.64804 -3.7212,412.43246 1.5948,4.78441 6.9108,6.91082 12.7584,7.97402 5.8476,1.06321 1147.3808,-2.1264 1151.4293,-2.1264 7.8611,0 10.8901,-7.44243 10.8901,-12.22685 0,-4.78441 -3.7213,-397.016 -5.8477,-401.26882 -2.1264,-4.25281 -1165.5089,-4.78441 -1165.5089,-4.78441 z"
         style="opacity:0.25;color:#000000;fill:#ffffff;fill-opacity:1;fill-rule:nonzero;stroke:none;stroke-width:15;marker:none;visibility:visible;display:inline;overflow:visible;enable-background:accumulate"
         sodipodi:nodetypes="ccssssc" />
      <g
         style="stroke:#6b3e25;stroke-opacity:1"
         id="g33506"
         transform="matrix(0.80835005,0,0,0.86100308,321.83243,163.80413)">
        <path
           inkscape:connector-curvature="0"
           id="path33508"
           d="m 1726.8783,-136.77909 c -2.4305,-0.009 -4.4944,2.00699 -4.4688,4.4375 l 1.1217,106.321431 c 0.026,2.430511 2.0382,4.4375 4.4688,4.4375 l 373.8572,0 c 2.4306,0 2.801,-2.007129 2.8381,-4.4375 l 1.5995,-104.917341 c 0.037,-2.43037 -2.0069,-4.4284 -4.4376,-4.4375 z m 1.1217,5.37284 373.8572,0 c 0.3006,0 0.4688,0.16822 0.4688,0.46875 l 0,104.917341 c 0,0.30053 -0.1681,0.46875 -0.4688,0.46875 l -373.8572,0 c -0.3004,0 -0.5,-0.16822 -0.5,-0.46875 l 0,-104.917341 c 0,-0.30053 0.1996,-0.46875 0.5,-0.46875 z"
           style="font-size:medium;font-style:normal;font-variant:normal;font-weight:normal;font-stretch:normal;text-indent:0;text-align:start;text-decoration:none;line-height:normal;letter-spacing:normal;word-spacing:normal;text-transform:none;direction:ltr;block-progression:tb;writing-mode:lr-tb;text-anchor:start;baseline-shift:baseline;opacity:0.34070794;color:#000000;fill:#512b16;fill-opacity:1;fill-rule:nonzero;stroke:none;stroke-width:3.96875;marker:none;visibility:visible;display:inline;overflow:visible;enable-background:accumulate;font-family:Sans;-inkscape-font-specification:Sans"
           sodipodi:nodetypes="ssssssssssssssssss" />
      </g>
      <g
         transform="matrix(0.80835005,0,0,0.86100308,321.83243,164.92935)"
         id="g33510">
        <path
           inkscape:connector-curvature="0"
           style="color:#000000;fill:#231d19;fill-opacity:1;fill-rule:nonzero;stroke:#3b2213;stroke-width:4.5284338;stroke-linecap:round;stroke-linejoin:round;stroke-miterlimit:4;stroke-opacity:1;stroke-dasharray:none;stroke-dashoffset:0;marker:none;visibility:visible;display:inline;overflow:visible;enable-background:accumulate"
           d="m 1727.9959,-133.39818 373.8492,0 c 1.3656,0 2.465,1.09937 2.465,2.46495 l 0,121.0204745 c 0,1.36558 -1.0994,2.46494 -2.465,2.46494 l -373.8492,0 c -1.3655,0 -2.4649,-1.09936 -2.4649,-2.46494 l 0,-121.0204745 c 0,-1.36558 1.0994,-2.46495 2.4649,-2.46495 z"
           id="path33512"
           sodipodi:nodetypes="sssssssss" />
        <path
           inkscape:connector-curvature="0"
           id="path33514"
           d="m 1727.9959,-133.39818 373.8492,0 c 1.3656,0 2.465,1.09937 2.465,2.46495 l 0,121.0204745 c 0,1.36558 -1.0994,2.46494 -2.465,2.46494 l -373.8492,0 c -1.3655,0 -2.4649,-1.09936 -2.4649,-2.46494 l 0,-121.0204745 c 0,-1.36558 1.0994,-2.46495 2.4649,-2.46495 z"
           style="color:#000000;fill:#834b2c;fill-opacity:1;fill-rule:nonzero;stroke:none;stroke-width:0;marker:none;visibility:visible;display:inline;overflow:visible;enable-background:accumulate"
           sodipodi:nodetypes="sssssssss" />
        <path
           style="opacity:0.40265485;color:#000000;fill:#6f3f25;fill-opacity:1;fill-rule:nonzero;stroke:none;stroke-width:0;marker:none;visibility:visible;display:inline;overflow:visible;enable-background:accumulate"
           d="m 15463.25,2277.6718 0,82.125 c 0,7.7806 5.883,14.0625 13.188,14.0625 l 1999.812,0 c 7.305,0 13.188,-6.2819 13.188,-14.0625 l 0,-82.125 z"
           transform="matrix(0.18694361,0,0,0.17551143,-1165.2264,-424.08597)"
           id="path33516"
           inkscape:connector-curvature="0"
           sodipodi:nodetypes="csssscc" />
        <path
           inkscape:connector-curvature="0"
           style="opacity:0.36725661;color:#000000;fill:#3b2213;fill-opacity:1;fill-rule:nonzero;stroke:none;stroke-width:0;marker:none;visibility:visible;display:inline;overflow:visible;enable-background:accumulate"
           d="m 4874.7188,1670.75 c -8.1526,0 -14.7188,7.0034 -14.7188,15.6875 l 0,33.8125 3.375,-21.9375 c 1.2604,-8.228 6.2671,-15.0313 14.0938,-15.0313 l 2226.3124,0 c 7.8273,0 12.3304,6.9168 14.125,15.0313 l 3.5626,16.0313 0,-27.9063 c 0,-8.6841 -6.5657,-15.6875 -14.7188,-15.6875 z M 4860,2438.1233 l 0,17.9375 c 0,8.6841 6.5662,15.6563 14.7188,15.6563 l 2232.0312,0 c 8.1531,0 14.7188,-6.9722 14.7188,-15.6563 l 0,-17.9375 c 0,8.6841 -6.5657,15.7188 -14.7188,15.7188 l -2232.0312,0 c -8.1526,0 -14.7188,-7.0347 -14.7188,-15.7188 z"
           transform="matrix(0.16749291,0,0,0.1572502,911.51285,-396.1268)"
           id="path33518"
           sodipodi:nodetypes="ssccssccssscsssscssc" />
        <path
           style="color:#000000;fill:#7b4629;fill-opacity:1;fill-rule:nonzero;stroke:none;stroke-width:0;marker:none;visibility:visible;display:inline;overflow:visible;enable-background:accumulate"
           d="m 10849.812,6035.4375 c 64.199,46.436 140.467,77.9993 220.376,97.875 151.466,37.6738 316.096,33.4897 437.374,8.7187 30.84,-6.2984 51.009,-21.1426 60.907,-42.125 8.422,-17.8555 9.419,-39.8308 4.312,-64.4687 l -6,0 c 5.2,24.2537 4.206,45.338 -3.625,61.9375 -9.052,19.192 -27.174,32.8655 -56.75,38.9062 -120.383,24.5879 -284.383,28.7519 -434.781,-8.6562 -76.611,-19.0553 -149.638,-48.8701 -211.687,-92.1875 z m 1205.469,0 c -242.4,67.8843 -443.358,138.8731 -569,156.9687 -129.155,18.602 -279.703,23.3864 -418.125,4.6876 -104.47,-14.1125 -201.98,-41.6458 -278.281,-86.4688 l 0,6.8438 c 76.793,44.3686 173.9,71.4069 277.531,85.4062 139.114,18.7921 290.034,14.0487 419.688,-4.625 130.054,-18.7311 337.582,-92.878 587.844,-162.1875 0.747,-0.2069 1.502,-0.4182 2.25,-0.625 z m 736.157,37.9375 c -217.773,0.1101 -449.173,30.3606 -668.032,69.1875 -368.603,65.3925 -701.897,155.2636 -873.25,167.5 -207.027,14.7844 -366.394,-39.5582 -460.281,-85 l 0,6.5 c 95.002,45.5496 254.46,99.1336 460.687,84.4063 172.85,-12.3432 505.586,-102.2881 873.876,-167.625 308.104,-54.6594 640.916,-92.0546 924.75,-52.6563 l 0,-5.9687 c -82.475,-11.4276 -168.966,-16.3887 -257.75,-16.3438 z m 127.562,76.5 c -127.8,-0.201 -300.413,6.5797 -525.688,28.8438 -554.959,54.8467 -1109.535,289.254 -1603.437,267.1562 l 0,5.9062 c 495.873,22.2192 1050.402,-212.4749 1604,-267.1874 300.132,-29.6622 506.622,-31.8188 638.031,-26.5938 5.93,0.2358 11.657,0.4862 17.282,0.75 l 0,-5.9062 c -5.552,-0.2601 -11.187,-0.5177 -17.032,-0.75 -32.93,-1.3094 -70.556,-2.1514 -113.156,-2.2188 z m -2129.125,120 0,6.0312 c 53.431,10.292 93.361,26.5505 117.094,43.6876 10.117,7.3062 17.292,14.7395 21.343,21.75 4.053,7.0102 5.039,13.4113 3.25,19.3437 -1.787,5.9324 -6.55,11.6655 -14.968,16.75 -8.419,5.0845 -20.402,9.4617 -36.188,12.5313 -32.193,6.2598 -62.777,9.9729 -90.531,12.0312 l 0,5.8438 c 28.078,-2.065 59.043,-5.7895 91.625,-12.125 16.255,-3.1604 28.926,-7.6562 38.188,-13.25 9.261,-5.5939 15.185,-12.4117 17.5,-20.0938 2.316,-7.6814 0.857,-15.9729 -3.782,-24 -4.638,-8.0269 -12.384,-15.9197 -22.968,-23.5625 -24.989,-18.0443 -66.01,-34.5987 -120.563,-44.9375 z m 2259.313,148.0938 c -194.147,24.7226 -581.336,72.09 -989.282,111 -289.847,27.6452 -589.761,50.9549 -837.187,58.6874 -123.715,3.8663 -234.308,3.819 -323.938,-1.5 -40.941,-2.4295 -77.488,-5.9881 -108.906,-10.75 l 0,6 c 31.465,4.7338 67.885,8.2404 108.594,10.6563 89.914,5.3359 200.614,5.3697 324.437,1.5 247.649,-7.7395 547.613,-31.0664 837.532,-58.7187 407.495,-38.8667 794.309,-86.1805 988.75,-110.9376 z m -2259.313,230.4062 0,5.875 c 12.893,0.3584 27.2,0.7737 43.375,1.1875 68.662,1.7567 165.767,3.9936 281.812,6.5313 232.096,5.0755 539.897,11.3645 847.157,17.5 502.278,10.0301 920.78,18.0218 1086.969,21.1874 l 0,-5.875 c -166.266,-3.1753 -584.621,-11.1904 -1086.813,-21.2187 -307.255,-6.1354 -615.102,-12.4246 -847.187,-17.5 -116.045,-2.5375 -213.165,-4.775 -281.813,-6.5313 -16.24,-0.4155 -30.578,-0.8041 -43.5,-1.1562 z m 2203.625,66.875 c -254.6,0.8899 -723.627,40.9785 -1172.875,70.2188 -151.404,9.8546 -300.442,18.4483 -438.281,23.9374 l 130.094,0 c 99.795,-5.0199 203.601,-11.262 308.562,-18.0937 484.61,-31.5419 992.625,-75.5696 1228.188,-69.625 l 0,-5.875 c -13.263,-0.3394 -27.342,-0.53 -42.25,-0.5625 -4.407,-0.01 -8.892,-0.015 -13.438,0 z m 55.688,60.7188 c -46.02,0.4747 -100.173,1.6942 -164.25,3.9374 -73.386,2.5695 -180.168,13.8305 -307.719,29.5 l 49.281,0 c 106.099,-12.5748 195.1,-21.3997 258.656,-23.625 63.95,-2.2389 118.107,-3.4624 164.032,-3.9374 z"
           transform="matrix(0.16765206,0,0,0.16273314,-83.41443,-1115.5629)"
           id="path34242"
           inkscape:connector-curvature="0"
           sodipodi:nodetypes="cscccccsscccssccsscccsssccssccsssccsscccsccccccscccccccccsssccsssccccsssccsssccsccscccccsccscc" />
        <path
           style="opacity:0.09734515;color:#000000;fill:#b86834;fill-opacity:1;fill-rule:nonzero;stroke:none;stroke-width:0;marker:none;visibility:visible;display:inline;overflow:visible;enable-background:accumulate"
           d="m 10844.625,6035.4375 c 65.255,48.5093 143.503,81.2456 225.563,101.6563 151.466,37.6737 316.096,33.4895 437.374,8.7187 30.84,-6.2983 50.977,-21.1427 60.876,-42.125 5.232,-11.0933 7.61,-23.7946 7.437,-37.7187 -0.267,12.4487 -2.681,23.885 -7.437,33.9687 -9.899,20.9823 -30.004,35.7952 -60.844,42.0937 -121.279,24.771 -285.94,28.9551 -437.406,-8.7187 -79.885,-19.8697 -156.126,-51.4607 -220.313,-97.875 z m 721.313,0 c 2.556,10.7638 3.934,20.937 4.062,30.4063 0.207,-9.4332 -0.87,-19.6062 -3.188,-30.4063 z m 511.343,0 c -0.788,0.218 -1.587,0.4382 -2.375,0.6563 -250.261,69.3094 -457.789,143.4251 -587.844,162.1562 -129.654,18.6736 -280.542,23.4171 -419.656,4.625 -103.631,-13.9992 -200.735,-41.0416 -277.531,-85.4062 l 0,3.7812 c 76.796,44.3647 173.9,71.3758 277.531,85.375 139.114,18.792 290.002,14.0486 419.656,-4.625 130.055,-18.7312 337.583,-92.8467 587.844,-162.1562 5.304,-1.4688 10.659,-2.9424 16,-4.4063 z m 714.157,43.9063 c -217.225,0.1193 -448.328,30.2062 -667,69 -368.29,65.3369 -700.995,155.2817 -873.844,167.625 -206.235,14.7278 -365.713,-38.8842 -460.719,-84.4376 l 0,3.7813 c 95.007,45.5523 254.491,99.1335 460.719,84.4063 172.849,-12.3434 505.522,-102.2883 873.812,-167.625 308.101,-54.6588 640.945,-92.0226 924.782,-52.625 l 0,-3.7813 c -82.392,-11.4369 -168.917,-16.3926 -257.75,-16.3437 z m 127.562,76.4374 c -127.582,-0.2006 -300.026,6.566 -525.125,28.8126 -553.597,54.7124 -1108.128,289.404 -1604,267.1874 l 0,3.7813 c 495.872,22.2165 1050.373,-212.5063 1603.969,-267.2187 300.131,-29.6621 506.654,-31.819 638.062,-26.5938 5.934,0.2359 11.652,0.4859 17.282,0.75 l 0,-3.75 c -5.63,-0.2641 -11.347,-0.5453 -17.282,-0.7812 -32.852,-1.3063 -70.379,-2.1195 -112.906,-2.1876 z m -2129.125,120.125 0,3.75 c 53.436,10.2969 93.361,26.5504 117.094,43.6876 10.117,7.306 17.292,14.7395 21.343,21.75 2.348,4.0606 3.687,7.9097 4.032,11.5937 0.433,-4.7985 -0.839,-9.8753 -4,-15.3437 -4.051,-7.0105 -11.258,-14.4438 -21.375,-21.75 -23.733,-17.1371 -63.658,-33.3907 -117.094,-43.6876 z m 148.344,81 c -0.136,1.8443 -0.491,3.678 -1.031,5.4688 -2.315,7.682 -8.239,14.5 -17.5,20.0938 -9.262,5.5939 -21.933,10.0896 -38.188,13.25 -32.594,6.3378 -63.539,10.0593 -91.625,12.125 l 0,3.75 c 28.085,-2.0658 59.032,-5.7874 91.625,-12.125 16.255,-3.1605 28.926,-7.6563 38.188,-13.25 9.261,-5.594 15.185,-12.4118 17.5,-20.0938 0.903,-2.9974 1.244,-6.0914 1.031,-9.2188 z m 2110.969,66.9688 c -194.444,24.7574 -581.229,72.0714 -988.719,110.9375 -289.919,27.6523 -589.914,50.9792 -837.563,58.7187 -123.823,3.8696 -234.524,3.8672 -324.437,-1.4687 -40.716,-2.4163 -77.127,-5.9236 -108.594,-10.6563 l 0,3.7813 c 31.466,4.7325 67.879,8.2088 108.594,10.625 89.913,5.3356 200.614,5.3697 324.437,1.5 247.649,-7.7392 547.644,-31.0665 837.563,-58.7187 407.497,-38.8671 794.278,-86.2119 988.719,-110.9688 z m -2259.313,230.375 0,3.7812 c 12.889,0.3617 27.17,0.7427 43.344,1.1563 68.662,1.7569 165.768,4.0248 281.812,6.5625 232.096,5.0751 539.959,11.3649 847.219,17.5 502.293,10.0304 920.766,18.0198 1086.938,21.1875 l 0,-3.75 c -166.187,-3.168 -584.66,-11.1887 -1086.938,-21.2187 -307.26,-6.1356 -615.092,-12.4246 -847.188,-17.5 -116.045,-2.5377 -213.15,-4.7746 -281.812,-6.5313 -16.175,-0.4138 -30.486,-0.8258 -43.375,-1.1875 z m 2205.187,66.9062 c -253.398,0.7777 -723.854,40.8534 -1174.062,70.1563 -104.955,6.8313 -208.741,13.0746 -308.531,18.0937 l 71.625,0 c 77.454,-4.2438 156.861,-9.1026 236.906,-14.3124 484.61,-31.542 992.628,-75.5423 1228.188,-69.5938 l 0,-3.8125 c -13.24,-0.3336 -27.309,-0.502 -42.219,-0.5313 -3.912,-0.01 -7.884,-0.012 -11.907,0 z m 54.126,60.7188 c -45.961,0.4809 -100.047,1.6963 -164.063,3.9375 -63.556,2.2253 -152.529,11.0201 -258.625,23.5937 l 32.125,0 c 91.959,-10.5593 169.472,-17.8471 226.5,-19.8437 63.95,-2.2389 118.134,-3.4906 164.063,-3.9687 z"
           transform="matrix(0.16765206,0,0,0.16273314,-83.41443,-1115.5629)"
           id="path34245"
           inkscape:connector-curvature="0"
           sodipodi:nodetypes="cscccccsccccccccssccsscccsssccssccscsccsscccccccccccccccccccccccsssccssscccccssccsssccsccscccccsccscc" />
      </g>
    </g>
  </g>
</svg>
