<?xml version="1.0" encoding="UTF-8" standalone="no"?>
<!-- Created with Inkscape (http://www.inkscape.org/) -->

<svg
   xmlns:dc="http://purl.org/dc/elements/1.1/"
   xmlns:cc="http://creativecommons.org/ns#"
   xmlns:rdf="http://www.w3.org/1999/02/22-rdf-syntax-ns#"
   xmlns:svg="http://www.w3.org/2000/svg"
   xmlns="http://www.w3.org/2000/svg"
   xmlns:sodipodi="http://sodipodi.sourceforge.net/DTD/sodipodi-0.dtd"
   xmlns:inkscape="http://www.inkscape.org/namespaces/inkscape"
   width="972.81635"
   height="1673.8179"
   viewBox="0 0 257.39098 442.86432"
   version="1.1"
   id="svg23489"
   inkscape:version="0.48.5 r10040"
   sodipodi:docname="inner_panels_narrow_rectangle.svg">
  <defs
     id="defs23483" />
  <sodipodi:namedview
     id="base"
     pagecolor="#7d848b"
     bordercolor="#666666"
     borderopacity="1.0"
     inkscape:pageopacity="1"
     inkscape:pageshadow="2"
     inkscape:zoom="0.1506769"
     inkscape:cx="-2287.054"
     inkscape:cy="43.601664"
     inkscape:document-units="px"
     inkscape:current-layer="layer1"
     showgrid="false"
     inkscape:pagecheckerboard="false"
     showborder="true"
     units="px"
     inkscape:window-width="1920"
     inkscape:window-height="1017"
     inkscape:window-x="-8"
     inkscape:window-y="-8"
     inkscape:window-maximized="1"
     inkscape:showpageshadow="false"
     guidetolerance="28"
     fit-margin-top="20"
     fit-margin-left="20"
     fit-margin-right="20"
     fit-margin-bottom="20">
    <inkscape:grid
       type="xygrid"
       id="grid24034"
       spacingx="1px"
       spacingy="1px"
       empspacing="8"
       visible="true"
       enabled="true"
       snapvisiblegridlinesonly="true"
       originx="-1157.0553px"
       originy="-294.85535px" />
  </sodipodi:namedview>
  <metadata
     id="metadata23486">
    <rdf:RDF>
      <cc:Work
         rdf:about="">
        <dc:format>image/svg+xml</dc:format>
        <dc:type
           rdf:resource="http://purl.org/dc/dcmitype/StillImage" />
        <dc:title></dc:title>
        <cc:license
           rdf:resource="" />
        <dc:creator>
          <cc:Agent>
            <dc:title>Robert Brooks</dc:title>
          </cc:Agent>
        </dc:creator>
      </cc:Work>
    </rdf:RDF>
  </metadata>
  <g
     inkscape:label="Layer 1"
     inkscape:groupmode="layer"
     id="layer1"
     transform="translate(-306.13754,223.87814)">
    <g
       id="g33520"
       transform="matrix(1.9541892,0,0,1.9541892,-3031.6154,-308.55097)">
      <path
         transform="matrix(0.26458334,0,0,0.26458334,-6.3049604e-6,18.562493)"
         inkscape:connector-curvature="0"
         id="path33522"
         d="m 6470.9635,123.65371 c -3.7212,31.36451 -5.3161,803.26976 -3.7212,808.05418 1.5948,4.78441 6.9108,6.91082 12.7584,7.97402 5.8476,1.06321 448.0656,-2.1264 452.1141,-2.1264 7.8611,0 10.8901,-7.44243 10.8901,-12.22685 0,-4.78441 -3.7213,-792.63772 -5.8477,-796.89054 -2.1264,-4.25281 -466.1937,-4.78441 -466.1937,-4.78441 z"
         style="opacity:0.25;color:#000000;fill:#ffffff;fill-opacity:1;fill-rule:nonzero;stroke:none;stroke-width:15;marker:none;visibility:visible;display:inline;overflow:visible;enable-background:accumulate"
         sodipodi:nodetypes="ccssssc" />
      <g
         style="stroke:#6b3e25;stroke-opacity:1"
         id="g33524"
         transform="matrix(0.80835005,0,0,0.86100308,321.83243,163.80413)">
        <path
           inkscape:connector-curvature="0"
           id="path33526"
           d="m 1722.6283,-136.77909 c -2.4304,-0.0234 -4.48,2.00689 -4.4688,4.4375 l 1.1217,244.01722 c 0.011,2.43062 2.0382,4.4375 4.4688,4.4375 l 144.9623,0 c 2.4306,0 2.8221,-2.00691 2.8381,-4.4375 l 1.5995,-242.61313 c 0.016,-2.43059 -2.007,-4.41414 -4.4376,-4.4375 z m 1.1217,5.37284 144.9623,0 c 0.3006,0 0.4688,0.16822 0.4688,0.46875 l 0,242.61313 c 0,0.30053 -0.1681,0.46875 -0.4688,0.46875 l -144.9623,0 c -0.3004,0 -0.5,-0.16822 -0.5,-0.46875 l 0,-242.61313 c 0,-0.30053 0.1996,-0.46875 0.5,-0.46875 z"
           style="font-size:medium;font-style:normal;font-variant:normal;font-weight:normal;font-stretch:normal;text-indent:0;text-align:start;text-decoration:none;line-height:normal;letter-spacing:normal;word-spacing:normal;text-transform:none;direction:ltr;block-progression:tb;writing-mode:lr-tb;text-anchor:start;baseline-shift:baseline;opacity:0.34070794;color:#000000;fill:#512b16;fill-opacity:1;fill-rule:nonzero;stroke:none;stroke-width:3.96875;marker:none;visibility:visible;display:inline;overflow:visible;enable-background:accumulate;font-family:Sans;-inkscape-font-specification:Sans"
           sodipodi:nodetypes="ssssssssssssssssss" />
      </g>
      <g
         transform="matrix(0.80835005,0,0,0.86100308,321.83243,164.92935)"
         id="g33528">
        <path
           inkscape:connector-curvature="0"
           style="color:#000000;fill:#231d19;fill-opacity:1;fill-rule:nonzero;stroke:#3b2213;stroke-width:4.5284338;stroke-linecap:round;stroke-linejoin:round;stroke-miterlimit:4;stroke-opacity:1;stroke-dasharray:none;stroke-dashoffset:0;marker:none;visibility:visible;display:inline;overflow:visible;enable-background:accumulate"
           d="m 1723.7459,-133.39818 144.9543,0 c 1.3656,0 2.465,1.09937 2.465,2.46495 l 0,242.59369 c 0,1.36558 -1.0994,2.46494 -2.465,2.46494 l -144.9543,0 c -1.3655,0 -2.4649,-1.09936 -2.4649,-2.46494 l 0,-242.59369 c 0,-1.36558 1.0994,-2.46495 2.4649,-2.46495 z"
           id="path33530"
           sodipodi:nodetypes="sssssssss" />
        <path
           inkscape:connector-curvature="0"
           id="path33532"
           d="m 1723.7459,-133.39818 144.9543,0 c 1.3656,0 2.465,1.09937 2.465,2.46495 l 0,242.59369 c 0,1.36558 -1.0994,2.46494 -2.465,2.46494 l -144.9543,0 c -1.3655,0 -2.4649,-1.09936 -2.4649,-2.46494 l 0,-242.59369 c 0,-1.36558 1.0994,-2.46495 2.4649,-2.46495 z"
           style="color:#000000;fill:#834b2c;fill-opacity:1;fill-rule:nonzero;stroke:none;stroke-width:0;marker:none;visibility:visible;display:inline;overflow:visible;enable-background:accumulate"
           sodipodi:nodetypes="sssssssss" />
        <path
           style="opacity:0.40265485;color:#000000;fill:#6f3f25;fill-opacity:1;fill-rule:nonzero;stroke:none;stroke-width:0;marker:none;visibility:visible;display:inline;overflow:visible;enable-background:accumulate"
           d="m 15440.516,2970.3516 0,82.125 c 0,7.7806 5.883,14.0625 13.188,14.0625 l 775.406,0 c 7.305,0 13.188,-6.2819 13.188,-14.0625 l 0,-82.125 z"
           transform="matrix(0.18694361,0,0,0.17551143,-1165.2264,-424.08597)"
           id="path33534"
           inkscape:connector-curvature="0"
           sodipodi:nodetypes="csssscc" />
        <path
           inkscape:connector-curvature="0"
           style="opacity:0.36725661;color:#000000;fill:#3b2213;fill-opacity:1;fill-rule:nonzero;stroke:none;stroke-width:0;marker:none;visibility:visible;display:inline;overflow:visible;enable-background:accumulate"
           d="m 4849.3444,1670.75 c -8.1526,0 -14.7188,7.0034 -14.7188,15.6875 l 0,33.8125 3.375,-21.9375 c 1.2604,-8.228 6.2671,-15.0313 14.0938,-15.0313 l 859.7183,0 c 7.8273,0 12.3304,6.9168 14.125,15.0313 l 3.5626,16.0313 0,-27.9063 c 0,-8.6841 -6.5657,-15.6875 -14.7188,-15.6875 z m -14.7188,1540.4929 0,17.9375 c 0,8.6841 6.5662,15.6563 14.7188,15.6563 l 865.4371,0 c 8.1531,0 14.7188,-6.9722 14.7188,-15.6563 l 0,-17.9375 c 0,8.6841 -6.5657,15.7188 -14.7188,15.7188 l -865.4371,0 c -8.1526,0 -14.7188,-7.0347 -14.7188,-15.7188 z"
           transform="matrix(0.16749291,0,0,0.1572502,911.51285,-396.1268)"
           id="path33536"
           sodipodi:nodetypes="ssccssccssscsssscssc" />
        <path
           style="color:#000000;fill:#7b4629;fill-opacity:1;fill-rule:nonzero;stroke:none;stroke-width:0;marker:none;visibility:visible;display:inline;overflow:visible;enable-background:accumulate"
           d="m 14443.906,4264.7188 c -2.722,25.5995 0.668,47.5308 11.438,63.875 5.008,7.6 11.619,13.9129 19.812,18.75 l 0,-6.1563 c -6.299,-4.192 -11.414,-9.3931 -15.437,-15.5 -9.922,-15.0555 -13.241,-35.9291 -10.5,-60.9687 l -5.313,0 z m -863.625,33.6874 0,5.3126 c 145.956,2.0478 287.151,15.7288 416.657,32.4374 192.833,24.8792 359.669,56.4947 478.218,66.4063 l 0,-5.3125 c -117.903,-9.9381 -284.749,-41.4712 -477.531,-66.3438 -129.654,-16.7278 -271.07,-30.4503 -417.344,-32.5 z m 197.907,135.4688 c -66.067,0.1881 -132.325,1.8981 -197.907,5.625 l 0,5.3125 c 128.504,-7.3361 259.729,-6.8515 386.907,-2.5625 184.894,6.2357 360.983,20.4525 507.968,30.1562 l 0,-5.3437 c -146.827,-9.6829 -322.939,-23.8286 -507.781,-30.0625 -62.347,-2.1027 -125.672,-3.3059 -189.187,-3.125 z m 68.5,67.1875 c -38.325,-0.032 -76.577,0.6903 -114.688,2.3437 -53.981,2.3419 -104.479,5.1859 -151.719,8.4063 l 0,5.2813 c 47.31,-3.2265 97.88,-6.0598 151.969,-8.4063 246.22,-10.6817 498.184,17.541 742.906,38.9687 l 0,-5.5 c -206.695,-18.0787 -418.804,-40.9206 -628.468,-41.0937 z m 628.468,248.1563 c -131.134,9.2935 -267.781,16.9555 -402.25,23.25 -173.5,8.1212 -343.193,13.9824 -492.625,18.1874 l 0,5.2813 c 149.502,-4.2054 319.272,-10.0613 492.875,-18.1875 134.382,-6.2902 270.926,-13.9314 402,-23.2188 l 0,-5.3124 z m 0,90.8437 c -97.245,15.9225 -196.676,32.1842 -297.187,48.5937 -234.466,38.2792 -428.227,69.8462 -597.688,97.4063 l 0,5.3125 c 169.81,-27.6093 363.623,-59.1435 598.563,-97.5 100.215,-16.3612 199.336,-32.5592 296.312,-48.4375 l 0,-5.375 z m 0,117.4375 c -51.67,4.3434 -104.122,8.5571 -156.937,12.625 -256.82,19.781 -521.232,36.655 -737.938,54.4688 l 0,5.3437 c 216.692,-17.8212 481.402,-34.7722 738.344,-54.5625 52.675,-4.0571 104.988,-8.2317 156.531,-12.5625 l 0,-5.3125 z m 0,114.4375 c -26.054,1.0428 -52.228,1.9852 -78.468,2.8437 -296.337,9.6954 -600.168,8.4318 -816.407,14.25 l 0,5.3126 c 215.999,-5.8174 520.094,-4.6124 816.563,-14.3126 26.188,-0.8567 52.307,-1.7729 78.312,-2.8124 l 0,-5.2813 z m -540.187,78.5313 c -113.936,0.1799 -233.24,2.1434 -354.688,6.9687 l 0,5.3437 c 338.211,-13.4471 659.591,-4.8069 894.875,3.25 l 0,-5.3124 c -150.781,-5.1662 -336.762,-10.5713 -540.187,-10.25 z m -354.688,122.6874 0,5.2813 c 147.6,0.7096 309.154,7.4133 461.157,15.5937 144.427,7.7725 280.223,16.854 387.25,23.375 16.263,0.9911 31.613,1.8889 46.468,2.75 l 0,-5.3124 c -14.76,-0.8514 -29.996,-1.736 -46.125,-2.7188 -106.998,-6.5195 -242.841,-15.5688 -387.312,-23.3438 -152.082,-8.1845 -313.677,-14.9091 -461.438,-15.625 z m 786.094,101.5626 c -155.678,0.6414 -306.35,14.9834 -443.813,32.7187 -127.728,16.4794 -243.998,35.8561 -342.281,49.9687 l 0,5.4063 c 98.563,-14.1351 215.008,-33.6155 342.969,-50.125 169.168,-21.8261 358.276,-38.4655 551.906,-30.7813 l 0,-5.2812 c -36.46,-1.4458 -72.754,-2.0547 -108.781,-1.9062 z m -243.406,135.6874 c -57.123,0.082 -114.044,1.2327 -170.157,3.125 -131.101,4.4216 -257.495,12.8059 -372.531,20.7813 l 0,5.3437 c 115.12,-8.0042 241.532,-16.4193 372.719,-20.8437 172.237,-5.8086 351.897,-4.6735 522.156,13.4687 l 0,-5.375 c -114.923,-12.2141 -234.003,-16.6694 -352.187,-16.5 z m -49.469,67.2188 c -164.172,0.1355 -329.819,14.1967 -493.219,28.9688 l 0,5.4374 c 201.672,-18.2774 406.577,-35.5046 607.657,-26.7812 109.534,4.7519 204.847,11.5675 287.218,19.4062 l 0,-5.3124 c -82.372,-7.8276 -177.53,-14.6273 -286.968,-19.375 -38.113,-1.6535 -76.364,-2.3754 -114.688,-2.3438 z m -488.156,257.3438 c 2.582,2.3913 5.95,3.8437 9.656,3.8437 l 55.156,0 c -21.669,-1.2354 -43.256,-2.5299 -64.812,-3.8437 z"
           transform="matrix(0.16749291,0,0,0.1572502,-553.32188,-804.02789)"
           id="path34178"
           inkscape:connector-curvature="0" />
        <path
           style="opacity:0.1460177;color:#000000;fill:#b86834;fill-opacity:1;fill-rule:nonzero;stroke:none;stroke-width:0;marker:none;visibility:visible;display:inline;overflow:visible;enable-background:accumulate"
           d="m 14449.188,4264.7188 c -1.352,12.344 -1.208,23.6578 0.468,33.7812 -1.314,-10.1824 -1.148,-21.4935 0.438,-33.7812 l -0.906,0 z m -4.75,34.6562 c 1.614,12.4014 5.345,23.3954 11.406,32.5938 4.907,7.4478 11.346,13.6461 19.312,18.4374 l 0,-3.0624 c -8.193,-4.8304 -14.804,-11.1187 -19.812,-18.7188 -5.509,-8.3611 -9.088,-18.2162 -10.906,-29.25 z m -864.157,4.3438 0,3.375 c 146.134,2.015 287.503,15.6785 417.157,32.4062 192.58,24.8467 359.206,56.4196 477.718,66.375 l 0,-3.3125 c -118.541,-9.9116 -285.354,-41.5271 -478.187,-66.4063 -129.515,-16.7098 -270.712,-30.3824 -416.688,-32.4374 z m 216.969,135.4062 c -72.378,-0.09 -145.111,1.5854 -216.969,5.6875 l 0,3.375 c 128.661,-7.3702 260.072,-6.8881 387.407,-2.5937 184.697,6.2289 360.586,20.4219 507.468,30.125 l 0,-3.3126 c -146.968,-9.7037 -323.043,-23.9205 -507.937,-30.1562 -56.065,-1.8908 -112.906,-3.0539 -169.969,-3.125 z m 36.688,67.25 c -33.985,0.1179 -67.888,0.8462 -101.688,2.3125 -54.11,2.3475 -104.641,5.2089 -151.969,8.4375 l 0,3.375 c 47.456,-3.2406 98.188,-6.1139 152.469,-8.4688 246.052,-10.6742 497.841,17.4839 742.406,38.9063 l 0,-3.2813 c -211.134,-18.4853 -427.646,-42.0221 -641.218,-41.2812 z m 641.218,248.1562 c -131.072,9.2864 -267.629,16.9291 -402,23.2188 -173.603,8.1262 -343.373,13.9821 -492.875,18.1875 l 0,3.3437 c 149.615,-4.2063 319.56,-10.0529 493.344,-18.1874 134.21,-6.2823 270.602,-13.9163 401.531,-23.1876 l 0,-3.375 z m 0,90.9063 c -96.971,15.8722 -196.102,32.0772 -296.312,48.4375 -234.864,38.3439 -429.019,69.9542 -598.563,97.5312 l 0,3.4063 c 169.735,-27.611 363.871,-59.2012 599.031,-97.5937 100.05,-16.334 199.013,-32.5267 295.844,-48.375 l 0,-3.4063 z m 0,117.375 c -51.556,4.3317 -103.877,8.5045 -156.562,12.5625 -256.961,19.7918 -521.637,36.7432 -738.313,54.5625 l 0,3.4063 c 216.78,-17.8431 481.686,-34.8205 738.813,-54.625 52.516,-4.045 104.67,-8.2146 156.062,-12.5313 l 0,-3.375 z m 0,114.4063 c -26.006,1.0395 -52.124,1.9557 -78.312,2.8124 -296.483,9.7006 -600.571,8.4943 -816.563,14.3126 l 0,3.3437 c 216.029,-5.8324 520.369,-4.605 817.063,-14.3125 26.02,-0.8513 51.972,-1.7808 77.812,-2.8125 l 0,-3.3437 z m -541.968,78.5312 c -113.408,0.1975 -232.101,2.1979 -352.907,7 l 0,3.4062 c 338.158,-13.4656 659.523,-4.8372 894.875,3.2188 l 0,-3.3438 c -151.243,-5.1811 -337.87,-10.6366 -541.968,-10.2812 z m -352.907,122.7188 0,3.3124 c 147.727,0.7019 309.464,7.4045 461.625,15.5938 144.428,7.7725 280.255,16.8538 387.282,23.375 16.076,0.9796 31.268,1.8659 45.968,2.7188 l 0,-3.3126 c -14.844,-0.8605 -30.185,-1.7597 -46.437,-2.75 -107.026,-6.521 -242.854,-15.6024 -387.281,-23.375 -151.998,-8.1801 -313.557,-14.852 -461.157,-15.5624 z M 14378.688,5380 c -159.721,-0.072 -314.521,14.5337 -455.469,32.7188 -127.96,16.5091 -244.384,35.9672 -342.938,50.0937 l 0,3.25 c 98.455,-14.121 214.711,-33.5167 342.469,-50 169.314,-21.8448 358.601,-38.4828 552.406,-30.75 l 0,-3.4063 c -32.302,-1.2803 -64.489,-1.8918 -96.468,-1.9062 z m -255.75,135.6875 c -57.063,0.071 -113.905,1.2342 -169.969,3.125 -131.177,4.424 -257.587,12.8401 -372.688,20.8437 l 0,3.3126 c 114.978,-7.9937 241.227,-16.3948 372.219,-20.8126 172.395,-5.814 352.249,-4.659 522.656,13.5313 l 0,-3.375 c -114.841,-12.2363 -233.981,-16.7723 -352.218,-16.625 z m -49.438,67.2187 c -164.033,0.1642 -329.674,14.3019 -493.219,29.125 l 0,3.3126 c 201.511,-18.2607 406.243,-35.4662 607.157,-26.75 109.754,4.7614 205.227,11.585 287.718,19.4374 l 0,-3.3437 c -82.402,-7.8441 -177.635,-14.6834 -287.218,-19.4375 -38.027,-1.6496 -76.186,-2.382 -114.438,-2.3438 z"
           transform="matrix(0.16749291,0,0,0.1572502,-553.32188,-804.02789)"
           id="path34181"
           inkscape:connector-curvature="0" />
      </g>
    </g>
  </g>
</svg>
