<?xml version="1.0" encoding="UTF-8" standalone="no"?>
<!-- Created with Inkscape (http://www.inkscape.org/) -->

<svg
   xmlns:dc="http://purl.org/dc/elements/1.1/"
   xmlns:cc="http://creativecommons.org/ns#"
   xmlns:rdf="http://www.w3.org/1999/02/22-rdf-syntax-ns#"
   xmlns:svg="http://www.w3.org/2000/svg"
   xmlns="http://www.w3.org/2000/svg"
   xmlns:sodipodi="http://sodipodi.sourceforge.net/DTD/sodipodi-0.dtd"
   xmlns:inkscape="http://www.inkscape.org/namespaces/inkscape"
   width="1342.558"
   height="1282.9663"
   viewBox="0 0 355.21845 339.45152"
   version="1.1"
   id="svg23489"
   inkscape:version="0.48.5 r10040"
   sodipodi:docname="inner_panels_horizontal_strip.svg">
  <defs
     id="defs23483" />
  <sodipodi:namedview
     id="base"
     pagecolor="#7d848b"
     bordercolor="#666666"
     borderopacity="1.0"
     inkscape:pageopacity="1"
     inkscape:pageshadow="2"
     inkscape:zoom="0.10654466"
     inkscape:cx="84.129432"
     inkscape:cy="-532.15897"
     inkscape:document-units="px"
     inkscape:current-layer="layer1"
     showgrid="false"
     inkscape:pagecheckerboard="false"
     showborder="true"
     units="px"
     inkscape:window-width="1920"
     inkscape:window-height="1017"
     inkscape:window-x="-8"
     inkscape:window-y="-8"
     inkscape:window-maximized="1"
     inkscape:showpageshadow="false"
     guidetolerance="28"
     fit-margin-top="20"
     fit-margin-left="20"
     fit-margin-right="20"
     fit-margin-bottom="20">
    <inkscape:grid
       type="xygrid"
       id="grid24034"
       spacingx="1px"
       spacingy="1px"
       empspacing="8"
       visible="true"
       enabled="true"
       snapvisiblegridlinesonly="true"
       originx="746.45852px"
       originy="-1204.0492px" />
  </sodipodi:namedview>
  <metadata
     id="metadata23486">
    <rdf:RDF>
      <cc:Work
         rdf:about="">
        <dc:format>image/svg+xml</dc:format>
        <dc:type
           rdf:resource="http://purl.org/dc/dcmitype/StillImage" />
        <dc:title></dc:title>
        <cc:license
           rdf:resource="" />
        <dc:creator>
          <cc:Agent>
            <dc:title>Robert Brooks</dc:title>
          </cc:Agent>
        </dc:creator>
      </cc:Work>
    </rdf:RDF>
  </metadata>
  <g
     inkscape:label="Layer 1"
     inkscape:groupmode="layer"
     id="layer1"
     transform="translate(197.50051,361.02288)">
    <g
       transform="matrix(1.9541892,0,0,1.9541892,-3528.5398,-451.45043)"
       id="g33538">
      <path
         sodipodi:nodetypes="ccssssc"
         style="opacity:0.25;color:#000000;fill:#ffffff;fill-opacity:1;fill-rule:nonzero;stroke:none;stroke-width:15;marker:none;visibility:visible;display:inline;overflow:visible;enable-background:accumulate"
         d="m 6457.9789,134.78339 c -3.7212,31.36451 -5.3161,603.26308 -3.7212,608.0475 1.5948,4.78441 6.9108,6.91082 12.7584,7.97402 5.8476,1.06321 637.2702,-2.1264 641.3187,-2.1264 7.8611,0 10.8901,-7.44243 10.8901,-12.22685 0,-4.78441 -3.7213,-592.63104 -5.8477,-596.88386 -2.1264,-4.25281 -655.3983,-4.78441 -655.3983,-4.78441 z"
         id="path33540"
         inkscape:connector-curvature="0"
         transform="matrix(0.26458334,0,0,0.26458334,-6.3049604e-6,18.562493)" />
      <g
         transform="matrix(0.80835005,0,0,0.86100308,321.83243,163.80413)"
         id="g33542"
         style="stroke:#6b3e25;stroke-opacity:1">
        <path
           sodipodi:nodetypes="ssssssssssssssssss"
           style="font-size:medium;font-style:normal;font-variant:normal;font-weight:normal;font-stretch:normal;text-indent:0;text-align:start;text-decoration:none;line-height:normal;letter-spacing:normal;word-spacing:normal;text-transform:none;direction:ltr;block-progression:tb;writing-mode:lr-tb;text-anchor:start;baseline-shift:baseline;opacity:0.34070794;color:#000000;fill:#512b16;fill-opacity:1;fill-rule:nonzero;stroke:none;stroke-width:3.96875;marker:none;visibility:visible;display:inline;overflow:visible;enable-background:accumulate;font-family:Sans;-inkscape-font-specification:Sans"
           d="m 1718.3783,-133.35898 c -2.4305,-0.0164 -4.4838,2.00691 -4.4688,4.4375 l 1.1217,182.555846 c 0.015,2.430601 2.0382,4.4375 4.4688,4.4375 l 206.8914,0 c 2.4306,0 2.8166,-2.006947 2.8381,-4.4375 l 1.5995,-181.151756 c 0.021,-2.43055 -2.007,-4.42109 -4.4376,-4.4375 z m 1.1217,5.37284 206.8914,0 c 0.3006,0 0.4688,0.16822 0.4688,0.46875 l 0,181.151756 c 0,0.30053 -0.1681,0.46875 -0.4688,0.46875 l -206.8914,0 c -0.3004,0 -0.5,-0.16822 -0.5,-0.46875 l 0,-181.151756 c 0,-0.30053 0.1996,-0.46875 0.5,-0.46875 z"
           id="path33544"
           inkscape:connector-curvature="0" />
      </g>
      <g
         id="g33546"
         transform="matrix(0.80835005,0,0,0.86100308,321.83243,164.92935)">
        <path
           sodipodi:nodetypes="sssssssss"
           id="path33548"
           d="m 1719.4959,-129.97807 206.8834,0 c 1.3656,0 2.465,1.09937 2.465,2.46495 l 0,181.132316 c 0,1.36558 -1.0994,2.46494 -2.465,2.46494 l -206.8834,0 c -1.3655,0 -2.4649,-1.09936 -2.4649,-2.46494 l 0,-181.132316 c 0,-1.36558 1.0994,-2.46495 2.4649,-2.46495 z"
           style="color:#000000;fill:#231d19;fill-opacity:1;fill-rule:nonzero;stroke:#3b2213;stroke-width:4.5284338;stroke-linecap:round;stroke-linejoin:round;stroke-miterlimit:4;stroke-opacity:1;stroke-dasharray:none;stroke-dashoffset:0;marker:none;visibility:visible;display:inline;overflow:visible;enable-background:accumulate"
           inkscape:connector-curvature="0" />
        <path
           sodipodi:nodetypes="sssssssss"
           style="color:#000000;fill:#834b2c;fill-opacity:1;fill-rule:nonzero;stroke:none;stroke-width:0;marker:none;visibility:visible;display:inline;overflow:visible;enable-background:accumulate"
           d="m 1719.4959,-129.97807 206.8834,0 c 1.3656,0 2.465,1.09937 2.465,2.46495 l 0,181.132316 c 0,1.36558 -1.0994,2.46494 -2.465,2.46494 l -206.8834,0 c -1.3655,0 -2.4649,-1.09936 -2.4649,-2.46494 l 0,-181.132316 c 0,-1.36558 1.0994,-2.46495 2.4649,-2.46495 z"
           id="path33550"
           inkscape:connector-curvature="0" />
        <path
           sodipodi:nodetypes="csssscc"
           inkscape:connector-curvature="0"
           id="path33552"
           transform="matrix(0.18694361,0,0,0.17551143,-1165.2264,-424.08597)"
           d="m 15417.782,2639.6537 0,82.125 c 0,7.7806 5.883,14.0625 13.188,14.0625 l 1106.677,0 c 7.305,0 13.188,-6.2819 13.188,-14.0625 l 0,-82.125 z"
           style="opacity:0.40265485;color:#000000;fill:#6f3f25;fill-opacity:1;fill-rule:nonzero;stroke:none;stroke-width:0;marker:none;visibility:visible;display:inline;overflow:visible;enable-background:accumulate" />
        <path
           sodipodi:nodetypes="ssccssccssscsssscssc"
           id="path33554"
           transform="matrix(0.16749291,0,0,0.1572502,911.51285,-396.1268)"
           d="m 4823.97,1692.4995 c -8.1526,0 -14.7188,7.0034 -14.7188,15.6875 l 0,33.8125 3.375,-21.9375 c 1.2604,-8.228 6.2671,-15.0313 14.0938,-15.0313 l 1229.4599,0 c 7.8273,0 12.3304,6.9168 14.125,15.0313 l 3.5626,16.0313 0,-27.9063 c 0,-8.6841 -6.5657,-15.6875 -14.7188,-15.6875 z m -14.7188,1149.642 0,17.9375 c 0,8.6841 6.5662,15.6563 14.7188,15.6563 l 1235.1787,0 c 8.1531,0 14.7188,-6.9722 14.7188,-15.6563 l 0,-17.9375 c 0,8.6841 -6.5657,15.7188 -14.7188,15.7188 l -1235.1787,0 c -8.1526,0 -14.7188,-7.0347 -14.7188,-15.7188 z"
           style="opacity:0.36725661;color:#000000;fill:#3b2213;fill-opacity:1;fill-rule:nonzero;stroke:none;stroke-width:0;marker:none;visibility:visible;display:inline;overflow:visible;enable-background:accumulate"
           inkscape:connector-curvature="0" />
        <path
           style="color:#000000;fill:#7b4629;fill-opacity:1;fill-rule:nonzero;stroke:none;stroke-width:0;marker:none;visibility:visible;display:inline;overflow:visible;enable-background:accumulate"
           d="m 13959.594,6055.2812 c -0.839,21.0846 2.964,39.2676 12.218,53.3126 11.465,17.3977 31.282,28.035 59.5,29.7187 109.807,6.5534 254.761,-10.2178 383.626,-61.6563 l 0,-5.6562 c -128.446,51.6867 -273.796,68.5691 -383.344,62.0312 -27.062,-1.615 -44.89,-11.4303 -55.375,-27.3437 -8.494,-12.8893 -12.177,-30.029 -11.344,-50.4063 l -5.281,0 z m -809.25,24.4063 0,5.2813 c 126.906,4.1866 249.498,16.5314 363.094,31.1874 231.299,29.842 425.213,69.3927 543.218,69.5313 112.678,0.1326 241.068,-13.58 358.282,-44.9375 l 0,-5.4062 c -117.017,31.4582 -245.638,45.1951 -358.313,45.0624 -116.828,-0.1372 -311.017,-39.6302 -542.531,-69.5 -113.753,-14.6763 -236.553,-27.0265 -363.75,-31.2187 z m 163.375,134.1563 c -54.432,-0.079 -109.049,0.8412 -163.375,3.0312 l 0,5.3438 c 111.23,-4.5151 223.796,-3.6632 333.344,0.031 335.729,11.3227 642.946,49.0373 798.187,38.0625 47.725,-3.3738 92.111,-10.3919 133.063,-19.8437 l 0,-5.4063 c -41.016,9.5169 -85.533,16.5822 -133.438,19.9687 -153.897,10.8797 -461.61,-26.6989 -797.625,-38.0312 -56.112,-1.8924 -113.031,-3.0734 -170.156,-3.1562 z m 49.437,67.2187 c -38.324,-0.032 -76.545,0.6903 -114.656,2.3437 -34.086,1.4788 -66.779,3.1536 -98.156,5 l 0,5.3126 c 31.44,-1.8514 64.206,-3.5177 98.375,-5 391.622,-16.9897 797.823,64.4517 1166.219,60.375 l 0,-5.4063 c -331.878,3.5725 -695.382,-62.3308 -1051.782,-62.625 z m 1051.782,208.5625 c -23.923,3.0001 -48.531,5.9105 -73.813,8.7188 -220.96,24.5438 -490.547,41.8982 -751.75,54.125 -153.071,7.1649 -303.165,12.5627 -439.031,16.625 l 0,5.2812 c 135.94,-4.063 286.107,-9.455 439.281,-16.625 261.267,-12.2296 530.936,-29.5904 752.094,-54.1562 25.074,-2.7852 49.475,-5.6827 73.219,-8.6563 l 0,-5.3125 z m 0,60.9062 c -201.995,33.3377 -460.605,75.6997 -720.469,118.125 -192.628,31.4486 -375.885,61.3079 -544.125,88.6876 l 0,5.3437 c 168.45,-27.4089 352.01,-57.31 544.968,-88.8125 259.523,-42.3696 517.739,-84.681 719.626,-118 l 0,-5.3438 z m 0,143.75 c -168.401,21.8332 -371.759,39.7854 -580.25,55.8438 -235.98,18.1758 -478.408,33.9061 -684.344,50.1562 l 0,5.3438 c 205.968,-16.2684 448.617,-32.0625 684.75,-50.25 208.247,-16.0396 411.398,-33.9359 579.844,-55.75 l 0,-5.3438 z m 0,127.6876 c -151.011,17.3542 -325.045,27.0298 -501.782,32.8124 -272.617,8.9194 -551.54,8.5491 -762.812,12.9688 l 0,5.3125 c 211.118,-4.419 490.286,-4.1084 763,-13.0313 176.591,-5.7775 350.477,-15.4386 501.594,-32.7812 l 0,-5.2812 z m -966.813,108.5 c -96.107,0.1819 -196.022,1.6531 -297.781,5.0312 l 0,5.3125 c 402.564,-13.3722 776.166,3.1873 1000.844,10.7813 78.81,2.6636 170.719,9.1857 263.75,17.375 l 0,-5.3126 c -92.934,-8.1734 -184.745,-14.6798 -263.563,-17.3437 -167.843,-5.6731 -418.945,-16.3819 -703.25,-15.8437 z m -297.781,123.1874 0,5.2813 c 132.583,1.8331 273.798,7.8931 407.594,15.0937 144.427,7.7725 280.224,16.8539 387.25,23.375 50.352,3.0682 259.393,11.8279 469.75,19.9688 l 0,-5.3438 c -210.208,-8.1275 -419.131,-16.8408 -469.438,-19.9062 -106.999,-6.5195 -242.81,-15.5688 -387.281,-23.3438 -133.88,-7.205 -275.159,-13.2835 -407.875,-15.125 z"
           transform="matrix(0.16749291,0,0,0.1572502,-485.55779,-1082.1718)"
           id="path34226"
           inkscape:connector-curvature="0" />
        <path
           style="opacity:0.1460177;color:#000000;fill:#b86834;fill-opacity:1;fill-rule:nonzero;stroke:none;stroke-width:0;marker:none;visibility:visible;display:inline;overflow:visible;enable-background:accumulate"
           d="m 13964.875,6055.2812 c -0.34,8.2992 0.07,16.0562 1.25,23.2188 -0.928,-7.1956 -1.088,-14.9538 -0.563,-23.2188 l -0.687,0 z m 450.063,21.375 c -128.865,51.4389 -273.851,68.2097 -383.657,61.6563 -28.218,-1.6837 -47.973,-12.2898 -59.437,-29.6875 -5.509,-8.3611 -9.088,-18.2162 -10.906,-29.25 1.614,12.4014 5.314,23.3955 11.374,32.5938 11.465,17.3977 31.251,28.0039 59.469,29.6874 109.662,6.5448 254.418,-10.1265 383.157,-61.4062 l 0,-3.5938 z m -1264.594,8.3126 0,3.375 c 127.08,4.1698 249.853,16.4815 363.594,31.1562 231.299,29.8421 425.213,69.3925 543.218,69.5312 112.528,0.1324 240.696,-13.5433 357.782,-44.8124 l 0,-3.4688 c -117.217,31.3615 -245.598,45.0701 -358.282,44.9375 -118.005,-0.1386 -311.919,-39.6893 -543.218,-69.5313 -113.601,-14.6567 -236.179,-26.9938 -363.094,-31.1874 z m 144.344,134.1874 c -48.131,0.1464 -96.36,1.1148 -144.344,3.0626 l 0,3.3437 c 111.385,-4.538 224.112,-3.6684 333.812,0.031 335.73,11.3225 642.946,49.037 798.188,38.0624 47.542,-3.3608 91.772,-10.3212 132.594,-19.7187 l 0,-3.4687 c -40.96,9.4551 -85.328,16.4692 -133.063,19.8437 -155.241,10.9747 -462.458,-26.7398 -798.187,-38.0625 -62.294,-2.1009 -125.559,-3.2866 -189,-3.0938 z m 55.75,67.2188 c -33.984,0.1179 -67.888,0.8462 -101.688,2.3125 -34.18,1.4829 -66.955,3.1782 -98.406,5.0313 l 0,3.375 c 31.594,-1.8631 64.524,-3.5723 98.875,-5.0626 391.445,-16.9818 797.455,64.3705 1165.719,60.375 l 0,-3.3124 c -336.598,3.7214 -704.739,-63.9669 -1064.5,-62.7188 z m 1064.5,208.5625 c -23.736,2.9716 -48.152,5.8718 -73.219,8.6563 -221.158,24.5657 -490.827,41.9266 -752.094,54.1562 -153.167,7.1696 -303.346,12.5621 -439.281,16.625 l 0,3.3438 c 136.064,-4.0646 286.399,-9.4469 439.75,-16.625 261.267,-12.2297 530.967,-29.5902 752.125,-54.1563 24.898,-2.7657 49.133,-5.6435 72.719,-8.5937 l 0,-3.4063 z m 0,60.9687 c -201.885,33.3179 -460.114,75.6009 -719.626,117.9688 -192.957,31.5024 -376.52,61.4024 -544.968,88.8125 l 0,3.4375 c 168.566,-27.4291 352.322,-57.373 545.468,-88.9062 259.316,-42.3357 517.306,-84.5686 719.126,-117.875 l 0,-3.4376 z m 0,143.6876 c -168.447,21.8148 -371.595,39.7414 -579.844,55.7812 -236.125,18.1869 -478.791,33.9827 -684.75,50.25 l 0,3.4062 c 206.062,-16.2898 448.907,-32.1111 685.218,-50.3124 208.057,-16.0253 411.021,-33.9313 579.376,-55.7188 l 0,-3.4062 z m 0,127.6562 c -151.113,17.3418 -325.015,27.0042 -501.594,32.7812 -272.727,8.9233 -551.883,8.6098 -763,13.0313 l 0,3.375 c 211.173,-4.4319 490.537,-4.1324 763.468,-13.0625 176.397,-5.7711 350.123,-15.411 501.126,-32.7188 l 0,-3.4062 z m -966.844,108.5 c -96.11,0.1816 -196.003,1.6833 -297.75,5.0625 l 0,3.375 c 402.747,-13.3999 776.541,3.1841 1001.312,10.7813 78.677,2.6591 170.411,9.1449 263.282,17.3124 l 0,-3.3124 c -93.04,-8.1916 -184.934,-14.7111 -263.75,-17.375 -167.89,-5.6746 -418.953,-16.3807 -703.094,-15.8438 z m -297.75,123.1875 0,3.3437 c 132.719,1.8272 274.11,7.8846 408.062,15.0938 144.428,7.7725 280.256,16.8538 387.282,23.375 50.313,3.0656 259.058,11.8004 469.25,19.9375 l 0,-3.3125 c -210.356,-8.1424 -419.398,-16.9006 -469.75,-19.9688 -107.026,-6.5211 -242.854,-15.6024 -387.282,-23.375 -133.785,-7.2 -274.988,-13.2582 -407.562,-15.0937 z"
           transform="matrix(0.16749291,0,0,0.1572502,-485.55779,-1082.1718)"
           id="path34229"
           inkscape:connector-curvature="0" />
      </g>
    </g>
  </g>
</svg>
