<?xml version="1.0" encoding="UTF-8" standalone="no"?>
<!-- Created with Inkscape (http://www.inkscape.org/) -->

<svg
   xmlns:dc="http://purl.org/dc/elements/1.1/"
   xmlns:cc="http://creativecommons.org/ns#"
   xmlns:rdf="http://www.w3.org/1999/02/22-rdf-syntax-ns#"
   xmlns:svg="http://www.w3.org/2000/svg"
   xmlns="http://www.w3.org/2000/svg"
   xmlns:sodipodi="http://sodipodi.sourceforge.net/DTD/sodipodi-0.dtd"
   xmlns:inkscape="http://www.inkscape.org/namespaces/inkscape"
   width="2339.416"
   height="457.20383"
   viewBox="0 0 618.97046 120.96852"
   version="1.1"
   id="svg23489"
   inkscape:version="0.48.5 r10040"
   sodipodi:docname="inner_panels_small_square.svg">
  <defs
     id="defs23483" />
  <sodipodi:namedview
     id="base"
     pagecolor="#7d848b"
     bordercolor="#666666"
     borderopacity="1.0"
     inkscape:pageopacity="1"
     inkscape:pageshadow="2"
     inkscape:zoom="0.10654466"
     inkscape:cx="857.21661"
     inkscape:cy="-915.66555"
     inkscape:document-units="px"
     inkscape:current-layer="layer1"
     showgrid="false"
     inkscape:pagecheckerboard="false"
     showborder="true"
     units="px"
     inkscape:window-width="1920"
     inkscape:window-height="1017"
     inkscape:window-x="-8"
     inkscape:window-y="-8"
     inkscape:window-maximized="1"
     inkscape:showpageshadow="false"
     guidetolerance="28"
     fit-margin-top="20"
     fit-margin-left="20"
     fit-margin-right="20"
     fit-margin-bottom="20">
    <inkscape:grid
       type="xygrid"
       id="grid24034"
       spacingx="1px"
       spacingy="1px"
       empspacing="8"
       visible="true"
       enabled="true"
       snapvisiblegridlinesonly="true"
       originx="1519.5457px"
       originy="-1587.5558px" />
  </sodipodi:namedview>
  <metadata
     id="metadata23486">
    <rdf:RDF>
      <cc:Work
         rdf:about="">
        <dc:format>image/svg+xml</dc:format>
        <dc:type
           rdf:resource="http://purl.org/dc/dcmitype/StillImage" />
        <dc:title></dc:title>
        <cc:license
           rdf:resource="" />
        <dc:creator>
          <cc:Agent>
            <dc:title>Robert Brooks</dc:title>
          </cc:Agent>
        </dc:creator>
      </cc:Work>
    </rdf:RDF>
  </metadata>
  <g
     inkscape:label="Layer 1"
     inkscape:groupmode="layer"
     id="layer1"
     transform="translate(402.0465,244.00932)">
    <g
       id="g33484"
       transform="matrix(1.9541892,0,0,1.9541892,-3746.5116,-328.68244)">
      <path
         transform="matrix(0.26458334,0,0,0.26458334,-6.3049604e-6,18.562493)"
         inkscape:connector-curvature="0"
         id="path33486"
         d="m 6483.9481,123.65371 c -3.7212,31.36451 -5.3161,177.02342 -3.7212,181.80784 1.5948,4.78441 6.9108,10.51785 12.7584,11.58105 5.8476,1.06321 1145.4133,-1.14267 1149.4618,-1.14267 7.8611,0 12.8576,-12.03319 12.8576,-16.81761 0,-4.78441 -3.7213,-166.39138 -5.8477,-170.6442 -2.1264,-4.25281 -1165.5089,-4.78441 -1165.5089,-4.78441 z"
         style="opacity:0.25;color:#000000;fill:#ffffff;fill-opacity:1;fill-rule:nonzero;stroke:none;stroke-width:15;marker:none;visibility:visible;display:inline;overflow:visible;enable-background:accumulate"
         sodipodi:nodetypes="ccssssc" />
      <g
         style="stroke:#6b3e25;stroke-opacity:1"
         id="g33488"
         transform="matrix(0.80835005,0,0,0.86100308,321.83243,163.80413)">
        <path
           inkscape:connector-curvature="0"
           id="path33490"
           d="m 1726.8783,-136.77909 c -2.4305,-0.009 -4.5205,2.00735 -4.4688,4.4375 l 1.1217,52.713874 c 0.052,2.430145 2.0382,4.4375 4.4688,4.4375 l 373.8572,0 c 2.4306,0 2.7624,-2.00791 2.8381,-4.4375 l 1.5995,-51.309784 c 0.076,-2.42959 -2.0069,-4.4284 -4.4376,-4.4375 z m 1.1217,5.37284 373.8572,0 c 0.3006,0 0.4688,0.16822 0.4688,0.46875 l 0,51.309784 c 0,0.30053 -0.1681,0.46875 -0.4688,0.46875 l -373.8572,0 c -0.3004,0 -0.5,-0.16822 -0.5,-0.46875 l 0,-51.309784 c 0,-0.30053 0.1996,-0.46875 0.5,-0.46875 z"
           style="font-size:medium;font-style:normal;font-variant:normal;font-weight:normal;font-stretch:normal;text-indent:0;text-align:start;text-decoration:none;line-height:normal;letter-spacing:normal;word-spacing:normal;text-transform:none;direction:ltr;block-progression:tb;writing-mode:lr-tb;text-anchor:start;baseline-shift:baseline;opacity:0.34070794;color:#000000;fill:#512b16;fill-opacity:1;fill-rule:nonzero;stroke:none;stroke-width:3.96875;marker:none;visibility:visible;display:inline;overflow:visible;enable-background:accumulate;font-family:Sans;-inkscape-font-specification:Sans"
           sodipodi:nodetypes="ssssssssssssssssss" />
      </g>
      <g
         transform="matrix(0.80835005,0,0,0.86100308,321.83243,164.92935)"
         id="g33492">
        <path
           inkscape:connector-curvature="0"
           style="color:#000000;fill:#231d19;fill-opacity:1;fill-rule:nonzero;stroke:#3b2213;stroke-width:4.5284338;stroke-linecap:round;stroke-linejoin:round;stroke-miterlimit:4;stroke-opacity:1;stroke-dasharray:none;stroke-dashoffset:0;marker:none;visibility:visible;display:inline;overflow:visible;enable-background:accumulate"
           d="m 1727.9959,-133.39818 373.8492,0 c 1.3656,0 2.465,1.09937 2.465,2.46495 l 0,51.290344 c 0,1.36558 -1.0994,2.46494 -2.465,2.46494 l -373.8492,0 c -1.3655,0 -2.4649,-1.09936 -2.4649,-2.46494 l 0,-51.290344 c 0,-1.36558 1.0994,-2.46495 2.4649,-2.46495 z"
           id="path33494"
           sodipodi:nodetypes="sssssssss" />
        <path
           inkscape:connector-curvature="0"
           id="path33496"
           d="m 1727.9959,-133.39818 373.8492,0 c 1.3656,0 2.465,1.09937 2.465,2.46495 l 0,51.290344 c 0,1.36558 -1.0994,2.46494 -2.465,2.46494 l -373.8492,0 c -1.3655,0 -2.4649,-1.09936 -2.4649,-2.46494 l 0,-51.290344 c 0,-1.36558 1.0994,-2.46495 2.4649,-2.46495 z"
           style="color:#000000;fill:#834b2c;fill-opacity:1;fill-rule:nonzero;stroke:none;stroke-width:0;marker:none;visibility:visible;display:inline;overflow:visible;enable-background:accumulate"
           sodipodi:nodetypes="sssssssss" />
        <path
           style="opacity:0.40265485;color:#000000;fill:#6f3f25;fill-opacity:1;fill-rule:nonzero;stroke:none;stroke-width:0;marker:none;visibility:visible;display:inline;overflow:visible;enable-background:accumulate"
           d="m 15463.25,1880.375 0,82.125 c 0,7.7806 5.883,14.0625 13.188,14.0625 l 1999.812,0 c 7.305,0 13.188,-6.2819 13.188,-14.0625 l 0,-82.125 -2026.188,0 z"
           transform="matrix(0.18694361,0,0,0.17551143,-1165.2264,-424.08597)"
           id="path33498"
           inkscape:connector-curvature="0" />
        <path
           id="path33500"
           transform="matrix(0.16749291,0,0,0.1572502,910.68787,-605.68471)"
           d="m 4879.6562,3003.4062 c -8.1525,0 -14.7187,6.9722 -14.7187,15.6563 l 0,33.8125 3.3437,-21.9375 c 1.2605,-8.228 6.2984,-15.0313 14.125,-15.0313 l 2226.3126,0 c 7.8272,0 12.3303,6.9168 14.125,15.0313 l 3.5312,16.0625 0,-27.9375 c 0,-8.6841 -6.5344,-15.6563 -14.6875,-15.6563 l -2232.0313,0 z m -14.7187,323.9376 0,17.9374 c 0,8.6842 6.5662,15.6563 14.7187,15.6563 l 2232.0313,0 c 8.1531,0 14.6875,-6.9721 14.6875,-15.6563 l 0,-17.9374 c 0,8.6841 -6.5344,15.7187 -14.6875,15.7187 l -2232.0313,0 c -8.1525,0 -14.7187,-7.0346 -14.7187,-15.7187 z"
           style="color:#000000;fill:#683c23;fill-opacity:1;fill-rule:nonzero;stroke:none;stroke-width:0;marker:none;visibility:visible;display:inline;overflow:visible;enable-background:accumulate"
           inkscape:connector-curvature="0" />
        <path
           style="color:#000000;fill:#7b4629;fill-opacity:1;fill-rule:nonzero;stroke:none;stroke-width:0;marker:none;visibility:visible;display:inline;overflow:visible;enable-background:accumulate"
           d="m 13052.531,5604.625 c -56.596,1.0059 -120.464,2.0998 -191.312,3.2812 -261.179,4.3559 -607.573,9.7658 -953.344,15.0313 -479.885,7.308 -868.746,12.9973 -1116.813,16.625 l 0,5.0625 c 248.026,-3.6186 636.936,-9.3151 1116.938,-16.625 345.775,-5.2655 692.186,-10.6753 953.375,-15.0312 70.792,-1.1806 134.595,-2.2761 191.156,-3.2813 l 0,-5.0625 z m -2261.469,54.4375 0,5.0313 c 293.581,3.7821 795.001,36.0043 1275.907,59.875 288.946,14.3425 570.568,25.6655 795.593,25.9687 69.144,0.093 132.923,-0.8443 189.969,-3.0625 l 0,-5.0625 c -56.985,2.2217 -120.797,3.187 -190,3.0937 -224.744,-0.3026 -506.262,-11.6287 -795.156,-25.9687 -481.011,-23.8757 -982.003,-56.1369 -1276.313,-59.875 z m 0,53.25 0,5.0625 c 24.579,0.4954 50.599,1.103 78.344,1.8438 231.196,6.1731 760.981,71.2935 1276.063,114.3437 257.541,21.5255 511.502,37.5217 722.906,37.875 65.919,0.1102 127.68,-1.2435 184.156,-4.4687 l 0,-5.1563 c -56.386,3.2735 -118.17,4.704 -184.125,4.5937 -210.978,-0.3527 -464.791,-16.3282 -722.218,-37.8437 -514.852,-43.0315 -1044.065,-108.199 -1276.532,-114.4063 -27.863,-0.7438 -53.919,-1.3458 -78.594,-1.8437 z m 0,63 0,5.0625 c 612.894,30.5983 1218.415,115.3203 1576.813,164.25 l 37.656,0 c -352.708,-47.9336 -979.538,-137.6405 -1614.469,-169.3125 z m 0,103.1563 0,5.0624 c 164.876,9.5165 368.462,32.9696 575.25,61.0938 l 37.157,0 c -219.315,-30.3452 -437.403,-56.0925 -612.407,-66.1562 z"
           transform="matrix(0.16749291,0,0,0.1572502,-81.896508,-1011.9735)"
           id="path34306"
           inkscape:connector-curvature="0" />
        <path
           style="color:#000000;fill:#935736;fill-opacity:1;fill-rule:nonzero;stroke:none;stroke-width:0;marker:none;visibility:visible;display:inline;overflow:visible;enable-background:accumulate"
           d="m 13052.531,5609.6875 c -56.556,1.0081 -120.344,2.1009 -191.125,3.2813 -261.189,4.3558 -607.63,9.7656 -953.406,15.0312 -480.002,7.3099 -868.914,13.004 -1116.938,16.625 l 0,3.2188 c 248.024,-3.6211 636.937,-9.3152 1116.938,-16.625 345.776,-5.2653 692.217,-10.6758 953.406,-15.0313 70.78,-1.1804 134.569,-2.2732 191.125,-3.2813 l 0,-3.2187 z m -2261.469,54.4375 0,3.25 c 293.571,3.7728 794.957,35.9725 1275.876,59.8438 288.946,14.3421 570.599,25.6658 795.624,25.9687 69.143,0.093 132.92,-0.8427 189.969,-3.0625 l 0,-3.25 c -57.056,2.2205 -120.846,3.1557 -190,3.0625 -225.025,-0.3033 -506.647,-11.6263 -795.593,-25.9687 -480.926,-23.8717 -982.303,-56.0641 -1275.876,-59.8438 z m 0,53.2812 0,3.2188 c 24.588,0.496 50.619,1.1026 78.376,1.8438 231.196,6.1728 760.949,71.2625 1276.031,114.3124 257.541,21.5256 511.533,37.5528 722.937,37.9063 65.907,0.1102 127.66,-1.2754 184.125,-4.5 l 0,-3.2187 c -56.465,3.2246 -118.249,4.5789 -184.156,4.4687 -211.404,-0.3532 -465.365,-16.3495 -722.906,-37.875 -515.082,-43.0502 -1044.835,-108.1393 -1276.031,-114.3125 -27.778,-0.7417 -53.77,-1.3459 -78.376,-1.8438 z m 0,62.9688 0,3.25 c 599.227,29.9166 1191.877,111.6393 1552.969,161 l 23.844,0 c -358.395,-48.93 -963.918,-133.651 -1576.813,-164.25 z m 0,103.1562 0,3.2188 c 158.474,9.148 352.719,31.2016 551.188,57.875 l 23.844,0 c -206.714,-28.113 -410.214,-51.5794 -575.032,-61.0938 z"
           transform="matrix(0.16749291,0,0,0.1572502,-81.896508,-1011.9735)"
           id="path34309"
           inkscape:connector-curvature="0" />
      </g>
    </g>
  </g>
</svg>
