<?xml version="1.0" encoding="UTF-8" standalone="no"?>
<!-- Created with Inkscape (http://www.inkscape.org/) -->

<svg
   xmlns:dc="http://purl.org/dc/elements/1.1/"
   xmlns:cc="http://creativecommons.org/ns#"
   xmlns:rdf="http://www.w3.org/1999/02/22-rdf-syntax-ns#"
   xmlns:svg="http://www.w3.org/2000/svg"
   xmlns="http://www.w3.org/2000/svg"
   xmlns:sodipodi="http://sodipodi.sourceforge.net/DTD/sodipodi-0.dtd"
   xmlns:inkscape="http://www.inkscape.org/namespaces/inkscape"
   width="2339.4109"
   height="1362.0739"
   viewBox="0 0 618.9691 360.38205"
   version="1.1"
   id="svg23489"
   inkscape:version="0.48.5 r10040"
   sodipodi:docname="inner_panels_all.svg">
  <defs
     id="defs23483" />
  <sodipodi:namedview
     id="base"
     pagecolor="#7d848b"
     bordercolor="#666666"
     borderopacity="1.0"
     inkscape:pageopacity="1"
     inkscape:pageshadow="2"
     inkscape:zoom="0.1506769"
     inkscape:cx="2844.7391"
     inkscape:cy="-268.14089"
     inkscape:document-units="px"
     inkscape:current-layer="layer1"
     showgrid="false"
     inkscape:pagecheckerboard="false"
     showborder="true"
     units="px"
     inkscape:window-width="1920"
     inkscape:window-height="1017"
     inkscape:window-x="-8"
     inkscape:window-y="-8"
     inkscape:window-maximized="1"
     inkscape:showpageshadow="false"
     guidetolerance="28"
     fit-margin-top="20"
     fit-margin-left="20"
     fit-margin-right="20"
     fit-margin-bottom="20">
    <inkscape:grid
       type="xygrid"
       id="grid24034"
       spacingx="1px"
       spacingy="1px"
       empspacing="8"
       visible="true"
       enabled="true"
       snapvisiblegridlinesonly="true"
       originx="1637.0955px"
       originy="-616.851px" />
  </sodipodi:namedview>
  <metadata
     id="metadata23486">
    <rdf:RDF>
      <cc:Work
         rdf:about="">
        <dc:format>image/svg+xml</dc:format>
        <dc:type
           rdf:resource="http://purl.org/dc/dcmitype/StillImage" />
        <dc:title></dc:title>
        <cc:license
           rdf:resource="" />
        <dc:creator>
          <cc:Agent>
            <dc:title>Robert Brooks</dc:title>
          </cc:Agent>
        </dc:creator>
      </cc:Work>
    </rdf:RDF>
  </metadata>
  <g
     inkscape:label="Layer 1"
     inkscape:groupmode="layer"
     id="layer1"
     transform="translate(433.14821,226.59054)">
    <g
       transform="matrix(1.9541892,0,0,1.9541892,-3777.6147,-311.26366)"
       id="g33466">
      <path
         sodipodi:nodetypes="ccssssc"
         style="opacity:0.25;color:#000000;fill:#ffffff;fill-opacity:1;fill-rule:nonzero;stroke:none;stroke-width:15;marker:none;visibility:visible;display:inline;overflow:visible;enable-background:accumulate"
         d="m 6483.9481,123.65371 c -3.7212,31.36451 -5.3161,643.74429 -3.7212,648.52871 1.5948,4.78441 6.9108,6.91082 12.7584,7.97402 5.8476,1.06321 1147.3808,-2.1264 1151.4293,-2.1264 7.8611,0 10.8901,-7.44243 10.8901,-12.22685 0,-4.78441 -3.7213,-633.11225 -5.8477,-637.36507 -2.1264,-4.25281 -1165.5089,-4.78441 -1165.5089,-4.78441 z"
         id="path33468"
         inkscape:connector-curvature="0"
         transform="matrix(0.26458334,0,0,0.26458334,-6.3049604e-6,18.562493)" />
      <g
         transform="matrix(0.80835005,0,0,0.86100308,321.83243,163.80413)"
         id="g33470"
         style="stroke:#6b3e25;stroke-opacity:1">
        <path
           sodipodi:nodetypes="ssssssssssssssssss"
           style="font-size:medium;font-style:normal;font-variant:normal;font-weight:normal;font-stretch:normal;text-indent:0;text-align:start;text-decoration:none;line-height:normal;letter-spacing:normal;word-spacing:normal;text-transform:none;direction:ltr;block-progression:tb;writing-mode:lr-tb;text-anchor:start;baseline-shift:baseline;opacity:0.34070794;color:#000000;fill:#512b16;fill-opacity:1;fill-rule:nonzero;stroke:none;stroke-width:3.96875;marker:none;visibility:visible;display:inline;overflow:visible;enable-background:accumulate;font-family:Sans;-inkscape-font-specification:Sans"
           d="m 1726.8783,-136.77909 c -2.4305,-0.009 -4.4828,2.0069 -4.4688,4.4375 l 1.1217,194.995585 c 0.014,2.430599 2.0382,4.4375 4.4688,4.4375 l 373.8572,0 c 2.4306,0 2.818,-2.006944 2.8381,-4.4375 l 1.5995,-193.591495 c 0.02,-2.43056 -2.0069,-4.4284 -4.4376,-4.4375 z m 1.1217,5.37284 373.8572,0 c 0.3006,0 0.4688,0.16822 0.4688,0.46875 l 0,193.591495 c 0,0.30053 -0.1681,0.46875 -0.4688,0.46875 l -373.8572,0 c -0.3004,0 -0.5,-0.16822 -0.5,-0.46875 l 0,-193.591495 c 0,-0.30053 0.1996,-0.46875 0.5,-0.46875 z"
           id="path33472"
           inkscape:connector-curvature="0" />
      </g>
      <g
         id="g33474"
         transform="matrix(0.80835005,0,0,0.86100308,321.83243,164.92935)">
        <path
           sodipodi:nodetypes="sssssssss"
           id="path33476"
           d="m 1727.9959,-133.39818 373.8492,0 c 1.3656,0 2.465,1.09937 2.465,2.46495 l 0,193.572055 c 0,1.36558 -1.0994,2.46494 -2.465,2.46494 l -373.8492,0 c -1.3655,0 -2.4649,-1.09936 -2.4649,-2.46494 l 0,-193.572055 c 0,-1.36558 1.0994,-2.46495 2.4649,-2.46495 z"
           style="color:#000000;fill:#231d19;fill-opacity:1;fill-rule:nonzero;stroke:#3b2213;stroke-width:4.5284338;stroke-linecap:round;stroke-linejoin:round;stroke-miterlimit:4;stroke-opacity:1;stroke-dasharray:none;stroke-dashoffset:0;marker:none;visibility:visible;display:inline;overflow:visible;enable-background:accumulate"
           inkscape:connector-curvature="0" />
        <path
           sodipodi:nodetypes="sssssssss"
           style="color:#000000;fill:#834b2c;fill-opacity:1;fill-rule:nonzero;stroke:none;stroke-width:0;marker:none;visibility:visible;display:inline;overflow:visible;enable-background:accumulate"
           d="m 1727.9959,-133.39818 373.8492,0 c 1.3656,0 2.465,1.09937 2.465,2.46495 l 0,193.572055 c 0,1.36558 -1.0994,2.46494 -2.465,2.46494 l -373.8492,0 c -1.3655,0 -2.4649,-1.09936 -2.4649,-2.46494 l 0,-193.572055 c 0,-1.36558 1.0994,-2.46495 2.4649,-2.46495 z"
           id="path33478"
           inkscape:connector-curvature="0" />
        <path
           sodipodi:nodetypes="csssscc"
           inkscape:connector-curvature="0"
           id="path33480"
           transform="matrix(0.18694361,0,0,0.17551143,-1165.2264,-424.08597)"
           d="m 15463.25,2691.0442 0,82.125 c 0,7.7806 5.883,14.0625 13.188,14.0625 l 1999.812,0 c 7.305,0 13.188,-6.2819 13.188,-14.0625 l 0,-82.125 z"
           style="opacity:0.40265485;color:#000000;fill:#6f3f25;fill-opacity:1;fill-rule:nonzero;stroke:none;stroke-width:0;marker:none;visibility:visible;display:inline;overflow:visible;enable-background:accumulate" />
        <path
           id="path33482"
           transform="matrix(0.16749291,0,0,0.1572502,911.51285,-396.1268)"
           d="m 4874.7188,1670.75 c -8.1526,0 -14.7188,7.0034 -14.7188,15.6875 l 0,33.8125 3.375,-21.9375 c 1.2604,-8.228 6.2671,-15.0313 14.0938,-15.0313 l 2226.3124,0 c 7.8273,0 12.3304,6.9168 14.125,15.0313 l 3.5626,16.0313 0,-27.9063 c 0,-8.6841 -6.5657,-15.6875 -14.7188,-15.6875 l -2232.0312,0 z M 4860,2899.5 l 0,17.9375 c 0,8.6841 6.5662,15.6563 14.7188,15.6563 l 2232.0312,0 c 8.1531,0 14.7188,-6.9722 14.7188,-15.6563 l 0,-17.9375 c 0,8.6841 -6.5657,15.7188 -14.7188,15.7188 l -2232.0312,0 c -8.1526,0 -14.7188,-7.0347 -14.7188,-15.7188 z"
           style="opacity:0.36725661;color:#000000;fill:#3b2213;fill-opacity:1;fill-rule:nonzero;stroke:none;stroke-width:0;marker:none;visibility:visible;display:inline;overflow:visible;enable-background:accumulate"
           inkscape:connector-curvature="0" />
        <path
           style="color:#000000;fill:#7b4629;fill-opacity:1;fill-rule:nonzero;stroke:none;stroke-width:0;marker:none;visibility:visible;display:inline;overflow:visible;enable-background:accumulate"
           d="m 10807.031,4254.4688 c 74.903,89.5448 184.353,143.9247 301.625,173.0937 151.466,37.6738 316.097,33.4897 437.375,8.7187 30.84,-6.2984 51.008,-21.1426 60.907,-42.125 9.897,-20.9826 9.576,-47.66 1.093,-77.6562 -5.491,-19.4163 -14.433,-40.2824 -26.406,-62.0312 l -6.75,0 c 12.619,22.4726 21.957,43.9146 27.531,63.625 8.244,29.1493 8.273,54.3395 -0.781,73.5312 -9.053,19.192 -27.174,32.8655 -56.75,38.9062 -120.383,24.5879 -284.384,28.7519 -434.781,-8.6562 -114.81,-28.5566 -221.591,-81.2572 -295.406,-167.4062 l -7.657,0 z m 1589.907,0 c -99.462,20.9143 -195.054,45.2196 -285.094,70.1562 -250.495,69.374 -458.337,143.4871 -587.094,162.0312 -129.155,18.602 -279.703,23.3864 -418.125,4.6876 -124.878,-16.8693 -239.83,-52.9145 -320.469,-114.75 l 0,7.375 c 81.652,61.1423 196.038,96.4485 319.719,113.1562 139.113,18.7921 290.033,14.0174 419.687,-4.6562 130.055,-18.7312 337.583,-92.8468 587.844,-162.1563 98.387,-27.2481 203.365,-53.7363 312.75,-75.8437 l -29.218,0 z m 432.968,113.1562 c -217.773,0.1101 -449.204,30.3606 -668.062,69.1875 -368.604,65.3925 -701.866,155.2636 -873.219,167.5 -242.281,17.302 -419.308,-60.0441 -502.469,-107.0313 l 0,6.6876 c 85.123,47.5301 262.133,123.4421 502.875,106.25 172.85,-12.3432 505.585,-102.2881 873.875,-167.625 293.716,-52.1068 609.901,-88.5319 884.688,-57.6876 l 0,-5.9374 c -70.268,-7.8795 -143.176,-11.3814 -217.688,-11.3438 z m 127.563,76.5 c -127.8,-0.201 -300.413,6.5797 -525.688,28.8438 -570.819,56.4141 -1141.225,302.8005 -1645.625,264.625 l 0,5.9062 c 506.506,38.2613 1076.829,-208.3861 1646.188,-264.6562 283.357,-28.0044 483.206,-31.4998 615.25,-27.4063 l 0,-5.875 c -27.157,-0.8361 -57.128,-1.3853 -90.125,-1.4375 z m -2171.313,113.625 0,5.9375 c 74.841,8.7723 129.665,28.7709 159.282,50.1563 10.117,7.3062 17.292,14.7395 21.343,21.75 4.052,7.0102 5.039,13.4113 3.25,19.3437 -1.788,5.9324 -6.55,11.6655 -14.969,16.75 -8.418,5.0845 -20.401,9.4617 -36.187,12.5313 -49.545,9.6337 -95.273,13.2194 -132.719,14.0312 l 0,5.875 c 37.767,-0.8098 83.877,-4.4462 133.813,-14.1562 16.254,-3.1604 28.925,-7.6562 38.187,-13.25 9.262,-5.5939 15.186,-12.4117 17.5,-20.0938 2.317,-7.6814 0.858,-15.9729 -3.781,-24 -4.639,-8.0269 -12.384,-15.9197 -22.969,-23.5625 -31.068,-22.4345 -86.907,-42.5864 -162.75,-51.3125 z m 2261.438,159.5312 c -204.338,25.7521 -567.545,69.5335 -949.219,105.9376 -289.847,27.6452 -589.761,50.9549 -837.187,58.6874 -123.715,3.8663 -234.308,3.819 -323.938,-1.5 -60.897,-3.6138 -112.125,-9.7203 -151.094,-18.5937 l 0,6.0625 c 39.353,8.8784 90.308,14.8506 150.75,18.4375 89.914,5.3359 200.645,5.3697 324.469,1.5 247.648,-7.7395 547.613,-31.0664 837.531,-58.7187 381.303,-36.3684 744.174,-80.1347 948.688,-105.9063 l 0,-5.9063 z m -2261.438,224.0938 0,5.8438 c 1.738,0.06 3.186,0.1251 5.094,0.1874 18.917,0.6194 46.139,1.4029 80.469,2.2813 68.662,1.7567 165.767,3.9936 281.812,6.5313 232.096,5.0755 539.897,11.3645 847.157,17.5 470.152,9.3885 852.554,16.7288 1046.906,20.4374 l 0,-5.875 c -194.419,-3.7191 -576.7,-11.0823 -1046.75,-20.4687 -307.256,-6.1354 -615.102,-12.4246 -847.188,-17.5 -116.044,-2.5375 -213.165,-4.775 -281.812,-6.5313 -34.324,-0.8782 -61.515,-1.6002 -80.406,-2.2187 -1.98,-0.065 -3.486,-0.1234 -5.282,-0.1875 z m 2245.813,68.125 c -254.6,0.8899 -723.627,40.9785 -1172.875,70.2188 -256.715,16.709 -506.884,29.866 -706.594,30.2187 -99.854,0.1764 -187.118,-2.8326 -256.188,-10.2187 -44.96,-4.808 -82.238,-11.5484 -110.156,-20.2813 l 0,6.25 c 28.323,8.6947 65.216,15.1392 109.5,19.875 69.421,7.4237 156.866,10.458 256.844,10.2813 199.96,-0.3533 450.208,-13.5692 706.969,-30.2813 458.688,-29.8548 938.37,-70.8907 1188.125,-70.1563 l 0,-5.9062 c -0.736,0 -1.448,0 -2.188,0 -4.407,-0.01 -8.891,-0.015 -13.437,0 z m 15.625,61.2812 c -36.689,0.6617 -77.831,1.7522 -124.188,3.375 -206.572,7.2328 -676.841,83.1406 -1134.344,133.2813 -228.752,25.07 -454.303,43.714 -641.781,44.125 -151.36,0.3319 -277.955,-11.4403 -361.125,-40.7813 l 0,6.3438 c 84.516,29.4336 210.673,40.6112 361.156,40.2812 187.857,-0.4116 413.521,-19.0745 642.376,-44.1562 457.707,-50.1625 928.494,-126.0258 1133.937,-133.2188 46.345,-1.6225 87.305,-2.6852 123.969,-3.3437 l 0,-5.9063 z m 0,71.25 c -592.876,34.0709 -1186.994,147.0668 -1506.719,203.8126 -222.944,39.5683 -536.208,120.541 -723.313,170.9687 l 22.75,0 c 188.925,-50.644 487.382,-127.1688 701.594,-165.1875 319.758,-56.7512 913.453,-169.5933 1505.688,-203.6562 l 0,-5.9376 z m 0,120.125 c -222.371,10.8998 -544.266,67.9462 -833.594,125.2813 -158.025,31.3152 -306.333,62.6869 -423.25,86.7187 -30.673,6.3048 -116.102,22.4202 -225.125,42.6563 l 32.344,0 c 93.8,-17.4677 166.32,-31.2168 194,-36.9063 116.947,-24.0378 265.209,-55.413 423.187,-86.7187 289.113,-57.2927 610.869,-114.2115 832.438,-125.125 l 0,-5.9063 z"
           transform="matrix(0.16749291,0,0,0.1572502,-81.071525,-802.41565)"
           id="path34300"
           inkscape:connector-curvature="0" />
        <path
           style="opacity:0.2035398;color:#000000;fill:#b86834;fill-opacity:1;fill-rule:nonzero;stroke:none;stroke-width:0;marker:none;visibility:visible;display:inline;overflow:visible;enable-background:accumulate"
           d="m 10803.875,4254.4688 c 74.968,91.7957 185.87,147.2982 304.781,176.875 151.467,37.6737 316.097,33.4895 437.375,8.7187 30.84,-6.2983 50.977,-21.1427 60.875,-42.125 5.233,-11.0933 7.579,-23.7946 7.406,-37.7187 -0.267,12.4487 -2.649,23.885 -7.406,33.9687 -9.898,20.9823 -30.035,35.7952 -60.875,42.0937 -121.278,24.771 -285.908,28.9551 -437.375,-8.7187 -117.269,-29.1682 -226.721,-83.5523 -301.625,-173.0937 l -3.156,0 z m 768.813,0 c 13.71,23.8498 23.801,46.594 29.687,67.4062 3.873,13.6952 5.935,26.4844 6.094,38.2188 0.279,-12.7371 -1.803,-26.7976 -6.094,-41.9688 -5.577,-19.7201 -14.905,-41.1695 -27.531,-63.6562 l -2.156,0 z m 853.437,0 c -109.38,22.1132 -214.369,48.5971 -312.75,75.8437 -250.261,69.3094 -457.789,143.4564 -587.844,162.1875 -129.654,18.6736 -280.543,23.4171 -419.656,4.625 -123.68,-16.7075 -238.065,-51.9859 -319.719,-113.125 l 0,3.75 c 81.654,61.14 196.038,96.4173 319.719,113.125 139.113,18.792 290.002,14.0486 419.656,-4.625 130.055,-18.7312 337.583,-92.8467 587.844,-162.1562 104.021,-28.8084 215.417,-56.798 331.594,-79.625 l -18.844,0 z m 403.781,119.125 c -217.225,0.1193 -448.327,30.2062 -667,69 -368.29,65.3369 -700.994,155.2817 -873.844,167.625 -240.741,17.1921 -417.779,-58.7171 -502.906,-106.25 l 0,3.75 c 85.131,47.5332 262.143,123.4413 502.875,106.25 172.849,-12.3434 505.554,-102.2883 873.844,-167.625 293.716,-52.1069 609.925,-88.534 884.719,-57.6876 l 0,-3.75 c -70.216,-7.8828 -143.142,-11.3534 -217.688,-11.3124 z m 127.563,76.4374 c -127.583,-0.2006 -300.027,6.566 -525.125,28.8126 -569.347,56.269 -1139.69,302.9043 -1646.188,264.6562 l 0,3.7812 c 506.498,38.2477 1076.811,-208.4185 1646.156,-264.6874 283.363,-28.0048 483.238,-31.4999 615.282,-27.4063 l 0,-3.75 c -27.145,-0.8364 -57.105,-1.3534 -90.125,-1.4063 z m -2171.313,113.6563 0,3.75 c 74.84,8.778 129.667,28.772 159.282,50.1563 10.117,7.306 17.292,14.7395 21.343,21.75 2.347,4.0606 3.687,7.9097 4.031,11.5937 0.434,-4.7985 -0.839,-9.8753 -4,-15.3437 -4.051,-7.0105 -11.257,-14.4438 -21.374,-21.75 -29.615,-21.3842 -84.442,-41.3783 -159.282,-50.1563 z m 190.532,87.4687 c -0.137,1.8443 -0.492,3.678 -1.032,5.4688 -2.314,7.682 -8.238,14.5 -17.5,20.0938 -9.262,5.5939 -21.933,10.0896 -38.187,13.25 -49.95,9.7126 -96.041,13.3454 -133.813,14.1562 l 0,3.75 c 37.769,-0.8113 83.868,-4.4447 133.813,-14.1562 16.254,-3.1605 28.925,-7.6563 38.187,-13.25 9.262,-5.594 15.186,-12.4118 17.5,-20.0938 0.904,-2.9974 1.244,-6.0914 1.032,-9.2188 z m 2070.906,72.0313 c -204.515,25.7717 -567.355,69.5068 -948.656,105.875 -289.919,27.6523 -589.915,50.9792 -837.563,58.7187 -123.824,3.8696 -234.524,3.8672 -324.437,-1.4687 -60.452,-3.5875 -111.43,-9.5598 -150.782,-18.4375 l 0,3.75 c 39.352,8.8777 90.33,14.85 150.782,18.4375 89.913,5.3356 200.613,5.3697 324.437,1.5 247.648,-7.7392 547.644,-31.0665 837.563,-58.7187 381.302,-36.3686 744.141,-80.1347 948.656,-105.9063 l 0,-3.75 z m -2261.438,224.0313 0,3.7812 c 1.739,0.058 3.186,0.094 5.094,0.1562 18.917,0.6192 46.108,1.4034 80.438,2.2813 68.662,1.7569 165.767,4.0248 281.812,6.5625 232.095,5.0751 539.928,11.3649 847.188,17.5 470.151,9.3886 852.556,16.7262 1046.906,20.4375 l 0,-3.75 c -194.36,-3.7114 -576.736,-11.0805 -1046.875,-20.4687 -307.26,-6.1356 -615.092,-12.4246 -847.188,-17.5 -116.045,-2.5377 -213.181,-4.7746 -281.843,-6.5313 -34.33,-0.8783 -61.521,-1.662 -80.438,-2.2813 -1.908,-0.062 -3.354,-0.1291 -5.094,-0.1874 z m 2247.375,68.1874 c -253.398,0.7777 -723.854,40.8534 -1174.062,70.1563 -256.761,16.712 -507.009,29.9279 -706.969,30.2813 -99.978,0.1766 -187.392,-2.8576 -256.812,-10.2813 -44.285,-4.7358 -81.202,-11.1817 -109.532,-19.875 l 0,3.75 c 28.328,8.6907 65.225,15.1402 109.5,19.875 69.421,7.4237 156.867,10.4581 256.844,10.2813 199.96,-0.353 450.208,-13.5385 706.969,-30.25 458.708,-29.8561 938.383,-70.901 1188.125,-70.1563 l 0,-3.7813 c -0.725,0 -1.428,0 -2.156,0 -3.912,-0.01 -7.885,-0.012 -11.907,0 z m 14.063,61.2813 c -36.628,0.6648 -77.725,1.7549 -124,3.375 -205.444,7.1931 -676.199,83.025 -1133.906,133.1875 -228.855,25.0818 -454.519,43.7446 -642.376,44.1562 -150.484,0.3301 -276.644,-10.8767 -361.156,-40.3124 l 0,3.7812 c 84.512,29.4351 210.673,40.6111 361.156,40.2812 187.857,-0.4118 413.521,-19.0432 642.376,-44.125 457.707,-50.1622 928.462,-126.026 1133.906,-133.2187 46.349,-1.6227 87.331,-2.6834 124,-3.3437 l 0,-3.7813 z m 0,71.25 c -592.232,34.0634 -1185.899,146.9363 -1505.656,203.6875 -214.252,38.0256 -512.798,114.539 -701.719,165.1875 l 14.062,0 c 189.45,-50.5976 478.804,-124.3388 687.657,-161.4063 319.761,-56.7519 913.416,-169.5944 1505.656,-203.6562 l 0,-3.8125 z m 0,120.125 c -221.568,10.9184 -543.339,67.8351 -832.438,125.125 -157.978,31.3057 -306.272,62.7121 -423.218,86.75 -27.677,5.6888 -100.186,19.4097 -193.969,36.875 l 20.219,0 c 83.605,-15.6037 148.142,-27.8615 173.75,-33.125 116.946,-24.0379 265.24,-55.4443 423.218,-86.75 289.105,-57.2915 610.869,-114.2089 832.438,-125.125 l 0,-3.75 z"
           transform="matrix(0.16749291,0,0,0.1572502,-81.071525,-802.41565)"
           id="path34303"
           inkscape:connector-curvature="0" />
      </g>
    </g>
  </g>
</svg>
