<?xml version="1.0" encoding="UTF-8" standalone="no"?>
<!-- Created with Inkscape (http://www.inkscape.org/) -->

<svg
   xmlns:dc="http://purl.org/dc/elements/1.1/"
   xmlns:cc="http://creativecommons.org/ns#"
   xmlns:rdf="http://www.w3.org/1999/02/22-rdf-syntax-ns#"
   xmlns:svg="http://www.w3.org/2000/svg"
   xmlns="http://www.w3.org/2000/svg"
   xmlns:sodipodi="http://sodipodi.sourceforge.net/DTD/sodipodi-0.dtd"
   xmlns:inkscape="http://www.inkscape.org/namespaces/inkscape"
   width="256.94165"
   height="256.94162"
   viewBox="0 0 67.982475 67.982474"
   version="1.1"
   id="svg23489"
   inkscape:version="0.48.5 r10040"
   sodipodi:docname="inner_panels_large_square.svg">
  <defs
     id="defs23483" />
  <sodipodi:namedview
     id="base"
     pagecolor="#7d848b"
     bordercolor="#666666"
     borderopacity="1.0"
     inkscape:pageopacity="1"
     inkscape:pageshadow="2"
     inkscape:zoom="0.10654466"
     inkscape:cx="-551.5956"
     inkscape:cy="-554.77174"
     inkscape:document-units="px"
     inkscape:current-layer="layer1"
     showgrid="false"
     inkscape:pagecheckerboard="false"
     showborder="true"
     units="px"
     inkscape:window-width="1920"
     inkscape:window-height="1017"
     inkscape:window-x="-8"
     inkscape:window-y="-8"
     inkscape:window-maximized="1"
     inkscape:showpageshadow="false"
     guidetolerance="28"
     fit-margin-top="20"
     fit-margin-left="20"
     fit-margin-right="20"
     fit-margin-bottom="20">
    <inkscape:grid
       type="xygrid"
       id="grid24034"
       spacingx="1px"
       spacingy="1px"
       empspacing="8"
       visible="true"
       enabled="true"
       snapvisiblegridlinesonly="true"
       originx="883.82067px"
       originy="-1610.1686px" />
  </sodipodi:namedview>
  <metadata
     id="metadata23486">
    <rdf:RDF>
      <cc:Work
         rdf:about="">
        <dc:format>image/svg+xml</dc:format>
        <dc:type
           rdf:resource="http://purl.org/dc/dcmitype/StillImage" />
        <dc:title></dc:title>
        <cc:license
           rdf:resource="" />
        <dc:creator>
          <cc:Agent>
            <dc:title>Robert Brooks</dc:title>
          </cc:Agent>
        </dc:creator>
      </cc:Work>
    </rdf:RDF>
  </metadata>
  <g
     inkscape:label="Layer 1"
     inkscape:groupmode="layer"
     id="layer1"
     transform="translate(233.84424,197.00624)">
    <g
       id="g33556"
       transform="matrix(0.98924022,0,0,1.0161416,-1924.2503,-238.49364)">
      <path
         transform="matrix(0.26458334,0,0,0.26458334,-6.3049604e-6,18.562493)"
         inkscape:connector-curvature="0"
         id="path33558"
         d="m 6483.9481,123.65371 c -3.7212,31.36451 -5.3161,177.02342 -3.7212,181.80784 1.5948,4.78441 6.9108,10.51785 12.7584,11.58105 5.8476,1.06321 188.0547,-1.14267 192.1032,-1.14267 7.8611,0 12.8576,-12.03319 12.8576,-16.81761 0,-4.78441 -3.7213,-166.39138 -5.8477,-170.6442 -2.1264,-4.25281 -208.1503,-4.78441 -208.1503,-4.78441 z"
         style="opacity:0.25;color:#000000;fill:#ffffff;fill-opacity:1;fill-rule:nonzero;stroke:none;stroke-width:15;marker:none;visibility:visible;display:inline;overflow:visible;enable-background:accumulate"
         sodipodi:nodetypes="ccssssc" />
      <g
         style="stroke:#6b3e25;stroke-opacity:1"
         id="g33560"
         transform="matrix(0.80835005,0,0,0.86100308,321.83243,163.80413)">
        <path
           inkscape:connector-curvature="0"
           id="path33562"
           d="m 1726.8783,-136.77909 c -2.4298,-0.0554 -4.5205,2.00735 -4.4688,4.4375 l 1.1217,52.713874 c 0.052,2.430145 2.0382,4.4375 4.4688,4.4375 l 60.5015,0 c 2.4306,0 2.7623,-2.007911 2.8381,-4.4375 l 1.5995,-51.309784 c 0.076,-2.4296 -2.0076,-4.38213 -4.4376,-4.4375 z m 1.1217,5.37284 60.5015,0 c 0.3006,0 0.4688,0.16822 0.4688,0.46875 l 0,51.309784 c 0,0.30053 -0.1681,0.46875 -0.4688,0.46875 l -60.5015,0 c -0.3004,0 -0.5,-0.16822 -0.5,-0.46875 l 0,-51.309784 c 0,-0.30053 0.1996,-0.46875 0.5,-0.46875 z"
           style="font-size:medium;font-style:normal;font-variant:normal;font-weight:normal;font-stretch:normal;text-indent:0;text-align:start;text-decoration:none;line-height:normal;letter-spacing:normal;word-spacing:normal;text-transform:none;direction:ltr;block-progression:tb;writing-mode:lr-tb;text-anchor:start;baseline-shift:baseline;opacity:0.34070794;color:#000000;fill:#512b16;fill-opacity:1;fill-rule:nonzero;stroke:none;stroke-width:3.96875;marker:none;visibility:visible;display:inline;overflow:visible;enable-background:accumulate;font-family:Sans;-inkscape-font-specification:Sans"
           sodipodi:nodetypes="ssssssssssssssssss" />
      </g>
      <g
         transform="matrix(0.80835005,0,0,0.86100308,321.83243,164.92935)"
         id="g33564">
        <path
           inkscape:connector-curvature="0"
           style="color:#000000;fill:#231d19;fill-opacity:1;fill-rule:nonzero;stroke:#3b2213;stroke-width:4.5284338;stroke-linecap:round;stroke-linejoin:round;stroke-miterlimit:4;stroke-opacity:1;stroke-dasharray:none;stroke-dashoffset:0;marker:none;visibility:visible;display:inline;overflow:visible;enable-background:accumulate"
           d="m 1727.9959,-133.39818 60.4935,0 c 1.3656,0 2.465,1.09937 2.465,2.46495 l 0,51.290344 c 0,1.36558 -1.0994,2.46494 -2.465,2.46494 l -60.4935,0 c -1.3655,0 -2.4649,-1.09936 -2.4649,-2.46494 l 0,-51.290344 c 0,-1.36558 1.0994,-2.46495 2.4649,-2.46495 z"
           id="path33566"
           sodipodi:nodetypes="sssssssss" />
        <path
           inkscape:connector-curvature="0"
           id="path33568"
           d="m 1727.9959,-133.39818 60.4935,0 c 1.3656,0 2.465,1.09937 2.465,2.46495 l 0,51.290344 c 0,1.36558 -1.0994,2.46494 -2.465,2.46494 l -60.4935,0 c -1.3655,0 -2.4649,-1.09936 -2.4649,-2.46494 l 0,-51.290344 c 0,-1.36558 1.0994,-2.46495 2.4649,-2.46495 z"
           style="color:#000000;fill:#834b2c;fill-opacity:1;fill-rule:nonzero;stroke:none;stroke-width:0;marker:none;visibility:visible;display:inline;overflow:visible;enable-background:accumulate"
           sodipodi:nodetypes="sssssssss" />
        <path
           sodipodi:nodetypes="csssscc"
           style="opacity:0.40265485;color:#000000;fill:#6f3f25;fill-opacity:1;fill-rule:nonzero;stroke:none;stroke-width:0;marker:none;visibility:visible;display:inline;overflow:visible;enable-background:accumulate"
           d="m 15463.25,1880.375 0,82.125 c 0,7.7806 5.883,14.0625 13.188,14.0625 l 323.607,0 c 7.305,0 13.188,-6.2819 13.188,-14.0625 l 0,-82.125 z"
           transform="matrix(0.18694361,0,0,0.17551143,-1165.2264,-424.08597)"
           id="path33570"
           inkscape:connector-curvature="0" />
        <path
           sodipodi:nodetypes="ssccssccssscsssscssc"
           inkscape:connector-curvature="0"
           id="path33572"
           transform="matrix(0.16749291,0,0,0.1572502,910.68787,-605.68471)"
           d="m 4879.6562,3003.4062 c -8.1525,0 -14.7187,6.9722 -14.7187,15.6563 l 0,33.8125 3.3437,-21.9375 c 1.2605,-8.228 6.2984,-15.0313 14.125,-15.0313 l 355.4529,0 c 7.8272,0 12.3303,6.9168 14.125,15.0313 l 3.5312,16.0625 0,-27.9375 c 0,-8.6841 -6.5344,-15.6563 -14.6875,-15.6563 z m -14.7187,323.9376 0,17.9374 c 0,8.6842 6.5662,15.6563 14.7187,15.6563 l 361.1716,0 c 8.1531,0 14.6875,-6.9721 14.6875,-15.6563 l 0,-17.9374 c 0,8.6841 -6.5344,15.7187 -14.6875,15.7187 l -361.1716,0 c -8.1525,0 -14.7187,-7.0346 -14.7187,-15.7187 z"
           style="color:#000000;fill:#683c23;fill-opacity:1;fill-rule:nonzero;stroke:none;stroke-width:0;marker:none;visibility:visible;display:inline;overflow:visible;enable-background:accumulate" />
        <path
           style="opacity:0.26106196;color:#000000;fill:#b86834;fill-opacity:1;fill-rule:nonzero;stroke:none;stroke-width:0;marker:none;visibility:visible;display:inline;overflow:visible;enable-background:accumulate"
           d="m 10884.5,6886.125 c -28.423,6.9769 -57.947,10.3985 -86.375,11.0938 l 0,1.5624 c 28.772,-0.6998 58.667,-4.1954 87.406,-11.3437 1.714,-0.4263 3.42,-0.8599 5.125,-1.3125 l -6.156,0 z m 103.938,0 c -29.393,14.3286 -64.576,23.4427 -101.782,28.4688 -28.868,3.8996 -58.937,5.3501 -88.531,4.8437 l 0,1.5625 c 29.594,0.5064 59.694,-0.9441 88.563,-4.8438 38.183,-5.158 74.211,-14.6057 104.062,-29.5937 -0.729,-0.2635 -1.501,-0.434 -2.312,-0.4375 z m 7.437,42.8438 c -39.741,18.1993 -103.46,38.1556 -184.844,32.3437 -4.078,-0.2913 -8.406,-0.7261 -12.906,-1.2187 l 0,1.5624 c 4.5,0.4927 8.828,0.8963 12.906,1.1876 81.391,5.8123 145.104,-14.1434 184.844,-32.3438 l 0,-1.5312 z m 0,16.9062 c -19.356,4.2602 -33.957,10.4217 -42.937,16.9062 -4.179,3.0174 -7.14,6.1048 -8.813,9 -1.305,2.2584 -1.867,4.3621 -1.687,6.3438 0.142,-1.5214 0.718,-3.1355 1.687,-4.8125 1.673,-2.8952 4.634,-5.9515 8.813,-8.9687 8.979,-6.4841 23.584,-12.6462 42.937,-16.9063 l 0,-1.5625 z m -55.844,32.3438 c -0.09,1.2915 0.06,2.5433 0.438,3.7812 0.956,3.1725 3.393,6.0023 7.219,8.3125 3.825,2.3101 9.037,4.1635 15.75,5.4687 11.391,2.2151 22.321,3.6522 32.437,4.5626 l 0,-1.5313 c -10.116,-0.9103 -21.046,-2.3787 -32.437,-4.5937 -6.713,-1.3052 -11.925,-3.1586 -15.75,-5.4688 -3.826,-2.3101 -6.295,-5.1087 -7.25,-8.2812 -0.224,-0.7396 -0.351,-1.4884 -0.407,-2.25 z m -141.906,21.3124 0,1.5313 c 67.746,12.521 133.91,20.3396 197.75,18.0625 l 0,-1.5312 c -63.839,2.277 -130.005,-5.5417 -197.75,-18.0626 z"
           transform="matrix(0.33087296,0,0,0.30241516,-1847.2783,-2215.8697)"
           id="path34284"
           inkscape:connector-curvature="0" />
        <path
           style="color:#000000;fill:#7b4629;fill-opacity:1;fill-rule:nonzero;stroke:none;stroke-width:0;marker:none;visibility:visible;display:inline;overflow:visible;enable-background:accumulate"
           d="m 10873.625,6886.125 c -25.001,5.3461 -50.663,8.0174 -75.5,8.625 l 0,2.4688 c 28.427,-0.6933 57.952,-4.1169 86.375,-11.0938 l -10.875,0 z m 109.125,0 c -28.119,12.9252 -61.295,21.3549 -96.375,26.0938 -28.736,3.8817 -58.744,5.2928 -88.25,4.7812 l 0,2.4375 c 29.597,0.5074 59.694,-0.9441 88.563,-4.8437 37.205,-5.0261 72.358,-14.1384 101.75,-28.4688 -0.01,0 -0.02,0 -0.03,0 l -5.656,0 z m 13.125,40.1875 c -39.337,18.1791 -102.985,38.3949 -184.656,32.5625 -4.126,-0.2947 -8.523,-0.7145 -13.094,-1.2188 l 0,2.4376 c 4.5,0.4926 8.828,0.9274 12.906,1.2187 81.385,5.8119 145.105,-14.1455 184.844,-32.3437 l 0,-2.6563 z m 0,17.0313 c -19.843,4.2956 -34.898,10.6254 -44.375,17.4687 -4.371,3.1563 -7.553,6.435 -9.469,9.75 -1.915,3.3151 -2.55,6.734 -1.593,9.9063 0.955,3.1725 3.425,6.0023 7.25,8.3124 3.824,2.3102 9.037,4.1636 15.75,5.4688 11.391,2.2151 22.321,3.6525 32.437,4.5625 l 0,-2.4375 c -9.979,-0.9052 -20.738,-2.3475 -31.969,-4.5312 -6.519,-1.2677 -11.461,-3.0565 -14.937,-5.1563 -3.477,-2.0998 -5.449,-4.4563 -6.188,-6.9063 -0.739,-2.4499 -0.329,-5.1048 1.344,-8 1.673,-2.8952 4.634,-5.9826 8.813,-9 8.98,-6.4845 23.583,-12.6479 42.937,-16.9062 l 0,-2.5312 z m -197.75,53.625 0,2.5624 c 67.751,12.5216 133.905,20.3417 197.75,18.0626 l 0,-2.4376 c -63.757,2.2663 -129.917,-5.617 -197.75,-18.1874 z m 195.687,72.5312 c -7.676,0.9939 -15.998,1.8381 -24.906,2.5312 l 19.5,0 c 2.134,0 4.051,-0.9682 5.406,-2.5312 z"
           transform="matrix(0.33087296,0,0,0.30241516,-1847.2783,-2215.8697)"
           id="path34287"
           inkscape:connector-curvature="0" />
      </g>
    </g>
  </g>
</svg>
