<?xml version="1.0" encoding="UTF-8" standalone="no"?>
<!-- Created with Inkscape (http://www.inkscape.org/) -->

<svg
   xmlns:dc="http://purl.org/dc/elements/1.1/"
   xmlns:cc="http://creativecommons.org/ns#"
   xmlns:rdf="http://www.w3.org/1999/02/22-rdf-syntax-ns#"
   xmlns:svg="http://www.w3.org/2000/svg"
   xmlns="http://www.w3.org/2000/svg"
   xmlns:sodipodi="http://sodipodi.sourceforge.net/DTD/sodipodi-0.dtd"
   xmlns:inkscape="http://www.inkscape.org/namespaces/inkscape"
   width="440.00003"
   height="1362.0803"
   viewBox="0 0 116.41667 360.38376"
   version="1.1"
   id="svg23489"
   inkscape:version="0.48.5 r10040"
   sodipodi:docname="inner_panels_large_rect.svg">
  <defs
     id="defs23483" />
  <sodipodi:namedview
     id="base"
     pagecolor="#7d848b"
     bordercolor="#666666"
     borderopacity="1.0"
     inkscape:pageopacity="1"
     inkscape:pageshadow="2"
     inkscape:zoom="0.1506769"
     inkscape:cx="507.09677"
     inkscape:cy="-278.39398"
     inkscape:document-units="px"
     inkscape:current-layer="layer1"
     showgrid="false"
     inkscape:pagecheckerboard="false"
     showborder="true"
     units="px"
     inkscape:window-width="1920"
     inkscape:window-height="1017"
     inkscape:window-x="-8"
     inkscape:window-y="-8"
     inkscape:window-maximized="1"
     inkscape:showpageshadow="false"
     guidetolerance="28"
     fit-margin-top="20"
     fit-margin-left="20"
     fit-margin-right="20"
     fit-margin-bottom="20">
    <inkscape:grid
       type="xygrid"
       id="grid24034"
       spacingx="1px"
       spacingy="1px"
       empspacing="8"
       visible="true"
       enabled="true"
       snapvisiblegridlinesonly="true"
       originx="-700.54686px"
       originy="-627.10409px" />
  </sodipodi:namedview>
  <metadata
     id="metadata23486">
    <rdf:RDF>
      <cc:Work
         rdf:about="">
        <dc:format>image/svg+xml</dc:format>
        <dc:type
           rdf:resource="http://purl.org/dc/dcmitype/StillImage" />
        <dc:title></dc:title>
        <cc:license
           rdf:resource="" />
        <dc:creator>
          <cc:Agent>
            <dc:title>Robert Brooks</dc:title>
          </cc:Agent>
        </dc:creator>
      </cc:Work>
    </rdf:RDF>
  </metadata>
  <g
     inkscape:label="Layer 1"
     inkscape:groupmode="layer"
     id="layer1"
     transform="translate(-185.35301,229.30506)">
    <g
       id="g11294"
       transform="matrix(1.7970596,0,0,1.9541892,-2889.771,-313.97646)">
      <path
         transform="matrix(0.26458334,0,0,0.26458334,-6.3049604e-6,18.562493)"
         inkscape:connector-curvature="0"
         id="path11296"
         d="m 6483.9481,123.65371 c -3.7212,31.36451 -5.3161,643.74429 -3.7212,648.52871 1.5948,4.78441 6.9108,6.91082 12.7584,7.97402 5.8476,1.06321 193.3094,-2.1264 197.3579,-2.1264 7.8611,0 10.8901,-7.44243 10.8901,-12.22685 0,-4.78441 -3.7213,-633.11225 -5.8477,-637.36507 -2.1264,-4.25281 -211.4375,-4.78441 -211.4375,-4.78441 z"
         style="opacity:0.25;color:#000000;fill:#ffffff;fill-opacity:1;fill-rule:nonzero;stroke:none;stroke-width:15;marker:none;visibility:visible;display:inline;overflow:visible;enable-background:accumulate"
         sodipodi:nodetypes="ccssssc" />
      <g
         style="stroke:#6b3e25;stroke-opacity:1"
         id="g11298"
         transform="matrix(0.80835005,0,0,0.86100308,321.83243,163.80413)">
        <path
           inkscape:connector-curvature="0"
           id="path11300"
           d="m 1726.8783,-136.77909 c -2.4298,-0.0544 -4.4828,2.0069 -4.4688,4.4375 l 1.1217,194.995585 c 0.014,2.430599 2.0382,4.4375 4.4688,4.4375 l 61.5774,0 c 2.4306,0 2.818,-2.006944 2.8381,-4.4375 l 1.5995,-193.591495 c 0.02,-2.43056 -2.0076,-4.38308 -4.4376,-4.4375 z m 1.1217,5.37284 61.5774,0 c 0.3006,0 0.4688,0.16822 0.4688,0.46875 l 0,193.591495 c 0,0.30053 -0.1681,0.46875 -0.4688,0.46875 l -61.5774,0 c -0.3004,0 -0.5,-0.16822 -0.5,-0.46875 l 0,-193.591495 c 0,-0.30053 0.1996,-0.46875 0.5,-0.46875 z"
           style="font-size:medium;font-style:normal;font-variant:normal;font-weight:normal;font-stretch:normal;text-indent:0;text-align:start;text-decoration:none;line-height:normal;letter-spacing:normal;word-spacing:normal;text-transform:none;direction:ltr;block-progression:tb;writing-mode:lr-tb;text-anchor:start;baseline-shift:baseline;opacity:0.34070794;color:#000000;fill:#512b16;fill-opacity:1;fill-rule:nonzero;stroke:none;stroke-width:3.96875;marker:none;visibility:visible;display:inline;overflow:visible;enable-background:accumulate;font-family:Sans;-inkscape-font-specification:Sans"
           sodipodi:nodetypes="ssssssssssssssssss" />
      </g>
      <g
         transform="matrix(0.80835005,0,0,0.86100308,321.83243,164.92935)"
         id="g11302">
        <path
           inkscape:connector-curvature="0"
           style="color:#000000;fill:#231d19;fill-opacity:1;fill-rule:nonzero;stroke:#3b2213;stroke-width:4.5284338;stroke-linecap:round;stroke-linejoin:round;stroke-miterlimit:4;stroke-opacity:1;stroke-dasharray:none;stroke-dashoffset:0;marker:none;visibility:visible;display:inline;overflow:visible;enable-background:accumulate"
           d="m 1727.9959,-133.39818 61.5694,0 c 1.3656,0 2.465,1.09937 2.465,2.46495 l 0,193.572055 c 0,1.36558 -1.0994,2.46494 -2.465,2.46494 l -61.5694,0 c -1.3655,0 -2.4649,-1.09936 -2.4649,-2.46494 l 0,-193.572055 c 0,-1.36558 1.0994,-2.46495 2.4649,-2.46495 z"
           id="path11304"
           sodipodi:nodetypes="sssssssss" />
        <path
           inkscape:connector-curvature="0"
           id="path11306"
           d="m 1727.9959,-133.39818 61.5694,0 c 1.3656,0 2.465,1.09937 2.465,2.46495 l 0,193.572055 c 0,1.36558 -1.0994,2.46494 -2.465,2.46494 l -61.5694,0 c -1.3655,0 -2.4649,-1.09936 -2.4649,-2.46494 l 0,-193.572055 c 0,-1.36558 1.0994,-2.46495 2.4649,-2.46495 z"
           style="color:#000000;fill:#834b2c;fill-opacity:1;fill-rule:nonzero;stroke:none;stroke-width:0;marker:none;visibility:visible;display:inline;overflow:visible;enable-background:accumulate"
           sodipodi:nodetypes="sssssssss" />
        <path
           style="opacity:0.40265485;color:#000000;fill:#6f3f25;fill-opacity:1;fill-rule:nonzero;stroke:none;stroke-width:0;marker:none;visibility:visible;display:inline;overflow:visible;enable-background:accumulate"
           d="m 15463.25,2691.0442 0,82.125 c 0,7.7806 5.883,14.0625 13.188,14.0625 l 329.363,0 c 7.305,0 13.188,-6.2819 13.188,-14.0625 l 0,-82.125 z"
           transform="matrix(0.18694361,0,0,0.17551143,-1165.2264,-424.08597)"
           id="path27556"
           inkscape:connector-curvature="0"
           sodipodi:nodetypes="csssscc" />
        <path
           style="opacity:0.36725661;color:#000000;fill:#3b2213;fill-opacity:1;fill-rule:nonzero;stroke:none;stroke-width:0;marker:none;visibility:visible;display:inline;overflow:visible;enable-background:accumulate"
           d="m 4874.7188,1670.75 c -8.1526,0 -14.7188,7.0034 -14.7188,15.6875 l 0,33.8125 3.375,-21.9375 c 1.2604,-8.228 6.2671,-15.0313 14.0938,-15.0313 l 362.0263,0 c 7.8273,0 12.3304,6.9168 14.125,15.0313 l 3.5626,16.0313 0,-27.9063 c 0,-8.6841 -6.5657,-15.6875 -14.7188,-15.6875 z M 4860,2899.5 l 0,17.9375 c 0,8.6841 6.5662,15.6563 14.7188,15.6563 l 367.7451,0 c 8.1531,0 14.7188,-6.9722 14.7188,-15.6563 l 0,-17.9375 c 0,8.6841 -6.5657,15.7188 -14.7188,15.7188 l -367.7451,0 c -8.1526,0 -14.7188,-7.0347 -14.7188,-15.7188 z"
           transform="matrix(0.16749291,0,0,0.1572502,911.51285,-396.1268)"
           id="path11308"
           inkscape:connector-curvature="0"
           sodipodi:nodetypes="ssccssccssscsssscssc" />
        <path
           style="color:#000000;fill:#7b4629;fill-opacity:1;fill-rule:nonzero;stroke:none;stroke-width:0;marker:none;visibility:visible;display:inline;overflow:visible;enable-background:accumulate"
           d="m 13122.281,4281.9688 0,4.4687 c 124.75,1.5526 245.444,13.2281 356.063,27.5 3.031,0.3911 6.015,0.7926 9.031,1.1875 l 0,-4.5312 c -2.821,-0.369 -5.634,-0.7281 -8.469,-1.0938 -110.738,-14.2874 -231.61,-25.9766 -356.625,-27.5312 z m 187.125,114.5937 c -62.428,-0.09 -125.138,1.36 -187.125,4.9687 l 0,4.5 c 109.85,-6.4241 222.107,-6.0431 330.875,-2.375 11.45,0.3862 22.854,0.8267 34.219,1.2813 l 0,-4.4375 c -11.31,-0.4515 -22.669,-0.897 -34.063,-1.2812 -47.46,-1.6007 -95.59,-2.587 -143.906,-2.6563 z m 41.844,56.8437 c -32.415,-0.027 -64.765,0.6016 -97,2 -47.076,2.0424 -90.95,4.5463 -131.969,7.375 l 0,4.4376 c 41.058,-2.832 85.046,-5.3299 132.188,-7.375 77.155,-3.3472 154.974,-2.1598 232.906,1.5624 l 0,-4.5 c -45.439,-2.1538 -90.846,-3.4626 -136.125,-3.5 z m 136.125,232.0626 c -128.929,5.658 -253.603,9.8482 -365.094,12.9687 l 0,4.4687 c 111.479,-3.119 236.171,-7.3123 365.094,-12.9687 l 0,-4.4687 z m 0,119.2812 c -140.313,22.8814 -257.417,41.926 -365.094,59.4375 l 0,4.5313 c 107.798,-17.5264 224.709,-36.5465 365.094,-59.4376 l 0,-4.5312 z m 0,64.6562 c -129.608,9.2229 -254.832,18.0283 -365.094,27.125 l 0,4.5 c 110.199,-9.0958 235.46,-17.9217 365.094,-27.1562 l 0,-4.4688 z m 0,76.0313 c -135.829,1.6866 -262.377,2.5509 -365.094,5.375 l 0,4.5 c 102.614,-2.8242 229.18,-3.7022 365.094,-5.4063 l 0,-4.4687 z m -61.469,57.25 c -97.502,0.154 -199.651,1.8445 -303.625,6.0313 l 0,4.5312 c 126.063,-5.0799 249.406,-6.5324 365.094,-5.9688 l 0,-4.4687 c -20.278,-0.099 -40.744,-0.1577 -61.469,-0.125 z m -303.625,103.7813 0,4.4687 c 116.637,0.4686 243.738,5.404 365.094,11.6875 l 0,-4.4688 c -121.349,-6.2841 -248.401,-11.2148 -365.094,-11.6874 z m 365.094,104.9062 c -24.398,2.729 -48.398,5.6192 -71.937,8.6562 -109.588,14.139 -209.28,30.8363 -293.157,42.8126 l 0,4.5312 c 84.116,-11.9941 183.94,-28.7426 293.719,-42.9062 23.355,-3.0134 47.178,-5.9153 71.375,-8.625 l 0,-4.4688 z m 0,97.0625 c -15.511,0.3792 -30.989,0.8249 -46.375,1.3437 -112.309,3.7878 -220.432,11.022 -318.719,17.8438 l 0,4.5 c 98.353,-6.8459 206.502,-14.0852 318.875,-17.875 15.338,-0.5173 30.758,-0.9667 46.219,-1.3438 l 0,-4.4687 z m 0,56.2187 c -121.777,2.6791 -244.166,13.2126 -365.094,24.1563 l 0,4.625 c 121.014,-10.9782 243.413,-21.6032 365.094,-24.3125 l 0,-4.4688 z"
           transform="matrix(0.182138,0,0,0.1572502,-664.536,-800.80334)"
           id="path34194"
           inkscape:connector-curvature="0" />
        <path
           style="opacity:0.19026549;color:#000000;fill:#b86834;fill-opacity:1;fill-rule:nonzero;stroke:none;stroke-width:0;marker:none;visibility:visible;display:inline;overflow:visible;enable-background:accumulate"
           d="m 13122.281,4286.4375 0,2.8437 c 124.894,1.5251 245.731,13.1815 356.469,27.4688 2.889,0.3727 5.75,0.7488 8.625,1.125 l 0,-2.75 c -3.011,-0.3942 -6.005,-0.7971 -9.031,-1.1875 -110.619,-14.2719 -231.306,-25.94 -356.063,-27.5 z m 171.031,114.5937 c -57.118,0.174 -114.388,1.6875 -171.031,5 l 0,2.875 c 109.985,-6.4537 222.41,-6.079 331.313,-2.4062 11.31,0.3814 22.554,0.8017 33.781,1.25 l 0,-2.8125 c -11.354,-0.4541 -22.748,-0.8954 -34.187,-1.2813 -52.69,-1.7769 -106.211,-2.7884 -159.876,-2.625 z m 47.157,56.875 c -28.745,0.1 -57.412,0.6973 -86,1.9376 -47.164,2.0461 -91.112,4.5721 -132.188,7.4062 l 0,2.8438 c 41.175,-2.8436 85.297,-5.3544 132.594,-7.4063 77.021,-3.3413 154.703,-2.1757 232.5,1.5313 l 0,-2.8126 c -49.064,-2.3435 -98.069,-3.6694 -146.906,-3.5 z m 146.906,232.0313 c -128.923,5.6564 -253.615,9.8497 -365.094,12.9687 l 0,2.8438 c 111.471,-3.1171 236.15,-7.3141 365.094,-12.9688 l 0,-2.8437 z m 0,119.3437 c -140.38,22.8939 -257.486,41.9664 -365.094,59.4688 l 0,2.9062 c 107.671,-17.5144 224.674,-36.5673 365.094,-59.4687 l 0,-2.9063 z m 0,64.5938 c -129.645,9.2345 -254.892,18.0918 -365.094,27.1875 l 0,2.875 c 110.18,-9.1016 235.451,-17.9499 365.094,-27.1875 l 0,-2.875 z m 0,76.0312 c -135.909,1.7041 -262.485,2.5821 -365.094,5.4063 l 0,2.875 c 102.583,-2.8303 229.154,-3.7658 365.094,-5.4687 l 0,-2.8126 z m -62.969,57.25 c -97.058,0.1691 -198.692,1.8954 -302.125,6.0626 l 0,2.875 c 126.046,-5.0868 249.409,-6.4961 365.094,-5.9376 l 0,-2.875 c -20.763,-0.1014 -41.738,-0.1619 -62.969,-0.125 z m -302.125,103.7813 0,2.8125 c 116.62,0.4613 243.718,5.4057 365.094,11.6875 l 0,-2.8125 c -121.355,-6.2831 -248.457,-11.2187 -365.094,-11.6875 z m 365.094,104.9375 c -24.208,2.7114 -48.041,5.6104 -71.406,8.625 -109.78,14.1636 -209.579,30.9194 -293.688,42.9062 l 0,2.75 c 84.026,-11.9828 183.707,-28.6712 293.313,-42.8124 23.487,-3.0304 47.443,-5.9334 71.781,-8.6563 l 0,-2.8125 z m 0,97.0312 c -15.465,0.3771 -30.877,0.8264 -46.219,1.3438 -112.373,3.7898 -220.532,11.0292 -318.875,17.875 l 0,2.8125 c 98.239,-6.8375 206.254,-14.0905 318.469,-17.875 15.473,-0.5218 31.027,-0.9335 46.625,-1.3125 l 0,-2.8438 z m 0,56.2188 c -121.688,2.7101 -244.071,13.3014 -365.094,24.2812 l 0,2.8126 c 121.007,-10.9763 243.425,-21.5898 365.094,-24.2813 l 0,-2.8125 z"
           transform="matrix(0.182138,0,0,0.1572502,-664.536,-800.80334)"
           id="path34197"
           inkscape:connector-curvature="0" />
      </g>
    </g>
  </g>
</svg>
