<?xml version="1.0" encoding="UTF-8" standalone="no"?>
<!-- Created with Inkscape (http://www.inkscape.org/) -->

<svg
   xmlns:dc="http://purl.org/dc/elements/1.1/"
   xmlns:cc="http://creativecommons.org/ns#"
   xmlns:rdf="http://www.w3.org/1999/02/22-rdf-syntax-ns#"
   xmlns:svg="http://www.w3.org/2000/svg"
   xmlns="http://www.w3.org/2000/svg"
   xmlns:sodipodi="http://sodipodi.sourceforge.net/DTD/sodipodi-0.dtd"
   xmlns:inkscape="http://www.inkscape.org/namespaces/inkscape"
   width="179.47798"
   height="197.00148"
   viewBox="0 0 47.48688 52.12331"
   version="1.1"
   id="svg23489"
   inkscape:version="0.48.5 r10040"
   sodipodi:docname="wood_ui_checkbox_unchecked.svg">
  <defs
     id="defs23483" />
  <sodipodi:namedview
     id="base"
     pagecolor="#7d848b"
     bordercolor="#666666"
     borderopacity="1.0"
     inkscape:pageopacity="1"
     inkscape:pageshadow="2"
     inkscape:zoom="0.42617864"
     inkscape:cx="-63.461494"
     inkscape:cy="174.47856"
     inkscape:document-units="px"
     inkscape:current-layer="layer1"
     showgrid="false"
     inkscape:pagecheckerboard="false"
     showborder="true"
     units="px"
     inkscape:window-width="1920"
     inkscape:window-height="1017"
     inkscape:window-x="-8"
     inkscape:window-y="-8"
     inkscape:window-maximized="1"
     inkscape:showpageshadow="false"
     guidetolerance="28"
     fit-margin-top="15"
     fit-margin-left="15"
     fit-margin-right="15"
     fit-margin-bottom="15">
    <inkscape:grid
       type="xygrid"
       id="grid24034"
       spacingx="1px"
       spacingy="1px"
       empspacing="8"
       visible="true"
       enabled="true"
       snapvisiblegridlinesonly="true"
       originx="2.2395498px"
       originy="-852.20901px" />
  </sodipodi:namedview>
  <metadata
     id="metadata23486">
    <rdf:RDF>
      <cc:Work
         rdf:about="">
        <dc:format>image/svg+xml</dc:format>
        <dc:type
           rdf:resource="http://purl.org/dc/dcmitype/StillImage" />
        <dc:title></dc:title>
        <cc:license
           rdf:resource="" />
        <dc:creator>
          <cc:Agent>
            <dc:title>Robert Brooks</dc:title>
          </cc:Agent>
        </dc:creator>
      </cc:Work>
    </rdf:RDF>
  </metadata>
  <g
     inkscape:label="Layer 1"
     inkscape:groupmode="layer"
     id="layer1"
     transform="translate(0.5925475,-19.396378)">
    <g
       id="g29797">
      <g
         id="g29689"
         transform="translate(-1305.7272,-287.39228)">
        <path
           switchable="highlight"
           style="opacity:0.2035398;color:#000000;fill:#572e16;fill-opacity:1;fill-rule:nonzero;stroke:#ffffff;stroke-width:24.53238678;stroke-miterlimit:4;stroke-opacity:1;stroke-dasharray:none;marker:none;visibility:visible;display:inline;overflow:visible;enable-background:accumulate"
           d="m 4977.6875,1183.6562 c -6.5461,0 -11.8125,5.2653 -11.8125,11.8126 l 0,51.7814 c 0,6.5475 5.2664,11.8438 11.8125,11.8438 l 6.9687,0 0,-0.031 63.9376,0 0,-0.031 24.25,0 c 6.548,0 11.8124,-5.2652 11.8124,-11.8124 l 0,-51.719 c 0,-6.5475 -5.2644,-11.8125 -11.8124,-11.8125 l -24.25,0 0,-0.031 -63.9376,0 -1.5312,0 z"
           transform="matrix(0.26458334,0,0,0.26458334,-6.3049604e-6,18.562493)"
           id="path27571"
           inkscape:connector-curvature="0"
           sodipodi:nodetypes="ssssccccssssccccs" />
        <path
           switchable="shadow"
           style="opacity:0.2035398;color:#000000;fill:#572e16;fill-opacity:1;fill-rule:nonzero;stroke:#000000;stroke-width:24.53238678;stroke-miterlimit:4;stroke-opacity:1;stroke-dasharray:none;marker:none;visibility:visible;display:inline;overflow:visible;enable-background:accumulate"
           d="m 4974.9375,1116.6249 c -6.5461,0 -11.8125,5.2649 -11.8125,11.8124 l 0,50.8752 c 0,6.5475 5.2664,11.8125 11.8125,11.8125 l 8.1875,0 1.5312,0 63.9376,0 0,-0.031 21.5,0 c 6.548,0 11.8437,-5.265 11.8437,-11.8126 l 0,-50.8126 c 0,-6.5477 -5.2957,-11.8125 -11.8437,-11.8125 l -21.5,0 0,-0.031 -63.9376,0 -1.5312,0 z"
           transform="matrix(0.26458334,0,0,0.26458334,-6.3049604e-6,18.562493)"
           id="path27573"
           inkscape:connector-curvature="0"
           sodipodi:nodetypes="ssssccccssssccccs" />
        <path
           style="color:#000000;fill:#572e16;fill-opacity:1;fill-rule:nonzero;stroke:#2e1a0e;stroke-width:30.66548347;stroke-linejoin:round;stroke-miterlimit:4;stroke-opacity:1;stroke-dasharray:none;marker:none;visibility:visible;display:inline;overflow:visible;enable-background:accumulate"
           d="m 4974.9375,1129.3438 c -6.5461,0 -11.8125,5.296 -11.8125,11.8437 l 0,92.4375 c 0,6.5475 5.2664,11.8125 11.8125,11.8125 l 8.1875,0 1.5312,0 63.9376,0 0,-0.031 21.5,0 c 6.548,0 11.8437,-5.2649 11.8437,-11.8124 l 0,-92.375 c 0,-6.5476 -5.2957,-11.8438 -11.8437,-11.8438 l -21.5,0 0,-0.031 -63.9376,0 -1.5312,0 -8.1875,0 z"
           transform="matrix(0.26458334,0,0,0.26458334,-6.3049604e-6,18.562493)"
           id="path27575"
           inkscape:connector-curvature="0" />
        <path
           style="color:#000000;fill:#693f27;fill-opacity:1;fill-rule:nonzero;stroke:none;stroke-width:12;marker:none;visibility:visible;display:inline;overflow:visible;enable-background:accumulate"
           d="m 4974.9375,1129.3438 c -6.5461,0 -11.8125,5.296 -11.8125,11.8437 l 0,92.4375 c 0,6.5475 5.2664,11.8125 11.8125,11.8125 l 8.1875,0 1.5312,0 63.9376,0 0,-0.031 21.5,0 c 6.548,0 11.8437,-5.2649 11.8437,-11.8124 l 0,-92.375 c 0,-6.5476 -5.2957,-11.8438 -11.8437,-11.8438 l -21.5,0 0,-0.031 -63.9376,0 -1.5312,0 -8.1875,0 z"
           transform="matrix(0.26458334,0,0,0.26458334,-6.3049604e-6,18.562493)"
           id="path27577"
           inkscape:connector-curvature="0" />
        <path
           style="color:#000000;fill:#452919;fill-opacity:1;fill-rule:nonzero;stroke:none;stroke-width:12;marker:none;visibility:visible;display:inline;overflow:visible;enable-background:accumulate"
           d="m 5048.5625,1129.375 0,0.031 -63.9063,0 -1.5312,0 -8.25,0 c -0.4086,0 -0.7594,-0.041 -1.1562,0 -5.9755,0.6031 -10.5938,5.7056 -10.5938,11.8438 l 0,20.4375 c 0.6032,-5.974 5.6753,-10.625 11.8125,-10.625 l 8.1875,0 1.5312,0 63.9376,0 0,-0.031 21.5,0 c 6.5461,0 11.8437,5.2965 11.8437,11.8438 l 0,-21.6562 c 0,-6.5476 -5.2976,-11.8438 -11.8437,-11.8438 l -21.5313,0 z"
           transform="matrix(0.26458334,0,0,0.26458334,-6.3049604e-6,18.562493)"
           id="path27579"
           inkscape:connector-curvature="0" />
        <path
           style="opacity:0.4;color:#000000;fill:#452919;fill-opacity:1;fill-rule:nonzero;stroke:none;stroke-width:15;marker:none;visibility:visible;display:inline;overflow:visible;enable-background:accumulate"
           d="m 5048.5625,1220.1562 0,0.031 -63.9063,0 -1.5312,0 -20.0625,0 0,13.4375 c 0,6.5475 5.2667,11.8125 11.8125,11.8125 l 8.25,0 1.5312,0 63.9376,0 0,-0.031 21.5,0 c 6.548,0 11.75,-5.2649 11.75,-11.8124 l 0,-13.4376 -33.2813,0 z"
           transform="matrix(0.26458334,0,0,0.26458334,-6.3049604e-6,18.562493)"
           id="path27581"
           inkscape:connector-curvature="0" />
      </g>
    </g>
  </g>
</svg>
