<?xml version="1.0" encoding="UTF-8" standalone="no"?>
<!-- Created with Inkscape (http://www.inkscape.org/) -->

<svg
   xmlns:dc="http://purl.org/dc/elements/1.1/"
   xmlns:cc="http://creativecommons.org/ns#"
   xmlns:rdf="http://www.w3.org/1999/02/22-rdf-syntax-ns#"
   xmlns:svg="http://www.w3.org/2000/svg"
   xmlns="http://www.w3.org/2000/svg"
   xmlns:sodipodi="http://sodipodi.sourceforge.net/DTD/sodipodi-0.dtd"
   xmlns:inkscape="http://www.inkscape.org/namespaces/inkscape"
   width="547.56604"
   height="241.61259"
   viewBox="0 0 144.87684 63.926667"
   version="1.1"
   id="svg23489"
   inkscape:version="0.48.5 r10040"
   sodipodi:docname="mobile_panel_vertical.svg"
   tags="wood panel, wood ui">
  <defs
     id="defs23483" />
  <sodipodi:namedview
     id="base"
     pagecolor="#7d848b"
     bordercolor="#666666"
     borderopacity="1.0"
     inkscape:pageopacity="0"
     inkscape:pageshadow="2"
     inkscape:zoom="0.85235729"
     inkscape:cx="271.17537"
     inkscape:cy="1.6975719"
     inkscape:document-units="px"
     inkscape:current-layer="layer1"
     showgrid="false"
     inkscape:pagecheckerboard="false"
     showborder="true"
     units="px"
     inkscape:window-width="1920"
     inkscape:window-height="1017"
     inkscape:window-x="-8"
     inkscape:window-y="-8"
     inkscape:window-maximized="1"
     inkscape:showpageshadow="false"
     guidetolerance="28"
     fit-margin-left="10"
     fit-margin-top="10"
     fit-margin-bottom="10"
     fit-margin-right="10">
    <inkscape:grid
       type="xygrid"
       id="grid24034"
       spacingx="1px"
       spacingy="1px"
       empspacing="8"
       visible="true"
       enabled="true"
       snapvisiblegridlinesonly="true"
       originx="302.57379px"
       originy="-264.07822px" />
  </sodipodi:namedview>
  <metadata
     id="metadata23486">
    <rdf:RDF>
      <cc:Work
         rdf:about="">
        <dc:format>image/svg+xml</dc:format>
        <dc:type
           rdf:resource="http://purl.org/dc/dcmitype/StillImage" />
        <dc:title></dc:title>
        <cc:license
           rdf:resource="" />
        <dc:creator>
          <cc:Agent>
            <dc:title>Robert Brooks</dc:title>
          </cc:Agent>
        </dc:creator>
      </cc:Work>
    </rdf:RDF>
  </metadata>
  <g
     inkscape:label="Layer 1"
     inkscape:groupmode="layer"
     id="layer1"
     transform="translate(80.055985,-163.20264)">
    <path
       style="opacity:0.3982301;color:#000000;fill:#48240f;fill-opacity:1;fill-rule:nonzero;stroke:none;stroke-width:15;marker:none;visibility:visible;display:inline;overflow:visible;enable-background:accumulate"
       d="m 60.707376,193.94198 -4.200054,21.30097 -0.176751,9.24052 -129.057699,-0.99427 0.156696,-6.40864 -3.152045,-21.18751 z"
       id="path10239"
       inkscape:connector-curvature="0"
       sodipodi:nodetypes="ccccccc"
       class="switchable"
       name="shadow" />
    <g
       id="g10243"
       transform="matrix(-0.67017149,-0.00539657,-0.00539657,0.67017149,1393.0824,247.49716)">
      <g
         transform="matrix(0.77847018,0,0,0.77847018,304.7553,17.660595)"
         id="g10245">
        <path
           sodipodi:nodetypes="sccsscsccccccccccccccccccccccccccccccccccccs"
           inkscape:connector-curvature="0"
           id="path10247"
           transform="matrix(0.33987601,0,0,0.33987601,-607.64823,1.1585518)"
           d="m 8541.8438,-458 c -64.4975,0 -122.4301,16.58381 -162.5,42.9375 -0.1652,0.20655 -0.4125,0.45617 -0.5626,0.65625 -1.6914,2.2554 -8.583,11.00416 -10.1688,12.76619 -1.5858,1.76203 3.6603,3.30913 2.2037,4.71875 -2.9132,2.81925 -9.2996,0.0588 -11.5901,1.63287 -3.7943,3.82947 -8.0162,6.34622 -10.7885,8.31969 -1.4899,1.06059 -2.9285,2.30324 -4.4063,3.46875 -10.5217,13.19208 -17.5908,27.5411 -20.0937,42.71875 l -0.3987,-0.0226 -0.265,-0.015 -0.9926,-0.0562 -166.6629,0.2988 -2.3437,8.375 -0.5625,26.59375 7.125,5.59375 -7.125,5.125 5.1562,106 0.1563,0.125 0,0.28125 0,0.0312 0.3437,0 11.8438,10.5 285.3191,2.4512 452.4637,2.54042 6.9063,-9.03125 0.875,-13.8125 -9.9063,-7.21875 c 0,0 6.1405,-2.53158 9.9063,-4.46875 l 6,-68.25 -2.7736,-5.54777 0.889,-43.57723 -2.0626,-12.81899 -24.7091,0.0312 c -0.1323,2.22525 -0.974,4.33292 -2.9062,5.40625 -4.4049,2.44712 -9.7831,-2.01511 -9.8438,-7.33726 l -120.4949,-0.50912 c -0.1667,-1.06849 -0.3526,-2.09508 -0.5625,-3.09375 -3.8035,-19.3581 -14.7463,-37.41581 -31.25,-53.21875 -1.257,-0.54246 -2.5099,-1.18537 -3.7187,-1.625 -5.1687,-1.8795 -14.9505,-2.84375 -14.9505,-2.84375 l 0.5631,-6.19762 c 0,0 -9.5483,-10.30922 -9.8314,-10.58363 C 8660.2499,-442.46107 8604.1441,-458 8541.8438,-458 z"
           style="color:#000000;fill:#2e1a0e;fill-opacity:1;fill-rule:nonzero;stroke:#2e1a0e;stroke-width:17.90528297;stroke-linejoin:round;stroke-miterlimit:4;stroke-opacity:1;stroke-dasharray:none;marker:none;visibility:visible;display:inline;overflow:visible;enable-background:accumulate" />
        <path
           inkscape:connector-curvature="0"
           id="path10249"
           d="m 2295.5196,-154.50466 c -21.9212,0 -41.6112,5.63644 -55.2299,14.59343 -0.056,0.0702 -0.1402,0.15504 -0.1912,0.22304 -0.5748,0.76656 -1.1285,1.44038 -1.6675,2.03926 -0.539,0.59887 -1.0556,1.88941 -1.5507,2.36851 -0.6251,0.60495 0.064,0.49661 -0.478,0.99838 38.7459,0.42317 77.4918,-0.39933 116.2376,-2.01801 l -2.6658,-3.89795 c 0,0 -0.5623,-0.50152 -0.6586,-0.59479 -13.5525,-8.43056 -32.6216,-13.71187 -53.7959,-13.71187 z"
           style="color:#000000;fill:#7f4a2c;fill-opacity:1;fill-rule:nonzero;stroke:none;stroke-width:50;marker:none;visibility:visible;display:inline;overflow:visible;enable-background:accumulate" />
        <path
           inkscape:connector-curvature="0"
           id="path10251"
           d="m 2354.4987,-135.04676 -120.7835,1.94367 c -0.3525,0.2821 -0.785,0.59091 -1.2851,0.93466 -0.7786,0.53499 -1.7025,1.13485 -2.6447,1.80559 -0.5064,0.36047 -0.9953,0.78281 -1.4976,1.17894 -3.2631,4.09135 -5.5425,8.5088 -6.5638,13.1702 l 15.0607,0.86031 -44.3562,0.3564 -28.1779,0.20181 -0.7859,2.84646 -0.2018,9.03857 0.3399,0.26553 c 8.0205,0.35867 19.4716,0.7977 19.6915,0.98777 -0.012,0.006 -0.037,0.0159 -0.074,0.0212 -1.1443,0.16347 -11.3112,0.87587 -18.2896,1.16832 l -1.6675,1.200186 1.8056,36.164932 2.6765,0.03186 113.3934,2.713044 141.1744,-2.22732 0.2973,-3.005778 -3.3669,-2.45348 c 0,0 2.087,-0.860423 3.3669,-1.518821 l 2.0393,-23.196538 0,-0.03186 -6.1602,-2.495964 c 0,0 -5.7567,-10.726121 -5.7567,-11.237151 0,-0.39987 -0.3069,-3.00122 -0.6267,-5.8841 -0.8515,-0.23581 -1.517,-0.96477 -1.5294,-2.04988 l -15.2625,-0.0212 c -9.2003,0.34785 -31.8576,-0.18919 -38.1813,-0.36424 0,0 8.1318,-0.78507 12.1612,-1.49758 -1.4063,-6.33003 -5.0618,-12.23819 -10.4831,-17.42926 -0.4272,-0.18437 -0.8531,-0.40288 -1.2639,-0.5523 -1.4467,-0.52607 -2.6508,-0.82921 -3.0482,-0.92404 z"
           style="color:#000000;fill:#7f4a2c;fill-opacity:1;fill-rule:nonzero;stroke:none;stroke-width:50;marker:none;visibility:visible;display:inline;overflow:visible;enable-background:accumulate"
           sodipodi:nodetypes="ccccccccccccccccccccccccccsccccccccc" />
        <path
           inkscape:connector-curvature="0"
           id="path10253"
           d="m 2183.9659,-102.28059 2.0817,1.63566 0.011,-0.0106 -2.0923,-1.62503 z"
           style="color:#000000;fill:#7f4a2c;fill-opacity:1;fill-rule:nonzero;stroke:none;stroke-width:50;marker:none;visibility:visible;display:inline;overflow:visible;enable-background:accumulate" />
        <path
           sodipodi:nodetypes="cccccccccc"
           inkscape:connector-curvature="0"
           id="path10255"
           d="m 2423.3079,-113.61241 -8.398,0.0106 c -0.045,0.75631 -0.331,1.47264 -0.9877,1.83745 -0.089,0.0497 -0.1849,0.0895 -0.2762,0.12745 l 0.4992,5.18532 5.6186,10.217519 3.969,2.092362 0.2761,-15.113861 -0.701,-4.35686 z"
           style="color:#000000;fill:#6b3e25;fill-opacity:1;fill-rule:nonzero;stroke:none;stroke-width:50;marker:none;visibility:visible;display:inline;overflow:visible;enable-background:accumulate" />
        <path
           style="color:#000000;fill:#6b3e25;fill-opacity:1;fill-rule:nonzero;stroke:none;stroke-width:15;marker:none;visibility:visible;display:inline;overflow:visible;enable-background:accumulate"
           d="m 8185.4945,-305.9986 15.035,11.26979 944.925,6.76716 8.855,-11.5933 -519.151,-9.33211 z"
           id="path10257"
           inkscape:connector-curvature="0"
           transform="matrix(0.26458334,0,0,0.26458334,-6.3049604e-6,18.562493)"
           sodipodi:nodetypes="cccccc" />
        <g
           id="g10592"
           name="grain	"
           class="switchable">
          <path
             sodipodi:nodetypes="csccscccccccccsscccccssccsssccssssccsccccsccsccccssccccsscc"
             id="path10259"
             transform="matrix(-0.33986499,-0.00273677,-0.00273677,0.33986499,5194.273,156.29482)"
             d="m 8651.4688,-824.125 c -26.3804,1.55851 -58.7435,2.78019 -92.5,3.46875 -52.2179,1.06502 -107.8093,0.9293 -149.9063,-0.96875 -3.4638,1.43428 -6.8434,2.92001 -10.1563,4.46875 43.2804,2.38094 103.6481,2.65266 160.1563,1.5 38.5101,-0.78551 75.0349,-2.20602 103.1875,-4.09375 -3.5183,-1.5168 -7.1116,-2.98067 -10.7812,-4.375 z M 8741,-756.15625 c -128.0944,3.90904 -373.3124,8.53698 -418.375,9.375 -0.7149,1.67059 -1.333,3.36604 -1.9375,5.0625 41.2502,-0.76497 294.4611,-5.56352 423.0937,-9.53125 -0.8714,-1.64173 -1.8059,-3.29196 -2.7812,-4.90625 z m -552.7154,55.1875 c -0.6769,1.36727 -1.4939,3.00169 -2.4688,4.875 21.8331,0.48105 212.6279,3.55579 364.9342,7.84375 82.6506,2.32691 230.1925,6.17945 295.9773,7.65625 29.0631,0.65244 54.2788,1.13786 74.5937,1.4375 l -2.4687,-1.78125 c -20.5246,-1.02576 -50.4184,-3.36694 -53.7813,-3.875 -0.1086,-0.0165 -0.1835,-0.0446 -0.2187,-0.0625 0.095,-0.081 1.0685,-0.18252 2.4375,-0.28125 -6.8927,-0.14642 -13.0924,-0.27188 -20.4688,-0.4375 -65.767,-1.47641 -209.5818,-3.7045 -292.2272,-6.03125 -156.427,-4.40397 -350.4643,-8.84784 -366.3092,-9.34375 z m 558.5279,23.0625 c -34.6254,-0.0902 -72.0186,1.4276 -108.875,3.65625 -49.1416,2.97154 -279.5992,5.73148 -318.9687,9.21875 -39.3696,3.48726 -121.5999,6.20389 -135.278,6.09375 -12.5787,-0.10129 -18.4429,-0.30007 -26,-0.59375 l 0,3.125 c 7.5772,0.29414 13.439,0.49285 25.9688,0.59375 14.1205,0.11371 96.2214,-2.60653 135.5904,-6.09375 39.369,-3.48722 268.6959,-3.65689 317.7812,-6.625 49.0851,-2.96811 160.0881,-7.28583 203.1336,-5.625 32.7846,1.26495 61.567,4.51824 82.6875,10.5 l 0.1563,-3.1875 c -21.5004,-6.01846 -50.1211,-9.17977 -82.7188,-10.4375 -8.1033,-0.31265 -76.3521,-0.4706 -84.8836,-0.5625 -2.8437,-0.0309 -5.7082,-0.0549 -8.5937,-0.0625 z m -588.9967,29.6875 0,3.15625 c 32.2751,6.17798 334.3464,20.7725 416.0904,31.53125 99.3472,13.07565 272.4916,22.63511 345.3524,11.46875 l 0.1874,-3.1875 c -72.0003,11.14177 -245.5686,1.7252 -345.1022,-11.375 -82.1115,-10.80715 -384.5578,-25.47117 -416.528,-31.59375 z m 10.3438,53.78125 c 0.5999,0.25855 1.7188,0.71875 1.7188,0.71875 l -3.2813,2.375 c 32.671,0.54443 350.17,3.65786 457.1529,5.59375 61.9203,1.12046 184.2105,2.20434 231.9148,3 23.8519,0.39784 44.0355,0.76276 58.6875,0.96875 1.5584,0.0216 2.5656,0.02 3.7187,0.0312 l 0.1876,-3.09375 c -1.1969,-0.012 -2.2639,-0.0395 -3.875,-0.0625 -14.6468,-0.20595 -34.8369,-0.57094 -58.6876,-0.96875 -47.7007,-0.79562 -169.9638,-1.87954 -231.8835,-3 -107.2071,-1.93994 -416.7829,-4.97584 -455.6529,-5.5625 z"
             style="font-size:medium;font-style:normal;font-variant:normal;font-weight:normal;font-stretch:normal;text-indent:0;text-align:start;text-decoration:none;line-height:normal;letter-spacing:normal;word-spacing:normal;text-transform:none;direction:ltr;block-progression:tb;writing-mode:lr-tb;text-anchor:start;baseline-shift:baseline;opacity:0.33185838;color:#000000;fill:#a5613c;fill-opacity:1;fill-rule:nonzero;stroke:none;stroke-width:4;marker:none;visibility:visible;display:inline;overflow:visible;enable-background:accumulate;font-family:Sans;-inkscape-font-specification:Sans"
             inkscape:connector-curvature="0" />
          <path
             sodipodi:nodetypes="csccscccccccccsscccccsscssssccssssccscsccsccsccccssccccssc"
             id="path10261"
             transform="matrix(-0.33986499,-0.00273677,-0.00273677,0.33986499,5194.273,156.29482)"
             d="m 8651.4688,-825.1875 c -26.3806,1.55851 -58.7435,2.78017 -92.5,3.46875 -52.2181,1.06515 -107.8091,0.92931 -149.9063,-0.96875 -3.4638,1.43429 -6.8436,2.92002 -10.1563,4.46875 43.2803,2.38107 103.6794,2.65265 160.1876,1.5 38.5102,-0.78553 75.0036,-2.20602 103.1562,-4.09375 -3.5181,-1.5168 -7.1118,-2.98067 -10.7812,-4.375 z m 89.5624,66.90625 c -116.3798,6.51804 -365.3711,10.30566 -418.375,9.375 -0.7147,1.67059 -1.3331,3.36604 -1.9374,5.0625 41.2501,-0.76499 294.4612,-5.56351 423.0937,-9.53125 -0.8715,-1.64172 -1.8057,-3.29197 -2.7813,-4.90625 z m -552.7466,55.1875 c -0.6769,1.36725 -1.4626,2.97044 -2.4375,4.84375 21.8329,0.48106 212.5968,3.58704 364.9029,7.875 82.6506,2.32691 230.1924,6.17944 295.9773,7.65625 29.063,0.65243 54.2785,1.13785 74.5937,1.4375 l -2.4374,-1.78125 c -20.5246,-1.02576 -50.4185,-3.36694 -53.7813,-3.875 -0.1088,-0.0165 -0.1839,-0.0445 -0.2187,-0.0625 0.095,-0.0809 1.0684,-0.18245 2.4374,-0.28125 -6.8926,-0.1464 -13.0924,-0.27191 -20.4687,-0.4375 -65.767,-1.47641 -209.5817,-3.70449 -292.2273,-6.03125 -156.4268,-4.40397 -350.4954,-8.84784 -366.3404,-9.34375 z m 558.5279,23.9375 c -34.6254,-0.0902 -72.0186,1.4276 -108.875,3.65625 -49.1416,2.97154 -279.5678,5.73148 -318.9375,9.21875 -39.3696,3.48727 -121.6311,6.23514 -135.3092,6.125 -12.5788,-0.10129 -19.5679,-0.33133 -27.125,-0.625 l 0,3.125 c 7.5772,0.29413 14.5641,0.49285 27.0938,0.59375 14.1206,0.11371 96.2213,-2.60653 135.5904,-6.09375 39.3691,-3.48722 269.7895,-6.25064 318.875,-9.21875 49.0851,-2.96811 159.0255,-4.69209 202.071,-3.03125 32.8184,1.26624 61.5924,4.53773 82.7188,10.53125 l 0.1875,-3.21875 c -21.5068,-6.029 -50.1858,-9.1474 -82.8125,-10.40625 -8.1035,-0.31266 -76.352,-0.50175 -84.8836,-0.59375 -2.8438,-0.0309 -5.7083,-0.055 -8.5937,-0.0625 z m -590.1217,29.6875 0,3.15625 c 32.2751,6.17798 335.5027,20.7725 417.2467,31.53125 99.3748,13.0793 272.525,22.64976 345.3835,11.46875 l 0.1876,-3.1875 c -71.9975,11.15703 -245.6021,1.72902 -345.1648,-11.375 -82.1115,-10.80715 -385.6826,-25.47117 -417.653,-31.59375 z m 8.5626,53.71875 c 2.4851,1.12506 4.625,2.03125 4.625,2.03125 l -1.5626,1.125 c 35.8251,0.57798 349.2619,3.67197 455.4654,5.59375 61.9204,1.12047 184.1795,2.20434 231.8836,3 23.8519,0.39784 44.0667,0.76276 58.7188,0.96875 1.5844,0.0223 2.6108,0.0511 3.7812,0.0625 l 0.1875,-3.125 c -1.2143,-0.0121 -2.3002,-0.0393 -3.9375,-0.0625 -14.6468,-0.20595 -34.8368,-0.57094 -58.6875,-0.96875 -47.7008,-0.79562 -169.9952,-1.87954 -231.9148,-3 -108.6147,-1.96542 -425.2192,-5.09884 -458.5591,-5.625 z"
             style="font-size:medium;font-style:normal;font-variant:normal;font-weight:normal;font-stretch:normal;text-indent:0;text-align:start;text-decoration:none;line-height:normal;letter-spacing:normal;word-spacing:normal;text-transform:none;direction:ltr;block-progression:tb;writing-mode:lr-tb;text-anchor:start;baseline-shift:baseline;color:#000000;fill:#6b3e25;fill-opacity:1;fill-rule:nonzero;stroke:none;stroke-width:4;marker:none;visibility:visible;display:inline;overflow:visible;enable-background:accumulate;font-family:Sans;-inkscape-font-specification:Sans"
             inkscape:connector-curvature="0" />
        </g>
        <path
           inkscape:connector-curvature="0"
           id="path10263"
           d="m 2249.477,-114.71793 c 0.6427,0.008 1.1548,0.008 1.3913,-0.0106 0.012,-9.5e-4 0.014,-0.01 0.021,-0.0106 -0.1213,-0.005 -0.6541,0.003 -1.4126,0.0212 z"
           style="color:#000000;fill:#915535;fill-opacity:1;fill-rule:nonzero;stroke:none;stroke-width:50;marker:none;visibility:visible;display:inline;overflow:visible;enable-background:accumulate" />
        <path
           inkscape:connector-curvature="0"
           id="path10265"
           d="m 2183.9659,-102.28059 1.6356,1.28516 c 0.01,-3.4e-4 0.014,3.4e-4 0.021,0 l -1.6569,-1.28516 z"
           style="color:#000000;fill:#915535;fill-opacity:1;fill-rule:nonzero;stroke:none;stroke-width:50;marker:none;visibility:visible;display:inline;overflow:visible;enable-background:accumulate" />
        <path
           sodipodi:nodetypes="ccccccccccccc"
           inkscape:connector-curvature="0"
           id="path10267"
           d="m 2423.193,-113.61333 -8.398,0.0106 c -0.045,0.75631 -0.331,1.47264 -0.9877,1.83745 -0.092,0.051 -0.1827,0.0891 -0.2762,0.12745 l 0.1275,1.42324 c 1.307,-0.36298 2.1055,-1.21326 2.1507,-2.3425 l 5.1108,0.0454 c 0,0 1.0839,2.67217 1.2645,4.1176 0.065,0.51738 0.2146,11.488643 -0.066,13.343409 l 1.4997,0.908047 0.2761,-15.113856 -0.701,-4.35686 z"
           style="color:#000000;fill:#7f4a2c;fill-opacity:1;fill-rule:nonzero;stroke:none;stroke-width:50;marker:none;visibility:visible;display:inline;overflow:visible;enable-background:accumulate" />
        <path
           inkscape:connector-curvature="0"
           id="path10269"
           d="m 2349.7404,-114.03817 c -0.1101,0.009 -0.1893,0.0206 -0.223,0.0319 -0.094,0.0314 0.024,0.008 0.223,-0.0319 z"
           style="color:#000000;fill:#915535;fill-opacity:1;fill-rule:nonzero;stroke:none;stroke-width:50;marker:none;visibility:visible;display:inline;overflow:visible;enable-background:accumulate" />
        <path
           inkscape:connector-curvature="0"
           style="color:#000000;fill:#955735;fill-opacity:1;fill-rule:nonzero;stroke:none;stroke-width:50;marker:none;visibility:visible;display:inline;overflow:visible;enable-background:accumulate"
           d="m 8188.4521,-703.09375 c -0.157,0.31714 -0.3928,0.78204 -0.5625,1.125 -0.463,0.92297 -0.7954,1.62878 -1.375,2.75 -0.1515,0.29299 -0.3422,0.66514 -0.5,0.96875 0.5067,0.0112 4.3682,0.11102 5,0.125 l 2.3125,-4.8125 c -0.3058,-0.01 -4.6296,-0.14857 -4.875,-0.15625 z m -31.7188,42.3125 0,3.125 c 1.3721,0.0533 3.5366,0.0468 4.9063,0.0937 0,-1.266 0,-1.8338 0,-3.09375 -1.3662,-0.0486 -3.5393,-0.0719 -4.9063,-0.125 z m 0.125,11.3125 0,3.15625 c 0.8863,0.16964 3.5412,0.41167 4.75,0.59375 0,-1.27104 0.033,-1.87289 0.031,-3.15625 -1.218,-0.18283 -3.8939,-0.42382 -4.7813,-0.59375 z"
           transform="matrix(-0.33986499,-0.00273677,-0.00273677,0.33986499,5194.273,156.29482)"
           id="path10271"
           sodipodi:nodetypes="ccccccccccccccccccc" />
        <path
           inkscape:connector-curvature="0"
           style="color:#000000;fill:#a5613c;fill-opacity:1;fill-rule:nonzero;stroke:none;stroke-width:50;marker:none;visibility:visible;display:inline;overflow:visible;enable-background:accumulate"
           d="m 8190.8388,-698.125 c -0.6318,-0.014 -4.4933,-0.11383 -5,-0.125 -5.0742,9.76364 -13.0937,24.40625 -13.0937,24.40625 l -18.1876,7.1875 0,0.0937 5.4376,68.3125 c 0.423,0.2221 0.9347,0.45435 1.4062,0.6875 0.1243,-7.11401 0.056,-28.76368 0.031,-48.15625 -1.2089,-0.18208 -3.8637,-0.42411 -4.75,-0.59375 l 0,-3.15625 c 0.8874,0.16993 3.5633,0.41092 4.7813,0.59375 0,-3.53237 0,-5.13248 0,-8.6875 -1.3697,-0.047 -3.5342,-0.0405 -4.9063,-0.0937 l 0,-3.125 c 1.367,0.0531 3.5401,0.0764 4.9063,0.125 0,-1.19632 0,-1.75075 0,-2.9375 l 16.1563,-7.1875 13.2187,-27.34375 z"
           id="path10273"
           transform="matrix(-0.33986499,-0.00273677,-0.00273677,0.33986499,5194.273,156.29482)"
           sodipodi:nodetypes="ccccccccccccccccccc" />
        <path
           inkscape:connector-curvature="0"
           style="color:#000000;fill:#955735;fill-opacity:1;fill-rule:nonzero;stroke:none;stroke-width:50;marker:none;visibility:visible;display:inline;overflow:visible;enable-background:accumulate"
           d="m 8651.0938,-825.15625 c -6.4702,0.38078 -14.1639,0.66256 -21.2813,1 4.168,1.41967 8.158,2.8949 11.9687,4.40625 6.6657,-0.35604 14.2412,-0.66282 20.2188,-1.0625 -3.5461,-1.52632 -7.2067,-2.94176 -10.9062,-4.34375 z m -242.0313,2.46875 c -3.3823,1.40038 -6.5431,2.95916 -9.7813,4.46875 3.9692,0.21689 8.6987,0.34914 12.9376,0.53125 3.9606,-1.45869 8.5588,-2.94019 13.3124,-4.46875 -5.4797,-0.17941 -11.3253,-0.30088 -16.4374,-0.53125 -0.01,0.004 -0.022,-0.004 -0.031,0 z m 331.8437,64.40625 c -1.941,0.10861 -4.5493,0.20542 -6.5624,0.3125 1.1869,1.54914 2.2787,3.13248 3.25,4.75 1.7545,-0.053 4.3823,-0.10348 6.0937,-0.15625 -0.8755,-1.64912 -1.8009,-3.28484 -2.7813,-4.90625 z m -407.5624,9.34375 c -2.5089,-0.0217 -8.6763,0.066 -10.6563,0.0312 -0.046,0.10661 -0.1111,0.20578 -0.1563,0.3125 -0.3732,0.88874 -0.697,1.78914 -1.0312,2.6875 -0.2631,0.68301 -0.5051,1.37531 -0.75,2.0625 1.216,-0.0226 8.9562,-0.18932 10.5312,-0.21875 0.6004,-1.58349 1.2588,-3.18159 2.0626,-4.875 z"
           transform="matrix(-0.33986499,-0.00273677,-0.00273677,0.33986499,5194.273,156.29482)"
           id="path10275" />
        <path
           inkscape:connector-curvature="0"
           style="color:#000000;fill:#a5613c;fill-opacity:1;fill-rule:nonzero;stroke:none;stroke-width:50;marker:none;visibility:visible;display:inline;overflow:visible;enable-background:accumulate"
           d="m 8331.2812,-744.0625 c -1.5751,0.0294 -9.3152,0.1962 -10.5312,0.21875 0,0.003 -0.03,-0.003 -0.031,0 -1.0821,3.03743 -2.0319,6.10465 -2.75,9.21875 11.8379,2.19177 35.75,4.6875 35.75,4.6875 -18.3821,0.2353 -83.2941,0.29402 -112.3404,0.1875 l -44.9063,-0.3125 c -0.013,0.5808 -0.057,1.1158 -0.1875,1.625 l -4.2188,3.125 c -1.0582,8.96136 -2.115,17.32871 -2.125,18.5625 0,0.31077 -1.0529,2.4571 -2.2187,4.78125 0.1697,-0.34296 0.4055,-0.80786 0.5625,-1.125 0.2454,0.008 4.5692,0.14669 4.875,0.15625 l 1.6562,-3.40625 c 0,0 0.1975,-6.20124 1.25,-16.5625 2.1367,-1.84233 3.5,-3.84375 3.5,-3.84375 0,0 165.3109,-2.06332 175.8092,-1.21875 -6.5168,-1.374 -47.3342,-8.79721 -44.875,-14.09375 0.2081,-0.62993 0.5325,-1.34391 0.7812,-2 z m 387.4376,14.9375 c -17.932,0.69994 -38.9523,1.48519 -48.25,1.53125 26.8454,0.85996 246.071,7.3125 246.071,7.3125 0,0 1.0522,3.7128 1.5625,6.375 0.5103,2.66223 -0.1345,16.50262 -0.6875,19.15625 -0.5528,2.65366 -67.5819,5.29216 -72.9062,6.3125 -2.098,0.40207 10.2906,0.59483 26.2812,0.9375 0.03,6.2e-4 0.065,-6.4e-4 0.094,0 10.8598,-0.56128 34.2333,-1.28857 51.9374,-1.9375 l 1,-0.78125 -0.375,-26.59375 -2.25,-8.40625 -142.7898,-1.25 -70.5937,-2.09375 10.9063,-0.5625 z"
           id="path10277"
           transform="matrix(-0.33986499,-0.00273677,-0.00273677,0.33986499,5194.273,156.29482)"
           sodipodi:nodetypes="cccccccccccccccccccccccscscccccccccc" />
        <path
           inkscape:connector-curvature="0"
           style="color:#000000;fill:#a5613c;fill-opacity:1;fill-rule:nonzero;stroke:none;stroke-width:50;marker:none;visibility:visible;display:inline;overflow:visible;enable-background:accumulate"
           d="m 8743.6875,-753.375 c -1.7114,0.0528 -4.3391,0.1032 -6.0937,0.15625 6.3155,10.51812 8.3134,21.65058 8.5,22.78125 l 6.0624,-0.3125 c -1.6402,-7.78579 -4.5937,-15.32569 -8.4687,-22.625 z"
           id="path10279"
           transform="matrix(-0.33986499,-0.00273677,-0.00273677,0.33986499,5194.273,156.29482)" />
        <path
           inkscape:connector-curvature="0"
           style="color:#000000;fill:#a5613c;fill-opacity:1;fill-rule:nonzero;stroke:none;stroke-width:50;marker:none;visibility:visible;display:inline;overflow:visible;enable-background:accumulate"
           d="m 8361.9688,-789.90625 c -1.1715,0.26959 -4.7313,1.14274 -9,2.65625 -1.212,0.42989 -2.4889,1.06143 -3.75,1.59375 -11.8745,11.18826 -20.8872,23.55869 -26.5313,36.75 1.98,0.0347 8.1474,-0.0529 10.6563,-0.0312 6.7118,-14.14066 19.6517,-31.05223 25.125,-33.28125 6.4004,-2.60658 349.7485,7.0411 352.4062,7.0625 2.6579,0.0214 12.7171,3.81723 22.7188,16.125 0.2766,0.34043 0.4847,0.71629 0.75,1.0625 2.0132,-0.10708 4.6213,-0.20389 6.5624,-0.3125 -2.3373,-3.86584 -4.8489,-7.67683 -7.75,-11.375 -1.4682,-1.17737 -2.8935,-2.42745 -4.375,-3.5 -2.7561,-1.99574 -5.4719,-3.78253 -7.75,-5.375 -1.4629,-1.02321 -2.7196,-1.94292 -3.75,-2.78125 l -355.3124,-8.59375 z"
           id="path10281"
           transform="matrix(-0.33986499,-0.00273677,-0.00273677,0.33986499,5194.273,156.29482)" />
        <path
           inkscape:connector-curvature="0"
           style="color:#000000;fill:#a5613c;fill-opacity:1;fill-rule:nonzero;stroke:none;stroke-width:50;marker:none;visibility:visible;display:inline;overflow:visible;enable-background:accumulate"
           d="m 8412.2188,-817.6875 c -4.2389,-0.18211 -8.9684,-0.31436 -12.9376,-0.53125 -7.6975,3.58844 -15.1245,7.36884 -21.9374,11.53125 -0.2856,0.27213 -1.9688,1.75 -1.9688,1.75 l -7.9062,11.40625 9.625,0.21875 c 1.2126,-1.81131 6.7802,-12.22182 8.6874,-13.15625 0.7554,-0.37008 10.4211,-5.32003 26.4376,-11.21875 z"
           id="path10283"
           transform="matrix(-0.33986499,-0.00273677,-0.00273677,0.33986499,5194.273,156.29482)" />
        <path
           inkscape:connector-curvature="0"
           style="color:#000000;fill:#a5613c;fill-opacity:1;fill-rule:nonzero;stroke:none;stroke-width:50;marker:none;visibility:visible;display:inline;overflow:visible;enable-background:accumulate"
           d="m 8662,-820.8125 c -5.9776,0.39968 -13.5531,0.70646 -20.2188,1.0625 35.1951,13.95794 55.2281,30.9265 59.625,34.71875 l 8,0.1875 c -1.5826,-1.48913 0.4186,-1.14283 -1.4062,-2.9375 -1.4453,-1.42132 -2.9284,-5.25651 -4.5,-7.03125 -1.5716,-1.77477 -3.1711,-3.7623 -4.8438,-6.03125 -0.1483,-0.20127 -0.3995,-0.44838 -0.5624,-0.65625 -10.7641,-7.20431 -22.9332,-13.64782 -36.0938,-19.3125 z"
           id="path10285"
           transform="matrix(-0.33986499,-0.00273677,-0.00273677,0.33986499,5194.273,156.29482)" />
        <path
           inkscape:connector-curvature="0"
           style="color:#000000;fill:#a5613c;fill-opacity:1;fill-rule:nonzero;stroke:none;stroke-width:50;marker:none;visibility:visible;display:inline;overflow:visible;enable-background:accumulate"
           d="m 8530.125,-845.75 c -45.0093,0.33921 -86.646,8.83034 -121.0312,23.0625 5.1122,0.23037 10.9576,0.35184 16.4374,0.53125 30.3585,-9.76172 75.7341,-19.84525 130.0626,-16.4375 29.043,1.82173 53.7411,7.46259 74.2187,14.4375 7.1174,-0.33744 14.8111,-0.61922 21.2813,-1 -33.4099,-12.6609 -72.7725,-20.25245 -115.1563,-20.59375 -1.9468,-0.0157 -3.8779,-0.0146 -5.8125,0 z"
           id="path10287"
           transform="matrix(-0.33986499,-0.00273677,-0.00273677,0.33986499,5194.273,156.29482)" />
      </g>
      <path
         sodipodi:nodetypes="ccccccc"
         inkscape:connector-curvature="0"
         id="path10289"
         d="m 2136.1244,-88.443503 c -30.5921,1.489983 -60.723,2.156831 -90.3966,1.570964 0.015,-0.01347 0.021,-0.02072 0.033,-0.03307 0,4.5e-5 -0.1323,0 -0.1323,0 l 0.7855,0.908076 89.4953,-1.44694 c 0.104,-0.826283 0.2079,-0.950759 0.215,-0.999027 z"
         style="color:#000000;fill:#683d24;fill-opacity:1;fill-rule:nonzero;stroke:none;stroke-width:4;marker:none;visibility:visible;display:inline;overflow:visible;enable-background:accumulate" />
    </g>
  </g>
</svg>
