<?xml version="1.0" encoding="UTF-8" standalone="no"?>
<!-- Created with Inkscape (http://www.inkscape.org/) -->

<svg
   xmlns:dc="http://purl.org/dc/elements/1.1/"
   xmlns:cc="http://creativecommons.org/ns#"
   xmlns:rdf="http://www.w3.org/1999/02/22-rdf-syntax-ns#"
   xmlns:svg="http://www.w3.org/2000/svg"
   xmlns="http://www.w3.org/2000/svg"
   xmlns:sodipodi="http://sodipodi.sourceforge.net/DTD/sodipodi-0.dtd"
   xmlns:inkscape="http://www.inkscape.org/namespaces/inkscape"
   width="1931.1917"
   height="233.41206"
   viewBox="0 0 510.96111 61.756943"
   version="1.1"
   id="svg23489"
   inkscape:version="0.48.5 r10040"
   sodipodi:docname="long_bar.svg"
   tags="wood panel, wood ui">
  <defs
     id="defs23483" />
  <sodipodi:namedview
     id="base"
     pagecolor="#7d848b"
     bordercolor="#666666"
     borderopacity="1.0"
     inkscape:pageopacity="0"
     inkscape:pageshadow="2"
     inkscape:zoom="0.94055346"
     inkscape:cx="560.54677"
     inkscape:cy="-154.4173"
     inkscape:document-units="px"
     inkscape:current-layer="layer1"
     showgrid="false"
     inkscape:pagecheckerboard="false"
     showborder="true"
     units="px"
     inkscape:window-width="1920"
     inkscape:window-height="1017"
     inkscape:window-x="-8"
     inkscape:window-y="-8"
     inkscape:window-maximized="1"
     inkscape:showpageshadow="false"
     guidetolerance="28"
     fit-margin-left="16"
     fit-margin-top="16"
     fit-margin-bottom="16"
     fit-margin-right="6">
    <inkscape:grid
       type="xygrid"
       id="grid24034"
       spacingx="1px"
       spacingy="1px"
       empspacing="8"
       visible="true"
       enabled="true"
       snapvisiblegridlinesonly="true"
       originx="998.76464px"
       originy="-345.30622px" />
  </sodipodi:namedview>
  <metadata
     id="metadata23486">
    <rdf:RDF>
      <cc:Work
         rdf:about="">
        <dc:format>image/svg+xml</dc:format>
        <dc:type
           rdf:resource="http://purl.org/dc/dcmitype/StillImage" />
        <dc:title></dc:title>
        <cc:license
           rdf:resource="" />
        <dc:creator>
          <cc:Agent>
            <dc:title>Robert Brooks</dc:title>
          </cc:Agent>
        </dc:creator>
      </cc:Work>
    </rdf:RDF>
  </metadata>
  <g
     inkscape:label="Layer 1"
     inkscape:groupmode="layer"
     id="layer1"
     transform="translate(264.25649,-143.88079)">
    <path
       style="color:#000000;fill:#804526;fill-opacity:1;fill-rule:nonzero;stroke:#422515;stroke-width:3.96875;stroke-linejoin:round;stroke-miterlimit:4;stroke-opacity:1;stroke-dasharray:none;marker:none;visibility:visible;display:inline;overflow:visible;enable-background:accumulate"
       d="m -105.1061,150.09995 c -40.85788,0.0301 -75.67729,0.47559 -113.4401,0.56224 -5.76739,0.24812 -11.36317,0.53567 -12.50157,0.67797 -1.26201,0.15774 -8.8774,-0.22067 -16.08169,-0.67797 l -9.73172,0 -0.42167,4.0514 c 0,0 -0.90021,16.16446 -0.73588,18.84331 -0.003,0.10356 -0.007,0.24032 -0.008,0.33899 -0.0199,1.1449 1.47764,2.95029 1.52963,3.20807 l 1.47175,0.0167 c -0.11626,0.3434 -0.21532,0.73853 -0.24805,1.1658 0,0 -0.097,6.55974 -0.0827,12.08816 -0.005,2.04398 -0.003,4.06283 0.0249,5.7464 l 0,0.0167 c 0.5515,0.66699 2.11569,2.35876 2.49698,3.175 102.69768,0.17185 384.36715,0.30427 492.20391,-0.99219 l 0.79375,-2.19937 -0.0238,-0.0579 0.0238,0 0,-4.7377 -1.57904,-1.09141 c 0.095,-1.00997 0.18998,-2.08214 0.18998,-2.46391 0,-0.61185 0.70088,-1.22266 1.38906,-1.65364 l 0,-2.25724 0,-7.30912 c -0.0381,-0.8532 -2.59027,-0.44574 -3.19167,-0.45474 -0.17621,-0.0103 -0.3601,-0.0146 -0.53737,-0.0249 l 2.33998,-0.4382 c 0,0 1.40493,-0.81672 1.6039,-1.61232 0.12568,-0.5031 0.82947,-0.64114 2.10026,-0.87643 0.0185,-0.51509 0.59082,-2.73902 0.60352,-3.29901 0.0384,-1.71384 0.0558,-3.56272 0.0497,-5.39089 0,-0.092 0,-0.18102 0,-0.27286 0.0132,-6.11211 -0.1987,-12.68471 -0.57891,-13.51854 l -39.84466,0 c -8.29337,0.45947 -103.575385,0.95911 -104.435546,0.95911 -1.278995,0 -19.158215,-0.64614 -29.476171,-0.95911 -30.798824,-0.44961 -149.387537,-0.58031 -173.902273,-0.56224 z"
       id="path11629"
       inkscape:connector-curvature="0"
       sodipodi:nodetypes="ccsccccccccccccccccccscccccccccccccsccc" />
    <path
       style="color:#000000;fill:#532f1a;fill-opacity:1;fill-rule:nonzero;stroke:none;stroke-width:10;marker:none;visibility:visible;display:inline;overflow:visible;enable-background:accumulate"
       d="m -42.940681,177.56698 c -39.458716,-0.007 -171.221799,0.0457 -211.552369,0.63667 0,0 -0.69475,1.03872 -0.79375,2.33164 0,0 -0.15299,9.8638 -0.0579,15.5856 l 0,0.0167 c 0.41754,0.66698 1.55805,2.36116 2.49912,3.17738 102.69766,0.17184 384.45129,0.30189 492.28805,-0.99457 l 0.79561,-2.20157 -1.78594,-3.76812 c 0,0 0.39687,-3.785 0.39687,-4.58057 0,-0.61183 0.70088,-1.22267 1.38907,-1.65365 l 0,-6.21771 c -0.0381,-0.8532 -1.20148,-1.1403 -1.80261,-1.14929 -51.15296,-0.78471 -320.476995,-1.16242 -268.204905,-1.16581 l 26.1606778,-0.008 c -13.0680358,0.003 -26.1790398,-0.006 -39.3319538,-0.008 z"
       id="path11550"
       inkscape:connector-curvature="0"
       sodipodi:nodetypes="cccccccccscccccsc" />
    <path
       sodipodi:nodetypes="ccsccccccsccsccscc"
       inkscape:connector-curvature="0"
       id="path11552"
       d="m -256.9151,152.91366 -0.4217,4.05141 c 0,0 -0.6569,11.8291 -0.7444,16.9313 -0.02,1.1449 1.4809,2.9457 1.5329,3.2035 l 193.1769,0.9244 296.3664,-1.3316 5.7063,-1.0579 c 0,0 1.4011,-0.8203 1.6001,-1.6159 0.1256,-0.5031 0.8329,-0.6369 2.1037,-0.8722 0.018,-0.5151 0.5951,-2.7436 0.6077,-3.3036 0.1533,-6.8553 -0.064,-15.9016 -0.533,-16.92941 l -126.6953,0 c -8.2933,0.4595 -16.6518,0.95911 -17.5119,0.95911 -1.2793,0 -19.1585,-0.64613 -29.4765,-0.95911 -82.1297,-1.1989 -135.0237,-0.13861 -195.4442,0 -5.7674,0.24815 -11.3632,0.5357 -12.5016,0.67801 -1.262,0.1577 -100.8293,-0.22068 -108.0336,-0.67801 z"
       style="color:#000000;fill:#804526;fill-opacity:1;fill-rule:nonzero;stroke:none;stroke-width:10;marker:none;visibility:visible;display:inline;overflow:visible;enable-background:accumulate" />
    <path
       style="color:#000000;fill:#af683f;fill-opacity:1;fill-rule:nonzero;stroke:none;stroke-width:10;marker:none;visibility:visible;display:inline;overflow:visible;enable-background:accumulate"
       d="m -3.6087,175.32737 c -52.2722,0.01 -197.1103,-0.1599 -250.8844,0.628 0,0 -0.6947,1.0387 -0.7937,2.3316 0,0 -0.1531,9.8642 -0.058,15.586 l 0,0.01 c 0.5515,0.667 1.2227,1.3667 1.604,2.1829 l 493.9789,0 0,-4.7378 -1.786,-1.2319 c 0,0 0.3969,-3.785 0.3969,-4.5806 0,-0.6118 0.7011,-1.2227 1.3891,-1.6537 l 0,-7.3117 c -0.038,-0.8532 -2.5939,-0.4441 -3.195,-0.4531 -50.5574,-2.9439 -213.7389,-0.7697 -240.6518,-0.7697 z"
       id="rect11539"
       inkscape:connector-curvature="0"
       sodipodi:nodetypes="cccccccccscccc" />
    <path
       style="color:#000000;fill:#af683f;fill-opacity:1;fill-rule:nonzero;stroke:none;stroke-width:10;marker:none;visibility:visible;display:inline;overflow:visible;enable-background:accumulate"
       d="m -256.8612,150.66321 -0.4217,4.05146 c 0,0 -0.9848,17.7337 -0.7035,19.1402 l 102.7169,1.919 388.3374,-1.3316 5.7063,-1.0579 c 0,0 1.1901,-1.5939 1.3891,-2.3895 0.1256,-0.5031 1.6065,-0.8479 2.8773,-1.0832 0.2323,-6.82 0.019,-18.13665 -0.4879,-19.24846 l -39.8447,0 c -8.2933,0.4595 -103.5754,0.95912 -104.4355,0.95912 -1.2793,0 -19.1585,-0.64614 -29.4765,-0.95912 -82.1297,-1.1989 -226.9217,-0.13861 -287.3422,0 -5.7674,0.24815 -11.3632,0.5357 -12.5016,0.678 -1.262,0.15774 -8.8774,-0.22067 -16.0817,-0.678 z"
       id="path11542"
       inkscape:connector-curvature="0"
       sodipodi:nodetypes="ccccccccccsccscc" />
    <path
       style="opacity:0.5442478;color:#000000;fill:#422515;fill-opacity:1;fill-rule:nonzero;stroke:none;stroke-width:12;marker:none;visibility:visible;display:inline;overflow:visible;enable-background:accumulate"
       d="m -255.40639,193.39457 c 0.004,1.02647 0.01,2.02096 0.0249,2.90213 l 0,0.0167 c 0.52128,0.63045 1.93746,2.16916 2.41432,3.02615 -0.21627,-1.85957 -0.22326,-3.29073 -0.22326,-3.29073 0,0 -0.92249,-1.2336 -2.21588,-2.65412 z"
       id="path11597"
       inkscape:connector-curvature="0"
       sodipodi:nodetypes="ccccccc" />
    <path
       style="color:#000000;fill:#9d5a34;fill-opacity:1;fill-rule:nonzero;stroke:none;stroke-width:12;marker:none;visibility:visible;display:inline;overflow:visible;enable-background:accumulate"
       d="m -255.33154,183.32167 c -0.0301,3.29538 -0.0512,7.47157 0,10.55026 l 0,0.008 c 0.55149,0.66699 1.22271,1.3666 1.60401,2.18281 l 493.89076,0 0,-4.73771 -1.09987,-0.76067 c -0.32941,0.16272 -0.58897,0.37695 -0.70274,0.66146 -0.5625,1.40655 -3.93462,0 -5.34114,0.84338 -1.40653,0.84392 -10.40977,-0.28114 -10.40977,-0.28114 0,0 -12.0949,-1.40619 -14.34544,-0.56224 -2.25028,0.84394 -9.84488,-0.56283 -13.50196,0.28114 -3.6568,0.84392 -102.397717,-0.84378 -108.305334,-0.28114 -5.907352,0.56263 -186.696886,-1.40634 -193.448226,-0.2811 -6.75135,1.12525 -140.37652,1.40557 -142.62696,1.40557 -2.25047,0 -3.93568,-1.40557 -3.93568,-1.40557 0,0 -1.28548,-3.68424 -1.77765,-7.62333 z"
       id="path11616"
       inkscape:connector-curvature="0"
       sodipodi:nodetypes="cccccccccccssssccc" />
    <path
       style="color:#000000;fill:#9d5a34;fill-opacity:1;fill-rule:nonzero;stroke:none;stroke-width:12;marker:none;visibility:visible;display:inline;overflow:visible;enable-background:accumulate"
       d="m 243.06544,168.95151 c -0.0677,0.0167 -0.76041,0.92377 -0.65458,0.57174 -1.59305,0.90146 -2.74558,1.89886 -2.74558,1.89886 0,0 -8.33914,0.39018 -10.58995,0.39018 -2.25028,0 -28.97531,-0.84333 -36.28919,-0.84333 -7.31388,0 -330.72108,1.12427 -337.19112,1.40557 -6.47007,0.28133 -94.5198,-1.12427 -98.45807,-1.40557 -3.93833,-0.28133 -11.53253,-0.84299 -14.06428,-1.40563 -0.43939,-0.0976 -0.77544,-0.18571 -1.03354,-0.28109 -0.0765,2.32463 -0.10639,4.16428 -0.0249,4.57232 l 102.7162,1.91823 388.33849,-1.33117 5.70522,-1.05834 c 0,0 1.19009,-1.59393 1.38906,-2.38953 0.12541,-0.5031 1.60655,-0.84783 2.87734,-1.08312 0.0106,-0.2988 0.0159,-0.24652 0.0238,-0.56129 z"
       id="path11618"
       inkscape:connector-curvature="0"
       sodipodi:nodetypes="cccsssscccccccccc" />
    <g
       id="g3058"
       class="switchable"
       name="grain">
      <path
         id="path11680"
         d="m 242.98997,155.8377 c -14.24384,0.14801 -169.982359,0.85535 -243.07774012,1.42214 -40.80695288,0.31639 -173.82807988,0.57406 -205.40768988,0.6532 -15.7898,0.039 -29.19016,0.0359 -38.9681,-0.0331 -4.88897,-0.035 -8.87809,-0.081 -11.79883,-0.14886 -0.42412,-0.0101 -0.77734,-0.022 -1.15755,-0.0331 -0.0132,0.26794 -0.0185,0.49377 -0.0331,0.79375 0.38364,0.0101 0.74242,0.023 1.17422,0.0331 2.92814,0.068 6.91541,0.11422 11.80677,0.14886 9.78296,0.069 22.19325,0.77586 37.98437,0.73586 31.58252,-0.079 165.600864,-1.03939 206.40808196,-1.35599 73.12131004,-0.567 228.88495804,-1.27445 243.09414804,-1.42214 -0.0106,-0.2577 -0.0159,-0.54795 -0.0238,-0.79375 z m -500.70757,7.92097 c -0.0132,0.279 -0.0212,0.51345 -0.0331,0.79375 2.6043,0.05 5.80337,0.11202 10.04597,0.19843 9.44165,0.1923 22.66817,0.47239 38.40586,0.80204 31.47562,0.65928 164.881454,1.53527 206.2509115,2.41432 68.3627785,1.45261 204.1363685,2.77212 243.1602885,3.19979 l 0.21511,-0.37208 1.2155,-0.3886 c -39.22396,-0.4227 -175.774624,-1.77099 -244.5742298,-3.23286 -41.3697222,-0.87913 -174.7752902,-1.75504 -206.2511802,-2.41432 -15.73768,-0.32975 -28.96394,-0.60974 -38.40586,-0.80204 -4.24497,-0.087 -7.43373,-0.14874 -10.0293,-0.19843 z m 475.93569,14.68437 c -40.24789,-0.11361 -271.982941,6.42022 -358.13816,10.53373 -65.79817,3.14161 -99.39655,3.1392 -115.43268,2.68716 0,0.27434 0.008,0.52797 0.008,0.79375 16.10122,0.45265 49.74431,0.45042 115.45755,-2.68716 102.793012,-4.90781 337.11119,-13.236 380.0491,-9.6573 l 0,-0.802 c -6.94611,-0.57695 -14.20521,-0.84638 -21.94401,-0.86818 z m -473.51316,1.88516 c 0,0.20299 -0.0159,0.56898 -0.0159,0.80203 16.33961,0.70847 40.97206,1.13276 63.41719,1.46346 15.42177,0.22749 29.78362,0.40312 39.63803,0.59532 3.29961,0.064 5.18371,0.13761 7.34218,0.20669 -4.33996,0.25085 -10.24837,0.5425 -18.56211,0.88471 -12.14516,0.50001 -27.36188,1.0586 -42.25078,1.5875 -22.6351,0.8041 -40.43971,1.3919 -49.63425,1.69498 l 0,0.80203 c 9.17946,-0.30261 27.00206,-0.89837 49.65912,-1.70326 14.88969,-0.5289 30.10297,-1.08741 42.25052,-1.5875 12.14755,-0.50001 21.19895,-0.93461 23.86224,-1.21544 0.33391,-0.035 0.5125,-0.047 0.71094,-0.12401 0.05,-0.019 0.10821,-0.0209 0.2069,-0.14883 0.049,-0.064 0.0998,-0.1928 0.0825,-0.31419 -0.0185,-0.12139 -0.078,-0.20505 -0.12409,-0.24805 -0.0918,-0.086 -0.14287,-0.091 -0.19023,-0.10747 -0.0468,-0.0161 -0.0939,-0.023 -0.1405,-0.0331 -0.37253,-0.0781 -1.07923,-0.127 -2.20741,-0.18192 -2.25664,-0.10959 -6.0587,-0.20971 -10.98868,-0.30591 -9.8597,-0.19241 -24.21731,-0.36801 -39.63776,-0.59532 -22.44487,-0.33083 -47.1125,-0.76475 -63.41745,-1.47174 z m 479.95418,1.51307 c -13.4374,-0.022 -115.68219,0.81788 -131.059772,2.03401 -26.241904,2.0755 -52.621128,5.24142 -69.916147,7.06932 -11.438732,1.20891 -127.059801,3.28362 -153.615231,5.5149 l 9.47525,0 c 22.625849,-1.9195 134.146404,-3.65614 144.222795,-4.72115 17.306132,-1.82909 43.670274,-4.99562 69.891277,-7.06932 21.710648,-1.71714 130.250678,-2.67933 146.504818,-1.52963 l 0,-0.79375 c -3.99388,-0.28141 -8.2923,-0.44003 -12.84049,-0.48782 -0.87895,-0.0101 -1.76662,-0.0156 -2.6625,-0.0167 z"
         style="color:#000000;fill:#d3865b;fill-opacity:1;fill-rule:nonzero;stroke:none;stroke-width:10;marker:none;visibility:visible;display:inline;overflow:visible;enable-background:accumulate"
         inkscape:connector-curvature="0" />
      <path
         id="path11674"
         d="M 242.98997,155.44083 C 228.74613,155.58886 73.007611,156.29615 -0.08777012,156.86296 -40.894459,157.1794 -173.91585,157.437 -205.49546,157.51617 c -15.7898,0.039 -29.19016,0.0359 -38.9681,-0.0331 -4.88897,-0.0351 -8.87809,-0.081 -11.79883,-0.14885 -0.42412,-0.01 -0.77761,-0.0222 -1.15755,-0.0331 -0.0132,0.26791 -0.0185,0.49373 -0.0331,0.79375 0.38364,0.0106 0.74242,0.023 1.17422,0.0331 2.92841,0.068 6.91541,0.11419 11.80677,0.14885 9.78323,0.069 23.18543,0.0731 38.97656,0.0331 31.58252,-0.0791 164.608674,-0.33666 205.41589196,-0.65321 73.12131004,-0.567 228.88495804,-1.27444 243.09414804,-1.42213 -0.008,-0.25771 -0.0159,-0.54793 -0.0238,-0.79375 z m -500.70757,7.92096 c -0.0132,0.27892 -0.0212,0.51348 -0.0331,0.79375 2.6043,0.0496 5.80337,0.112 10.04597,0.19844 9.44165,0.1923 22.66817,0.47239 38.40586,0.80203 31.47562,0.65929 164.881454,1.53527 206.2509115,2.41432 68.4881915,1.45537 204.7028385,2.78297 243.4415485,3.20808 l 2.36458,-0.75243 c -37.9529,-0.411 -176.439785,-1.7758 -245.7894598,-3.2494 -41.3697222,-0.87915 -174.7752902,-1.75503 -206.2511802,-2.41432 -15.73768,-0.32975 -28.96394,-0.60973 -38.40586,-0.80203 -4.24497,-0.0865 -7.43373,-0.14883 -10.0293,-0.19844 z m 475.93569,14.68438 c -40.24815,-0.11364 -271.982941,6.42024 -358.13816,10.53372 -65.79817,3.14158 -99.39655,3.13923 -115.43268,2.68716 0.003,0.27432 0.005,0.52803 0.008,0.79375 16.10122,0.4527 49.74431,0.45043 115.45755,-2.68716 102.793012,-4.90781 337.11119,-13.23599 380.0491,-9.65729 l 0,-0.80201 c -6.94611,-0.57689 -14.20521,-0.84637 -21.94401,-0.86817 z m -473.51316,1.88515 c -0.003,0.20307 -0.005,0.56904 -0.008,0.80203 16.33961,0.70853 40.97206,1.13269 63.41719,1.46347 15.42203,0.22743 29.78362,0.40312 39.63802,0.59531 3.29962,0.064 5.18398,0.13758 7.34219,0.20669 -4.33996,0.25085 -10.24811,0.54253 -18.56211,0.88472 -12.1449,0.50003 -27.36188,1.05862 -42.25078,1.5875 -22.63484,0.80414 -40.43945,1.39189 -49.63398,1.69497 l 0,0.80203 c 9.17918,-0.3026 27.00205,-0.89836 49.65885,-1.70325 14.88969,-0.52888 30.10297,-1.08747 42.25052,-1.5875 12.14808,-0.49999 21.19921,-0.93459 23.86224,-1.21545 0.3339,-0.035 0.51223,-0.047 0.7112,-0.12401 0.05,-0.019 0.10848,-0.0209 0.20664,-0.14882 0.0489,-0.064 0.10001,-0.19281 0.0825,-0.3142 -0.0185,-0.12134 -0.0778,-0.205 -0.12409,-0.24804 -0.0918,-0.086 -0.14287,-0.091 -0.18997,-0.10748 -0.0471,-0.0161 -0.0939,-0.023 -0.14076,-0.0331 -0.37253,-0.078 -1.07923,-0.12697 -2.20742,-0.18193 -2.25636,-0.10969 -6.05869,-0.20968 -10.98841,-0.30591 -9.86023,-0.19238 -24.21731,-0.36798 -39.63802,-0.59531 -22.44831,-0.33094 -47.12071,-0.76449 -63.42566,-1.47175 z m 479.95418,1.51308 c -13.4374,-0.0217 -115.68219,0.81782 -131.059772,2.03401 -26.242169,2.07549 -52.621128,5.24139 -69.916147,7.06932 -11.438732,1.20893 -127.059801,3.28361 -153.615231,5.5149 l 9.47525,0 c 22.626113,-1.91953 134.146404,-3.65618 144.222795,-4.72115 17.306132,-1.82914 43.670274,-4.99563 69.891277,-7.06932 21.710648,-1.71712 130.250678,-2.67933 146.504818,-1.52964 l 0,-0.79375 c -3.99388,-0.28146 -8.2923,-0.43997 -12.84049,-0.48781 -0.87895,-0.009 -1.76662,-0.0151 -2.6625,-0.0167 z"
         style="color:#000000;fill:#a96138;fill-opacity:1;fill-rule:nonzero;stroke:none;stroke-width:10;marker:none;visibility:visible;display:inline;overflow:visible;enable-background:accumulate"
         inkscape:connector-curvature="0" />
    </g>
    <path
       style="color:#000000;fill:#422515;fill-opacity:1;fill-rule:nonzero;stroke:none;stroke-width:12;marker:none;visibility:visible;display:inline;overflow:visible;enable-background:accumulate"
       d="m 244.04916,169.01766 c -0.99457,0.0994 -3.98515,1.09966 -3.98515,1.09966 0,0 -1.38192,3.19278 -1.48828,3.48091 0.1987,-0.39783 1.99258,-2.68716 1.99258,-2.68716 l 3.48085,-0.69453 z m -503.15102,3.78682 0.4961,1.48828 50.72557,0.49609 z m 454.51743,2.08359 44.85508,1.39735 -0.5043,-1.19891 c -0.59663,0.0995 -44.35078,-0.19844 -44.35078,-0.19844 z m -451.23495,17.7023 -0.59532,1.00046 2.77813,3.07579 46.45091,-0.4961 -46.05404,-0.49609 z"
       id="path11589"
       inkscape:connector-curvature="0"
       sodipodi:nodetypes="cccccccccccccccccccc"
       name="style lines"
       class="switchable" />
    <path
       style="color:#000000;fill:#d3865b;fill-opacity:1;fill-rule:nonzero;stroke:none;stroke-width:10;marker:none;visibility:visible;display:inline;overflow:visible;enable-background:accumulate"
       d="m -105.1061,150.09995 c -40.85788,0.0301 -75.67729,0.47559 -113.4401,0.56224 -5.76739,0.24812 -11.36317,0.53567 -12.50157,0.67797 -1.26201,0.15774 -8.8774,-0.22067 -16.08169,-0.67797 l -9.73172,0 -0.42167,4.0514 c 0,0 -0.98411,15.76533 -0.70281,17.17183 l 0.0579,-1.68783 c 0.39121,-4.73628 2.23244,-13.79728 2.23244,-13.79728 l 0.42167,-4.0514 9.73172,0 c 7.20429,0.4573 14.81968,0.83571 16.08169,0.67797 1.1384,-0.1423 6.73418,-0.42985 12.50157,-0.67797 60.42048,-0.13862 203.625159,-1.19891 285.754738,0 10.318221,0.31297 28.197176,0.95911 29.476436,0.95911 0.860161,0 96.142176,-0.49964 104.435546,-0.95911 l 38.25716,0 c 0.45958,1.00777 1.97564,8.14432 2.08359,14.97227 0.21511,-6.84803 0.003,-15.56441 -0.49609,-16.65899 l -39.84466,0 c -8.29337,0.45947 -103.575385,0.95911 -104.435546,0.95911 -1.27926,0 -19.158215,-0.64614 -29.476436,-0.95911 -30.798559,-0.44961 -149.387405,-0.58031 -173.902138,-0.56224 z"
       id="path11606"
       inkscape:connector-curvature="0"
       sodipodi:nodetypes="scsccccccccsccscccccscs" />
    <path
       style="color:#000000;fill:#d3865b;fill-opacity:1;fill-rule:nonzero;stroke:none;stroke-width:10;marker:none;visibility:visible;display:inline;overflow:visible;enable-background:accumulate"
       d="m 75.245522,174.55734 c -19.141017,0.0453 -37.364195,0.30197 -52.379352,0.50438 35.142012,0.0688 175.48522,0.47143 214.10539,2.72026 0.60113,0.009 3.15357,-0.39846 3.19167,0.45474 l 0,-1.68672 c -0.0381,-0.8532 -2.59054,-0.44574 -3.19167,-0.45474 -22.1189,-1.28796 -136.06939,-1.59856 -161.726038,-1.53792 z m -210.084172,0.76068 c -39.45872,-0.007 -79.31071,0.0457 -119.64128,0.63667 0,0 -0.69474,1.03873 -0.79375,2.33164 0,0 -0.15298,9.8638 -0.0579,15.5856 -0.0951,-5.7218 1.74458,-13.89888 1.74458,-13.89888 0.099,-1.29292 0.79375,-2.33164 0.79375,-2.33164 40.98906,-0.60058 80.50554,-1.78792 120.12912,-2.32339 -0.72692,-1.6e-4 -1.44738,1.3e-4 -2.17456,0 z"
       id="path11611"
       inkscape:connector-curvature="0"
       sodipodi:nodetypes="scccccscccccccc" />
  </g>
</svg>
