<?xml version="1.0" encoding="UTF-8" standalone="no"?>
<!-- Created with Inkscape (http://www.inkscape.org/) -->

<svg
   xmlns:dc="http://purl.org/dc/elements/1.1/"
   xmlns:cc="http://creativecommons.org/ns#"
   xmlns:rdf="http://www.w3.org/1999/02/22-rdf-syntax-ns#"
   xmlns:svg="http://www.w3.org/2000/svg"
   xmlns="http://www.w3.org/2000/svg"
   xmlns:sodipodi="http://sodipodi.sourceforge.net/DTD/sodipodi-0.dtd"
   xmlns:inkscape="http://www.inkscape.org/namespaces/inkscape"
   width="597.96411"
   height="945.75433"
   viewBox="0 0 158.21133 250.23084"
   version="1.1"
   id="svg23489"
   inkscape:version="0.48.5 r10040"
   sodipodi:docname="mobile_panel_vertical.svg"
   tags="wood panel, wood ui">
  <defs
     id="defs23483" />
  <sodipodi:namedview
     id="base"
     pagecolor="#7d848b"
     bordercolor="#666666"
     borderopacity="1.0"
     inkscape:pageopacity="0"
     inkscape:pageshadow="2"
     inkscape:zoom="0.47027675"
     inkscape:cx="396.28504"
     inkscape:cy="367.09187"
     inkscape:document-units="px"
     inkscape:current-layer="layer1"
     showgrid="false"
     inkscape:pagecheckerboard="false"
     showborder="true"
     units="px"
     inkscape:window-width="1920"
     inkscape:window-height="1017"
     inkscape:window-x="-8"
     inkscape:window-y="-8"
     inkscape:window-maximized="1"
     inkscape:showpageshadow="false"
     guidetolerance="28"
     fit-margin-left="25"
     fit-margin-top="25"
     fit-margin-bottom="25"
     fit-margin-right="25">
    <inkscape:grid
       type="xygrid"
       id="grid24034"
       spacingx="1px"
       spacingy="1px"
       empspacing="8"
       visible="true"
       enabled="true"
       snapvisiblegridlinesonly="true"
       originx="284.30443px"
       originy="-49.730273px" />
  </sodipodi:namedview>
  <metadata
     id="metadata23486">
    <rdf:RDF>
      <cc:Work
         rdf:about="">
        <dc:format>image/svg+xml</dc:format>
        <dc:type
           rdf:resource="http://purl.org/dc/dcmitype/StillImage" />
        <dc:title />
        <cc:license
           rdf:resource="" />
        <dc:creator>
          <cc:Agent>
            <dc:title>Robert Brooks</dc:title>
          </cc:Agent>
        </dc:creator>
      </cc:Work>
    </rdf:RDF>
  </metadata>
  <g
     inkscape:label="Layer 1"
     inkscape:groupmode="layer"
     id="layer1"
     transform="translate(75.222218,-33.611351)">
    <path
       id="path8823"
       d="m -65.674075,41.827984 -0.205987,6.567207 0.0768,15.863409 c 3.2e-4,0.0064 -4.26e-4,0.01067 0,0.0176 l 0.01173,1.104807 c 0,8.74e-4 0,0.0032 0,0.0032 l 0.02133,3.926237 1.992555,1.615399 -0.970516,0.03083 c -0.09174,1.178615 -0.16097,2.270866 -0.219001,3.3144 -0.01173,0.193655 -0.02453,0.400378 -0.03413,0.589819 -4.27e-4,0.0096 4.27e-4,0.01792 0,0.02645 -0.01173,0.191383 -0.01707,0.367373 -0.0256,0.554596 -0.03733,0.817941 -0.06934,1.596145 -0.09067,2.341655 -0.01173,0.154612 -0.01173,0.319167 -0.0128,0.470985 -4.27e-4,0.01429 2.13e-4,0.02976 0,0.04395 -0.0128,0.513207 -0.02027,1.012823 -0.0256,1.496544 -2.13e-4,0.01707 1.07e-4,0.03574 0,0.0528 -0.01173,0.483594 -0.01173,0.954696 -0.01173,1.412912 1.07e-4,0.01568 0,0.03275 0,0.04843 0,0.448914 0.01173,0.887556 0.0128,1.316074 0,0.162656 0.01173,0.319668 0.01173,0.479775 0.01387,0.722009 0.03093,1.422235 0.05654,2.103954 0,0.02752 0.01173,0.05611 0.01173,0.08363 0.01387,0.387939 0.02773,0.773191 0.04374,1.153226 0,0.03061 0.01173,0.06208 0.01173,0.09238 0.08427,2.004279 0.189346,3.929309 0.248976,6.034597 0,0.04758 0.01174,0.09313 0.01174,0.140851 0.01173,0.107442 0.01173,0.212878 0.01173,0.321322 0.01173,0.276967 0.01173,0.556367 0.01707,0.840705 0,8.85e-4 5.34e-4,0.0032 0,0.0043 0,0.05366 0.01173,0.10454 0.01173,0.158453 l 0.09067,0.0032 2.250171,1.509761 -2.53787,0.07926 c -0.01813,0.187201 -0.0384,0.453213 -0.05974,0.783506 0,0.0064 4.27e-4,0.01067 0,0.01749 -0.02027,0.327296 -0.04267,0.716025 -0.064,1.162038 -0.0192,0.365655 -0.04054,0.790099 -0.05974,1.223631 -0.01173,0.10294 -0.01173,0.184129 -0.0128,0.290504 0,0.03659 -0.01173,0.06411 -0.01173,0.101233 -0.02347,0.528066 -0.048,1.090436 -0.07254,1.690236 -0.032,0.78622 -0.064,1.6904 -0.09814,2.56611 -0.01173,0.19334 -0.01813,0.39338 -0.0256,0.58984 -0.0128,0.34603 -0.0256,0.64513 -0.03734,0.99916 -0.01173,0.0944 -0.01173,0.17359 -0.01173,0.26851 -0.04267,1.16045 -0.08427,2.34283 -0.124488,3.53008 -0.0128,0.37396 -0.0256,0.70254 -0.0384,1.07398 -1.06e-4,0.003 0,0.005 0,0.01 -0.05867,1.71036 -0.102406,3.10424 -0.150303,4.61289 -0.01173,0.30077 -0.01173,0.37671 -0.02027,0.66463 -0.107314,3.34375 -0.188919,6.04343 -0.188919,6.04343 l 0,0.01 1.953939,1.5802 -0.201827,0.003 0,3.38045 0,17.47001 0,4.51166 0.107314,0.0176 c 0.0704,0.2239 1.813983,2.82864 2.731056,4.25635 -1.506337,0.0127 -3.010967,0.0258 -4.521785,0.0396 l 0,3.38043 0,0.43135 1.099378,1.12681 -1.099378,5.62529 0,14.00152 0,0.11886 3.409713,3.26159 3.731654,0.0484 -5.634283,0.5326 c -0.01493,0.7168 -0.0224,1.53341 -0.03413,2.40328 -0.01174,0.43272 -0.0128,0.88127 -0.01814,1.34249 -0.01173,0.57483 -0.01173,1.15311 -0.0128,1.76064 -0.01173,0.50174 0,0.99783 -0.01173,1.51417 -4.27e-4,0.10454 -0.01173,0.20312 -0.01173,0.30808 4.27e-4,0.003 -2.13e-4,0.005 0,0.01 -1.07e-4,0.051 2.13e-4,0.0985 0,0.14965 0,0.69553 -0.01173,1.39684 -0.01173,2.09957 0,0.0371 0,0.073 0,0.11007 0,0.053 0,0.1054 0,0.15845 0,0.0268 0,0.0525 0,0.0793 0,0.27101 -4.27e-4,0.53564 0,0.80553 0,0.75579 0.01173,1.49902 0.01173,2.23161 3.2e-4,0.0476 -1.07e-4,0.0979 0,0.14526 0,0.22162 0.01173,0.42014 0.01173,0.63822 0,0.34041 0.01173,0.69565 0.01173,1.02558 0.01173,0.52339 0.01173,1.0293 0.0128,1.51857 0.01173,0.23471 0.01173,0.46126 0.01173,0.68664 3.2e-4,0.0233 -2.13e-4,0.0428 0,0.0659 0.01173,0.30139 0.01173,0.61126 0.0128,0.89352 0.01173,0.26782 0.01173,0.48677 0.0128,0.73508 0,0.0782 0.01173,0.1747 0.01173,0.25088 0,0.10315 0.01173,0.20451 0.01173,0.30372 0.01173,0.14446 0.01173,0.26484 0.01173,0.40054 0.01173,0.24597 0.01173,0.49771 0.01707,0.71308 0.01173,0.29366 0.0192,0.57142 0.02987,0.80107 0.01174,0.11848 0.01174,0.20383 0.01707,0.30372 0.01173,0.0586 0.01173,0.12405 0.01173,0.17608 0.01173,0.11042 0.01814,0.22534 0.0256,0.3037 0,0.0144 0.01173,0.0262 0.01173,0.0397 0.01173,0.0803 0.01707,0.14673 0.0256,0.18486 l 0.133022,0 0.717166,1.16203 c -1.23464,0.0417 -2.470773,0.0851 -3.701678,0.12766 l 0.09921,24.5742 c 0.03627,0.002 0.07147,0.003 0.107313,0.004 l 2.920188,2.30203 0,7.69842 c 0.02347,0.01 0.0448,0.0176 0.06721,0.0265 l 0.605585,2.22282 -0.674176,0.57662 0,3.17355 0,4.93422 0,0.77469 0.01173,0 -0.01173,0.0308 0.62692,1.50536 c -0.484085,0.0191 -0.966996,0.0378 -1.4514,0.0572 -0.61988,2.32963 0,19.8645 0,19.8645 l 0,0.01 2.245798,3.37163 132.760115,0 2.044185,-3.38044 0.145929,0 c 0,0 0.01707,-0.29264 0.03414,-0.67786 0,-0.0231 0.01173,-0.0727 0.01173,-0.0967 0.0192,-0.41585 0.04907,-1.05319 0.0768,-1.73424 0.01173,-0.0951 0.01173,-0.23087 0.0128,-0.33013 0,-0.015 0,-0.0335 0,-0.0484 0.193933,-4.71011 0.476298,-13.87564 -0.128861,-16.97704 -0.604412,-0.0286 -1.211278,-0.0559 -1.816437,-0.0836 l 1.730565,-1.56257 c 0.01707,-0.23837 0.03627,-0.80354 0.04694,-1.56258 0,-0.0911 0.01173,-0.17117 0.01173,-0.2685 5.33e-4,-0.0337 -4.27e-4,-0.0756 0,-0.11007 0.01173,-0.27014 0.01173,-0.5739 0.01173,-0.88474 2.13e-4,-0.0549 -3.2e-4,-0.11989 0,-0.17605 0,-0.30442 3.2e-4,-0.63714 0,-0.97277 0,-0.0784 1.07e-4,-0.1665 0,-0.24648 0,-0.29901 0,-0.61925 -0.01173,-0.93754 -2.13e-4,-0.0281 2.13e-4,-0.0598 0,-0.088 0,-0.10347 -0.01173,-0.21608 -0.01173,-0.32131 -0.01173,-0.42127 -0.01173,-0.85348 -0.0128,-1.29847 -0.01173,-0.38918 -0.0128,-0.79506 -0.02134,-1.19724 0,-0.0972 -0.01173,-0.19723 -0.01173,-0.29491 0,-0.0598 -0.01173,-0.12051 -0.01173,-0.18047 0,-0.0468 0,-0.094 0,-0.14085 0,-0.0624 -0.01173,-0.12672 -0.01173,-0.18927 -0.03627,-1.48546 -0.09387,-3.01296 -0.176011,-4.48526 -0.0128,-0.2398 -0.02347,-0.47709 -0.03734,-0.71305 -0.01173,-0.0675 -0.01173,-0.13093 -0.0128,-0.19808 -0.04374,-0.66221 -0.09174,-1.30012 -0.146249,-1.91468 -0.01493,-0.16464 -0.02667,-0.32399 -0.04374,-0.48421 -0.01173,-0.0577 -0.01173,-0.11891 -0.01707,-0.17605 -0.01173,-0.0315 -0.01173,-0.0611 -0.01173,-0.0924 l 2.228837,-3.222 0,-0.022 0.201826,-7.76445 0,-0.0176 0.381998,-14.91268 c 0.146249,-2.09658 -0.583824,-4.42364 -0.583824,-4.42364 -1.124766,-0.0389 -2.253052,-0.0742 -3.384111,-0.11007 l 1.000704,-1.17962 0.133128,0 c 0.01173,-0.0337 0.02347,-0.0777 0.03414,-0.11884 0.01173,-0.012 0.01173,-0.0268 0.01173,-0.0396 0.0512,-0.21272 0.09707,-0.51647 0.137609,-0.88911 0.01173,-0.0504 0.01173,-0.10985 0.01707,-0.16286 0.01173,-0.11077 0.02027,-0.23051 0.02987,-0.35214 0,-0.029 0.01173,-0.0629 0.01173,-0.0926 0.01173,-0.15827 0.02454,-0.32273 0.03414,-0.49735 0.04374,-0.68883 0.08,-1.51267 0.107313,-2.4077 0.01387,-0.45445 0.02454,-0.92918 0.03414,-1.42172 4.27e-4,-0.0255 -6.4e-4,-0.0537 0,-0.0793 0,-0.0586 0.01173,-0.12145 0.01173,-0.18046 0.01173,-0.40275 0.0128,-0.81615 0.01814,-1.23686 0,-0.10698 0.01173,-0.21783 0.01173,-0.32571 0.01173,-0.31204 0.01173,-0.63664 0.01173,-0.95515 0,-0.3169 0.01173,-0.63836 0.01173,-0.95956 1.07e-4,-0.11662 1.07e-4,-0.23512 0,-0.35214 -3.2e-4,-0.44052 -0.01173,-0.88223 -0.01173,-1.32487 -0.01173,-0.75887 -0.01173,-1.51394 -0.02027,-2.25802 -0.01173,-0.29603 -0.01173,-0.5808 -0.0128,-0.87153 -0.01173,-0.6903 -0.02667,-1.35806 -0.04374,-2.00273 -0.02027,-0.83964 -0.0448,-1.627 -0.07254,-2.34608 -0.01173,-0.31586 -0.0256,-0.59011 -0.0384,-0.87591 -0.02987,-0.63811 -0.0608,-1.19398 -0.09387,-1.65059 -0.02774,-0.38446 -0.05547,-0.68473 -0.08641,-0.91115 -0.01173,-0.0649 -0.02027,-0.13016 -0.02987,-0.18046 0,-0.005 -0.01174,-0.009 -0.01174,-0.0133 l 0.863096,-0.86272 0.201826,0.003 0,-0.20244 0,-8.84726 0,-1.27206 c -0.41912,-3.38756 -1.168182,-8.88247 -1.168182,-8.88247 l -1.202104,-1.09599 c 0.717807,-1.26724 1.75414,-3.01321 2.301589,-3.49929 0.0224,-0.005 0.04694,-0.0114 0.06827,-0.0176 l 0,-0.0396 c 0.04907,-0.0363 0.09494,-0.0613 0.133021,-0.0704 l -0.133021,0 0,-2.33286 c -0.572944,-0.004 -1.148768,-0.01 -1.722138,-0.0133 l 1.661867,-1.27647 c 0.03093,-5.3e-4 0.064,-0.003 0.09494,-0.004 l 0,-0.0704 0,-6.81809 0,-19.59599 0,-2.48252 -5.093127,-0.0264 2.967337,-2.42969 0.373891,-0.0352 0.343276,-12.07803 0,-0.004 0.0128,-0.51058 0.04374,-6.05221 -3.972308,-1.527353 -0.429361,-1.883897 0.536781,-0.162869 2.005462,-3.503682 0.584038,-19.714825 -0.08641,0 0.0128,-0.554628 0.04694,-1.760636 2.799967,-2.605757 0,-0.0528 c 0,0 0.01173,4.2e-5 0.01173,0 0,0 0.01707,-0.09761 0.03414,-0.206872 0,-0.01184 0.01173,-0.04011 0.01173,-0.0528 0.01173,-0.01963 0.01173,-0.06635 0.0128,-0.08811 0.02667,-0.168406 0.05974,-0.382457 0.09921,-0.686658 0.01173,-0.07819 0.0224,-0.176928 0.03414,-0.264081 0.01173,-0.09579 0.0256,-0.210573 0.03733,-0.316927 0.01173,-0.07755 0.02027,-0.172128 0.02987,-0.255291 0.016,-0.139593 0.02987,-0.298184 0.04694,-0.453362 0.01173,-0.06795 0.01494,-0.149183 0.02027,-0.220078 0.0192,-0.192301 0.0416,-0.402213 0.05974,-0.616232 0.04374,-0.488618 0.08427,-1.048708 0.124488,-1.650613 0.01174,-0.129011 0.01814,-0.279527 0.0256,-0.413744 0.02027,-0.330283 0.04374,-0.685975 0.0608,-1.047577 0.01173,-0.05835 0.01173,-0.121341 0.01173,-0.180481 0.01173,-0.198348 0.01814,-0.417498 0.0256,-0.625021 0.01173,-0.236549 0.01813,-0.482229 0.0256,-0.730671 0,-0.03926 0.01174,-0.08363 0.01174,-0.123229 0.01387,-0.43365 0.0256,-0.890831 0.03414,-1.360109 3.2e-4,-0.01408 -2.13e-4,-0.02987 0,-0.04406 0.02773,-1.537198 0.02773,-3.266301 -0.01707,-5.185081 0,-0.06507 -0.01173,-0.132552 -0.01173,-0.198082 -0.01173,-0.258875 -0.01387,-0.51775 -0.02027,-0.783485 -0.01173,-0.333397 -0.02133,-0.67263 -0.03414,-1.01678 -0.206734,-3.812107 -0.61828,-8.900061 -0.61828,-8.900061 L 69.112517,42.239626 -65.605911,41.825872 z"
       style="color:#000000;fill:#6b3e25;fill-opacity:1;fill-rule:nonzero;stroke:#422515;stroke-width:3.96875009;stroke-linejoin:round;stroke-miterlimit:4;stroke-opacity:1;stroke-dasharray:none;marker:none;visibility:visible;display:inline;overflow:visible;enable-background:accumulate"
       inkscape:connector-curvature="0" />
    <path
       sodipodi:nodetypes="ccccccccccccccccccccccccccccccccccccccccccccccccccccccccccccccccc"
       inkscape:connector-curvature="0"
       id="path8825"
       d="m -65.778295,46.480475 0,22.831187 4.233872,3.433245 131.139318,0 3.57719,-3.327617 0,-22.936815 z m 1.023212,27.857846 0,19.6444 5.114676,3.437661 124.70349,0.973396 2.744817,-0.835158 2.005036,-3.505484 0.584037,-19.714815 z m -0.145396,24.675433 -1.022572,22.254556 4.165495,3.37166 128.573072,-1.48335 4.45746,-3.64895 0,-17.87322 z M 73.024982,124.75 l -137.19592,1.48333 0,21.98169 c 0,0 0.637694,-0.0161 0.109553,0.004 -0.121394,0.004 3.404166,5.19753 3.285545,5.20189 l 0.016,1.19395 129.294399,0 4.491809,-3.45085 z m 0.09814,30.11144 -138.978222,1.0476 0,0.43135 1.099377,1.12681 -1.099377,5.62527 0,14.12037 3.409713,3.2616 131.85403,1.69462 3.581564,-3.58289 0,-10.11933 c -0.419227,-3.38756 -1.168182,-8.88246 -1.168182,-8.88246 l -1.96674,0.28172 c 0,0 2.5847,-4.84192 3.267837,-5.00466 z m -137.329156,26.30847 0,21.82759 2.220303,3.59612 130.878927,-1.0608 2.997527,-3.53888 0,-19.12942 z m 138.345861,25.65259 -139.342085,1.80028 -1.687895,20.33546 4.324545,3.49929 134.382192,1.48334 2.323243,-3.35845 z m -1.785715,43.91506 -136.231911,-11.69751 1.363501,5.01898 -1.416945,6.76203 1.395717,3.34964 131.085234,0 z"
       style="color:#000000;fill:#6b3e25;fill-opacity:1;fill-rule:nonzero;stroke:none;stroke-width:15;marker:none;visibility:visible;display:inline;overflow:visible;enable-background:accumulate" />
    <path
       style="color:#000000;fill:#aa653d;fill-opacity:1;fill-rule:nonzero;stroke:none;stroke-width:15;marker:none;visibility:visible;display:inline;overflow:visible;enable-background:accumulate"
       d="m -65.677809,41.830768 -0.20652,6.562097 0.103474,20.921069 c 10.352666,0.322591 20.575937,0.532727 30.702989,0.670315 l -29.678923,0.970174 c -0.87035,11.262325 -0.118301,15.872862 0,23.081987 l 24.197503,0.899642 37.3804319,-0.299881 -56.3116759,0.829077 -5.464245,0.167595 c -0.292179,2.995083 -0.97233,25.630927 -0.97233,25.630927 l 15.58383,1.16425 26.736013,-0.33514 -40.564423,0.75849 0,25.36636 4.586535,0.77616 1.44564,2.32849 c 0,0 0.09281,0.0254 0.15489,0.0705 44.046567,1.10131 87.669854,0.90365 131.012482,-0.15873 l 0,-28.96492 -80.4661901,-0.38808 2.9687243,-0.0353 56.9828658,-0.24696 18.759181,-1.82576 0.352769,-12.58617 0.0512,-6.05933 L 67.7008,99.601749 66.960805,96.364816 0.86513943,94.600819 67.262051,94.062779 c 0.575077,-0.364087 1.459721,-0.944519 2.59014,-1.746331 l 0.542115,-21.362099 c -9.098612,-0.390682 -18.327899,-0.800607 -27.708449,-1.14657 10.180708,-0.135593 20.332935,-0.28436 30.487828,-0.441031 0,0 1.0326,-5.507107 0.61956,-16.519868 -0.206733,-3.812107 -0.61956,-8.899378 -0.61956,-8.899378 L 69.043286,42.245227 -65.678022,41.830693 z M -3.7986273,152.23085 c -20.3033867,0.0126 -40.9617817,0.10625 -62.0598867,0.29988 l 0,3.81024 1.101511,1.12897 -1.101511,5.61836 0,14.00618 138.851707,1.69344 0,-10.31945 c -0.419227,-3.38752 -1.170315,-8.88173 -1.170315,-8.88173 l -3.717359,-3.39572 c 0,0 2.79698,-0.63335 4.887674,-1.21713 l 0,-2.44316 C 47.834348,152.3315 22.305879,152.21465 -3.7986273,152.23085 z m -48.7994067,25.70152 c -1.307924,0.87909 -3.880889,2.3814 -3.880889,2.3814 l -7.86504,0.74088 c -0.136862,6.68557 -0.09494,21.20378 0.137609,22.15587 l 136.098143,-1.0584 c 0.730501,-2.2463 0.438322,-21.31965 0,-22.66743 l -60.278651,-1.03196 -64.211172,-0.52036 z m 79.252886,24.73131 c -30.9490845,-0.0194 -62.908687,0.77937 -93.709496,1.8434 l 0.163531,24.44907 c 12.073096,0.58878 24.366474,1.15636 36.890053,1.48176 l -33.929863,-0.37047 0,9.01408 c 1.195704,0.44168 2.340524,0.82905 2.340524,0.82905 l -2.340524,1.99336 0,8.89057 136.287382,-0.0529 c 0.103473,-1.42956 0.189666,-13.68595 -0.740101,-19.19235 l -41.528112,-0.44981 c 14.793059,-0.0442 29.537367,-0.2311 44.049448,-0.53803 l 0.585104,-22.69388 c 0.146143,-2.09657 -0.585104,-4.42764 -0.585104,-4.42764 -15.3372,-0.53149 -31.271559,-0.76598 -47.482842,-0.77617 z M 5.3055318,250.88267 c -22.8842458,0.0187 -46.2592968,0.53868 -70.0625348,1.49943 -0.61988,2.32962 0,19.86267 0,19.86267 l 5.059739,0 132.139702,0 c 0,0 0.826507,-15.627 0,-19.86267 -21.855806,-1.03545 -44.252554,-1.51809 -67.1369062,-1.49943 z"
       id="path8827"
       inkscape:connector-curvature="0" />
    <path
       style="opacity:0.03999999;color:#000000;fill:#000000;fill-opacity:1;fill-rule:nonzero;stroke:none;stroke-width:8;marker:none;visibility:visible;display:inline;overflow:visible;enable-background:accumulate"
       d="m -52.598034,177.93237 c -1.307924,0.87909 -3.880889,2.3814 -3.880889,2.3814 l -7.86504,0.74088 c -0.136862,6.68557 -0.09494,21.20378 0.137609,22.15587 l 136.098143,-1.0584 c 0.730501,-2.2463 0.438322,-21.31965 0,-22.66743 l -60.278651,-1.03196 -64.211172,-0.52036 z m 79.252886,24.73131 c -24.8013823,-0.0156 -50.242806,0.49287 -75.225747,1.24364 L 60.928844,203.0606 c -11.205201,-0.26396 -22.667379,-0.38964 -34.273992,-0.39692 z m -90.585775,27.40376 0,9.01408 c 1.195704,0.44168 2.340524,0.82905 2.340524,0.82905 l -2.340524,1.99336 0,8.89057 26.038902,-0.009 1.893135,-0.097 12.84744,0.0882 95.507905,-0.0353 c 0.103473,-1.42956 0.189666,-13.68593 -0.740101,-19.19235 l -41.528112,-0.44981 c 9.687344,-0.0289 19.344925,-0.11962 28.938929,-0.2646 l -91.661471,-0.25577 -5.963264,-0.23815 -25.333363,-0.27343 z m 69.2364548,20.81523 c -3.0369954,0.002 -6.08444481,0.0153 -9.138508,0.0353 L 37.60905,251.20023 C 26.954711,250.97692 16.186125,250.87384 5.3055318,250.8827 z"
       id="path9095"
       inkscape:connector-curvature="0" />
    <path
       sodipodi:nodetypes="cccccc"
       inkscape:connector-curvature="0"
       id="path8837"
       d="m -64.755189,269.10647 0,3.15045 2.246011,3.37163 132.760008,0 2.190221,-3.61812 z"
       style="color:#000000;fill:#6b3e25;fill-opacity:1;fill-rule:nonzero;stroke:none;stroke-width:15;marker:none;visibility:visible;display:inline;overflow:visible;enable-background:accumulate" />
    <path
       style="opacity:0.05;color:#000000;fill:#000000;fill-opacity:1;fill-rule:nonzero;stroke:none;stroke-width:8;marker:none;visibility:visible;display:inline;overflow:visible;enable-background:accumulate"
       d="m -65.781069,69.190416 0,0.123518 c 10.352667,0.322591 20.575938,0.532695 30.702989,0.670315 l -29.678923,0.970174 c -0.870349,11.262346 -0.118301,15.872862 0,23.081987 l 24.197504,0.899642 37.3804316,-0.299881 -23.7844636,0.352801 39.953504,-0.06176 L 0.86535278,94.600862 67.262265,94.062822 c 0.575077,-0.364087 1.45972,-0.944519 2.59014,-1.746331 l 0.542115,-21.3621 c -9.098612,-0.390681 -18.3279,-0.800606 -27.70845,-1.146569 1.154101,-0.01536 2.305855,-0.02848 3.459209,-0.04416 l -6.651628,-0.167563 -105.27472,-0.405754 z"
       id="path9085"
       inkscape:connector-curvature="0" />
    <path
       sodipodi:nodetypes="ccccsscccccccccccccccccccccccccccccccccccccccccccsccccsccccscccccccccccccccccccccccccccccscccssscccsccccccccscccccccccsccccccs"
       style="color:#000000;fill:#d3865b;fill-opacity:1;fill-rule:nonzero;stroke:none;stroke-width:15;marker:none;visibility:visible;display:inline;overflow:visible;enable-background:accumulate"
       d="m -65.677809,41.830768 -0.20652,6.562097 0.07787,15.867186 c 0.102407,1.78531 0.161717,2.586481 0.120435,1.490592 -0.146037,-3.893616 0.878776,-21.86482 1.60917,-21.86482 0.730607,0 131.495287,0.449832 132.225787,0.449832 0.730714,0 3.36459,1.340641 3.36459,1.340641 0,0 1.454707,20.075819 1.893135,21.27387 0.02347,0.06208 0.0512,0.0336 0.08641,-0.05291 0.262523,-2.608862 0.555129,-7.283125 0.301139,-14.050259 -0.20652,-3.812107 -0.61956,-8.899378 -0.61956,-8.899378 L 69.044246,42.245344 -65.677062,41.830811 z M 4.324562,69.022854 c -7.6686534,0.01067 -15.455928,0.146964 -23.397239,0.440999 l -45.684326,1.49057 c -0.863842,11.178127 -0.128115,15.806031 -0.01067,22.923225 0.115101,-0.260508 0.184439,-0.729114 0.20652,-1.428839 0.206627,-6.565308 1.65216,-20.118468 1.65216,-20.118468 0,0 73.391602,-2.405872 94.578565,-2.892965 C 22.718279,69.177157 13.6154,69.01128 4.3225352,69.022854 z m 36.967498,0.732047 c 8.514575,0.886233 27.226499,2.998806 27.226499,2.998806 0,0 0.752688,13.800931 1.359554,18.574977 L 70.39452,70.954423 C 60.842652,70.544274 51.156695,70.110497 41.29206,69.754901 z m 26.331615,29.520598 c -0.09921,0.242895 -0.168118,0.460307 -0.20652,0.617394 -0.146143,0.599037 2.196088,1.649897 3.510839,2.099167 1.314965,0.44927 0.292605,1.49187 0.438855,2.54016 0.146036,1.04827 -1.471668,11.82912 -1.617704,13.02714 -0.146143,1.19806 -16.505916,2.39982 -17.528595,2.99881 -1.022999,0.59902 -28.34689,-9.3e-4 -29.661748,0.14996 -1.314965,0.14975 -79.916822,0.44944 -80.939501,0.14995 -1.022786,-0.29954 -4.819617,-0.75005 -5.403974,-1.04959 -0.584358,-0.29949 -1.170529,-12.88168 -1.316565,-16.47579 -0.01814,-0.44927 -0.08747,-0.63636 -0.197986,-0.60856 -0.297726,7.67389 -0.628094,18.53963 -0.628094,18.53963 l 15.583829,1.16425 45.8736718,-0.5821 56.9828662,-0.24696 18.75918,-1.82576 0.36141,-12.58616 0.04267,-6.05934 -3.975616,-1.525876 -0.07681,-0.326325 z M -3.7986273,152.23085 c -20.3033867,0.0126 -40.9617817,0.10625 -62.0598867,0.29988 l 0,3.81024 0.61956,0.63504 0,-3.1752 c 21.097998,-0.19359 41.13694,-0.28731 61.4403267,-0.29988 26.1045063,-0.0162 49.9809223,0.10049 75.1396613,0.29988 l 0,1.60524 c 0.558862,-0.14272 1.126792,-0.28549 1.652159,-0.43216 l 0,-2.44316 C 47.834348,152.3315 22.305879,152.21465 -3.7986273,152.23085 z m 72.6614213,4.65696 c -1.309951,0.32464 -2.409435,0.58213 -2.409435,0.58213 l 3.71736,3.38689 c 0,0 2.403247,5.4942 2.822474,8.88173 l 0,-1.27009 c -0.419227,-3.38752 -1.170315,-8.88173 -1.170315,-8.88173 z m -133.723057,1.11133 -0.998251,5.08916 0,14.00618 0.05974,0 0.559289,-12.72729 1.101511,-5.62717 -0.72282,-0.74088 z m 12.262229,19.93323 c -1.307924,0.87909 -3.880889,2.3814 -3.880889,2.3814 l -7.86504,0.74088 c -0.10838,5.31117 -0.106673,15.54312 0.01707,20.01259 0.182518,0.0122 0.321301,-0.52079 0.395865,-1.66696 0.413254,-6.35354 0,-16.30811 1.0326,-16.51987 1.033133,-0.2118 8.475959,-1.90513 8.475959,-1.90513 0,0 1.238373,-1.05811 2.891279,-1.69344 1.652907,-0.63538 120.875297,1.26963 121.495284,2.1168 0.586278,0.80122 1.539299,12.19993 2.34063,14.50891 0.110621,-6.44256 -0.115634,-15.50826 -0.413039,-16.42286 l -60.278652,-1.03196 -64.211171,-0.52036 z m 79.252886,24.73131 c -30.9490845,-0.0194 -62.908687,0.77937 -93.709496,1.8434 l 0.163531,24.44907 c 0.620093,-8.68318 1.220345,-22.3437 1.927484,-22.7821 1.560633,-0.96738 129.37355,-3.53778 129.558309,-1.27009 0.172811,2.12101 8.054278,-0.2121 8.260798,0.63505 0.20652,0.84711 0.41304,1.90387 0.41304,4.44528 0,1.40383 0.56761,7.55904 1.075696,12.81547 l 0.378584,-14.93227 c 0.146143,-2.0966 -0.585104,-4.42765 -0.585104,-4.42765 -15.3372,-0.53152 -31.271559,-0.76598 -47.482842,-0.77616 z m -56.655912,27.77423 -33.929863,-0.37047 0,9.01408 c 1.195704,0.44168 2.340524,0.82905 2.340524,0.82905 l -2.340524,1.99336 0,8.11441 c 0,-4.02393 1.23912,-7.84101 1.23912,-7.84101 l 1.858679,-2.75184 c 0,0 -1.445639,-0.84621 -1.445639,-1.90512 0,-1.05895 -0.20652,-5.71537 -0.20652,-5.71537 l 132.656002,1.48176 c 0,0 1.706776,7.45546 2.120029,8.93796 0.0352,0.12772 0.03734,3.33504 0.117341,3.35714 -0.02774,-4.36796 -0.199799,-10.39319 -0.765916,-13.88271 -3.330774,-0.0781 -8.981378,-0.1887 -16.323823,-0.32634 l -25.230104,-0.27342 c 2.684866,-0.009 5.364825,-0.0271 8.045745,-0.0442 -37.46203733,-0.66998 -78.467876,-0.88578 -68.135051,-0.61732 z m 35.3065918,20.44476 c -22.8842458,0.0187 -46.2594028,0.53868 -70.0625348,1.49943 -0.619986,2.32962 0,19.86267 0,19.86267 0,0 0.2062,-16.68633 0.82608,-19.01595 47.492656,-0.8693 91.297714,0.35122 135.271957,0 0.826506,4.23567 1.101404,19.01595 1.101404,19.01595 0,0 0.826507,-15.627 0,-19.86267 -21.855806,-1.03543 -44.252661,-1.51809 -67.1369062,-1.49943 z"
       id="path8841"
       inkscape:connector-curvature="0" />
    <path
       style="color:#000000;fill:#9d5a34;fill-opacity:1;fill-rule:nonzero;stroke:none;stroke-width:15;marker:none;visibility:visible;display:inline;overflow:visible;enable-background:accumulate"
       d="m -65.798243,65.380177 0.01707,3.933757 c 1.238799,0.03862 2.482506,0.07019 3.717359,0.10582 22.545771,-0.455336 75.307032,-0.01525 108.974905,0.335136 8.76451,-0.121896 17.514087,-0.253083 26.262703,-0.388078 0,0 0.213133,-1.117501 0.404399,-3.325131 l -5.137184,0 c -1.607143,0 -2.050158,0.758352 -3.803444,0.608561 -1.753287,-0.149748 -5.543504,-0.600092 -7.004504,-0.89961 -1.461001,-0.299539 -3.076252,0.44117 -6.582931,0.590929 -3.506359,0.149759 -13.143672,0.309247 -16.212029,0.758524 -3.068251,0.449266 -4.675821,3.62e-4 -7.30575,0.29988 -2.62993,0.299508 -42.955191,-1.208525 -48.799407,-1.358284 -5.844216,-0.149759 -11.835428,0.309246 -14.611393,0.758523 -2.775859,0.449234 -28.4925,-0.758523 -29.369143,-0.758523 -0.173558,0 -0.364504,-0.225316 -0.550756,-0.661515 z m 49.014567,29.458844 -42.707068,0.626227 -5.464245,0.167595 c -0.149449,1.531661 -0.402052,8.156577 -0.610919,14.306027 0.01173,-0.0567 0.01707,-0.10752 0.0256,-0.16756 0.876643,-6.58918 1.464094,-11.228456 2.48688,-11.67769 1.022679,-0.449277 128.138271,0.30083 127.992021,1.049561 -0.146036,0.748784 0.72282,2.249119 0.72282,2.249119 l 3.510946,1.19952 2.443784,5.1068 0.01707,-0.51158 0.04267,-6.05934 L 67.700266,99.601824 66.960272,96.36489 14.985621,94.98014 C 4.3073876,94.927016 -6.4799732,94.88168 -16.784423,94.839021 z m 5.154465,27.024509 -52.542687,0.98784 0,20.85052 0,4.51584 4.586535,0.77616 1.445639,2.32849 c 0,0 0.09281,0.0254 0.15489,0.0705 44.046568,1.10131 87.669854,0.90365 131.012483,-0.15873 l 0,-6.88844 0,-22.07648 -84.64822,-0.40575 -0.01067,0 z m 80.939394,3.1664 c 0.698605,-0.0576 1.471562,0.46745 1.471562,0.46745 0,0 0.822772,7.48165 1.471454,13.02717 -0.339968,4.41441 -0.813385,8.86639 -1.462921,9.19926 -1.239653,0.63535 -125.831776,0.63493 -126.864802,0.84672 -1.033027,0.21177 -1.032386,-1.26954 -1.23912,-2.32848 -0.206626,-1.05891 -3.518946,-0.42336 -4.758599,-0.42336 -0.750662,0 -1.265468,-3.43077 -1.65216,-7.34706 0.57401,-6.23152 1.392943,-12.97425 2.280253,-12.97425 1.314965,0 129.886117,-0.30005 130.616724,-0.44981 0.04587,-0.01 0.09067,-0.0138 0.137609,-0.0176 z m -134.987992,38.40234 c -0.04694,0.013 -0.110727,0.0836 -0.180705,0.20284 l 0,13.45937 138.851707,1.69344 0,-9.79024 c -0.524193,2.08443 -1.30835,4.74536 -2.202915,5.20383 -1.239653,0.63535 -16.11581,1.26125 -19.215103,1.26125 -3.099292,0 -8.061852,-2.32848 -10.541264,-2.32848 -2.47952,0 -2.270547,-0.21157 -4.750066,-0.42336 -2.47952,-0.2118 -67.358147,0.84664 -72.31708,1.0584 -4.958932,0.2118 -8.474678,-0.41492 -11.160824,0.43219 -2.686147,0.84712 -14.868797,-1.49067 -16.52181,-1.27892 -1.653013,0.2118 -2.280573,-3.80795 -1.86732,-8.46721 0.064,-0.728 0.02454,-1.05645 -0.09494,-1.02311 z m 1.256401,24.95182 c -0.02027,6.68385 0.05014,14.15196 0.215054,14.82643 l 136.098143,-1.0584 c 0.3037,-0.93402 0.425841,-4.78937 0.438855,-9.05817 -0.312447,-0.037 -0.507766,-0.0441 -0.507766,-0.0441 0,0 -0.619026,3.58923 -1.652159,4.64817 -1.03324,1.05891 -130.589949,0.85572 -132.242962,0.43216 -1.483402,-0.38007 -1.472095,-3.33204 -2.349165,-9.7461 z m 138.817252,32.21069 -1.953406,5.27434 -10.747678,0 c 0,0 -0.20556,2.32859 -2.47824,2.1168 -2.272999,-0.2118 -3.717039,-1.90512 -4.543545,-1.90512 -0.826613,0 -6.821452,-0.84741 -11.573865,0.63504 -4.752306,1.48249 -92.975689,-2.32865 -97.934514,-1.90513 -3.525454,0.30115 -8.095455,-1.3204 -12.150435,-2.51369 l 0.09494,6.65913 c 8.004035,0.39034 16.071647,0.83122 24.292123,1.10248 26.852501,0.34104 65.961791,0.68873 92.091685,0.89965 8.266879,-0.0925 16.493968,-0.22452 24.644999,-0.39692 l 0.25815,-9.96658 z m -2.039385,21.6002 c -0.83472,0.75784 -2.047278,1.75801 -2.8053,1.88748 -1.239547,0.21176 -2.270973,-0.84684 -3.51084,-0.63504 -1.239653,0.21176 -12.398984,1.69344 -14.465144,1.69344 -2.066159,0 -10.333251,-0.84704 -13.432544,-0.21168 -3.099399,0.63531 -40.2882453,-9e-5 -41.7347383,0.42335 -1.4462798,0.42356 -2.6831593,-0.63534 -5.9890787,0 -3.306026,0.63533 -35.753127,-0.41486 -37.819393,0.22052 -2.066373,0.63536 -0.8248,0.20254 -3.717466,0.83789 -2.892666,0.63538 -2.890213,-1.05832 -4.749959,-1.27008 -1.85964,-0.2118 -3.931986,-0.42356 -5.171639,0 -0.690392,0.23584 -1.703043,0.1396 -2.89128,-0.0618 l 0,5.71536 136.287382,-0.0529 c 0.0544,-0.74326 0.09707,-4.42183 0.01067,-8.54657 l -0.01067,0 z m 0.41304,20.7623 c -0.61764,1.4552 -1.433052,3.01263 -1.841505,3.76613 -0.7305,1.34778 -1.902949,0.74088 -2.779486,0.74088 -0.876536,0 -6.135434,-0.59093 -6.135434,-0.59093 0,0 -6.429641,1.79085 -7.744499,2.09037 -1.315071,0.29948 -20.605272,0.15122 -24.404023,1.19952 -3.798644,1.04826 -7.305003,-0.60053 -13.587541,-1.19952 -6.2824309,-0.59904 -31.555737,-0.89818 -39.153132,0.29985 -7.597503,1.19805 -21.870208,-0.29985 -25.668959,-0.29985 -3.798751,0 -14.070345,-1.19973 -14.946988,-1.34949 -0.715139,-0.12217 -1.04124,-0.54536 -1.45428,-2.5666 0.08107,3.89726 0.189345,7.19713 0.189345,7.19713 l 5.059739,0 132.139702,0 c 0,0 0.233722,-4.47854 0.327061,-9.28749 z"
       id="path8845"
       inkscape:connector-curvature="0" />
    <path
       id="path8847"
       d="m 65.776302,89.959635 c -2.097308,0.0053 -3.920785,0.0576 -4.788148,0.198072 -2.776072,0.449266 -6.134261,0.149353 -9.933012,0.598609 -3.798751,0.449277 -5.117343,0.748187 -7.454986,0.897924 -2.337751,0.149781 -6.864869,-0.149535 -9.640834,-0.299293 -2.776072,-0.149759 -5.115102,-0.448861 -10.813282,-0.598631 -5.416456,-0.142345 -78.488997,-0.544942 -88.02145,-0.585392 0.0512,1.238373 0.09921,2.507585 0.120327,3.869017 l 24.198571,0.897924 107.822724,-0.875918 c 0.575077,-0.364098 1.4594,-0.941212 2.589713,-1.743045 l 0.05974,-2.324064 c -1.376408,-0.02315 -2.809674,-0.03904 -4.139786,-0.0352 z"
       style="opacity:0.25;color:#000000;fill:#6c3e24;fill-opacity:1;fill-rule:nonzero;stroke:none;stroke-width:15;marker:none;visibility:visible;display:inline;overflow:visible;enable-background:accumulate"
       inkscape:connector-curvature="0" />
    <path
       id="path8849"
       d="m -16.782823,94.836621 -42.707387,0.629438 -5.462432,0.167264 c -0.14945,1.531683 -0.400986,8.155787 -0.609852,14.305247 0.01173,-0.0567 0.01813,-0.10283 0.0256,-0.16286 0.87675,-6.58918 1.459507,-11.232642 2.482293,-11.681887 1.022786,-0.449277 128.135178,0.298824 127.988928,1.047577 -0.146036,0.748773 0.729967,2.24922 0.729967,2.24922 l 3.504226,1.19724 2.447837,5.11029 0.0128,-0.515 0.04374,-6.05221 -3.972309,-1.527367 -0.738607,-3.239579 -51.974758,-1.386521 C 4.309201,94.92435 -6.477733,94.879227 -16.782183,94.836621 z"
       style="opacity:0.25;color:#000000;fill:#6c3e24;fill-opacity:1;fill-rule:nonzero;stroke:none;stroke-width:15;marker:none;visibility:visible;display:inline;overflow:visible;enable-background:accumulate"
       inkscape:connector-curvature="0" />
    <path
       inkscape:connector-curvature="0"
       id="path8879"
       d="m 73.682518,178.4322 -42.771072,0 42.667812,1.48249 z"
       style="color:#000000;fill:#422515;fill-opacity:1;fill-rule:nonzero;stroke:none;stroke-width:30;marker:none;visibility:visible;display:inline;overflow:visible;enable-background:accumulate" />
    <g
       id="g10412"
       class="switchable"
       name="grain">
      <path
         inkscape:connector-curvature="0"
         style="font-size:medium;font-style:normal;font-variant:normal;font-weight:normal;font-stretch:normal;text-indent:0;text-align:start;text-decoration:none;line-height:normal;letter-spacing:normal;word-spacing:normal;text-transform:none;direction:ltr;block-progression:tb;writing-mode:lr-tb;text-anchor:start;baseline-shift:baseline;opacity:0.5;color:#000000;fill:#d3865b;fill-opacity:1;stroke:none;stroke-width:1.05631959;marker:none;visibility:visible;display:inline;overflow:visible;enable-background:accumulate;font-family:Sans;-inkscape-font-specification:Sans"
         d="m -65.858407,48.371541 -0.0256,0.705603 0,0.423366 89.759589,1.402362 49.763308,0 c -0.0256,-0.392847 -0.0512,-0.744069 -0.0768,-1.128958 l -49.651407,0 -0.03414,0 -89.733773,-1.402373 z m -0.01067,4.665772 0.01067,1.128969 c 37.227355,0.326634 57.8515089,2.105085 76.120524,3.757319 18.109219,1.637791 34.013709,3.111197 63.617427,2.407877 0.01067,-0.359489 0.01067,-0.714296 0.01067,-1.093681 C 44.174806,59.968095 27.742709,58.609394 9.6274099,56.971038 -8.6366986,55.319231 -28.716604,53.391608 -65.865021,53.037313 z m 0.0256,4.877455 0.01067,1.111347 c 15.381576,0.46308 29.014027,1.062724 39.721062,1.711054 6.502818,0.393838 11.947755,0.797726 16.06578,1.199522 3.6059924,0.351927 5.7253821,0.732218 7.0904833,1.040792 -0.026668,0.0043 -0.041603,-0.0043 -0.068271,0 -2.0683997,0.279197 -6.019694,0.537016 -11.9956523,0.696771 -10.335385,0.276305 -26.861248,0.313929 -50.795801,0.02646 l 0.01067,1.128958 c 23.93242,0.282247 40.452096,0.224099 50.813083,-0.05291 5.9912121,-0.160223 9.9329057,-0.377976 12.0986984,-0.670325 0.5413682,-0.07318 0.968489,-0.143519 1.3079242,-0.229348 0.3394351,-0.08577 0.59097132,-0.143935 0.84336089,-0.370414 0.12619479,-0.113319 0.26124348,-0.36702 0.2236944,-0.635038 -0.0373357,-0.268102 -0.17473125,-0.403578 -0.2926055,-0.49392 C -1.0462369,62.196911 -1.3130274,62.106931 -1.653636,62.007245 -3.0155369,61.608809 -5.8102767,61.246919 -9.9489963,60.842999 -14.087609,60.439176 -19.537667,60.002572 -26.049019,59.6082 -36.780589,58.958398 -50.433734,58.371598 -65.838992,57.914758 z M 70.314834,74.708073 c -37.41318,1.078523 -83.435874,6.865071 -135.487117,6.103443 0,0.342924 -7.46e-4,0.684386 0,1.014316 51.44107,-0.359202 97.833602,-5.533775 135.461302,-6.068166 l 0.0256,-1.049593 z M -65.069023,86.473992 c 0.01494,0.367373 0.02667,0.740965 0.04267,1.102493 39.793493,0.506112 81.49399,6.023321 134.876091,5.371375 l 0.0256,-1.128969 c -53.339752,0.65441 -95.038969,-4.845304 -134.945003,-5.344899 z m -0.0864,13.371143 c -0.01814,0.381305 -0.03307,0.724195 -0.05227,1.146575 l 86.300486,1.53471 50.572107,-0.13232 0.01067,-0.58212 -1.49727,-0.57331 -46.269537,0 -0.03413,0 -89.028342,-1.393535 z m 136.752052,9.040495 c -48.478319,1.84673 -92.090939,1.88534 -137.182267,2.46961 -0.01387,0.40797 -0.02133,0.71192 -0.03413,1.11132 l 137.182266,-2.58428 0.03414,-0.99665 z m 1.428465,17.61355 c -37.608287,0.33624 -57.834335,2.28019 -76.2152505,3.94256 -17.4489095,1.57809 -33.2936625,2.90197 -60.9842975,2.34612 l 0,1.10252 c 27.725838,0.43519 43.639288,-1.33254 61.0875575,-2.91063 18.3837965,-1.6626 38.5486135,-3.11198 76.1119905,-3.36041 z m 0,6.6856 c -16.467833,0.46056 -46.339622,1.30748 -49.152283,1.39353 -17.1303818,0.52441 -32.0060055,1.23029 -43.094186,1.96688 -5.544036,0.36829 -10.170787,0.76806 -13.63053,1.13777 -3.459743,0.36979 -5.717274,0.67757 -6.823799,1.0584 -0.276711,0.0953 -0.504992,0.16573 -0.72282,0.40575 -0.10902,0.11995 -0.200866,0.38941 -0.15489,0.63504 0.04587,0.24555 0.177718,0.38314 0.292499,0.46745 0.229455,0.16858 0.459763,0.22124 0.774557,0.29987 0.314686,0.0786 0.719299,0.12625 1.204664,0.19405 1.941031,0.27114 5.354264,0.50995 10.506809,0.67032 10.304983,0.32073 27.49574247,0.40436 53.110511,0.0971 1.748379,-0.0212 16.12669,-0.072 30.539564,-0.0971 6.156237,-0.0107 11.956716,-0.0173 17.149904,-0.0265 l 0,-1.11129 c -5.193614,0.0148 -10.996441,0.0245 -17.149904,0.0353 -14.412767,0.0251 -28.765157,0.0488 -30.573913,0.0705 -25.60687456,0.30717 -42.768619,0.21386 -53.041706,-0.10582 -5.136758,-0.15995 -8.565671,-0.3771 -10.412297,-0.63504 1.113778,-0.26116 2.601341,-0.56208 5.429896,-0.86439 3.436595,-0.36722 8.03529,-0.72595 13.57026,-1.09368 11.0697254,-0.73535 25.9394821,-1.44281 43.059837,-1.96684 2.7957,-0.0856 32.659381,-0.93948 49.117827,-1.40238 l 0,-1.12895 z M 1.568438,147.54376 c -19.852797,0.01 -39.808535,0.0598 -65.742897,0.0882 l 0,1.15543 c 50.821084,-0.0305 72.3732969,-0.92236 137.199548,-0.0705 l 0,-0.97904 c -28.850603,-0.16122 -50.472261,-0.2039 -71.456651,-0.19402 z m 66.741147,9.27865 c -12.421065,0.18061 -44.141613,0.35599 -74.5889052,0.49392 -27.3092768,0.12366 -48.7918328,0.19486 -59.0739878,0.2293 l 0.593745,0.60859 -0.103473,0.52036 c 10.597908,-0.0356 31.685452,-0.1075 58.5835024,-0.22928 31.3531636,-0.14202 63.9110986,-0.30745 75.5525946,-0.49393 l -1.170316,-1.07607 c 0,0 0.185506,-0.0481 0.206627,-0.0529 z m -134.170552,7.41762 0,1.13777 c 1.483722,0.0154 3.219194,0.056 5.300714,0.13231 4.964586,0.18216 11.537809,0.51864 19.129124,0.9702 15.182097,0.90311 34.0508313,2.84386 53.058881,4.23361 23.354249,1.7075 45.196828,3.18364 59.426863,4.12776 -16.267926,-0.33392 -45.801026,-1.42849 -73.7199427,-2.5578 -31.7668443,-1.28495 -58.4646683,-2.47909 -63.1956393,-2.69009 l 0,1.13777 c 4.805642,0.21414 31.442023,1.39825 63.1613971,2.68128 29.0085859,1.17339 59.8506779,2.32773 75.6903099,2.61072 l 0,-1.04959 0,-0.0882 0,-1.24364 c -14.027463,-1.10334 -36.645558,-2.8598 -60.863863,-4.63052 -19.0106095,-1.38992 -38.306464,-2.75661 -53.497842,-3.66029 -7.595688,-0.45185 -14.175845,-0.78754 -19.154832,-0.9702 -2.080134,-0.0763 -3.852408,-0.12452 -5.33517,-0.14112 z M 72.31955,190.64715 c -7.715056,0.0734 -38.75236,0.34732 -70.3037232,0.37043 -18.0536418,0.0132 -34.6700708,-0.29028 -48.3260958,-0.29988 -6.827959,-0.005 -12.574996,-0.0209 -16.62507,-0.0353 -0.634494,-0.002 -0.938407,-0.005 -1.488522,-0.009 -5.34e-4,0.38029 -2.14e-4,0.74887 0,1.12896 0.549795,0.003 0.853708,0.006 1.488522,0.009 4.051994,0.0145 9.796577,0.0304 16.62507,0.0353 13.657092,0.01 31.735055,-0.0221 49.7890166,-0.0353 34.4911794,-0.0253 65.8414624,-0.0588 68.8494434,-0.0618 0,-0.3723 -0.01067,-0.73131 -0.01067,-1.10252 z m 2.237264,15.36445 c -44.19175,2.1524 -93.00001,2.12505 -141.596737,2.19618 l 0.01067,1.04959 c 48.699134,-0.34884 97.130836,-0.76269 141.734346,-2.16089 -0.032,-0.38399 -0.08961,-0.74184 -0.146356,-1.08488 z m -141.562281,6.78258 0.01067,1.18191 141.493477,3.34277 0.0256,-1.16424 c -43.836527,-1.54885 -92.241135,-2.50991 -141.527826,-3.36044 z m 141.467662,5.90944 -141.390217,6.27985 0.01067,1.04956 c 45.203762,-2.46926 91.042338,-4.81202 141.347334,-6.23573 l 0.03414,-1.09368 z m -52.189812,21.21212 c -28.4304154,0.005 -56.497715,0.20261 -84.286916,0.538 0.166944,0.0575 0.421681,0.14112 0.421681,0.14112 l -1.221946,1.0408 c 42.393661,-0.32916 81.358515,-1.29834 135.125708,-0.47632 -0.01174,-0.35255 -0.02027,-0.69683 -0.03414,-1.04956 -16.795534,-0.12949 -33.465726,-0.19744 -50.004071,-0.19404 z m -86.205866,4.26888 0,0.99665 c 34.595826,0.30662 123.575951,1.58128 136.347653,1.764 0,-0.33988 0,-0.65138 0,-1.01429 -21.263235,-0.0491 -104.562141,-1.19546 -136.347653,-1.74636 z m 136.201403,9.34921 c -7.468427,0.14189 -18.729738,1.0925 -28.457084,2.18736 -5.533903,0.62286 -10.543932,1.30102 -14.08656,1.89633 -1.771314,0.29758 -3.16959,0.58499 -4.095943,0.83788 -0.463283,0.12644 -0.803892,0.2068 -1.075696,0.36164 -0.136009,0.0773 -0.309353,0.14444 -0.421681,0.43216 -0.05654,0.14385 -0.0352,0.38551 0.03414,0.538 0.06934,0.15261 0.141982,0.2087 0.223694,0.26464 0.165558,0.11315 0.317994,0.15308 0.490485,0.20284 0.172811,0.0497 0.376558,0.11993 0.61956,0.16757 0.486218,0.0954 1.108445,0.16235 1.884601,0.26463 1.552207,0.20434 3.675223,0.44153 6.143969,0.67032 4.937278,0.45731 11.323395,0.94336 17.66631,1.39353 9.786443,0.69468 17.666523,1.17601 21.564267,1.41121 0.01067,-0.37415 0.02027,-0.75082 0.0256,-1.12897 -3.921959,-0.23719 -11.753183,-0.71965 -21.49557,-1.4112 -6.338754,-0.44989 -12.735112,-0.94638 -17.657669,-1.40237 -2.461278,-0.22799 -4.55688,-0.43403 -6.083698,-0.63504 -0.454856,-0.0598 -0.762503,-0.11168 -1.110152,-0.16756 0.858296,-0.21086 1.938045,-0.44267 3.450782,-0.6968 3.508173,-0.58946 8.531323,-1.24847 14.051998,-1.86984 9.855994,-1.10935 21.321265,-2.06821 28.697953,-2.18736 -0.03414,-0.4092 -0.07254,-0.80256 -0.120541,-1.12897 -0.08427,0.001 -0.163531,-0.002 -0.249403,0 z m -137.302807,4.88629 c 0,0.36296 -5.34e-4,0.74031 0,1.12012 41.251827,0.15972 61.5764416,1.39264 79.295768,3.41336 17.880191,2.03905 33.166721,4.89377 58.376983,5.23026 0.01387,-0.36378 0.0224,-0.73219 0.03414,-1.12013 -24.955632,-0.23785 -38.515864,-2.27169 -56.414936,-4.313 -17.7434349,-2.0234 -39.761065,-4.06076 -81.29227,-4.33061 z m 0.0256,4.03076 c 0,0.3791 0.01174,0.75033 0.01707,1.12896 41.281803,0.19601 61.9772144,1.68413 79.691741,3.70441 17.839974,2.03445 32.713358,4.59262 57.77449,4.90392 0.0128,-0.24374 0.02667,-0.57791 0.05227,-1.12896 -24.864959,-0.24329 -38.403537,-2.26684 -56.26858,-4.30417 -17.7395946,-2.02309 -39.752424,-4.03677 -81.266455,-4.30416 z m 0.06827,3.7573 c 0.01067,0.37208 0.01067,0.76444 0.01707,1.12015 23.178665,0.48932 51.640727,4.22966 55.9030818,4.92777 -0.030935,0.01 -0.064004,0.0171 -0.094939,0.0265 l 1.4368925,0 c 0,-0.24298 -1.0671932,-1.47815 -0.3613033,-0.53803 0,0 -31.662909,-4.91435 -56.901333,-5.53637 z"
         id="path9353"
         sodipodi:nodetypes="ccccccccccccsccsccccccccsccscccccccccccccccccccccccccccccccccccccccsccsccccscccccssscscccscccsscccccccccccscccscccccccsscsccsccccssscccsccccccscccccccccccccccccccccccccccccccccccscccccccccccccsscccsccccccsccsccccsccscccccccccc" />
      <path
         inkscape:connector-curvature="0"
         id="path8891"
         d="m -65.858514,47.687262 -0.0256,0.705603 0,0.423355 89.759695,1.402373 49.763202,0 c -0.0256,-0.392857 -0.0512,-0.744069 -0.07787,-1.128968 l -49.651301,0 -0.03414,0 -89.73388,-1.402363 z m -0.01067,4.665772 0.01067,1.128958 c 37.227569,0.326635 57.8516159,2.105096 76.120631,3.75733 18.109219,1.63778 34.013709,3.111187 63.617427,2.407878 0.01067,-0.35949 0.01067,-0.714297 0.01067,-1.093681 C 44.174699,59.283816 27.742602,57.925105 9.6274099,56.28676 -8.6366986,54.634941 -28.716711,52.707329 -65.865021,52.353034 z m 0.0256,4.877456 0.01067,1.111346 c 15.381576,0.46307 29.014134,1.062714 39.721062,1.711054 6.502819,0.393839 11.947756,0.797726 16.065781,1.199522 3.6059917,0.351927 5.7253814,0.732218 7.0905893,1.040793 -0.026668,0.0043 -0.041603,-0.0043 -0.069338,0 -2.0682931,0.279186 -6.0195873,0.537016 -11.9954383,0.696759 -10.335492,0.276317 -26.861355,0.31394 -50.795908,0.02645 l 0.01067,1.128969 c 23.932527,0.282237 40.452096,0.2241 50.813083,-0.05291 5.9912118,-0.160224 9.9329054,-0.377977 12.0986981,-0.670315 0.5414748,-0.07318 0.9684889,-0.143519 1.3080308,-0.229348 0.3394352,-0.08577 0.59097133,-0.143946 0.84325423,-0.370414 0.12630146,-0.113319 0.26124348,-0.367031 0.2236944,-0.635038 -0.0373357,-0.268102 -0.17473125,-0.403578 -0.29249882,-0.49392 C -1.0471969,61.512632 -1.3139874,61.422653 -1.654596,61.322966 -3.016497,60.92453 -5.8112368,60.56264 -9.9498497,60.158731 -14.088463,59.754897 -19.538627,59.318304 -26.049979,58.923932 -36.781443,58.27413 -50.434695,57.687319 -65.839952,57.23049 z M 70.314728,74.023783 c -37.413074,1.078534 -83.435875,6.865082 -135.487117,6.103454 0,0.342924 -7.47e-4,0.684375 0,1.014316 51.441176,-0.359212 97.833708,-5.533774 135.461302,-6.068166 l 0.0256,-1.049604 z M -65.069129,85.789714 c 0.01387,0.367362 0.02774,0.740965 0.04267,1.102481 39.7936,0.506113 81.494097,6.023321 134.876198,5.371375 l 0.0256,-1.128958 c -53.339646,0.6544 -95.038862,-4.845303 -134.945003,-5.344898 z m -0.08641,13.371132 c -0.01707,0.381315 -0.03414,0.724207 -0.0512,1.146584 l 86.300379,1.53471 50.572107,-0.13232 0.01067,-0.58212 -1.497269,-0.57331 -46.269537,0 -0.03414,0 -89.028234,-1.393544 z m 136.752052,9.040504 c -48.478426,1.84672 -92.091045,1.88534 -137.182373,2.4696 -0.01387,0.40799 -0.02133,0.71193 -0.03414,1.11133 l 137.182267,-2.58429 0.03414,-0.99664 z m 1.428465,17.61355 c -37.608286,0.33623 -57.834441,2.28019 -76.2152502,3.94256 -17.4490158,1.57809 -33.2936618,2.90197 -60.9842968,2.34612 l 0,1.10252 c 27.725837,0.43518 43.639288,-1.33255 61.0875568,-2.91063 18.3837962,-1.66259 38.5486132,-3.11199 76.1119902,-3.36041 l 0,-1.12016 z m 0,6.6856 c -16.467833,0.46056 -46.339621,1.30747 -49.152282,1.39352 -17.1304891,0.52441 -32.0060062,1.23029 -43.094293,1.96688 -5.544037,0.3683 -10.170681,0.76806 -13.630424,1.13777 -3.459742,0.3698 -5.717381,0.67758 -6.823905,1.05841 -0.276605,0.0953 -0.504886,0.16572 -0.72282,0.40574 -0.10902,0.11995 -0.20076,0.38941 -0.15489,0.63505 0.04587,0.24554 0.177718,0.38314 0.292605,0.46744 0.229455,0.16859 0.459763,0.22125 0.77445,0.29988 0.314794,0.0786 0.719407,0.12625 1.204664,0.19404 1.941139,0.27116 5.354372,0.50995 10.50681,0.67033 10.305089,0.32073 27.4958488,0.40435 53.110617,0.0971 1.748379,-0.0212 16.126691,-0.072 30.539565,-0.0971 6.156129,-0.0107 11.956716,-0.0173 17.149903,-0.0265 l 0,-1.11129 c -5.193614,0.0148 -10.996441,0.0245 -17.149903,0.0353 -14.412768,0.0251 -28.765264,0.0488 -30.573914,0.0705 -25.60698091,0.30716 -42.768618,0.21385 -53.041813,-0.10582 -5.13665,-0.15995 -8.565564,-0.3771 -10.41219,-0.63504 1.113672,-0.26116 2.601341,-0.56208 5.429896,-0.8644 3.436595,-0.36722 8.035184,-0.72594 13.570153,-1.09368 11.0698327,-0.73534 25.9395894,-1.44281 43.059944,-1.96684 2.7957,-0.0855 32.659382,-0.93947 49.117827,-1.40238 l 0,-1.12895 z M 1.5683313,146.85948 c -19.8527973,0.01 -39.8085343,0.0598 -65.7428963,0.0882 l 0,1.15544 c 50.820976,-0.0305 72.3731896,-0.92236 137.199547,-0.0705 l 0,-0.97904 c -28.850603,-0.1612 -50.472261,-0.20387 -71.4566507,-0.194 z m 66.7410407,9.27865 c -12.420959,0.1806 -44.141507,0.35598 -74.5889056,0.49392 -27.3091704,0.12365 -48.7918324,0.19486 -59.0738804,0.22929 l 0.593744,0.6086 -0.103473,0.52037 c 10.597802,-0.0356 31.685559,-0.10751 58.5833961,-0.2293 31.3531639,-0.14202 63.9110989,-0.30744 75.5527009,-0.49392 l -1.170315,-1.07607 c 0,0 0.185505,-0.0481 0.20652,-0.0529 z m -134.170552,7.41761 0,1.13777 c 1.483722,0.0154 3.2193,0.056 5.300714,0.13232 4.964693,0.18215 11.537916,0.51864 19.129124,0.97019 15.182204,0.90312 34.0509376,2.84387 53.058987,4.23361 23.354249,1.7075 45.196721,3.18365 59.426757,4.12777 -16.26782,-0.33392 -45.801027,-1.4285 -73.7198364,-2.5578 -31.7668436,-1.28496 -58.4646686,-2.4791 -63.1957456,-2.6901 l 0,1.13777 c 4.805642,0.21414 31.442129,1.39825 63.1613967,2.68129 29.0085863,1.17338 59.8507843,2.32772 75.6903103,2.61072 l 0,-1.04959 0,-0.0882 0,-1.24363 c -14.027463,-1.10334 -36.645451,-2.8598 -60.863756,-4.63053 -19.0107168,-1.38991 -38.306465,-2.75661 -53.497842,-3.66029 -7.595689,-0.45183 -14.175846,-0.78754 -19.154939,-0.97019 -2.080134,-0.0764 -3.852408,-0.12453 -5.33517,-0.14113 z m 138.180517,26.40712 c -7.71495,0.0735 -38.752254,0.34733 -70.3036169,0.37044 -18.0536411,0.0132 -34.6701771,-0.29029 -48.3260961,-0.29988 -6.828066,-0.005 -12.574996,-0.0209 -16.625069,-0.0353 -0.634601,-0.002 -0.938514,-0.005 -1.48863,-0.009 -5.33e-4,0.38029 -2.13e-4,0.74887 0,1.12897 0.549796,0.003 0.853709,0.006 1.48863,0.009 4.051994,0.0145 9.796576,0.0304 16.625069,0.0353 13.656986,0.01 31.735055,-0.0221 49.7890169,-0.0353 34.4910721,-0.0253 65.8413561,-0.0588 68.8493361,-0.0618 0,-0.3723 -0.01067,-0.73131 -0.01067,-1.10251 z m 2.23737,15.36446 c -44.19175,2.1524 -93.000117,2.12505 -141.596737,2.19617 l 0.01067,1.0496 c 48.699346,-0.34885 97.130836,-0.7627 141.734452,-2.1609 -0.032,-0.38398 -0.08961,-0.74184 -0.146249,-1.08487 z m -141.562388,6.78257 0.01067,1.18192 141.493477,3.34277 0.0256,-1.16425 c -43.836633,-1.54884 -92.241241,-2.50991 -141.527932,-3.36044 z m 141.467662,5.90944 -141.390217,6.27985 0.01067,1.04957 c 45.203761,-2.46927 91.042231,-4.81203 141.347227,-6.23574 l 0.03414,-1.09368 z M 22.27217,239.23145 c -28.4303091,0.005 -56.497715,0.20262 -84.28681,0.53801 0.166945,0.0575 0.421574,0.14111 0.421574,0.14111 l -1.221945,1.0408 c 42.393661,-0.32916 81.358515,-1.29834 135.125707,-0.47631 -0.01173,-0.35255 -0.02027,-0.69683 -0.03413,-1.04957 -16.795534,-0.12949 -33.465727,-0.19742 -50.004178,-0.19404 z m -86.20576,4.26888 0,0.99665 c 34.595933,0.30662 123.575951,1.58129 136.347546,1.76401 -9.6e-4,-0.33987 0,-0.65138 0,-1.0143 -21.263128,-0.0491 -104.562034,-1.19546 -136.347546,-1.74636 z m 136.201297,9.34922 c -7.468321,0.14188 -18.729739,1.0925 -28.457084,2.18736 -5.533797,0.62285 -10.543826,1.30101 -14.086453,1.89632 -1.771421,0.29759 -3.169698,0.58499 -4.096051,0.83789 -0.463283,0.12644 -0.803785,0.20679 -1.075589,0.36163 -0.136115,0.0773 -0.309353,0.14445 -0.42168,0.43217 -0.05654,0.14386 -0.0352,0.3855 0.03414,0.538 0.06934,0.15261 0.141983,0.20869 0.223695,0.26463 0.165557,0.11315 0.317887,0.15309 0.490484,0.20285 0.172705,0.0497 0.376451,0.11992 0.61956,0.16756 0.486218,0.0954 1.108338,0.16235 1.884495,0.26463 1.552313,0.20434 3.67533,0.44154 6.144075,0.67032 4.937278,0.45731 11.323395,0.94336 17.666204,1.39353 9.786443,0.69468 17.666523,1.17601 21.564374,1.41121 0.01067,-0.37414 0.0192,-0.75081 0.0256,-1.12896 -3.921852,-0.2372 -11.753183,-0.71966 -21.495463,-1.41121 -6.338754,-0.44989 -12.735219,-0.94637 -17.657669,-1.40236 -2.461278,-0.22799 -4.556987,-0.43403 -6.083805,-0.63505 -0.454749,-0.0598 -0.762396,-0.11167 -1.110045,-0.16756 0.858189,-0.21086 1.937938,-0.44266 3.450676,-0.69679 3.508279,-0.58947 8.531322,-1.24847 14.052104,-1.86985 9.855994,-1.10934 21.321265,-2.0682 28.697953,-2.18736 -0.03414,-0.40919 -0.07361,-0.80255 -0.120541,-1.12896 -0.08534,0.001 -0.163531,-0.002 -0.24951,0 z m -137.302808,4.88629 c 0,0.36295 -5.33e-4,0.74031 0,1.12012 41.251935,0.15973 61.5765489,1.39264 79.295876,3.41336 17.880083,2.03905 33.166614,4.89377 58.376982,5.23025 0.0128,-0.36378 0.0224,-0.73219 0.03414,-1.12013 -24.955739,-0.23783 -38.515865,-2.27169 -56.415043,-4.313 -17.7433285,-2.0234 -39.761065,-4.06076 -81.292271,-4.3306 z m 0.0256,4.03075 c 0,0.37911 0.01067,0.75035 0.01707,1.12896 41.281803,0.19602 61.9773208,1.68413 79.691741,3.70441 17.839974,2.03445 32.713464,4.59262 57.774597,4.90393 0.0128,-0.24375 0.02667,-0.57791 0.0512,-1.12897 -24.86496,-0.24329 -38.403538,-2.26683 -56.268687,-4.30416 -17.739488,-2.0231 -39.752318,-4.03677 -81.266455,-4.30417 z m 0.06934,3.7573 c 0.01067,0.37208 0.01067,0.76445 0.01707,1.12016 23.178664,0.48932 52.883936,4.87612 57.1463964,5.57425 -0.030935,0.01 -0.064004,0.0171 -0.094939,0.0265 l 1.4369991,0 c 0,-0.24298 -0.1223545,-0.48359 -0.3614099,-0.53804 0,0 -32.9061176,-5.56081 -58.1445416,-6.18284 z"
         style="font-size:medium;font-style:normal;font-variant:normal;font-weight:normal;font-stretch:normal;text-indent:0;text-align:start;text-decoration:none;line-height:normal;letter-spacing:normal;word-spacing:normal;text-transform:none;direction:ltr;block-progression:tb;writing-mode:lr-tb;text-anchor:start;baseline-shift:baseline;color:#000000;fill:#9d5a34;fill-opacity:1;stroke:none;stroke-width:1.05631959000000000;marker:none;visibility:visible;display:inline;overflow:visible;enable-background:accumulate;font-family:Sans;-inkscape-font-specification:Sans" />
    </g>
    <path
       style="opacity:0.07999998;color:#000000;fill:#000000;fill-opacity:1;fill-rule:nonzero;stroke:none;stroke-width:8;marker:none;visibility:visible;display:inline;overflow:visible;enable-background:accumulate"
       d="m 15.967231,152.09853 -13.5529786,0.0265 c 4.5202909,2e-5 9.0402616,-0.003 13.5529786,-0.0265 z m -19.7658583,0.13232 c -20.3033867,0.0126 -40.9617817,0.10625 -62.0598867,0.29988 l 0,3.81024 1.101511,1.12897 -1.101511,5.61836 0,14.00618 138.851707,1.69344 0,-10.31945 c -0.419227,-3.38752 -1.170315,-8.88173 -1.170315,-8.88173 l -3.717359,-3.39572 c 0,0 2.79698,-0.63335 4.887674,-1.21713 l 0,-2.44316 C 47.834348,152.3315 22.305879,152.21465 -3.7986273,152.23085 z"
       id="path9090"
       inkscape:connector-curvature="0" />
    <path
       sodipodi:nodetypes="ccccccccccccccccccccccccccccccccccccccccccccccccccccccccccccccccccccccccccccccccccccccccccccccccccccccc"
       inkscape:connector-curvature="0"
       id="path8877"
       d="m -65.779837,67.860821 c -0.243646,0.679436 -0.265205,1.1812 0.0083,1.446941 l 0.223243,0.181901 27.243829,0.405143 z m 139.228715,0.06615 -12.063347,1.645378 11.856641,-0.223242 c 0.0024,-0.01356 0.0174,-0.08943 0.03307,-0.19017 0,-0.01183 0.0083,-0.04519 0.0083,-0.05788 0.0118,-0.01963 0.01554,-0.06092 0.01654,-0.08268 0.0267,-0.168405 0.05972,-0.382061 0.09922,-0.686263 0.0118,-0.07819 0.02137,-0.17743 0.03307,-0.264584 0.0052,-0.04182 0.01096,-0.09378 0.01654,-0.14056 z m -3.480925,22.902996 c -1.148192,1.147196 -3.208073,2.885612 -3.208073,2.885612 l -17.875912,0.636653 18.810222,0.214974 2.199349,-1.355989 z m -134.739066,1.719791 c 2.39e-4,0.0084 -2.38e-4,0.01641 0,0.02479 0,0.0476 0.0083,0.09281 0.0083,0.14056 0.01169,0.107439 0.01654,0.214021 0.01654,0.322461 0.01169,0.276971 0.01114,0.550751 0.01654,0.835091 0,7.94e-4 5.3e-4,0.0073 0,0.0083 0,0.04243 0.0052,0.08224 0.0083,0.124023 l 25.044467,1.099675 z m 132.771228,2.968295 -15.287956,0.529166 14.047721,0.314193 c 0,0 0.343107,0.906299 0.661459,1.761133 l -0.09095,-0.405143 0.537435,-0.165365 0.553971,-0.959114 z m 3.356901,23.390817 -11.683008,1.9513 10.765234,-0.62838 0.512631,-0.42168 0.380338,-0.0331 z m -137.211267,1.15755 c -0.155008,0.0447 -0.194283,1.02942 -0.03307,1.19063 l 0,0.008 0.07441,0.0579 c 3.843599,0.33791 14.742253,0.95911 14.742253,0.95911 z m 1.66302,27.58281 c 0,0 -0.05209,1.00039 0.06055,1.18366 l 4.361847,0.40384 1.752865,2.16628 -1.537891,-2.9931 z m -1.629947,29.0959 0,0.34727 0,0.11575 0.686263,0.6532 18.438152,-0.54571 z m 1.562696,25.17676 c 0.0033,0.0909 0.0045,0.20063 0.0083,0.28112 0.01169,0.11849 0.01114,0.20604 0.01654,0.30593 0.01169,0.0586 0.01654,0.12161 0.01654,0.17363 0.01169,0.11042 0.0173,0.22757 0.02479,0.30592 0,0.0144 0.0083,0.0279 0.0083,0.0413 0.01169,0.0803 0.0163,0.14377 0.02479,0.1819 l 0.132291,0 0.02479,0.0413 17.123503,-0.25632 z m -2.66237,26.078 c -0.116845,0.65792 -0.0159,0.73504 0.0083,1.01699 l 8.392253,0.41341 z m 141.130407,1.15755 -16.900261,1.7446 c 0,0 14.628817,-0.32192 16.85892,-0.32246 l 0,-0.0165 z m -1.761133,20.22409 c -4.538915,0.39968 -22.679753,1.5875 -22.679753,1.5875 l 22.125782,0.23151 0.51263,-0.46302 c 0.01529,-0.21311 0.03034,-0.71546 0.04134,-1.35599 z m -113.663349,2.05879 c 0,0 -16.058354,0.14527 -22.315951,0.22324 0,0 -1.242174,0.66038 -1.254231,0.72321 z m 111.910485,19.87682 c -11.39028,-0.0405 -53.627736,0.93431 -53.627736,0.93431 l 55.140822,0.20671 0.267659,-0.19546 0.06307,-0.92075 c -0.465496,-0.0133 -1.071755,-0.022 -1.843815,-0.0248 z m -135.463667,0.72761 c 2.64e-4,0.0111 0.0083,0.19843 0.0083,0.19843 l 0,0.0165 0.644921,0.96738 26.637232,-1.18235 z"
       style="color:#000000;fill:#422515;fill-opacity:1;fill-rule:nonzero;stroke:none;stroke-width:30;marker:none;visibility:visible;display:inline;overflow:visible;enable-background:accumulate"
       class="switchable"
       name="style lines" />
  </g>
</svg>
