<?xml version="1.0" encoding="UTF-8" standalone="no"?>
<!-- Created with Inkscape (http://www.inkscape.org/) -->

<svg
   xmlns:dc="http://purl.org/dc/elements/1.1/"
   xmlns:cc="http://creativecommons.org/ns#"
   xmlns:rdf="http://www.w3.org/1999/02/22-rdf-syntax-ns#"
   xmlns:svg="http://www.w3.org/2000/svg"
   xmlns="http://www.w3.org/2000/svg"
   xmlns:sodipodi="http://sodipodi.sourceforge.net/DTD/sodipodi-0.dtd"
   xmlns:inkscape="http://www.inkscape.org/namespaces/inkscape"
   width="1909.3639"
   height="899.5329"
   viewBox="0 0 505.18585 238.00142"
   version="1.1"
   id="svg23489"
   inkscape:version="0.48.5 r10040"
   sodipodi:docname="panel_mobile_horizontal.svg"
   tags="wood panel, wood ui">
  <defs
     id="defs23483" />
  <sodipodi:namedview
     id="base"
     pagecolor="#7d848b"
     bordercolor="#666666"
     borderopacity="1.0"
     inkscape:pageopacity="0"
     inkscape:pageshadow="2"
     inkscape:zoom="0.47027674"
     inkscape:cx="241.72431"
     inkscape:cy="586.12833"
     inkscape:document-units="px"
     inkscape:current-layer="layer1"
     showgrid="false"
     inkscape:pagecheckerboard="false"
     showborder="true"
     units="px"
     inkscape:window-width="1920"
     inkscape:window-height="1017"
     inkscape:window-x="-8"
     inkscape:window-y="-8"
     inkscape:window-maximized="1"
     inkscape:showpageshadow="false"
     guidetolerance="28"
     fit-margin-left="20"
     fit-margin-top="20"
     fit-margin-bottom="20"
     fit-margin-right="20"
     showguides="true"
     inkscape:guide-bbox="true">
    <inkscape:grid
       type="xygrid"
       id="grid24034"
       spacingx="1px"
       spacingy="1px"
       empspacing="8"
       visible="true"
       enabled="true"
       snapvisiblegridlinesonly="true"
       originx="671.96399px"
       originy="-75.798068px" />
    <sodipodi:guide
       orientation="0,1"
       position="571.35664,976.11649"
       id="guide11270" />
  </sodipodi:namedview>
  <metadata
     id="metadata23486">
    <rdf:RDF>
      <cc:Work
         rdf:about="">
        <dc:format>image/svg+xml</dc:format>
        <dc:type
           rdf:resource="http://purl.org/dc/dcmitype/StillImage" />
        <dc:title />
        <cc:license
           rdf:resource="" />
        <dc:creator>
          <cc:Agent>
            <dc:title>Robert Brooks</dc:title>
          </cc:Agent>
        </dc:creator>
      </cc:Work>
    </rdf:RDF>
  </metadata>
  <g
     inkscape:label="Layer 1"
     inkscape:groupmode="layer"
     id="layer1"
     transform="translate(177.79048,-38.94368)">
    <path
       id="path11148"
       d="m -168.46123,47.238127 -0.26037,8.802754 0.0971,21.263484 c 4.1e-4,0.0086 -5.4e-4,0.0143 0,0.02359 l 0.0148,1.480895 c 0,0.0012 0,0.0043 0,0.0043 l 0.027,5.262769 5.35414,2.1653 -1.22675,0.04132 c -0.11596,1.579827 -0.20347,3.043893 -0.27682,4.442657 -0.0148,0.259577 -0.031,0.53667 -0.0431,0.7906 -5.4e-4,0.01287 5.4e-4,0.02402 0,0.03546 -0.0148,0.256532 -0.0216,0.492431 -0.0324,0.743386 -0.0472,1.096377 -0.0876,2.139491 -0.11461,3.138779 -0.0148,0.207245 -0.0148,0.427815 -0.0162,0.631314 -5.3e-4,0.01916 2.7e-4,0.03989 0,0.05891 -0.0162,0.687907 -0.0256,1.357598 -0.0324,2.005984 -2.7e-4,0.02288 1.4e-4,0.0479 0,0.07078 -0.0148,0.648214 -0.0148,1.279685 -0.0148,1.893891 1.4e-4,0.021 0,0.0439 0,0.0649 0,0.60173 0.0148,1.18969 0.0162,1.76408 0,0.21803 0.0148,0.42849 0.0148,0.6431 0.0175,0.96779 0.0391,1.90638 0.0715,2.82016 0,0.0369 0.0148,0.0752 0.0148,0.1121 0.0175,0.52 0.0351,1.03639 0.0553,1.5458 0,0.041 0.0148,0.0832 0.0148,0.12382 0.10652,2.68656 0.23933,5.26689 0.31471,8.08884 0,0.0638 0.0148,0.12483 0.0148,0.1888 0.0148,0.14402 0.0148,0.28534 0.0148,0.4307 0.0148,0.37125 0.0148,0.74576 0.0216,1.12689 0,0.001 6.7e-4,0.004 0,0.006 0,0.0719 0.0148,0.14013 0.0148,0.21239 l 0.11461,0.004 2.84427,2.0237 -5.82661,0.39066 c -0.0229,0.25092 -0.0485,0.60749 -0.0755,1.05022 0,0.009 5.4e-4,0.0143 0,0.0234 -0.0256,0.43871 -0.0539,0.95976 -0.0809,1.5576 -0.0243,0.49013 -0.0512,1.05906 -0.0755,1.64017 -0.0148,0.13798 -0.0148,0.24681 -0.0162,0.3894 0,0.049 -0.0148,0.0859 -0.0148,0.13569 -0.0297,0.70783 -0.0607,1.46164 -0.0917,2.26561 -0.0404,1.05386 -0.0809,2.26583 -0.12405,3.43965 -0.0148,0.25914 -0.0229,0.52729 -0.0324,0.79062 -0.0162,0.46382 -0.0324,0.86474 -0.0472,1.33929 -0.0148,0.12654 -0.0148,0.23268 -0.0148,0.35991 -0.0539,1.55547 -0.10653,3.14035 -0.15736,4.73176 -0.0162,0.50125 -0.0324,0.94169 -0.0485,1.43957 -1.4e-4,0.004 0,0.007 0,0.0129 -0.0742,2.29258 -0.12944,4.16096 -0.18999,6.18317 -0.0148,0.40315 -0.0148,0.50494 -0.0256,0.89088 -0.13564,4.48199 -0.23879,8.10067 -0.23879,8.10067 l 0,0.0129 4.83339,4.52046 0,25.26571 0,6.04748 0.13565,0.0236 c 0.089,0.30012 2.29292,3.79154 3.45212,5.70526 -1.90405,0.017 -7.69385,0.0346 -9.60356,0.0531 l 0,4.53117 0,0.57818 1.38964,1.51039 -1.38964,7.5402 0,18.76779 0,0.15931 4.30996,4.37188 4.71689,0.0649 -3.23395,0.7139 c -0.0189,0.96081 -0.0283,2.0554 -0.0431,3.22138 -0.0148,0.58003 -0.0162,1.18127 -0.0229,1.79948 -0.0148,0.77051 -0.0148,1.54564 -0.0162,2.35999 -0.0148,0.67254 0,1.3375 -0.0148,2.02961 -5.4e-4,0.14013 -0.0148,0.27226 -0.0148,0.41296 5.4e-4,0.004 -2.7e-4,0.007 0,0.0129 -1.4e-4,0.0683 2.7e-4,0.13197 0,0.20059 0,0.9323 -0.0148,1.87235 -0.0148,2.81429 0,0.0498 0,0.0978 0,0.14755 0,0.0711 0,0.14127 0,0.21237 0,0.0359 0,0.0703 0,0.10624 0,0.36326 -5.4e-4,0.71798 0,1.07973 0,1.01308 0.0148,2.00931 0.0148,2.99128 4e-4,0.0638 -1.4e-4,0.13126 0,0.1947 0,0.29707 0.0148,0.56317 0.0148,0.85549 0,0.45628 0.0148,0.93246 0.0148,1.3747 0.0148,0.70155 0.0148,1.37968 0.0162,2.0355 0.0148,0.31461 0.0148,0.61828 0.0148,0.92038 4e-4,0.0312 -2.7e-4,0.0573 0,0.0884 0.0148,0.40399 0.0148,0.81934 0.0162,1.19768 0.0148,0.359 0.0148,0.65248 0.0162,0.98532 0,0.10481 0.0148,0.23417 0.0148,0.33628 0,0.13826 0.0148,0.27413 0.0148,0.40711 0.0148,0.19363 0.0148,0.35499 0.0148,0.53688 0.0148,0.32971 0.0148,0.66715 0.0216,0.95582 0.0148,0.39363 0.0243,0.76594 0.0377,1.07377 0.0148,0.15882 0.0148,0.27322 0.0216,0.40711 0.0148,0.0785 0.0148,0.16628 0.0148,0.23602 0.0148,0.148 0.0229,0.30204 0.0324,0.40708 0,0.0193 0.0148,0.0352 0.0148,0.0532 l 0.0324,0.24778 0.16815,0 3.02144,4.80214 37.49179,-0.38289 c 133.977666,1.46963 259.70609,0.40098 384.05014,-1.0936 37.71292,0.10138 49.32327,-0.15135 49.32327,-0.15135 0.88345,-1.26539 3.71006,-4.59517 3.71006,-4.59517 0.0148,-0.0452 0.0297,-0.10409 0.0432,-0.15928 0.0148,-0.0162 0.0148,-0.0359 0.0148,-0.053 0.0647,-0.28513 0.1227,-0.69229 0.17394,-1.19178 0.0148,-0.0675 0.0148,-0.14723 0.0216,-0.2183 0.0148,-0.14847 0.0256,-0.30898 0.0378,-0.47201 0,-0.0389 0.0148,-0.0844 0.0148,-0.12411 0.0148,-0.21215 0.031,-0.43259 0.0432,-0.66666 0.0553,-0.92332 0.10113,-2.0276 0.13564,-3.2273 0.0175,-0.60915 0.031,-1.24548 0.0432,-1.9057 5.4e-4,-0.0342 -8.1e-4,-0.0719 0,-0.10623 0,-0.0785 0.0148,-0.16279 0.0148,-0.24189 0.0148,-0.53986 0.0162,-1.09398 0.0229,-1.6579 0,-0.1434 0.0148,-0.29199 0.0148,-0.4366 0.0148,-0.41826 0.0148,-0.85335 0.0148,-1.28028 0,-0.42479 0.0148,-0.85568 0.0148,-1.28621 1.4e-4,-0.15632 1.4e-4,-0.31515 0,-0.47201 -4e-4,-0.59048 -0.0148,-1.18255 -0.0148,-1.77588 -0.0148,-1.01719 -0.0148,-2.0293 -0.0256,-3.02667 -0.0148,-0.3968 -0.0148,-0.77851 -0.0162,-1.1682 -0.0148,-0.92529 -0.0337,-1.82036 -0.0553,-2.68448 -0.0256,-1.12546 -0.0566,-2.18086 -0.0917,-3.14472 -0.0148,-0.42338 -0.0324,-0.79098 -0.0485,-1.17407 -0.0378,-0.85533 -0.0769,-1.60043 -0.11866,-2.21247 -0.0351,-0.51534 -0.0701,-0.91782 -0.10922,-1.22132 -0.0148,-0.0869 -0.0256,-0.17447 -0.0377,-0.24189 0,-0.007 -0.0148,-0.0114 -0.0148,-0.0179 l 1.09098,-1.15639 0.25511,0.004 0,-0.27136 0,-11.85896 0,-1.70508 c -0.52978,-4.54072 -1.47661,-11.90616 -1.47661,-11.90616 l -1.51949,-1.46909 c 0.90733,-1.69862 2.21728,-4.03893 2.90926,-4.69048 0.0283,-0.007 0.0593,-0.0153 0.0863,-0.0236 l 0,-0.0531 c 0.062,-0.0486 0.12001,-0.0822 0.16814,-0.0944 l -0.16814,0 0,-3.12698 c -0.72421,-0.006 -1.45207,-0.0129 -2.17682,-0.0179 l 2.10064,-1.71099 c 0.0391,-7.2e-4 0.0809,-0.004 0.12,-0.006 l 3.08442,-0.0944 0.67055,-9.42346 -1.47513,-25.98226 0,-3.3276 -6.43783,-0.0355 3.75078,-3.25677 0.47261,-0.0472 0.43391,-16.18953 0,-0.006 0.0162,-0.68439 0.0553,-8.11245 -5.02109,-2.04727 -0.54272,-2.5252 0.6785,-0.21831 0.25512,-4.69637 0.73823,-26.42597 -0.10922,0 0.0162,-0.743429 0.76575,-1.080091 5.01435,-4.772669 0,-0.07078 c 0,0 0.0148,5.7e-5 0.0148,0 0,0 0.0216,-0.130833 0.0431,-0.277294 0,-0.01587 0.0148,-0.05376 0.0148,-0.07078 0.0148,-0.02631 0.0148,-0.08894 0.0162,-0.118107 0.0337,-0.225732 0.0755,-0.512649 0.1254,-0.920403 0.0148,-0.104809 0.0283,-0.237157 0.0431,-0.353977 0.0148,-0.128402 0.0324,-0.282255 0.0472,-0.424812 0.0148,-0.103951 0.0256,-0.230723 0.0378,-0.342195 0.0202,-0.187112 0.0378,-0.39969 0.0593,-0.607692 0.0148,-0.09108 0.0189,-0.199966 0.0256,-0.294995 0.0243,-0.257762 0.0526,-0.53913 0.0755,-0.826004 0.0553,-0.654949 0.10652,-1.405698 0.15736,-2.212499 0.0148,-0.172927 0.0229,-0.374681 0.0324,-0.554587 0.0256,-0.442714 0.0553,-0.919488 0.0769,-1.404183 0.0148,-0.07821 0.0148,-0.162647 0.0148,-0.241918 0.0148,-0.265869 0.0229,-0.55962 0.0324,-0.837786 0.0148,-0.317072 0.0229,-0.646384 0.0324,-0.979399 0,-0.05262 0.0148,-0.112101 0.0148,-0.165178 0.0175,-0.581268 0.0324,-1.194079 0.0432,-1.823104 4e-4,-0.01887 -2.7e-4,-0.04004 0,-0.05905 0.0351,-2.060476 0.0351,-4.378184 -0.0216,-6.950137 0,-0.08722 -0.0148,-0.177674 -0.0148,-0.265511 -0.0148,-0.346999 -0.0175,-0.693999 -0.0256,-1.050192 -0.0148,-0.446889 -0.027,-0.9016 -0.0431,-1.362903 -0.26132,-5.109788 -0.78152,-11.929736 -0.78152,-11.929736 l -5.22187,-2.283292 -481.06419,-0.554601 z"
       style="color:#000000;fill:#422515;fill-opacity:1;fill-rule:nonzero;stroke:#422515;stroke-width:5.29166682999999960;stroke-linejoin:round;stroke-miterlimit:4;stroke-opacity:1;stroke-dasharray:none;marker:none;visibility:visible;display:inline;overflow:visible;enable-background:accumulate"
       inkscape:connector-curvature="0"
       sodipodi:nodetypes="cccccccccccccccccccscccccccccccccccccccccccccccccccccccccccccccccccccccccccsssscccsccccccsccccccccccccccccccccccscccccsccccccccccccccccccccccccccccccccccccccccccccccccccccccccccccccccccccccccccccc" />
    <path
       sodipodi:nodetypes="ccccccccccccccccccccccccccccccccccccccccccccccccccc"
       inkscape:connector-curvature="0"
       id="path11150"
       d="m -165.75746,53.474376 -2.30681,30.176538 3.36717,2.895445 478.19781,2.133141 4.20748,-5.30119 -2.06046,-29.903934 z m 1.29336,37.340954 0,26.33156 6.46507,4.60788 463.3968,1.30475 3.46951,-1.11945 2.53441,-4.69879 0.62511,-26.408177 z m -2.93649,33.07521 -1.29256,29.83024 5.26528,4.51942 475.02346,-1.9883 4.02235,-4.89109 -2.37072,-23.95746 z m 482.86238,34.49715 -479.18751,1.98826 0,29.4645 c 0,0 0.80606,-0.0216 0.13847,0.006 -0.15344,0.006 4.30295,6.96682 4.15301,6.97267 l 0.0202,1.60039 473.08881,0 4.87317,-4.55446 z m 0.12405,40.36169 -485.3283,1.40422 0,0.57818 1.38964,1.51039 -1.38964,7.54017 0,18.9271 4.40475,4.37188 476.22837,2.27148 4.52718,-4.80254 0,-13.56405 c -0.52992,-4.54072 -1.47661,-11.90615 -1.47661,-11.90615 l -2.48601,0.37761 c 0,0 3.26712,-6.49015 4.13062,-6.70829 z m -479.35593,35.26415 0,29.25794 2.80652,4.82028 c 168.2221541,2.71305 317.93229,0.13698 471.20269,-1.42191 l 3.78894,-4.74356 0,-25.64127 z"
       style="color:#000000;fill:#734125;fill-opacity:1;fill-rule:nonzero;stroke:none;stroke-width:15;marker:none;visibility:visible;display:inline;overflow:visible;enable-background:accumulate" />
    <path
       style="color:#000000;fill:#693b22;fill-opacity:1;fill-rule:nonzero;stroke:none;stroke-width:15;marker:none;visibility:visible;display:inline;overflow:visible;enable-background:accumulate"
       d="m -165.75746,53.474376 -2.30681,30.176538 3.36717,2.895445 476.93195,2.133141 5.19207,-4.175959 -3.88899,-31.029165 z m 1.29336,37.340954 0,26.33156 6.46507,4.60788 463.3968,1.30475 3.46951,-1.11945 2.53441,-4.69879 0.62511,-26.408177 z m -2.93649,33.07521 -1.29256,29.83024 5.26528,4.51942 475.02346,-1.9883 4.02235,-4.89109 -2.37072,-23.95746 z m 482.86238,34.49715 -479.18751,1.98826 0,29.4645 c 0,0 0.80606,-0.0216 0.13847,0.006 -0.15344,0.006 4.30295,6.96682 4.15301,6.97267 l 0.0202,1.60039 473.08881,0 4.87317,-4.55446 z m 0.12405,40.36169 -485.3283,1.40422 0,0.57818 1.38964,1.51039 -1.38964,7.54017 0,18.9271 4.40475,4.37188 476.22837,2.27148 4.52718,-4.80254 0,-13.56405 c -0.52992,-4.54072 -1.47661,-11.90615 -1.47661,-11.90615 l -2.48601,0.37761 c 0,0 3.26712,-6.49015 4.13062,-6.70829 z m -479.35593,35.26415 477.79815,2.27148 z"
       id="path11180"
       inkscape:connector-curvature="0"
       sodipodi:nodetypes="ccccccccccccccccccccccccccccccccccccccccccccccc" />
    <path
       style="color:#000000;fill:#af683f;fill-opacity:1;fill-rule:nonzero;stroke:none;stroke-width:15;marker:none;visibility:visible;display:inline;overflow:visible;enable-background:accumulate"
       d="m -168.27461,47.241859 -0.26105,8.795905 0.13079,28.042824 c 13.08601,0.432405 28.65263,0.714074 41.45346,0.898497 l -37.51484,1.300433 c -1.10015,15.096142 -0.14954,21.276152 0,30.939342 l 30.5862,1.20589 47.249726,-0.40196 -71.179256,1.1113 -9.65965,0.22465 c -0.36932,4.01464 -1.22904,34.35597 -1.22904,34.35597 l 22.45103,1.56056 33.79494,-0.44922 -51.08465,1.01669 -0.18972,34.00134 5.79749,1.04037 1.82732,3.12113 c 0,0 0.11731,0.034 0.19578,0.0945 54.78151,3.56306 415.88524,2.82459 471.36275,-0.21277 l 2.27984,-38.82488 -409.750908,-0.5202 3.752536,-0.0473 c 125.929201,2.33425 251.858402,0.23085 377.787602,-0.33103 l 25.99188,-2.44727 0.4459,-16.87063 0.0647,-8.122 -5.02527,-2.0453 -0.93537,-4.33882 -391.586233,-2.36448 c 128.271022,0.57195 256.984283,0.92279 389.687173,-0.72119 0.72691,-0.48803 1.84512,-1.26605 3.274,-2.34081 l 0.68524,-28.633982 c -11.50085,-0.523674 -23.16688,-1.073142 -35.02411,-1.536875 12.86865,-0.18175 27.88283,-0.381159 40.71885,-0.591163 0,0 1.30523,-7.381784 0.78314,-22.143408 -0.26131,-5.109788 -0.78314,-11.928821 -0.78314,-11.928821 l -5.22092,-2.281747 -480.87649,-0.555645 z m 80.860878,147.981451 c -25.663948,0.0169 -55.664548,0.14242 -82.333038,0.40197 l 0,5.10728 1.39233,1.51328 -1.39233,7.53091 0,18.77403 c 161.7198733,3.89648 323.43975,2.6717 485.15962,2.26991 l 0,-13.8323 c -0.52992,-4.54067 -1.47931,-11.90517 -1.47931,-11.90517 l -4.69883,-4.55165 c 0,0 3.53545,-0.84896 6.17814,-1.63146 l 0,-3.27483 c -31.80136,-0.26706 -369.829885,-0.42369 -402.826582,-0.40197 z m -61.683578,34.45059 c -1.65324,1.17835 -4.90553,3.19205 -4.90553,3.19205 l -9.94159,0.99309 c -0.173,8.96141 -0.12001,28.42178 0.17394,29.69796 l 477.79114,-1.41868 c 0.92337,-3.01097 0.55405,-28.5771 0,-30.38367 l -76.19361,-1.38325 z"
       id="path11152"
       inkscape:connector-curvature="0"
       sodipodi:nodetypes="cccccccccccccccccccccccccccccccccccccccscccccccccccscccccccc" />
    <path
       style="opacity:0.23451327000000000;color:#000000;fill:#9d5a34;fill-opacity:1;fill-rule:nonzero;stroke:none;stroke-width:15;marker:none;visibility:visible;display:inline;overflow:visible;enable-background:accumulate"
       d="m 304.52176,152.76077 c -29.53981,0.2027 -185.59836,1.2402 -313.9585151,1.66694 L 289.52674,154.16766 z m -465.32438,1.57236 14.5602,0.9458 33.79169,-0.44922 -51.0833,1.0167 -0.18954,34.00133 5.79732,1.04037 1.82838,3.12113 c 0,0 0.0731,0.0291 0.14496,0.071 86.610363,0.26649 270.19015,0.17951 383.39257,0.65021 41.93794,-0.20171 76.57297,-0.4861 90.16468,-0.83937 0.53642,-9.67026 0.12864,-38.82489 0.12864,-38.82489 l -384.585496,-0.48474 c -41.963094,0.0667 -76.174114,0.006 -93.950104,-0.24829 z"
       id="path11160"
       inkscape:connector-curvature="0"
       sodipodi:nodetypes="ccccccccccccccccc" />
    <path
       inkscape:connector-curvature="0"
       style="opacity:0.02999998;color:#000000;fill:#000000;fill-opacity:1;fill-rule:nonzero;stroke:none;stroke-width:15;marker:none;visibility:visible;display:inline;overflow:visible;enable-background:accumulate"
       d="m 313.19545,83.29212 c -8.0463,0 -467.75479,1.134954 -467.75479,1.134954 0,0 -0.68894,0.0098 -0.98109,0.01173 9.70861,0.236032 19.78635,0.417095 28.58526,0.54387 l -37.51535,1.30043 c -1.10017,15.096178 -0.14955,21.276148 0,30.939338 l 4.61553,0.17732 c 44.37403,-0.0409 184.106997,-0.12757 301.27129,0.16555 l 166.75107,-0.30742 c 0.72693,-0.48799 1.84886,-1.26608 3.27775,-2.3408 l 0.68005,-28.633988 c -11.50085,-0.523668 -23.16082,-1.073175 -35.01804,-1.536879 11.74627,-0.165931 26.89234,-0.342075 39.23225,-0.532029 -0.95447,-0.573492 -1.99838,-0.92215 -3.14393,-0.92215 z"
       id="path11156" />
    <path
       style="color:#000000;fill:#9d5a34;fill-opacity:1;fill-rule:nonzero;stroke:none;stroke-width:15;marker:none;visibility:visible;display:inline;overflow:visible;enable-background:accumulate"
       d="m -168.62165,78.802218 0.0225,5.272808 c 1.56585,0.05175 5.97942,0.09413 7.54027,0.141869 28.49839,-0.61034 400.94943,-0.02043 443.50639,0.449253 11.07856,-0.163396 24.3128,-0.339238 35.37127,-0.520187 0,0 0.27106,-1.497913 0.5128,-4.457079 l -6.4885,0 c -2.03149,0 -0.47913,1.016541 -2.69531,0.815768 -2.21618,-0.200736 -11.30785,-0.804418 -13.15461,-1.205889 -1.84672,-0.401509 -3.88438,0.591349 -8.31689,0.792122 -4.43216,0.200736 -16.61285,0.414485 -20.49135,1.016692 -3.87832,0.602207 -5.90681,0 -9.23112,0.402001 -3.32427,0.401433 -360.06272,-1.61992 -367.44993,-1.820694 -7.38722,-0.200735 -14.95335,0.414524 -18.46225,1.016768 -3.50875,0.602131 -38.85262,-1.016768 -39.96071,-1.016768 -0.21938,0 -0.46693,-0.301973 -0.70239,-0.886664 z M 306.2052,110.79374 c -2.65104,0.007 -4.95738,0.0836 -6.05373,0.27193 -3.509,0.60217 -7.75172,0.20172 -12.55343,0.80393 -4.80172,0.6022 -6.46582,1.00515 -9.42064,1.20585 -2.95499,0.20077 -8.67665,-0.20119 -12.18554,-0.40193 -3.50901,-0.20077 -6.46568,-0.60319 -13.66831,-0.80392 -6.84651,-0.19083 -404.88979,0.21972 -416.93902,0.16547 0.0647,1.65995 0.1294,3.36518 0.15608,5.19007 l 30.5809,1.20589 25.28525,-0.0709 -49.22152,0.76844 -9.71728,0.22464 c -0.18891,2.05306 -0.50524,10.9332 -0.76924,19.176 0.015,-0.0761 0.0228,-0.14414 0.0335,-0.22461 1.10809,-8.83221 1.85108,-15.05078 3.1439,-15.65291 1.29271,-0.60224 470.54407,0.40325 470.3592,1.40685 -0.18459,1.00368 0.91419,3.01471 0.91419,3.01471 l 4.43718,1.60785 3.08821,6.84521 0.0221,-0.6857 0.0558,-8.122 -5.02804,-2.0453 -0.9365,-4.33882 -65.69929,-1.85614 c -12.4717,-0.0658 -276.599176,-0.12397 -328.396064,-0.17732 L 307.1862,117.24882 c 0.72693,-0.48803 2.7409,-2.21184 4.16965,-3.28664 l 0.078,-3.12112 c -1.7398,-0.031 -3.54746,-0.0524 -5.22876,-0.0473 z m -403.51596,43.71937 -66.41281,1.32412 0,27.94824 0,6.05309 5.79732,1.04037 1.82838,3.12113 c 0,0 0.11106,0.0341 0.18955,0.0946 55.67585,1.4762 419.6653,1.21122 474.4514,-0.21281 l 0.53642,-9.2333 -1.07285,-29.59158 -415.30628,-0.54384 -0.01106,0 z m 408.06462,4.24424 c 0.88309,-0.0772 1.86185,0.62661 1.86185,0.62661 0,0 1.04188,10.02845 1.86186,17.46176 -0.42976,5.91708 -1.02968,11.8846 -1.85072,12.33078 -1.56692,0.85164 -464.81015,0.85107 -466.11592,1.13496 -1.30577,0.28385 -1.31066,-1.70171 -1.57195,-3.12113 -0.26118,-1.41937 -4.44221,-0.56747 -6.00916,-0.56747 -0.94887,0 -1.60717,-4.59865 -2.09596,-9.84811 0.72558,-8.35277 1.76592,-17.39079 2.88753,-17.39079 1.66214,0 469.94176,-0.40219 470.86526,-0.60293 0.058,-0.0129 0.10792,-0.0185 0.16721,-0.0238 z m -480.27173,51.47494 c -0.0593,0.0174 -0.1457,0.11209 -0.23414,0.27189 l 0,18.04104 485.16607,2.26991 0,-13.1229 c -0.66261,2.79399 -1.65643,6.36069 -2.78721,6.97523 -1.56692,0.85164 -20.36427,1.69063 -24.28183,1.69063 -3.9176,0 -10.19983,-3.12112 -13.33385,-3.12112 -3.13419,0 -2.86384,-0.28363 -5.99803,-0.56748 -3.13416,-0.28393 -390.90416,1.13484 -397.17237,1.41869 -6.26821,0.28389 -14.59562,-0.5562 -17.99096,0.57928 -3.39538,1.13549 -18.80324,-1.99808 -20.8927,-1.71423 -2.08943,0.28389 -2.59024,-2.59031 -2.06788,-8.83562 0.0809,-0.97583 -0.25594,-3.93004 -0.4071,-3.88532 z m 5.47096,33.44565 c -0.0257,8.95911 0.0703,18.96948 0.27874,19.87351 l 477.78862,-1.4187 c 0.38387,-1.25197 0.54099,-6.41968 0.55744,-12.14162 -0.39494,-0.0496 -0.64663,-0.0591 -0.64663,-0.0591 0,0 -0.77891,4.81103 -2.08479,6.23044 -2.801,9.95419 -471.97472,7.46262 -472.91665,0.57928 -1.87506,-0.50944 -1.86806,-4.46631 -2.97673,-13.06378 z"
       id="path11158"
       inkscape:connector-curvature="0"
       sodipodi:nodetypes="ccccccsccsscscsccccscsscccccccccccccccccccccccccccccccccccccccccccscscccccccccsscsscccccccccccc" />
    <g
       id="g3848"
       class="switchable"
       name="grain">
      <path
         style="opacity:0.5;color:#000000;fill:#d3865b;fill-opacity:1;fill-rule:nonzero;stroke:none;stroke-width:15;marker:none;visibility:visible;display:inline;overflow:visible;enable-background:accumulate"
         d="m -168.5397,57.363093 0.0135,1.513282 c 169.9728904,0.328568 335.69569,5.699621 487.17302,5.52106 -0.0135,-0.420051 -0.0175,-0.820427 -0.0337,-1.25319 0,-0.08636 -0.0135,-0.184652 -0.0135,-0.271931 C 167.16624,63.052276 1.4428949,57.690903 -168.54011,57.363093 z m 0.0216,4.551627 0.0135,1.536917 c 219.907916,-0.198694 298.41008,16.212549 487.17316,10.793896 0.0148,-0.521771 0.0243,-1.049034 0.0337,-1.607853 C 139.73173,78.598423 53.966937,62.350199 -168.51543,61.91472 z m 3.6568,32.61813 c -0.0202,0.529978 -0.0404,1.042527 -0.0553,1.548713 l 476.71837,4.811727 0.0445,-1.785178 C 150.87729,97.902938 -7.858621,96.945229 -164.86092,94.53285 z m 475.85983,31.25852 c -207.13945,1.10514 -334.836644,17.08885 -396.893719,19.28238 -36.900791,1.30441 -65.104411,0.36909 -82.489181,-0.66206 -0.0175,0.57436 -0.0391,1.13406 -0.0553,1.67879 18.09172,1.22545 43.18352,3.99368 80.830912,2.66288 62.459566,-2.20771 192.755518,-22.13823 403.635768,-20.85763 l 0,-0.0356 -5.0281,-2.0453 z m 4.88289,37.71119 c -22.41962,0.10052 -120.4885,0.53374 -232.673278,0.85121 -62.828077,0.1777 -126.160852,0.31034 -174.789296,0.28374 -24.314226,-0.0129 -44.952226,-0.0645 -60.013476,-0.16555 -4.66296,-0.0314 -8.58081,-0.0655 -12.11868,-0.10638 l -0.0135,1.50147 c 3.53962,0.0442 7.45531,0.0869 12.11868,0.11825 15.06651,0.10124 35.70896,0.15213 60.024529,0.16555 48.631545,0.0265 111.960545,-0.10595 174.789431,-0.28373 112.10496,-0.31723 210.0514,-0.75025 232.58401,-0.85122 z m -5.89335,38.30948 c -23.81573,0.25223 -122.82794,1.55451 -229.934997,2.30297 -61.050511,0.42663 -123.259413,0.75664 -172.514987,0.75664 -32.239986,0 -58.902406,-0.13955 -76.078726,-0.4729 l -0.27871,1.51327 c 17.19573,0.34094 43.91775,0.4729 76.357436,0.4729 49.261507,0 113.748224,-1.5359 174.800353,-1.96253 109.063551,-0.76212 228.935301,-1.33005 229.250841,-1.01583 z m -479.73281,14.81111 0,1.596 c 30.11009,1.13489 131.097401,4.88659 239.262261,8.19298 63.968269,1.95538 130.478359,3.09105 179.259979,4.50437 11.10591,0.32167 21.14081,0.61261 30.45824,0.87482 l 36.17752,0.16555 0,-0.70934 c -2.22024,-0.0542 -4.39625,-0.1101 -6.99026,-0.17736 -14.6957,-0.38105 -35.22206,-0.9604 -59.6122,-1.66694 -48.78,-1.41325 -113.0174,-3.34116 -176.98553,-5.29646 -117.286638,-3.58528 -223.00783,-6.90097 -241.57001,-7.48362 z m 423.49479,24.12962 c -150.41116,0.16484 -282.467799,11.08955 -336.980564,13.01648 -34.752286,1.22841 -62.529686,0.29951 -80.805866,-0.81573 0,0.54977 0.0135,1.04147 0.0135,1.57237 19.31929,1.25432 48.90958,3.37035 84.62987,2.10773 61.86992,-2.18699 219.54884,-17.2518 393.90571,-13.83559 -0.0135,-0.51818 -0.0216,-1.01654 -0.0337,-1.51328 -15.50028,-0.29554 -30.89619,-0.45306 -46.12221,-0.50837 -4.88828,-0.0177 -9.75282,-0.0287 -14.60482,-0.0234 z"
         id="path11166"
         inkscape:connector-curvature="0"
         sodipodi:nodetypes="cccccccccccccccccscssccccccscssscccsscccsccccsscscssscssccsccsscccccc" />
      <path
         sodipodi:nodetypes="ccccccccccccccccccsccscccccsccccccssscccccssccssccccsscccsssccsccsccscc"
         inkscape:connector-curvature="0"
         id="path11168"
         transform="matrix(0.26458334,0,0,0.26458334,-177.79049,38.94368)"
         d="M 34.96875,65 35,70.71875 c 642.4172,1.241832 1268.7998,21.518626 1841.3125,20.84375 -0.051,-1.587594 -0.095,-3.083114 -0.1563,-4.71875 0,-0.3264 -0.031,-0.701377 -0.031,-1.03125 C 1303.7785,86.492675 677.42418,66.238971 34.96875,65 z m 0.0625,17.1875 0.0625,5.8125 c 831.148,-0.750969 1127.84605,61.2612 1841.28125,40.78125 0.056,-1.97205 0.09,-3.95043 0.125,-6.0625 C 1200.076,145.24754 875.94071,83.833409 35.0625,82.1875 z M 48.875,205.46875 c -0.07635,2.00307 -0.162435,3.93061 -0.21875,5.84375 L 1850.4375,229.5 l 0.1563,-6.75 C 1242.2071,218.19501 642.2695,214.58641 48.875,205.46875 z M 1847.4062,323.625 C 1064.517,327.80191 581.85892,388.20949 347.3125,396.5 c -139.46755,4.93002 -246.04378,1.39726 -311.75,-2.5 -0.06614,2.17081 -0.157522,4.28493 -0.21875,6.34375 68.37815,4.63162 167.71823,11.52098 310,6.28125 238.20905,-8.77238 734.84535,-82.06467 1521.06245,-75.0625 l 0,-0.125 -19,-7.75 z m 18.4376,142.53287 c -84.7356,0.37992 -446.3793,-0.26779 -870.38472,0.9321 -237.46044,0.67162 -485.82279,3.44969 -669.61533,3.34915 C 233.94747,470.39036 155.92441,470.19604 99,469.81412 81.376215,469.69544 66.590227,469.56238 53.21875,469.40787 l 0,0.34375 -0.0625,5.3125 0,0.375 c 13.377675,0.16706 28.187316,0.31928 45.8125,0.4375 56.94444,0.38234 134.97321,0.57424 226.875,0.625 183.80401,0.10016 423.16175,-0.39061 660.625,-1.0625 423.70395,-1.19894 793.86825,-2.83713 879.03125,-3.21875 l 0.3438,-5.71875 c -0.01,3e-5 -0.026,-3e-5 -0.031,0 z M 1841.1875,610.875 c -90.0123,0.95331 -455.0919,2.51489 -859.90625,5.34375 -230.74213,1.61246 -472.61852,6.625 -658.78125,6.625 -121.85184,0 -222.612802,-0.52123 -287.53125,-1.78125 l -1.0625,5.71875 c 64.991696,1.28859 165.9871,1.78125 288.59375,1.78125 186.18524,0 429.90806,-5.79379 660.65625,-7.40625 412.20825,-2.88045 785.85275,-3.3607 864.74995,-3.4375 z M 30.40625,667.25 l 0,6.03125 c 113.80176,4.28927 495.50061,18.47216 904.3125,30.96875 241.76975,7.39037 493.12895,11.68957 677.50005,17.03125 41.9751,1.21584 79.9095,2.32143 115.125,3.3125 l 136.75,0.625 0,-2.6875 c -8.3912,-0.20485 -16.6331,-0.40204 -26.4376,-0.65625 -55.5427,-1.44019 -133.1295,-3.64207 -225.3124,-6.3125 -184.3658,-5.34138 -427.137,-12.60989 -668.9063,-20 C 500.14947,682.01184 100.56222,669.4521 30.40625,667.25 z M 1631.0312,758.46875 C 1062.5481,759.09177 563.43908,800.37337 357.40625,807.65625 226.05925,812.29902 121.07513,808.77758 52,804.5625 c 0.01512,2.07787 0.01575,3.96224 0.03125,5.96875 73.01764,4.74074 184.83807,8.99093 319.84375,4.21875 233.83922,-8.26575 829.7944,-61.47416 1488.7812,-48.5625 -0.038,-1.95848 -0.081,-3.84135 -0.125,-5.71875 -58.5837,-1.117 -116.7653,-1.6972 -174.3124,-1.90625 -18.4751,-0.0673 -36.8493,-0.1134 -55.1876,-0.0937 z"
         style="color:#000000;fill:#a96138;fill-opacity:1;fill-rule:nonzero;stroke:none;stroke-width:15;marker:none;visibility:visible;display:inline;overflow:visible;enable-background:accumulate" />
    </g>
    <path
       style="color:#000000;fill:#d3865b;fill-opacity:1;fill-rule:nonzero;stroke:none;stroke-width:15;marker:none;visibility:visible;display:inline;overflow:visible;enable-background:accumulate"
       d="M 35.25,31.375 34.28125,64.59375 34.625,145 c 0.489184,9.0446 0.759754,13.08355 0.5625,7.53125 -0.697663,-19.72539 7.292409,-96.304963 9.53125,-109.625 30.55506,-4.333485 1822.49155,-7.24906 1804.46875,1.15625 -3.1955,1.490491 16.0625,6.78125 16.0625,6.78125 0,0 6.968,101.71191 9.0625,107.78125 0.1119,0.31487 0.2381,0.15702 0.4063,-0.28125 1.2541,-13.21723 2.6508,-36.87313 1.4374,-71.15625 -0.9866,-19.312592 -3,-45.09375 -3,-45.09375 l -19.7187,-8.625 z M 1536,169.125 c -36.6362,0.0543 -1229.43624,0.72912 -1267.375,2.21875 l -218.28125,7.5625 c -4.127244,56.62959 -0.593379,80.06842 -0.03125,116.125 0.549883,-1.31974 0.894551,-3.67386 1,-7.21875 0.987137,-33.26064 7.875,-101.9375 7.875,-101.9375 0,0 432.92312,-9.85402 863.90625,-13.625 343.95525,-3.00958 698.63675,0.065 743.56245,-1.03125 -42.7639,-1.31862 -86.2601,-2.15237 -130.6562,-2.09375 z m 176.625,3.71875 c 40.678,4.48963 130.0938,15.1875 130.0938,15.1875 0,0 3.6007,69.90791 6.5,94.09375 l 2.4374,-103.21875 c -45.6331,-2.07817 -91.9035,-4.26101 -139.0312,-6.0625 z M 1847.0312,322.375 c -0.4739,1.23054 -0.7853,2.32911 -0.9687,3.125 -0.6985,3.03473 10.5002,8.38018 16.7813,10.65625 6.2824,2.27603 1.3637,7.5642 2.0624,12.875 0.6977,5.31065 -7.0211,59.89913 -7.7187,65.96875 -0.6985,6.06947 -92.708,7.65262 -97.5937,10.6875 -4.8874,3.03458 -130.1556,4.52172 -136.4376,5.28125 -1.7055,0.20598 -82.8763,3.313 -244.8547,3.35094 -11.6671,1.49406 -58.1929,0.0293 -70.1765,1.55531 l 458.125,-0.40625 98.2188,-9.25 1.75,-63.75 0.1874,-30.6875 -19,-7.75 z M 37.375,339.84375 c -1.422387,38.87728 -3,93.9375 -3,93.9375 l 84.875,5.90625 219.125,-2.96875 310.25,-0.28125 c -17.83135,-1.81023 -35.65167,-3.60529 -53.40625,-5.375 -266.25476,-0.24908 -465.59746,-2.49326 -467.43817,-3.065 -4.88625,-1.51737 -81.457658,-8.04248 -84.24933,-9.56 -2.791672,-1.51725 -4.552375,-57.29186 -5.25,-75.5 -0.08617,-2.27607 -0.378212,-3.23446 -0.90625,-3.09375 z m 304.21875,250.8125 c -96.998,0.0643 -210.42438,0.55024 -311.21875,1.53125 l 0,19.3125 3,3.21875 0,-16.09375 c 100.7941,-0.98075 211.22075,-1.46764 308.21875,-1.53125 3.59814,0 25.98817,10e-4 31.4375,0 50.25728,-2.1391 102.05652,-4.26712 153.65625,-6.375 -75.88078,-0.0227 -163.99959,-0.0769 -185.09375,-0.0625 z m 945.75005,0.53125 c 90.456,3.12994 112.0916,3.86863 191.1562,6.625 188.7811,0.2245 340.5715,0.5005 377.6875,0.8125 l 0,8.125 c 2.6699,-0.72306 5.396,-1.44414 7.9063,-2.1875 l 0,-12.375 c -49.4453,-0.41522 -296.4085,-0.74394 -576.75,-1 z M 1844.375,614.25 c -6.2585,1.64466 -11.5625,2.96875 -11.5625,2.96875 l 17.7813,17.15625 c 0,0 11.4968,27.83792 13.5,45 l 0,-6.4375 c -2.0032,-17.16193 -5.625,-45 -5.625,-45 z M 36.25,616.84375 c 0,0 -4.082975,22.35151 -5.875,28.8125 l 0,70.96875 0.3125,0 2.6875,-64.46875 6.34375,-31.5625 z M 108.4375,720.875 c -6.24854,4.45361 -18.53125,12.0625 -18.53125,12.0625 l -37.59375,3.75 c -0.517757,26.90706 -0.495289,78.73181 0.09375,101.375 0.872013,0.0616 1.550143,-2.63082 1.90625,-8.4375 1.974576,-32.18782 -0.02384,-82.61438 4.90625,-83.6875 4.935723,-1.07297 40.5,-9.65625 40.5,-9.65625 0,0 5.94684,-5.34348 13.84375,-8.5625 2.25192,-0.91786 129.13156,-2.28406 330.9375,-1.53125 41.79378,-1.99408 100.28446,-2.51213 138.96875,-4.46875 C 425.1329,721.43566 247.94689,721.15797 108.4375,720.875 z m 1274.5313,2.28125 c 139.9935,4.5877 268.3435,9.35907 339.4374,12.8125 77.1499,0.90565 126.7043,1.76897 127.1876,2.46875 2.8008,4.05951 7.3593,61.80244 11.1874,73.5 0.5289,-32.63879 -0.5479,-78.55403 -1.9687,-83.1875 l -287.9687,-5.25 z"
       transform="matrix(0.26458334,0,0,0.26458334,-177.79049,38.94368)"
       id="path11162"
       inkscape:connector-curvature="0"
       sodipodi:nodetypes="cccccccccccccccccccscccccccccccccccccccccccccccccccccccccccccccccccccccccccccccccccccccccccccccccccc" />
    <path
       inkscape:connector-curvature="0"
       style="color:#000000;fill:#422515;fill-opacity:1;fill-rule:nonzero;stroke:none;stroke-width:30;marker:none;visibility:visible;display:inline;overflow:visible;enable-background:accumulate"
       d="m 318.16273,82.236133 -17.42118,2.191081 17.16485,-0.289388 c 0,-0.0072 0.0204,-0.130607 0.0413,-0.272852 0,-0.01588 0.0167,-0.04913 0.0167,-0.06615 0.0148,-0.0263 0.0151,-0.09485 0.0164,-0.124023 0.0337,-0.225732 0.0741,-0.510019 0.12404,-0.917774 0.0148,-0.104809 0.0266,-0.238715 0.0413,-0.355533 0.006,-0.05025 0.0103,-0.109522 0.0167,-0.165365 z m -486.75068,0.876432 0.008,0.967383 1.45521,0.587044 42.89558,0.405144 -44.35905,-1.959571 z m 480.17742,29.806965 c -1.45291,1.53719 -4.05971,3.86953 -4.05971,3.86953 l -22.58881,0.85163 23.77118,0.28112 2.78638,-1.81901 0.091,-3.18327 z m -476.09605,5.01081 c 0.0113,0.33905 -3.10759,1.51257 -3.10759,1.51257 l 3.74825,-0.12131 33.65057,-0.8215 -33.7992,-0.44718 z m 473.60733,1.28131 -19.33115,0.69454 17.76016,0.42994 c 0,0 3.26284,3.43883 3.5239,4.29047 l 1.96782,-0.28112 z m 6.51536,31.45235 -25.7638,3.41478 24.51529,-1.66192 0.82275,-0.23123 0.40094,-0.47156 0.0249,-1.05006 z m -484.33445,1.69498 c -0.008,0.27062 -0.0496,1.62884 -0.0496,1.62884 l 0,0.0165 0.0992,0.0909 c 4.5979,0.40134 17.43159,1.11163 22.71919,1.28985 0.83039,0.028 14.89935,-0.30593 14.89935,-0.30593 l -14.85801,-0.47956 -22.81014,-2.24069 z m 4.92796,36.88571 0.0352,0.3832 -0.0259,0.27094 c 0.0309,0.10406 0.58984,0.61516 0.9975,1.28776 l 4.62194,0.0248 2.21589,2.91041 -1.93477,-4.01009 -5.90978,-1.16591 z m -6.01927,38.83474 0,0.47129 0,0.15709 0.96538,0.86817 89.142015,0.2487 z m 431.63263,2.26549 53.66123,1.7894 1.29294,-2.18714 -171.13315,-1.99327 z m -425.73129,31.49369 c -0.17005,0.19477 0.0485,1.74465 0.0485,1.74465 l 0.80389,0.033 42.06804,-0.0986 -42.39877,-1.62931 z"
       id="path11164"
       class="switchable"
       name="style lines"
       sodipodi:nodetypes="ccccccccccccccccccccccccccccccccccccccccccccccccccccccccccccccccccccccccccccc" />
  </g>
</svg>
