<?xml version="1.0" encoding="UTF-8" standalone="no"?>
<!-- Created with Inkscape (http://www.inkscape.org/) -->

<svg
   xmlns:dc="http://purl.org/dc/elements/1.1/"
   xmlns:cc="http://creativecommons.org/ns#"
   xmlns:rdf="http://www.w3.org/1999/02/22-rdf-syntax-ns#"
   xmlns:svg="http://www.w3.org/2000/svg"
   xmlns="http://www.w3.org/2000/svg"
   xmlns:sodipodi="http://sodipodi.sourceforge.net/DTD/sodipodi-0.dtd"
   xmlns:inkscape="http://www.inkscape.org/namespaces/inkscape"
   width="701.19214"
   height="233.28043"
   viewBox="0 0 185.52375 61.722114"
   version="1.1"
   id="svg23489"
   inkscape:version="0.48.5 r10040"
   sodipodi:docname="square_panel.svg"
   tags="wood panel, wood ui">
  <defs
     id="defs23483" />
  <sodipodi:namedview
     id="base"
     pagecolor="#7d848b"
     bordercolor="#666666"
     borderopacity="1.0"
     inkscape:pageopacity="0"
     inkscape:pageshadow="2"
     inkscape:zoom="1.2054152"
     inkscape:cx="241.20755"
     inkscape:cy="57.855392"
     inkscape:document-units="px"
     inkscape:current-layer="layer1"
     showgrid="false"
     inkscape:pagecheckerboard="false"
     showborder="true"
     units="px"
     inkscape:window-width="1920"
     inkscape:window-height="1017"
     inkscape:window-x="-8"
     inkscape:window-y="-8"
     inkscape:window-maximized="1"
     inkscape:showpageshadow="false"
     guidetolerance="28"
     fit-margin-left="16"
     fit-margin-top="16"
     fit-margin-bottom="16"
     fit-margin-right="6">
    <inkscape:grid
       type="xygrid"
       id="grid24034"
       spacingx="1px"
       spacingy="1px"
       empspacing="8"
       visible="true"
       enabled="true"
       snapvisiblegridlinesonly="true"
       originx="379.02594px"
       originy="-347.18627px" />
  </sodipodi:namedview>
  <metadata
     id="metadata23486">
    <rdf:RDF>
      <cc:Work
         rdf:about="">
        <dc:format>image/svg+xml</dc:format>
        <dc:type
           rdf:resource="http://purl.org/dc/dcmitype/StillImage" />
        <dc:title></dc:title>
        <cc:license
           rdf:resource="" />
        <dc:creator>
          <cc:Agent>
            <dc:title>Robert Brooks</dc:title>
          </cc:Agent>
        </dc:creator>
      </cc:Work>
    </rdf:RDF>
  </metadata>
  <g
     inkscape:label="Layer 1"
     inkscape:groupmode="layer"
     id="layer1"
     transform="translate(100.28395,-143.41819)">
    <path
       style="color:#000000;fill:#2e1a0e;fill-opacity:1;fill-rule:nonzero;stroke:#2e1a0e;stroke-width:3.17500019;stroke-linejoin:round;stroke-miterlimit:4;stroke-opacity:1;stroke-dasharray:none;marker:none;visibility:visible;display:inline;overflow:visible;enable-background:accumulate"
       d="m -6.4974179,149.23901 c -23.1664021,0 -44.4375391,4.00555 -60.2405801,9.22405 -2.213653,1.11302 -8.848561,3.61911 -8.848561,3.61911 0,0 -2.789677,1.44264 -5.3964,2.09847 -8.415904,4.14948 -13.312092,8.42846 -13.312092,11.77345 l -0.168082,1.97186 0.0083,0 0.277349,0.21452 1.722853,1.32007 -0.62193,0.43728 -1.378272,0.97356 -0.0083,0 0.05884,2.16162 0.268931,12.15297 0.04201,0.033 0,0.0908 0.0083,0 0.09246,0 3.311215,2.88767 64.240931,0.54453 106.076534,0.57753 1.932943,-2.48339 0.243732,-3.79523 -1.479121,-1.06431 c -0.003,-3.4e-4 -0.01372,3.4e-4 -0.01694,0 l -1.277423,-0.9158 c 0,0 0.369942,-0.15382 0.672328,-0.28052 0.31317,-0.13118 0.574007,-0.24355 1.008492,-0.43728 0.141995,-0.0633 0.271513,-0.11681 0.411814,-0.18151 0.04959,-0.0229 0.0941,-0.0432 0.142883,-0.066 0.183653,-0.0862 0.363353,-0.17589 0.537862,-0.26402 l 0,-3.93548 0,-0.008 0,-0.033 0.252096,-10.94014 c 0,-0.16104 -0.8488,-2.4999 -0.8488,-2.4999 -1.977155,-3.10062 -7.348732,-6.60277 -15.135768,-9.92534 -0.09114,0.76981 -0.438654,1.59954 -1.395108,2.18638 -1.736703,1.0656 -6.594514,-2.03872 -4.469851,-4.59932 C 43.619216,154.3296 18.296847,149.2393 -6.4976113,149.2393 z"
       id="path8353"
       inkscape:connector-curvature="0"
       sodipodi:nodetypes="cccccccccccccccccccccccccccccccccccccscsc" />
    <path
       style="color:#000000;fill:#7f4a2c;fill-opacity:1;fill-rule:nonzero;stroke:none;stroke-width:50;marker:none;visibility:visible;display:inline;overflow:visible;enable-background:accumulate"
       d="m -6.4974179,149.23901 c -23.1664021,0 -44.4375391,4.0051 -60.2405801,9.22405 -2.213653,1.11302 -8.444196,3.42063 -8.444196,3.42063 0,0 -3.194042,1.64112 -5.800765,2.29695 -8.415904,4.14977 -13.312092,8.42846 -13.312092,11.77345 l -0.168082,1.97186 0.285739,0.21452 c 1.998428,0.0877 4.147107,0.18099 6.3283,0.27226 2.548204,0.0778 3.716494,0.0992 4.370132,0.27227 -2.374017,0.14339 -5.610227,0.72667 -7.777866,0.81585 l -3.206305,0.32847 0.378171,15.48041 2.201901,0.0165 77.771503,2.06262 95.67226,-1.90586 0.25215,-2.44215 -1.479122,-1.06431 c -1.336561,-0.15145 -5.999343,-0.67189 -7.807421,-0.7838 -0.462911,0.0114 -0.772558,0.009 -0.680745,-0.0165 0.06304,-0.0177 0.333394,-0.005 0.680745,0.0165 1.487566,-0.0367 5.164877,-0.23262 7.185491,-0.41252 0.588771,-0.24707 1.403014,-0.59629 2.101052,-0.94881 l 0,-3.94373 0.252096,-10.97314 c 0,-3.62565 -6.011687,-8.17114 -15.984569,-12.42524 -1.306333,5.12069 -8.218429,0.62949 -5.864958,-2.42119 -16.597759,-5.74625 -41.921554,-10.82909 -66.7128389,-10.82909 z"
       id="path8355"
       inkscape:connector-curvature="0"
       sodipodi:nodetypes="scccccccccccccccccccccccccs" />
    <g
       id="g10994"
       class="switchable"
       name="grain">
      <path
         sodipodi:nodetypes="ccssccssscccccsccsccccccsccccssccsscccsscccccsccccscscccscscsssccccsccscc"
         inkscape:connector-curvature="0"
         style="color:#000000;fill:#884f30;fill-opacity:1;fill-rule:nonzero;stroke:none;stroke-width:50;marker:none;visibility:visible;display:inline;overflow:visible;enable-background:accumulate"
         d="m 23.194252,152.65186 c -0.579941,0.003 -1.170098,0.0126 -1.773273,0.0248 -16.8879816,0.34071 -42.590172,4.07785 -66.232704,7.74721 -13.509924,2.09678 -26.343594,4.16929 -36.448519,5.58558 -0.827604,0.11599 -1.605445,0.22311 -2.395232,0.33002 -0.633164,0.34632 -1.242024,0.6937 -1.823695,1.03956 1.387112,-0.18052 2.82061,-0.37332 4.336497,-0.58579 10.119673,-1.41835 22.950376,-3.49757 36.457005,-5.59383 27.013175,-4.1925 56.753034,-8.44558 72.729045,-7.65645 1.665754,0.0823 3.092001,0.14658 4.664325,0.22276 -2.080173,-0.38586 -4.196763,-0.74375 -6.345073,-1.08081 -1.01364,-0.0281 -2.067239,-0.0389 -3.168376,-0.033 z m 41.970108,12.29323 c -0.999881,0.94206 -2.474409,0.7566 -3.638986,0.0248 -29.157612,0.2787 -45.951341,3.12515 -64.0560526,6.19611 -20.7420874,3.51829 -81.5840374,7.92569 -80.9482364,8.29174 -0.975411,0.0589 7.348909,-0.10211 6.216381,0.0405 42.33979,-0.74881 54.74075,-4.143 74.8663153,-7.55674 20.0565227,-3.40202 38.4283417,-6.52459 73.8048067,-6.18786 -0.519796,-0.26859 -1.060684,-0.53243 -1.613601,-0.80029 -0.07168,-4.7e-4 -0.146901,4.4e-4 -0.218497,0 -1.070324,-0.006 -2.128949,-0.008 -3.168376,-0.008 -0.420929,-1.3e-4 -0.827769,-8.1e-4 -1.243754,0 z m 12.807799,4.91728 c -35.71418,1.22542 -59.964583,2.90779 -74.7796411,4.76878 -7.9014139,0.99253 -13.1077802,2.03109 -15.9930659,3.10219 -1.44256,0.53554 -2.345468,1.04242 -2.697684,1.7656 -0.175984,0.36159 -0.149784,0.79124 0.05026,1.13857 0.199877,0.34733 0.537428,0.63441 0.98332,0.90755 1.783324,1.09257 5.5113731,2.03637 11.0345276,2.92892 5.5231545,0.89256 12.8061518,1.69481 21.5649944,2.37614 16.623594,1.29312 38.548137,2.12902 63.677802,2.21113 l 0,-0.79204 c -25.112858,-0.0823 -47.015238,-0.92022 -63.610572,-2.21113 -8.7439301,-0.68017 -16.0182765,-1.48105 -21.5060858,-2.36789 -5.4878918,-0.88685 -9.2149522,-1.89216 -10.7320752,-2.82167 -0.379322,-0.23238 -0.610177,-0.45227 -0.705914,-0.61879 -0.09557,-0.16651 -0.101999,-0.25468 -0.02554,-0.41252 0.153657,-0.31567 0.880581,-0.86036 2.252286,-1.36958 2.74341,-1.01844 7.9328865,-2.06344 15.8081005,-3.05268 14.8906925,-1.87049 39.4292935,-3.56606 75.6285015,-4.79353 -0.288281,-0.25322 -0.59922,-0.50316 -0.924494,-0.75905 -0.0082,2.8e-4 -0.0173,-2.8e-4 -0.02554,0 z m 2.966686,2.91242 c -37.439831,1.53238 -59.145465,3.10367 -69.863286,4.62028 -2.7822159,0.39368 -4.8277036,0.78097 -6.235825,1.17157 -0.7041018,0.19529 -1.2453194,0.39468 -1.6556198,0.60228 -0.4104652,0.2076 -0.717449,0.41442 -0.8572643,0.75905 -0.070031,0.17231 -0.069207,0.37925 -0.00824,0.55278 0.06344,0.17353 0.1772201,0.31766 0.3109385,0.43727 0.2674368,0.23923 0.6300336,0.41799 1.1093765,0.60229 0.9587683,0.36859 2.3700205,0.70857 4.1852291,1.03956 13.707989,2.49959 50.314037,4.3153 73.888845,4.67803 l 0,-0.57754 0.0082,-0.21451 C 58.268346,186.08124 21.59581,184.24971 8.0752577,181.78432 6.284766,181.45783 4.895759,181.11775 4.0328923,180.78602 3.6014177,180.62015 3.3017666,180.4525 3.1673067,180.33224 c -0.064264,-0.0575 -0.087415,-0.0964 -0.092441,-0.10726 0.00989,-0.0233 0.1473127,-0.18698 0.4790134,-0.35477 0.3317007,-0.16778 0.8314763,-0.34963 1.5043525,-0.53628 1.3457524,-0.3733 3.3721257,-0.76411 6.1349794,-1.15507 10.686843,-1.51222 32.530233,-3.09041 70.241455,-4.62852 -0.142863,-0.25608 -0.305748,-0.51393 -0.495821,-0.77555 z m -175.343121,9.85108 0.01648,0.80855 c 47.416393,0.26348 70.588151,2.76038 91.8988085,4.96679 21.5921835,2.23556 41.3053885,4.1542 82.3517435,3.08569 0.545008,-0.22992 1.227112,-0.52424 1.848906,-0.8333 -42.29909,1.17635 -62.225437,-0.76706 -84.1418233,-3.03618 -21.3117287,-2.20646 -44.5161947,-4.72632 -91.9744417,-4.99155 z"
         id="path8357" />
      <path
         sodipodi:nodetypes="ccssccsssccccccsccccsccccccsscccssccsscccsscccccsscccccccccsccccssccccsccscc"
         inkscape:connector-curvature="0"
         id="path8359"
         d="m 23.19425,151.87917 c -0.579977,0.003 -1.170093,0.0126 -1.773279,0.0247 -16.888016,0.3407 -42.59017,4.07785 -66.232689,7.7472 -13.509918,2.09678 -26.343609,4.1693 -36.448562,5.58558 -0.827582,0.11599 -1.605385,0.22312 -2.395182,0.33002 -0.633198,0.34632 -1.242059,0.69371 -1.823703,1.03956 1.387093,-0.18051 2.820604,-0.37331 4.336515,-0.58578 10.119638,-1.41835 22.950316,-3.49758 36.457007,-5.59383 27.013113,-4.1925 56.752973,-8.44558 72.729044,-7.65645 1.665679,0.0823 3.091955,0.14658 4.664288,0.22276 -2.080155,-0.38586 -4.196724,-0.74376 -6.345108,-1.08081 -1.013574,-0.028 -2.06722,-0.0389 -3.168331,-0.033 z m 41.970069,12.29322 c -0.999859,0.94207 -2.474409,0.75661 -3.638989,0.0247 -29.157597,0.27871 -45.951326,3.12515 -64.0560133,6.19612 -20.7420687,3.51829 -43.2377837,7.31539 -88.1421877,7.89571 0.949892,0.0409 1.850435,0.083 2.823777,0.12376 1.690394,0.0778 3.734378,-0.0938 4.370132,0.27226 -0.975414,0.0589 -2.103015,0.19562 -3.235592,0.33827 42.339796,-0.7488 64.192765,-4.44072 84.3183363,-7.85446 20.0565097,-3.40202 38.4282997,-6.52459 73.8047687,-6.18786 -0.519737,-0.26859 -1.060665,-0.53244 -1.613587,-0.8003 -0.07175,-5.3e-4 -0.146864,5.3e-4 -0.21848,0 -1.070319,-0.007 -2.128994,-0.008 -3.168359,-0.008 -0.420958,-1.2e-4 -0.827797,-7.9e-4 -1.243806,0 z m 12.807846,4.91729 c -35.714192,1.22542 -59.964576,2.90779 -74.7796705,4.76878 -7.9014395,0.99253 -13.1077316,2.03109 -15.9930135,3.10219 -1.4426,0.53554 -2.34551,1.04242 -2.697702,1.7656 -0.176042,0.36159 -0.149822,0.79124 0.05042,1.13857 0.199843,0.34733 0.537433,0.63441 0.983293,0.90755 1.78331,1.09257 5.5113681,2.03637 11.0345687,2.92892 5.523093,0.89256 12.8061253,1.69482 21.5649173,2.37614 16.623657,1.29312 38.548162,2.12902 63.67787,2.21113 l 0,-0.79204 C 56.699979,187.4142 34.797607,186.5763 18.202215,185.28539 9.4583485,184.60522 2.1839489,183.80434 -3.3038604,182.9175 c -5.487863,-0.88685 -9.2149266,-1.89216 -10.7320476,-2.82167 -0.379327,-0.23238 -0.610205,-0.45227 -0.705944,-0.61879 -0.09555,-0.16651 -0.101979,-0.25468 -0.02528,-0.41252 0.153668,-0.31567 0.880588,-0.86036 2.252299,-1.36958 2.7434472,-1.01844 7.9328773,-2.06344 15.808096,-3.05268 14.890691,-1.87049 39.429288,-3.56606 75.628498,-4.79353 -0.28824,-0.25322 -0.599205,-0.50316 -0.924478,-0.75905 -0.0083,2.9e-4 -0.01694,-2.9e-4 -0.02528,0 z m 2.966661,2.91242 c -37.439844,1.53238 -59.145439,3.10367 -69.863287,4.62028 -2.7821734,0.39368 -4.8276638,0.78097 -6.2358411,1.17157 -0.7040887,0.19529 -1.2452858,0.39468 -1.655594,0.60228 -0.4104697,0.2076 -0.7174546,0.41442 -0.857245,0.75905 -0.07011,0.17231 -0.069384,0.37925 -0.00834,0.55278 0.063011,0.17353 0.1771988,0.31766 0.3109382,0.43727 0.2673714,0.23923 0.6299982,0.41799 1.1093411,0.60229 0.9587396,0.36859 2.3699827,0.70857 4.185268,1.03956 13.7079588,2.49959 50.3140078,4.3153 73.8888368,4.67803 l 0,-0.57754 0.0083,-0.21451 c -23.552883,-0.36461 -60.225465,-2.19614 -73.7459797,-4.66152 -1.7905436,-0.3265 -3.1795193,-0.66658 -4.042358,-0.99831 -0.4314732,-0.16587 -0.7311163,-0.33352 -0.8656356,-0.45378 -0.064033,-0.0575 -0.087349,-0.0964 -0.092432,-0.10726 0.010219,-0.0233 0.1473474,-0.18698 0.4790471,-0.35477 0.3316459,-0.16778 0.8314545,-0.34963 1.5043202,-0.53628 1.3457585,-0.3733 3.3721279,-0.76411 6.134993,-1.15507 10.686867,-1.51222 32.530262,-3.09041 70.241457,-4.62852 -0.142829,-0.25608 -0.305775,-0.51393 -0.495828,-0.77555 z m -175.343117,9.85108 0.01667,0.80855 c 47.416382,0.26348 70.58819,2.76038 91.8988332,4.96679 21.5922138,2.23556 41.3053518,4.1542 82.3517768,3.08569 0.544989,-0.22992 1.227079,-0.52424 1.848902,-0.8333 -42.299106,1.17635 -62.225426,-0.76706 -84.1418367,-3.03618 -21.3117723,-2.20646 -44.5162013,-4.72632 -91.9744563,-4.99155 z"
         style="color:#000000;fill:#6b3e25;fill-opacity:1;fill-rule:nonzero;stroke:none;stroke-width:50;marker:none;visibility:visible;display:inline;overflow:visible;enable-background:accumulate" />
    </g>
    <path
       sodipodi:nodetypes="cccccc"
       inkscape:connector-curvature="0"
       id="path8361"
       d="m -94.090804,195.7086 3.277468,2.41179 170.449211,1.20289 1.930295,-2.48102 -92.731872,-1.88443 z"
       style="color:#000000;fill:#693d24;fill-opacity:1;fill-rule:nonzero;stroke:none;stroke-width:15;marker:none;visibility:visible;display:inline;overflow:visible;enable-background:accumulate" />
    <path
       style="color:#000000;fill:#bf7348;fill-opacity:1;fill-rule:nonzero;stroke:none;stroke-width:50;marker:none;visibility:visible;display:inline;overflow:visible;enable-background:accumulate"
       d="m 80.44297,190.6647 c -0.256775,0.11187 -0.517477,0.22385 -0.73117,0.31352 -2.02056,0.1799 -5.697871,0.37586 -7.185491,0.41253 1.808132,0.1119 6.470807,0.63234 7.807421,0.78379 l 1.327821,0.95706 0.151301,-1.47684 -1.369882,-0.99006 z"
       id="path8365"
       inkscape:connector-curvature="0" />
    <path
       style="color:#000000;fill:#a5613c;fill-opacity:1;fill-rule:nonzero;stroke:none;stroke-width:50;marker:none;visibility:visible;display:inline;overflow:visible;enable-background:accumulate"
       d="m -6.4974179,149.23901 c -23.1664021,0 -44.4376471,4.0051 -60.2405801,9.22405 -2.213653,1.11302 -8.446132,3.42395 -8.446132,3.42395 0,0 -3.192106,1.6378 -5.798829,2.29363 -0.934078,0.46058 -1.810229,0.92378 -2.655695,1.38609 0.784203,-0.10618 1.556466,-0.21483 2.378374,-0.33002 0.954248,-0.13376 2.20069,-0.3336 3.201948,-0.47853 1.579836,-0.64231 2.874202,-1.28708 2.874202,-1.28708 0,0 6.232479,-2.31093 8.446132,-3.42395 15.802987,-5.21895 37.074178,-10.41211 60.2405801,-10.41211 9.2706487,0 18.6141239,0.88322 27.5486089,2.28538 0.116958,-0.003 0.253736,-0.0142 0.36978,-0.0165 0.603186,-0.0122 1.193302,-0.0216 1.773279,-0.0247 1.001822,-0.005 1.953811,0.0103 2.882619,0.033 -10.432189,-1.62612 -21.5357923,-2.67316 -32.5742869,-2.67316 z m 32.2297049,3.50646 c 12.907136,2.31856 24.781442,5.59149 34.002984,8.74552 -0.01076,-0.48084 0.129275,-0.96561 0.47902,-1.41909 -7.679302,-2.65865 -17.269092,-5.15764 -27.767142,-7.09542 -1.470085,-0.0708 -2.831173,-0.12858 -4.403748,-0.20626 -0.698629,-0.0345 -1.561145,-0.009 -2.311114,-0.0247 z m 34.14584,9.50456 c -0.277967,0.70426 -0.154985,1.38898 0.193308,1.98012 0.503062,-0.006 0.943383,-0.0281 1.453895,-0.033 0.07522,0.0473 0.157809,0.073 0.235315,0.1155 -0.857594,-0.4708 -1.585618,-1.21887 -1.882518,-2.06262 z m 6.202252,0.23926 c -0.22281,0.87329 -0.626072,1.42971 -1.10095,1.79861 0.05935,-0.0461 0.128414,-0.0623 0.18489,-0.11551 0.286707,-5.2e-4 0.571586,-2e-4 0.857218,0 0.01721,-0.036 0.04241,-0.0618 0.05884,-0.099 0.07662,0.0327 0.142345,0.0663 0.21848,0.099 0.03679,2e-5 0.07229,-1e-5 0.109266,0 1.039365,2.7e-4 2.09804,0.002 3.168359,0.008 0.06879,5.3e-4 0.140866,-2.6e-4 0.210089,0 -1.168452,-0.566 -2.396526,-1.13266 -3.706194,-1.69135 z m 3.638961,2.49165 c -0.527374,0.004 -1.050902,0.0101 -1.605196,0.008 3.037335,1.38678 5.647339,2.79389 7.756997,4.183 0.750102,-0.0265 1.340541,-0.0564 2.101024,-0.0825 0.0054,-1.8e-4 0.01129,-6e-5 0.01667,0 -1.714974,-1.35017 -3.972033,-2.73098 -6.639238,-4.10874 -0.571748,-0.005 -1.103021,-0.004 -1.630395,0 z m -6.63082,0.0165 c -0.794907,-4.5e-4 -1.581773,-3.4e-4 -2.336367,0.008 1.273201,1.09638 3.421665,1.44405 4.723131,-0.008 -0.789017,0.001 -1.591911,4.5e-4 -2.386764,0 z m -144.676574,1.08082 c -1.327982,0.18467 -2.611241,0.35964 -3.840659,0.51978 -5.642768,3.35345 -8.866338,6.65947 -8.866338,9.35605 l -0.168082,1.97186 0.126075,0.099 0.04201,-0.48678 c 0,-3.26053 4.677654,-7.40924 12.706997,-11.45992 z m 160.459444,3.77047 c -0.687522,0.0233 -1.220194,0.0588 -1.899299,0.0825 1.008196,0.72261 1.878511,1.43492 2.596853,2.13688 0.502982,-0.0208 0.861091,-0.0452 1.369882,-0.066 -0.507689,-0.69938 -1.237084,-1.42316 -2.067436,-2.15337 z m 2.512839,2.92892 c -0.408775,0.0167 -0.695886,0.0328 -1.10095,0.0495 0.997977,1.13558 1.630637,2.23276 1.75647,3.25895 l 0.02528,-1.17157 c 0,-0.67928 -0.272159,-1.401 -0.680719,-2.13688 z"
       id="path8367"
       inkscape:connector-curvature="0" />
    <path
       style="color:#000000;fill:#884f30;fill-opacity:1;fill-rule:nonzero;stroke:none;stroke-width:50;marker:none;visibility:visible;display:inline;overflow:visible;enable-background:accumulate"
       d="m 23.19425,151.87917 c -0.579977,0.003 -1.170093,0.0126 -1.773279,0.0247 -0.11607,0.002 -0.252822,0.0138 -0.36978,0.0165 1.587232,0.24909 3.122452,0.54506 4.681096,0.82505 0.749969,0.0156 1.612458,-0.01 2.311114,0.0247 1.572575,0.0777 2.933636,0.1355 4.403748,0.20626 -0.498383,-0.092 -0.976489,-0.19118 -1.479122,-0.28052 -0.76761,-0.13565 -1.542696,-0.26697 -2.319531,-0.39602 -0.84482,-0.14134 -1.716803,-0.25452 -2.571627,-0.38777 -0.928808,-0.0227 -1.880797,-0.0384 -2.882619,-0.033 z m 43.104609,12.29322 c 0.632364,0.27169 1.215918,0.54311 1.815285,0.8168 1.108588,0.004 2.092096,-0.019 3.235591,-0.008 -0.515164,-0.26611 -1.007012,-0.5349 -1.554771,-0.8003 -0.0027,-0.001 -0.0062,0.001 -0.0083,0 -0.06922,-2.6e-4 -0.141297,5.3e-4 -0.210089,0 -1.070319,-0.007 -2.128994,-0.008 -3.168359,-0.008 -0.03698,-1e-5 -0.07248,2e-5 -0.109267,0 z m 11.673306,4.91729 c -0.760483,0.0261 -1.350922,0.056 -2.101024,0.0825 0.382823,0.25208 0.751339,0.50849 1.10095,0.75904 0.679105,-0.0237 1.211777,-0.0592 1.899299,-0.0825 -0.28824,-0.25355 -0.556956,-0.50282 -0.882417,-0.75905 -0.0056,-6e-5 -0.0113,-1.8e-4 -0.01667,0 z m 2.966661,2.91242 c -0.508791,0.0208 -0.8669,0.0452 -1.369882,0.066 0.261939,0.25596 0.492816,0.5069 0.714335,0.75904 0.405064,-0.0167 0.692175,-0.0328 1.10095,-0.0495 -0.120938,-0.21785 -0.206162,-0.42989 -0.361389,-0.65179 -0.02714,-0.039 -0.04722,-0.0763 -0.07562,-0.1155 -0.0027,-0.003 -0.0065,-0.005 -0.0083,-0.008 z"
       id="path8369"
       inkscape:connector-curvature="0" />
    <path
       style="color:#000000;fill:#bf7348;fill-opacity:1;fill-rule:nonzero;stroke:none;stroke-width:50;marker:none;visibility:visible;display:inline;overflow:visible;enable-background:accumulate"
       d="m 64.12221,164.70868 c 0.07135,-0.0177 0.148935,-0.009 0.218507,-0.033 0.0671,-0.0234 0.119701,-0.0857 0.18489,-0.1155 -0.13148,0.0598 -0.264601,0.11423 -0.403397,0.14851 z"
       id="path8371"
       inkscape:connector-curvature="0" />
    <path
       style="color:#000000;fill:#bf7348;fill-opacity:1;fill-rule:nonzero;stroke:none;stroke-width:50;marker:none;visibility:visible;display:inline;overflow:visible;enable-background:accumulate"
       d="m 63.138917,164.76643 c 0.08942,0.0107 0.180077,0.0467 0.268932,0.0495 0.07769,0.002 0.150036,-0.0291 0.226924,-0.033 -0.164882,0.008 -0.328285,0.004 -0.495856,-0.0165 z"
       id="path8373"
       inkscape:connector-curvature="0" />
    <path
       style="color:#000000;fill:#bf7348;fill-opacity:1;fill-rule:nonzero;stroke:none;stroke-width:50;marker:none;visibility:visible;display:inline;overflow:visible;enable-background:accumulate"
       d="m 62.164042,164.50241 c 0.09448,0.0396 0.181233,0.10006 0.277349,0.13201 0.08299,0.0276 0.168378,0.028 0.252123,0.0495 -0.178517,-0.0465 -0.355635,-0.10856 -0.529472,-0.18151 z"
       id="path8375"
       inkscape:connector-curvature="0" />
    <path
       style="color:#000000;fill:#955735;fill-opacity:1;fill-rule:nonzero;stroke:none;stroke-width:50;marker:none;visibility:visible;display:inline;overflow:visible;enable-background:accumulate"
       d="m 65.164319,164.17239 c -0.05648,0.0532 -0.125537,0.0694 -0.18489,0.11551 -0.144228,0.11204 -0.295206,0.20016 -0.453822,0.27227 -0.06519,0.0298 -0.117792,0.0921 -0.18489,0.1155 -0.06957,0.0243 -0.147159,0.0153 -0.218507,0.033 -0.161278,0.0398 -0.319759,0.0663 -0.487437,0.0743 -0.07689,0.004 -0.14923,0.0354 -0.226924,0.033 -0.08883,-0.003 -0.179512,-0.0388 -0.268932,-0.0495 -0.150224,-0.0183 -0.295689,-0.0435 -0.445403,-0.0825 -0.08375,-0.0215 -0.169131,-0.0219 -0.252123,-0.0495 -0.09612,-0.0319 -0.182873,-0.0924 -0.277349,-0.13201 -0.137962,-0.0579 -0.270787,-0.11697 -0.403397,-0.18976 -0.07753,-0.0425 -0.160094,-0.0682 -0.235315,-0.1155 -0.510538,0.005 -0.950833,0.0266 -1.453895,0.033 0.171121,0.29043 0.410496,0.5428 0.680718,0.77554 1.509161,-0.0172 3.145097,-0.005 4.723131,-0.008 0.206458,-0.23042 0.391322,-0.49995 0.546253,-0.82505 -0.285632,-2e-4 -0.570511,-5.2e-4 -0.857218,0 z m -143.222651,0.58579 c -1.001258,0.14493 -2.247673,0.34477 -3.201948,0.47853 -0.821908,0.11519 -1.594171,0.22384 -2.378374,0.33002 -0.05072,0.0277 -0.109293,0.0548 -0.159691,0.0825 -0.205598,0.11321 -0.396378,0.22497 -0.596678,0.33827 -0.36069,0.20391 -0.691045,0.40688 -1.03369,0.61054 1.229445,-0.16014 2.512677,-0.33511 3.840659,-0.51978 0.207965,-0.10493 0.392613,-0.20875 0.605095,-0.31352 0.97146,-0.24442 1.986084,-0.62498 2.924627,-1.00656 z"
       id="path8377"
       inkscape:connector-curvature="0" />
  </g>
</svg>
