<?xml version="1.0" encoding="UTF-8" standalone="no"?>
<!-- Created with Inkscape (http://www.inkscape.org/) -->

<svg
   xmlns:dc="http://purl.org/dc/elements/1.1/"
   xmlns:cc="http://creativecommons.org/ns#"
   xmlns:rdf="http://www.w3.org/1999/02/22-rdf-syntax-ns#"
   xmlns:svg="http://www.w3.org/2000/svg"
   xmlns="http://www.w3.org/2000/svg"
   xmlns:sodipodi="http://sodipodi.sourceforge.net/DTD/sodipodi-0.dtd"
   xmlns:inkscape="http://www.inkscape.org/namespaces/inkscape"
   width="1252.3445"
   height="230.412"
   viewBox="0 0 331.34947 60.963177"
   version="1.1"
   id="svg23489"
   inkscape:version="0.48.5 r10040"
   sodipodi:docname="short_bar.svg"
   tags="wood panel, wood ui">
  <defs
     id="defs23483" />
  <sodipodi:namedview
     id="base"
     pagecolor="#7d848b"
     bordercolor="#666666"
     borderopacity="1.0"
     inkscape:pageopacity="0"
     inkscape:pageshadow="2"
     inkscape:zoom="0.66507173"
     inkscape:cx="681.85207"
     inkscape:cy="50.965895"
     inkscape:document-units="px"
     inkscape:current-layer="layer1"
     showgrid="false"
     inkscape:pagecheckerboard="false"
     showborder="true"
     units="px"
     inkscape:window-width="1920"
     inkscape:window-height="1017"
     inkscape:window-x="-8"
     inkscape:window-y="-8"
     inkscape:window-maximized="1"
     inkscape:showpageshadow="false"
     guidetolerance="28"
     fit-margin-left="16"
     fit-margin-top="16"
     fit-margin-bottom="16"
     fit-margin-right="6">
    <inkscape:grid
       type="xygrid"
       id="grid24034"
       spacingx="1px"
       spacingy="1px"
       empspacing="8"
       visible="true"
       enabled="true"
       snapvisiblegridlinesonly="true"
       originx="761.1609px"
       originy="-343.27538px" />
  </sodipodi:namedview>
  <metadata
     id="metadata23486">
    <rdf:RDF>
      <cc:Work
         rdf:about="">
        <dc:format>image/svg+xml</dc:format>
        <dc:type
           rdf:resource="http://purl.org/dc/dcmitype/StillImage" />
        <dc:title></dc:title>
        <cc:license
           rdf:resource="" />
        <dc:creator>
          <cc:Agent>
            <dc:title>Robert Brooks</dc:title>
          </cc:Agent>
        </dc:creator>
      </cc:Work>
    </rdf:RDF>
  </metadata>
  <g
     inkscape:label="Layer 1"
     inkscape:groupmode="layer"
     id="layer1"
     transform="translate(201.3905,-145.21188)">
    <path
       inkscape:connector-curvature="0"
       id="path11706"
       d="m -42.633228,151.03434 c -40.857886,0.0301 -75.677292,0.47559 -113.440112,0.56224 -5.76738,0.24812 -11.36316,0.53567 -12.50156,0.67797 -1.26201,0.15774 -8.8774,-0.22067 -16.08169,-0.67797 l -9.73172,0 -0.42167,4.0514 c 0,0 -0.90022,16.16446 -0.73588,18.84331 -0.003,0.10356 -0.007,0.24032 -0.008,0.33899 -0.0199,1.1449 1.47764,2.95029 1.52963,3.20807 l 1.47175,0.0167 c -0.11626,0.3434 -0.21532,0.73853 -0.24805,1.1658 0,0 -0.097,6.55974 -0.0827,12.08816 -0.005,2.04398 -0.003,4.06283 0.0249,5.7464 l 0,0.0167 c 0.5515,0.66699 2.11569,2.35876 2.49698,3.175 102.697676,0.17185 205.545612,0.30427 313.38237,-0.99219 l 0.79375,-2.19937 -0.0238,-0.0579 0.0238,0 0,-4.7377 -1.57903,-1.09141 c 0.095,-1.00997 0.18997,-2.08214 0.18997,-2.46391 0,-0.61185 0.70088,-1.22266 1.38906,-1.65364 l 0,-2.25724 0,-7.30912 c -0.0381,-0.8532 -2.59027,-0.44574 -3.19167,-0.45474 -0.17621,-0.0103 -0.36009,-0.0146 -0.53736,-0.0249 l 2.33997,-0.4382 c 0,0 1.40494,-0.81672 1.60391,-1.61232 0.12567,-0.5031 0.82946,-0.64114 2.10026,-0.87643 0.0185,-0.51509 0.59081,-2.73902 0.60351,-3.29901 0.0384,-1.71384 0.0558,-3.56272 0.0497,-5.39089 0,-0.092 0,-0.18102 0,-0.27286 0.0132,-6.11211 -0.1987,-12.68471 -0.5789,-13.51854 l -39.844668,0 c -8.293365,0.45947 -16.651817,0.95911 -17.511978,0.95911 -1.278995,0 -19.158215,-0.64614 -29.476171,-0.95911 -30.7988238,-0.44961 -57.489568,-0.58031 -82.004299,-0.56224 z"
       style="color:#000000;fill:#804526;fill-opacity:1;fill-rule:nonzero;stroke:#422515;stroke-width:3.17500019;stroke-linejoin:round;stroke-miterlimit:4;stroke-opacity:1;stroke-dasharray:none;marker:none;visibility:visible;display:inline;overflow:visible;enable-background:accumulate" />
    <path
       sodipodi:nodetypes="cccccccccscccccsc"
       inkscape:connector-curvature="0"
       id="path11708"
       d="m -72.365781,178.50137 c -39.458719,-0.007 -79.310709,0.0457 -119.641279,0.63667 0,0 -0.69474,1.03872 -0.79375,2.33164 0,0 -0.15298,9.8638 -0.0579,15.5856 l 0,0.0167 c 0.55149,0.66698 2.11783,2.36116 2.49912,3.17738 102.69765,0.17184 205.54175,0.30189 313.37851,-0.99457 l 0.7956,-2.20157 -1.78593,-3.76812 c 0,0 0.39687,-3.785 0.39687,-4.58057 0,-0.61183 0.70088,-1.22267 1.38906,-1.65365 l 0,-6.21771 c -0.0381,-0.8532 -1.20147,-1.1403 -1.8026,-1.14929 -51.152958,-0.78471 -233.47856,-1.16242 -181.206465,-1.16581 l 26.160678,-0.008 c -13.068036,0.003 -26.17904,-0.006 -39.331954,-0.008 z"
       style="color:#000000;fill:#532f1a;fill-opacity:1;fill-rule:nonzero;stroke:none;stroke-width:10;marker:none;visibility:visible;display:inline;overflow:visible;enable-background:accumulate" />
    <path
       style="color:#000000;fill:#532f1a;fill-opacity:1;fill-rule:nonzero;stroke:none;stroke-width:10;marker:none;visibility:visible;display:inline;overflow:visible;enable-background:accumulate"
       d="m -194.3883,153.84805 -0.4217,4.05141 c 0,0 -0.6569,11.8291 -0.7444,16.9313 -0.02,1.1449 1.4809,2.9457 1.5329,3.2035 l 101.225,0.9244 209.5158,-1.3316 5.7063,-1.0579 c 0,0 1.4011,-0.8203 1.6001,-1.6159 0.1256,-0.5031 0.8329,-0.6369 2.1037,-0.8722 0.018,-0.5151 0.5951,-2.7436 0.6077,-3.3036 0.1533,-6.8553 -0.064,-15.9016 -0.533,-16.92941 l -39.8447,0 c -8.2933,0.4595 -16.6518,0.95911 -17.5119,0.95911 -1.2793,0 -19.1585,-0.64613 -29.4765,-0.95911 -82.1297,-1.1989 -135.0237,-0.13861 -195.4442,0 -5.7674,0.24815 -11.3632,0.5357 -12.5016,0.67801 -1.262,0.1577 -8.8774,-0.22068 -16.0817,-0.67801 z"
       id="path11710"
       inkscape:connector-curvature="0"
       sodipodi:nodetypes="ccsccccccsccsccscc" />
    <path
       sodipodi:nodetypes="cccccccccscccc"
       inkscape:connector-curvature="0"
       id="path11712"
       d="m -33.0338,176.26176 c -52.2722,0.01 -105.1992,-0.1599 -158.9733,0.628 0,0 -0.6947,1.0387 -0.7937,2.3316 0,0 -0.1531,9.8642 -0.058,15.586 l 0,0.01 c 0.5515,0.667 1.2227,1.3667 1.604,2.1829 l 315.0693,0 0,-4.7378 -1.786,-1.2319 c 0,0 0.3969,-3.785 0.3969,-4.5806 0,-0.6118 0.7011,-1.2227 1.3891,-1.6537 l 0,-7.3117 c -0.038,-0.8532 -2.5939,-0.4441 -3.195,-0.4531 -50.5574,-2.9439 -126.7404,-0.7697 -153.6533,-0.7697 z"
       style="color:#000000;fill:#ab643b;fill-opacity:1;fill-rule:nonzero;stroke:none;stroke-width:10;marker:none;visibility:visible;display:inline;overflow:visible;enable-background:accumulate" />
    <path
       sodipodi:nodetypes="ccccccccccsccscc"
       inkscape:connector-curvature="0"
       id="path11714"
       d="m -194.3883,151.5976 -0.4217,4.05146 c 0,0 -0.9848,17.7337 -0.7035,19.1402 l 102.7169,1.919 209.5158,-1.3316 5.7063,-1.0579 c 0,0 1.1901,-1.5939 1.3891,-2.3895 0.1256,-0.5031 1.6065,-0.8479 2.8773,-1.0832 0.2323,-6.82 0.019,-18.13665 -0.4879,-19.24846 l -39.8447,0 c -8.2933,0.4595 -16.6518,0.95912 -17.5119,0.95912 -1.2793,0 -19.1585,-0.64614 -29.4765,-0.95912 -82.1297,-1.1989 -135.0237,-0.13861 -195.4442,0 -5.7674,0.24815 -11.3632,0.5357 -12.5016,0.678 -1.262,0.15774 -8.8774,-0.22067 -16.0817,-0.678 z"
       style="color:#000000;fill:#ab643b;fill-opacity:1;fill-rule:nonzero;stroke:none;stroke-width:10;marker:none;visibility:visible;display:inline;overflow:visible;enable-background:accumulate" />
    <path
       inkscape:connector-curvature="0"
       id="path11716"
       d="m -192.88349,194.15314 c 0.004,1.02648 0.0101,2.02097 0.0249,2.90214 l 0,0.0167 c 0.52128,0.63044 1.93746,2.16916 2.41432,3.02614 -0.21627,-1.85957 -0.22325,-3.29073 -0.22325,-3.29073 0,0 -0.9225,-1.23359 -2.21589,-2.65411 z"
       style="opacity:0.5442478;color:#000000;fill:#422515;fill-opacity:1;fill-rule:nonzero;stroke:none;stroke-width:12;marker:none;visibility:visible;display:inline;overflow:visible;enable-background:accumulate" />
    <path
       inkscape:connector-curvature="0"
       id="path11722"
       d="m -192.85867,184.25606 c -0.0301,3.29538 -0.0512,7.47157 0,10.55026 l 0,0.008 c 0.55149,0.66699 1.22271,1.3666 1.60401,2.18281 l 315.06922,0 0,-4.73771 -1.09987,-0.76067 c -0.32941,0.16272 -0.58896,0.37695 -0.70273,0.66146 -0.56251,1.40655 -3.93462,0 -5.34115,0.84338 -1.40652,0.84392 -10.40976,-0.28114 -10.40976,-0.28114 0,0 -12.094902,-1.40619 -14.345448,-0.56224 -2.250281,0.84394 -9.844881,-0.56283 -13.501952,0.28114 -3.656807,0.84392 -15.474157,-0.84378 -21.381774,-0.28114 -5.907352,0.56263 -94.798914,-1.40634 -101.550261,-0.2811 -6.751346,1.12525 -140.376515,1.40557 -142.626955,1.40557 -2.25047,0 -3.93568,-1.40557 -3.93568,-1.40557 0,0 -1.28548,-3.68424 -1.77765,-7.62333 z"
       style="color:#000000;fill:#9d5a34;fill-opacity:1;fill-rule:nonzero;stroke:none;stroke-width:12;marker:none;visibility:visible;display:inline;overflow:visible;enable-background:accumulate" />
    <path
       inkscape:connector-curvature="0"
       id="path11724"
       d="m 126.71678,169.8859 c -0.0677,0.0167 -0.13891,0.0287 -0.20691,0.0496 -3.6568,1.12525 -5.90338,3.09235 -5.90338,3.09235 0,0 -5.62901,-0.28115 -7.87982,-0.28115 -2.25028,0 -28.977168,-0.67678 -36.289193,-0.84333 -6.797675,-0.15483 -147.077513,-2.13246 -157.772845,-0.58357 -6.40932,0.92819 -95.116542,0.86487 -99.054812,0.58357 -3.93833,-0.28133 -11.53253,-0.84299 -14.06428,-1.40563 -0.43939,-0.0976 -0.77544,-0.18571 -1.03354,-0.28109 -0.0765,2.32463 -0.10639,4.16428 -0.0249,4.57232 l 102.716201,1.91823 209.516959,-1.33117 5.70521,-1.05834 c 0,0 1.1901,-1.59393 1.38906,-2.38953 0.12542,-0.5031 1.60655,-0.84783 2.87735,-1.08312 0.0106,-0.2988 0.0159,-0.64434 0.0238,-0.95912 z"
       style="color:#000000;fill:#9d5a34;fill-opacity:1;fill-rule:nonzero;stroke:none;stroke-width:12;marker:none;visibility:visible;display:inline;overflow:visible;enable-background:accumulate"
       sodipodi:nodetypes="cccsssscccccccccc" />
    <g
       id="g3912"
       class="switchable"
       name="grain">
      <path
         sodipodi:nodetypes="csccccccccscccssssccssccscccsccsccscccsccscccccccccssccssccsscccccccc"
         inkscape:connector-curvature="0"
         id="path11728"
         d="m 126.64086,156.77164 c -14.24331,0.148 -83.058265,0.85534 -156.153646,1.42213 -40.806953,0.31642 -81.934844,0.57409 -113.514454,0.6532 -15.78981,0.039 -29.19016,0.0359 -38.96836,-0.0331 -4.88871,-0.035 -8.87783,-0.081 -11.79883,-0.14883 -0.42413,-0.01 -0.77735,-0.022 -1.15729,-0.0331 -0.0132,0.26789 -0.0185,0.49374 -0.0333,0.79375 0.38365,0.0101 0.74295,0.023 1.17422,0.0331 2.92841,0.068 6.91568,0.11422 11.80703,0.14883 9.78271,0.069 22.20119,0.77587 37.99258,0.73586 31.58226,-0.079 73.699429,-1.03939 114.506647,-1.35599 73.12131,-0.56697 141.961133,-1.27442 156.170313,-1.42213 -0.0106,-0.25768 -0.0159,-0.54793 -0.0238,-0.79375 z m -321.8905,7.92099 c -0.0132,0.27897 -0.0212,0.51342 -0.0328,0.79375 2.60429,0.05 5.80337,0.11202 10.0457,0.19843 9.44192,0.1923 22.66818,1.03466 38.40586,1.36425 31.47563,0.65929 72.988489,0.97308 114.357946,1.85208 78.444992,1.6669 148.257954,3.1637 156.134064,3.33211 0.18733,-0.3135 0.41884,-0.85458 1.2364,-1.05077 -6.41085,-0.137 -78.054199,-1.39009 -157.353795,-3.07509 -41.369722,-0.8791 -82.882315,-1.75503 -114.357945,-2.41432 -15.73768,-0.3297 -28.96394,-0.60971 -38.40586,-0.80201 -4.24524,-0.087 -7.43373,-0.14875 -10.02956,-0.19843 z M 101.86925,179.377 c -40.248156,-0.11361 -93.1661471,6.42022 -179.321362,10.5337 -65.797908,3.14161 -99.396548,3.13917 -115.432688,2.68719 0,0.27429 0.008,0.52795 0.008,0.79375 16.10149,0.45259 49.74432,0.45042 115.457557,-2.68719 C 25.373705,185.79667 80.874823,177.46848 123.813,181.04716 l 0,-0.80201 c -6.94611,-0.5769 -14.20575,-0.84637 -21.94402,-0.86815 z m -294.6961,1.88516 c 0,0.20299 -0.008,0.56901 -0.008,0.802 16.33961,0.7085 40.97205,1.13279 63.41719,1.46347 15.42177,0.22751 29.783615,0.40312 39.638021,0.59531 3.299619,0.064 5.183717,0.13761 7.342188,0.20672 -4.340225,0.2508 -10.248371,0.5425 -18.562369,0.88468 -12.14464,0.50001 -27.36163,1.05863 -42.25052,1.5875 -22.63511,0.80413 -40.43972,1.3919 -49.63425,1.69501 0,0.2723 0,0.5285 0,0.80203 9.17945,-0.30261 27.00205,-0.89837 49.65912,-1.70329 14.88969,-0.52887 30.10297,-1.08738 42.25052,-1.5875 12.147547,-0.49998 21.198943,-0.93461 23.861974,-1.21541 0.334169,-0.035 0.512498,-0.047 0.7112,-0.12401 0.05001,-0.019 0.108479,-0.0209 0.20664,-0.14886 0.04895,-0.064 0.09975,-0.19277 0.08281,-0.31416 -0.01852,-0.12142 -0.07805,-0.20505 -0.124089,-0.24808 -0.09207,-0.086 -0.14314,-0.091 -0.190236,-0.10747 -0.04683,-0.0161 -0.09393,-0.023 -0.140493,-0.0331 -0.372798,-0.078 -1.079236,-0.127 -2.207684,-0.1819 -2.256102,-0.10959 -6.058694,-0.20974 -10.988411,-0.30594 -9.859698,-0.19238 -24.217311,-0.36801 -39.637751,-0.59531 -22.44858,-0.33089 -47.12071,-0.76454 -63.42566,-1.47172 z m 301.13711,1.51307 c -13.43739,-0.022 -28.758618,0.81788 -44.135937,2.03398 -26.241905,2.0755 -52.621393,5.24145 -69.9161475,7.06935 -11.4387315,1.20889 -35.1668305,3.28359 -61.7222665,5.5149 l 9.475523,0 c 22.625845,-1.9195 42.253166,-3.65617 52.329558,-4.72115 17.306132,-1.82911 43.670274,-4.99565 69.891277,-7.06935 21.71065,-1.71709 43.326843,-2.67932 59.580993,-1.5296 l 0,-0.79375 c -3.99389,-0.28142 -8.29231,-0.44003 -12.84049,-0.48784 -0.87921,-0.0101 -1.76663,-0.0156 -2.66251,-0.0164 z"
         style="opacity:0.5;color:#000000;fill:#cb825a;fill-opacity:1;fill-rule:nonzero;stroke:none;stroke-width:10;marker:none;visibility:visible;display:inline;overflow:visible;enable-background:accumulate" />
      <path
         inkscape:connector-curvature="0"
         id="path11730"
         d="m 126.64086,156.37476 c -14.24331,0.14806 -83.058265,0.85532 -156.153646,1.42214 -40.806688,0.31646 -81.934844,0.57409 -113.514454,0.6532 -15.79007,0.039 -29.19016,0.0359 -38.96836,-0.0331 -4.88871,-0.035 -8.87783,-0.081 -11.79883,-0.14883 -0.42413,-0.01 -0.77735,-0.0222 -1.15729,-0.0331 -0.0132,0.26786 -0.0185,0.49373 -0.0333,0.79375 0.38365,0.0106 0.74269,0.023 1.17422,0.0331 2.92841,0.068 6.91568,0.11422 11.80703,0.14883 9.78271,0.069 23.18518,0.0731 38.97657,0.0331 31.58225,-0.079 72.715439,-0.33663 113.522657,-0.6532 73.12131,-0.56701 141.961133,-1.27442 156.170313,-1.42214 -0.008,-0.2577 -0.0159,-0.5479 -0.0238,-0.79375 z m -321.8905,7.92099 c -0.0132,0.27892 -0.0212,0.51345 -0.0328,0.79375 2.60403,0.0496 5.80337,0.11197 10.0457,0.19844 9.44192,0.1923 22.66818,0.47241 38.40586,0.802 31.47563,0.65929 72.988489,1.53533 114.357946,2.41433 78.444992,1.66695 148.451364,3.16375 156.327474,3.33211 0.18733,-0.31348 0.90223,-0.56444 1.7198,-0.76068 -6.41086,-0.13706 -78.731009,-1.68016 -158.030605,-3.36518 -41.369722,-0.87911 -82.882315,-1.75504 -114.357945,-2.41433 -15.73768,-0.32969 -28.96394,-0.6097 -38.40586,-0.802 -4.24524,-0.0866 -7.43373,-0.14883 -10.02956,-0.19844 z m 297.11889,14.68438 c -40.248156,-0.11367 -93.1661471,6.42022 -179.321362,10.53369 -65.798168,3.14161 -99.396548,3.13921 -115.432688,2.68719 0.003,0.27427 0.005,0.52803 0.008,0.79375 16.10149,0.45265 49.74432,0.45043 115.457557,-2.68719 C 25.373705,185.39976 80.875088,177.07158 123.813,180.65028 l 0,-0.802 c -6.94611,-0.57685 -14.20575,-0.84635 -21.94402,-0.86815 z m -294.6961,1.88515 c -0.003,0.20307 -0.005,0.56907 -0.008,0.80201 16.33961,0.70853 40.97205,1.13268 63.41719,1.46346 15.42177,0.22746 29.78335,0.40312 39.638021,0.59531 3.299619,0.0641 5.183717,0.13761 7.342188,0.20672 -4.340225,0.2508 -10.248371,0.5425 -18.562369,0.88469 -12.14464,0.50006 -27.36163,1.05862 -42.25052,1.5875 -22.63511,0.80417 -40.43972,1.39192 -49.63425,1.695 l 0,0.80203 c 9.17945,-0.30263 27.00205,-0.89836 49.65912,-1.70328 14.88969,-0.52888 30.10297,-1.08744 42.25052,-1.5875 12.147547,-0.49998 21.198943,-0.93461 23.861974,-1.21542 0.334169,-0.035 0.512498,-0.047 0.7112,-0.12401 0.05001,-0.0191 0.108479,-0.0209 0.20664,-0.14885 0.04921,-0.064 0.100012,-0.19278 0.08281,-0.31417 -0.01852,-0.12136 -0.07805,-0.205 -0.124089,-0.24807 -0.09207,-0.086 -0.14314,-0.091 -0.190236,-0.10747 -0.04683,-0.0161 -0.09393,-0.023 -0.140493,-0.0331 -0.372798,-0.078 -1.079501,-0.127 -2.207684,-0.1819 -2.256102,-0.1097 -6.058694,-0.20968 -10.988411,-0.30594 -9.859698,-0.19238 -24.217311,-0.36795 -39.637751,-0.59531 -22.44858,-0.33094 -47.12071,-0.76446 -63.42566,-1.47172 z m 301.13711,1.51308 c -13.43739,-0.0217 -28.758618,0.81785 -44.135937,2.03398 -26.242169,2.0755 -52.621393,5.2414 -69.9161475,7.06935 -11.4387315,1.20893 -35.1665655,3.28361 -61.7222665,5.51489 l 9.475523,0 c 22.625845,-1.91952 42.253166,-3.65617 52.329558,-4.72114 17.306132,-1.82917 43.670274,-4.99565 69.891277,-7.06935 21.71065,-1.71707 43.326843,-2.67933 59.580993,-1.52961 l 0,-0.79375 c -3.99389,-0.28149 -8.29231,-0.44 -12.84049,-0.48784 -0.87921,-0.009 -1.76663,-0.0151 -2.66251,-0.0164 z"
         style="color:#000000;fill:#9d5b38;fill-opacity:1;fill-rule:nonzero;stroke:none;stroke-width:10;marker:none;visibility:visible;display:inline;overflow:visible;enable-background:accumulate" />
    </g>
    <path
       style="color:#000000;fill:#cb825a;fill-opacity:1;fill-rule:nonzero;stroke:none;stroke-width:10;marker:none;visibility:visible;display:inline;overflow:visible;enable-background:accumulate"
       d="m -42.634532,151.03351 c -40.858017,0.0301 -75.677188,0.47556 -113.440108,0.56224 -5.76739,0.24813 -11.36306,0.53568 -12.50156,0.67797 -1.26206,0.15777 -8.8773,-0.22066 -16.08164,-0.67797 l -9.73191,0 -0.42148,4.05141 c 0,0 -0.98425,15.76662 -0.703,17.17312 l 0.058,-1.68672 c 0.39132,-4.73628 2.23255,-13.79968 2.23255,-13.79968 l 0.42148,-4.05141 9.73191,0 c 7.20434,0.45731 14.81958,0.83574 16.08164,0.67797 1.1385,-0.1423 6.73417,-0.42984 12.50156,-0.67797 60.420517,-0.13864 111.727196,-1.19893 193.856775,0 10.318486,0.31297 28.197176,0.95911 29.476436,0.95911 0.860161,0 9.218613,-0.49964 17.511978,-0.95911 l 38.257161,0 c 0.45958,1.00777 1.97565,8.14581 2.0836,14.97375 0.2151,-6.84803 0.003,-15.56589 -0.4961,-16.66047 l -39.844661,0 c -8.293365,0.45948 -16.651817,0.95912 -17.511978,0.95912 -1.27926,0 -19.15795,-0.64614 -29.476436,-0.95912 -30.7985592,-0.44963 -57.489462,-0.58034 -82.004167,-0.56224 z m 88.45365,24.4574 c -19.141281,0.0453 -37.3641943,0.30197 -52.3792988,0.50437 35.1419588,0.0688 88.5615998,0.47141 127.1817708,2.72026 0.60113,0.009 3.15357,-0.39846 3.19167,0.45474 l 0,-1.68672 c -0.0381,-0.8532 -2.59054,-0.44574 -3.19167,-0.45474 -22.118901,-1.28799 -49.145825,-1.59856 -74.802472,-1.53791 z m -118.186203,0.76067 c -39.458635,-0.007 -79.310705,0.0457 -119.641415,0.63667 0,0 -0.69453,1.03873 -0.79375,2.33164 0,0 -0.15293,9.8638 -0.0577,15.5856 -0.0953,-5.7218 1.74467,-13.89888 1.74467,-13.89888 0.099,-1.29291 0.79375,-2.33164 0.79375,-2.33164 40.98898,-0.60058 80.5053,-1.7879 120.129036,-2.32339 -0.727075,-1.5e-4 -1.447536,1.6e-4 -2.174611,0 z"
       id="path11718"
       inkscape:connector-curvature="0" />
    <path
       inkscape:connector-curvature="0"
       id="path11726"
       d="m 126.60671,169.95205 c -0.99457,0.0994 -2.57863,1.09966 -2.57863,1.09966 0,0 -1.38192,3.19278 -1.48828,3.48091 0.1987,-0.39783 1.99258,-2.68716 1.99258,-2.68716 l 2.07433,-0.69453 z m -323.2357,3.78682 0.4961,1.48828 50.72557,0.49609 z m 275.695896,2.08359 44.819884,1.55559 -0.89482,-1.00552 c -0.59663,0.0995 -43.925064,-0.55007 -43.925064,-0.55007 z m -272.413416,17.7023 -0.59532,1.00046 2.77813,3.07579 46.45091,-0.4961 -46.05404,-0.49609 z"
       style="color:#000000;fill:#422515;fill-opacity:1;fill-rule:nonzero;stroke:none;stroke-width:12;marker:none;visibility:visible;display:inline;overflow:visible;enable-background:accumulate"
       sodipodi:nodetypes="cccccccccccccccccccc"
       class="switchable"
       name="sytle lines" />
  </g>
</svg>
