<?xml version="1.0" encoding="UTF-8" standalone="no"?>
<!-- Created with Inkscape (http://www.inkscape.org/) -->

<svg
   xmlns:dc="http://purl.org/dc/elements/1.1/"
   xmlns:cc="http://creativecommons.org/ns#"
   xmlns:rdf="http://www.w3.org/1999/02/22-rdf-syntax-ns#"
   xmlns:svg="http://www.w3.org/2000/svg"
   xmlns="http://www.w3.org/2000/svg"
   xmlns:sodipodi="http://sodipodi.sourceforge.net/DTD/sodipodi-0.dtd"
   xmlns:inkscape="http://www.inkscape.org/namespaces/inkscape"
   width="256"
   height="256"
   viewBox="0 0 67.73333 67.733335"
   version="1.1"
   id="svg23489"
   inkscape:version="0.48.5 r10040"
   sodipodi:docname="cash_stack.svg">
  <defs
     id="defs23483" />
  <sodipodi:namedview
     id="base"
     pagecolor="#a6abb0"
     bordercolor="#666666"
     borderopacity="1.0"
     inkscape:pageopacity="0.09019608"
     inkscape:pageshadow="2"
     inkscape:zoom="4.6207231"
     inkscape:cx="201.76392"
     inkscape:cy="117.92491"
     inkscape:document-units="px"
     inkscape:current-layer="layer1"
     showgrid="false"
     inkscape:pagecheckerboard="false"
     showborder="true"
     units="px"
     inkscape:window-width="1920"
     inkscape:window-height="1017"
     inkscape:window-x="-8"
     inkscape:window-y="-8"
     inkscape:window-maximized="1"
     inkscape:showpageshadow="false"
     guidetolerance="28">
    <inkscape:grid
       type="xygrid"
       id="grid24034"
       spacingx="1px"
       spacingy="1px"
       empspacing="8"
       visible="true"
       enabled="true"
       snapvisiblegridlinesonly="true" />
  </sodipodi:namedview>
  <metadata
     id="metadata23486">
    <rdf:RDF>
      <cc:Work
         rdf:about="">
        <dc:format>image/svg+xml</dc:format>
        <dc:type
           rdf:resource="http://purl.org/dc/dcmitype/StillImage" />
        <dc:title />
        <cc:license
           rdf:resource="" />
        <dc:creator>
          <cc:Agent>
            <dc:title>Robert Brooks</dc:title>
          </cc:Agent>
        </dc:creator>
      </cc:Work>
    </rdf:RDF>
  </metadata>
  <g
     inkscape:label="Layer 1"
     inkscape:groupmode="layer"
     id="layer1"
     transform="translate(0,-229.26665)">
    <g
       transform="matrix(0.52365909,0,0,0.52365909,-429.94446,371.55512)"
       id="g39022">
      <g
         transform="matrix(1.1093232,0,0,1.1093232,-110.28982,-68.777823)"
         id="g38978">
        <path
           inkscape:connector-curvature="0"
           style="color:#000000;fill:#73c12e;fill-opacity:1;fill-rule:nonzero;stroke:none;stroke-width:50;stroke-linejoin:round;stroke-miterlimit:4;stroke-opacity:1;stroke-dasharray:none;marker:none;visibility:visible;display:inline;overflow:visible;enable-background:accumulate"
           d="m 3423.9375,-693.6875 c -0.3462,0.008 -0.5585,0.0819 -0.6563,0.21875 -0.1955,0.27371 -0.6073,0.78154 -1.2187,1.5 -0.6114,0.71848 -1.4171,1.63562 -2.4063,2.75 -0.108,0.12179 -0.2626,0.28001 -0.375,0.40625 -0.9181,1.03132 -1.9369,2.16207 -3.125,3.46875 -0.01,0.007 0.01,0.0247 0,0.0312 -1.3251,1.45741 -2.8131,3.05912 -4.4374,4.8125 -1.6349,1.76469 -3.4126,3.67172 -5.3126,5.6875 -1.8931,2.00882 -3.913,4.10329 -6.0312,6.3125 -5.7601,6.00724 -12.2877,12.68191 -19.1875,19.5 -10.0972,-3.99093 -17.4653,-6.42151 -20.125,-6.25 -0.2188,0.0151 -0.4008,0.0484 -0.5625,0.0937 -0.3234,0.0906 -0.6769,0.22568 -1.0625,0.375 -0.3786,0.14736 -0.7847,0.33103 -1.2187,0.53125 -0.4435,0.20451 -0.9405,0.43127 -1.4376,0.6875 -3.4766,1.79537 -8.2217,4.83057 -13.4687,8.46875 -1.5027,1.04149 -3.0545,2.12 -4.625,3.25 -7.8454,5.6482 -16.3263,12.22955 -23.2813,18 -5.5696,4.61923 -10.1688,8.71255 -12.6874,11.40625 -0.3201,0.34197 -0.5927,0.67378 -0.8438,0.96875 -0.2478,0.29096 -0.4798,0.53952 -0.6562,0.78125 -0.3529,0.48347 -0.6535,0.93578 -0.9376,1.375 -0.2894,0.44643 -0.5249,0.87863 -0.75,1.28125 -0.4431,0.79369 -0.7695,1.4896 -1,2.125 -0.2309,0.63455 -0.3693,1.19648 -0.4374,1.6875 -0.1352,0.98417 10e-4,1.6868 0.2187,2.1875 0.1082,0.24929 0.2531,0.44267 0.375,0.59375 0,0.006 0,0.0254 0,0.0312 0.2365,0.28588 0.4687,0.40625 0.4687,0.40625 4.206,-2.62513 9.1177,-6.10185 12.7813,-8.71875 0.1912,0.0817 8.842,3.78338 16.5313,7.09375 -1.1631,0.82824 -2.3153,1.62039 -3.4376,2.375 -2.2678,1.52494 -4.4798,2.99638 -6.6562,4.4375 -13.9757,9.25341 -25.8183,16.65637 -35,22.21875 -0.8288,0.50237 -1.8119,1.09202 -2.5938,1.5625 -1.967,1.18236 -4.0012,2.39648 -5.6562,3.375 -0.4813,0.28402 -1.1097,0.64039 -1.5625,0.90625 -1.6711,0.98224 -3.3344,1.95962 -4.5937,2.6875 -3.3182,1.91139 -5.2188,2.96875 -5.2188,2.96875 -3.8319,2.34607 -7.2485,3.99962 -10.2812,5.125 -0.021,0.008 -0.041,0.0235 -0.063,0.0312 -2.8727,1.06046 -5.3984,1.6524 -7.625,1.875 -0.1674,0.0167 -0.336,0.0185 -0.5,0.0312 -0.1055,0.008 -0.2083,0.0247 -0.3124,0.0312 -0.3987,0.0253 -0.8093,0.0285 -1.1876,0.0312 -1.613,0.0115 -3.0496,-0.17833 -4.3124,-0.5 -0.2661,-0.0678 -0.4986,-0.13956 -0.75,-0.21875 -2.5458,-1.3926 -5.1457,-3.47099 -7.6876,-6.46875 -0.013,-0.0289 -0.019,-0.0671 -0.031,-0.0937 -0.1755,-0.53645 -0.2503,-0.5309 -0.094,-0.15625 0.01,0.0186 -0.01,0.0733 0,0.0937 l -0.625,3.46875 c -0.6179,3.43279 4.102,12.30706 10.75,21.5625 -2.187,1.59458 -4.2567,3.1121 -6.1874,4.59375 -5.3069,3.73816 -8.7781,6.43686 -9.875,8.03125 -2.0132,1.79392 -3.3928,3.19719 -3.875,3.96875 l 0.5,0.15625 c -0.01,0.003 -0.057,0.0287 -0.063,0.0312 0.096,10e-4 0.1896,0.0177 0.2813,0.0312 l 0.625,0.21875 c 1.2451,0.62774 2.0944,2.5658 2.6563,5.125 l 0.625,24.03125 c 2.1866,2.07564 3.9687,3.75 3.9687,3.75 l -1.625,0.71875 -2.2813,0.96875 0,0.78125 0.094,6.15625 0.062,3.09375 0.125,9.28125 0,1.15625 0.031,1.53125 0.031,1.75 0,0.125 0,0.25 0.031,2.90625 0.031,1.1875 159.1563,78.625 c 0,0 0.1551,-0.15491 0.1562,-0.15625 l 0,-0.0312 c 0.4121,-0.49641 21.781,-26.17417 46.0312,-54.4375 0.1335,-0.15549 0.2727,-0.31311 0.4063,-0.46875 2.94,-3.42535 5.9162,-6.88773 8.9063,-10.34375 0.1164,-0.13452 0.2273,-0.27175 0.3437,-0.40625 3.0102,-3.47805 6.0379,-6.95082 9.0313,-10.375 0.099,-0.11329 0.1822,-0.23056 0.2812,-0.34375 1.2355,-1.41274 2.4319,-2.76304 3.6562,-4.15625 1.839,-2.09213 3.6992,-4.18705 5.5,-6.21875 1.2495,-1.40989 2.4315,-2.72086 3.6563,-4.09375 l -7.125,15.9375 c 0,0 0.6282,1.1482 1.8437,1.25 l -0.1562,0.21875 c 0,0 4.4698,-0.0654 12.875,-5.21875 0.011,-0.007 0.02,-0.0242 0.031,-0.0312 3.2739,-2.01047 7.1247,-4.80002 11.5626,-8.65625 1.9139,-1.66399 3.9398,-3.50697 6.0624,-5.59375 0.036,-0.0356 0.057,-0.0893 0.094,-0.125 0.6622,-0.64648 1.3448,-1.30308 2.0312,-2 0.025,-0.0257 0.037,-0.068 0.063,-0.0937 0.6838,-0.69533 1.3857,-1.40907 2.0937,-2.15625 0.03,-0.0322 0.063,-0.0614 0.094,-0.0937 1.4758,-1.55996 3.013,-3.23401 4.5938,-5.03125 0.01,-0.006 -0.01,-0.025 0,-0.0312 0.7009,-0.79709 1.3452,-1.57716 1.9688,-2.34375 0.1275,-0.15695 0.2818,-0.31311 0.4062,-0.46875 5.8693,-7.33431 8.2736,-13.18258 9.25,-17.0625 0.1233,-0.48552 0.2302,-0.92129 0.3125,-1.34375 0.084,-0.43547 0.1383,-0.82141 0.1875,-1.1875 0.048,-0.34588 0.07,-0.65462 0.094,-0.9375 0,-0.0135 0,-0.0179 0,-0.0312 0.095,-1.16014 0.031,-1.75 0.031,-1.75 l 0.5625,-10 c 21.5606,-19.02015 45.125,-40.0625 45.125,-40.0625 l 0,-2.09375 0.031,-3.875 0.031,-5.03125 c 0.012,-0.009 0.02,-0.0221 0.031,-0.0312 l 0,-3.8125 c -4.0995,3.19411 -8.093,6.36229 -12,9.53125 -7.8433,5.96718 -15.4398,11.77153 -17.0937,13.21875 -0.1747,0.15287 -0.2476,0.23435 -0.25,0.21875 -0.037,-0.23401 18.4259,-18.56483 29.375,-28.78125 l 0,-3.03125 c 0.01,-0.005 0.025,0.005 0.031,0 l 0,-3.84375 0,-0.15625 0,-0.8125 0.031,-4.75 0,-1.0625 0,-0.0312 -8.875,2.9375 c 0.072,-0.0584 0.8314,-0.66729 2,-1.8125 2.0262,-1.97459 5.0767,-5.37602 6.9375,-9.375 l 0,-3 c 0.01,-0.005 0.025,0.005 0.031,0 l 0,-4 0,-2.375 0.031,-2.0625 0,-0.5 0.031,-3.875 0.031,-9.21875 c 3.0346,-2.03973 5.2813,-3.53125 5.2813,-3.53125 l -0.375,-6 c 0.024,-0.017 0.3124,-0.21875 0.3124,-0.21875 0,0 -0.3391,-0.15405 -0.3437,-0.15625 l 0,-0.25 c -2.6642,-1.25808 -7.0331,-3.22442 -12.5,-5.625 -3.0536,-1.43691 -2.8053,-1.32167 -7.0625,-3.3125 -6.1371,-2.87033 -12.7116,-5.95125 -20.5938,-9.59375 -0.7036,-0.32524 -1.5059,-0.7022 -2.2187,-1.03125 -6.5725,-3.03276 -13.5391,-6.2132 -20.5625,-9.40625 -0.4004,-0.18204 -0.7866,-0.38045 -1.1875,-0.5625 -1.0533,-0.47856 -2.1012,-0.9595 -3.1563,-1.4375 -3.0708,-1.39073 -6.1346,-2.75533 -9.1874,-4.125 -1.1977,-0.53753 -2.3417,-1.06205 -3.5313,-1.59375 -1.0075,-0.45018 -1.9689,-0.86746 -2.9687,-1.3125 -7.3824,-3.28699 -14.4451,-6.38419 -21,-9.1875 -0.7063,-0.30202 -1.308,-0.5496 -2,-0.84375 -2.9947,-1.27317 -5.8159,-2.45932 -8.5,-3.5625 -1.8452,-0.7588 -3.5788,-1.45998 -5.25,-2.125 -0.099,-0.0393 -0.1832,-0.0861 -0.2813,-0.125 -1.2037,-0.47822 -2.3363,-0.92032 -3.4375,-1.34375 -0.2244,-0.0863 -0.4051,-0.1661 -0.625,-0.25 -1.1235,-0.42898 -2.1549,-0.79214 -3.1562,-1.15625 -0.1587,-0.0577 -0.2821,-0.10025 -0.4376,-0.15625 -1.0184,-0.36731 -1.9373,-0.7084 -2.8124,-1 -0.07,-0.0234 -0.1184,-0.0396 -0.1876,-0.0625 -0.034,-0.0114 -0.059,-0.02 -0.094,-0.0312 -1.863,-0.61455 -3.3657,-1.03399 -4.4687,-1.25 -0.023,-0.004 -0.04,0.004 -0.063,0 -0.2655,-0.051 -0.5024,-0.0997 -0.7187,-0.125 -0.012,-10e-4 -0.02,10e-4 -0.031,0 -0.2231,-0.0252 -0.426,-0.035 -0.5937,-0.0312 z"
           transform="matrix(0.26458334,0,0,0.26458334,-6.3049604e-6,18.562493)"
           id="path38849"
           gds_outline="1" />
        <g
           id="g38812">
          <g
             id="g38738"
             transform="translate(-4.3457928,0)">
            <g
               transform="translate(-0.4389912,-11.852762)"
               id="g38742">
              <g
                 id="g38744"
                 transform="matrix(0.74608528,0,0,0.74608528,910.25986,109.26454)">
                <path
                   inkscape:connector-curvature="0"
                   style="color:#000000;fill:#73c12e;fill-opacity:1;fill-rule:nonzero;stroke:#0a1103;stroke-width:29.84341049;stroke-linejoin:round;stroke-miterlimit:4;stroke-opacity:1;stroke-dasharray:none;marker:none;visibility:visible;display:inline;overflow:visible;enable-background:accumulate"
                   d="m 3441.1562,-636.3125 c -0.2516,0 -0.375,0.0644 -0.375,0.1875 0,3.92986 -53.0624,50.09375 -53.0624,50.09375 -73.6837,61.89434 -139.8691,98.48411 -144.7813,106.34375 l 0.875,33.40625 c 2.1866,2.07561 3.9687,3.75 3.9687,3.75 l -3.9062,1.6875 0.4062,28.21875 159.1563,78.625 c 0,0 86.4525,-104.14975 110.0313,-124.78125 23.5787,-20.63142 59.9374,-53.0625 59.9374,-53.0625 l 0.094,-14.4375 c -9.3894,7.10178 -26.5454,20.11387 -29.0938,22.34375 -2.7953,2.44588 17.446,-17.66499 29.125,-28.5625 l 0.063,-13.6875 -8.9376,2.96875 c 0,0 6.0228,-4.8204 9,-11.21875 l 0.125,-25.3125 -0.4687,0.0625 c 0.01,-0.008 0.4687,-0.4375 0.4687,-0.4375 0,0 -124.8225,-56.2451 -132.625,-56.1875 z"
                   transform="matrix(0.35462882,0,0,0.35462882,-1220.048,-121.57062)"
                   id="path38746" />
                <path
                   inkscape:connector-curvature="0"
                   style="color:#000000;fill:#63ae20;fill-opacity:1;fill-rule:nonzero;stroke:none;stroke-width:60;marker:none;visibility:visible;display:inline;overflow:visible;enable-background:accumulate"
                   d="m 3573.7812,-579.75 -133,11.90625 c 0,0 -194.3478,88.75209 -201.1562,92.15625 6.4989,0.0774 4.1875,29.40625 4.1875,29.40625 2.1866,2.07561 3.9687,3.75 3.9687,3.75 l -3.9062,1.6875 0.4062,28.21875 159.1563,78.625 c 0,0 86.4525,-104.14975 110.0313,-124.78125 23.5787,-20.63142 59.9374,-53.0625 59.9374,-53.0625 l 0.094,-14.4375 c -9.3894,7.10178 -26.5454,20.11387 -29.0938,22.34375 -2.7953,2.44588 17.446,-17.66499 29.125,-28.5625 l 0.063,-13.6875 -8.9376,3 c 0,0 6.0228,-4.85165 9,-11.25 l 0.125,-25.3125 z"
                   transform="matrix(0.35462882,0,0,0.35462882,-1220.048,-121.57062)"
                   id="path38748" />
                <path
                   inkscape:connector-curvature="0"
                   style="color:#000000;fill:#498018;fill-opacity:1;fill-rule:nonzero;stroke:none;stroke-width:50;marker:none;visibility:visible;display:inline;overflow:visible;enable-background:accumulate"
                   d="m 3573.7812,-579.75 -133,11.90625 -37.0937,16.3125 c -1.3074,49.31288 -1.0542,94.46724 -1,102.375 -1.7268,37.38499 -0.8437,56.5 -0.8437,56.5 l 10.5,-0.875 c 0,0 -8.75,6.15471 -8.75,10.53125 l 0,48.84375 c 0.7835,-0.94384 86.404,-104.08781 109.875,-124.625 23.5787,-20.63142 59.9374,-53.0625 59.9374,-53.0625 l 0.094,-14.4375 c -9.3894,7.10178 -26.5454,20.11387 -29.0938,22.34375 -2.7953,2.44588 17.446,-17.66499 29.125,-28.5625 l 0.063,-13.6875 -8.9376,2.96875 c 0,0 6.0228,-4.8204 9,-11.21875 l 0.125,-25.3125 z"
                   transform="matrix(0.35462882,0,0,0.35462882,-1220.048,-121.57062)"
                   id="path38750" />
                <path
                   id="path38752"
                   transform="matrix(0.26458334,0,0,0.26458334,-6.3049604e-6,18.562493)"
                   d="m -263.875,-1161.125 0.0625,4.4062 211.375,95.5938 1.34375,0.5938 0.03125,-0.031 -0.25,-5.75 c -0.286224,0.3258 -0.557065,0.611 -0.84375,0.9375 l -211.71875,-95.75 z m 0.21875,17.4062 0.0625,4.375 212.90625,96.4376 0.3125,0.125 c -0.0064,-0.5232 -0.0625,-4.3438 -0.0625,-4.3438 l 0,-0.094 -213.21875,-96.5 z m 5.28125,21.0626 -4.96875,2.125 0,1.0312 c 72.86539,29.1974 149.35546,60.5244 213.15625,89.8125 -0.0257,-1.7784 -0.0433,-2.9586 -0.0625,-4.375 l -208.125,-88.5937 z m -4.84375,11.4374 0.0625,4.125 c 74.33449,28.9075 145.56335,60.3181 212.71875,94.9688 l 0.5625,0.25 c -0.02797,-1.5199 -0.06786,-3.1887 -0.09375,-4.6562 -0.05034,0.054 -0.105907,0.1018 -0.15625,0.1562 -70.3171,-33.7521 -141.33396,-65.4197 -213.09375,-94.8438 z m 0.1875,12.1876 0.0625,4.375 211.6875,94.9687 1.3125,0.59375 0.40625,-0.4375 c -0.04192,-1.98065 -0.08649,-3.80535 -0.125,-5.74995 -0.432378,0.4607 -0.847821,0.9144 -1.28125,1.375 l -212.0625,-95.125 z m 0.125,10.3437 0.0625,4.375 c 71.31771,33.8859 142.5676,67.0442 213.625,98.53125 -0.03855,-1.52833 -0.08849,-2.89874 -0.125,-4.4375 -72.05824,-30.20945 -143.00412,-63.75985 -213.5625,-98.46875 z"
                   style="font-size:medium;font-style:normal;font-variant:normal;font-weight:normal;font-stretch:normal;text-indent:0;text-align:start;text-decoration:none;line-height:normal;letter-spacing:normal;word-spacing:normal;text-transform:none;direction:ltr;block-progression:tb;writing-mode:lr-tb;text-anchor:start;baseline-shift:baseline;opacity:0.58849553;color:#000000;fill:#9ae954;fill-opacity:1;stroke:none;stroke-width:4;marker:none;visibility:visible;display:inline;overflow:visible;enable-background:accumulate;font-family:Sans;-inkscape-font-specification:Sans"
                   inkscape:connector-curvature="0" />
                <path
                   sodipodi:nodetypes="cccscsc"
                   inkscape:connector-curvature="0"
                   id="path38754"
                   d="m -18.665595,-329.38856 c -26.130347,21.9495 -49.378244,35.33087 -51.120263,38.11811 l 55.918699,24.09111 c 0,0 31.435644,-33.98843 39.797354,-41.30494 8.36171,-7.31649 21.392011,-18.81384 21.392011,-18.81384 0,0 -47.17395149,-21.25268 -47.17395149,-19.85907 0,1.39363 -18.81384951,17.76863 -18.81384951,17.76863 z"
                   style="color:#000000;fill:#9ae954;fill-opacity:1;fill-rule:nonzero;stroke:none;stroke-width:60;marker:none;visibility:visible;display:inline;overflow:visible;enable-background:accumulate" />
                <path
                   id="path38756"
                   transform="matrix(0.26458334,0,0,0.26458334,-6.3049604e-6,18.562493)"
                   d="m -263.90625,-1163.4688 0.0625,4.4063 211.40625,95.5937 1.34375,0.5938 0.03125,-0.031 -0.25,-5.75 c -0.286244,0.3258 -0.557063,0.6109 -0.84375,0.9374 l -211.75,-95.75 z m 0.21875,17.375 0.0625,4.4063 212.9375,96.4375 0.3125,0.125 c -0.0063,-0.5232 -0.0625,-4.3438 -0.0625,-4.3438 l 0,-0.094 -213.25,-96.5313 z m 1.5625,19.5 c 1.93924,1.8293 4.03125,3.8126 4.03125,3.8126 l -2.1875,0.9374 c 74.54201,29.8339 144.64644,59.7687 210.09375,89.8126 -0.0256,-1.7784 -0.04332,-2.9586 -0.0625,-4.375 l -211.875,-90.1876 z m -1.125,13.0313 0.0625,4.125 c 74.3443,28.9104 145.58641,60.3138 212.75,94.9687 l 0.5625,0.25 c -0.02809,-1.5199 -0.06786,-3.1886 -0.09375,-4.6562 -0.05034,0.054 -0.105893,0.1018 -0.15625,0.1562 -70.32584,-33.7563 -141.35611,-65.4166 -213.125,-94.8437 z m 0.1875,12.1875 0.0625,4.375 211.71875,94.9688 1.3125,0.5937 0.40625,-0.4375 c -0.0419,-1.9806 -0.08646,-3.8054 -0.125,-5.75 -0.432379,0.4607 -0.847821,0.9144 -1.28125,1.375 l -212.09375,-95.125 z m 0.125,10.3125 0.0625,4.375 c 71.33027,33.8921 142.58636,67.0699 213.65625,98.5625 -0.03854,-1.52831 -0.08846,-2.89875 -0.125,-4.4375 -72.07102,-30.2148 -143.02299,-63.7845 -213.59375,-98.5 z"
                   style="font-size:medium;font-style:normal;font-variant:normal;font-weight:normal;font-stretch:normal;text-indent:0;text-align:start;text-decoration:none;line-height:normal;letter-spacing:normal;word-spacing:normal;text-transform:none;direction:ltr;block-progression:tb;writing-mode:lr-tb;text-anchor:start;baseline-shift:baseline;color:#000000;fill:#498018;fill-opacity:1;stroke:none;stroke-width:4;marker:none;visibility:visible;display:inline;overflow:visible;enable-background:accumulate;font-family:Sans;-inkscape-font-specification:Sans"
                   inkscape:connector-curvature="0" />
                <path
                   id="path38758"
                   transform="matrix(0.26458334,0,0,0.26458334,-6.3049604e-6,18.562493)"
                   d="m 178.78125,-1293.9688 c -87.841413,71.4449 -150.456985,134.67 -230.09375,225.3126 l 0.25,5.75 0.9375,-1.0626 c 79.672885,-90.8069 141.866522,-153.8136 228.875,-224.8124 l 0.0312,-5.1876 z m -0.0625,11.8126 c -80.56215,71.5475 -145.135945,136.5015 -223,225.625 l 5.75,-0.4688 c 75.72254,-86.474 138.92008,-150.1101 217.21875,-219.8125 l 0.0312,-5.3437 z m -0.125,20.4687 -7.4375,2.4687 c -84.301854,72.0749 -142.554557,132.2548 -220.4375,222.375 l 0,5.1876 0.5625,0.25 0.96875,-1.0938 c 80.077814,-92.757 138.988736,-153.5095 226.34375,-227.7812 l 0,-1.4063 z m -0.0625,9.0937 c -105.72923,83.0909 -159.452641,158.8749 -227.8125,232.9688 l 0,5.6875 0.15625,0.062 0.96875,-1.0625 c 68.907577,-74.368 122.099163,-149.7729 226.6875,-232.5 l 0,-5.1563 z m -0.0937,17 c -102.610414,79.9481 -158.624534,153.8622 -227.71875,227.5313 l 0,5.875 0.28125,-0.2813 c 69.956112,-74.2099 125.480595,-148.0665 227.4375,-228 l 0,-5.125 z m -0.0625,11.9063 c -77.76575,63.5103 -122.354048,102.2179 -226.875,231.5 l -0.78125,-0.34375 0,2.1875 c 0.02187,0.72599 0.04323,1.45459 0.0625,2.21875 l 0.40625,0.1875 1.4375,0.65625 0.96875,-1.21875 c 104.032815,-128.7886 148.33655,-167.5587 224.75,-230 l 0.0312,-5.1875 z m -218.71875,168.75 c -2.833073,2.3079 -6.986655,6.1042 -8.4375,9.625 l 0.4375,-0.4687 c 2.699095,-3.1081 5.333646,-6.1066 8,-9.1563 z"
                   style="font-size:medium;font-style:normal;font-variant:normal;font-weight:normal;font-stretch:normal;text-indent:0;text-align:start;text-decoration:none;line-height:normal;letter-spacing:normal;word-spacing:normal;text-transform:none;direction:ltr;block-progression:tb;writing-mode:lr-tb;text-anchor:start;baseline-shift:baseline;color:#000000;fill:#386212;fill-opacity:1;stroke:none;stroke-width:4;marker:none;visibility:visible;display:inline;overflow:visible;enable-background:accumulate;font-family:Sans;-inkscape-font-specification:Sans"
                   inkscape:connector-curvature="0" />
                <path
                   style="color:#000000;fill:#9ae954;fill-opacity:1;fill-rule:nonzero;stroke:none;stroke-width:60;marker:none;visibility:visible;display:inline;overflow:visible;enable-background:accumulate"
                   d="m -18.665595,-329.38856 c -16.147314,13.56375 -31.223553,23.52965 -40.797438,29.82249 -5.919029,3.89054 -11.209359,8.162 -11.874893,9.22686 l 15.357208,4.9123 42.113559,18.24757 c 0,0 31.435644,-33.98843 39.797354,-41.30494 8.36171,-7.31649 21.392011,-18.81384 21.392011,-18.81384 0,0 -47.17395149,-21.25268 -47.17395149,-19.85907 0,1.39363 -18.81384951,17.76863 -18.81384951,17.76863 z"
                   id="path38760"
                   inkscape:connector-curvature="0"
                   sodipodi:nodetypes="cscccscsc" />
                <path
                   sodipodi:nodetypes="csscscssc"
                   transform="matrix(0.26458334,0,0,0.26458334,-6.3049604e-6,18.562493)"
                   inkscape:connector-curvature="0"
                   id="path38762"
                   d="m -212.47557,-1222.9831 c -41.08817,25.156 -46.11937,-8.3854 -43.60377,0.8385 2.5156,9.2239 27.67162,46.9579 46.9579,59.536 19.28628,12.578 155.967329,36.8955 155.967329,36.8955 0,0 108.170888,-95.593 125.780101,-116.5562 15.264375,-18.1719 113.20209,-77.1452 113.20209,-77.1452 0,0 -180.2848109,-85.5304 -184.4774809,-79.6607 -4.1926701,5.8697 -83.0148661,92.2388 -131.6498391,124.9416 -48.63497,32.7028 -82.17633,51.1505 -82.17633,51.1505 z"
                   style="color:#000000;fill:#9ae954;fill-opacity:1;fill-rule:nonzero;stroke:#0a1103;stroke-width:40;stroke-linecap:round;stroke-linejoin:round;stroke-miterlimit:4;stroke-opacity:1;stroke-dasharray:none;stroke-dashoffset:0;marker:none;visibility:visible;display:inline;overflow:visible;enable-background:accumulate" />
                <path
                   inkscape:connector-curvature="0"
                   id="path38764"
                   d="m -56.875989,-303.48199 c -0.639758,0.39169 -6.07538,4.24152 -10.985635,-1.61476 l -0.221953,1.233 c -0.448154,2.48961 6.992206,13.02789 12.095035,16.35585 5.102828,3.32792 43.596169,20.3698 43.596169,20.3698 0,0 30.727645,-34.56901 34.055577,-39.89367 3.327932,-5.32472 27.521409,-21.28827 27.521409,-21.28827 l -0.141616,-2.35462 c -7.223573,-3.41112 -48.33651709,-20.80903 -49.34414408,-19.39837 -1.10931532,1.55303 -21.96435092,24.40485 -34.83235392,33.05747 -12.868003,8.65261 -21.742488,13.53357 -21.742488,13.53357 z"
                   style="color:#000000;fill:#57991d;fill-opacity:1;fill-rule:nonzero;stroke:none;stroke-width:20;marker:none;visibility:visible;display:inline;overflow:visible;enable-background:accumulate"
                   sodipodi:nodetypes="ccsscsccssc" />
                <path
                   sodipodi:nodetypes="csscscssc"
                   style="color:#000000;fill:#9ae954;fill-opacity:1;fill-rule:nonzero;stroke:none;stroke-width:20;marker:none;visibility:visible;display:inline;overflow:visible;enable-background:accumulate"
                   d="m -212.47557,-1222.9831 c -41.08817,25.156 -46.11937,-8.3854 -43.60377,0.8385 2.5156,9.2239 27.67162,46.9579 46.9579,59.536 19.28628,12.578 158.482931,74.6295 158.482931,74.6295 0,0 122.425965,-128.2958 135.003975,-148.4205 12.57801,-20.1249 101.462614,-83.0149 101.462614,-83.0149 0,0 -180.2848109,-85.5304 -184.4774809,-79.6607 -4.1926701,5.8697 -83.0148661,92.2388 -131.6498391,124.9416 -48.63497,32.7028 -82.17633,51.1505 -82.17633,51.1505 z"
                   id="path38766"
                   inkscape:connector-curvature="0"
                   transform="matrix(0.26458334,0,0,0.26458334,-6.3049604e-6,18.562493)" />
                <path
                   id="path38768"
                   transform="matrix(0.26458334,0,0,0.26458334,-6.3049604e-6,18.562493)"
                   d="m -186.15625,-1238.4062 c -16.45227,9.9674 -26.3125,15.4374 -26.3125,15.4374 -33.12276,20.2793 -42.80535,2.4195 -44,-0.4374 0.0913,0.2671 0.21777,0.6735 0.375,1.25 2.5156,9.2239 27.68247,46.9843 46.96875,59.5624 4.12695,2.6915 13.93065,7.6831 26.5,13.8126 -26.33504,-45.8092 -8.09955,-78.329 -3.53125,-89.625 z"
                   style="opacity:0.36283186;color:#000000;fill:#57991d;fill-opacity:1;fill-rule:nonzero;stroke:none;stroke-width:40;marker:none;visibility:visible;display:inline;overflow:visible;enable-background:accumulate"
                   inkscape:connector-curvature="0" />
                <path
                   id="path38770"
                   transform="matrix(0.26458334,0,0,0.26458334,-6.3049604e-6,18.562493)"
                   d="m 2.25,-1399.375 c -0.4640751,0.01 -0.7752291,0.1291 -0.90625,0.3125 -4.1926701,5.8697 -83.021277,92.2347 -131.65625,124.9375 -48.63497,32.7028 -82.15625,51.1562 -82.15625,51.1562 -33.12276,20.2793 -42.80535,2.4195 -44,-0.4374 0.0913,0.2671 0.21777,0.6735 0.375,1.25 0.91045,3.3383 4.82241,10.4556 10.3125,18.7187 0.009,0 0.0225,0 0.0312,0 6.56046,2.9678 17.64893,3.1933 35.625,-7.8125 0,0 33.55253,-18.4534 82.1875,-51.1562 48.634977,-32.7029 127.43232993,-119.0678 131.625,-124.9376 3.5782137,-5.0094 134.62129,56.1913 173.1875,74.3438 5.15015,-3.7177 8.9375,-6.4062 8.9375,-6.4062 0,0 -169.176171,-80.2885 -183.5625,-79.9688 z"
                   style="color:#000000;fill:#bef48d;fill-opacity:1;fill-rule:nonzero;stroke:none;stroke-width:20;marker:none;visibility:visible;display:inline;overflow:visible;enable-background:accumulate"
                   inkscape:connector-curvature="0" />
                <path
                   inkscape:connector-curvature="0"
                   id="path38772"
                   d="m -7.2222186,-329.04346 c -15.7561494,0 -28.6328144,8.0694 -28.6328144,18.09891 0,10.02949 12.876665,18.09892 28.6328144,18.09892 15.7561489,0 28.6421476,-8.06943 28.6421476,-18.09892 0,-10.02951 -12.8859987,-18.09891 -28.6421476,-18.09891 z m 0,1.12117 c 15.0117017,0 27.0742486,7.63488 27.0742486,16.97774 0,9.34285 -12.0625469,16.97775 -27.0742486,16.97775 -15.0117014,0 -27.0742484,-7.6349 -27.0742484,-16.97775 0,-9.34286 12.062547,-16.97774 27.0742484,-16.97774 z"
                   style="font-size:medium;font-style:normal;font-variant:normal;font-weight:normal;font-stretch:normal;text-indent:0;text-align:start;text-decoration:none;line-height:normal;letter-spacing:normal;word-spacing:normal;text-transform:none;direction:ltr;block-progression:tb;writing-mode:lr-tb;text-anchor:start;baseline-shift:baseline;color:#000000;fill:#57991d;fill-opacity:1;fill-rule:nonzero;stroke:none;stroke-width:5.23837662;marker:none;visibility:visible;display:inline;overflow:visible;enable-background:accumulate;font-family:Sans;-inkscape-font-specification:Sans" />
                <path
                   transform="matrix(0.17311173,-0.1083664,0.1083664,0.17311173,184.36664,-116.39407)"
                   d="m -138.43959,-1403.1809 c 0,13.6069 -19.17225,24.6375 -42.82242,24.6375 -23.65017,0 -42.82242,-11.0306 -42.82242,-24.6375 0,-13.607 19.17225,-24.6376 42.82242,-24.6376 23.65017,0 42.82242,11.0306 42.82242,24.6376 z"
                   sodipodi:ry="24.637556"
                   sodipodi:rx="42.822418"
                   sodipodi:cy="-1403.1809"
                   sodipodi:cx="-181.26201"
                   id="path38774"
                   style="color:#000000;fill:#5d9829;fill-opacity:1;fill-rule:nonzero;stroke:none;stroke-width:40;marker:none;visibility:visible;display:inline;overflow:visible;enable-background:accumulate"
                   sodipodi:type="arc" />
                <path
                   sodipodi:type="arc"
                   style="color:#000000;fill:#57991d;fill-opacity:1;fill-rule:nonzero;stroke:none;stroke-width:40;marker:none;visibility:visible;display:inline;overflow:visible;enable-background:accumulate"
                   id="path38776"
                   sodipodi:cx="-181.26201"
                   sodipodi:cy="-1403.1809"
                   sodipodi:rx="42.822418"
                   sodipodi:ry="24.637556"
                   d="m -138.43959,-1403.1809 c 0,13.6069 -19.17225,24.6375 -42.82242,24.6375 -23.65017,0 -42.82242,-11.0306 -42.82242,-24.6375 0,-13.607 19.17225,-24.6376 42.82242,-24.6376 23.65017,0 42.82242,11.0306 42.82242,24.6376 z"
                   transform="matrix(0.17311173,-0.1083664,0.1083664,0.17311173,169.46678,-57.105062)" />
              </g>
              <path
                 style="color:#000000;fill:#27450d;fill-opacity:1;fill-rule:nonzero;stroke:none;stroke-width:5;marker:none;visibility:visible;display:inline;overflow:visible;enable-background:accumulate"
                 d="m 3369.479,-426.77106 c 2.0532,1.46652 34.6099,15.54512 34.6099,15.54512 l 71.5663,-78.89884 -71.273,82.12519 z"
                 id="path38778"
                 inkscape:connector-curvature="0"
                 transform="matrix(0.26458334,0,0,0.26458334,-6.3049604e-6,18.562493)" />
            </g>
          </g>
          <path
             style="color:#000000;fill:#ffcc00;fill-opacity:1;fill-rule:nonzero;stroke:#1e1c00;stroke-width:6.9167552;stroke-linejoin:round;stroke-miterlimit:4;stroke-opacity:1;stroke-dasharray:none;marker:none;visibility:visible;display:inline;overflow:visible;enable-background:accumulate"
             d="m 877.43009,-143.57675 c 0.23636,-2.23208 25.01743,6.62795 34.64761,15.08042 2.77267,2.43359 5.29985,3.23273 5.32239,3.81139 0,1.27917 0.12998,18.09227 0.12998,18.09227 l -2.21312,5.16299 c 0,0 1.53531,0.83706 10.03201,-7.39361 3.88147,-3.75994 3.23605,-6.65166 3.23605,-6.65166 l 1.20722,-21.48997 c 0,0 -37.91635,-18.58183 -40.65455,-17.81433 -2.73821,0.76749 -14.18889,9.72165 -15.68245,11.76831 -1.49357,2.04668 -0.55672,2.55834 -0.55672,2.55834 1.72328,-1.07559 4.53158,-3.12415 4.53158,-3.12415 z"
             id="path38785"
             inkscape:connector-curvature="0"
             sodipodi:nodetypes="cscccsccsscc" />
          <path
             style="color:#000000;fill:#ff8a00;fill-opacity:1;fill-rule:nonzero;stroke:none;stroke-width:60;marker:none;visibility:visible;display:inline;overflow:visible;enable-background:accumulate"
             d="m 876.18844,-142.80072 c 0,0 40.50732,17.30223 40.50732,18.5814 0,1.27917 -0.0803,17.83269 -0.0803,17.83269 l -2.16275,4.85487 c 0,0 0.32973,0.61188 0.97279,0.17571 1.49982,-1.01729 5.01447,-2.97106 9.71499,-8.31631 3.56861,-4.05808 2.92564,-7.97092 2.92564,-7.97092 l 0.32924,-18.85602 c 0,0 -36.8299,-18.27142 -39.5681,-17.50392 -2.73821,0.76749 -14.49931,11.27372 -15.99287,13.32038 0,0 2.11238,-2.42829 3.35404,-2.11788 z"
             id="path38787"
             inkscape:connector-curvature="0"
             sodipodi:nodetypes="csccssccscc" />
          <path
             sodipodi:nodetypes="csccsccsscc"
             inkscape:connector-curvature="0"
             id="path38481"
             d="m 876.03323,-143.73196 c 0,0 42.05939,17.76785 42.05939,19.04702 0,1.27917 -0.95828,20.46664 -0.95828,20.46664 l -2.24035,3.06999 c 0,0 3.73905,-0.0379 10.45497,-7.67498 3.5686,-4.05809 3.23605,-6.65166 3.23605,-6.65166 l 1.20722,-21.48997 c 0,0 -37.91635,-18.58183 -40.65455,-17.81433 -2.73821,0.76749 -14.18889,9.72165 -15.68245,11.76831 -1.49357,2.04668 -0.55672,2.55834 -0.55672,2.55834 1.10245,-2.00683 3.13472,-3.27936 3.13472,-3.27936 z"
             style="color:#000000;fill:#ffcc00;fill-opacity:1;fill-rule:nonzero;stroke:none;stroke-width:60;marker:none;visibility:visible;display:inline;overflow:visible;enable-background:accumulate" />
          <path
             sodipodi:nodetypes="ccsccsccc"
             inkscape:connector-curvature="0"
             id="path38780"
             transform="matrix(0.26458334,0,0,0.26458334,-6.3049604e-6,18.562493)"
             d="m 3512.5625,-588.59375 c -7.3262,8.649 -28.7346,32.68992 -46.1563,44.4375 2.2907,1.34152 3.5626,2.29319 3.5626,2.75 0,4.83466 -3.631,77.36133 -3.631,77.36133 l -8.4687,11.59375 c 0,0 14.117,-0.13545 39.5,-29 13.4876,-15.33766 12.25,-25.15625 12.25,-25.15625 l 4.5684,-81.20508 c 0,0 -1.2946,-0.62306 -1.625,-0.78125 z"
             style="opacity:0.50442475;color:#000000;fill:#ff6600;fill-opacity:1;fill-rule:nonzero;stroke:none;stroke-width:60;marker:none;visibility:visible;display:inline;overflow:visible;enable-background:accumulate" />
          <path
             sodipodi:nodetypes="ccscccscccsc"
             inkscape:connector-curvature="0"
             id="path38789"
             transform="matrix(0.26458334,0,0,0.26458334,-6.3049604e-6,18.562493)"
             d="m 3361.0776,-655.24377 c -0.2188,0.0141 -0.4007,0.0484 -0.5624,0.0937 -10.3492,2.90075 -53.6363,36.73334 -59.2813,44.46875 -5.645,7.73548 -2.0937,9.6875 -2.0937,9.6875 4.1667,-7.58487 11.8437,-12.40625 11.8437,-12.40625 0,0 7.7464,3.1785 12.5,5.125 13.0629,-13.64033 42.2599,-36.18597 48.3437,-35.25 7.626,1.17322 133.1581,53.39465 131.9849,58.08752 -1.1733,4.69287 -29.811,33.68586 -26.8779,31.92603 2.1348,-1.28092 31.917,-24.50347 36.9404,-34.45728 -1.769,-0.84861 -139.1114,-68.15761 -152.7974,-67.27502 z"
             style="opacity:0.50442475;color:#000000;fill:#ffff00;fill-opacity:1;fill-rule:nonzero;stroke:none;stroke-width:29;marker:none;visibility:visible;display:inline;overflow:visible;enable-background:accumulate" />
          <path
             transform="matrix(0.26458334,0,0,0.26458334,-6.3049604e-6,18.562493)"
             inkscape:connector-curvature="0"
             id="path38810"
             d="m 3464.3629,-494.23104 c 0,0 2.6398,1.90648 3.6663,1.02657 1.0266,-0.87991 28.0106,-24.05095 34.4633,-31.67686 6.4527,-7.62591 8.7991,-10.85226 8.7991,-10.85226 0,0 0.7405,-2.33397 0,-1.90647 -0.7404,0.4275 -31.8235,31.2369 -35.3431,33.58333 -3.5197,2.34644 -6.4527,6.45269 -7.9193,6.59935 -1.4665,0.14665 -3.8129,0.43995 -3.8129,0.43995 z"
             style="color:#000000;fill:#ffcc00;fill-opacity:1;fill-rule:nonzero;stroke:none;stroke-width:4;marker:none;visibility:visible;display:inline;overflow:visible;enable-background:accumulate" />
          <path
             sodipodi:nodetypes="ccccccc"
             inkscape:connector-curvature="0"
             id="path38802"
             transform="matrix(0.26458334,0,0,0.26458334,-6.3049604e-6,18.562493)"
             d="m 3511.625,-542.125 c -3.4694,8.34927 -23.3022,27.76075 -43.5,42 l -3.5076,5.4e-4 c -0.01,2.23788 -0.014,2.80723 -0.022,4.21084 l 3.4414,0.32947 c 13.861,-9.95657 28.6405,-25.88329 43.244,-40.66585 z"
             style="font-size:medium;font-style:normal;font-variant:normal;font-weight:normal;font-stretch:normal;text-indent:0;text-align:start;text-decoration:none;line-height:normal;letter-spacing:normal;word-spacing:normal;text-transform:none;direction:ltr;block-progression:tb;writing-mode:lr-tb;text-anchor:start;baseline-shift:baseline;color:#000000;fill:#8d4c00;fill-opacity:1;stroke:none;stroke-width:4;marker:none;visibility:visible;display:inline;overflow:visible;enable-background:accumulate;font-family:Sans;-inkscape-font-specification:Sans" />
        </g>
      </g>
    </g>
  </g>
</svg>
