<?xml version="1.0" encoding="UTF-8" standalone="no"?>
<!-- Created with Inkscape (http://www.inkscape.org/) -->

<svg
   xmlns:dc="http://purl.org/dc/elements/1.1/"
   xmlns:cc="http://creativecommons.org/ns#"
   xmlns:rdf="http://www.w3.org/1999/02/22-rdf-syntax-ns#"
   xmlns:svg="http://www.w3.org/2000/svg"
   xmlns="http://www.w3.org/2000/svg"
   xmlns:xlink="http://www.w3.org/1999/xlink"
   xmlns:sodipodi="http://sodipodi.sourceforge.net/DTD/sodipodi-0.dtd"
   xmlns:inkscape="http://www.inkscape.org/namespaces/inkscape"
   width="256"
   height="256"
   viewBox="0 0 67.73333 67.733335"
   version="1.1"
   id="svg23489"
   inkscape:version="0.48.5 r10040"
   sodipodi:docname="coin_silver_single.svg">
  <defs
     id="defs23483">
    <linearGradient
       inkscape:collect="always"
       xlink:href="#linearGradient20669"
       id="linearGradient30640"
       gradientUnits="userSpaceOnUse"
       x1="2802.0522"
       y1="-675.58698"
       x2="2802.2722"
       y2="-687.21564" />
    <linearGradient
       inkscape:collect="always"
       id="linearGradient20669">
      <stop
         style="stop-color:#2998ff;stop-opacity:1"
         offset="0"
         id="stop20671" />
      <stop
         style="stop-color:#72bbff;stop-opacity:1"
         offset="1"
         id="stop20673" />
    </linearGradient>
    <linearGradient
       inkscape:collect="always"
       xlink:href="#linearGradient20491"
       id="linearGradient30642"
       gradientUnits="userSpaceOnUse"
       x1="10858.396"
       y1="-2257.4426"
       x2="10787.035"
       y2="-2323.7148" />
    <linearGradient
       inkscape:collect="always"
       id="linearGradient20491">
      <stop
         style="stop-color:#4eaaff;stop-opacity:1"
         offset="0"
         id="stop20493" />
      <stop
         style="stop-color:#92e3ff;stop-opacity:1"
         offset="1"
         id="stop20495" />
    </linearGradient>
    <linearGradient
       inkscape:collect="always"
       xlink:href="#linearGradient20253"
       id="linearGradient30644"
       gradientUnits="userSpaceOnUse"
       x1="2784.8838"
       y1="-677.55432"
       x2="2799.6172"
       y2="-677.55432" />
    <linearGradient
       id="linearGradient20253"
       inkscape:collect="always">
      <stop
         id="stop20255"
         offset="0"
         style="stop-color:#b0ebff;stop-opacity:1" />
      <stop
         id="stop20257"
         offset="1"
         style="stop-color:#70c7ff;stop-opacity:1" />
    </linearGradient>
    <linearGradient
       inkscape:collect="always"
       xlink:href="#linearGradient20669"
       id="linearGradient39976"
       gradientUnits="userSpaceOnUse"
       x1="2802.0522"
       y1="-675.58698"
       x2="2802.2722"
       y2="-687.21564" />
    <linearGradient
       inkscape:collect="always"
       xlink:href="#linearGradient20491"
       id="linearGradient39978"
       gradientUnits="userSpaceOnUse"
       x1="10858.396"
       y1="-2257.4426"
       x2="10787.035"
       y2="-2323.7148" />
    <linearGradient
       inkscape:collect="always"
       xlink:href="#linearGradient20253"
       id="linearGradient39980"
       gradientUnits="userSpaceOnUse"
       x1="2784.8838"
       y1="-677.55432"
       x2="2799.6172"
       y2="-677.55432" />
  </defs>
  <sodipodi:namedview
     id="base"
     pagecolor="#a6abb0"
     bordercolor="#666666"
     borderopacity="1.0"
     inkscape:pageopacity="0.09019608"
     inkscape:pageshadow="2"
     inkscape:zoom="3.2673448"
     inkscape:cx="260.55516"
     inkscape:cy="30.121163"
     inkscape:document-units="px"
     inkscape:current-layer="layer1"
     showgrid="false"
     inkscape:pagecheckerboard="false"
     showborder="true"
     units="px"
     inkscape:window-width="1920"
     inkscape:window-height="1017"
     inkscape:window-x="-8"
     inkscape:window-y="-8"
     inkscape:window-maximized="1"
     inkscape:showpageshadow="false"
     guidetolerance="28">
    <inkscape:grid
       type="xygrid"
       id="grid24034"
       spacingx="1px"
       spacingy="1px"
       empspacing="8"
       visible="true"
       enabled="true"
       snapvisiblegridlinesonly="true" />
  </sodipodi:namedview>
  <metadata
     id="metadata23486">
    <rdf:RDF>
      <cc:Work
         rdf:about="">
        <dc:format>image/svg+xml</dc:format>
        <dc:type
           rdf:resource="http://purl.org/dc/dcmitype/StillImage" />
        <dc:title />
        <cc:license
           rdf:resource="" />
        <dc:creator>
          <cc:Agent>
            <dc:title>Robert Brooks</dc:title>
          </cc:Agent>
        </dc:creator>
      </cc:Work>
    </rdf:RDF>
  </metadata>
  <g
     inkscape:label="Layer 1"
     inkscape:groupmode="layer"
     id="layer1"
     transform="translate(0,-229.26665)">
    <g
       transform="matrix(1.971295,0,0,1.971295,-5472.9255,1606.034)"
       id="g30602">
      <g
         id="g30604">
        <g
           id="g30606">
          <path
             style="color:#000000;fill:#ffd226;fill-opacity:1;fill-rule:nonzero;stroke:none;stroke-width:4.39350176000000040;stroke-linejoin:round;stroke-miterlimit:4;stroke-dasharray:none;marker:none;visibility:visible;display:inline;overflow:visible;enable-background:accumulate"
             d="m 2790.5936,-694.72112 c -3.8286,0.19225 -7.1075,2.93746 -8.7218,6.29989 -2.7794,5.60329 -2.1045,13.02554 2.2662,17.64387 1.9878,2.15292 4.9453,3.25025 7.8533,3.10322 2.7554,-0.16735 5.7232,0.38388 8.255,-1.00319 3.5729,-2.40041 6.3815,-6.97511 6.4998,-11.60701 0.2778,-5.08998 -1.9402,-10.64601 -6.4945,-13.26071 -1.7946,-1.0768 -3.915,-1.23084 -5.9536,-1.15974 -1.2332,-0.0566 -2.4731,-0.1605 -3.7044,-0.0163 z"
             id="path30608"
             inkscape:connector-curvature="0"
             sodipodi:nodetypes="cccccccccc" />
          <g
             id="g30610">
            <path
               inkscape:connector-curvature="0"
               id="path30612"
               transform="matrix(0.26458334,0,0,0.26458334,-6.3049604e-6,18.562493)"
               d="m 10550.594,-2696.0625 c -1.805,0.037 -3.314,0.1244 -4.25,0.3125 -0.04,0.02 -0.08,0.042 -0.125,0.062 -21.352,1.3642 -38.344,23.6239 -38.344,50.875 0,26.8117 16.447,48.7489 37.313,50.75 0.04,0.019 0.08,0.044 0.124,0.062 2.423,0.7309 19.974,0.094 24.063,0.094 21.51,0 38.937,-22.776 38.937,-50.9063 0,-28.1302 -19.208,-50.9375 -40.718,-50.9375 -3.482,0 -11.585,-0.4247 -17,-0.3125 z"
               style="color:#000000;fill:#ffd226;fill-opacity:1;fill-rule:nonzero;stroke:#000c1e;stroke-width:9.96321678;stroke-miterlimit:4;stroke-opacity:1;stroke-dasharray:none;marker:none;visibility:visible;display:inline;overflow:visible;enable-background:accumulate" />
            <path
               sodipodi:nodetypes="sscscsss"
               inkscape:connector-curvature="0"
               id="path30614"
               d="m 2806.7867,-681.21444 c 0,7.44281 -4.6136,13.4764 -10.3047,13.4764 -1.082,0 -5.7232,0.16769 -6.3642,-0.0257 -4.1739,-1.7226 -3.9409,-7.42286 -3.9409,-13.45073 0,-5.83665 0.2386,-11.59735 4.2078,-13.47057 0.9905,-0.19902 4.3946,-0.006 5.6228,-0.006 5.6912,0 10.7792,6.03358 10.7792,13.47637 z"
               style="color:#000000;fill:url(#linearGradient39976);fill-opacity:1;fill-rule:nonzero;stroke:none;stroke-width:12;marker:none;visibility:visible;display:inline;overflow:visible;enable-background:accumulate" />
            <path
               inkscape:connector-curvature="0"
               id="path30616"
               transform="matrix(0.26458334,0,0,0.26458334,-6.3049604e-6,18.562493)"
               d="m 10550.594,-2696.0625 c -1.805,0.037 -3.314,0.1244 -4.25,0.3125 -7.928,3.7414 -11.906,5.768 -13.906,15.5899 0,0 19.152,-6.5004 52.983,-3.1173 l 15.079,8.9649 c -7.579,-12.9772 -19.801,-21.4375 -32.906,-21.4375 -3.482,0 -11.585,-0.4247 -17,-0.3125 z"
               style="opacity:0.27433627;color:#000000;fill:#ffffff;fill-opacity:1;fill-rule:nonzero;stroke:none;stroke-width:12;marker:none;visibility:visible;display:inline;overflow:visible;enable-background:accumulate"
               sodipodi:nodetypes="cccccsc" />
            <path
               style="opacity:0.3539823;color:#000000;fill:#2a5897;fill-opacity:1;fill-rule:nonzero;stroke:none;stroke-width:12;marker:none;visibility:visible;display:inline;overflow:visible;enable-background:accumulate"
               d="m 9690.5312,-2757.1875 c -2.591,0 -4.6874,2.0963 -4.6874,4.6875 l 0,39.5312 c 0.4461,0.2885 0.8996,0.5565 1.375,0.8126 0.094,0.051 0.1858,0.1068 0.2812,0.1562 0.042,0.021 0.083,0.041 0.125,0.062 0.4595,0.2338 0.9404,0.4511 1.4375,0.6563 0.3029,0.091 0.8427,0.1662 1.5625,0.2187 3.5989,0.2627 11.698,0.09 17.3438,-0.031 2.2582,-0.048 4.1339,-0.094 5.1562,-0.094 20.238,0 36.8541,-20.1827 38.75,-46 l -61.3438,0 z"
               transform="matrix(0.26458334,0,0,0.26458334,226.55305,49.59298)"
               id="path30618"
               inkscape:connector-curvature="0" />
            <path
               sodipodi:nodetypes="sssss"
               inkscape:connector-curvature="0"
               style="color:#000000;fill:#ffdb4f;fill-opacity:1;fill-rule:nonzero;stroke:#000c1e;stroke-width:12;stroke-opacity:1;marker:none;visibility:visible;display:inline;overflow:visible;enable-background:accumulate"
               d="m 10814.542,-2289.5706 c 0,28.1303 -8.063,50.9344 -36.193,50.9344 -28.131,0 -50.935,-22.8041 -50.935,-50.9344 0,-28.1302 22.804,-50.9343 50.935,-50.9343 28.13,0 36.193,22.8041 36.193,50.9343 z"
               id="path30620"
               transform="matrix(0.20990929,0,0,0.26458334,528.42577,-75.432202)" />
            <path
               inkscape:connector-curvature="0"
               transform="matrix(0.20990929,0,0,0.26458334,528.42577,-75.432202)"
               id="path30622"
               d="m 10829.283,-2289.5706 c 0,28.1303 -22.804,50.9344 -50.934,50.9344 -28.131,0 -50.935,-22.8041 -50.935,-50.9344 0,-28.1302 22.804,-50.9343 50.935,-50.9343 28.13,0 50.934,22.8041 50.934,50.9343 z"
               style="color:#000000;fill:url(#linearGradient39978);fill-opacity:1;fill-rule:nonzero;stroke:none;stroke-width:12;marker:none;visibility:visible;display:inline;overflow:visible;enable-background:accumulate" />
            <path
               sodipodi:nodetypes="sscsscs"
               inkscape:connector-curvature="0"
               id="path30624"
               transform="matrix(0.26458334,0,0,0.26458334,-6.3049604e-6,18.562493)"
               d="m 10548.281,-2695.75 c -22.318,0 -40.406,22.8073 -40.406,50.9375 0,8.5027 1.671,16.4844 4.594,23.5313 -1.736,-5.6802 -2.719,-11.83 -2.719,-18.2813 0,-28.1302 13.436,-52.6652 38.944,-52.6652 18.565,0 30.652,12.9369 37.368,29.3215 -5.787,-19.2029 -20.516,-32.8438 -37.781,-32.8438 z"
               style="color:#000000;fill:#ffffff;fill-opacity:1;fill-rule:nonzero;stroke:none;stroke-width:12;marker:none;visibility:visible;display:inline;overflow:visible;enable-background:accumulate" />
            <path
               inkscape:connector-curvature="0"
               id="path30626"
               transform="matrix(0.26458334,0,0,0.26458334,-6.3049604e-6,18.562493)"
               d="m 10588.312,-2651.8438 c 0,0.3333 0,0.6652 0,1 0,28.1304 -18.089,50.9376 -40.406,50.9376 -20.415,0 -37.27,-19.0905 -40,-43.875 0.442,27.6473 18.335,49.875 40.375,49.875 22.317,0 40.407,-22.776 40.407,-50.9063 0,-2.3795 -0.125,-4.7386 -0.376,-7.0313 z"
               style="opacity:0.23008848;color:#000000;fill:#417ac6;fill-opacity:1;fill-rule:nonzero;stroke:none;stroke-width:12;marker:none;visibility:visible;display:inline;overflow:visible;enable-background:accumulate" />
          </g>
        </g>
        <g
           transform="matrix(0.69773121,0,0,0.69773121,842.59044,-208.20954)"
           id="g30628">
          <path
             sodipodi:nodetypes="sssss"
             inkscape:connector-curvature="0"
             style="color:#000000;fill:#ffdb4f;fill-opacity:1;fill-rule:nonzero;stroke:#000c1e;stroke-width:2.82799292;stroke-opacity:1;marker:none;visibility:visible;display:inline;overflow:visible;enable-background:accumulate"
             d="m 2800.0459,-678.12006 c 0,7.4428 -1.6925,13.47639 -7.5973,13.47639 -5.9049,0 -10.6917,-6.03359 -10.6917,-13.47639 0,-7.44279 4.7868,-13.47637 10.6917,-13.47637 5.9048,0 7.5973,6.03358 7.5973,13.47637 z"
             id="path30630" />
          <path
             inkscape:connector-curvature="0"
             id="path30632"
             d="m 2803.1401,-678.12006 c 0,7.4428 -4.7867,13.47639 -10.6915,13.47639 -5.9049,0 -10.6917,-6.03359 -10.6917,-13.47639 0,-7.44279 4.7868,-13.47637 10.6917,-13.47637 5.9048,0 10.6915,6.03358 10.6915,13.47637 z"
             style="color:#000000;fill:url(#linearGradient39980);fill-opacity:1;fill-rule:nonzero;stroke:none;stroke-width:12;marker:none;visibility:visible;display:inline;overflow:visible;enable-background:accumulate" />
          <path
             inkscape:connector-curvature="0"
             id="path30634"
             transform="matrix(0.37920525,0,0,0.37920525,-1207.6147,325.01346)"
             d="m 10548.531,-2680.9062 c -15.572,0 -28.187,15.9351 -28.187,35.5624 0,19.6274 12.615,35.5313 28.187,35.5313 0.973,0 1.959,-0.066 2.907,-0.1875 -14.188,-1.8557 -25.25,-16.9697 -25.25,-35.3438 0,-18.374 11.062,-33.5192 25.25,-35.375 -0.948,-0.1213 -1.934,-0.1874 -2.907,-0.1874 z"
             style="color:#000000;fill:#2981da;fill-opacity:1;fill-rule:nonzero;stroke:none;stroke-width:12;marker:none;visibility:visible;display:inline;overflow:visible;enable-background:accumulate" />
        </g>
        <path
           style="color:#000000;fill:#000c1e;fill-opacity:1;fill-rule:nonzero;stroke:none;stroke-width:20;marker:none;visibility:visible;display:inline;overflow:visible;enable-background:accumulate"
           d="m 9697.375,-2799.4062 c -13.423,0.5316 -23,17 -23,17 12.2231,-15.5338 24.7567,-15.7253 26.7188,-15.1563 l -3.7188,-1.8437 z m -19.1562,61.9062 c 7.177,11.5624 16.75,12.0938 16.75,12.0938 l 3.3124,-1.7188 c 0,0 -9.7944,0.1522 -20.0624,-10.375 z"
           transform="matrix(0.26458334,0,0,0.26458334,226.55305,49.59298)"
           id="path30636"
           inkscape:connector-curvature="0" />
      </g>
    </g>
  </g>
</svg>
