<?xml version="1.0" encoding="UTF-8" standalone="no"?>
<!-- Created with Inkscape (http://www.inkscape.org/) -->

<svg
   xmlns:dc="http://purl.org/dc/elements/1.1/"
   xmlns:cc="http://creativecommons.org/ns#"
   xmlns:rdf="http://www.w3.org/1999/02/22-rdf-syntax-ns#"
   xmlns:svg="http://www.w3.org/2000/svg"
   xmlns="http://www.w3.org/2000/svg"
   xmlns:xlink="http://www.w3.org/1999/xlink"
   xmlns:sodipodi="http://sodipodi.sourceforge.net/DTD/sodipodi-0.dtd"
   xmlns:inkscape="http://www.inkscape.org/namespaces/inkscape"
   width="256"
   height="256"
   viewBox="0 0 67.73333 67.733335"
   version="1.1"
   id="svg23489"
   inkscape:version="0.48.5 r10040"
   sodipodi:docname="cross_icon.svg">
  <defs
     id="defs23483">
    <linearGradient
       inkscape:collect="always"
       xlink:href="#linearGradient18641"
       id="linearGradient22031"
       gradientUnits="userSpaceOnUse"
       x1="2610.937"
       y1="-687.62122"
       x2="2619.4902"
       y2="-672.30493" />
    <linearGradient
       inkscape:collect="always"
       id="linearGradient18641">
      <stop
         style="stop-color:#db0c0c;stop-opacity:1;"
         offset="0"
         id="stop18643" />
      <stop
         style="stop-color:#b70a0a;stop-opacity:1"
         offset="1"
         id="stop18645" />
    </linearGradient>
  </defs>
  <sodipodi:namedview
     id="base"
     pagecolor="#a6abb0"
     bordercolor="#666666"
     borderopacity="1.0"
     inkscape:pageopacity="0.09019608"
     inkscape:pageshadow="2"
     inkscape:zoom="2.3103615"
     inkscape:cx="49.508219"
     inkscape:cy="26.399922"
     inkscape:document-units="px"
     inkscape:current-layer="layer1"
     showgrid="false"
     inkscape:pagecheckerboard="false"
     showborder="true"
     units="px"
     inkscape:window-width="1920"
     inkscape:window-height="1017"
     inkscape:window-x="-8"
     inkscape:window-y="-8"
     inkscape:window-maximized="1"
     inkscape:showpageshadow="false"
     guidetolerance="28">
    <inkscape:grid
       type="xygrid"
       id="grid24034"
       spacingx="1px"
       spacingy="1px"
       empspacing="8"
       visible="true"
       enabled="true"
       snapvisiblegridlinesonly="true" />
  </sodipodi:namedview>
  <metadata
     id="metadata23486">
    <rdf:RDF>
      <cc:Work
         rdf:about="">
        <dc:format>image/svg+xml</dc:format>
        <dc:type
           rdf:resource="http://purl.org/dc/dcmitype/StillImage" />
        <dc:title />
        <cc:license
           rdf:resource="" />
        <dc:creator>
          <cc:Agent>
            <dc:title>Robert Brooks</dc:title>
          </cc:Agent>
        </dc:creator>
      </cc:Work>
    </rdf:RDF>
  </metadata>
  <g
     inkscape:label="Layer 1"
     inkscape:groupmode="layer"
     id="layer1"
     transform="translate(0,-229.26665)">
    <g
       transform="matrix(1.6843908,0,0,1.6843908,-4371.7526,1406.3937)"
       id="g21413">
      <g
         id="g21415">
        <path
           style="color:#000000;fill:#670000;fill-opacity:1;fill-rule:nonzero;stroke:none;stroke-width:4.71238612999999960;stroke-linejoin:round;stroke-miterlimit:4;stroke-opacity:1;stroke-dasharray:none;marker:none;visibility:visible;display:inline;overflow:visible;enable-background:accumulate"
           d="m 2609.9906,-692.60445 c -2.0131,0.0473 -3.0538,2.06498 -4.434,3.22723 -1.2263,1.32327 -3.0859,2.47765 -3.0476,4.50153 -0.1376,1.80802 0.5132,3.60316 1.9872,4.70602 0.8121,0.69074 1.9999,1.62707 0.5405,2.35011 -1.2349,1.20094 -2.8836,2.51137 -2.4985,4.46352 -0.067,1.49285 0.3185,3.07099 1.6188,3.95241 1.4777,1.4144 2.8461,2.96862 4.4635,4.22133 1.4736,0.82291 3.2324,-0.006 4.1631,-1.25135 0.9074,-0.90747 1.8149,-1.81495 2.7224,-2.72242 1.3989,1.30941 2.625,2.82264 4.1577,3.97699 1.6498,0.92102 3.4377,-0.22806 4.4601,-1.53379 1.369,-1.34907 2.738,-2.69817 4.107,-4.04724 0.5337,-1.73677 0.598,-3.93881 -0.6134,-5.40137 -0.6905,-1.23128 -3.6675,-2.35205 -1.5461,-3.54664 1.3142,-1.19538 2.8517,-2.52644 2.5128,-4.51328 0.1146,-1.8876 -1.0747,-3.36266 -2.4436,-4.49999 -1.3975,-1.21313 -2.4535,-2.86211 -4.1287,-3.72309 -1.5688,-0.64537 -3.0565,0.51283 -4.015,1.6565 -0.8276,0.82756 -1.6551,1.65513 -2.4827,2.48269 -1.375,-1.29332 -2.5926,-2.77046 -4.0861,-3.92762 -0.4372,-0.24297 -0.9369,-0.37373 -1.4374,-0.37154 z"
           id="path21417"
           inkscape:connector-curvature="0"
           gds_outline="1" />
        <path
           inkscape:connector-curvature="0"
           id="path21419"
           d="m 2609.9906,-692.60445 c -2.0131,0.0473 -3.0538,2.06498 -4.434,3.22723 -1.2263,1.32327 -3.0859,2.47765 -3.0476,4.50153 -0.1376,1.80802 0.5132,3.60316 1.9872,4.70602 0.8121,0.69074 1.9999,1.62707 0.5405,2.35011 -1.2349,1.20094 -2.8836,2.51137 -2.4985,4.46352 -0.067,1.49285 0.3185,3.07099 1.6188,3.95241 1.4777,1.4144 2.8461,2.96862 4.4635,4.22133 1.4736,0.82291 3.2324,-0.006 4.1631,-1.25135 0.9074,-0.90747 1.8149,-1.81495 2.7224,-2.72242 1.3989,1.30941 2.625,2.82264 4.1577,3.97699 1.6498,0.92102 3.4377,-0.22806 4.4601,-1.53379 1.369,-1.34907 2.738,-2.69817 4.107,-4.04724 0.5337,-1.73677 0.598,-3.93881 -0.6134,-5.40137 -0.6905,-1.23128 -3.6675,-2.35205 -1.5461,-3.54664 1.3142,-1.19538 2.8517,-2.52644 2.5128,-4.51328 0.1146,-1.8876 -1.0747,-3.36266 -2.4436,-4.49999 -1.3975,-1.21313 -2.4535,-2.86211 -4.1287,-3.72309 -1.5688,-0.64537 -3.0565,0.51283 -4.015,1.6565 -0.8276,0.82756 -1.6551,1.65513 -2.4827,2.48269 -1.375,-1.29332 -2.5926,-2.77046 -4.0861,-3.92762 -0.4372,-0.24297 -0.9369,-0.37373 -1.4374,-0.37154 z"
           style="color:#000000;fill:#670000;fill-opacity:1;fill-rule:nonzero;stroke:#130101;stroke-width:2.57983947;stroke-linejoin:round;stroke-miterlimit:4;stroke-opacity:1;stroke-dasharray:none;marker:none;visibility:visible;display:inline;overflow:visible;enable-background:accumulate" />
        <g
           transform="translate(-0.39782676,0.79565352)"
           id="g21421">
          <path
             inkscape:connector-curvature="0"
             id="path21423"
             d="m 2603.7683,-687.87 c -1.3865,0.86007 -0.8442,4.91759 -0.1053,5.66003 l 3.5986,3.61623 -3.9254,2.30918 c -0.7452,0.43839 -0.3881,4.52125 0.1867,5.08558 l 4.777,4.68991 c 1.1644,1.14314 3.0118,1.15388 4.1656,1.6e-4 l 3.4405,-3.4405 3.4404,3.44042 c 1.1538,1.15382 3.0039,1.14589 4.1656,1.9e-4 l 5.1183,-5.048 c 0.48,-0.47334 0.483,-4.45812 -0.3341,-4.92177 l -3.7393,-2.12179 3.8382,-3.81332 c 0.8804,-0.88043 0.6658,-4.01298 -0.05,-5.08585 l -4.8267,-3.18562 c -1.3619,-0.89882 -3.0119,-1.15383 -4.1659,10e-5 l -3.4403,3.44036 -3.4404,-3.44042 c -1.1538,-1.15381 -2.7793,-0.8601 -4.1658,-3e-5 z"
             style="color:#000000;fill:#670000;fill-opacity:1;fill-rule:nonzero;stroke:none;stroke-width:12;marker:none;visibility:visible;display:inline;overflow:visible;enable-background:accumulate"
             sodipodi:nodetypes="sscsssccsssscccsccsss" />
          <path
             style="color:#000000;fill:url(#linearGradient22031);fill-opacity:1;fill-rule:nonzero;stroke:none;stroke-width:12;marker:none;visibility:visible;display:inline;overflow:visible;enable-background:accumulate"
             d="m 2603.821,-688.05133 c -1.1537,1.15372 -1.1536,3.01178 2e-4,4.1656 l 3.4404,3.44041 -3.4405,3.4405 c -1.1537,1.15372 -1.1536,3.0118 2e-4,4.16561 l 4.4786,4.47856 c 1.1538,1.15379 3.0118,1.15388 4.1656,1.6e-4 l 3.4405,-3.4405 3.4404,3.44042 c 1.1538,1.15382 3.0119,1.1539 4.1656,1.9e-4 l 4.4854,-4.48539 c 1.1537,-1.15372 1.1537,-3.01194 -1e-4,-4.16576 l -3.4404,-3.44041 3.4404,-3.44036 c 1.1539,-1.15393 1.1539,-3.01208 1e-4,-4.16587 l -4.4786,-4.47856 c -1.1538,-1.15381 -3.0119,-1.15383 -4.1659,1e-4 l -3.4403,3.44036 -3.4404,-3.44042 c -1.1538,-1.15381 -3.0121,-1.15374 -4.1658,-3e-5 l -4.4854,4.48539 z"
             id="path21425"
             inkscape:connector-curvature="0" />
          <path
             inkscape:connector-curvature="0"
             style="color:#000000;fill:#ff0000;fill-opacity:1;fill-rule:nonzero;stroke:none;stroke-width:12;marker:none;visibility:visible;display:inline;overflow:visible;enable-background:accumulate"
             d="m 9866.0312,-2690.875 c -2.846,0 -5.6947,1.0698 -7.875,3.25 l -16.9374,16.9688 c -2.3724,2.3724 -3.4593,5.5339 -3.25,8.625 0.1751,-2.5903 1.2619,-5.137 3.25,-7.125 l 16.9374,-16.9688 c 4.3605,-4.3605 11.3892,-4.3609 15.75,0 l 13,13 13,-13 c 4.3616,-4.3613 11.3892,-4.3608 15.75,0 l 16.9376,16.9375 c 1.9879,1.9879 3.0433,4.535 3.2187,7.125 0.2095,-3.0916 -0.8459,-6.2522 -3.2187,-8.625 l -16.9376,-16.9375 c -4.3608,-4.3609 -11.3884,-4.3613 -15.75,0 l -13,13 -13,-13 c -2.1804,-2.1804 -5.0289,-3.25 -7.875,-3.25 z m 54.3126,49.6875 -0.75,0.75 13,13 c 1.9879,1.988 3.0432,4.5349 3.2187,7.125 0.2094,-3.0915 -0.8459,-6.2521 -3.2187,-8.625 l -12.25,-12.25 z m -66.875,0.031 -12.25,12.25 c -2.3724,2.3724 -3.4593,5.5339 -3.25,8.625 0.1751,-2.5903 1.2619,-5.137 3.25,-7.125 l 13,-13 -0.75,-0.75 z"
             transform="matrix(0.26458334,0,0,0.26458334,-6.3049604e-6,18.562493)"
             id="path21427" />
        </g>
      </g>
      <path
         style="color:#000000;fill:#130101;fill-opacity:1;fill-rule:nonzero;stroke:none;stroke-width:25;marker:none;visibility:visible;display:inline;overflow:visible;enable-background:accumulate"
         d="m 9884.0738,-2595.7557 1.0632,-10.2907 1.8606,10.8223 z"
         id="path21429"
         inkscape:connector-curvature="0"
         transform="matrix(0.26458334,0,0,0.26458334,-6.3049604e-6,18.562493)"
         sodipodi:nodetypes="cccc" />
    </g>
  </g>
</svg>
