<?xml version="1.0" encoding="UTF-8" standalone="no"?>
<!-- Created with Inkscape (http://www.inkscape.org/) -->

<svg
   xmlns:dc="http://purl.org/dc/elements/1.1/"
   xmlns:cc="http://creativecommons.org/ns#"
   xmlns:rdf="http://www.w3.org/1999/02/22-rdf-syntax-ns#"
   xmlns:svg="http://www.w3.org/2000/svg"
   xmlns="http://www.w3.org/2000/svg"
   xmlns:sodipodi="http://sodipodi.sourceforge.net/DTD/sodipodi-0.dtd"
   xmlns:inkscape="http://www.inkscape.org/namespaces/inkscape"
   width="234.30399"
   height="223.52931"
   viewBox="0 0 61.992926 59.142132"
   version="1.1"
   id="svg23489"
   inkscape:version="0.48.5 r10040"
   sodipodi:docname="New document 14">
  <defs
     id="defs23483" />
  <sodipodi:namedview
     id="base"
     pagecolor="#7d848b"
     bordercolor="#666666"
     borderopacity="1.0"
     inkscape:pageopacity="1"
     inkscape:pageshadow="2"
     inkscape:zoom="0.85235729"
     inkscape:cx="241.90629"
     inkscape:cy="-17.46292"
     inkscape:document-units="px"
     inkscape:current-layer="layer1"
     showgrid="false"
     inkscape:pagecheckerboard="false"
     showborder="true"
     units="px"
     inkscape:window-width="1920"
     inkscape:window-height="1017"
     inkscape:window-x="-8"
     inkscape:window-y="-8"
     inkscape:window-maximized="1"
     inkscape:showpageshadow="false"
     guidetolerance="28"
     fit-margin-top="0"
     fit-margin-left="0"
     fit-margin-right="0"
     fit-margin-bottom="0">
    <inkscape:grid
       type="xygrid"
       id="grid24034"
       spacingx="1px"
       spacingy="1px"
       empspacing="8"
       visible="true"
       enabled="true"
       snapvisiblegridlinesonly="true"
       originx="-130.89823px"
       originy="-394.70255px" />
  </sodipodi:namedview>
  <metadata
     id="metadata23486">
    <rdf:RDF>
      <cc:Work
         rdf:about="">
        <dc:format>image/svg+xml</dc:format>
        <dc:type
           rdf:resource="http://purl.org/dc/dcmitype/StillImage" />
        <dc:title></dc:title>
        <cc:license
           rdf:resource="" />
        <dc:creator>
          <cc:Agent>
            <dc:title>Robert Brooks</dc:title>
          </cc:Agent>
        </dc:creator>
      </cc:Work>
    </rdf:RDF>
  </metadata>
  <g
     inkscape:label="Layer 1"
     inkscape:groupmode="layer"
     id="layer1"
     transform="translate(-34.633491,-133.42613)">
    <g
       transform="matrix(0.77743684,0,0,0.77743684,-571.03419,-28.073937)"
       id="g17040">
      <path
         inkscape:connector-curvature="0"
         id="path16900"
         transform="matrix(0.26458334,0,0,0.26458334,39.538024,-286.57767)"
         d="m 2946.5312,1911.7188 -65.4687,41.4062 -0.094,0.031 -0.125,0.063 c -0.036,-0.052 -0.046,-0.023 -0.063,0.062 l -0.3437,0.2188 -32.7187,107.1875 -7.125,23.4063 c -2.248,0.9378 136.1957,25.3942 141.2187,26.2812 l 1.4063,0.7812 0.1874,0.094 65.2188,-42.875 0.031,-0.031 2.2188,-35.6563 0,-0.031 -10.0625,-69.5 -7.7813,-5 -19.1562,-12.3437 0,0.031 -14.125,-9.0626 0,-0.031 -6.75,-4.3438 0,0.031 -10.2812,-6.5937 -1.5313,-2.4376 -0.031,0 -34.625,-11.6874 z"
         style="color:#000000;fill:#ff6600;fill-opacity:1;fill-rule:nonzero;stroke:#002228;stroke-width:24;stroke-linecap:round;stroke-linejoin:round;stroke-miterlimit:4;stroke-opacity:1;stroke-dasharray:none;stroke-dashoffset:0;marker:none;visibility:visible;display:inline;overflow:visible;enable-background:accumulate" />
      <g
         transform="matrix(-0.85798683,-0.06321463,-0.05153545,0.86386252,1431.7808,17.000516)"
         id="g16749">
        <g
           id="g16723"
           transform="matrix(0.55193898,0,0,0.55193898,372.74014,116.06562)">
          <path
             style="color:#000000;fill:#ff6600;fill-opacity:1;fill-rule:nonzero;stroke:#002228;stroke-width:36.23588943;stroke-linecap:round;stroke-linejoin:round;stroke-miterlimit:4;stroke-opacity:1;stroke-dasharray:none;stroke-dashoffset:0;marker:none;visibility:visible;display:inline;overflow:visible;enable-background:accumulate"
             d="m 2304.6824,1412.4655 c 5.8661,5.8661 116.3241,51.1092 116.3241,51.1092 l -67.4359,-278.8069 z"
             id="path16683"
             inkscape:connector-curvature="0"
             transform="matrix(0.26458334,0,0,0.26458334,-6.3049604e-6,18.562493)"
             sodipodi:nodetypes="cccc" />
          <path
             transform="matrix(0.26458334,0,0,0.26458334,-6.3049604e-6,18.562493)"
             sodipodi:nodetypes="cscc"
             inkscape:connector-curvature="0"
             id="path16675"
             d="m 2117.3297,1497.0818 c 0,0 308.3696,-31.1607 303.6768,-33.5071 -4.6929,-2.3465 -116.3241,-51.1092 -116.3241,-51.1092 z"
             style="color:#000000;fill:#ff6600;fill-opacity:1;fill-rule:nonzero;stroke:#002228;stroke-width:36.23588943;stroke-linecap:round;stroke-linejoin:round;stroke-miterlimit:4;stroke-opacity:1;stroke-dasharray:none;stroke-dashoffset:0;marker:none;visibility:visible;display:inline;overflow:visible;enable-background:accumulate" />
          <path
             sodipodi:nodetypes="cccc"
             transform="matrix(0.26458334,0,0,0.26458334,-6.3049604e-6,18.562493)"
             inkscape:connector-curvature="0"
             id="path16677"
             d="m 2304.6824,1412.4655 c 5.8661,5.8661 116.3241,51.1092 116.3241,51.1092 l -67.4359,-278.8069 z"
             style="color:#000000;fill:#b8ffff;fill-opacity:1;fill-rule:nonzero;stroke:none;stroke-width:1;marker:none;visibility:visible;display:inline;overflow:visible;enable-background:accumulate" />
          <path
             inkscape:connector-curvature="0"
             style="color:#000000;fill:#ffffff;fill-opacity:1;fill-rule:nonzero;stroke:none;stroke-width:1;marker:none;visibility:visible;display:inline;overflow:visible;enable-background:accumulate"
             d="m 2707.8125,1061.1562 -21.4687,100 c -1.5405,11.8768 -1.2053,16.1149 1.5312,9 8.2959,-21.5693 24.875,-51.4374 24.875,-51.4374 l 25.625,68.75 -30.5625,-126.3126 z"
             transform="matrix(0.47937063,0,0,0.47937063,-675.32854,-176.65563)"
             id="path16746" />
          <path
             transform="matrix(0.17081406,0.12718371,-0.15801208,0.21221811,406.66108,-186.53435)"
             style="color:#000000;fill:#ff6600;fill-opacity:1;fill-rule:nonzero;stroke:#002228;stroke-width:40.38948822;stroke-linecap:round;stroke-linejoin:round;stroke-miterlimit:4;stroke-opacity:1;stroke-dasharray:none;stroke-dashoffset:0;marker:none;visibility:visible;display:inline;overflow:visible;enable-background:accumulate"
             d="m 2264.2568,1475.9493 -204.3093,-0.2087 -55.7779,-59.8953 0.4104,-266.6742 57.8326,-63.1204 205.5313,-1.6892 c 0,0 91.5068,203.8209 93.1971,217.435 z"
             id="path16681"
             inkscape:connector-curvature="0"
             sodipodi:nodetypes="cccccccc" />
          <path
             sodipodi:nodetypes="cccccccc"
             inkscape:connector-curvature="0"
             id="path16669"
             d="m 2265.1796,1476.9468 -205.2321,-1.2062 -55.7721,-59.89 -1.6345,-270.1422 59.8717,-59.6577 205.5313,-1.6892 120.2277,211.8293 z"
             style="color:#000000;fill:#b8ffff;fill-opacity:1;fill-rule:nonzero;stroke:#000000;stroke-width:1;stroke-linecap:round;stroke-linejoin:round;stroke-miterlimit:4;stroke-opacity:1;stroke-dashoffset:0;marker:none;visibility:visible;display:inline;overflow:visible;enable-background:accumulate"
             transform="matrix(0.17081406,0.12718371,-0.15801208,0.21221811,406.66108,-186.53435)" />
          <path
             sodipodi:nodetypes="ccccccccc"
             inkscape:connector-curvature="0"
             id="path16687"
             transform="matrix(0.26458334,0,0,0.26458334,-6.3049604e-6,18.562493)"
             d="m 2189.2847,1189.2339 c 0,0 -52.231,-12.3077 -100.0035,-5.2027 l -103.9681,139.8197 0.2494,74.8679 131.7813,99.5937 187.3437,-85.8437 48.875,-227.6876 -3.7813,-2.75 c -70.6261,-4.3915 -154.196,7.2027 -160.4965,7.2027 z"
             style="opacity:0.43362834;color:#000000;fill:#00ccff;fill-opacity:1;fill-rule:nonzero;stroke:none;stroke-width:20;marker:none;visibility:visible;display:inline;overflow:visible;enable-background:accumulate" />
          <path
             id="path16702"
             transform="matrix(0.26458334,0,0,0.26458334,-6.3049604e-6,18.562493)"
             d="m 2219.875,1087.3125 -74.2812,19.0937 -4.5626,6.1876 c 12.9179,15.8523 12.6732,20.8887 17.0938,19.5624 5.8661,-1.7598 68.0625,-25.25 68.0625,-25.25 l 126.125,76.9688 -132.4375,-96.5625 z"
             style="opacity:0.85840676;color:#000000;fill:#ffffff;fill-opacity:1;fill-rule:nonzero;stroke:none;stroke-width:20;marker:none;visibility:visible;display:inline;overflow:visible;enable-background:accumulate"
             inkscape:connector-curvature="0" />
          <path
             id="path16707"
             transform="matrix(0.26458334,0,0,0.26458334,-6.3049604e-6,18.562493)"
             d="m 2067.7812,1233.0625 c -3.2761,0.1654 -9.6655,1.5258 -17.625,3.5625 l -64.8437,87.2188 0.25,74.875 131.7813,99.5937 187.3437,-85.8437 0.1875,-0.8126 c -42.6199,-35.2732 -122.8281,-102.6694 -142.125,-126.1874 0,0 -86.3008,-49.7612 -92.9375,-52.25 -0.4148,-0.1556 -1.0842,-0.2041 -2.0313,-0.1563 z"
             style="opacity:0.85840676;color:#000000;fill:#00ccff;fill-opacity:1;fill-rule:nonzero;stroke:none;stroke-width:5.69389248;marker:none;visibility:visible;display:inline;overflow:visible;enable-background:accumulate"
             inkscape:connector-curvature="0" />
          <path
             id="path16712"
             transform="matrix(0.26458334,0,0,0.26458334,-6.3049604e-6,18.562493)"
             d="m 2018.2188,1279.5938 -32.9063,44.25 0.25,74.875 131.7813,99.5937 0.4062,-0.1875 c -6.8543,-20.4293 -35.748,-106.535 -37.9688,-113.9375 -2.4887,-8.2959 8.3052,8.3168 -14.0937,-73.8125 0,0 -36.1629,-22.8237 -47.4687,-30.7812 z"
             style="opacity:0.19026549;color:#000000;fill:#000080;fill-opacity:1;fill-rule:nonzero;stroke:none;stroke-width:5.69389248;marker:none;visibility:visible;display:inline;overflow:visible;enable-background:accumulate"
             inkscape:connector-curvature="0" />
          <path
             transform="matrix(0.12615904,0.09393475,-0.11670382,0.15673906,437.65676,-56.116236)"
             style="color:#000000;fill:#ffac75;fill-opacity:1;fill-rule:nonzero;stroke:#002228;stroke-width:54.68567276;stroke-linecap:round;stroke-linejoin:round;stroke-miterlimit:4;stroke-opacity:1;stroke-dasharray:none;stroke-dashoffset:0;marker:none;visibility:visible;display:inline;overflow:visible;enable-background:accumulate"
             d="m 2216.4704,1458.5254 -153.0575,11.8353 -107.0878,-174.0992 103.7394,-180.8271 191.123,23.5431 c 29.5813,69.3602 35.5675,90.1898 71.7007,163.4013 z"
             id="path16679"
             inkscape:connector-curvature="0"
             sodipodi:nodetypes="ccccccc" />
          <path
             sodipodi:nodetypes="ccccccc"
             inkscape:connector-curvature="0"
             id="path16671"
             d="m 2267.1922,1475.7407 -206.8677,0.6839 -103.9994,-180.1631 103.7394,-180.8271 207.1277,1.3479 103.6223,179.4792 z"
             style="color:#000000;fill:#b8ffff;fill-opacity:1;fill-rule:nonzero;stroke:none;stroke-width:1;marker:none;visibility:visible;display:inline;overflow:visible;enable-background:accumulate"
             transform="matrix(0.12615904,0.09393475,-0.11670382,0.15673906,437.65676,-56.116236)" />
          <path
             transform="matrix(0.26458334,0,0,0.26458334,-6.3049604e-6,18.562493)"
             style="color:#000000;fill:#0ca8e7;fill-opacity:1;fill-rule:nonzero;stroke:none;stroke-width:20;marker:none;visibility:visible;display:inline;overflow:visible;enable-background:accumulate"
             d="m 2117.3297,1497.0818 c 0,0 308.3696,-31.1607 303.6768,-33.5071 -4.6929,-2.3465 -116.3241,-51.1092 -116.3241,-51.1092 z"
             id="path16685"
             inkscape:connector-curvature="0"
             sodipodi:nodetypes="cscc" />
          <path
             id="path16692"
             transform="matrix(0.26458334,0,0,0.26458334,-6.3049604e-6,18.562493)"
             d="m 2144.4062,1109.9062 -129.2187,70.3126 -29.875,143.625 4.4375,3.2812 27.0938,-130.3125 129.2187,-70.3125 93.7813,71 2.75,-13.25 -98.1876,-74.3438 z"
             style="color:#000000;fill:#ffffff;fill-opacity:1;fill-rule:nonzero;stroke:none;stroke-width:1;marker:none;visibility:visible;display:inline;overflow:visible;enable-background:accumulate"
             inkscape:connector-curvature="0" />
          <path
             id="path16697"
             transform="matrix(0.26458334,0,0,0.26458334,-6.3049604e-6,18.562493)"
             d="m 2119.625,1123.4062 -14.75,8 c 30.19,72.6897 71.9535,171.0253 87.3125,207.125 l 13.625,-7.3437 -86.1875,-207.7813 z m -45.5938,24.7813 -41.8124,22.7813 c 33.4493,77.131 66.0544,153.7291 88.3124,206.3124 l 45.8438,-24.7812 -92.3438,-204.3125 z"
             style="opacity:0.38495579;color:#000000;fill:#fefefe;fill-opacity:1;fill-rule:nonzero;stroke:none;stroke-width:20;marker:none;visibility:visible;display:inline;overflow:visible;enable-background:accumulate"
             inkscape:connector-curvature="0" />
          <path
             transform="matrix(0.26458334,0,0,0.26458334,-6.3049604e-6,18.562493)"
             inkscape:connector-curvature="0"
             id="path16717"
             d="m 2211.3737,1327.5809 c 10.7847,13.2734 81.6121,83.9936 81.6121,83.9936 l -148.4966,76.3222 166.7476,-74.663 c 0,0 44.8467,-233.3011 41.5283,-229.1531 -3.3183,4.1479 -53.1426,215.0501 -53.1426,215.0501 z"
             style="color:#000000;fill:#ffffff;fill-opacity:1;fill-rule:nonzero;stroke:none;stroke-width:5.69389248;marker:none;visibility:visible;display:inline;overflow:visible;enable-background:accumulate"
             sodipodi:nodetypes="ccccscc" />
          <path
             transform="matrix(0.26458334,0,0,0.26458334,-6.3049604e-6,18.562493)"
             inkscape:connector-curvature="0"
             id="path16719"
             d="m 2299.6225,1417.3816 121.1201,46.457 -115.313,-56.412 z"
             style="color:#000000;fill:#ffffff;fill-opacity:1;fill-rule:nonzero;stroke:none;stroke-width:5.69389248;marker:none;visibility:visible;display:inline;overflow:visible;enable-background:accumulate" />
          <path
             sodipodi:nodetypes="cscccc"
             transform="matrix(0.26458334,0,0,0.26458334,-6.3049604e-6,18.562493)"
             inkscape:connector-curvature="0"
             id="path16721"
             d="m 2226.4135,1180.2752 c 1.8643,20.7105 -8.0908,123.4526 -5.602,110.1792 2.4888,-13.2734 25.7173,-99.5507 25.7173,-99.5507 l 100.3803,-8.296 -102.3831,0.9078 z"
             style="color:#000000;fill:#ffffff;fill-opacity:1;fill-rule:nonzero;stroke:none;stroke-width:5.69389248;marker:none;visibility:visible;display:inline;overflow:visible;enable-background:accumulate" />
        </g>
        <path
           style="color:#000000;fill:#ffffff;fill-opacity:1;fill-rule:nonzero;stroke:none;stroke-width:20;marker:none;visibility:visible;display:inline;overflow:visible;enable-background:accumulate"
           d="m 2538.9591,1163.942 c 7.4663,5.8071 17.8362,15.3474 17.8362,15.3474 0,0 17.8362,50.1902 17.0066,46.457 -0.8296,-3.7331 -9.9551,-46.8718 -9.9551,-46.8718 l 67.1968,-37.3315 c 0,0 9.1255,-41.0647 7.8811,-39.4055 -1.2444,1.6591 -12.4439,36.0871 -12.4439,36.0871 l -66.7819,35.2576 z"
           id="path16742"
           inkscape:connector-curvature="0"
           transform="matrix(0.26458334,0,0,0.26458334,-6.3049604e-6,18.562493)" />
      </g>
    </g>
  </g>
</svg>
