<?xml version="1.0" encoding="UTF-8" standalone="no"?>
<!-- Created with Inkscape (http://www.inkscape.org/) -->

<svg
   xmlns:dc="http://purl.org/dc/elements/1.1/"
   xmlns:cc="http://creativecommons.org/ns#"
   xmlns:rdf="http://www.w3.org/1999/02/22-rdf-syntax-ns#"
   xmlns:svg="http://www.w3.org/2000/svg"
   xmlns="http://www.w3.org/2000/svg"
   xmlns:xlink="http://www.w3.org/1999/xlink"
   xmlns:sodipodi="http://sodipodi.sourceforge.net/DTD/sodipodi-0.dtd"
   xmlns:inkscape="http://www.inkscape.org/namespaces/inkscape"
   width="256"
   height="256"
   viewBox="0 0 67.73333 67.733335"
   version="1.1"
   id="svg23489"
   inkscape:version="0.48.5 r10040"
   sodipodi:docname="gold_star_type_01_half.svg">
  <defs
     id="defs23483">
    <linearGradient
       inkscape:collect="always"
       xlink:href="#linearGradient28932"
       id="linearGradient30202"
       gradientUnits="userSpaceOnUse"
       gradientTransform="matrix(0.75529868,0,0,0.75529868,4396.4023,-1337.3432)"
       x1="19474"
       y1="-1879.1378"
       x2="19495.5"
       y2="-1982.6378" />
    <linearGradient
       inkscape:collect="always"
       id="linearGradient28932">
      <stop
         style="stop-color:#ffb300;stop-opacity:1;"
         offset="0"
         id="stop28934" />
      <stop
         style="stop-color:#ffb300;stop-opacity:0;"
         offset="1"
         id="stop28936" />
    </linearGradient>
    <linearGradient
       inkscape:collect="always"
       xlink:href="#linearGradient28908"
       id="linearGradient30204"
       gradientUnits="userSpaceOnUse"
       gradientTransform="matrix(0.75529868,0,0,0.75529868,4396.4023,-1337.3432)"
       x1="19421.5"
       y1="-1961.1378"
       x2="19453"
       y2="-1943.1378" />
    <linearGradient
       inkscape:collect="always"
       id="linearGradient28908">
      <stop
         style="stop-color:#ffde00;stop-opacity:1;"
         offset="0"
         id="stop28910" />
      <stop
         style="stop-color:#ffff00;stop-opacity:1"
         offset="1"
         id="stop28912" />
    </linearGradient>
    <linearGradient
       inkscape:collect="always"
       xlink:href="#linearGradient28900"
       id="linearGradient30206"
       gradientUnits="userSpaceOnUse"
       x1="19347.768"
       y1="-1940.3768"
       x2="19400.578"
       y2="-2016.3485" />
    <linearGradient
       inkscape:collect="always"
       id="linearGradient28900">
      <stop
         style="stop-color:#ffcc00;stop-opacity:1"
         offset="0"
         id="stop28902" />
      <stop
         style="stop-color:#ff6600;stop-opacity:1"
         offset="1"
         id="stop28904" />
    </linearGradient>
    <linearGradient
       inkscape:collect="always"
       xlink:href="#linearGradient28884"
       id="linearGradient30208"
       gradientUnits="userSpaceOnUse"
       x1="19446.32"
       y1="-2059.7014"
       x2="19412.275"
       y2="-2030.4789" />
    <linearGradient
       inkscape:collect="always"
       id="linearGradient28884">
      <stop
         style="stop-color:#ffde00;stop-opacity:1;"
         offset="0"
         id="stop28886" />
      <stop
         style="stop-color:#ffff00;stop-opacity:1"
         offset="1"
         id="stop28888" />
    </linearGradient>
    <linearGradient
       inkscape:collect="always"
       xlink:href="#linearGradient28962"
       id="linearGradient30210"
       gradientUnits="userSpaceOnUse"
       gradientTransform="matrix(0.75529868,0,0,0.75529868,4396.4023,-1337.3432)"
       x1="19466.936"
       y1="-2106.9568"
       x2="19480.238"
       y2="-2018.6259" />
    <linearGradient
       inkscape:collect="always"
       id="linearGradient28962">
      <stop
         style="stop-color:#ffff00;stop-opacity:0"
         offset="0"
         id="stop28964" />
      <stop
         style="stop-color:#ffff00;stop-opacity:1"
         offset="1"
         id="stop28966" />
    </linearGradient>
  </defs>
  <sodipodi:namedview
     id="base"
     pagecolor="#a6abb0"
     bordercolor="#666666"
     borderopacity="1.0"
     inkscape:pageopacity="0.09019608"
     inkscape:pageshadow="2"
     inkscape:zoom="4.6207231"
     inkscape:cx="61.859268"
     inkscape:cy="-29.681777"
     inkscape:document-units="px"
     inkscape:current-layer="layer1"
     showgrid="false"
     inkscape:pagecheckerboard="false"
     showborder="true"
     units="px"
     inkscape:window-width="1920"
     inkscape:window-height="1017"
     inkscape:window-x="-8"
     inkscape:window-y="-8"
     inkscape:window-maximized="1"
     inkscape:showpageshadow="false"
     guidetolerance="28">
    <inkscape:grid
       type="xygrid"
       id="grid24034"
       spacingx="1px"
       spacingy="1px"
       empspacing="8"
       visible="true"
       enabled="true"
       snapvisiblegridlinesonly="true" />
  </sodipodi:namedview>
  <metadata
     id="metadata23486">
    <rdf:RDF>
      <cc:Work
         rdf:about="">
        <dc:format>image/svg+xml</dc:format>
        <dc:type
           rdf:resource="http://purl.org/dc/dcmitype/StillImage" />
        <dc:title />
        <cc:license
           rdf:resource="" />
        <dc:creator>
          <cc:Agent>
            <dc:title>Robert Brooks</dc:title>
          </cc:Agent>
        </dc:creator>
      </cc:Work>
    </rdf:RDF>
  </metadata>
  <g
     inkscape:label="Layer 1"
     inkscape:groupmode="layer"
     id="layer1"
     transform="translate(0,-229.26665)">
    <g
       id="g30146"
       transform="matrix(0.78243247,0,0,0.78243247,-3924.7141,838.3299)">
      <g
         id="g30148"
         transform="translate(90.925095,0)">
        <g
           id="g30150"
           transform="matrix(0.75529868,0,0,0.75529868,1072.2897,-349.29645)">
          <path
             transform="matrix(0.26167714,0.03910777,-0.03910777,0.26167714,135.14189,-715.70531)"
             style="color:#000000;fill:#322800;fill-opacity:1;fill-rule:nonzero;stroke:none;stroke-width:50.76398086999999700;stroke-miterlimit:4;stroke-dasharray:none;marker:none;visibility:visible;display:inline;overflow:visible;enable-background:accumulate"
             inkscape:transform-center-x="-6.1942837"
             inkscape:transform-center-y="-6.0803831"
             d="m 19022.062,-1897.5753 c -18.455,18.455 -82.84,-9.379 -108.618,-5.2961 -25.778,4.0828 -78.41,50.4506 -101.665,38.6017 -23.255,-11.8488 -16.679,-81.6839 -28.528,-104.9386 -11.849,-23.2547 -72.212,-58.983 -68.129,-84.761 4.083,-25.778 72.532,-41.1045 90.987,-59.5595 18.455,-18.4551 33.782,-86.9041 59.56,-90.987 25.778,-4.0828 61.506,56.28 84.761,68.1288 23.254,11.8489 93.089,5.2733 104.938,28.528 11.849,23.2547 -34.519,75.8875 -38.602,101.6655 -4.082,25.778 23.751,90.1631 5.296,108.6182 z"
             id="path30152"
             gds_outline="1"
             inkscape:connector-curvature="0" />
          <path
             sodipodi:type="star"
             style="color:#000000;fill:#322800;fill-opacity:1;fill-rule:nonzero;stroke:#2b2200;stroke-width:30;stroke-miterlimit:4;stroke-dasharray:none;marker:none;visibility:visible;display:inline;overflow:visible;enable-background:accumulate"
             id="path30154"
             sodipodi:sides="5"
             sodipodi:cx="18894"
             sodipodi:cy="-2025.6378"
             sodipodi:r1="181.1077"
             sodipodi:r2="124.29667"
             sodipodi:arg1="0.78539816"
             sodipodi:arg2="1.4137167"
             inkscape:flatsided="false"
             inkscape:rounded="0.24"
             inkscape:randomized="0"
             d="m 19022.062,-1897.5753 c -18.455,18.455 -82.84,-9.379 -108.618,-5.2961 -25.778,4.0828 -78.41,50.4506 -101.665,38.6017 -23.255,-11.8488 -16.679,-81.6839 -28.528,-104.9386 -11.849,-23.2547 -72.212,-58.983 -68.129,-84.761 4.083,-25.778 72.532,-41.1045 90.987,-59.5595 18.455,-18.4551 33.782,-86.9041 59.56,-90.987 25.778,-4.0828 61.506,56.28 84.761,68.1288 23.254,11.8489 93.089,5.2733 104.938,28.528 11.849,23.2547 -34.519,75.8875 -38.602,101.6655 -4.082,25.778 23.751,90.1631 5.296,108.6182 z"
             transform="matrix(0.26167714,0.03910777,-0.03910777,0.26167714,135.14189,-715.70531)"
             inkscape:transform-center-x="-6.1942837"
             inkscape:transform-center-y="-6.0803831" />
          <path
             style="color:#000000;fill:#2b2200;fill-opacity:1;fill-rule:nonzero;stroke:none;stroke-width:28;marker:none;visibility:visible;display:inline;overflow:visible;enable-background:accumulate"
             d="m 19120.875,-2974.0625 c -0.162,43.6346 -0.07,115.902 0.469,125.875 -0.244,0.4922 -0.258,0.8651 0.06,1.0937 0.431,15.769 -0.462,70.2022 -1.062,103.9063 0.929,-0.1065 1.813,-0.2113 2.656,-0.2187 19.712,-0.172 64.716,27.8193 80.562,16.0937 0.13,-0.096 0.25,-0.2116 0.376,-0.3125 0.748,-0.6015 1.446,-1.2851 2.062,-2.0625 0.165,-0.209 0.312,-0.4353 0.469,-0.6563 11.12,-15.7204 -0.263,-61.2046 5.25,-78.6874 0.146,-0.4649 0.337,-0.9561 0.531,-1.4376 0.02,-0.041 0.05,-0.083 0.06,-0.125 0.07,-0.1671 0.117,-0.3302 0.188,-0.5 7.977,-19.1446 45.472,-51.5597 39.438,-69.5937 -0.38,-1.1343 -0.952,-2.195 -1.657,-3.2187 -0.162,-0.2359 -0.322,-0.4885 -0.5,-0.7188 0,-0.011 -0.02,-0.02 -0.03,-0.031 -0.179,-0.2301 -0.368,-0.4629 -0.562,-0.6876 -0.01,-0.011 -0.02,-0.02 -0.03,-0.031 0,-0.011 -0.02,-0.02 -0.03,-0.031 -0.148,-0.1687 -0.312,-0.3344 -0.469,-0.5 -0.246,-0.2599 -0.515,-0.5286 -0.781,-0.7813 -0.142,-0.1342 -0.29,-0.274 -0.437,-0.4063 -0.173,-0.1549 -0.352,-0.3164 -0.532,-0.4687 -0.169,-0.1432 -0.324,-0.2966 -0.5,-0.4375 -0.03,-0.023 -0.06,-0.04 -0.09,-0.062 -0.07,-0.055 -0.149,-0.102 -0.218,-0.1563 -0.253,-0.1968 -0.516,-0.4013 -0.782,-0.5937 -0.103,-0.075 -0.206,-0.1442 -0.312,-0.2187 -0.128,-0.091 -0.244,-0.1917 -0.375,-0.2813 -0.515,-0.3522 -1.07,-0.6935 -1.625,-1.0313 -0.02,-0.012 -0.04,-0.019 -0.06,-0.031 -0.01,-0.01 -0.02,-0.024 -0.03,-0.031 -0.05,-0.031 -0.104,-0.063 -0.156,-0.094 -0.473,-0.2831 -0.97,-0.5391 -1.469,-0.8125 -0.104,-0.057 -0.206,-0.1305 -0.312,-0.1875 -0.07,-0.039 -0.146,-0.086 -0.219,-0.125 -0.606,-0.3221 -1.235,-0.6594 -1.875,-0.9688 -0.09,-0.044 -0.189,-0.081 -0.281,-0.125 -0.343,-0.1634 -0.711,-0.3087 -1.063,-0.4687 -0.08,-0.038 -0.165,-0.087 -0.25,-0.125 -0.322,-0.145 -0.639,-0.2952 -0.969,-0.4375 -0.165,-0.072 -0.332,-0.1478 -0.5,-0.2188 -0.61,-0.2587 -1.243,-0.4997 -1.874,-0.75 -0.166,-0.066 -0.333,-0.1536 -0.5,-0.2187 -0.517,-0.2013 -1.035,-0.3976 -1.563,-0.5937 -0.134,-0.05 -0.271,-0.1069 -0.406,-0.1563 -0.01,0 -0.02,0 -0.03,0 -0.05,-0.019 -0.105,-0.044 -0.157,-0.062 -0.628,-0.2291 -1.294,-0.4337 -1.937,-0.6562 -0.167,-0.058 -0.333,-0.1305 -0.5,-0.1876 -0.689,-0.2347 -1.391,-0.4593 -2.094,-0.6874 -0.185,-0.06 -0.377,-0.128 -0.562,-0.1876 -1.572,-0.5034 -3.189,-0.9923 -4.813,-1.4687 -0.226,-0.066 -0.461,-0.1217 -0.687,-0.1875 -1.603,-0.4651 -3.215,-0.9288 -4.844,-1.375 -0.262,-0.072 -0.519,-0.1474 -0.782,-0.2188 -3.464,-0.9423 -6.928,-1.8439 -10.343,-2.75 -0.326,-0.086 -0.645,-0.1635 -0.969,-0.25 -1.51,-0.4023 -3.001,-0.8138 -4.469,-1.2187 -0.351,-0.097 -0.683,-0.184 -1.031,-0.2813 -1.361,-0.38 -2.664,-0.7684 -3.969,-1.1562 -0.06,-0.018 -0.126,-0.044 -0.187,-0.062 -0.01,0 -0.02,0 -0.03,0 -2.061,-0.6156 -4.036,-1.2252 -5.906,-1.875 -0.415,-0.1442 -0.815,-0.2911 -1.218,-0.4375 -0.743,-0.2691 -1.456,-0.5351 -2.157,-0.8125 -0.703,-0.2779 -1.373,-0.5563 -2.031,-0.8437 -1.368,-0.5984 -2.636,-1.2587 -3.781,-1.9063 -0.809,-0.4575 -1.599,-0.8884 -2.281,-1.375 -16.048,-11.4473 -35.975,-60.547 -55.688,-60.375 -0.04,4e-4 -0.09,-7e-4 -0.125,0 z"
             transform="matrix(0.35030293,0,0,0.35030293,-1540.0726,487.03771)"
             id="path30156"
             inkscape:connector-curvature="0" />
          <path
             style="color:#000000;fill:#ffcc00;fill-opacity:1;fill-rule:nonzero;stroke:none;stroke-width:28;marker:none;visibility:visible;display:inline;overflow:visible;enable-background:accumulate"
             d="m 19121,-2974.0625 c -19.712,0.172 -38.81,49.5869 -54.656,61.3125 -15.847,11.7256 -68.666,15.5433 -74.594,34.3438 -5.928,18.8004 35.151,52.2433 41.406,70.9374 6.255,18.6942 -6.454,70.1153 9.594,81.5626 15.525,11.0735 57.671,-15.4737 78.25,-17.375 l 12,-102.6627 z"
             transform="matrix(0.35030293,0,0,0.35030293,-1540.0726,487.03771)"
             id="path30158"
             inkscape:connector-curvature="0"
             sodipodi:nodetypes="ccsscccc" />
          <path
             style="color:#000000;fill:url(#linearGradient30202);fill-opacity:1;fill-rule:nonzero;stroke:none;stroke-width:28;marker:none;visibility:visible;display:inline;overflow:visible;enable-background:accumulate"
             d="m 19132.384,-2845.8281 c -0.725,1.0888 -70.333,87.8109 -91.165,118.6093 0.48,0.4787 0.986,0.9234 1.531,1.3126 15.525,11.0735 57.671,-15.5047 78.25,-17.4063 z"
             transform="matrix(0.35030293,0,0,0.35030293,-1540.0726,487.03771)"
             id="path30160"
             inkscape:connector-curvature="0"
             sodipodi:nodetypes="ccccc" />
          <path
             style="color:#000000;fill:url(#linearGradient30204);fill-opacity:1;fill-rule:nonzero;stroke:none;stroke-width:28;marker:none;visibility:visible;display:inline;overflow:visible;enable-background:accumulate"
             d="m 19132.384,-2845.8281 c -0.696,0.2908 -68.256,22.6692 -100.072,36.1406 0.334,0.751 0.607,1.4775 0.844,2.1875 6.043,18.0587 -5.604,66.6785 8.063,80.2812 20.641,-30.5167 89.4,-115.9693 91.165,-118.6093 z m -68.259,121.0469 c -0.648,0.1545 -1.302,0.3034 -1.937,0.4374 0.637,-0.1343 1.286,-0.2824 1.937,-0.4374 z m -7.406,1.3124 c -0.731,0.079 -1.424,0.1505 -2.125,0.1876 0.699,-0.037 1.397,-0.1095 2.125,-0.1876 z"
             transform="matrix(0.35030293,0,0,0.35030293,-1540.0726,487.03771)"
             id="path30162"
             inkscape:connector-curvature="0"
             sodipodi:nodetypes="ccccccccccc" />
          <path
             style="opacity:0.18584068;color:#000000;fill:#d40000;fill-opacity:1;fill-rule:nonzero;stroke:none;stroke-width:28;marker:none;visibility:visible;display:inline;overflow:visible;enable-background:accumulate"
             d="m 18991.188,-2875.125 c -0.889,19.2061 36.062,50.0039 41.968,67.6562 6.255,18.6943 -6.455,70.1152 9.594,81.5626 15.517,11.0681 57.659,-15.4812 78.25,-17.4063 l 0,-69.1563 c -0.158,-6.5352 -0.115,-12.2905 0,-16.9687 l 0,-2.6563 c -1.133,19.4097 -4.884,69.8548 -14.156,85.75 -3.5,6.0001 -58.188,26.5001 -63.188,15 -5,-11.5 -3.125,-55.4374 5.875,-73.4374 0,0 18.11,-16.3633 51.344,-33.6876 -51.619,13.7887 -67.219,9.3438 -67.219,9.3438 -10.878,-5.6753 -32.918,-20.3154 -42.468,-46 z"
             transform="matrix(0.35030293,0,0,0.35030293,-1540.0726,487.03771)"
             id="path30164"
             inkscape:connector-curvature="0" />
          <path
             sodipodi:nodetypes="ccccccccc"
             inkscape:connector-curvature="0"
             id="path30166"
             transform="matrix(0.26458334,0,0,0.26458334,-6.3049604e-6,18.562493)"
             d="m 19323.188,-2035.9062 c -1.021,24.4135 43.919,62.8682 54.437,86.5624 41.028,-17.3723 127.884,-45.8432 132.513,-47.8595 -10.892,-2.2527 -153.899,-30.6626 -186.95,-38.7029 z m 186.95,38.7029 c -0.292,0.6648 0.08,-0.172 0,0 0,0.012 0.01,-0.018 0,0 0.165,-0.1033 0,0 0,0 0,0 0.1,0.021 0,0 z"
             style="opacity:0.31415932;color:#000000;fill:url(#linearGradient30206);fill-opacity:1;fill-rule:nonzero;stroke:none;stroke-width:28;marker:none;visibility:visible;display:inline;overflow:visible;enable-background:accumulate" />
          <path
             sodipodi:nodetypes="ccccc"
             inkscape:connector-curvature="0"
             id="path30168"
             transform="matrix(0.26458334,0,0,0.26458334,-6.3049604e-6,18.562493)"
             d="m 19422.344,-2085.5 c -21.422,15.3137 -90.635,20.4098 -98.438,45.1562 -0.67,2.1273 -0.75,5.2005 -0.718,4.4376 33.051,8.0403 186.95,38.7029 186.95,38.7029 0,0 -55.973,-50.7845 -87.794,-88.2967 z"
             style="color:#000000;fill:url(#linearGradient30208);fill-opacity:1;fill-rule:nonzero;stroke:none;stroke-width:28;marker:none;visibility:visible;display:inline;overflow:visible;enable-background:accumulate" />
          <path
             style="color:#000000;fill:url(#linearGradient30210);fill-opacity:1;fill-rule:nonzero;stroke:none;stroke-width:28;marker:none;visibility:visible;display:inline;overflow:visible;enable-background:accumulate"
             d="m 19120.875,-2974.0625 c -19.669,0.3679 -38.717,49.6415 -54.531,61.3437 -0.09,0.069 -0.186,0.1196 -0.282,0.1876 23.414,27.6013 64.758,64.8984 66.322,66.7031 0,0 -11.616,-99.4873 -11.509,-128.2344 z"
             transform="matrix(0.35030293,0,0,0.35030293,-1540.0726,487.03771)"
             id="path30170"
             inkscape:connector-curvature="0"
             sodipodi:nodetypes="ccccc" />
          <path
             style="color:#000000;fill:#ffff00;fill-opacity:1;fill-rule:nonzero;stroke:none;stroke-width:28;marker:none;visibility:visible;display:inline;overflow:visible;enable-background:accumulate"
             d="m 19120.562,-2973.8125 c -2.265,39.2755 8.307,127.9844 8.307,127.9844 0,0 -67.667,88.0593 -68.369,90.0781 0.07,-0.073 0.206,-0.248 0.406,-0.5312 6.013,-8.4886 65.154,-81.2196 71.499,-88.8398 L 19121,-2960.6875 z"
             transform="matrix(0.35030293,0,0,0.35030293,-1540.0726,487.03771)"
             id="path30172"
             inkscape:connector-curvature="0"
             sodipodi:nodetypes="ccccccc" />
          <path
             style="opacity:0.95132745;color:#000000;fill:#ffff00;fill-opacity:1;fill-rule:nonzero;stroke:none;stroke-width:28;marker:none;visibility:visible;display:inline;overflow:visible;enable-background:accumulate"
             d="m 18732.812,-2900.25 c -14.833,7.5028 -40.301,21.3328 -58.437,31.25 5.145,1.1234 10.573,2.2968 16.313,3.5312 l 48.624,-27.0937 c -2.245,-2.6536 -4.255,-5.0375 -6.5,-7.6875 z m 13.282,15.7188 c -10.176,5.5883 -25.919,15.1423 -38.219,22.7187 4.076,0.8681 8.15,1.7381 12.187,2.5937 l 32.282,-17.9374 c -2.004,-2.3705 -4.147,-4.8887 -6.25,-7.375 z"
             transform="matrix(0.35030293,0,0,0.35030293,-1419.6896,487.03771)"
             id="path30174"
             inkscape:connector-curvature="0" />
          <path
             sodipodi:nodetypes="cccc"
             transform="matrix(0.26458334,0,0,0.26458334,-6.3049604e-6,18.562493)"
             inkscape:connector-curvature="0"
             id="path30176"
             d="m 19331.5,-2033.6378 162.75,36.4345 0,0 z"
             style="color:#000000;fill:#ffff00;fill-opacity:1;fill-rule:nonzero;stroke:none;stroke-width:28;marker:none;visibility:visible;display:inline;overflow:visible;enable-background:accumulate" />
          <path
             style="opacity:0.33185838;color:#000000;fill:#ffff00;fill-opacity:1;fill-rule:nonzero;stroke:none;stroke-width:28;marker:none;visibility:visible;display:inline;overflow:visible;enable-background:accumulate"
             d="m 19121,-2974.0625 c -19.712,0.172 -38.81,49.5869 -54.656,61.3125 -0.59,0.4361 -1.251,0.8659 -1.938,1.2812 8.572,10.9293 19.623,23.0032 26.813,30.625 -11.127,-12.5483 -19.475,-26.8626 -17,-28.7187 2.829,-2.1213 9.179,-10.6158 16.25,-23.3437 7.072,-12.7282 13.429,-24.0154 20.5,-26.8438 7.072,-2.8284 8.48,32.5245 9.187,22.625 0.538,-7.5219 -3.005,-19.1092 0.844,-23.9375 l 0,-13 z m -29.219,93.8125 c 1.419,1.5804 2.856,3.1372 4.344,4.625 4.865,4.8655 1.837,1.9075 -4.344,-4.625 z"
             transform="matrix(0.35030293,0,0,0.35030293,-1540.0726,487.03771)"
             id="path30178"
             inkscape:connector-curvature="0" />
          <path
             style="color:#000000;fill:#2b2200;fill-opacity:1;fill-rule:nonzero;stroke:none;stroke-width:30;marker:none;visibility:visible;display:inline;overflow:visible;enable-background:accumulate"
             d="m 19057.344,-2914.875 c 3.738,6.9429 76.275,72.2527 72.536,67.4461 -3.738,-4.8067 -65.599,-67.4461 -65.599,-67.4461 z m 75.677,68.6263 -15.333,108.6862 3.312,-1.4687 z m -58.706,21.307 c 0,0 -49.013,13.152 -52.753,14.7542 l 5.344,5.3437 z"
             transform="matrix(0.35030293,0,0,0.35030293,-1540.0726,487.03771)"
             id="path30180"
             inkscape:connector-curvature="0"
             sodipodi:nodetypes="cccccccccccc" />
        </g>
      </g>
    </g>
  </g>
</svg>
