<?xml version="1.0" encoding="UTF-8" standalone="no"?>
<!-- Created with Inkscape (http://www.inkscape.org/) -->

<svg
   xmlns:dc="http://purl.org/dc/elements/1.1/"
   xmlns:cc="http://creativecommons.org/ns#"
   xmlns:rdf="http://www.w3.org/1999/02/22-rdf-syntax-ns#"
   xmlns:svg="http://www.w3.org/2000/svg"
   xmlns="http://www.w3.org/2000/svg"
   xmlns:xlink="http://www.w3.org/1999/xlink"
   xmlns:sodipodi="http://sodipodi.sourceforge.net/DTD/sodipodi-0.dtd"
   xmlns:inkscape="http://www.inkscape.org/namespaces/inkscape"
   width="256"
   height="256"
   viewBox="0 0 67.73333 67.733335"
   version="1.1"
   id="svg23489"
   inkscape:version="0.48.5 r10040"
   sodipodi:docname="gold_star_type_02_half.svg">
  <defs
     id="defs23483">
    <linearGradient
       inkscape:collect="always"
       xlink:href="#linearGradient30420"
       id="linearGradient30536"
       gradientUnits="userSpaceOnUse"
       gradientTransform="matrix(0.74700244,0.11163987,-0.11163987,0.74700244,5595.3656,-4915.0376)"
       x1="18957.07"
       y1="-1923.1036"
       x2="18803.68"
       y2="-2161.2227" />
    <linearGradient
       inkscape:collect="always"
       id="linearGradient30420">
      <stop
         style="stop-color:#ffcc00;stop-opacity:1;"
         offset="0"
         id="stop30422" />
      <stop
         style="stop-color:#ffff00;stop-opacity:1"
         offset="1"
         id="stop30424" />
    </linearGradient>
  </defs>
  <sodipodi:namedview
     id="base"
     pagecolor="#a6abb0"
     bordercolor="#666666"
     borderopacity="1.0"
     inkscape:pageopacity="0.09019608"
     inkscape:pageshadow="2"
     inkscape:zoom="3.6054276"
     inkscape:cx="-46.988745"
     inkscape:cy="2.6892419"
     inkscape:document-units="px"
     inkscape:current-layer="layer1"
     showgrid="false"
     inkscape:pagecheckerboard="false"
     showborder="true"
     units="px"
     inkscape:window-width="1920"
     inkscape:window-height="1017"
     inkscape:window-x="-8"
     inkscape:window-y="-8"
     inkscape:window-maximized="1"
     inkscape:showpageshadow="false"
     guidetolerance="28">
    <inkscape:grid
       type="xygrid"
       id="grid24034"
       spacingx="1px"
       spacingy="1px"
       empspacing="8"
       visible="true"
       enabled="true"
       snapvisiblegridlinesonly="true" />
  </sodipodi:namedview>
  <metadata
     id="metadata23486">
    <rdf:RDF>
      <cc:Work
         rdf:about="">
        <dc:format>image/svg+xml</dc:format>
        <dc:type
           rdf:resource="http://purl.org/dc/dcmitype/StillImage" />
        <dc:title />
        <cc:license
           rdf:resource="" />
        <dc:creator>
          <cc:Agent>
            <dc:title>Robert Brooks</dc:title>
          </cc:Agent>
        </dc:creator>
      </cc:Work>
    </rdf:RDF>
  </metadata>
  <g
     inkscape:label="Layer 1"
     inkscape:groupmode="layer"
     id="layer1"
     transform="translate(0,-229.26665)">
    <g
       id="g30508"
       transform="matrix(0.79776523,0,0,0.79776523,-4173.9293,1162.331)">
      <g
         transform="translate(95.789401,-10.476966)"
         id="g30510">
        <path
           transform="matrix(0.1976444,0.02953805,-0.02953805,0.1976444,1384.6511,-1271.3976)"
           style="color:#000000;fill:#ffcc00;fill-opacity:1;fill-rule:nonzero;stroke:none;stroke-width:49.78831481999999700;stroke-miterlimit:4;stroke-opacity:1;marker:none;visibility:visible;display:inline;overflow:visible;enable-background:accumulate"
           inkscape:transform-center-x="-1.6391354"
           inkscape:transform-center-y="-1.608552"
           d="m 19022.062,-1897.5753 c -18.455,18.455 -82.84,-9.379 -108.618,-5.2961 -25.778,4.0828 -78.41,50.4506 -101.665,38.6017 -23.255,-11.8488 -16.679,-81.6839 -28.528,-104.9386 -11.849,-23.2547 -72.212,-58.983 -68.129,-84.761 4.083,-25.778 72.532,-41.1045 90.987,-59.5595 18.455,-18.4551 33.782,-86.9041 59.56,-90.987 25.778,-4.0828 61.506,56.28 84.761,68.1288 23.254,11.8489 93.089,5.2733 104.938,28.528 11.849,23.2547 -34.519,75.8875 -38.602,101.6655 -4.082,25.778 23.751,90.1631 5.296,108.6182 z"
           id="path30558" />
        <path
           inkscape:transform-center-y="-1.608552"
           inkscape:transform-center-x="-1.6391354"
           transform="matrix(0.1976444,0.02953805,-0.02953805,0.1976444,1384.6511,-1271.3976)"
           d="m 19022.062,-1897.5753 c -18.455,18.455 -82.84,-9.379 -108.618,-5.2961 -25.778,4.0828 -78.41,50.4506 -101.665,38.6017 -23.255,-11.8488 -16.679,-81.6839 -28.528,-104.9386 -11.849,-23.2547 -72.212,-58.983 -68.129,-84.761 4.083,-25.778 72.532,-41.1045 90.987,-59.5595 18.455,-18.4551 33.782,-86.9041 59.56,-90.987 25.778,-4.0828 61.506,56.28 84.761,68.1288 23.254,11.8489 93.089,5.2733 104.938,28.528 11.849,23.2547 -34.519,75.8875 -38.602,101.6655 -4.082,25.778 23.751,90.1631 5.296,108.6182 z"
           inkscape:randomized="0"
           inkscape:rounded="0.24"
           inkscape:flatsided="false"
           sodipodi:arg2="1.4137167"
           sodipodi:arg1="0.78539816"
           sodipodi:r2="124.29667"
           sodipodi:r1="181.1077"
           sodipodi:cy="-2025.6378"
           sodipodi:cx="18894"
           sodipodi:sides="5"
           id="path30512"
           style="color:#000000;fill:#ffcc00;fill-opacity:1;fill-rule:nonzero;stroke:#2b2200;stroke-width:29.87298855;stroke-miterlimit:4;stroke-opacity:1;stroke-dasharray:none;marker:none;visibility:visible;display:inline;overflow:visible;enable-background:accumulate"
           sodipodi:type="star" />
        <path
           style="color:#000000;fill:url(#linearGradient30536);fill-opacity:1;fill-rule:nonzero;stroke:none;stroke-width:60;marker:none;visibility:visible;display:inline;overflow:visible;enable-background:accumulate"
           d="m 19934.938,-4455.5625 c -0.25,-0.014 -0.501,-0.096 -0.75,-0.094 -19.713,0.172 -38.81,49.5868 -54.657,61.3124 -15.846,11.7257 -68.697,15.5434 -74.625,34.3438 -5.927,18.8004 35.183,52.2121 41.438,70.9062 6.255,18.6942 -6.455,70.1465 9.594,81.5938 15.732,11.2222 58.74,-16.1614 79,-17.4062 l 0,-230.6563 z"
           id="path30514"
           transform="matrix(0.26458334,0,0,0.26458334,-95.789407,29.039459)"
           inkscape:connector-curvature="0" />
        <path
           style="color:#000000;fill:#362400;fill-opacity:1;fill-rule:nonzero;stroke:none;stroke-width:60;marker:none;visibility:visible;display:inline;overflow:visible;enable-background:accumulate"
           d="m 19934.938,-4455.5625 0,230.6563 c 0.406,-0.025 0.862,-0.09 1.25,-0.094 19.712,-0.172 64.716,27.8194 80.562,16.0938 15.846,-11.7257 2.229,-62.9184 8.156,-81.7188 5.928,-18.8004 46.443,-52.9621 40.188,-71.6562 -6.255,-18.6942 -59.171,-21.584 -75.219,-33.0313 -15.845,-11.3021 -35.47,-59.2007 -54.937,-60.25 z"
           id="path30516"
           transform="matrix(0.26458334,0,0,0.26458334,-95.789407,29.039459)"
           inkscape:connector-curvature="0" />
        <path
           style="color:#000000;fill:#ffff00;fill-opacity:1;fill-rule:nonzero;stroke:none;stroke-width:60;marker:none;visibility:visible;display:inline;overflow:visible;enable-background:accumulate"
           d="m 19872.031,-4390.2812 c 1.487,-0.6317 2.866,-1.2609 4.125,-1.9376 1.259,-0.6766 2.385,-1.3921 3.375,-2.125 -1.981,1.4658 -4.527,2.7993 -7.5,4.0626 z"
           id="path30518"
           transform="matrix(0.26458334,0,0,0.26458334,-95.789407,29.039459)"
           inkscape:connector-curvature="0" />
        <path
           style="color:#000000;fill:#ffff00;fill-opacity:1;fill-rule:nonzero;stroke:none;stroke-width:60;marker:none;visibility:visible;display:inline;overflow:visible;enable-background:accumulate"
           d="m 19826.938,-4376.0312 c 3.664,-1.3478 7.578,-2.5888 11.562,-3.7813 7.967,-2.3851 16.255,-4.5744 23.531,-6.875 -10.913,3.4509 -24.099,6.6128 -35.093,10.6563 z"
           id="path30520"
           transform="matrix(0.26458334,0,0,0.26458334,-95.789407,29.039459)"
           inkscape:connector-curvature="0" />
        <path
           style="color:#000000;fill:#ffff00;fill-opacity:1;fill-rule:nonzero;stroke:none;stroke-width:60;marker:none;visibility:visible;display:inline;overflow:visible;enable-background:accumulate"
           d="m 19807.562,-4344.625 c -0.29,-0.5961 -0.557,-1.1638 -0.812,-1.75 0.264,0.6081 0.479,1.1939 0.781,1.8125 0,-0.022 0.03,-0.04 0.03,-0.062 z"
           id="path30522"
           transform="matrix(0.26458334,0,0,0.26458334,-95.789407,29.039459)"
           inkscape:connector-curvature="0" />
        <path
           style="opacity:0.42035397;color:#000000;fill:#2b2200;fill-opacity:1;fill-rule:nonzero;stroke:none;stroke-width:60;marker:none;visibility:visible;display:inline;overflow:visible;enable-background:accumulate"
           d="m 19934.938,-4455.5312 0,10.6874 c 0.03,-5e-4 0.06,3e-4 0.09,0 19.712,-0.172 34.014,46.8027 50.063,58.25 19.461,13.1793 76.117,10.8761 79.968,33.375 0.822,-3.2811 0.944,-6.341 0.03,-9.0624 -6.254,-18.6942 -59.171,-21.5527 -75.219,-33 -15.838,-11.2967 -35.479,-59.1547 -54.937,-60.25 z"
           id="path30524"
           transform="matrix(0.26458334,0,0,0.26458334,-95.789407,29.039459)"
           inkscape:connector-curvature="0" />
        <path
           style="color:#000000;fill:#ffff00;fill-opacity:1;fill-rule:nonzero;stroke:none;stroke-width:60;marker:none;visibility:visible;display:inline;overflow:visible;enable-background:accumulate"
           d="m 19934.156,-4455.6562 c -4.922,0.043 -9.792,3.1697 -14.594,8 -2.405,2.42 -4.796,5.265 -7.156,8.375 -9.433,12.4396 -18.475,29.0426 -26.781,38.9374 -1.044,1.2442 -2.073,2.3645 -3.094,3.375 -1.009,0.9987 -2.015,1.8965 -3,2.625 -0.99,0.7329 -2.116,1.4484 -3.375,2.125 -1.259,0.6767 -2.638,1.3059 -4.125,1.9376 -2.973,1.2632 -6.362,2.4434 -10,3.5937 -7.276,2.3006 -15.564,4.4899 -23.531,6.875 -3.984,1.1925 -7.898,2.4335 -11.562,3.7813 -7.33,2.6956 -13.664,5.7718 -17.75,9.625 -1.022,0.9632 -1.909,1.9989 -2.626,3.0624 -0.716,1.0636 -1.285,2.1688 -1.656,3.3438 -0.351,1.1135 -0.525,2.2897 -0.562,3.5 -0.03,0.8873 0.09,1.8165 0.218,2.75 0.05,0.3677 0.05,0.7194 0.126,1.0938 0.147,0.7704 0.42,1.5783 0.656,2.375 0.184,0.6235 0.328,1.2367 0.562,1.875 0.244,0.6632 0.549,1.3536 0.844,2.0312 0.255,0.5862 0.522,1.1539 0.812,1.75 0.09,-0.4623 0.204,-0.9296 0.344,-1.375 -2.598,-30.9405 54.474,-23.4388 77.813,-40.3438 18.229,-13.2035 29.565,-58.1852 49.219,-58.5 l 0,-10.6874 c -0.26,-0.015 -0.522,-0.1273 -0.782,-0.125 z"
           id="path30526"
           transform="matrix(0.26458334,0,0,0.26458334,-95.789407,29.039459)"
           inkscape:connector-curvature="0" />
        <path
           style="opacity:0.34070794;color:#000000;fill:#ff6600;fill-opacity:1;fill-rule:nonzero;stroke:none;stroke-width:60;marker:none;visibility:visible;display:inline;overflow:visible;enable-background:accumulate"
           d="m 19805,-4360.25 c -0.03,0.084 -0.07,0.1655 -0.09,0.25 -5.928,18.8004 35.184,52.2434 41.438,70.9375 1.159,3.463 1.651,8.0336 1.812,13.2813 0.193,-8.9592 -0.03,-16.9552 -1.812,-22.2813 -5.373,-16.0601 -36.448,-42.9956 -41.344,-62.1875 z"
           id="path30528"
           transform="matrix(0.26458334,0,0,0.26458334,-95.789407,29.039459)"
           inkscape:connector-curvature="0" />
        <path
           style="opacity:0.34070794;color:#000000;fill:#4c3300;fill-opacity:1;fill-rule:nonzero;stroke:none;stroke-width:60;marker:none;visibility:visible;display:inline;overflow:visible;enable-background:accumulate"
           d="m 20065.094,-4362.2812 c -4.763,19.2615 -35.117,46.574 -40.188,62.6562 -1.537,4.8751 -1.767,11.9268 -1.531,19.9062 0.159,-4.2455 0.605,-7.9687 1.531,-10.9062 5.928,-18.8005 46.443,-52.9621 40.188,-71.6562 z m -40.438,119.7812 c -0.363,11.0677 -2.245,20.3817 -7.937,24.5938 -15.847,11.7256 -60.819,-16.2659 -80.531,-16.0938 -0.225,0 -0.49,0.053 -0.719,0.062 l 0,9 c 0.229,-0.01 0.494,-0.061 0.719,-0.062 19.712,-0.1721 64.684,27.8194 80.531,16.0938 7.182,-5.3153 8.294,-18.7506 7.937,-33.5938 z"
           transform="matrix(0.26458334,0,0,0.26458334,-95.789407,29.039459)"
           id="path30530"
           inkscape:connector-curvature="0" />
        <path
           style="opacity:0.34070794;color:#000000;fill:#ff6600;fill-opacity:1;fill-rule:nonzero;stroke:none;stroke-width:60;marker:none;visibility:visible;display:inline;overflow:visible;enable-background:accumulate"
           d="m 19935.469,-4233.9375 c -20.037,0.8015 -63.664,28.7552 -79.531,17.4375 -6.304,-4.4962 -8.177,-15.1672 -8.5,-27.5938 -0.302,16.0699 0.714,31.0408 8.5,36.5938 15.867,11.3176 59.494,-16.636 79.531,-17.4375 l 0,-9 z"
           id="path30532"
           transform="matrix(0.26458334,0,0,0.26458334,-95.789407,29.039459)"
           inkscape:connector-curvature="0" />
      </g>
    </g>
  </g>
</svg>
