<?xml version="1.0" encoding="UTF-8" standalone="no"?>
<!-- Created with Inkscape (http://www.inkscape.org/) -->

<svg
   xmlns:dc="http://purl.org/dc/elements/1.1/"
   xmlns:cc="http://creativecommons.org/ns#"
   xmlns:rdf="http://www.w3.org/1999/02/22-rdf-syntax-ns#"
   xmlns:svg="http://www.w3.org/2000/svg"
   xmlns="http://www.w3.org/2000/svg"
   xmlns:xlink="http://www.w3.org/1999/xlink"
   xmlns:sodipodi="http://sodipodi.sourceforge.net/DTD/sodipodi-0.dtd"
   xmlns:inkscape="http://www.inkscape.org/namespaces/inkscape"
   width="256"
   height="256"
   viewBox="0 0 67.73333 67.733335"
   version="1.1"
   id="svg23489"
   inkscape:version="0.48.5 r10040"
   sodipodi:docname="heart_face_on.svg">
  <defs
     id="defs23483">
    <linearGradient
       inkscape:collect="always"
       xlink:href="#linearGradient18680"
       id="linearGradient22033"
       gradientUnits="userSpaceOnUse"
       x1="2633.2153"
       y1="-688.61578"
       x2="2642.1025"
       y2="-673.22247" />
    <linearGradient
       inkscape:collect="always"
       id="linearGradient18680">
      <stop
         style="stop-color:#eb0404;stop-opacity:1"
         offset="0"
         id="stop18682" />
      <stop
         style="stop-color:#cb0000;stop-opacity:1"
         offset="1"
         id="stop18684" />
    </linearGradient>
    <radialGradient
       inkscape:collect="always"
       xlink:href="#linearGradient18707"
       id="radialGradient22035"
       gradientUnits="userSpaceOnUse"
       gradientTransform="matrix(0.81116647,1.5006349,-2.5769652,1.3929712,-4983.7335,-13880.59)"
       cx="9938.1719"
       cy="-2663.3088"
       fx="9938.1719"
       fy="-2663.3088"
       r="26.68885" />
    <linearGradient
       id="linearGradient18707"
       inkscape:collect="always">
      <stop
         id="stop18709"
         offset="0"
         style="stop-color:#ff0000;stop-opacity:1" />
      <stop
         id="stop18711"
         offset="1"
         style="stop-color:#ff0000;stop-opacity:0" />
    </linearGradient>
  </defs>
  <sodipodi:namedview
     id="base"
     pagecolor="#7d848b"
     bordercolor="#666666"
     borderopacity="1.0"
     inkscape:pageopacity="1"
     inkscape:pageshadow="2"
     inkscape:zoom="3.7622138"
     inkscape:cx="185.86417"
     inkscape:cy="134.68957"
     inkscape:document-units="px"
     inkscape:current-layer="layer1"
     showgrid="false"
     inkscape:pagecheckerboard="false"
     showborder="true"
     units="px"
     inkscape:window-width="1920"
     inkscape:window-height="1017"
     inkscape:window-x="-8"
     inkscape:window-y="-8"
     inkscape:window-maximized="1"
     inkscape:showpageshadow="false"
     guidetolerance="28"
     fit-margin-left="256">
    <inkscape:grid
       type="xygrid"
       id="grid24034"
       spacingx="1px"
       spacingy="1px"
       empspacing="8"
       visible="true"
       enabled="true"
       snapvisiblegridlinesonly="true" />
  </sodipodi:namedview>
  <metadata
     id="metadata23486">
    <rdf:RDF>
      <cc:Work
         rdf:about="">
        <dc:format>image/svg+xml</dc:format>
        <dc:type
           rdf:resource="http://purl.org/dc/dcmitype/StillImage" />
        <dc:title />
        <cc:license
           rdf:resource="" />
        <dc:creator>
          <cc:Agent>
            <dc:title>Robert Brooks</dc:title>
          </cc:Agent>
        </dc:creator>
      </cc:Work>
    </rdf:RDF>
  </metadata>
  <g
     inkscape:label="Layer 1"
     inkscape:groupmode="layer"
     id="layer1"
     transform="translate(0,-229.26665)">
    <g
       transform="matrix(1.7180076,0,0,1.7180076,-4447.1949,1427.109)"
       id="g21431">
      <g
         id="g21433"
         transform="translate(-35.725865,2.81306)">
        <path
           sodipodi:nodetypes="scccscs"
           inkscape:connector-curvature="0"
           id="path9530"
           d="m 2636.725,-692.74749 c -4.5914,0 -8.3125,4.47603 -8.3125,9.06724 0.1963,9.18756 11.3363,16.64118 15.78,17.83188 4.6189,-1.23764 15.5723,-9.69005 15.8176,-17.7644 0,-5.41349 -3.7585,-9.13472 -8.3497,-9.13472 -3.2797,0 -6.1151,1.90005 -7.4679,4.65854 -1.3526,-2.75828 -4.188,-4.65854 -7.4675,-4.65854 z"
           style="color:#000000;fill:#db0c0c;fill-opacity:1;fill-rule:nonzero;stroke:none;stroke-width:4.33289433000000020;stroke-linejoin:round;stroke-miterlimit:4;stroke-opacity:1;stroke-dasharray:none;marker:none;visibility:visible;display:inline;overflow:visible;enable-background:accumulate" />
        <path
           sodipodi:nodetypes="scccscs"
           inkscape:connector-curvature="0"
           id="path21435"
           d="m 2636.725,-692.74749 c -4.5914,0 -8.3125,4.47603 -8.3125,9.06724 0.1963,9.18756 11.3363,16.64118 15.78,17.83188 4.6189,-1.23764 15.5723,-9.69005 15.8176,-17.7644 0,-5.41349 -3.7585,-9.13472 -8.3497,-9.13472 -3.2797,0 -6.1151,1.90005 -7.4679,4.65854 -1.3526,-2.75828 -4.188,-4.65854 -7.4675,-4.65854 z"
           style="color:#000000;fill:#db0c0c;fill-opacity:1;fill-rule:nonzero;stroke:none;stroke-width:6.61458349;marker:none;visibility:visible;display:inline;overflow:visible;enable-background:accumulate" />
        <path
           style="color:#000000;fill:#db0c0c;fill-opacity:1;fill-rule:nonzero;stroke:#190101;stroke-width:2.59973645;stroke-linejoin:round;stroke-miterlimit:4;stroke-opacity:1;stroke-dasharray:none;marker:none;visibility:visible;display:inline;overflow:visible;enable-background:accumulate"
           d="m 2636.725,-692.74749 c -4.5914,0 -8.3125,4.47603 -8.3125,9.06724 0.1963,9.18756 11.3363,16.64118 15.78,17.83188 4.6189,-1.23764 15.5723,-9.69005 15.8176,-17.7644 0,-5.41349 -3.7585,-9.13472 -8.3497,-9.13472 -3.2797,0 -6.1151,1.90005 -7.4679,4.65854 -1.3526,-2.75828 -4.188,-4.65854 -7.4675,-4.65854 z"
           id="path21437"
           inkscape:connector-curvature="0"
           sodipodi:nodetypes="scccscs" />
        <path
           sodipodi:nodetypes="scccscs"
           inkscape:connector-curvature="0"
           id="path21439"
           d="m 2636.725,-692.74749 c -4.5914,0 -8.3125,4.47603 -8.3125,9.06724 0.1963,9.18756 11.3363,16.64118 15.78,17.83188 4.6189,-1.23764 15.5723,-9.69005 15.8176,-17.7644 0,-5.41349 -3.7585,-9.13472 -8.3497,-9.13472 -3.2797,0 -6.1151,1.90005 -7.4679,4.65854 -1.3526,-2.75828 -4.188,-4.65854 -7.4675,-4.65854 z"
           style="color:#000000;fill:url(#linearGradient22033);fill-opacity:1;fill-rule:nonzero;stroke:none;stroke-width:12;marker:none;visibility:visible;display:inline;overflow:visible;enable-background:accumulate" />
        <path
           sodipodi:nodetypes="ccccccc"
           inkscape:connector-curvature="0"
           id="path21441"
           transform="matrix(0.26458334,0,0,0.26458334,-6.3049604e-6,18.562493)"
           d="m 10053.406,-2657.5 c -2.922,29.7725 -42.593,57.9393 -59.5935,62.4946 -16.3371,-4.3776 -56.6323,-28.9206 -59.5,-62.3384 -0.1052,1.0668 -0.1563,2.1136 -0.1563,3.1876 0.742,34.7246 42.8612,62.9059 59.6563,67.4062 17.4575,-4.6777 58.8545,-36.639 59.7815,-67.1562 0,-1.2258 -0.09,-2.4156 -0.188,-3.5938 z"
           style="opacity:0.72566373;color:#000000;fill:#aa0000;fill-opacity:1;fill-rule:nonzero;stroke:none;stroke-width:12;marker:none;visibility:visible;display:inline;overflow:visible;enable-background:accumulate" />
        <path
           transform="matrix(0.26458334,0,0,0.26458334,2.7847811,19.656516)"
           d="m 9980.8783,-2663.0264 c 0,14.7399 -11.949,26.6889 -26.6888,26.6889 -14.7399,0 -26.6889,-11.949 -26.6889,-26.6889 0,-14.7398 11.949,-26.6888 26.6889,-26.6888 14.7398,0 26.6888,11.949 26.6888,26.6888 z"
           sodipodi:ry="26.68885"
           sodipodi:rx="26.68885"
           sodipodi:cy="-2663.0264"
           sodipodi:cx="9954.1895"
           id="path21443"
           style="opacity:0.61504421;color:#000000;fill:url(#radialGradient22035);fill-opacity:1;fill-rule:nonzero;stroke:none;stroke-width:25;marker:none;visibility:visible;display:inline;overflow:visible;enable-background:accumulate"
           sodipodi:type="arc" />
        <path
           id="path21445"
           transform="matrix(0.26458334,0,0,0.26458334,-6.3049604e-6,18.562493)"
           d="m 9965.5625,-2688.4062 c -17.3533,0 -31.4063,16.8973 -31.4063,34.25 0.016,0.7516 0.071,1.5046 0.125,2.25 1.3373,-16.3828 14.8148,-31.625 31.2813,-31.625 12.395,0 23.1378,7.2 28.25,17.625 5.1129,-10.4258 15.8235,-17.625 28.2185,-17.625 16.489,0 30.12,12.7123 31.438,31.5312 0.05,-0.633 0.106,-1.2742 0.125,-1.9062 0,-20.4605 -14.21,-34.5 -31.563,-34.5 -12.395,0 -23.1056,7.1679 -28.2185,17.5937 -5.1122,-10.425 -15.855,-17.5937 -28.25,-17.5937 z"
           style="color:#000000;fill:#ff0000;fill-opacity:1;fill-rule:nonzero;stroke:none;stroke-width:12;marker:none;visibility:visible;display:inline;overflow:visible;enable-background:accumulate"
           inkscape:connector-curvature="0" />
      </g>
    </g>
  </g>
</svg>
