<?xml version="1.0" encoding="UTF-8" standalone="no"?>
<!-- Created with Inkscape (http://www.inkscape.org/) -->

<svg
   xmlns:dc="http://purl.org/dc/elements/1.1/"
   xmlns:cc="http://creativecommons.org/ns#"
   xmlns:rdf="http://www.w3.org/1999/02/22-rdf-syntax-ns#"
   xmlns:svg="http://www.w3.org/2000/svg"
   xmlns="http://www.w3.org/2000/svg"
   xmlns:sodipodi="http://sodipodi.sourceforge.net/DTD/sodipodi-0.dtd"
   xmlns:inkscape="http://www.inkscape.org/namespaces/inkscape"
   width="234.30399"
   height="223.52931"
   viewBox="0 0 61.992926 59.142132"
   version="1.1"
   id="svg23489"
   inkscape:version="0.48.5 r10040"
   sodipodi:docname="diamond.svg">
  <defs
     id="defs23483" />
  <sodipodi:namedview
     id="base"
     pagecolor="#7d848b"
     bordercolor="#666666"
     borderopacity="1.0"
     inkscape:pageopacity="1"
     inkscape:pageshadow="2"
     inkscape:zoom="0.85235729"
     inkscape:cx="241.90629"
     inkscape:cy="-17.46292"
     inkscape:document-units="px"
     inkscape:current-layer="layer1"
     showgrid="false"
     inkscape:pagecheckerboard="false"
     showborder="true"
     units="px"
     inkscape:window-width="1920"
     inkscape:window-height="1017"
     inkscape:window-x="-8"
     inkscape:window-y="-8"
     inkscape:window-maximized="1"
     inkscape:showpageshadow="false"
     guidetolerance="28"
     fit-margin-top="0"
     fit-margin-left="0"
     fit-margin-right="0"
     fit-margin-bottom="0">
    <inkscape:grid
       type="xygrid"
       id="grid24034"
       spacingx="1px"
       spacingy="1px"
       empspacing="8"
       visible="true"
       enabled="true"
       snapvisiblegridlinesonly="true"
       originx="-130.89823px"
       originy="-394.70255px" />
  </sodipodi:namedview>
  <metadata
     id="metadata23486">
    <rdf:RDF>
      <cc:Work
         rdf:about="">
        <dc:format>image/svg+xml</dc:format>
        <dc:type
           rdf:resource="http://purl.org/dc/dcmitype/StillImage" />
        <dc:title></dc:title>
        <cc:license
           rdf:resource="" />
        <dc:creator>
          <cc:Agent>
            <dc:title>Robert Brooks</dc:title>
          </cc:Agent>
        </dc:creator>
      </cc:Work>
    </rdf:RDF>
  </metadata>
  <g
     inkscape:label="Layer 1"
     inkscape:groupmode="layer"
     id="layer1"
     transform="translate(-34.633491,-133.42613)">
    <g
       transform="matrix(0.70422224,0,0,0.70422224,-578.35407,220.58592)"
       id="g17412">
      <g
         transform="matrix(0.9116648,0,0,0.9116648,46.587224,-10.427416)"
         id="g17246">
        <g
           id="g17233"
           transform="matrix(0.95237531,0.3049283,-0.38023833,0.84596068,48.86389,-293.1721)">
          <g
             style="stroke:#2b1100;stroke-width:5.29166698;stroke-linejoin:round;stroke-miterlimit:4;stroke-opacity:1;stroke-dasharray:none"
             id="g17227">
            <path
               transform="matrix(0.26458334,0,0,0.26458334,39.538024,-286.57767)"
               inkscape:connector-curvature="0"
               id="path17229"
               d="m 3422.2738,868.7671 c -19.9447,-3.51965 -39.8894,-7.62591 -39.8894,-9.97234 0,-2.34644 28.1572,-31.09025 35.7831,-80.36536 7.6259,-49.27511 -42.2358,-80.36536 -42.2358,-80.36536 0,0 19.9447,-18.18487 29.917,-15.25182 9.9724,2.93304 39.3028,45.75546 43.4091,70.39301 4.1062,24.63756 9.9723,66.28676 0,83.88501 -9.9724,17.59826 -26.984,31.67686 -26.984,31.67686 z"
               style="color:#000000;fill:#a05a2c;fill-opacity:1;fill-rule:nonzero;stroke:#2b1100;stroke-width:20;stroke-linecap:round;stroke-linejoin:round;stroke-miterlimit:4;stroke-opacity:1;stroke-dasharray:none;stroke-dashoffset:0;marker:none;visibility:visible;display:inline;overflow:visible;enable-background:accumulate" />
            <path
               sodipodi:nodetypes="cssssc"
               inkscape:connector-curvature="0"
               id="path17231"
               d="m 930.79295,-107.25718 c 27.45085,4.15224 22.37598,42.675731 17.301,46.597285 -5.07498,3.921554 -9.45787,4.844274 -6.45906,5.305632 2.99881,0.46136 11.9242,-0.377363 13.07751,-16.294262 1.15342,-15.916892 -3.32201,-29.455775 -12.08779,-34.530725 -8.76589,-5.07496 -11.83166,-1.07793 -11.83166,-1.07793 z"
               style="color:#000000;fill:#86471d;fill-opacity:1;fill-rule:nonzero;stroke:#2b1100;stroke-width:5.29166698;stroke-linejoin:round;stroke-miterlimit:4;stroke-opacity:1;stroke-dasharray:none;marker:none;visibility:visible;display:inline;overflow:visible;enable-background:accumulate" />
          </g>
          <g
             id="g17223">
            <path
               style="color:#000000;fill:#a05a2c;fill-opacity:1;fill-rule:nonzero;stroke:none;stroke-width:10;marker:none;visibility:visible;display:inline;overflow:visible;enable-background:accumulate"
               d="m 3422.2738,868.7671 c -19.9447,-3.51965 -39.8894,-7.62591 -39.8894,-9.97234 0,-2.34644 28.1572,-31.09025 35.7831,-80.36536 7.6259,-49.27511 -42.2358,-80.36536 -42.2358,-80.36536 0,0 19.9447,-18.18487 29.917,-15.25182 9.9724,2.93304 39.3028,45.75546 43.4091,70.39301 4.1062,24.63756 9.9723,66.28676 0,83.88501 -9.9724,17.59826 -26.984,31.67686 -26.984,31.67686 z"
               id="path17221"
               inkscape:connector-curvature="0"
               transform="matrix(0.26458334,0,0,0.26458334,39.538024,-286.57767)" />
            <path
               style="color:#000000;fill:#703b18;fill-opacity:1;fill-rule:nonzero;stroke:none;stroke-width:40;marker:none;visibility:visible;display:inline;overflow:visible;enable-background:accumulate"
               d="m 930.79295,-107.25718 c 27.45085,4.15224 22.37598,42.675731 17.301,46.597285 -5.07498,3.921554 -9.45787,4.844274 -6.45906,5.305632 2.99881,0.46136 11.9242,-0.377363 13.07751,-16.294262 1.15342,-15.916892 -3.32201,-29.455775 -12.08779,-34.530725 -8.76589,-5.07496 -11.83166,-1.07793 -11.83166,-1.07793 z"
               id="path17205"
               inkscape:connector-curvature="0"
               sodipodi:nodetypes="cssssc" />
          </g>
        </g>
        <g
           id="g17164"
           transform="matrix(0.74313618,0,0,0.74313618,199.79116,1.6571902)">
          <path
             inkscape:connector-curvature="0"
             id="path17160"
             d="m 984.35881,-139.42958 c -11.18059,19.82017 -18.24064,68.58082 -14.68318,74.171124 3.55747,5.590302 52.34547,11.180604 57.42767,11.180604 5.082,0 23.3227,-12.169583 24.8474,-14.202421 1.5246,-2.032836 0.5082,-66.067207 -5.0821,-70.132887 -5.5903,-4.06567 -46.2471,-9.14777 -51.83739,-7.62314 -5.59029,1.52463 -10.6724,6.60672 -10.6724,6.60672 z"
             style="color:#000000;fill:#a05a2c;fill-opacity:1;fill-rule:nonzero;stroke:#2b1100;stroke-width:8.66351795;stroke-linecap:round;stroke-linejoin:round;stroke-miterlimit:4;stroke-opacity:1;stroke-dasharray:none;stroke-dashoffset:0;marker:none;visibility:visible;display:inline;overflow:visible;enable-background:accumulate"
             sodipodi:nodetypes="csscssc" />
          <path
             style="color:#000000;fill:#a05a2c;fill-opacity:1;fill-rule:nonzero;stroke:none;stroke-width:25;marker:none;visibility:visible;display:inline;overflow:visible;enable-background:accumulate"
             d="m 984.35881,-139.42958 c -11.18059,19.82017 -18.24064,68.58082 -14.68318,74.171124 3.55747,5.590302 52.34547,11.180604 57.42767,11.180604 5.082,0 23.3227,-12.169583 24.8474,-14.202421 1.5246,-2.032836 0.5082,-66.067207 -5.0821,-70.132887 -5.5903,-4.06567 -46.2471,-9.14777 -51.83739,-7.62314 -5.59029,1.52463 -10.6724,6.60672 -10.6724,6.60672 z"
             id="path17162"
             inkscape:connector-curvature="0"
             sodipodi:nodetypes="csscssc" />
          <path
             style="opacity:0.48672563;color:#000000;fill:#6b330d;fill-opacity:1;fill-rule:nonzero;stroke:none;stroke-width:25;marker:none;visibility:visible;display:inline;overflow:visible;enable-background:accumulate"
             d="m 3791.6875,553.53125 c -20.0517,11.19159 -38.5258,27.77874 -39.75,42.46875 -2.11,25.32049 -3.8325,198.1258 -8.2365,280.00892 28.953,-10.77733 77.7707,-44.32573 82.7365,-50.94642 5.7623,-7.68316 1.9099,-249.69615 -19.2187,-265.0625 -2.8968,-2.10669 -8.3354,-4.29189 -15.5313,-6.46875 z"
             transform="matrix(0.26458334,0,0,0.26458334,39.538024,-286.57767)"
             id="path17170"
             inkscape:connector-curvature="0"
             sodipodi:nodetypes="cscccc" />
          <path
             sodipodi:nodetypes="cccccccccscscscsc"
             inkscape:connector-curvature="0"
             id="path17243"
             transform="matrix(0.39053405,0,0,0.39053405,-279.25351,-409.8372)"
             d="m 3272.1562,674.78125 c -4.2445,-0.003 -7.4606,0.23075 -9.25,0.71875 -14.3144,3.90396 -27.3124,16.90625 -27.3124,16.90625 -13.502,23.93524 -24.6555,64.34368 -31.7188,101.875 15.3002,4.08097 -10.4932,-0.83166 11.222,1.79785 -0.7607,0.64603 -1.4286,1.26937 -1.9063,1.90625 -6.1593,8.21252 -12.3354,17.78638 -12.3354,17.78638 8.4062,24.63756 6.0208,32.26486 5.9493,33.43808 2.0531,1.17322 13.2166,2.04822 13.2166,2.04822 0,0 18.0389,-20.24068 18.9753,-24.20633 1.4809,-6.27185 -1.7222,-14.90019 0.1731,-29.64722 32.7629,7.85016 118.1708,14.25936 121.3929,12.97052 7.5631,-3.02523 28.7187,-12.09375 28.7187,-12.09375 0,0 -4.5444,-43.8618 4.5313,-52.9375 3.1198,-3.11977 7.6846,-2.83854 12.3125,-1.5625 -2.3587,-25.41355 -5.745,-45.36851 -10.4375,-48.78125 -12.5252,-9.10922 -93.8195,-20.20095 -123.5313,-20.21875 z"
             style="color:#000000;fill:#86471d;fill-opacity:1;fill-rule:nonzero;stroke:none;stroke-width:25;marker:none;visibility:visible;display:inline;overflow:visible;enable-background:accumulate" />
          <path
             inkscape:connector-curvature="0"
             id="path17288"
             transform="matrix(0.39053405,0,0,0.39053405,-279.25351,-409.8372)"
             d="m 3396.4375,695.75 c 0.2538,3.0708 0.8881,7.99715 1.7813,15.8125 2.3465,20.5313 5.2812,152.5 5.2812,152.5 0,0 -32.8598,23.48303 -39.3125,24.65625 -6.4526,1.17321 -9.9616,-12.90443 -9.375,-28.15625 0.5866,-15.25182 -5.2759,32.25178 -9.9687,37.53125 -4.693,5.27948 -133.1554,-16.40802 -140.7813,-21.6875 -7.6259,-5.27948 -1.7804,-69.24722 11.125,-112.65625 l -2.3437,-9.46875 C 3198.492,809.03667 3191.6684,872.36279 3198,882.3125 c 9.1092,14.31451 134.049,28.65625 147.0625,28.65625 13.0129,0 59.7209,-31.16972 63.625,-36.375 3.8315,-5.10872 1.3743,-163.14063 -12.25,-178.84375 z"
             style="opacity:0.89380535;color:#000000;fill:#6d3a18;fill-opacity:1;fill-rule:nonzero;stroke:none;stroke-width:25;marker:none;visibility:visible;display:inline;overflow:visible;enable-background:accumulate" />
          <path
             inkscape:connector-curvature="0"
             id="path17315"
             transform="matrix(0.39053405,0,0,0.39053405,-279.25351,-409.8372)"
             d="m 3355.9062,684.0625 c -0.071,30.34781 0.5301,60.12442 2.2813,61 2.3551,1.17758 0.9515,30.07902 -0.6563,65.65625 1.4574,-0.0189 2.5166,-0.13788 3.0313,-0.34375 7.5631,-3.02523 28.7187,-12.09375 28.7187,-12.09375 0,0 -4.5444,-43.8618 4.5313,-52.9375 3.1198,-3.11977 7.6846,-2.83854 12.3125,-1.5625 -2.3587,-25.41355 -5.745,-45.36851 -10.4375,-48.78125 -4.9579,-3.60573 -20.7376,-7.52028 -39.7813,-10.9375 z"
             style="color:#000000;fill:#703b19;fill-opacity:1;fill-rule:nonzero;stroke:none;stroke-width:25;marker:none;visibility:visible;display:inline;overflow:visible;enable-background:accumulate" />
        </g>
        <g
           id="g17198"
           transform="matrix(0.69931401,0,0,0.69931401,246.20223,-0.87309728)">
          <path
             sodipodi:nodetypes="sscsccscss"
             inkscape:connector-curvature="0"
             id="path17173"
             transform="matrix(0.26458334,0,0,0.26458334,39.538024,-286.57767)"
             d="m 3628.5,467.15625 c -10.188,-0.007 -18.4042,0.58543 -23.6875,1.90625 -33.8131,8.45325 -81.457,22.13578 -88.0937,33.75 -35.9264,73.96607 -40.0862,124.5231 -27.4063,145.65625 11.7883,19.64719 205.6087,40.86431 253.8975,40.59082 8.0574,-4.3184 18.7496,-5.7127 23.2275,-8.12207 8.402,-21.94626 -2.8938,-77.05607 15.9063,-114.65625 23.2467,-46.49295 36.4575,5.59424 36.4575,5.59424 4.9775,-4.97754 15.5334,-53.71881 -6.8951,-73.21924 -16.0848,-13.9851 -128.3911,-31.46091 -183.4062,-31.5 z"
             style="color:#000000;fill:#6b330d;fill-opacity:1;fill-rule:nonzero;stroke:#2b1100;stroke-width:36.02599716;stroke-linecap:round;stroke-linejoin:round;stroke-miterlimit:4;stroke-opacity:1;stroke-dasharray:none;stroke-dashoffset:0;marker:none;visibility:visible;display:inline;overflow:visible;enable-background:accumulate" />
          <path
             sodipodi:nodetypes="sscsccscss"
             inkscape:connector-curvature="0"
             id="path17175"
             transform="matrix(0.26458334,0,0,0.26458334,39.538024,-286.57767)"
             d="m 3627.8438,467 c -9.7946,0.0842 -17.748,0.74168 -23.0313,2.0625 -33.8131,8.45325 -83.102,23.79203 -87.25,35.40625 -35.9264,73.96607 -40.9299,122.86685 -28.25,144 11.7883,19.64719 205.6087,40.86431 253.8975,40.59082 8.0574,-4.3184 18.7496,-5.7127 23.2275,-8.12207 8.402,-21.94626 -2.8938,-77.05607 15.9063,-114.65625 23.2467,-46.49295 33.125,17.1875 33.125,17.1875 0,0 26.024,-65.79267 -3.5626,-84.8125 C 3786.9426,482.60824 3680.7346,466.54552 3627.8438,467 z"
             style="color:#000000;fill:#a05a2c;fill-opacity:1;fill-rule:nonzero;stroke:none;stroke-width:9.53187847;marker:none;visibility:visible;display:inline;overflow:visible;enable-background:accumulate" />
          <path
             id="path17188"
             transform="matrix(0.26458334,0,0,0.26458334,39.538024,-286.57767)"
             d="m 3627.8438,467 c -9.7947,0.0842 -17.748,0.74168 -23.0313,2.0625 -32.7931,8.19825 -80.1394,22.87131 -86.75,34.34375 57.9133,4.62774 229.6886,28.00251 252.4375,35.0625 24.0581,7.46631 43.1133,16.60596 49.75,0.84375 0.8987,-2.13446 2.9992,-4.01205 5.7812,-5.78125 0.1876,-14.2367 -3.1111,-27.7947 -14.125,-34.875 C 3786.9426,482.60824 3680.7346,466.54552 3627.8438,467 z"
             style="color:#000000;fill:#d8854d;fill-opacity:1;fill-rule:nonzero;stroke:none;stroke-width:40;marker:none;visibility:visible;display:inline;overflow:visible;enable-background:accumulate"
             inkscape:connector-curvature="0" />
          <path
             id="path17193"
             transform="matrix(0.26458334,0,0,0.26458334,39.538024,-286.57767)"
             d="m 3506.375,531.71875 c -0.3598,-0.0394 -1.1421,0.91993 -2.2812,2.75 -23.5049,57.28832 -25.6583,95.8716 -14.7813,114 11.7883,19.64719 205.6174,40.86724 253.9063,40.59375 8.0574,-4.3184 18.7408,-5.71563 23.2187,-8.125 4.6567,-12.16334 3.28,-34.52709 4.3125,-58.4375 -5.9479,-17.22433 -12.7188,-30.09375 -12.7188,-30.09375 0,0 -10.7866,76.33496 -16.5937,81.3125 -5.8071,4.97753 -237.2383,-25.73779 -243.875,-41.5 -6.6368,-15.7622 -7.4781,-55.5918 6.625,-92.09375 2.2036,-5.70343 2.7719,-8.3422 2.1875,-8.40625 z"
             style="opacity:0.57079647;color:#000000;fill:#d37434;fill-opacity:1;fill-rule:nonzero;stroke:none;stroke-width:40;marker:none;visibility:visible;display:inline;overflow:visible;enable-background:accumulate"
             inkscape:connector-curvature="0" />
          <path
             id="path17183"
             transform="matrix(0.26458334,0,0,0.26458334,39.538024,-286.57767)"
             d="m 3804.375,517.40625 c -5.0949,0.039 -11.3469,2.6364 -18.9688,8.625 -33.4844,26.30917 -31.7154,111.49985 -33,159.34375 5.6727,-1.76069 11.1486,-2.88642 14.0313,-4.4375 8.402,-21.94626 -2.8939,-77.05607 15.9063,-114.65625 23.2467,-46.49295 33.125,17.1875 33.125,17.1875 0,0 6.2809,-15.95231 9.1562,-34.40625 -2.6992,-17.8116 -8.3578,-31.74725 -20.25,-31.65625 z"
             style="color:#000000;fill:#86471d;fill-opacity:1;fill-rule:nonzero;stroke:none;stroke-width:40;marker:none;visibility:visible;display:inline;overflow:visible;enable-background:accumulate"
             inkscape:connector-curvature="0" />
        </g>
      </g>
      <g
         transform="matrix(0.83738197,-0.04191129,0.04992101,0.78327928,136.16463,20.108623)"
         id="g17318">
        <g
           id="g17275"
           transform="matrix(0.85163263,0,0,0.85163263,145.43393,-13.001606)">
          <path
             id="path17270"
             transform="matrix(0.26458334,0,0,0.26458334,39.538024,-286.57767)"
             d="M 3197.3737,742.12891 C 3179.9524,815.1328 3183.9688,848.75 3183.9688,848.75 l 12.4374,25.5 9.9688,1.875 24.4688,-22 c 1.2444,-50.60497 11.0559,-96.11848 11.0559,-96.11848 0,0 -8.1386,-12.77042 -18.4707,-16.21445 -24.1079,-5.48937 -26.0553,0.33684 -26.0553,0.33684 z"
             style="color:#000000;fill:#86471d;fill-opacity:1;fill-rule:nonzero;stroke:#2b1100;stroke-width:20;stroke-linejoin:round;stroke-opacity:1;marker:none;visibility:visible;display:inline;overflow:visible;enable-background:accumulate"
             inkscape:connector-curvature="0"
             sodipodi:nodetypes="cccccccc" />
          <path
             sodipodi:nodetypes="cccccc"
             style="color:#000000;fill:#86471d;fill-opacity:1;fill-rule:nonzero;stroke:none;stroke-width:20;marker:none;visibility:visible;display:inline;overflow:visible;enable-background:accumulate"
             d="m 886.50504,-91.603878 c -4.60939,19.315613 -1.25048,36.340146 -1.25048,36.340146 l 2.63396,0.493865 6.47511,-5.816633 c 0.32925,-13.389232 3.76668,-29.116415 3.76668,-29.116415 -3.1461,-2.704657 -10.11938,-2.792852 -11.62527,-1.900963 z"
             id="path17268"
             inkscape:connector-curvature="0" />
          <path
             inkscape:connector-curvature="0"
             id="path17352"
             transform="matrix(0.36983112,0.01978873,-0.02357058,0.39537611,-280.30779,-448.53853)"
             d="m 3213.9375,740.71875 c -5.3388,-0.0414 -9.9119,0.7086 -11.625,1.78125 -0.5806,3.07219 -1.0753,6.11458 -1.5,9.125 6.157,-1.5716 14.25,-4.90625 14.25,-4.90625 8.3424,0 14.8035,-0.45147 18.8437,-0.8125 0,-0.0138 0.031,-0.1875 0.031,-0.1875 -5.0144,-3.59693 -13.1358,-4.94677 -20,-5 z"
             style="color:#000000;fill:#d8854d;fill-opacity:1;fill-rule:nonzero;stroke:none;stroke-width:20;marker:none;visibility:visible;display:inline;overflow:visible;enable-background:accumulate" />
          <path
             sodipodi:nodetypes="cccccc"
             inkscape:connector-curvature="0"
             id="path17266"
             d="m 885.69355,-90.767145 c -4.60939,19.315613 -3.73143,28.753923 -3.73143,28.753923 l 3.29244,6.74949 6.47512,-5.542264 c -0.32924,-13.169736 3.40219,-28.424679 3.40219,-28.424679 0.72898,-1.640216 -8.89158,-3.723425 -9.43832,-1.53647 z"
             style="color:#000000;fill:#a05a2c;fill-opacity:1;fill-rule:nonzero;stroke:none;stroke-width:20;marker:none;visibility:visible;display:inline;overflow:visible;enable-background:accumulate" />
          <path
             inkscape:connector-curvature="0"
             style="color:#000000;fill:#d8854d;fill-opacity:1;fill-rule:nonzero;stroke:none;stroke-width:20;marker:none;visibility:visible;display:inline;overflow:visible;enable-background:accumulate"
             d="m 3259.375,738.78125 c -4.3464,-0.0218 -7.7313,0.86272 -8.2812,3.0625 -14.8366,62.17249 -12.0313,92.53125 -12.0313,92.53125 l 10.5937,21.71875 0.031,-0.0312 -8.8437,-18.15625 c 0,0 -2.8366,-30.39001 12,-92.5625 1.4233,-5.69347 21.9434,-2.38758 28.5,1.875 0.015,-0.0617 0.125,-0.4375 0.125,-0.4375 1.6131,-3.62964 -12.5317,-7.95214 -22.0938,-8 z"
             transform="matrix(0.31067779,0,0,0.31067779,-124.34459,-321.23718)"
             id="path17291" />
        </g>
        <path
           inkscape:connector-curvature="0"
           style="color:#000000;fill:#d8854d;fill-opacity:1;fill-rule:nonzero;stroke:none;stroke-width:20;marker:none;visibility:visible;display:inline;overflow:visible;enable-background:accumulate"
           d="m 3261.4062,757.3125 c -3.5423,0 -6.4374,2.86395 -6.4374,6.40625 0,3.5423 2.8951,6.40625 6.4374,6.40625 3.5424,0 6.4063,-2.86395 6.4063,-6.40625 0,-3.5423 -2.8639,-6.40625 -6.4063,-6.40625 z m -3.6874,31.15625 c -3.5424,0 -6.4063,2.86395 -6.4063,6.40625 0,3.5423 2.8639,6.40625 6.4063,6.40625 3.5423,0 6.4374,-2.86395 6.4374,-6.40625 0,-3.5423 -2.8951,-6.40625 -6.4374,-6.40625 z m -3.6563,29.9375 c -3.5423,0 -6.4063,2.86395 -6.4063,6.40625 0,3.5423 2.864,6.40625 6.4063,6.40625 3.5423,0 6.4063,-2.86395 6.4063,-6.40625 0,-3.5423 -2.864,-6.40625 -6.4063,-6.40625 z"
           transform="matrix(0.26458334,0,0,0.26458334,39.538024,-286.57767)"
           id="path17298" />
        <path
           inkscape:connector-curvature="0"
           style="color:#000000;fill:#6d3a18;fill-opacity:1;fill-rule:nonzero;stroke:none;stroke-width:20;marker:none;visibility:visible;display:inline;overflow:visible;enable-background:accumulate"
           d="m 3261.25,760.25 c -3.4017,0 -6.1562,2.75451 -6.1562,6.15625 0,3.40174 2.7545,6.15625 6.1562,6.15625 3.4017,0 6.1562,-2.75451 6.1562,-6.15625 0,-3.40174 -2.7545,-6.15625 -6.1562,-6.15625 z m -3.5312,29.90625 c -3.4018,0 -6.1563,2.75451 -6.1563,6.15625 0,3.40174 2.7545,6.15625 6.1563,6.15625 3.4017,0 6.1562,-2.75451 6.1562,-6.15625 0,-3.40174 -2.7545,-6.15625 -6.1562,-6.15625 z m -3.9376,29.59375 c -3.4017,0 -6.1562,2.75451 -6.1562,6.15625 0,3.40174 2.7545,6.15625 6.1562,6.15625 3.4018,0 6.1876,-2.75451 6.1876,-6.15625 0,-3.40174 -2.7858,-6.15625 -6.1876,-6.15625 z"
           transform="matrix(0.26458334,0,0,0.26458334,39.538024,-286.57767)"
           id="path17280" />
        <path
           style="color:#000000;fill:#d8854d;fill-opacity:1;fill-rule:nonzero;stroke:none;stroke-width:20;marker:none;visibility:visible;display:inline;overflow:visible;enable-background:accumulate"
           d="m 3277.9681,760.83114 c -5.2795,15.83843 -8.2125,48.68851 -8.7991,59.83407 -0.5866,11.14556 5.8661,-34.02329 7.0393,-42.23581 1.1732,-8.21252 1.7598,-17.59826 1.7598,-17.59826 z"
           id="path17296"
           inkscape:connector-curvature="0"
           transform="matrix(0.26458334,0,0,0.26458334,39.538024,-286.57767)" />
      </g>
      <path
         inkscape:connector-curvature="0"
         id="path17346"
         d="m 916.64243,-73.646488 c 0.2195,12.730744 -0.54872,14.925701 -0.32924,15.364693 0.21949,0.438991 2.5242,2.304703 2.5242,2.304703 l 6.14587,-6.145877 0.10975,-10.865032 z"
         style="opacity:0.89380535;color:#000000;fill:#86471d;fill-opacity:1;fill-rule:nonzero;stroke:none;stroke-width:20;marker:none;visibility:visible;display:inline;overflow:visible;enable-background:accumulate" />
      <g
         id="g17328"
         transform="matrix(0.83463392,-0.08525288,0.08525288,0.83463392,169.74232,66.323491)">
        <g
           transform="matrix(0.85163263,0,0,0.85163263,145.43393,-13.001606)"
           id="g17330">
          <path
             sodipodi:nodetypes="cccccccc"
             inkscape:connector-curvature="0"
             style="color:#000000;fill:#86471d;fill-opacity:1;fill-rule:nonzero;stroke:#2b1100;stroke-width:20;stroke-linejoin:round;stroke-opacity:1;marker:none;visibility:visible;display:inline;overflow:visible;enable-background:accumulate"
             d="M 3197.3737,742.12891 C 3179.9524,815.1328 3183.9688,848.75 3183.9688,848.75 l 12.4374,25.5 9.9688,1.875 24.4688,-22 c 1.2444,-50.60497 12.8437,-106.59375 12.8437,-106.59375 0,0 -14.0703,8.67587 -24.4024,5.23184 -24.1079,-5.48937 -21.9114,-10.63418 -21.9114,-10.63418 z"
             transform="matrix(0.26458334,0,0,0.26458334,39.538024,-286.57767)"
             id="path17332" />
          <path
             inkscape:connector-curvature="0"
             id="path17334"
             d="m 886.50504,-91.603878 c -4.60939,19.315613 -1.25048,36.340146 -1.25048,36.340146 l 2.63396,0.493865 6.47511,-5.816633 c 0.32925,-13.389232 3.76668,-29.116415 3.76668,-29.116415 -3.1461,-2.704657 -10.11938,-2.792852 -11.62527,-1.900963 z"
             style="color:#000000;fill:#86471d;fill-opacity:1;fill-rule:nonzero;stroke:none;stroke-width:20;marker:none;visibility:visible;display:inline;overflow:visible;enable-background:accumulate"
             sodipodi:nodetypes="cccccc" />
          <path
             inkscape:connector-curvature="0"
             id="path17359"
             transform="matrix(0.36838885,0.03762872,-0.03762872,0.36838885,-301.36113,-496.56298)"
             d="m 3316.1875,759.46875 c -6.3138,-0.03 -11.9746,1.09536 -13.875,2.5 -0.6857,5.14632 -1.1725,10.1994 -1.5,15.15625 6.037,-3.68624 14.2187,-9.25 14.2187,-9.25 7.2606,-2.94345 13.9514,-3.65698 19,-3.59375 0.01,-0.0582 0.031,-0.40625 0.031,-0.40625 -4.5971,-3.20136 -11.5612,-4.37622 -17.875,-4.40625 z"
             style="color:#000000;fill:#d8854d;fill-opacity:1;fill-rule:nonzero;stroke:none;stroke-width:20;marker:none;visibility:visible;display:inline;overflow:visible;enable-background:accumulate" />
          <path
             style="color:#000000;fill:#a05a2c;fill-opacity:1;fill-rule:nonzero;stroke:none;stroke-width:20;marker:none;visibility:visible;display:inline;overflow:visible;enable-background:accumulate"
             d="m 885.69355,-90.767145 c -4.60939,19.315613 -3.73143,28.753923 -3.73143,28.753923 l 3.29244,6.74949 6.47512,-5.542264 c -0.32924,-13.169736 3.40219,-28.424679 3.40219,-28.424679 0.72898,-1.640216 -8.89158,-3.723425 -9.43832,-1.53647 z"
             id="path17336"
             inkscape:connector-curvature="0"
             sodipodi:nodetypes="cccccc" />
          <path
             id="path17338"
             transform="matrix(0.31067779,0,0,0.31067779,-124.34459,-321.23718)"
             d="m 3259.375,738.78125 c -4.3464,-0.0218 -7.7313,0.86272 -8.2812,3.0625 -14.8366,62.17249 -12.0313,92.53125 -12.0313,92.53125 l 10.5937,21.71875 0.031,-0.0312 -8.8437,-18.15625 c 0,0 -2.8366,-30.39001 12,-92.5625 1.4233,-5.69347 21.9434,-2.38758 28.5,1.875 0.015,-0.0617 0.125,-0.4375 0.125,-0.4375 1.6131,-3.62964 -12.5317,-7.95214 -22.0938,-8 z"
             style="color:#000000;fill:#d8854d;fill-opacity:1;fill-rule:nonzero;stroke:none;stroke-width:20;marker:none;visibility:visible;display:inline;overflow:visible;enable-background:accumulate"
             inkscape:connector-curvature="0" />
        </g>
        <path
           id="path17340"
           transform="matrix(0.26458334,0,0,0.26458334,39.538024,-286.57767)"
           d="m 3261.4062,757.3125 c -3.5423,0 -6.4374,2.86395 -6.4374,6.40625 0,3.5423 2.8951,6.40625 6.4374,6.40625 3.5424,0 6.4063,-2.86395 6.4063,-6.40625 0,-3.5423 -2.8639,-6.40625 -6.4063,-6.40625 z m -3.6874,31.15625 c -3.5424,0 -6.4063,2.86395 -6.4063,6.40625 0,3.5423 2.8639,6.40625 6.4063,6.40625 3.5423,0 6.4374,-2.86395 6.4374,-6.40625 0,-3.5423 -2.8951,-6.40625 -6.4374,-6.40625 z m -3.6563,29.9375 c -3.5423,0 -6.4063,2.86395 -6.4063,6.40625 0,3.5423 2.864,6.40625 6.4063,6.40625 3.5423,0 6.4063,-2.86395 6.4063,-6.40625 0,-3.5423 -2.864,-6.40625 -6.4063,-6.40625 z"
           style="color:#000000;fill:#d8854d;fill-opacity:1;fill-rule:nonzero;stroke:none;stroke-width:20;marker:none;visibility:visible;display:inline;overflow:visible;enable-background:accumulate"
           inkscape:connector-curvature="0" />
        <path
           id="path17342"
           transform="matrix(0.26458334,0,0,0.26458334,39.538024,-286.57767)"
           d="m 3261.25,760.25 c -3.4017,0 -6.1562,2.75451 -6.1562,6.15625 0,3.40174 2.7545,6.15625 6.1562,6.15625 3.4017,0 6.1562,-2.75451 6.1562,-6.15625 0,-3.40174 -2.7545,-6.15625 -6.1562,-6.15625 z m -3.5312,29.90625 c -3.4018,0 -6.1563,2.75451 -6.1563,6.15625 0,3.40174 2.7545,6.15625 6.1563,6.15625 3.4017,0 6.1562,-2.75451 6.1562,-6.15625 0,-3.40174 -2.7545,-6.15625 -6.1562,-6.15625 z m -3.9376,29.59375 c -3.4017,0 -6.1562,2.75451 -6.1562,6.15625 0,3.40174 2.7545,6.15625 6.1562,6.15625 3.4018,0 6.1876,-2.75451 6.1876,-6.15625 0,-3.40174 -2.7858,-6.15625 -6.1876,-6.15625 z"
           style="color:#000000;fill:#6d3a18;fill-opacity:1;fill-rule:nonzero;stroke:none;stroke-width:20;marker:none;visibility:visible;display:inline;overflow:visible;enable-background:accumulate"
           inkscape:connector-curvature="0" />
        <path
           transform="matrix(0.26458334,0,0,0.26458334,39.538024,-286.57767)"
           inkscape:connector-curvature="0"
           id="path17344"
           d="m 3277.9681,760.83114 c -5.2795,15.83843 -8.2125,48.68851 -8.7991,59.83407 -0.5866,11.14556 5.8661,-34.02329 7.0393,-42.23581 1.1732,-8.21252 1.7598,-17.59826 1.7598,-17.59826 z"
           style="color:#000000;fill:#d8854d;fill-opacity:1;fill-rule:nonzero;stroke:none;stroke-width:20;marker:none;visibility:visible;display:inline;overflow:visible;enable-background:accumulate" />
      </g>
      <path
         sodipodi:nodetypes="ccscc"
         transform="matrix(0.26458334,0,0,0.26458334,39.538024,-286.57767)"
         inkscape:connector-curvature="0"
         id="path17348"
         d="m 3413.7614,809.75679 c 17.0066,-15.76221 17.4214,-47.28661 17.4214,-47.28661 0,0 0.8295,27.79125 -6.222,40.23509 -7.0515,12.44385 -9.1254,13.27344 -9.1254,13.27344 z"
         style="opacity:0.89380535;color:#000000;fill:#2b1100;fill-opacity:1;fill-rule:nonzero;stroke:none;stroke-width:20;marker:none;visibility:visible;display:inline;overflow:visible;enable-background:accumulate" />
      <g
         transform="matrix(1,0,0.07145777,1,5.3257897,0)"
         id="g17384">
        <path
           style="color:#000000;fill:#00ffff;fill-opacity:1;fill-rule:nonzero;stroke:#001414;stroke-width:15;stroke-linejoin:round;stroke-miterlimit:4;stroke-opacity:1;stroke-dasharray:none;marker:none;visibility:visible;display:inline;overflow:visible;enable-background:accumulate"
           d="m 3185.875,785.71875 c -2.6271,0.006 -5.7984,3.86764 -8.3125,7.625 -1.4069,2.52641 -7.7385,10.38098 -1.9375,13.96875 11.1455,5.86609 46.7223,12.73993 49.4062,8.5625 4.5506,-6.66619 6.1703,-8.96875 8.9376,-14.21875 3.8043,-6.28698 -1.7233,-10.75269 -4.6563,-8.40625 -2.933,2.34643 -7.9348,13.84375 -10.2813,13.84375 -1.2602,0 -10.6933,-1.84211 -19.7187,-3.6875 1.4723,0.27067 2.9687,0.40625 2.9687,0.40625 l 1.6362,-3.28101 c 2.4377,-4.2221 -1.0832,-4.25801 -3.5085,-4.36059 -3.3536,-0.14185 -1.3519,-3.27646 -1.7839,-1.76465 -0.5866,2.05313 -2.125,7.5625 -2.125,7.5625 -0.2104,0.66633 1.1008,1.11987 2.5312,1.40625 -7.67,-1.57022 -15.0031,-3.16033 -16.3437,-3.5625 1.2886,-5.39233 3.1048,-8.70559 4.9063,-13.4375 -0.5332,-0.46007 -1.1126,-0.65761 -1.7188,-0.65625 z"
           transform="matrix(0.26458334,0,0,0.26458334,39.538024,-286.57767)"
           id="path17366"
           inkscape:connector-curvature="0"
           sodipodi:nodetypes="sccccsscccscccccs" />
        <path
           style="color:#000000;fill:#aaeeff;fill-opacity:1;fill-rule:nonzero;stroke:none;stroke-width:20;marker:none;visibility:visible;display:inline;overflow:visible;enable-background:accumulate"
           d="m 880.26822,-76.669724 c -0.37225,0.668445 -2.04899,2.74584 -0.51413,3.695104 2.94891,1.55207 12.36328,3.371376 13.07342,2.266098 1.20399,-1.763763 1.63195,-2.374228 2.36413,-3.763291 1.00656,-1.66343 -0.4546,-2.842413 -1.23063,-2.221584 -0.77602,0.620826 -2.22823,3.281754 -2.72002,3.660674 -0.76893,0.592451 -8.98906,-1.114998 -9.62054,-1.925963 0.34094,-1.426722 0.82542,-2.305128 1.30205,-3.557113 -0.75229,-0.649212 -1.8356,0.622523 -2.65428,1.846075 z"
           id="path17362"
           inkscape:connector-curvature="0"
           sodipodi:nodetypes="ccccssccc" />
        <path
           style="color:#000000;fill:#aaeeff;fill-opacity:1;fill-rule:nonzero;stroke:none;stroke-width:20;marker:none;visibility:visible;display:inline;overflow:visible;enable-background:accumulate"
           d="m 3206.4019,795.95432 c 4.0835,-5.88888 -0.6663,-7.96917 -3.0916,-8.07175 -3.3536,-0.14185 -4.249,5.02009 -4.681,6.5319 -0.5866,2.05313 -2.1265,7.55259 -2.1265,7.55259 -0.4399,1.39319 5.7928,1.83315 5.7928,1.83315 z"
           id="path17364"
           inkscape:connector-curvature="0"
           transform="matrix(0.26458334,0,0,0.26458334,39.538024,-286.57767)"
           sodipodi:nodetypes="cssccc" />
        <path
           style="opacity:0.56194691;color:#000000;fill:#00aad4;fill-opacity:1;fill-rule:nonzero;stroke:none;stroke-width:15;marker:none;visibility:visible;display:inline;overflow:visible;enable-background:accumulate"
           d="m 3176.3125,795.34375 c -2.1581,3.40568 -5.384,9.06412 -0.6875,11.96875 11.1455,5.86609 46.7223,12.73993 49.4062,8.5625 4.5506,-6.66619 6.1703,-8.96875 8.9376,-14.21875 1.3645,-2.25509 1.5167,-4.25799 1.0312,-5.8125 -2.7608,6.11397 -10.9617,18.13237 -16.2973,18.13237 -7.9648,0 -33.7184,-5.31849 -39.7343,-8.7486 -4.9009,-2.7944 -2.8454,-6.14864 -2.6559,-9.88377 z"
           transform="matrix(0.26458334,0,0,0.26458334,39.538024,-286.57767)"
           id="path17371"
           inkscape:connector-curvature="0"
           sodipodi:nodetypes="cccccssc" />
        <path
           style="opacity:0.56194691;color:#000000;fill:#ffffff;fill-opacity:1;fill-rule:nonzero;stroke:none;stroke-width:15;marker:none;visibility:visible;display:inline;overflow:visible;enable-background:accumulate"
           d="m 3202.149,788.69504 c -2.0532,3.22635 -3.0797,7.33261 -0.7333,7.0393 2.3464,-0.2933 3.6663,-6.15938 2.6397,-7.0393 -1.0265,-0.87991 -1.9064,0 -1.9064,0 z"
           id="path17376"
           inkscape:connector-curvature="0"
           transform="matrix(0.26458334,0,0,0.26458334,39.538024,-286.57767)" />
        <path
           style="opacity:0.56194691;color:#000000;fill:#ffffff;fill-opacity:1;fill-rule:nonzero;stroke:none;stroke-width:15;marker:none;visibility:visible;display:inline;overflow:visible;enable-background:accumulate"
           d="m 3181.0311,790.30822 c -3.813,3.51965 -3.373,6.15938 -1.3199,6.01273 2.0531,-0.14665 4.6929,-6.45269 3.5196,-6.89265 -1.1732,-0.43995 -2.1997,0.87992 -2.1997,0.87992 z"
           id="path17378"
           inkscape:connector-curvature="0"
           transform="matrix(0.26458334,0,0,0.26458334,39.538024,-286.57767)" />
        <path
           style="opacity:0.56194691;color:#000000;fill:#ffffff;fill-opacity:1;fill-rule:nonzero;stroke:none;stroke-width:15;marker:none;visibility:visible;display:inline;overflow:visible;enable-background:accumulate"
           d="m 3177.6581,798.66739 c -1.4666,3.22634 1.1732,4.98617 2.493,3.9596 1.3199,-1.02656 -0.5866,-5.27947 -1.3198,-4.98617 -0.7333,0.29331 -1.1732,1.02657 -1.1732,1.02657 z"
           id="path17380"
           inkscape:connector-curvature="0"
           transform="matrix(0.26458334,0,0,0.26458334,39.538024,-286.57767)" />
        <path
           style="opacity:0.56194691;color:#000000;fill:#ffffff;fill-opacity:1;fill-rule:nonzero;stroke:none;stroke-width:15;marker:none;visibility:visible;display:inline;overflow:visible;enable-background:accumulate"
           d="m 3230.1595,793.97452 c -4.5462,4.54621 -4.9862,7.47926 -2.0531,7.18595 2.933,-0.2933 5.8661,-6.89265 4.2529,-7.3326 -1.6132,-0.43996 -2.1998,0.14665 -2.1998,0.14665 z"
           id="path17382"
           inkscape:connector-curvature="0"
           transform="matrix(0.26458334,0,0,0.26458334,39.538024,-286.57767)" />
      </g>
      <g
         id="g17394"
         transform="matrix(0.99187185,-0.12724083,0.19811778,0.98277951,50.951401,114.69092)">
        <path
           sodipodi:nodetypes="sccccsscccscccccs"
           inkscape:connector-curvature="0"
           id="path17396"
           transform="matrix(0.26458334,0,0,0.26458334,39.538024,-286.57767)"
           d="m 3185.875,785.71875 c -2.6271,0.006 -5.7984,3.86764 -8.3125,7.625 -1.4069,2.52641 -7.7385,10.38098 -1.9375,13.96875 11.1455,5.86609 46.7223,12.73993 49.4062,8.5625 4.5506,-6.66619 6.1703,-8.96875 8.9376,-14.21875 3.8043,-6.28698 -1.7233,-10.75269 -4.6563,-8.40625 -2.933,2.34643 -7.9348,13.84375 -10.2813,13.84375 -1.2602,0 -10.6933,-1.84211 -19.7187,-3.6875 1.4723,0.27067 2.9687,0.40625 2.9687,0.40625 l 1.6362,-3.28101 c 2.4377,-4.2221 -1.0832,-4.25801 -3.5085,-4.36059 -3.3536,-0.14185 -1.3519,-3.27646 -1.7839,-1.76465 -0.5866,2.05313 -2.125,7.5625 -2.125,7.5625 -0.2104,0.66633 1.1008,1.11987 2.5312,1.40625 -7.67,-1.57022 -15.0031,-3.16033 -16.3437,-3.5625 1.2886,-5.39233 3.1048,-8.70559 4.9063,-13.4375 -0.5332,-0.46007 -1.1126,-0.65761 -1.7188,-0.65625 z"
           style="color:#000000;fill:#00ffff;fill-opacity:1;fill-rule:nonzero;stroke:#001414;stroke-width:15;stroke-linejoin:round;stroke-miterlimit:4;stroke-opacity:1;stroke-dasharray:none;marker:none;visibility:visible;display:inline;overflow:visible;enable-background:accumulate" />
        <path
           sodipodi:nodetypes="ccccssccc"
           inkscape:connector-curvature="0"
           id="path17398"
           d="m 880.26822,-76.669724 c -0.37225,0.668445 -2.04899,2.74584 -0.51413,3.695104 2.94891,1.55207 12.36328,3.371376 13.07342,2.266098 1.20399,-1.763763 1.63195,-2.374228 2.36413,-3.763291 1.00656,-1.66343 -0.4546,-2.842413 -1.23063,-2.221584 -0.77602,0.620826 -2.22823,3.281754 -2.72002,3.660674 -0.76893,0.592451 -8.98906,-1.114998 -9.62054,-1.925963 0.34094,-1.426722 0.82542,-2.305128 1.30205,-3.557113 -0.75229,-0.649212 -1.8356,0.622523 -2.65428,1.846075 z"
           style="color:#000000;fill:#aaeeff;fill-opacity:1;fill-rule:nonzero;stroke:none;stroke-width:20;marker:none;visibility:visible;display:inline;overflow:visible;enable-background:accumulate" />
        <path
           sodipodi:nodetypes="cssccc"
           transform="matrix(0.26458334,0,0,0.26458334,39.538024,-286.57767)"
           inkscape:connector-curvature="0"
           id="path17400"
           d="m 3206.4019,795.95432 c 4.0835,-5.88888 -0.6663,-7.96917 -3.0916,-8.07175 -3.3536,-0.14185 -4.249,5.02009 -4.681,6.5319 -0.5866,2.05313 -2.1265,7.55259 -2.1265,7.55259 -0.4399,1.39319 5.7928,1.83315 5.7928,1.83315 z"
           style="color:#000000;fill:#aaeeff;fill-opacity:1;fill-rule:nonzero;stroke:none;stroke-width:20;marker:none;visibility:visible;display:inline;overflow:visible;enable-background:accumulate" />
        <path
           sodipodi:nodetypes="cccccssc"
           inkscape:connector-curvature="0"
           id="path17402"
           transform="matrix(0.26458334,0,0,0.26458334,39.538024,-286.57767)"
           d="m 3176.3125,795.34375 c -2.1581,3.40568 -5.384,9.06412 -0.6875,11.96875 11.1455,5.86609 46.7223,12.73993 49.4062,8.5625 4.5506,-6.66619 6.1703,-8.96875 8.9376,-14.21875 1.3645,-2.25509 1.5167,-4.25799 1.0312,-5.8125 -2.7608,6.11397 -10.9617,18.13237 -16.2973,18.13237 -7.9648,0 -33.7184,-5.31849 -39.7343,-8.7486 -4.9009,-2.7944 -2.8454,-6.14864 -2.6559,-9.88377 z"
           style="opacity:0.56194691;color:#000000;fill:#00aad4;fill-opacity:1;fill-rule:nonzero;stroke:none;stroke-width:15;marker:none;visibility:visible;display:inline;overflow:visible;enable-background:accumulate" />
        <path
           transform="matrix(0.26458334,0,0,0.26458334,39.538024,-286.57767)"
           inkscape:connector-curvature="0"
           id="path17404"
           d="m 3202.149,788.69504 c -2.0532,3.22635 -3.0797,7.33261 -0.7333,7.0393 2.3464,-0.2933 3.6663,-6.15938 2.6397,-7.0393 -1.0265,-0.87991 -1.9064,0 -1.9064,0 z"
           style="opacity:0.56194691;color:#000000;fill:#ffffff;fill-opacity:1;fill-rule:nonzero;stroke:none;stroke-width:15;marker:none;visibility:visible;display:inline;overflow:visible;enable-background:accumulate" />
        <path
           transform="matrix(0.26458334,0,0,0.26458334,39.538024,-286.57767)"
           inkscape:connector-curvature="0"
           id="path17406"
           d="m 3181.0311,790.30822 c -3.813,3.51965 -3.373,6.15938 -1.3199,6.01273 2.0531,-0.14665 4.6929,-6.45269 3.5196,-6.89265 -1.1732,-0.43995 -2.1997,0.87992 -2.1997,0.87992 z"
           style="opacity:0.56194691;color:#000000;fill:#ffffff;fill-opacity:1;fill-rule:nonzero;stroke:none;stroke-width:15;marker:none;visibility:visible;display:inline;overflow:visible;enable-background:accumulate" />
        <path
           transform="matrix(0.26458334,0,0,0.26458334,39.538024,-286.57767)"
           inkscape:connector-curvature="0"
           id="path17408"
           d="m 3177.6581,798.66739 c -1.4666,3.22634 1.1732,4.98617 2.493,3.9596 1.3199,-1.02656 -0.5866,-5.27947 -1.3198,-4.98617 -0.7333,0.29331 -1.1732,1.02657 -1.1732,1.02657 z"
           style="opacity:0.56194691;color:#000000;fill:#ffffff;fill-opacity:1;fill-rule:nonzero;stroke:none;stroke-width:15;marker:none;visibility:visible;display:inline;overflow:visible;enable-background:accumulate" />
        <path
           transform="matrix(0.26458334,0,0,0.26458334,39.538024,-286.57767)"
           inkscape:connector-curvature="0"
           id="path17410"
           d="m 3230.1595,793.97452 c -4.5462,4.54621 -4.9862,7.47926 -2.0531,7.18595 2.933,-0.2933 5.8661,-6.89265 4.2529,-7.3326 -1.6132,-0.43996 -2.1998,0.14665 -2.1998,0.14665 z"
           style="opacity:0.56194691;color:#000000;fill:#ffffff;fill-opacity:1;fill-rule:nonzero;stroke:none;stroke-width:15;marker:none;visibility:visible;display:inline;overflow:visible;enable-background:accumulate" />
      </g>
    </g>
  </g>
</svg>
