<?xml version="1.0" encoding="UTF-8" standalone="no"?>
<!-- Created with Inkscape (http://www.inkscape.org/) -->

<svg
   xmlns:dc="http://purl.org/dc/elements/1.1/"
   xmlns:cc="http://creativecommons.org/ns#"
   xmlns:rdf="http://www.w3.org/1999/02/22-rdf-syntax-ns#"
   xmlns:svg="http://www.w3.org/2000/svg"
   xmlns="http://www.w3.org/2000/svg"
   xmlns:xlink="http://www.w3.org/1999/xlink"
   xmlns:sodipodi="http://sodipodi.sourceforge.net/DTD/sodipodi-0.dtd"
   xmlns:inkscape="http://www.inkscape.org/namespaces/inkscape"
   width="256"
   height="256"
   viewBox="0 0 67.73333 67.733335"
   version="1.1"
   id="svg23489"
   inkscape:version="0.48.5 r10040"
   sodipodi:docname="lightening_icon_blue.svg">
  <defs
     id="defs23483">
    <linearGradient
       inkscape:collect="always"
       xlink:href="#linearGradient18371"
       id="linearGradient22025"
       gradientUnits="userSpaceOnUse"
       x1="2750.1177"
       y1="-673.85614"
       x2="2750.1177"
       y2="-692.43518" />
    <linearGradient
       inkscape:collect="always"
       id="linearGradient18371">
      <stop
         style="stop-color:#fff000;stop-opacity:1"
         offset="0"
         id="stop18373" />
      <stop
         style="stop-color:#fff64f;stop-opacity:1"
         offset="1"
         id="stop18375" />
    </linearGradient>
    <linearGradient
       inkscape:collect="always"
       xlink:href="#linearGradient20286-1"
       id="linearGradient22051"
       gradientUnits="userSpaceOnUse"
       x1="2744.1504"
       y1="-660.92676"
       x2="2750.1177"
       y2="-692.43518" />
    <linearGradient
       inkscape:collect="always"
       id="linearGradient20286-1">
      <stop
         style="stop-color:#6700ff;stop-opacity:1"
         offset="0"
         id="stop20288-3" />
      <stop
         style="stop-color:#ff00ff;stop-opacity:1"
         offset="1"
         id="stop20290-3" />
    </linearGradient>
    <linearGradient
       inkscape:collect="always"
       xlink:href="#linearGradient20246"
       id="linearGradient22065"
       gradientUnits="userSpaceOnUse"
       x1="2750.1177"
       y1="-673.85614"
       x2="2750.1177"
       y2="-692.43518" />
    <linearGradient
       id="linearGradient20246"
       inkscape:collect="always">
      <stop
         id="stop20248"
         offset="0"
         style="stop-color:#00a5ff;stop-opacity:1" />
      <stop
         id="stop20250"
         offset="1"
         style="stop-color:#00ffff;stop-opacity:1" />
    </linearGradient>
  </defs>
  <sodipodi:namedview
     id="base"
     pagecolor="#a6abb0"
     bordercolor="#666666"
     borderopacity="1.0"
     inkscape:pageopacity="0.09019608"
     inkscape:pageshadow="2"
     inkscape:zoom="4.6207231"
     inkscape:cx="109.03241"
     inkscape:cy="17.948034"
     inkscape:document-units="px"
     inkscape:current-layer="layer1"
     showgrid="false"
     inkscape:pagecheckerboard="false"
     showborder="true"
     units="px"
     inkscape:window-width="1920"
     inkscape:window-height="1017"
     inkscape:window-x="-8"
     inkscape:window-y="-8"
     inkscape:window-maximized="1"
     inkscape:showpageshadow="false"
     guidetolerance="28">
    <inkscape:grid
       type="xygrid"
       id="grid24034"
       spacingx="1px"
       spacingy="1px"
       empspacing="8"
       visible="true"
       enabled="true"
       snapvisiblegridlinesonly="true" />
  </sodipodi:namedview>
  <metadata
     id="metadata23486">
    <rdf:RDF>
      <cc:Work
         rdf:about="">
        <dc:format>image/svg+xml</dc:format>
        <dc:type
           rdf:resource="http://purl.org/dc/dcmitype/StillImage" />
        <dc:title />
        <cc:license
           rdf:resource="" />
        <dc:creator>
          <cc:Agent>
            <dc:title>Robert Brooks</dc:title>
          </cc:Agent>
        </dc:creator>
      </cc:Work>
    </rdf:RDF>
  </metadata>
  <g
     inkscape:label="Layer 1"
     inkscape:groupmode="layer"
     id="layer1"
     transform="translate(0,-229.26665)">
    <g
       transform="matrix(1.9407597,0,0,1.9407597,-5306.6866,1586.1415)"
       id="g21741">
      <g
         id="g21743">
        <path
           style="color:#000000;fill:#ffac19;fill-opacity:1;fill-rule:nonzero;stroke:none;stroke-width:16.51810264999999900;stroke-linejoin:round;stroke-miterlimit:4;stroke-opacity:1;stroke-dasharray:none;marker:none;visibility:visible;display:inline;overflow:visible;enable-background:accumulate"
           d="m 10391.562,-2700.2188 c -5.691,0 -9.707,0.1669 -13.437,11.375 l -14.281,42.9376 c -1.249,3.752 1.29,8.9687 4.844,8.9687 l 8.468,0 -8.531,31.4375 c -1.812,6.1115 0.112,10.2708 3.625,11.3438 2.858,1.8369 13.16,0.8404 16.281,0.5624 2.612,-0.2324 8.187,-2.5906 12.75,-10.0312 l 34.281,-48.875 c 2.297,-3.2709 0.116,-6.5312 -3.437,-6.5312 l -12.813,-1.0626 16.969,-31.3103 c 1.369,-2.5104 1.76,-5.0013 -0.674,-5.7529 l -11.335,-3.0618 -9.053,0 -9.375,0 z"
           transform="matrix(0.26458334,0,0,0.26458334,-6.3049604e-6,18.562493)"
           id="path21745"
           inkscape:connector-curvature="0"
           sodipodi:nodetypes="sccscccccccccccccs"
           gds_outline="1" />
        <path
           sodipodi:nodetypes="sccscccccccccccccs"
           inkscape:connector-curvature="0"
           id="path21747"
           transform="matrix(0.26458334,0,0,0.26458334,-6.3049604e-6,18.562493)"
           d="m 10391.562,-2700.2188 c -5.691,0 -9.707,0.1669 -13.437,11.375 l -14.281,42.9376 c -1.249,3.752 1.29,8.9687 4.844,8.9687 l 8.468,0 -8.531,31.4375 c -1.812,6.1115 0.112,10.2708 3.625,11.3438 2.858,1.8369 13.16,0.8404 16.281,0.5624 2.612,-0.2324 8.187,-2.5906 12.75,-10.0312 l 34.281,-48.875 c 2.297,-3.2709 0.116,-6.5312 -3.437,-6.5312 l -12.813,-1.0626 16.969,-31.3103 c 1.369,-2.5104 1.76,-5.0013 -0.674,-5.7529 l -11.335,-3.0618 -9.053,0 -9.375,0 z"
           style="color:#000000;fill:#ffac19;fill-opacity:1;fill-rule:nonzero;stroke:#000c1e;stroke-width:9.27471828;stroke-linejoin:round;stroke-miterlimit:4;stroke-opacity:1;stroke-dasharray:none;marker:none;visibility:visible;display:inline;overflow:visible;enable-background:accumulate" />
        <path
           style="color:#000000;fill:#00a5ff;fill-opacity:1;fill-rule:nonzero;stroke:none;stroke-width:12;marker:none;visibility:visible;display:inline;overflow:visible;enable-background:accumulate"
           d="m 2753.2162,-695.87137 c -1.5058,0 -2.5726,0.0434 -3.5594,3.00889 l -3.7787,11.36042 c -0.3304,0.99274 0.34,2.37513 1.2803,2.37513 l 2.244,0 -5.1902,10.75265 c -0.717,1.20058 3.3779,0.80882 4.4231,0.71574 0.6911,-0.0615 2.1589,-0.68621 3.3663,-2.65488 l 9.0753,-12.93001 c 0.6076,-0.86542 0.028,-1.72953 -0.9121,-1.72953 l -3.3868,-0.28131 4.4908,-8.28355 c 0.3792,-0.69538 0.4787,-1.38556 -0.386,-1.63959 -0.7546,-0.18958 -1.7477,-0.50784 -2.7499,-0.69396 z"
           id="path21749"
           inkscape:connector-curvature="0"
           sodipodi:nodetypes="sccsccsccsccccs" />
        <path
           style="color:#000000;fill:#fff64f;fill-opacity:1;fill-rule:nonzero;stroke:#000c1e;stroke-width:1.32291675;stroke-miterlimit:4;stroke-opacity:1;stroke-dasharray:none;marker:none;visibility:visible;display:inline;overflow:visible;enable-background:accumulate"
           d="m 2749.4368,-695.87137 c -1.5058,0 -2.5726,0.0434 -3.5594,3.00889 l -3.7787,11.36042 c -0.3304,0.99274 0.34,2.37513 1.2803,2.37513 l 2.244,0 -2.2562,8.31596 c -0.5708,1.92516 0.2575,3.11665 1.531,3.0717 0.9885,-0.0349 2.2453,-1.31187 2.9266,-3.96654 l 0.1242,-5.86859 c 0.6076,-0.86542 0.1017,-4.10267 0.5797,-4.91214 l 1.4685,-2.48642 5.2051,-6.72491 c 3.4887,-4.00917 2.8409,-4.1735 0.4904,-4.1735 z"
           id="path21751"
           inkscape:connector-curvature="0"
           sodipodi:nodetypes="sccsccsccsccss" />
        <path
           inkscape:connector-curvature="0"
           style="opacity:0.36283186;color:#000000;fill:#0000ff;fill-opacity:1;fill-rule:nonzero;stroke:none;stroke-width:12;marker:none;visibility:visible;display:inline;overflow:visible;enable-background:accumulate"
           d="m 10436.406,-2655.9375 c -7.587,0.406 -18.097,0.8888 -19.125,0.375 0,0 -16.36,10.0862 -29.375,18.625 l 3.532,0 -19.626,40.6563 c -2.709,4.5376 12.769,3.0392 16.719,2.6874 2.612,-0.2324 8.187,-2.5906 12.75,-10.0312 l 34.281,-48.875 c 0.845,-1.2033 1.058,-2.3979 0.844,-3.4375 z"
           transform="matrix(0.26458334,0,0,0.26458334,-6.3049604e-6,18.562493)"
           id="path21753" />
        <path
           sodipodi:nodetypes="sccsccccsccss"
           inkscape:connector-curvature="0"
           id="path21755"
           d="m 2749.4368,-695.87137 c -1.5058,0 -2.5726,0.0434 -3.5594,3.00889 l -3.7787,11.36042 c -0.3304,0.99274 0.34,2.37513 1.2803,2.37513 l 2.244,0 -2.2562,8.31596 c -1.0138,3.41936 2.3859,4.52419 4.8554,0.49755 l 9.0753,-12.93001 c 0.6076,-0.86542 0.028,-1.72953 -0.9121,-1.72953 l -3.7033,0 4.8073,-8.8135 c 0.505,-0.92601 0.5534,-2.08491 -1.7971,-2.08491 z"
           style="color:#000000;fill:url(#linearGradient22065);fill-opacity:1;fill-rule:nonzero;stroke:none;stroke-width:12;marker:none;visibility:visible;display:inline;overflow:visible;enable-background:accumulate" />
        <path
           transform="matrix(0.26458334,0,0,0.26458334,-6.3049604e-6,18.562493)"
           inkscape:connector-curvature="0"
           id="path21757"
           d="m 10421.244,-2661.4289 c -1.597,0.5639 -8.927,2.0675 -8.927,2.0675 l 11.652,-0.9398 z"
           style="color:#000000;fill:#000000;fill-opacity:1;fill-rule:nonzero;stroke:none;stroke-width:5;marker:none;visibility:visible;display:inline;overflow:visible;enable-background:accumulate" />
        <path
           inkscape:connector-curvature="0"
           style="opacity:0.34513275;color:#000000;fill:#0000ff;fill-opacity:1;fill-rule:nonzero;stroke:none;stroke-width:12;marker:none;visibility:visible;display:inline;overflow:visible;enable-background:accumulate"
           d="m 10421,-2657.9062 c -3.11,4.5953 -21.505,31.6854 -31.156,43.75 -8.106,10.131 -17.521,9.328 -19.375,1.9062 l -1.844,6.75 c -3.832,12.9236 9.01,17.0938 18.344,1.875 l 34.312,-48.875 c 1.468,-2.0912 1.102,-4.1713 -0.281,-5.4062 z"
           transform="matrix(0.26458334,0,0,0.26458334,-6.3049604e-6,18.562493)"
           id="path21759" />
        <path
           style="color:#000000;fill:#ffffff;fill-opacity:1;fill-rule:nonzero;stroke:none;stroke-width:12;marker:none;visibility:visible;display:inline;overflow:visible;enable-background:accumulate"
           d="m 10391.562,-2700.2188 c -5.691,0 -9.707,0.1669 -13.437,11.375 l -14.281,42.9376 c -0.771,2.3167 -0.119,5.1994 1.344,7.0624 -0.432,-1.4498 -0.493,-3.0207 -0.03,-4.4062 l 14.282,-42.9375 c 3.729,-11.2082 7.777,-11.375 13.468,-11.375 l 23.625,0 c 3.301,0 5.358,0.5917 6.531,1.5313 -0.09,-2.2934 -1.999,-4.1876 -7.843,-4.1876 z m 12.871,41.1876 -1.438,2.6562 16.161,0 c 1.226,0 2.29,0.3875 3.063,1.0312 -0.07,-2.0881 -1.883,-3.6874 -4.375,-3.6874 z m -27.337,22.2127 -8.471,31.3185 c -1.263,4.2593 -0.7,7.5535 0.937,9.5312 -0.475,-1.8414 -0.396,-4.1683 0.407,-6.875 l 9.189,-33.9747 z"
           transform="matrix(0.26458334,0,0,0.26458334,-6.3049604e-6,18.562493)"
           id="path21761"
           inkscape:connector-curvature="0"
           sodipodi:nodetypes="scccccsscssccscsccccccc" />
      </g>
    </g>
  </g>
</svg>
