<?xml version="1.0" encoding="UTF-8" standalone="no"?>
<!-- Created with Inkscape (http://www.inkscape.org/) -->

<svg
   xmlns:dc="http://purl.org/dc/elements/1.1/"
   xmlns:cc="http://creativecommons.org/ns#"
   xmlns:rdf="http://www.w3.org/1999/02/22-rdf-syntax-ns#"
   xmlns:svg="http://www.w3.org/2000/svg"
   xmlns="http://www.w3.org/2000/svg"
   xmlns:xlink="http://www.w3.org/1999/xlink"
   xmlns:sodipodi="http://sodipodi.sourceforge.net/DTD/sodipodi-0.dtd"
   xmlns:inkscape="http://www.inkscape.org/namespaces/inkscape"
   width="256"
   height="256"
   viewBox="0 0 67.73333 67.733335"
   version="1.1"
   id="svg23489"
   inkscape:version="0.48.5 r10040"
   sodipodi:docname="xp.svg">
  <defs
     id="defs23483">
    <linearGradient
       inkscape:collect="always"
       xlink:href="#linearGradient6105"
       id="linearGradient6347"
       gradientUnits="userSpaceOnUse"
       x1="-697.46167"
       y1="1351.429"
       x2="-633.41211"
       y2="1590.4652" />
    <linearGradient
       inkscape:collect="always"
       id="linearGradient6105">
      <stop
         style="stop-color:#aaeeff;stop-opacity:1;"
         offset="0"
         id="stop6107" />
      <stop
         style="stop-color:#6ad1e9;stop-opacity:1"
         offset="1"
         id="stop6109" />
    </linearGradient>
    <linearGradient
       inkscape:collect="always"
       xlink:href="#linearGradient6178"
       id="linearGradient6349"
       gradientUnits="userSpaceOnUse"
       x1="-421.91782"
       y1="1708.7131"
       x2="-618.68213"
       y2="1367.9073" />
    <linearGradient
       id="linearGradient6178"
       inkscape:collect="always">
      <stop
         id="stop6180"
         offset="0"
         style="stop-color:#ff9c00;stop-opacity:1" />
      <stop
         id="stop6182"
         offset="1"
         style="stop-color:#f9f606;stop-opacity:1" />
    </linearGradient>
    <linearGradient
       inkscape:collect="always"
       xlink:href="#linearGradient6172"
       id="linearGradient6267"
       gradientUnits="userSpaceOnUse"
       gradientTransform="translate(0,-2.1880472)"
       x1="1283.3433"
       y1="-10.374032"
       x2="1268.6238"
       y2="-39.821136" />
    <linearGradient
       id="linearGradient6172"
       inkscape:collect="always">
      <stop
         id="stop6174"
         offset="0"
         style="stop-color:#64d1ec;stop-opacity:1" />
      <stop
         id="stop6176"
         offset="1"
         style="stop-color:#c6f3ff;stop-opacity:1" />
    </linearGradient>
  </defs>
  <sodipodi:namedview
     id="base"
     pagecolor="#7d848b"
     bordercolor="#666666"
     borderopacity="1.0"
     inkscape:pageopacity="1"
     inkscape:pageshadow="2"
     inkscape:zoom="0.42617864"
     inkscape:cx="237.9222"
     inkscape:cy="396.55495"
     inkscape:document-units="px"
     inkscape:current-layer="layer1"
     showgrid="false"
     inkscape:pagecheckerboard="false"
     showborder="true"
     units="px"
     inkscape:window-width="1920"
     inkscape:window-height="1017"
     inkscape:window-x="-8"
     inkscape:window-y="-8"
     inkscape:window-maximized="1"
     inkscape:showpageshadow="false"
     guidetolerance="28">
    <inkscape:grid
       type="xygrid"
       id="grid24034"
       spacingx="1px"
       spacingy="1px"
       empspacing="8"
       visible="true"
       enabled="true"
       snapvisiblegridlinesonly="true" />
  </sodipodi:namedview>
  <metadata
     id="metadata23486">
    <rdf:RDF>
      <cc:Work
         rdf:about="">
        <dc:format>image/svg+xml</dc:format>
        <dc:type
           rdf:resource="http://purl.org/dc/dcmitype/StillImage" />
        <dc:title></dc:title>
        <cc:license
           rdf:resource="" />
        <dc:creator>
          <cc:Agent>
            <dc:title>Robert Brooks</dc:title>
          </cc:Agent>
        </dc:creator>
      </cc:Work>
    </rdf:RDF>
  </metadata>
  <g
     inkscape:label="Layer 1"
     inkscape:groupmode="layer"
     id="layer1"
     transform="translate(0,-229.26665)">
    <g
       transform="matrix(0.7347198,0,0,0.7347198,-682.41243,325.26203)"
       id="g6519">
      <g
         id="g6315"
         transform="translate(-1.1252264,8.4391805)">
        <path
           inkscape:connector-curvature="0"
           id="path6317"
           d="m 969.59224,-95.172212 23.36722,0.65363 c 0,0 8.00694,-2.287683 7.02648,-2.287683 -0.98045,0 -6.69965,3.431535 -6.69965,3.431535 0,0 0.49019,19.608871 0.32679,18.301612 -0.16339,-1.30726 -1.47066,-18.138205 -1.47066,-18.138205 z"
           style="color:#000000;fill:#ffff00;fill-opacity:1;fill-rule:nonzero;stroke:none;stroke-width:15;marker:none;visibility:visible;display:inline;overflow:visible;enable-background:accumulate" />
        <g
           id="g6319">
          <g
             id="g6321"
             transform="matrix(0.46845089,0,0,0.46845089,1026.2115,-124.72719)">
            <path
               style="color:#000000;fill:url(#linearGradient6347);fill-opacity:1;fill-rule:nonzero;stroke:#141000;stroke-width:42.69390869;stroke-linejoin:round;stroke-miterlimit:4;stroke-opacity:1;stroke-dasharray:none;marker:none;visibility:visible;display:inline;overflow:visible;enable-background:accumulate"
               d="m -786.40555,1322.8461 c -25.63952,89.7383 16.64601,305.0158 25.15164,319.9007 8.50563,14.8848 336.45224,19.8402 355.11006,13.8216 32.95933,-10.632 61.66583,-44.6545 70.17146,-48.9073 8.50563,-4.2528 39.34646,-303.8154 22.61592,-310.4546 -23.79627,-9.443 -362.79916,-12.8197 -362.79916,-12.8197 -30.76743,2.564 -110.24992,38.4593 -110.24992,38.4593 z"
               id="path6323"
               inkscape:connector-curvature="0"
               transform="matrix(0.26458334,0,0,0.26458334,39.538024,-286.57767)"
               sodipodi:nodetypes="csscccc" />
            <path
               sodipodi:nodetypes="csscccc"
               transform="matrix(0.26458334,0,0,0.26458334,39.538024,-286.57767)"
               inkscape:connector-curvature="0"
               id="path6325"
               d="m -786.40555,1322.8461 c -25.63952,89.7383 16.64601,305.0158 25.15164,319.9007 8.50563,14.8848 336.45224,19.8402 355.11006,13.8216 32.95933,-10.632 61.66583,-44.6545 70.17146,-48.9073 8.50563,-4.2528 39.34646,-303.8154 22.61592,-310.4546 -23.79627,-9.443 -362.79916,-12.8197 -362.79916,-12.8197 -30.76743,2.564 -110.24992,38.4593 -110.24992,38.4593 z"
               style="color:#000000;fill:url(#linearGradient6349);fill-opacity:1;fill-rule:nonzero;stroke:none;stroke-width:26;marker:none;visibility:visible;display:inline;overflow:visible;enable-background:accumulate" />
            <path
               sodipodi:nodetypes="ccccccccc"
               id="path6327"
               transform="matrix(0.26458334,0,0,0.26458334,39.538024,-286.57767)"
               d="m -314.39269,1296.8774 c -23.45548,10.297 -69.15001,30.1767 -74.60683,31.0861 -0.30868,0.052 -1.34268,0.071 -2.71297,0.076 5.03047,76.1851 -17.21088,275.6884 -14.91251,328.6484 0.1529,-0.039 0.34352,-0.085 0.46875,-0.125 32.95933,-10.632 61.68187,-44.6533 70.1875,-48.9063 8.50563,-4.2528 39.36165,-303.8002 22.6311,-310.4397 -0.28388,-0.1121 -0.68239,-0.2281 -1.05504,-0.339 z"
               style="opacity:0.30530976;color:#000000;fill:#d40000;fill-opacity:1;fill-rule:nonzero;stroke:none;stroke-width:26;marker:none;visibility:visible;display:inline;overflow:visible;enable-background:accumulate"
               inkscape:connector-curvature="0" />
            <path
               sodipodi:nodetypes="cccccc"
               id="path6329"
               transform="matrix(0.26458334,0,0,0.26458334,39.538024,-286.57767)"
               d="m -676.16042,1284.4052 c -30.76743,2.564 -110.2523,38.4338 -110.2523,38.4338 -0.0555,0.1941 -0.0955,0.407 -0.15072,0.6029 92.76251,-6.1638 390.47399,5.7034 397.56392,4.5216 5.45902,-0.9098 51.19763,-20.7927 74.64451,-31.0861 -30.72969,-9.1923 -361.80541,-12.4722 -361.80541,-12.4722 z"
               style="color:#000000;fill:#ffff00;fill-opacity:1;fill-rule:nonzero;stroke:none;stroke-width:26;marker:none;visibility:visible;display:inline;overflow:visible;enable-background:accumulate"
               inkscape:connector-curvature="0" />
            <path
               style="color:#000000;fill:#ffff00;fill-opacity:1;fill-rule:nonzero;stroke:none;stroke-width:26;marker:none;visibility:visible;display:inline;overflow:visible;enable-background:accumulate"
               d="m -115.31801,79.428054 c -8.54486,0 -15.47813,6.924993 -15.47813,15.469871 0,5.635095 3.01336,10.565355 7.51582,13.270505 l -1.36426,22.45651 c -0.13215,2.17781 1.75387,3.93568 3.93568,3.93568 l 10.7735,0 c 2.18181,0 4.06783,-1.75787 3.93568,-3.93568 l -1.36426,-22.45651 c 4.50282,-2.70507 7.515816,-7.63515 7.515816,-13.270505 0,-8.544878 -6.924996,-15.469871 -15.469846,-15.469871 z"
               id="path6331"
               inkscape:connector-curvature="0" />
            <path
               style="opacity:0.35840705;color:#000000;fill:#fff939;fill-opacity:1;fill-rule:nonzero;stroke:none;stroke-width:26;marker:none;visibility:visible;display:inline;overflow:visible;enable-background:accumulate"
               d="m 4682.9062,1022.9062 -111.9374,111.9376 c -0.4288,11.0347 -0.681,21.8181 -0.7813,31.9062 43.851,-41.2706 138.0373,-142.311 139,-143.3438 -9.0611,-0.1986 -17.9434,-0.3528 -26.2813,-0.5 z m 69.2188,1.6876 -181.3438,181.375 c 0.4519,8.0917 1.1007,13.5433 1.9688,15.0624 0.6691,1.171 4.9008,2.2337 11.5625,3.1876 56.8956,-57.407 192.4767,-194.0016 196.75,-196.4688 0.7701,-0.4446 0.9713,-1.0923 0.7813,-1.875 -8.4757,-0.4788 -18.6341,-0.9055 -29.7188,-1.2812 z"
               transform="matrix(0.46398659,0,0,0.46398659,-2283.5766,-418.48305)"
               id="path6333"
               inkscape:connector-curvature="0" />
            <path
               inkscape:connector-curvature="0"
               id="path6335"
               d="m -115.31801,76.8963 c -8.54486,0 -15.47813,6.924993 -15.47813,15.469871 0,5.635096 3.01336,10.565349 7.51582,13.270499 l -1.36426,22.45651 c -0.13215,2.17781 1.75387,3.93568 3.93568,3.93568 l 10.7735,0 c 2.18181,0 4.06783,-1.75787 3.93568,-3.93568 l -1.36426,-22.45651 c 4.50282,-2.70507 7.515816,-7.635139 7.515816,-13.270499 0,-8.544878 -6.924996,-15.469871 -15.469846,-15.469871 z"
               style="color:#000000;fill:#141000;fill-opacity:1;fill-rule:nonzero;stroke:none;stroke-width:26;marker:none;visibility:visible;display:inline;overflow:visible;enable-background:accumulate" />
            <path
               id="path6337"
               transform="matrix(0.26458334,0,0,0.26458334,39.538024,-286.57767)"
               d="m -323.62435,1295.2194 c 21.97925,69.0277 -18.83252,268.4849 -21.9069,277.7081 -3.18961,9.5689 -36.14851,33.4882 -47.84375,33.4882 -8.43128,0 -16.2745,-68.6046 -19.21875,-115.2282 0.0809,49.3822 -1.76984,117.5846 -6.3125,125.1557 -6.37922,10.632 -327.46524,1.0703 -332.78125,-10.625 -5.31602,-11.6952 -46.26045,-177.7313 -38.5686,-264.9057 0.11069,-1.2548 0.19912,-2.4394 0.26376,-3.5419 -22.2659,101.5086 20.65222,291.3216 28.74234,305.4794 8.50563,14.8848 336.43593,19.8311 355.09375,13.8125 32.95933,-10.632 61.68187,-44.6534 70.1875,-48.9063 8.50563,-4.2528 39.36165,-303.8005 22.6311,-310.4398 -1.74835,-0.6936 -5.39482,-1.3675 -10.2867,-1.997 z m -88.9694,195.9681 c -0.0327,-19.9648 -0.38781,-33.5994 -1,-32.375 -0.59345,1.1869 -0.13979,14.3258 1,32.375 z"
               style="opacity:0.17256637;color:#000000;fill:#ff0000;fill-opacity:1;fill-rule:nonzero;stroke:none;stroke-width:26;marker:none;visibility:visible;display:inline;overflow:visible;enable-background:accumulate"
               inkscape:connector-curvature="0"
               sodipodi:nodetypes="csscssccssscccsc" />
          </g>
        </g>
        <path
           sodipodi:nodetypes="cccc"
           transform="matrix(0.26458334,0,0,0.26458334,39.538024,-286.57767)"
           inkscape:connector-curvature="0"
           id="path6343"
           d="m 3606.7538,886.04153 9.7734,-135.32375 -5.2626,135.69965 z"
           style="color:#000000;fill:#141000;fill-opacity:1;fill-rule:nonzero;stroke:none;stroke-width:20;marker:none;visibility:visible;display:inline;overflow:visible;enable-background:accumulate" />
        <path
           sodipodi:nodetypes="cscc"
           transform="matrix(0.26458334,0,0,0.26458334,39.538024,-286.57767)"
           inkscape:connector-curvature="0"
           id="path6345"
           d="m 3652.2294,708.74897 c -5.8476,3.18961 -28.1749,15.94806 -23.922,13.82165 4.2528,-2.12641 26.58,-9.56883 26.58,-9.56883 z"
           style="color:#000000;fill:#141000;fill-opacity:1;fill-rule:nonzero;stroke:none;stroke-width:20;marker:none;visibility:visible;display:inline;overflow:visible;enable-background:accumulate" />
      </g>
      <g
         transform="matrix(0.87162867,-0.00800764,0,0.89680802,-144.98812,-65.758082)"
         id="g6209">
        <path
           sodipodi:nodetypes="cccscsssccscccssc"
           inkscape:connector-curvature="0"
           id="path6144"
           d="m 1282.2512,-52.348037 c -12.1447,-0.315784 -20.7854,8.861409 -21.232,20.650179 0,0.0025 0,0.0055 0,0.0079 -0.014,0.06489 -0.017,0.128743 -0.017,0.198025 l 0,0.627123 0,12.925973 c 0,0.948734 2.4585,1.113562 7.2647,1.112952 3.9013,-4.98e-4 9.0853,-4.34e-4 9.0853,-0.655189 l 0,-11.878121 c 0,-7.293411 9.7408,-6.099346 9.7408,0.25328 l 0,12.290992 c 0,0.233063 17.6052,0.158079 17.6052,0.457763 l 0,-12.290992 0.024,6.12e-4 c 0.018,-0.347291 0.03,-0.695282 0.03,-1.047062 0,-12.186155 -10.0736,-22.330331 -22.5028,-22.653511 z"
           style="color:#000000;fill:#bdf2ff;fill-opacity:1;fill-rule:nonzero;stroke:#002228;stroke-width:5.84702063;stroke-linejoin:round;stroke-miterlimit:4;stroke-opacity:1;stroke-dasharray:none;marker:none;visibility:visible;display:inline;overflow:visible;enable-background:accumulate" />
        <path
           style="color:#000000;fill:url(#linearGradient6267);fill-opacity:1;fill-rule:nonzero;stroke:none;stroke-width:26;marker:none;visibility:visible;display:inline;overflow:visible;enable-background:accumulate"
           d="m 1282.2512,-52.348037 c -12.1447,-0.315784 -20.7854,8.861409 -21.232,20.650179 0,0.0025 0,0.0055 0,0.0079 -0.014,0.06489 -0.017,0.128743 -0.017,0.198025 l 0,0.627123 0,15.65667 c 0,1.718858 16.35,1.919125 16.35,0.45776 l 0,-14.608818 c 0,-7.293411 9.7408,-6.099346 9.7408,0.25328 l 0,14.11577 c 0,2.082035 17.6052,1.986813 17.6052,0.457763 l 0,-14.11577 0.024,6.12e-4 c 0.018,-0.347291 0.03,-0.695282 0.03,-1.047062 0,-12.186155 -10.0736,-22.330331 -22.5028,-22.653511 z"
           id="rect6134"
           inkscape:connector-curvature="0"
           sodipodi:nodetypes="cccscssccssccssc" />
        <path
           sodipodi:nodetypes="cccccccccccccccc"
           style="opacity:0.53539824;color:#000000;fill:#53c9e5;fill-opacity:1;fill-rule:nonzero;stroke:none;stroke-width:15;marker:none;visibility:visible;display:inline;overflow:visible;enable-background:accumulate"
           d="m 1283.7412,-40.999956 c -3.272,0.04828 -6.9374,0.652976 -9.1652,3.292452 -1.9529,2.303502 -2.2464,5.464281 -2.1706,8.365794 0,4.806585 0,10.711032 0,15.517612 1.5858,-0.122714 3.2508,-0.0658 4.7461,-0.669608 0.3782,-0.307393 0.1249,-0.883417 0.1985,-1.314714 0.011,-4.317603 -0.023,-9.73404 0.017,-14.051026 0.041,-1.992784 1.3654,-4.021842 3.414,-4.38526 2.7972,-0.664607 5.9113,1.394838 6.2489,4.279008 0.1255,1.870163 0.03,3.751546 0.06,5.626463 0,2.852486 0,6.500292 0,9.352765 0.4727,0.95668 1.8343,0.916437 2.7512,1.161785 0.6766,-0.109749 2.428,0.850345 2.1666,-0.343164 -0.095,-4.895374 -0.1374,-10.58784 -0.2698,-15.481915 -0.2084,-3.151384 -0.6675,-6.547837 -2.8052,-9.02905 -1.2997,-1.490268 -3.2513,-2.22061 -5.1915,-2.321142 z"
           id="path6146"
           inkscape:connector-curvature="0" />
        <path
           sodipodi:nodetypes="cccssccscc"
           style="opacity:0.62389377;color:#000000;fill:#1eb6db;fill-opacity:1;fill-rule:nonzero;stroke:none;stroke-width:15;marker:none;visibility:visible;display:inline;overflow:visible;enable-background:accumulate"
           d="m 1300.7903,-42.298068 c 1.3454,6.163445 2.0414,18.97347 0.8516,21.183217 -1.2787,2.374688 -11.1058,4.412615 -14.5521,0.570495 l 0,5.871508 c 0,2.082033 17.6114,1.983793 17.6114,0.454766 l 0,-14.429139 0.025,0 c 0.018,-0.347292 0.025,-0.698286 0.025,-1.050065 0,-4.640959 -1.4646,-8.981835 -3.9604,-12.600782 z"
           id="path6197"
           inkscape:connector-curvature="0" />
        <path
           style="color:#000000;fill:#ffffff;fill-opacity:1;fill-rule:nonzero;stroke:none;stroke-width:26;marker:none;visibility:visible;display:inline;overflow:visible;enable-background:accumulate"
           d="m 1281.1202,-52.352235 c -11.6223,0.262345 -19.6691,9.233665 -20.1018,20.654037 l 0,0.0083 c -0.014,0.06489 -0.016,0.129157 -0.016,0.198438 l 0,0.628385 0,15.658201 c 0,0.317606 0.6075,0.58076 1.5875,0.79375 l 0,-14.864451 0,-0.628385 c 0.017,-0.06604 0.011,-0.133549 0.025,-0.198438 0.427,-11.269133 8.2322,-20.152154 19.6387,-20.6375 0.2787,-0.07262 0.5804,-0.110011 0.9095,-0.124024 8.448,-0.359732 17.2113,6.563469 20.621,14.733985 -2.8018,-9.131557 -11.3767,-15.958249 -21.5305,-16.222266 l 0,0.0083 c -0.3795,-0.0099 -0.7578,-0.01672 -1.1327,-0.0083 z m 5.1841,20.422527 c 0.4878,0.775756 0.7855,1.721609 0.7855,2.827734 l 0,14.115451 c 0,0.385842 1.5958,1.921605 1.5958,0.934296 l 0,-13.462247 c 0,-2.045634 -1.0118,-3.550142 -2.3813,-4.415234 z"
           id="path6151"
           inkscape:connector-curvature="0"
           sodipodi:nodetypes="cccscscccccscccsccscscc" />
        <path
           style="color:#000000;fill:#f7f9f9;fill-opacity:1;fill-rule:nonzero;stroke:none;stroke-width:15;marker:none;visibility:visible;display:inline;overflow:visible;enable-background:accumulate"
           d="m 1270.0162,-48.167574 c -5.9674,3.779353 -6.763,9.150014 -2.5858,8.9511 4.1771,-0.198911 8.9511,-8.553275 7.1608,-9.746755 -1.7902,-1.19348 -4.575,0.795655 -4.575,0.795655 z"
           id="path6193"
           inkscape:connector-curvature="0" />
        <path
           sodipodi:type="arc"
           style="color:#000000;fill:#f7f9f9;fill-opacity:1;fill-rule:nonzero;stroke:none;stroke-width:15;marker:none;visibility:visible;display:inline;overflow:visible;enable-background:accumulate"
           id="path6195"
           sodipodi:cx="4688.9678"
           sodipodi:cy="908.2196"
           sodipodi:rx="14.284174"
           sodipodi:ry="6.3902884"
           d="m 4703.2519,908.2196 c 0,3.52926 -6.3952,6.39029 -14.2841,6.39029 -7.889,0 -14.2842,-2.86103 -14.2842,-6.39029 0,-3.52925 6.3952,-6.39028 14.2842,-6.39028 7.8889,0 14.2841,2.86103 14.2841,6.39028 z"
           transform="matrix(0.26323042,-0.0267225,0.0267225,0.26323042,21.015203,-163.03167)" />
        <path
           style="opacity:0.62389377;color:#000000;fill:#1eb6db;fill-opacity:1;fill-rule:nonzero;stroke:none;stroke-width:15;marker:none;visibility:visible;display:inline;overflow:visible;enable-background:accumulate"
           d="m 1279.7623,-37.021509 c -1.2655,-0.01879 -2.5802,0.562367 -3.7786,1.984375 -3.3855,4.016952 -0.5511,14.205334 -2.3877,16.409208 -2.8665,3.439874 -11.635,4.127315 -12.5941,-2.703725 l 0,6.126745 c 0,1.718866 16.348,1.916139 16.348,0.454766 l 0,-14.608149 c 0,-6.288879 7.2405,-6.264997 9.2356,-2.067057 -0.6097,-3.143089 -3.9962,-5.554192 -6.8232,-5.596163 z"
           id="path6202"
           inkscape:connector-curvature="0"
           sodipodi:nodetypes="ssscssscs" />
      </g>
    </g>
  </g>
</svg>
