<?xml version="1.0" encoding="UTF-8" standalone="no"?>
<!-- Created with Inkscape (http://www.inkscape.org/) -->

<svg
   xmlns:dc="http://purl.org/dc/elements/1.1/"
   xmlns:cc="http://creativecommons.org/ns#"
   xmlns:rdf="http://www.w3.org/1999/02/22-rdf-syntax-ns#"
   xmlns:svg="http://www.w3.org/2000/svg"
   xmlns="http://www.w3.org/2000/svg"
   xmlns:xlink="http://www.w3.org/1999/xlink"
   xmlns:sodipodi="http://sodipodi.sourceforge.net/DTD/sodipodi-0.dtd"
   xmlns:inkscape="http://www.inkscape.org/namespaces/inkscape"
   width="256"
   height="256"
   viewBox="0 0 67.73333 67.733335"
   version="1.1"
   id="svg23489"
   inkscape:version="0.48.5 r10040"
   sodipodi:docname="plus_icon.svg">
  <defs
     id="defs23483">
    <linearGradient
       inkscape:collect="always"
       xlink:href="#linearGradient18641"
       id="linearGradient22031"
       gradientUnits="userSpaceOnUse"
       x1="2610.937"
       y1="-687.62122"
       x2="2619.4902"
       y2="-672.30493" />
    <linearGradient
       inkscape:collect="always"
       id="linearGradient18641">
      <stop
         style="stop-color:#db0c0c;stop-opacity:1;"
         offset="0"
         id="stop18643" />
      <stop
         style="stop-color:#b70a0a;stop-opacity:1"
         offset="1"
         id="stop18645" />
    </linearGradient>
    <linearGradient
       inkscape:collect="always"
       xlink:href="#linearGradient18633"
       id="linearGradient22027"
       gradientUnits="userSpaceOnUse"
       x1="2706.804"
       y1="-690.60492"
       x2="2709.3899"
       y2="-671.50928" />
    <linearGradient
       inkscape:collect="always"
       id="linearGradient18633">
      <stop
         style="stop-color:#0cd80c;stop-opacity:1;"
         offset="0"
         id="stop18635" />
      <stop
         style="stop-color:#00c300;stop-opacity:1"
         offset="1"
         id="stop18637" />
    </linearGradient>
  </defs>
  <sodipodi:namedview
     id="base"
     pagecolor="#a6abb0"
     bordercolor="#666666"
     borderopacity="1.0"
     inkscape:pageopacity="0.09019608"
     inkscape:pageshadow="2"
     inkscape:zoom="2.3103615"
     inkscape:cx="49.508219"
     inkscape:cy="26.399922"
     inkscape:document-units="px"
     inkscape:current-layer="layer1"
     showgrid="false"
     inkscape:pagecheckerboard="false"
     showborder="true"
     units="px"
     inkscape:window-width="1920"
     inkscape:window-height="1017"
     inkscape:window-x="-8"
     inkscape:window-y="-8"
     inkscape:window-maximized="1"
     inkscape:showpageshadow="false"
     guidetolerance="28">
    <inkscape:grid
       type="xygrid"
       id="grid24034"
       spacingx="1px"
       spacingy="1px"
       empspacing="8"
       visible="true"
       enabled="true"
       snapvisiblegridlinesonly="true" />
  </sodipodi:namedview>
  <metadata
     id="metadata23486">
    <rdf:RDF>
      <cc:Work
         rdf:about="">
        <dc:format>image/svg+xml</dc:format>
        <dc:type
           rdf:resource="http://purl.org/dc/dcmitype/StillImage" />
        <dc:title />
        <cc:license
           rdf:resource="" />
        <dc:creator>
          <cc:Agent>
            <dc:title>Robert Brooks</dc:title>
          </cc:Agent>
        </dc:creator>
      </cc:Work>
    </rdf:RDF>
  </metadata>
  <g
     inkscape:label="Layer 1"
     inkscape:groupmode="layer"
     id="layer1"
     transform="translate(0,-229.26665)">
    <g
       transform="matrix(1.604651,0,0,1.604651,-4287.0573,1355.6941)"
       id="g21369">
      <g
         id="g21371"
         transform="translate(-14.909218,0)">
        <path
           inkscape:connector-curvature="0"
           id="path21373"
           d="m 2704.4883,-695.58927 c -1.8544,-0.0621 -3.2099,1.79729 -2.9437,3.55029 0,1.42105 0,2.84212 0,4.26317 -1.8444,0.0387 -3.7005,-0.0842 -5.5364,0.0747 -1.632,0.3148 -2.4792,2.0257 -2.2762,3.56682 0.035,2.60506 -0.073,5.21904 0.059,7.81799 0.2813,1.65878 2.0119,2.56582 3.5822,2.35646 1.3906,0 2.781,0 4.1717,0 0.032,1.81808 -0.069,3.64463 0.059,5.45668 0.2818,1.65831 2.0148,2.55657 3.5825,2.34853 2.0785,-0.034 4.1658,0.0716 6.2383,-0.0596 1.6582,-0.2816 2.5564,-2.01465 2.3485,-3.58222 0,-1.38782 0,-2.77561 0,-4.16343 1.8208,-0.0325 3.6504,0.0695 5.4652,-0.0599 1.6589,-0.28552 2.5553,-2.02132 2.3482,-3.59016 -0.029,-2.58144 0.06,-5.16943 -0.047,-7.74663 -0.2484,-1.67513 -1.9965,-2.64409 -3.5944,-2.41919 -1.3906,0 -2.7813,0 -4.1719,0 -0.047,-1.865 0.1021,-3.74563 -0.093,-5.5989 -0.3498,-1.59563 -2.0278,-2.40914 -3.5484,-2.21457 -1.8817,-8e-5 -3.7631,1.9e-4 -5.6449,-1.3e-4 z"
           style="color:#000000;fill:#088808;fill-opacity:1;fill-rule:nonzero;stroke:none;stroke-width:4.94655848000000020;stroke-linejoin:round;stroke-miterlimit:4;stroke-opacity:1;stroke-dasharray:none;marker:none;visibility:visible;display:inline;overflow:visible;enable-background:accumulate"
           gds_outline="1" />
        <path
           style="color:#000000;fill:#088808;fill-opacity:1;fill-rule:nonzero;stroke:#011301;stroke-width:2.70803928;stroke-miterlimit:4;stroke-opacity:1;stroke-dasharray:none;marker:none;visibility:visible;display:inline;overflow:visible;enable-background:accumulate"
           d="m 2704.4883,-695.58927 c -1.8139,-0.0573 -3.2046,1.75099 -2.9437,3.49192 0,1.44052 0,2.88102 0,4.32154 -1.8444,0.04 -3.7005,-0.0861 -5.5364,0.0747 -1.5973,0.30993 -2.4704,1.97644 -2.2762,3.49874 0.01,2.53082 -0.02,5.06259 0.015,7.5928 0.1193,1.75533 1.902,2.88256 3.5586,2.64973 1.4131,0 2.8265,0 4.2397,0 0.033,1.81808 -0.069,3.64463 0.059,5.45668 0.2776,1.62367 1.9656,2.54837 3.5145,2.34853 2.101,-0.0341 4.2111,0.0717 6.3063,-0.0596 1.6235,-0.27742 2.5482,-1.96527 2.3485,-3.51415 0,-1.41049 0,-2.82101 0,-4.2315 1.8208,-0.0336 3.6504,0.0711 5.4652,-0.0599 1.6243,-0.28123 2.5471,-1.972 2.3482,-3.52209 -0.029,-2.60413 0.059,-5.2148 -0.047,-7.8147 -0.245,-1.64198 -1.9471,-2.63443 -3.5264,-2.41919 -1.4134,0 -2.8265,0 -4.2399,0 -0.03,-1.80594 0.063,-3.61961 -0.053,-5.42028 -0.2593,-1.64473 -1.954,-2.6012 -3.5206,-2.39319 -1.9042,-8e-5 -3.8086,1.9e-4 -5.7129,-1.3e-4 z"
           id="path21375"
           inkscape:connector-curvature="0" />
        <path
           style="color:#000000;fill:#088808;fill-opacity:1;fill-rule:nonzero;stroke:none;stroke-width:12;marker:none;visibility:visible;display:inline;overflow:visible;enable-background:accumulate"
           d="m 2704.4872,-693.99774 c -1.6316,0 -2.9454,1.3139 -2.9454,2.94564 l 0,4.86548 -4.8656,0 c -1.6316,0 -2.9454,1.31393 -2.9454,2.94566 l 0,6.33364 c 0,1.63171 1.3138,2.94563 2.9454,2.94563 l 4.8656,0 0,4.86548 c 0,1.63175 1.3138,2.94567 2.9454,2.94567 l 6.3433,0 c 1.6316,0 2.9456,-1.31392 2.9456,-2.94567 l 0,-4.86548 4.8654,0 c 1.6319,0 2.9458,-1.31392 2.9458,-2.94563 l 0,-6.33364 c 0,-1.63173 -1.3139,-2.94566 -2.9458,-2.94566 l -4.8654,0 0,-4.86548 c 0,-1.63174 -1.314,-2.94564 -2.9456,-2.94564 l -6.3433,0 z"
           id="path21377"
           inkscape:connector-curvature="0" />
        <path
           inkscape:connector-curvature="0"
           id="path21379"
           d="m 2704.4872,-695.58525 c -1.6316,0 -2.9454,1.3139 -2.9454,2.94564 l 0,4.86548 -4.8656,0 c -1.6316,0 -2.9454,1.31393 -2.9454,2.94566 l 0,6.33364 c 0,1.63171 1.3138,2.94563 2.9454,2.94563 l 4.8656,0 0,4.86548 c 0,1.63175 1.3138,2.94567 2.9454,2.94567 l 6.3433,0 c 1.6316,0 2.9456,-1.31392 2.9456,-2.94567 l 0,-4.86548 4.8654,0 c 1.6319,0 2.9458,-1.31392 2.9458,-2.94563 l 0,-6.33364 c 0,-1.63173 -1.3139,-2.94566 -2.9458,-2.94566 l -4.8654,0 0,-4.86548 c 0,-1.63174 -1.314,-2.94564 -2.9456,-2.94564 l -6.3433,0 z"
           style="color:#000000;fill:url(#linearGradient22027);fill-opacity:1;fill-rule:nonzero;stroke:none;stroke-width:12;marker:none;visibility:visible;display:inline;overflow:visible;enable-background:accumulate" />
        <path
           id="path21381"
           transform="matrix(0.26458334,0,0,0.26458334,-6.3049604e-6,18.562493)"
           d="m 10221.688,-2699.1562 c -6.167,0 -11.126,4.989 -11.126,11.1562 l 0,3.5938 c 0,-6.1673 4.959,-11.1563 11.126,-11.1563 l 23.968,0 c 6.167,0 11.125,4.989 11.125,11.1563 l 0,-3.5938 c 0,-6.1672 -4.958,-11.1562 -11.125,-11.1562 l -23.968,0 z m -29.532,29.5312 c -6.166,0 -11.125,4.9578 -11.125,11.125 l 0,3.5938 c 0,-6.1672 4.959,-11.125 11.125,-11.125 l 18.406,0 0,-3.5938 -18.406,0 z m 64.625,0 0,3.5938 18.407,0 c 6.167,0 11.124,4.9578 11.124,11.125 l 0,-3.5938 c 0,-6.1672 -4.957,-11.125 -11.124,-11.125 l -18.407,0 z"
           style="color:#000000;fill:#05ff05;fill-opacity:1;fill-rule:nonzero;stroke:none;stroke-width:12;marker:none;visibility:visible;display:inline;overflow:visible;enable-background:accumulate"
           inkscape:connector-curvature="0" />
        <path
           inkscape:connector-curvature="0"
           id="path21383"
           d="m 2693.7312,-679.19338 0,0.69453 c 0,1.63171 1.312,2.95177 2.9435,2.95177 l 4.8699,0 0,-0.69453 -4.8699,0 c -1.6315,0 -2.9435,-1.32006 -2.9435,-2.95177 z m 27.8556,0 c 0,1.63171 -1.3116,2.95177 -2.9432,2.95177 l -4.8702,0 0,0.69453 4.8702,0 c 1.6316,0 2.9432,-1.32006 2.9432,-2.95177 l 0,-0.69453 z m -20.0422,7.81349 0,0.69453 c 0,1.63174 1.3121,2.94349 2.9437,2.94349 l 6.3416,0 c 1.6317,0 2.9435,-1.31175 2.9435,-2.94349 l 0,-0.69453 c 0,1.63173 -1.3118,2.94349 -2.9435,2.94349 l -6.3416,0 c -1.6316,0 -2.9437,-1.31176 -2.9437,-2.94349 z"
           style="opacity:0.19026549;color:#000000;fill:#009b00;fill-opacity:1;fill-rule:nonzero;stroke:none;stroke-width:12;marker:none;visibility:visible;display:inline;overflow:visible;enable-background:accumulate" />
      </g>
    </g>
  </g>
</svg>
