<?xml version="1.0" encoding="UTF-8" standalone="no"?>
<!-- Created with Inkscape (http://www.inkscape.org/) -->

<svg
   xmlns:dc="http://purl.org/dc/elements/1.1/"
   xmlns:cc="http://creativecommons.org/ns#"
   xmlns:rdf="http://www.w3.org/1999/02/22-rdf-syntax-ns#"
   xmlns:svg="http://www.w3.org/2000/svg"
   xmlns="http://www.w3.org/2000/svg"
   xmlns:xlink="http://www.w3.org/1999/xlink"
   xmlns:sodipodi="http://sodipodi.sourceforge.net/DTD/sodipodi-0.dtd"
   xmlns:inkscape="http://www.inkscape.org/namespaces/inkscape"
   width="256"
   height="256"
   viewBox="0 0 67.73333 67.733335"
   version="1.1"
   id="svg23489"
   inkscape:version="0.48.5 r10040"
   sodipodi:docname="silver_star_type_01_half.svg">
  <defs
     id="defs23483">
    <linearGradient
       inkscape:collect="always"
       xlink:href="#linearGradient30254"
       id="linearGradient30381"
       gradientUnits="userSpaceOnUse"
       gradientTransform="matrix(0.75529868,0,0,0.75529868,5381.7484,-2988.3431)"
       x1="19474"
       y1="-1879.1378"
       x2="19495.5"
       y2="-1982.6378" />
    <linearGradient
       id="linearGradient30254"
       inkscape:collect="always">
      <stop
         id="stop30256"
         offset="0"
         style="stop-color:#84acb7;stop-opacity:1" />
      <stop
         id="stop30258"
         offset="1"
         style="stop-color:#93a7ac;stop-opacity:1" />
    </linearGradient>
    <linearGradient
       inkscape:collect="always"
       xlink:href="#linearGradient30212"
       id="linearGradient30383"
       gradientUnits="userSpaceOnUse"
       gradientTransform="matrix(0.75529868,0,0,0.75529868,5381.7484,-2988.3431)"
       x1="19432.672"
       y1="-2065.8081"
       x2="19412.275"
       y2="-2030.4789" />
    <linearGradient
       id="linearGradient30212"
       inkscape:collect="always">
      <stop
         id="stop30214"
         offset="0"
         style="stop-color:#cce0e5;stop-opacity:1" />
      <stop
         id="stop30216"
         offset="1"
         style="stop-color:#ffffff;stop-opacity:1" />
    </linearGradient>
    <linearGradient
       inkscape:collect="always"
       xlink:href="#linearGradient30230"
       id="linearGradient30385"
       gradientUnits="userSpaceOnUse"
       gradientTransform="matrix(0.75529868,0,0,0.75529868,5381.7484,-2988.3431)"
       x1="19466.936"
       y1="-2106.9568"
       x2="19487.354"
       y2="-2011.9647" />
    <linearGradient
       id="linearGradient30230"
       inkscape:collect="always">
      <stop
         id="stop30232"
         offset="0"
         style="stop-color:#b7c4c8;stop-opacity:1" />
      <stop
         id="stop30234"
         offset="1"
         style="stop-color:#d7eef4;stop-opacity:1" />
    </linearGradient>
  </defs>
  <sodipodi:namedview
     id="base"
     pagecolor="#a6abb0"
     bordercolor="#666666"
     borderopacity="1.0"
     inkscape:pageopacity="0.09019608"
     inkscape:pageshadow="2"
     inkscape:zoom="4.6207231"
     inkscape:cx="109.03241"
     inkscape:cy="17.948034"
     inkscape:document-units="px"
     inkscape:current-layer="layer1"
     showgrid="false"
     inkscape:pagecheckerboard="false"
     showborder="true"
     units="px"
     inkscape:window-width="1920"
     inkscape:window-height="1017"
     inkscape:window-x="-8"
     inkscape:window-y="-8"
     inkscape:window-maximized="1"
     inkscape:showpageshadow="false"
     guidetolerance="28">
    <inkscape:grid
       type="xygrid"
       id="grid24034"
       spacingx="1px"
       spacingy="1px"
       empspacing="8"
       visible="true"
       enabled="true"
       snapvisiblegridlinesonly="true" />
  </sodipodi:namedview>
  <metadata
     id="metadata23486">
    <rdf:RDF>
      <cc:Work
         rdf:about="">
        <dc:format>image/svg+xml</dc:format>
        <dc:type
           rdf:resource="http://purl.org/dc/dcmitype/StillImage" />
        <dc:title />
        <cc:license
           rdf:resource="" />
        <dc:creator>
          <cc:Agent>
            <dc:title>Robert Brooks</dc:title>
          </cc:Agent>
        </dc:creator>
      </cc:Work>
    </rdf:RDF>
  </metadata>
  <g
     inkscape:label="Layer 1"
     inkscape:groupmode="layer"
     id="layer1"
     transform="translate(0,-229.26665)">
    <g
       transform="matrix(0.78243247,0,0,0.78243247,-3853.5713,838.32989)"
       id="g30267">
      <g
         transform="matrix(0.75529868,0,0,0.75529868,1072.2897,-349.29645)"
         id="g30269">
        <path
           transform="matrix(0.26167714,0.03910777,-0.03910777,0.26167714,135.14189,-715.70531)"
           style="color:#000000;fill:#322800;fill-opacity:1;fill-rule:nonzero;stroke:none;stroke-width:50.76398086999999700;stroke-linejoin:round;stroke-miterlimit:4;marker:none;visibility:visible;display:inline;overflow:visible;enable-background:accumulate"
           inkscape:transform-center-x="-6.1942837"
           inkscape:transform-center-y="-6.0803831"
           d="m 19022.062,-1897.5753 c -18.455,18.455 -82.84,-9.379 -108.618,-5.2961 -25.778,4.0828 -78.41,50.4506 -101.665,38.6017 -23.255,-11.8488 -16.679,-81.6839 -28.528,-104.9386 -11.849,-23.2547 -72.212,-58.983 -68.129,-84.761 4.083,-25.778 72.532,-41.1045 90.987,-59.5595 18.455,-18.4551 33.782,-86.9041 59.56,-90.987 25.778,-4.0828 61.506,56.28 84.761,68.1288 23.254,11.8489 93.089,5.2733 104.938,28.528 11.849,23.2547 -34.519,75.8875 -38.602,101.6655 -4.082,25.778 23.751,90.1631 5.296,108.6182 z"
           id="path30271"
           gds_outline="1"
           inkscape:connector-curvature="0" />
        <path
           inkscape:transform-center-y="-6.0803831"
           inkscape:transform-center-x="-6.1942837"
           transform="matrix(0.26167714,0.03910777,-0.03910777,0.26167714,135.14189,-715.70531)"
           d="m 19022.062,-1897.5753 c -18.455,18.455 -82.84,-9.379 -108.618,-5.2961 -25.778,4.0828 -78.41,50.4506 -101.665,38.6017 -23.255,-11.8488 -16.679,-81.6839 -28.528,-104.9386 -11.849,-23.2547 -72.212,-58.983 -68.129,-84.761 4.083,-25.778 72.532,-41.1045 90.987,-59.5595 18.455,-18.4551 33.782,-86.9041 59.56,-90.987 25.778,-4.0828 61.506,56.28 84.761,68.1288 23.254,11.8489 93.089,5.2733 104.938,28.528 11.849,23.2547 -34.519,75.8875 -38.602,101.6655 -4.082,25.778 23.751,90.1631 5.296,108.6182 z"
           inkscape:randomized="0"
           inkscape:rounded="0.24"
           inkscape:flatsided="false"
           sodipodi:arg2="1.4137167"
           sodipodi:arg1="0.78539816"
           sodipodi:r2="124.29667"
           sodipodi:r1="181.1077"
           sodipodi:cy="-2025.6378"
           sodipodi:cx="18894"
           sodipodi:sides="5"
           id="path30273"
           style="color:#000000;fill:#322800;fill-opacity:1;fill-rule:nonzero;stroke:#090b0b;stroke-width:30;stroke-miterlimit:4;stroke-opacity:1;stroke-dasharray:none;marker:none;visibility:visible;display:inline;overflow:visible;enable-background:accumulate"
           sodipodi:type="star" />
        <path
           style="color:#000000;fill:#6f8a91;fill-opacity:1;fill-rule:nonzero;stroke:none;stroke-width:28;marker:none;visibility:visible;display:inline;overflow:visible;enable-background:accumulate"
           d="m 20106.344,-4625.0625 c -19.712,0.172 -38.81,49.5869 -54.656,61.3125 -15.847,11.7256 -68.667,15.5433 -74.594,34.3438 -5.928,18.8004 35.151,52.2433 41.406,70.9374 6.255,18.6942 -6.455,70.1153 9.594,81.5626 16.048,11.4472 60.569,-17.328 80.281,-17.5 0.202,0 0.418,0.027 0.625,0.031 l 8.5,-99.7627 -8.5,-130.6435 c -0.883,-0.182 -1.774,-0.289 -2.656,-0.2813 z"
           transform="matrix(0.35030293,0,0,0.35030293,-1885.2422,1065.3878)"
           id="path30275"
           inkscape:connector-curvature="0"
           sodipodi:nodetypes="sccscccccs" />
        <path
           style="color:#000000;fill:#202b2e;fill-opacity:1;fill-rule:nonzero;stroke:none;stroke-width:28;marker:none;visibility:visible;display:inline;overflow:visible;enable-background:accumulate"
           d="m 20106.219,-4625.0625 c -0.163,43.6346 -0.07,115.902 0.469,125.875 -0.246,0.4922 -0.258,0.8651 0.06,1.0937 0.431,15.7691 -0.462,70.2022 -1.062,103.9063 0.929,-0.1065 1.813,-0.2113 2.656,-0.2187 19.712,-0.1721 64.716,27.8193 80.562,16.0937 0.129,-0.096 0.25,-0.2116 0.375,-0.3125 0.748,-0.6015 1.447,-1.2851 2.063,-2.0625 0.165,-0.209 0.312,-0.4352 0.468,-0.6563 11.122,-15.7204 -0.262,-61.2046 5.25,-78.6874 0.148,-0.465 0.338,-0.956 0.532,-1.4376 0.02,-0.041 0.05,-0.083 0.06,-0.125 0.07,-0.1671 0.117,-0.3301 0.188,-0.5 7.977,-19.1446 45.471,-51.5597 39.437,-69.5937 -0.379,-1.1343 -0.951,-2.195 -1.656,-3.2187 0,0 0.02,0 0.03,0 -0.167,-0.2434 -0.347,-0.4813 -0.531,-0.7188 -0.08,-0.1019 -0.168,-0.2116 -0.25,-0.3125 -0.111,-0.1363 -0.228,-0.2721 -0.344,-0.4063 -0.165,-0.1908 -0.355,-0.3754 -0.531,-0.5624 -0.03,-0.031 -0.06,-0.063 -0.09,-0.094 -0.221,-0.2312 -0.453,-0.463 -0.687,-0.6875 -0.141,-0.1337 -0.291,-0.2745 -0.438,-0.4063 -0.334,-0.3002 -0.67,-0.6143 -1.031,-0.9062 -0.03,-0.023 -0.06,-0.04 -0.09,-0.062 -0.07,-0.055 -0.149,-0.1019 -0.218,-0.1563 -0.41,-0.3184 -0.843,-0.6275 -1.282,-0.9374 -0.07,-0.046 -0.12,-0.1104 -0.187,-0.1563 -0.515,-0.3522 -1.071,-0.6934 -1.625,-1.0313 -0.02,-0.012 -0.04,-0.019 -0.06,-0.031 -0.06,-0.038 -0.124,-0.087 -0.187,-0.125 -0.573,-0.3427 -1.17,-0.6721 -1.782,-1 -0.292,-0.1574 -0.605,-0.3144 -0.906,-0.4688 -0.2,-0.1022 -0.39,-0.2114 -0.594,-0.3124 -0.198,-0.099 -0.393,-0.2123 -0.593,-0.3126 -0.09,-0.044 -0.19,-0.081 -0.281,-0.125 -0.153,-0.073 -0.311,-0.1476 -0.469,-0.2187 -0.186,-0.087 -0.374,-0.1642 -0.563,-0.25 -0.04,-0.019 -0.08,-0.044 -0.125,-0.062 -0.256,-0.1163 -0.52,-0.233 -0.781,-0.3438 -0.364,-0.1593 -0.753,-0.3126 -1.125,-0.4687 -0.523,-0.2196 -1.055,-0.4428 -1.594,-0.6563 -0.68,-0.2701 -1.364,-0.5494 -2.062,-0.8124 -0.144,-0.053 -0.294,-0.1035 -0.438,-0.1563 -0.05,-0.019 -0.104,-0.044 -0.156,-0.062 -0.628,-0.229 -1.288,-0.4355 -1.937,-0.6562 -0.167,-0.058 -0.333,-0.1305 -0.5,-0.1876 -0.686,-0.2337 -1.394,-0.4603 -2.094,-0.6874 -1.76,-0.571 -3.546,-1.1205 -5.375,-1.6563 -0.875,-0.2566 -1.771,-0.4997 -2.657,-0.75 -0.957,-0.2702 -1.91,-0.5486 -2.874,-0.8125 -0.502,-0.1375 -0.998,-0.2702 -1.5,-0.4062 -3.225,-0.8711 -6.449,-1.7215 -9.626,-2.5626 -0.948,-0.2516 -1.878,-0.4981 -2.812,-0.75 -0.876,-0.2356 -1.765,-0.4818 -2.625,-0.7187 -4.437,-1.2247 -8.633,-2.467 -12.344,-3.8125 -0.742,-0.2691 -1.455,-0.5351 -2.156,-0.8125 -0.647,-0.2562 -1.266,-0.517 -1.875,-0.7813 -0.138,-0.06 -0.271,-0.1272 -0.406,-0.1874 -1.214,-0.5385 -2.372,-1.1095 -3.406,-1.6876 -0.554,-0.3095 -1.066,-0.6149 -1.563,-0.9374 0,0.01 -0.02,0.022 -0.03,0.031 -0.281,-0.1818 -0.552,-0.3763 -0.813,-0.5625 -16.048,-11.4473 -35.975,-60.547 -55.687,-60.375 -0.04,4e-4 -0.09,-7e-4 -0.125,0 z"
           transform="matrix(0.35030293,0,0,0.35030293,-1885.2422,1065.3878)"
           id="path30277"
           inkscape:connector-curvature="0" />
        <path
           style="color:#000000;fill:url(#linearGradient30381);fill-opacity:1;fill-rule:nonzero;stroke:none;stroke-width:28;marker:none;visibility:visible;display:inline;overflow:visible;enable-background:accumulate"
           d="m 20116.75,-4496.5938 c 0,0 -69.226,87.3847 -90.188,118.375 0.481,0.4787 0.986,0.9234 1.532,1.3126 16.048,11.4473 60.537,-17.328 80.25,-17.5 0.209,0 0.441,0.027 0.656,0.031 z"
           transform="matrix(0.35030293,0,0,0.35030293,-1885.2422,1065.3878)"
           id="path30285"
           inkscape:connector-curvature="0"
           sodipodi:nodetypes="cccccc" />
        <path
           style="color:#000000;fill:#9fbdc5;fill-opacity:1;fill-rule:nonzero;stroke:none;stroke-width:28;marker:none;visibility:visible;display:inline;overflow:visible;enable-background:accumulate"
           d="m 20115.75,-4497.0938 c 0,0 -66.081,22.8513 -98.094,36.4063 0.334,0.751 0.638,1.4775 0.875,2.1875 6.043,18.0587 -5.636,66.6785 8.031,80.2812 20.768,-30.704 88.107,-117.2623 89.188,-118.875 z m -66.281,121.3126 c -0.648,0.1545 -1.271,0.3034 -1.907,0.4374 0.638,-0.1343 1.256,-0.2824 1.907,-0.4374 z m -7.407,1.3124 c -0.73,0.079 -1.423,0.1505 -2.124,0.1876 0.699,-0.037 1.397,-0.1095 2.124,-0.1876 z"
           transform="matrix(0.35030293,0,0,0.35030293,-1885.2422,1065.3878)"
           id="path30289"
           inkscape:connector-curvature="0"
           sodipodi:nodetypes="ccccccccccc" />
        <path
           style="opacity:0.18584068;color:#000000;fill:#004455;fill-opacity:1;fill-rule:nonzero;stroke:none;stroke-width:28;marker:none;visibility:visible;display:inline;overflow:visible;enable-background:accumulate"
           d="m 19976.531,-4526.125 c -0.888,19.2061 36.063,50.0039 41.969,67.6562 6.255,18.6943 -6.455,70.1152 9.594,81.5626 16.048,11.4472 60.569,-17.328 80.281,-17.5 0.202,0 0.418,0.027 0.625,0.031 l 0,-37.5 c 5.511,-26.1456 9.169,-49.7294 9.594,-59.0312 -0.795,15.2072 -10.916,71.4356 -20.906,88.5624 -3.501,6.0001 -59.188,30.0001 -64.188,18.5 -5,-11.5 -11.125,-53.9374 -2.125,-71.9374 0,0 23.61,-14.3633 56.844,-31.6876 -51.619,13.7887 -69.219,7.3438 -69.219,7.3438 -8.878,-0.6753 -32.919,-20.3154 -42.469,-46 z"
           transform="matrix(0.35030293,0,0,0.35030293,-1885.2422,1065.3878)"
           id="path30291"
           inkscape:connector-curvature="0"
           sodipodi:nodetypes="ccccccccscccc" />
        <path
           style="opacity:0.31415932;color:#000000;fill:#d7eef4;fill-opacity:1;fill-rule:nonzero;stroke:none;stroke-width:28;marker:none;visibility:visible;display:inline;overflow:visible;enable-background:accumulate"
           d="m 19976.531,-4526.0625 c -0.771,18.4395 33.181,47.4788 41.125,65.375 30.989,-13.1213 94.598,-33.8833 98.094,-35.4063 -8.227,-1.7014 -114.255,-23.8959 -139.219,-29.9687 z"
           transform="matrix(0.35030293,0,0,0.35030293,-1885.2422,1065.3878)"
           id="path30293"
           inkscape:connector-curvature="0"
           sodipodi:nodetypes="cccc" />
        <path
           style="color:#000000;fill:url(#linearGradient30383);fill-opacity:1;fill-rule:nonzero;stroke:none;stroke-width:28;marker:none;visibility:visible;display:inline;overflow:visible;enable-background:accumulate"
           d="m 20051.406,-4563.5312 c -16.18,11.5664 -68.45,15.434 -74.344,34.125 -0.506,1.6067 -0.555,3.9199 -0.531,3.3437 24.964,6.0728 140.719,27.9687 140.719,27.9687 0,0 -41.809,-37.1045 -65.844,-65.4374 z"
           transform="matrix(0.35030293,0,0,0.35030293,-1885.2422,1065.3878)"
           id="path30295"
           inkscape:connector-curvature="0"
           sodipodi:nodetypes="ccccc" />
        <path
           style="color:#000000;fill:url(#linearGradient30385);fill-opacity:1;fill-rule:nonzero;stroke:none;stroke-width:28;marker:none;visibility:visible;display:inline;overflow:visible;enable-background:accumulate"
           d="m 20106.219,-4625.0625 c -19.67,0.3679 -38.717,49.6415 -54.531,61.3437 -0.09,0.069 -0.187,0.1196 -0.282,0.1876 23.661,27.8928 64.881,64.3482 65.844,65.4374 -0.545,-11.311 -11.191,-83.8535 -11.031,-126.9687 z"
           transform="matrix(0.35030293,0,0,0.35030293,-1885.2422,1065.3878)"
           id="path30297"
           inkscape:connector-curvature="0"
           sodipodi:nodetypes="ccccc" />
        <path
           style="color:#000000;fill:#ffffff;fill-opacity:1;fill-rule:nonzero;stroke:none;stroke-width:28;marker:none;visibility:visible;display:inline;overflow:visible;enable-background:accumulate"
           d="m 20105.906,-4624.8125 c -2.259,39.1655 7.496,123.9927 7.5,124.4687 l -130.594,-24 127.813,28.5313 c -7.281,11.5008 -64.131,87.1914 -64.781,89.0625 0.07,-0.073 0.205,-0.248 0.406,-0.5312 6.42,-9.0637 71.435,-88.8544 71.812,-87.3438 0.05,0.1846 -12.156,-130.1875 -12.156,-130.1875 z"
           transform="matrix(0.35030293,0,0,0.35030293,-1885.2422,1065.3878)"
           id="path30299"
           inkscape:connector-curvature="0"
           sodipodi:nodetypes="cccccccc" />
        <path
           style="opacity:0.41592922;color:#000000;fill:#ffffff;fill-opacity:1;fill-rule:nonzero;stroke:none;stroke-width:28;marker:none;visibility:visible;display:inline;overflow:visible;enable-background:accumulate"
           d="m 20106.219,-4625.0625 c -19.669,0.3758 -38.718,49.6113 -54.531,61.3125 -0.591,0.4361 -1.251,0.8659 -1.938,1.2812 8.572,10.9293 19.622,23.0032 26.812,30.625 -11.127,-12.5483 -19.475,-26.8626 -17,-28.7187 2.83,-2.1213 9.179,-10.6158 16.25,-23.3437 7.073,-12.7282 13.429,-24.0154 20.5,-26.8438 4.013,-1.6046 7.489,30.6319 9.876,57.0312 -0.06,-23.824 -0.05,-50.7102 0.03,-71.3437 z m -29.094,93.8125 c 1.419,1.5804 2.856,3.1372 4.344,4.625 4.865,4.8655 1.837,1.9075 -4.344,-4.625 z"
           transform="matrix(0.35030293,0,0,0.35030293,-1885.2422,1065.3878)"
           id="path30301"
           inkscape:connector-curvature="0"
           sodipodi:nodetypes="cccccccccccc" />
        <path
           style="color:#000000;fill:#090b0b;fill-opacity:1;fill-rule:nonzero;stroke:none;stroke-width:30;marker:none;visibility:visible;display:inline;overflow:visible;enable-background:accumulate"
           d="m 20042.688,-4565.875 c 3.738,6.9429 77.926,70.1816 74.187,65.375 -3.738,-4.8067 -67.25,-65.375 -67.25,-65.375 z m 75.437,71.0625 -15.094,106.25 7.813,-2.125 z m -18.937,3.4063 c 0,0 -88.543,28.6165 -92.282,30.2187 l 5.344,5.3437 z"
           transform="matrix(0.35030293,0,0,0.35030293,-1885.2422,1065.3878)"
           id="path30303"
           inkscape:connector-curvature="0"
           sodipodi:nodetypes="cccccccccccc" />
      </g>
    </g>
  </g>
</svg>
