<?xml version="1.0" encoding="UTF-8" standalone="no"?>
<!-- Created with Inkscape (http://www.inkscape.org/) -->

<svg
   xmlns:dc="http://purl.org/dc/elements/1.1/"
   xmlns:cc="http://creativecommons.org/ns#"
   xmlns:rdf="http://www.w3.org/1999/02/22-rdf-syntax-ns#"
   xmlns:svg="http://www.w3.org/2000/svg"
   xmlns="http://www.w3.org/2000/svg"
   xmlns:sodipodi="http://sodipodi.sourceforge.net/DTD/sodipodi-0.dtd"
   xmlns:inkscape="http://www.inkscape.org/namespaces/inkscape"
   width="256"
   height="256"
   viewBox="0 0 67.73333 67.733335"
   version="1.1"
   id="svg23489"
   inkscape:version="0.48.5 r10040"
   sodipodi:docname="tick_icon.svg">
  <defs
     id="defs23483" />
  <sodipodi:namedview
     id="base"
     pagecolor="#a6abb0"
     bordercolor="#666666"
     borderopacity="1.0"
     inkscape:pageopacity="0.09019608"
     inkscape:pageshadow="2"
     inkscape:zoom="2.3103615"
     inkscape:cx="49.508219"
     inkscape:cy="26.399922"
     inkscape:document-units="px"
     inkscape:current-layer="layer1"
     showgrid="false"
     inkscape:pagecheckerboard="false"
     showborder="true"
     units="px"
     inkscape:window-width="1920"
     inkscape:window-height="1017"
     inkscape:window-x="-8"
     inkscape:window-y="-8"
     inkscape:window-maximized="1"
     inkscape:showpageshadow="false"
     guidetolerance="28">
    <inkscape:grid
       type="xygrid"
       id="grid24034"
       spacingx="1px"
       spacingy="1px"
       empspacing="8"
       visible="true"
       enabled="true"
       snapvisiblegridlinesonly="true" />
  </sodipodi:namedview>
  <metadata
     id="metadata23486">
    <rdf:RDF>
      <cc:Work
         rdf:about="">
        <dc:format>image/svg+xml</dc:format>
        <dc:type
           rdf:resource="http://purl.org/dc/dcmitype/StillImage" />
        <dc:title />
        <cc:license
           rdf:resource="" />
        <dc:creator>
          <cc:Agent>
            <dc:title>Robert Brooks</dc:title>
          </cc:Agent>
        </dc:creator>
      </cc:Work>
    </rdf:RDF>
  </metadata>
  <g
     inkscape:label="Layer 1"
     inkscape:groupmode="layer"
     id="layer1"
     transform="translate(0,-229.26665)">
    <g
       transform="matrix(1.5360959,0,0,1.5360959,-3915.2874,1309.8831)"
       id="g21399">
      <path
         inkscape:connector-curvature="0"
         id="path21401"
         d="m 2580.3807,-696.98661 c -0.093,0.004 -0.185,0.023 -0.2811,0.0496 -0.035,0.01 -0.072,0.0201 -0.1075,0.0331 -0.033,0.0121 -0.066,0.0345 -0.099,0.0496 -0.011,0.005 -0.022,0.003 -0.033,0.008 -0.044,0.0209 -0.087,0.0482 -0.1323,0.0744 -0.032,0.0187 -0.066,0.0363 -0.099,0.0579 -0.019,0.0124 -0.039,0.0197 -0.058,0.0331 -0.032,0.0223 -0.058,0.0494 -0.091,0.0744 -0.1901,0.14632 -0.3886,0.33544 -0.6036,0.58706 -0.01,0.009 -0.017,0.0152 -0.025,0.0248 -0.076,0.0903 -0.1514,0.18437 -0.2315,0.28938 l -9.9467,12.83229 c 0,0 -0.099,0.13433 -0.2563,0.27287 -0.1574,0.13808 -0.3685,0.2795 -0.6119,0.29765 -0.162,0.0124 -0.3386,-0.0286 -0.5126,-0.16536 l -5.9118,-4.59714 c -0.1298,-0.10189 -0.2633,-0.18637 -0.4051,-0.2563 -0.1419,-0.07 -0.2888,-0.1265 -0.4382,-0.16536 -0.075,-0.0194 -0.1559,-0.0379 -0.2315,-0.0496 -0.1516,-0.0236 -0.3025,-0.0311 -0.4548,-0.0248 -0.1521,0.006 -0.2981,0.0306 -0.4465,0.0661 -0.1485,0.0355 -0.2978,0.085 -0.4382,0.14883 -0.3504,0.15973 -0.6676,0.4077 -0.9178,0.73586 l -3.6215,4.74599 c -0.1,0.13126 -0.1873,0.27107 -0.2563,0.41339 -0.01,0.0132 -0.01,0.028 -0.017,0.0413 -0.03,0.066 -0.059,0.13086 -0.083,0.19844 0,0.0139 -0.012,0.0274 -0.016,0.0413 -0.017,0.0513 -0.028,0.10507 -0.041,0.15709 -0.015,0.0578 -0.031,0.11525 -0.041,0.17364 -0.01,0.0334 -0.012,0.0657 -0.017,0.0992 -0.01,0.0491 -0.013,0.0996 -0.017,0.1488 -9e-4,0.0138 7e-4,0.0276 0,0.0414 -0.01,0.10474 -1e-4,0.20984 0.01,0.31419 7e-4,0.008 -8e-4,0.0165 0,0.0248 -0.2026,1.24867 0.1519,2.92277 0.926,3.53052 l 13.1134,10.30221 c 1.039,0.8151 2.5484,0.59539 3.3487,-0.45476 7.1244,-9.09154 11.4733,-14.79614 16.1974,-21.05089 0.3281,-0.90506 0.4228,-2.01893 0.3638,-2.79469 0.01,-0.0668 0.01,-0.13165 0.01,-0.19844 -2e-4,-0.0111 4e-4,-0.022 0,-0.0331 0,-0.0775 -0.012,-0.15507 -0.025,-0.23151 -0.01,-0.0394 -0.016,-0.0768 -0.025,-0.11573 -0.011,-0.0482 -0.026,-0.0934 -0.041,-0.14057 0,-0.008 -0.01,-0.0167 -0.01,-0.0248 -0.027,-0.0784 -0.053,-0.15687 -0.091,-0.23151 -0.015,-0.031 -0.032,-0.0608 -0.05,-0.091 -0.028,-0.0481 -0.059,-0.0948 -0.091,-0.14054 0,-0.003 -0.01,-0.005 -0.01,-0.008 -0.035,-0.0487 -0.076,-0.0949 -0.1157,-0.14058 -0.04,-0.0452 -0.079,-0.0904 -0.1241,-0.13229 -0.045,-0.0422 -0.09,-0.0857 -0.1405,-0.12401 l -5.639,-4.29948 c -0.2255,-0.13586 -0.4419,-0.25149 -0.6614,-0.32245 -0.022,-0.007 -0.044,-0.0104 -0.066,-0.0166 -0.034,-0.01 -0.065,-0.0175 -0.099,-0.0248 -0.055,-0.0117 -0.1097,-0.0198 -0.1653,-0.0248 -0.057,-0.005 -0.1157,-0.0107 -0.1737,-0.008 z"
         style="color:#000000;fill:#088808;fill-opacity:1;fill-rule:nonzero;stroke:none;stroke-width:5.16732073000000010;stroke-miterlimit:4;stroke-opacity:1;stroke-dasharray:none;marker:none;visibility:visible;display:inline;overflow:visible;enable-background:accumulate"
         gds_outline="1" />
      <path
         style="color:#000000;fill:#088808;fill-opacity:1;fill-rule:nonzero;stroke:#000000;stroke-width:3.17500019;marker:none;visibility:visible;display:inline;overflow:visible;enable-background:accumulate"
         d="m 2580.3807,-696.98661 c -0.093,0.004 -0.185,0.023 -0.2811,0.0496 -0.035,0.01 -0.072,0.0201 -0.1075,0.0331 -0.033,0.0121 -0.066,0.0345 -0.099,0.0496 -0.011,0.005 -0.022,0.003 -0.033,0.008 -0.044,0.0209 -0.087,0.0482 -0.1323,0.0744 -0.032,0.0187 -0.066,0.0363 -0.099,0.0579 -0.019,0.0124 -0.039,0.0197 -0.058,0.0331 -0.032,0.0223 -0.058,0.0494 -0.091,0.0744 -0.1901,0.14632 -0.3886,0.33544 -0.6036,0.58706 -0.01,0.009 -0.017,0.0152 -0.025,0.0248 -0.076,0.0903 -0.1514,0.18437 -0.2315,0.28938 l -9.9467,12.83229 c 0,0 -0.099,0.13433 -0.2563,0.27287 -0.1574,0.13808 -0.3685,0.2795 -0.6119,0.29765 -0.162,0.0124 -0.3386,-0.0286 -0.5126,-0.16536 l -5.9118,-4.59714 c -0.1298,-0.10189 -0.2633,-0.18637 -0.4051,-0.2563 -0.1419,-0.07 -0.2888,-0.1265 -0.4382,-0.16536 -0.075,-0.0194 -0.1559,-0.0379 -0.2315,-0.0496 -0.1516,-0.0236 -0.3025,-0.0311 -0.4548,-0.0248 -0.1521,0.006 -0.2981,0.0306 -0.4465,0.0661 -0.1485,0.0355 -0.2978,0.085 -0.4382,0.14883 -0.3504,0.15973 -0.6676,0.4077 -0.9178,0.73586 l -3.6215,4.74599 c -0.1,0.13126 -0.1873,0.27107 -0.2563,0.41339 -0.01,0.0132 -0.01,0.028 -0.017,0.0413 -0.03,0.066 -0.059,0.13086 -0.083,0.19844 0,0.0139 -0.012,0.0274 -0.016,0.0413 -0.017,0.0513 -0.028,0.10507 -0.041,0.15709 -0.015,0.0578 -0.031,0.11525 -0.041,0.17364 -0.01,0.0334 -0.012,0.0657 -0.017,0.0992 -0.01,0.0491 -0.013,0.0996 -0.017,0.1488 -9e-4,0.0138 7e-4,0.0276 0,0.0414 -0.01,0.10474 -1e-4,0.20984 0.01,0.31419 7e-4,0.008 -8e-4,0.0165 0,0.0248 -0.2026,1.24867 0.1519,2.92277 0.926,3.53052 l 13.1134,10.30221 c 1.039,0.8151 2.5484,0.59539 3.3487,-0.45476 7.1244,-9.09154 11.4733,-14.79614 16.1974,-21.05089 0.3281,-0.90506 0.4228,-2.01893 0.3638,-2.79469 0.01,-0.0668 0.01,-0.13165 0.01,-0.19844 -2e-4,-0.0111 4e-4,-0.022 0,-0.0331 0,-0.0775 -0.012,-0.15507 -0.025,-0.23151 -0.01,-0.0394 -0.016,-0.0768 -0.025,-0.11573 -0.011,-0.0482 -0.026,-0.0934 -0.041,-0.14057 0,-0.008 -0.01,-0.0167 -0.01,-0.0248 -0.027,-0.0784 -0.053,-0.15687 -0.091,-0.23151 -0.015,-0.031 -0.032,-0.0608 -0.05,-0.091 -0.028,-0.0481 -0.059,-0.0948 -0.091,-0.14054 0,-0.003 -0.01,-0.005 -0.01,-0.008 -0.035,-0.0487 -0.076,-0.0949 -0.1157,-0.14058 -0.04,-0.0452 -0.079,-0.0904 -0.1241,-0.13229 -0.045,-0.0422 -0.09,-0.0857 -0.1405,-0.12401 l -5.639,-4.29948 c -0.2255,-0.13586 -0.4419,-0.25149 -0.6614,-0.32245 -0.022,-0.007 -0.044,-0.0104 -0.066,-0.0166 -0.034,-0.01 -0.065,-0.0175 -0.099,-0.0248 -0.055,-0.0117 -0.1097,-0.0198 -0.1653,-0.0248 -0.057,-0.005 -0.1157,-0.0107 -0.1737,-0.008 z"
         id="path21403"
         inkscape:connector-curvature="0" />
      <g
         id="g21405"
         transform="translate(-10.940236,0)">
        <path
           style="color:#000000;fill:#088808;fill-opacity:1;fill-rule:nonzero;stroke:none;stroke-width:12;marker:none;visibility:visible;display:inline;overflow:visible;enable-background:accumulate"
           d="m 2589.5623,-693.85392 -9.9483,12.83347 c 0,0 -0.6865,0.94966 -1.3827,0.40265 l -5.9088,-4.5972 c -1.0389,-0.81516 -2.5351,-0.59669 -3.3357,0.45346 l -3.692,3.48211 c -0.8007,1.05023 -0.523,3.78739 0.5158,4.6029 l 13.1203,10.29527 c 1.039,0.81511 2.5435,0.59535 3.3438,-0.45479 7.1244,-9.09155 11.476,-14.79078 16.2001,-21.04554 0.5354,-1.47711 0.4482,-3.53103 0.088,-3.71689 l -6.0773,-3.13697 c -0.9046,-0.54502 -1.6765,-0.75302 -2.9233,0.88151 z"
           id="path21407"
           inkscape:connector-curvature="0"
           sodipodi:nodetypes="ccccccccccsccc" />
        <path
           sodipodi:nodetypes="ccccccccccsccc"
           inkscape:connector-curvature="0"
           id="path21409"
           d="m 2589.5623,-695.7055 -9.9483,12.83347 c 0,0 -0.6865,0.94966 -1.3827,0.40265 l -5.9088,-4.5972 c -1.0389,-0.81516 -2.5351,-0.59669 -3.3357,0.45346 l -3.6217,4.74799 c -0.8007,1.05023 -0.5933,2.52151 0.4455,3.33702 l 13.1203,10.29527 c 1.039,0.81511 2.5435,0.59535 3.3438,-0.45479 7.1244,-9.09155 11.476,-14.79078 16.2001,-21.04554 0.61,-0.80587 0.4525,-1.94378 -0.3514,-2.5565 l -5.6377,-4.29736 c -0.9046,-0.54502 -1.6765,-0.75302 -2.9233,0.88151 z"
           style="color:#000000;fill:#13d113;fill-opacity:1;fill-rule:nonzero;stroke:none;stroke-width:12;marker:none;visibility:visible;display:inline;overflow:visible;enable-background:accumulate" />
        <path
           id="path21411"
           transform="matrix(0.26458334,0,0,0.26458334,-6.3049604e-6,18.562493)"
           d="m 9793.9688,-2704.4375 c -1.9236,0.081 -4.0056,1.3688 -6.6563,4.8437 l -37.5937,48.5 c 0,0 -2.5875,3.5987 -5.2188,1.5313 l -22.3438,-17.375 c -3.9265,-3.0809 -9.5678,-2.2503 -12.5937,1.7187 l -13.6875,17.9376 c -1.6739,2.1955 -2.2008,4.8631 -1.6562,7.3437 0.2667,-1.2617 0.8151,-2.4905 1.6562,-3.5937 l 13.6875,-17.9376 c 3.0259,-3.969 8.6672,-4.7996 12.5937,-1.7187 l 22.3438,17.375 c 2.6313,2.0674 5.2188,-1.5313 5.2188,-1.5313 l 37.5937,-48.5 c 4.7123,-6.1777 7.6435,-5.3724 11.0625,-3.3124 l 21.3125,16.2187 c 1.243,0.9475 2.0436,2.235 2.4375,3.625 0.7563,-2.6527 -0.1038,-5.5963 -2.4375,-7.375 l -21.3125,-16.25 c -1.4958,-0.9012 -2.9101,-1.5629 -4.4062,-1.5 z"
           style="color:#000000;fill:#00ff00;fill-opacity:1;fill-rule:nonzero;stroke:none;stroke-width:12;marker:none;visibility:visible;display:inline;overflow:visible;enable-background:accumulate"
           inkscape:connector-curvature="0" />
      </g>
    </g>
  </g>
</svg>
