<?xml version="1.0" encoding="UTF-8" standalone="no"?>
<!-- Created with Inkscape (http://www.inkscape.org/) -->

<svg
   xmlns:dc="http://purl.org/dc/elements/1.1/"
   xmlns:cc="http://creativecommons.org/ns#"
   xmlns:rdf="http://www.w3.org/1999/02/22-rdf-syntax-ns#"
   xmlns:svg="http://www.w3.org/2000/svg"
   xmlns="http://www.w3.org/2000/svg"
   xmlns:xlink="http://www.w3.org/1999/xlink"
   xmlns:sodipodi="http://sodipodi.sourceforge.net/DTD/sodipodi-0.dtd"
   xmlns:inkscape="http://www.inkscape.org/namespaces/inkscape"
   width="256"
   height="256"
   viewBox="0 0 67.73333 67.733335"
   version="1.1"
   id="svg23489"
   inkscape:version="0.48.5 r10040"
   sodipodi:docname="timer_icon.svg">
  <defs
     id="defs23483">
    <linearGradient
       inkscape:collect="always"
       xlink:href="#linearGradient20825"
       id="linearGradient43860"
       gradientUnits="userSpaceOnUse"
       x1="10153.654"
       y1="-2602.8064"
       x2="10152.691"
       y2="-2634.9165" />
    <linearGradient
       inkscape:collect="always"
       id="linearGradient20825">
      <stop
         style="stop-color:#ffd226;stop-opacity:1;"
         offset="0"
         id="stop20827" />
      <stop
         style="stop-color:#fff806;stop-opacity:1"
         offset="1"
         id="stop20829" />
    </linearGradient>
  </defs>
  <sodipodi:namedview
     id="base"
     pagecolor="#a6abb0"
     bordercolor="#666666"
     borderopacity="1.0"
     inkscape:pageopacity="0.09019608"
     inkscape:pageshadow="2"
     inkscape:zoom="4.6207231"
     inkscape:cx="109.03241"
     inkscape:cy="17.948034"
     inkscape:document-units="px"
     inkscape:current-layer="layer1"
     showgrid="false"
     inkscape:pagecheckerboard="false"
     showborder="true"
     units="px"
     inkscape:window-width="1920"
     inkscape:window-height="1017"
     inkscape:window-x="-8"
     inkscape:window-y="-8"
     inkscape:window-maximized="1"
     inkscape:showpageshadow="false"
     guidetolerance="28">
    <inkscape:grid
       type="xygrid"
       id="grid24034"
       spacingx="1px"
       spacingy="1px"
       empspacing="8"
       visible="true"
       enabled="true"
       snapvisiblegridlinesonly="true" />
  </sodipodi:namedview>
  <metadata
     id="metadata23486">
    <rdf:RDF>
      <cc:Work
         rdf:about="">
        <dc:format>image/svg+xml</dc:format>
        <dc:type
           rdf:resource="http://purl.org/dc/dcmitype/StillImage" />
        <dc:title />
        <cc:license
           rdf:resource="" />
        <dc:creator>
          <cc:Agent>
            <dc:title>Robert Brooks</dc:title>
          </cc:Agent>
        </dc:creator>
      </cc:Work>
    </rdf:RDF>
  </metadata>
  <g
     inkscape:label="Layer 1"
     inkscape:groupmode="layer"
     id="layer1"
     transform="translate(0,-229.26665)">
    <g
       id="g43799"
       transform="matrix(0.95522865,0.08744861,-0.11807239,0.92624296,-1184.9458,222.7031)">
      <path
         inkscape:connector-curvature="0"
         gds_outline="1"
         id="path21913-4"
         transform="matrix(0.26458334,0,0,0.26458334,-6.3049604e-6,18.562493)"
         d="m 4746.1562,-465.03125 c -3.3607,0.068 -6.946,0.87054 -10.75,2.625 -17.0067,7.84384 -28.3464,25.39009 -14.1562,50.90625 18.5809,8.3863 60.6231,-27.57189 54.3438,-33.46875 0,0 -11.2893,-20.42984 -29.4376,-20.0625 z m 77.6563,6.375 c -6.8257,0.0137 -12.0704,1.81157 -14.2813,5.03125 -0.1285,0.18331 -0.2379,0.39975 -0.3437,0.59375 -2.8354,5.15487 -6.1202,16.73437 -5.9063,22.875 -1.0296,3.72237 2.1966,8.40852 8.1876,12.5625 -0.041,0.003 -0.084,-0.003 -0.125,0 -0.054,-0.0181 -0.1055,-0.0467 -0.1563,-0.0625 -1.5836,-0.1126 -4.0937,0.0612 -7.0625,0.375 -8.9068,0.94342 -22.0734,3.33819 -27.7812,4.0625 -21.1261,2.68079 -38.7619,18.54545 -47.9376,40.71875 -0.9744,-0.63111 -1.9597,-1.04378 -2.9687,-1.25 -0.2306,-0.0497 -0.4871,-0.0693 -0.7187,-0.0937 -6.1527,-0.6311 -18.7528,0.94816 -24.625,3.6875 -6.3905,0.84618 -10.732,13.1042 -9.8438,28.5 0.9388,16.28651 7.3761,29.90692 14.375,30.4375 0.7166,0.0537 1.4252,-0.0359 2.0938,-0.25 5.004,0.87861 13.1606,0.0238 18.0624,-0.65625 10.2304,40.98012 42.3655,69.72356 75.1563,65.5625 6.7037,-0.85066 35.6237,-3.45871 39.4063,-5.15625 0.032,-0.0192 0.062,-0.0405 0.094,-0.0625 13.7392,-3.06853 25.3951,-11.42495 33.9375,-23.1875 0.074,-0.10195 0.1451,-0.21004 0.2188,-0.3125 1.2271,-1.70937 2.4073,-3.49735 3.5,-5.34375 0.1237,-0.20878 0.253,-0.41454 0.375,-0.625 0.1538,-0.26593 0.2864,-0.54393 0.4374,-0.8125 1.6103,-2.85835 3.0679,-5.86331 4.3438,-9 0.05,-0.12435 0.1063,-0.25025 0.1562,-0.375 0.4139,-1.03193 0.8114,-2.0661 1.1876,-3.125 0.088,-0.24682 0.1645,-0.50177 0.25,-0.75 0.3241,-0.94012 0.6434,-1.88388 0.9374,-2.84375 0.044,-0.14418 0.082,-0.29289 0.125,-0.4375 0.3219,-1.07046 0.6225,-2.15653 0.9063,-3.25 0.029,-0.11178 0.034,-0.23174 0.062,-0.34375 0.6066,-2.37473 1.1405,-4.80879 1.5625,-7.28125 0.019,-0.11374 0.043,-0.22982 0.062,-0.34375 0.1984,-1.18905 0.3768,-2.38458 0.5312,-3.59375 0.02,-0.15425 0.012,-0.31419 0.031,-0.46875 0.3061,-2.49357 0.5423,-5.02526 0.6563,-7.59375 0.014,-0.31226 0.02,-0.62425 0.031,-0.9375 0.037,-1.04459 0.059,-2.10108 0.062,-3.15625 9e-4,-0.25768 0,-0.52298 0,-0.78125 0,-0.44671 -0.024,-0.89529 -0.031,-1.34375 -0.015,-0.86991 -0.025,-1.74892 -0.062,-2.625 -0.052,-1.20977 -0.1238,-2.43573 -0.2188,-3.65625 -0.01,-0.12446 -0.021,-0.25043 -0.031,-0.375 -0.1046,-1.28444 -0.2217,-2.58021 -0.375,-3.875 -0.01,-0.0626 -0.024,-0.12484 -0.031,-0.1875 -0.1634,-1.35836 -0.3445,-2.69445 -0.5625,-4.0625 0,-0.0101 0,-0.0211 0,-0.0312 -0.2204,-1.38278 -0.4791,-2.7655 -0.75,-4.125 -0.011,-0.0524 -0.021,-0.10388 -0.031,-0.15625 -0.019,-0.0947 -0.043,-0.18668 -0.063,-0.28125 -0.2682,-1.31569 -0.5607,-2.61389 -0.875,-3.90625 -0.1848,-0.76121 -0.3933,-1.49723 -0.5937,-2.25 -0.1277,-0.47921 -0.2411,-0.9618 -0.375,-1.4375 -0.2156,-0.7667 -0.456,-1.5239 -0.6875,-2.28125 -0.2202,-0.71928 -0.422,-1.44565 -0.6562,-2.15625 -0.6077,-1.8459 -1.2692,-3.65306 -1.9688,-5.4375 -0.3055,-0.77863 -0.6151,-1.54615 -0.9375,-2.3125 -0.4107,-0.97708 -0.8438,-1.94978 -1.2813,-2.90625 -0.01,-0.0212 -0.022,-0.0413 -0.031,-0.0625 -0.3368,-0.73512 -0.679,-1.46496 -1.0312,-2.1875 -0.3631,-0.7439 -0.7148,-1.48854 -1.0938,-2.21875 -0.4396,-0.84783 -0.8832,-1.67114 -1.3438,-2.5 -0.1861,-0.33468 -0.373,-0.66848 -0.5624,-1 -0.4511,-0.7899 -0.9054,-1.57214 -1.375,-2.34375 -0.2171,-0.35636 -0.4354,-0.71012 -0.6563,-1.0625 -0.4575,-0.73018 -0.9324,-1.44348 -1.4063,-2.15625 -0.063,-0.0944 -0.1244,-0.18717 -0.1874,-0.28125 -0.6385,-0.95303 -1.3021,-1.89184 -1.9688,-2.8125 -0.289,-0.39886 -0.5808,-0.79486 -0.875,-1.1875 -0.4581,-0.61187 -0.9047,-1.216 -1.375,-1.8125 -0.1434,-0.18179 -0.293,-0.35091 -0.4375,-0.53125 -0.6294,-0.7859 -1.2561,-1.55454 -1.9063,-2.3125 -0.3635,-0.42362 -0.7239,-0.83529 -1.0937,-1.25 -0.4415,-0.49543 -0.8935,-0.98625 -1.3437,-1.46875 -0.056,-0.0596 -0.1005,-0.12809 -0.1563,-0.1875 -1.6084,-1.71401 -3.2883,-3.33224 -5,-4.875 -0.05,-0.0449 -0.1063,-0.0802 -0.1563,-0.125 -2.6055,-2.33681 -5.3134,-4.49571 -8.125,-6.40625 -0.2023,-0.13744 -0.4216,-0.23986 -0.625,-0.375 -0.4897,-0.32571 -0.9735,-0.65658 -1.4687,-0.96875 4.6414,-0.55359 8.0818,-2.15259 9.4063,-4.71875 0.3137,-0.60764 0.5016,-1.24277 0.5624,-1.90625 3.5834,-5.54007 6.514,-17.46639 7,-19.5625 2.0081,-8.6564 -6.6351,-15.78235 -22.0937,-21.21875 -6.5518,-2.30385 -12.8162,-3.38566 -18.125,-3.375 z"
         style="color:#000000;fill:#ffd226;fill-opacity:1;fill-rule:nonzero;stroke:none;stroke-width:30;stroke-miterlimit:4;stroke-opacity:1;stroke-dasharray:none;marker:none;visibility:visible;display:inline;overflow:visible;enable-background:accumulate" />
      <g
         id="g21903"
         transform="matrix(1.2171232,-0.15444693,0.15444693,1.2171232,-1881.9812,1303.5546)">
        <g
           transform="matrix(1.3469529,0,0,1.3469529,-910.79556,56.028586)"
           id="g38414">
          <g
             id="g21905"
             transform="matrix(1,0,-0.00352128,1,-18.719517,-25.880152)">
            <path
               inkscape:connector-curvature="0"
               id="path21913"
               d="m 2691.8675,-613.19696 c 0.4779,0.01 0.878,0.0329 1.1274,0.0827 0.011,0.005 0.021,0.0111 0.034,0.0164 5.6622,0.36094 10.3662,6.25049 10.6212,13.46067 0.2509,7.09393 -3.8954,12.89815 -9.3975,13.42761 -0.01,0.005 -0.021,0.0116 -0.032,0.0164 -0.6343,0.19339 -5.2839,0.0249 -6.3658,0.0249 -5.6912,0 -10.5152,-6.02615 -10.7784,-13.46896 -0.2632,-7.44278 4.6055,-13.47721 10.2967,-13.47721 0.9212,0 3.0612,-0.11237 4.495,-0.0827 z"
               style="color:#000000;fill:#ffd226;fill-opacity:1;fill-rule:nonzero;stroke:#1e1c00;stroke-width:3.17500019;stroke-opacity:1;marker:none;visibility:visible;display:inline;overflow:visible;enable-background:accumulate" />
            <path
               sodipodi:nodetypes="sscscsss"
               inkscape:connector-curvature="0"
               id="path21915"
               d="m 2677.0715,-599.64067 c 0.2632,7.44281 5.0902,13.4764 10.7813,13.4764 1.082,0 5.7291,0.16769 6.3633,-0.0257 4.113,-1.7226 3.6784,-7.42286 3.4652,-13.45073 -0.2064,-5.83665 -0.6487,-11.59735 -4.6842,-13.47057 -0.9975,-0.19902 -4.3948,-0.006 -5.623,-0.006 -5.6912,0 -10.5658,6.03358 -10.3026,13.47637 z"
               style="color:#000000;fill:#ffd226;fill-opacity:1;fill-rule:nonzero;stroke:none;stroke-width:12;marker:none;visibility:visible;display:inline;overflow:visible;enable-background:accumulate" />
            <path
               inkscape:connector-curvature="0"
               id="path21917"
               d="m 2691.8675,-613.19696 c 0.4779,0.01 0.878,0.0329 1.1274,0.0827 2.1326,0.98991 3.2588,3.0733 3.8798,5.67201 l -18.008,0 c 1.8838,-3.43355 5.0384,-5.67201 8.5058,-5.67201 0.9212,0 3.0612,-0.11237 4.495,-0.0827 z"
               style="opacity:0.8495575;color:#000000;fill:#ffff00;fill-opacity:1;fill-rule:nonzero;stroke:none;stroke-width:12;marker:none;visibility:visible;display:inline;overflow:visible;enable-background:accumulate" />
            <path
               inkscape:connector-curvature="0"
               id="path21919"
               d="m 2693.5315,-600.28199 c 0.5747,0 1.0582,0.46697 1.0785,1.0418 l 0.4456,12.60078 c -0.257,0.17005 -0.5306,0.31872 -0.8356,0.44649 -0.6343,0.19338 -5.2839,0.0249 -6.3658,0.0249 -5.6912,0 -10.5152,-6.02615 -10.7784,-13.46896 -0.01,-0.21598 -0.015,-0.43143 -0.015,-0.64492 l 16.4703,0 z"
               style="opacity:0.3539823;color:#000000;fill:#ff6600;fill-opacity:1;fill-rule:nonzero;stroke:none;stroke-width:12;marker:none;visibility:visible;display:inline;overflow:visible;enable-background:accumulate" />
            <g
               id="g21921"
               transform="matrix(0.45668705,-0.5606612,0.5606612,0.45668705,1784.1419,1166.7757)">
              <path
                 id="path21923"
                 transform="matrix(0.26458334,0,0,0.26458334,-6.3049604e-6,18.562493)"
                 d="m 10237.688,-2279.5312 c -0.187,-0.01 -0.378,0.021 -0.563,0.031 -4.907,0.2789 -14.589,3.0851 -18.844,5.9688 -4.904,1.4659 -6.733,11.6147 -4.062,23.5624 2.825,12.639 9.629,22.4953 15.187,22.0313 0.569,-0.048 1.097,-0.1857 1.594,-0.4375 5.511,0.081 15.269,-3.1316 16.969,-3.7188 7.021,-2.4243 8.245,-11.7547 5.25,-25.1562 -2.902,-12.9827 -9.736,-22.0352 -15.531,-22.2812 z"
                 style="color:#000000;fill:#e49715;fill-opacity:1;fill-rule:nonzero;stroke:#1e1c00;stroke-width:12;stroke-miterlimit:4;stroke-opacity:1;stroke-dasharray:none;marker:none;visibility:visible;display:inline;overflow:visible;enable-background:accumulate"
                 inkscape:connector-curvature="0" />
              <g
                 transform="matrix(0.99607578,-0.08316114,0.09862447,0.99570568,58.56059,215.33531)"
                 id="g21925">
                <path
                   style="color:#000000;fill:#ffd324;fill-opacity:1;fill-rule:nonzero;stroke:none;stroke-width:25;marker:none;visibility:visible;display:inline;overflow:visible;enable-background:accumulate"
                   d="m 2721.1807,-570.15965 c 0.4395,3.59781 -0.126,6.02999 -2.0391,6.51441 -0.5666,0.14354 -4.4191,1.06292 -5.3241,0.3841 -1.5536,-1.16541 -0.7916,-4.16147 -1.0693,-6.43501 -0.2595,-2.12431 -1.8377,-3.94637 -0.8478,-5.14347 0.6865,-0.83037 4.0834,-1.57798 5.6206,-1.53723 1.5651,0.0415 3.2203,2.6194 3.6597,6.2172 z"
                   id="path21927"
                   inkscape:connector-curvature="0"
                   sodipodi:nodetypes="sssssss" />
                <path
                   id="path21929"
                   transform="matrix(0.26344712,0.02200305,-0.02609439,0.26354505,-38.902502,-200.8706)"
                   d="m 10243.844,-2276.3125 -22.25,5.7813 -5.75,3.1562 c 0.87,4.0544 4.557,8.8857 5.812,14.5 1.455,6.5072 0.77,14.796 3.219,20.0625 0.434,0.6689 0.936,1.2926 1.531,1.8125 6.791,-1.1718 20.227,-3.8102 25.625,-4.875 0.392,-0.4418 0.778,-0.9103 1.094,-1.4375 l -26.313,5.0625 -0.25,-1.875 27.907,-7.2188 c 0.104,-0.7041 0.175,-1.4489 0.219,-2.2187 -3.579,0.8724 -23.568,5.741 -24.094,6.25 -0.576,0.5552 -0.969,-3.5313 -0.969,-3.5313 0,0 16.425,-4.5301 25.063,-6.6874 -0.08,-1.3662 -0.25,-2.8041 -0.469,-4.3126 l -22.75,5.9063 -2.094,-7.5625 c 0,0 15.663,-4.1089 23.281,-6.0625 -0.584,-2.1707 -1.284,-4.2054 -2.062,-6.0937 l -24.656,6.375 -2,-7.125 c 0,0 17.518,-4.6825 23.093,-6.0626 -1.015,-1.5092 -2.095,-2.7882 -3.187,-3.8437 z"
                   style="color:#000000;fill:#fff806;fill-opacity:1;fill-rule:nonzero;stroke:none;stroke-width:25;marker:none;visibility:visible;display:inline;overflow:visible;enable-background:accumulate"
                   inkscape:connector-curvature="0" />
                <path
                   id="path21931"
                   transform="matrix(0.26344712,0.02200305,-0.02609439,0.26354505,-38.902502,-200.8706)"
                   d="m 10244.75,-2275.375 -22.438,6.0312 -6.062,3.4376 c 1.289,3.7412 4.298,8.0731 5.406,13.0312 1.775,7.9394 0.321,18.555 5.313,23.0625 6.564,-1.1718 19.563,-3.8102 24.781,-4.875 0.379,-0.4418 0.726,-0.9103 1.031,-1.4375 l -25.437,5.0625 -0.219,-1.875 27.125,-7.25 c 0.149,-0.7127 0.265,-1.4603 0.344,-2.25 -3.145,0.7934 -23.049,5.7981 -23.563,6.3125 -0.556,0.5552 -0.937,-3.5312 -0.937,-3.5312 0,0 16.385,-4.6969 24.625,-6.8126 -0.04,-1.355 -0.154,-2.8063 -0.344,-4.3124 l -22.5,6.0312 -2.031,-7.5625 c 0,0 15.889,-4.3199 23.062,-6.2187 -0.538,-2.1656 -1.173,-4.2226 -1.906,-6.125 l -24.469,6.5624 -1.937,-7.125 c 0,0 18.37,-5.0742 23.062,-6.25 -0.925,-1.4911 -1.901,-2.7974 -2.906,-3.9062 z"
                   style="color:#000000;fill:#ffac19;fill-opacity:1;fill-rule:nonzero;stroke:none;stroke-width:25;marker:none;visibility:visible;display:inline;overflow:visible;enable-background:accumulate"
                   inkscape:connector-curvature="0" />
                <path
                   id="path21933"
                   transform="matrix(0.26344712,0.02200305,-0.02609439,0.26354505,-38.902502,-200.8706)"
                   d="m 10253.188,-2257.4062 c -10.683,2.8294 -26.889,7.2839 -28.5,8 0,0 -1.095,0.5853 -2.313,1.4374 0.776,7.5384 0.554,15.7843 5.687,18.9688 3.661,2.2702 17.827,-2.3755 19.907,-3.0938 7.021,-2.4243 8.245,-11.7547 5.25,-25.1562 -0.01,-0.052 -0.02,-0.1039 -0.03,-0.1562 z"
                   style="opacity:0.67699118;color:#000000;fill:#ffac19;fill-opacity:1;fill-rule:nonzero;stroke:none;stroke-width:25;marker:none;visibility:visible;display:inline;overflow:visible;enable-background:accumulate"
                   inkscape:connector-curvature="0" />
                <path
                   transform="matrix(0.24952725,0,0.0304766,0.24952725,259.191,84.850339)"
                   d="m 10166.197,-2620.7378 c 0,13.598 -4.797,24.6214 -10.714,24.6214 -5.916,0 -10.713,-11.0234 -10.713,-24.6214 0,-13.598 4.797,-24.6214 10.713,-24.6214 5.917,0 10.714,11.0234 10.714,24.6214 z"
                   sodipodi:ry="24.621405"
                   sodipodi:rx="10.71313"
                   sodipodi:cy="-2620.7378"
                   sodipodi:cx="10155.483"
                   id="path21935"
                   style="color:#000000;fill:#ffac19;fill-opacity:1;fill-rule:nonzero;stroke:none;stroke-width:25;marker:none;visibility:visible;display:inline;overflow:visible;enable-background:accumulate"
                   sodipodi:type="arc" />
                <path
                   sodipodi:nodetypes="cccccccc"
                   id="path21937"
                   transform="matrix(0.26344712,0.02200305,-0.02609439,0.26354505,-38.902502,-200.8706)"
                   d="m 10237.688,-2279.5312 c -0.187,-0.01 -0.378,0.021 -0.563,0.031 -5.802,0.3298 -16.72,2.5527 -18.995,5.8934 -0.357,0.5524 2.89,-0.3118 1.859,0.631 4.438,0.1839 5.284,2.5442 5.284,2.5442 3.386,-1.2696 10.977,-1.7796 20.133,-4.1936 -2.501,-3.0172 -5.204,-4.7995 -7.718,-4.9062 z"
                   style="color:#000000;fill:#fff806;fill-opacity:1;fill-rule:nonzero;stroke:none;stroke-width:25;marker:none;visibility:visible;display:inline;overflow:visible;enable-background:accumulate"
                   inkscape:connector-curvature="0" />
              </g>
              <path
                 transform="matrix(0.26458334,0,0,0.26458334,-6.3049604e-6,18.562493)"
                 inkscape:connector-curvature="0"
                 id="path21939"
                 d="m 10213.933,-2271.3457 c 8.24,-6.645 15.682,7.0437 15.682,7.0437 0,0 -0.664,-5.0502 -6.113,-9.303 -5.449,-4.2528 -9.569,2.2593 -9.569,2.2593 z"
                 style="color:#000000;fill:#1e1c00;fill-opacity:1;fill-rule:nonzero;stroke:none;stroke-width:12;marker:none;visibility:visible;display:inline;overflow:visible;enable-background:accumulate" />
              <path
                 transform="matrix(0.26458334,0,0,0.26458334,-6.3049604e-6,18.562493)"
                 inkscape:connector-curvature="0"
                 id="path21941"
                 d="m 10225.229,-2227.6214 c 9.702,1.0632 9.968,-10.3663 9.968,-10.3663 l -1.063,9.1702 c 0,0 -4.253,3.7212 -6.38,3.7212 -2.126,0 -2.525,-2.5251 -2.525,-2.5251 z"
                 style="color:#000000;fill:#1e1c00;fill-opacity:1;fill-rule:nonzero;stroke:none;stroke-width:12;marker:none;visibility:visible;display:inline;overflow:visible;enable-background:accumulate" />
            </g>
            <g
               transform="translate(-51.731027,-26.870284)"
               id="g21943">
              <path
                 id="path21945"
                 d="m 2737.0907,-572.77039 c 0.2633,7.44281 2.1691,13.4764 8.0739,13.4764 5.9049,0 10.4783,-6.03359 10.2151,-13.4764 -0.2632,-7.44278 -5.2633,-13.47637 -11.1683,-13.47637 -5.9048,0 -7.3839,6.03359 -7.1207,13.47637 z"
                 style="color:#000000;fill:#ffdb4f;fill-opacity:1;fill-rule:nonzero;stroke:#1e1c00;stroke-width:2.82799292;stroke-opacity:1;marker:none;visibility:visible;display:inline;overflow:visible;enable-background:accumulate"
                 inkscape:connector-curvature="0"
                 sodipodi:nodetypes="sssss" />
              <path
                 style="color:#000000;fill:#ffdb4f;fill-opacity:1;fill-rule:nonzero;stroke:none;stroke-width:12;marker:none;visibility:visible;display:inline;overflow:visible;enable-background:accumulate"
                 d="m 2733.9965,-572.77039 c 0.2632,7.44281 5.2633,13.4764 11.1681,13.4764 5.9049,0 10.4783,-6.03359 10.2151,-13.4764 -0.2632,-7.44278 -5.2633,-13.47637 -11.1683,-13.47637 -5.9048,0 -10.4781,6.03359 -10.2149,13.47637 z"
                 id="path21947"
                 inkscape:connector-curvature="0" />
              <path
                 style="color:#000000;fill:#ffff00;fill-opacity:1;fill-rule:nonzero;stroke:none;stroke-width:12;marker:none;visibility:visible;display:inline;overflow:visible;enable-background:accumulate"
                 d="m 2744.2135,-586.244 c 5.9049,0 10.9041,6.03443 11.1673,13.47722 0.08,2.24967 -0.2878,4.36149 -0.9953,6.22599 0.4062,-1.50289 0.6087,-3.13003 0.5484,-4.83693 -0.2632,-7.44278 -4.8769,-13.51238 -10.7818,-13.51238 -4.1384,0 -8.0039,3.00093 -9.6275,7.33602 1.3514,-5.08076 5.1208,-8.68992 9.6889,-8.68992 z"
                 id="path21949"
                 inkscape:connector-curvature="0"
                 sodipodi:nodetypes="sscsscs" />
              <path
                 style="opacity:0.23008848;color:#000000;fill:#ff6600;fill-opacity:1;fill-rule:nonzero;stroke:none;stroke-width:12;marker:none;visibility:visible;display:inline;overflow:visible;enable-background:accumulate"
                 d="m 2734.0328,-574.62715 c 0,0.0882 0.01,0.176 0.01,0.26458 0.2632,7.44284 5.2627,13.47724 11.1674,13.47724 5.4015,0 9.6824,-5.05102 10.1728,-11.60859 0.1417,7.31501 -4.3845,13.19609 -10.2159,13.19609 -5.9047,0 -10.9041,-6.02615 -11.1673,-13.46895 -0.022,-0.62958 -0.011,-1.25376 0.034,-1.86037 z"
                 id="path21951"
                 inkscape:connector-curvature="0" />
            </g>
            <g
               transform="matrix(0.83253377,0,0,0.83253377,407.95961,-122.83483)"
               id="g21953">
              <path
                 sodipodi:nodetypes="sssss"
                 inkscape:connector-curvature="0"
                 style="color:#000000;fill:#ffdb4f;fill-opacity:1;fill-rule:nonzero;stroke:#1e1c00;stroke-width:2.82799292;stroke-opacity:1;marker:none;visibility:visible;display:inline;overflow:visible;enable-background:accumulate"
                 d="m 2737.0907,-572.77039 c 0.2633,7.44281 2.1691,13.4764 8.0739,13.4764 5.9049,0 10.4783,-6.03359 10.2151,-13.4764 -0.2632,-7.44278 -5.2633,-13.47637 -11.1683,-13.47637 -5.9048,0 -7.3839,6.03359 -7.1207,13.47637 z"
                 id="path21955" />
              <path
                 inkscape:connector-curvature="0"
                 id="path21957"
                 d="m 2733.9965,-572.77039 c 0.2632,7.44281 5.2633,13.4764 11.1681,13.4764 5.9049,0 10.4783,-6.03359 10.2151,-13.4764 -0.2632,-7.44278 -5.2633,-13.47637 -11.1683,-13.47637 -5.9048,0 -10.4781,6.03359 -10.2149,13.47637 z"
                 style="color:#000000;fill:#ffffff;fill-opacity:1;fill-rule:nonzero;stroke:none;stroke-width:12;marker:none;visibility:visible;display:inline;overflow:visible;enable-background:accumulate" />
              <path
                 inkscape:connector-curvature="0"
                 id="path21959"
                 transform="matrix(0.31780493,0,0,0.31780493,-552.15856,137.56443)"
                 d="m 10360.906,-2275 c -12.706,5.9227 -21.398,21.548 -20.75,39.875 0.16,4.5179 0.88,8.8541 2.063,12.9375 12.346,-5.8045 32.25,-15.2813 32.25,-15.2813 L 10360.906,-2275 z"
                 style="opacity:0.33628319;color:#000000;fill:#ff0000;fill-opacity:1;fill-rule:nonzero;stroke:none;stroke-width:12;marker:none;visibility:visible;display:inline;overflow:visible;enable-background:accumulate" />
              <path
                 sodipodi:nodetypes="scccscs"
                 inkscape:connector-curvature="0"
                 id="path21961"
                 transform="matrix(0.31780493,0,0,0.31780493,-552.15856,137.56443)"
                 d="m 10372.312,-2277.5312 c -1.807,0 -3.594,0.1851 -5.312,0.5312 15.42,1.7037 36.229,15.0654 36.229,41.875 0.881,24.8962 -14.31,42.4249 -33.26,41.875 1.742,0.3457 3.537,0.5312 5.343,0.5312 18.581,0 32.954,-18.9868 32.126,-42.4062 -0.829,-23.4193 -16.545,-42.4062 -35.126,-42.4062 z"
                 style="color:#000000;fill:#ffac19;fill-opacity:1;fill-rule:nonzero;stroke:none;stroke-width:12;marker:none;visibility:visible;display:inline;overflow:visible;enable-background:accumulate" />
              <path
                 inkscape:connector-curvature="0"
                 id="path21963"
                 transform="matrix(0.31780493,0,0,0.31780493,-552.15856,137.56443)"
                 d="m 10347.25,-2227.3438 c -0.04,0 -0.08,0.014 -0.125,0.031 l -5.594,2.4687 c 0.246,1.0531 0.539,2.0735 0.844,3.0938 l 6.063,-2.9062 c 0.41,-0.2392 -0.545,-2.6209 -1.188,-2.6876 z"
                 style="color:#000000;fill:#1e1c00;fill-opacity:1;fill-rule:nonzero;stroke:none;stroke-width:12;marker:none;visibility:visible;display:inline;overflow:visible;enable-background:accumulate" />
            </g>
            <path
               inkscape:connector-curvature="0"
               id="path21965"
               d="m 2688.3652,-609.83063 c 4.3251,-1.68783 8.8611,1.82848 8.8611,1.82848 0,0 -2.1449,-2.60207 -5.9425,-2.81305 -3.7976,-0.21098 -2.9186,0.98457 -2.9186,0.98457 z"
               style="color:#000000;fill:#1e1c00;fill-opacity:1;fill-rule:nonzero;stroke:none;stroke-width:15;marker:none;visibility:visible;display:inline;overflow:visible;enable-background:accumulate" />
            <path
               sodipodi:nodetypes="ccscc"
               inkscape:connector-curvature="0"
               id="path21967"
               d="m 2689.9418,-588.95233 c 5.8508,1.16337 8.9482,-3.36543 8.9511,-3.38151 0,0 -1.094,2.78476 -5.1469,3.67988 -4.0529,0.89511 -4.4754,-0.72105 -4.4754,-0.72105 z"
               style="color:#000000;fill:#1e1c00;fill-opacity:1;fill-rule:nonzero;stroke:none;stroke-width:15;marker:none;visibility:visible;display:inline;overflow:visible;enable-background:accumulate" />
            <path
               sodipodi:nodetypes="ccccc"
               inkscape:connector-curvature="0"
               id="path21969"
               d="m 2689.3308,-609.19166 0.863,2.57847 c 0.053,0.12308 0.7927,-0.0806 0.7401,-0.25641 l -0.7911,-2.6021 c -0.1056,-0.26373 -0.8824,0.12179 -0.812,0.28004 z"
               style="color:#000000;fill:#1e1c00;fill-opacity:1;fill-rule:nonzero;stroke:none;stroke-width:15;marker:none;visibility:visible;display:inline;overflow:visible;enable-background:accumulate" />
            <path
               style="color:#000000;fill:#1e1c00;fill-opacity:1;fill-rule:nonzero;stroke:none;stroke-width:15;marker:none;visibility:visible;display:inline;overflow:visible;enable-background:accumulate"
               d="m 2694.6052,-592.73526 0.8631,2.57847 c 0.053,0.12309 0.7927,-0.0806 0.7401,-0.25641 l -0.7911,-2.60209 c -0.1056,-0.26374 -0.8824,0.12178 -0.8121,0.28003 z"
               id="path21971"
               inkscape:connector-curvature="0"
               sodipodi:nodetypes="ccccc" />
            <path
               sodipodi:nodetypes="ccccc"
               inkscape:connector-curvature="0"
               id="path21973"
               d="m 2697.5529,-600.94893 2.4548,-1.16923 c 0.1158,-0.0675 -0.176,-0.77709 -0.3442,-0.70357 l -2.487,1.10062 c -0.249,0.13679 0.2278,0.86114 0.3764,0.77218 z"
               style="color:#000000;fill:#1e1c00;fill-opacity:1;fill-rule:nonzero;stroke:none;stroke-width:15;marker:none;visibility:visible;display:inline;overflow:visible;enable-background:accumulate" />
            <path
               sodipodi:nodetypes="ccccc"
               inkscape:connector-curvature="0"
               id="path21975"
               d="m 2695.6526,-607.95847 -0.5874,1.93151 0.318,0.21524 0.8689,-1.71198 c 0,-0.2735 -0.5249,-0.58394 -0.5995,-0.43477 z"
               style="opacity:0.33628319;color:#000000;fill:#54523d;fill-opacity:1;fill-rule:nonzero;stroke:none;stroke-width:15;marker:none;visibility:visible;display:inline;overflow:visible;enable-background:accumulate" />
            <path
               style="opacity:0.33628319;color:#000000;fill:#54523d;fill-opacity:1;fill-rule:nonzero;stroke:none;stroke-width:15;marker:none;visibility:visible;display:inline;overflow:visible;enable-background:accumulate"
               d="m 2699.0547,-594.82512 -1.6647,-1.14211 0.114,-0.36667 1.7476,0.79488 c 0.1708,0.21365 -0.045,0.78386 -0.1969,0.7139 z"
               id="path21977"
               inkscape:connector-curvature="0"
               sodipodi:nodetypes="ccccc" />
            <path
               sodipodi:nodetypes="ccccc"
               inkscape:connector-curvature="0"
               id="path21979"
               d="m 2688.7371,-591.29008 1.1481,-1.66058 0.3663,0.11531 -0.8012,1.74473 c -0.2143,0.17003 -0.7837,-0.0478 -0.7132,-0.19946 z"
               style="opacity:0.33628319;color:#000000;fill:#54523d;fill-opacity:1;fill-rule:nonzero;stroke:none;stroke-width:15;marker:none;visibility:visible;display:inline;overflow:visible;enable-background:accumulate" />
            <path
               style="opacity:0.33628319;color:#000000;fill:#54523d;fill-opacity:1;fill-rule:nonzero;stroke:none;stroke-width:15;marker:none;visibility:visible;display:inline;overflow:visible;enable-background:accumulate"
               d="m 2685.6172,-603.5613 1.7788,0.95472 -0.073,0.37692 -1.8236,-0.60058 c -0.193,-0.19389 -0.04,-0.78412 0.1183,-0.73106 z"
               id="path21981"
               inkscape:connector-curvature="0"
               sodipodi:nodetypes="ccccc" />
            <path
               sodipodi:nodetypes="sssss"
               inkscape:connector-curvature="0"
               id="path21983"
               d="m 2694.353,-600.30795 c -0.05,0.80313 -0.5997,0.99524 -1.2267,0.86289 -0.627,-0.13235 -1.0239,-0.32803 -0.9735,-1.13117 0.051,-0.80311 0.528,-8.23915 1.156,-8.10657 0.627,0.13235 1.0947,7.57174 1.0442,8.37485 z"
               style="color:#000000;fill:#1e1c00;fill-opacity:1;fill-rule:nonzero;stroke:none;stroke-width:15;marker:none;visibility:visible;display:inline;overflow:visible;enable-background:accumulate" />
            <g
               transform="matrix(0.7313169,0.21428465,-0.21428465,0.7313169,572.31143,-760.80823)"
               id="g21985">
              <path
                 inkscape:connector-curvature="0"
                 style="color:#000000;fill:#e49715;fill-opacity:1;fill-rule:nonzero;stroke:#1e1c00;stroke-width:12;stroke-miterlimit:4;stroke-opacity:1;stroke-dasharray:none;marker:none;visibility:visible;display:inline;overflow:visible;enable-background:accumulate"
                 d="m 10237.688,-2279.5312 c -0.187,-0.01 -0.378,0.021 -0.563,0.031 -4.907,0.2789 -14.589,3.0851 -18.844,5.9688 -4.904,1.4659 -6.733,11.6147 -4.062,23.5624 2.825,12.639 9.629,22.4953 15.187,22.0313 0.569,-0.048 1.097,-0.1857 1.594,-0.4375 5.511,0.081 15.269,-3.1316 16.969,-3.7188 7.021,-2.4243 8.245,-11.7547 5.25,-25.1562 -2.902,-12.9827 -9.736,-22.0352 -15.531,-22.2812 z"
                 transform="matrix(0.26458334,0,0,0.26458334,-6.3049604e-6,18.562493)"
                 id="path21987" />
              <g
                 id="g21989"
                 transform="matrix(0.99607578,-0.08316114,0.09862447,0.99570568,58.56059,215.33531)">
                <path
                   sodipodi:nodetypes="sssssss"
                   inkscape:connector-curvature="0"
                   id="path21991"
                   d="m 2721.1807,-570.15965 c 0.4395,3.59781 -0.126,6.02999 -2.0391,6.51441 -0.5666,0.14354 -4.4191,1.06292 -5.3241,0.3841 -1.5536,-1.16541 -0.7916,-4.16147 -1.0693,-6.43501 -0.2595,-2.12431 -1.8377,-3.94637 -0.8478,-5.14347 0.6865,-0.83037 4.0834,-1.57798 5.6206,-1.53723 1.5651,0.0415 3.2203,2.6194 3.6597,6.2172 z"
                   style="color:#000000;fill:#ffd324;fill-opacity:1;fill-rule:nonzero;stroke:none;stroke-width:25;marker:none;visibility:visible;display:inline;overflow:visible;enable-background:accumulate" />
                <path
                   inkscape:connector-curvature="0"
                   style="color:#000000;fill:#fff806;fill-opacity:1;fill-rule:nonzero;stroke:none;stroke-width:25;marker:none;visibility:visible;display:inline;overflow:visible;enable-background:accumulate"
                   d="m 10243.844,-2276.3125 -22.25,5.7813 -5.75,3.1562 c 0.87,4.0544 4.557,8.8857 5.812,14.5 1.455,6.5072 0.77,14.796 3.219,20.0625 0.434,0.6689 0.936,1.2926 1.531,1.8125 6.791,-1.1718 20.227,-3.8102 25.625,-4.875 0.392,-0.4418 0.778,-0.9103 1.094,-1.4375 l -26.313,5.0625 -0.25,-1.875 27.907,-7.2188 c 0.104,-0.7041 0.175,-1.4489 0.219,-2.2187 -3.579,0.8724 -23.568,5.741 -24.094,6.25 -0.576,0.5552 -0.969,-3.5313 -0.969,-3.5313 0,0 16.425,-4.5301 25.063,-6.6874 -0.08,-1.3662 -0.25,-2.8041 -0.469,-4.3126 l -22.75,5.9063 -2.094,-7.5625 c 0,0 15.663,-4.1089 23.281,-6.0625 -0.584,-2.1707 -1.284,-4.2054 -2.062,-6.0937 l -24.656,6.375 -2,-7.125 c 0,0 17.518,-4.6825 23.093,-6.0626 -1.015,-1.5092 -2.095,-2.7882 -3.187,-3.8437 z"
                   transform="matrix(0.26344712,0.02200305,-0.02609439,0.26354505,-38.902502,-200.8706)"
                   id="path21993" />
                <path
                   inkscape:connector-curvature="0"
                   style="color:#000000;fill:#ffac19;fill-opacity:1;fill-rule:nonzero;stroke:none;stroke-width:25;marker:none;visibility:visible;display:inline;overflow:visible;enable-background:accumulate"
                   d="m 10244.75,-2275.375 -22.438,6.0312 -6.062,3.4376 c 1.289,3.7412 4.298,8.0731 5.406,13.0312 1.775,7.9394 0.321,18.555 5.313,23.0625 6.564,-1.1718 19.563,-3.8102 24.781,-4.875 0.379,-0.4418 0.726,-0.9103 1.031,-1.4375 l -25.437,5.0625 -0.219,-1.875 27.125,-7.25 c 0.149,-0.7127 0.265,-1.4603 0.344,-2.25 -3.145,0.7934 -23.049,5.7981 -23.563,6.3125 -0.556,0.5552 -0.937,-3.5312 -0.937,-3.5312 0,0 16.385,-4.6969 24.625,-6.8126 -0.04,-1.355 -0.154,-2.8063 -0.344,-4.3124 l -22.5,6.0312 -2.031,-7.5625 c 0,0 15.889,-4.3199 23.062,-6.2187 -0.538,-2.1656 -1.173,-4.2226 -1.906,-6.125 l -24.469,6.5624 -1.937,-7.125 c 0,0 18.37,-5.0742 23.062,-6.25 -0.925,-1.4911 -1.901,-2.7974 -2.906,-3.9062 z"
                   transform="matrix(0.26344712,0.02200305,-0.02609439,0.26354505,-38.902502,-200.8706)"
                   id="path21995" />
                <path
                   inkscape:connector-curvature="0"
                   style="opacity:0.67699118;color:#000000;fill:#ffac19;fill-opacity:1;fill-rule:nonzero;stroke:none;stroke-width:25;marker:none;visibility:visible;display:inline;overflow:visible;enable-background:accumulate"
                   d="m 10253.188,-2257.4062 c -10.683,2.8294 -26.889,7.2839 -28.5,8 0,0 -1.095,0.5853 -2.313,1.4374 0.776,7.5384 0.554,15.7843 5.687,18.9688 3.661,2.2702 17.827,-2.3755 19.907,-3.0938 7.021,-2.4243 8.245,-11.7547 5.25,-25.1562 -0.01,-0.052 -0.02,-0.1039 -0.03,-0.1562 z"
                   transform="matrix(0.26344712,0.02200305,-0.02609439,0.26354505,-38.902502,-200.8706)"
                   id="path21997" />
                <path
                   sodipodi:type="arc"
                   style="color:#000000;fill:url(#linearGradient43860);fill-opacity:1;fill-rule:nonzero;stroke:none;stroke-width:25;marker:none;visibility:visible;display:inline;overflow:visible;enable-background:accumulate"
                   id="path21999"
                   sodipodi:cx="10155.483"
                   sodipodi:cy="-2620.7378"
                   sodipodi:rx="10.71313"
                   sodipodi:ry="24.621405"
                   d="m 10166.197,-2620.7378 c 0,13.598 -4.797,24.6214 -10.714,24.6214 -5.916,0 -10.713,-11.0234 -10.713,-24.6214 0,-13.598 4.797,-24.6214 10.713,-24.6214 5.917,0 10.714,11.0234 10.714,24.6214 z"
                   transform="matrix(0.24952725,0,0.0304766,0.24952725,259.191,84.850339)" />
                <path
                   inkscape:connector-curvature="0"
                   style="color:#000000;fill:#fff806;fill-opacity:1;fill-rule:nonzero;stroke:none;stroke-width:25;marker:none;visibility:visible;display:inline;overflow:visible;enable-background:accumulate"
                   d="m 10237.688,-2279.5312 c -0.187,-0.01 -0.378,0.021 -0.563,0.031 -5.802,0.3298 -18.319,4.1905 -20.594,7.5312 -0.383,0.5621 -0.613,1.1459 -0.75,1.75 1.752,1.6182 3.719,2.5938 3.719,2.5938 3.386,-1.2696 16.75,-4.586 25.906,-7 -2.501,-3.0172 -5.204,-4.7995 -7.718,-4.9062 z"
                   transform="matrix(0.26344712,0.02200305,-0.02609439,0.26354505,-38.902502,-200.8706)"
                   id="path22001" />
              </g>
              <path
                 style="color:#000000;fill:#1e1c00;fill-opacity:1;fill-rule:nonzero;stroke:none;stroke-width:12;marker:none;visibility:visible;display:inline;overflow:visible;enable-background:accumulate"
                 d="m 10213.933,-2271.3457 c 8.24,-6.645 15.682,7.0437 15.682,7.0437 0,0 -0.664,-5.0502 -6.113,-9.303 -5.449,-4.2528 -9.569,2.2593 -9.569,2.2593 z"
                 id="path22003"
                 inkscape:connector-curvature="0"
                 transform="matrix(0.26458334,0,0,0.26458334,-6.3049604e-6,18.562493)" />
              <path
                 style="color:#000000;fill:#1e1c00;fill-opacity:1;fill-rule:nonzero;stroke:none;stroke-width:12;marker:none;visibility:visible;display:inline;overflow:visible;enable-background:accumulate"
                 d="m 10225.229,-2227.6214 c 9.702,1.0632 9.968,-10.3663 9.968,-10.3663 l -1.063,9.1702 c 0,0 -4.253,3.7212 -6.38,3.7212 -2.126,0 -2.525,-2.5251 -2.525,-2.5251 z"
                 id="path22005"
                 inkscape:connector-curvature="0"
                 transform="matrix(0.26458334,0,0,0.26458334,-6.3049604e-6,18.562493)" />
            </g>
          </g>
          <g
             id="g22007">
            <g
               transform="translate(-0.59674014,-0.39782676)"
               id="g22009">
              <path
                 sodipodi:nodetypes="cccccc"
                 transform="matrix(0.26458334,0,0,0.26458334,-6.3049604e-6,18.562493)"
                 inkscape:connector-curvature="0"
                 id="path22011"
                 d="m 10071.658,-2494.9995 c 3.007,6.3903 7.518,15.4119 7.518,15.4119 0,0 2.256,1.3156 7.518,-2.2554 5.639,-3.3831 5.639,-4.5108 5.639,-4.5108 l -8.646,-14.6601 z"
                 style="color:#000000;fill:#fff806;fill-opacity:1;fill-rule:nonzero;stroke:#1e1c00;stroke-width:10;stroke-linejoin:round;stroke-opacity:1;marker:none;visibility:visible;display:inline;overflow:visible;enable-background:accumulate" />
              <path
                 sodipodi:nodetypes="cccccc"
                 style="color:#000000;fill:#ffac19;fill-opacity:1;fill-rule:nonzero;stroke:none;stroke-width:10;marker:none;visibility:visible;display:inline;overflow:visible;enable-background:accumulate"
                 d="m 10071.658,-2494.9995 c 3.007,6.3903 8.458,17.4793 8.458,17.4793 0,0 1.88,1.1277 7.518,-2.2554 5.639,-3.3831 5.639,-4.5108 5.639,-4.5108 l -9.586,-16.7275 z"
                 id="path22013"
                 inkscape:connector-curvature="0"
                 transform="matrix(0.26458334,0,0,0.26458334,-6.3049604e-6,18.562493)" />
            </g>
            <g
               transform="translate(-1.7922906,-3.2358765)"
               id="g22015">
              <path
                 sodipodi:nodetypes="cscc"
                 style="color:#000000;fill:#d45500;fill-opacity:1;fill-rule:nonzero;stroke:#1e1c00;stroke-width:2.64583349;stroke-linejoin:round;stroke-miterlimit:4;stroke-opacity:1;stroke-dasharray:none;marker:none;visibility:visible;display:inline;overflow:visible;enable-background:accumulate"
                 d="m 2663.8169,-636.59289 c -1.7396,-4.33879 0.4172,-6.90025 3.2765,-7.80333 4.0931,-1.29278 6.0318,3.57962 6.0318,3.57962 0.8785,1.06317 -6.5261,5.93022 -9.3083,4.22371 z"
                 id="path22017"
                 inkscape:connector-curvature="0" />
              <path
                 inkscape:connector-curvature="0"
                 id="path22019"
                 d="m 2663.8169,-636.59289 c -1.7396,-4.33879 0.4172,-6.90025 3.2765,-7.80333 4.0931,-1.29278 5.8912,3.017 5.8912,3.017 1.1877,2.86762 -6.7272,6.93799 -9.1677,4.78633 z"
                 style="color:#000000;fill:#ffd226;fill-opacity:1;fill-rule:nonzero;stroke:none;stroke-width:25;marker:none;visibility:visible;display:inline;overflow:visible;enable-background:accumulate"
                 sodipodi:nodetypes="cscc" />
              <path
                 style="opacity:0.67699118;color:#000000;fill:#ffff00;fill-opacity:1;fill-rule:nonzero;stroke:none;stroke-width:10;marker:none;visibility:visible;display:inline;overflow:visible;enable-background:accumulate"
                 d="m 2667.8336,-644.57878 c -0.2386,0.0405 -0.4864,0.10163 -0.742,0.18238 -2.8594,0.90309 -5.0153,3.46106 -3.2757,7.79984 0.9108,0.80299 2.593,0.72677 4.2834,0.15804 -0.1569,-0.14889 -0.2988,-0.30785 -0.4194,-0.47409 -0.7872,-1.08436 -2.7519,-5.28828 0.5734,-7.71014 -0.1364,0.0112 -0.277,0.0195 -0.4197,0.044 z"
                 id="path22021"
                 inkscape:connector-curvature="0" />
            </g>
          </g>
        </g>
      </g>
    </g>
  </g>
</svg>
