<?xml version="1.0" encoding="UTF-8" standalone="no"?>
<!-- Created with Inkscape (http://www.inkscape.org/) -->

<svg
   xmlns:dc="http://purl.org/dc/elements/1.1/"
   xmlns:cc="http://creativecommons.org/ns#"
   xmlns:rdf="http://www.w3.org/1999/02/22-rdf-syntax-ns#"
   xmlns:svg="http://www.w3.org/2000/svg"
   xmlns="http://www.w3.org/2000/svg"
   xmlns:xlink="http://www.w3.org/1999/xlink"
   xmlns:sodipodi="http://sodipodi.sourceforge.net/DTD/sodipodi-0.dtd"
   xmlns:inkscape="http://www.inkscape.org/namespaces/inkscape"
   width="256"
   height="256"
   viewBox="0 0 67.73333 67.733335"
   version="1.1"
   id="svg23489"
   inkscape:version="0.48.5 r10040"
   sodipodi:docname="yellow_gift_icon.svg">
  <defs
     id="defs23483">
    <linearGradient
       inkscape:collect="always"
       xlink:href="#linearGradient18937"
       id="linearGradient22037"
       gradientUnits="userSpaceOnUse"
       x1="2727.1089"
       y1="-682.49756"
       x2="2724.8362"
       y2="-686.71796" />
    <linearGradient
       inkscape:collect="always"
       id="linearGradient18937">
      <stop
         style="stop-color:#00f4f4;stop-opacity:1"
         offset="0"
         id="stop18939" />
      <stop
         style="stop-color:#d1ffff;stop-opacity:1"
         offset="1"
         id="stop18941" />
    </linearGradient>
    <radialGradient
       inkscape:collect="always"
       xlink:href="#linearGradient18810"
       id="radialGradient22039"
       gradientUnits="userSpaceOnUse"
       gradientTransform="matrix(0.55641303,1.3516715,-1.4752257,0.60727386,208.4649,-3936.8628)"
       cx="2716.3811"
       cy="-676.96649"
       fx="2716.3811"
       fy="-676.96649"
       r="11.14135" />
    <linearGradient
       inkscape:collect="always"
       id="linearGradient18810">
      <stop
         style="stop-color:#ffffff;stop-opacity:1"
         offset="0"
         id="stop18812" />
      <stop
         style="stop-color:#00ddf4;stop-opacity:1"
         offset="1"
         id="stop18814" />
    </linearGradient>
    <linearGradient
       inkscape:collect="always"
       xlink:href="#linearGradient18879"
       id="linearGradient22041"
       gradientUnits="userSpaceOnUse"
       gradientTransform="matrix(0.26458334,0,0,0.26458334,-0.14065931,18.562493)"
       x1="10302.711"
       y1="-2609.6377"
       x2="10302.711"
       y2="-2573.6953" />
    <linearGradient
       inkscape:collect="always"
       id="linearGradient18879">
      <stop
         style="stop-color:#00d900;stop-opacity:1"
         offset="0"
         id="stop18881" />
      <stop
         style="stop-color:#00aa44;stop-opacity:1"
         offset="1"
         id="stop18883" />
    </linearGradient>
    <linearGradient
       inkscape:collect="always"
       xlink:href="#linearGradient18937"
       id="linearGradient4356"
       gradientUnits="userSpaceOnUse"
       x1="2727.1089"
       y1="-682.49756"
       x2="2724.8362"
       y2="-686.71796" />
    <radialGradient
       inkscape:collect="always"
       xlink:href="#linearGradient18810"
       id="radialGradient4358"
       gradientUnits="userSpaceOnUse"
       gradientTransform="matrix(0.55641303,1.3516715,-1.4752257,0.60727386,208.4649,-3936.8628)"
       cx="2716.3811"
       cy="-676.96649"
       fx="2716.3811"
       fy="-676.96649"
       r="11.14135" />
    <linearGradient
       inkscape:collect="always"
       xlink:href="#linearGradient18879"
       id="linearGradient4360"
       gradientUnits="userSpaceOnUse"
       gradientTransform="matrix(0.26458334,0,0,0.26458334,-0.14065931,18.562493)"
       x1="10302.711"
       y1="-2609.6377"
       x2="10302.711"
       y2="-2573.6953" />
    <linearGradient
       inkscape:collect="always"
       xlink:href="#linearGradient18937-6"
       id="linearGradient22073"
       gradientUnits="userSpaceOnUse"
       x1="2727.1089"
       y1="-682.49756"
       x2="2724.8362"
       y2="-686.71796" />
    <linearGradient
       inkscape:collect="always"
       id="linearGradient18937-6">
      <stop
         style="stop-color:#00f4f4;stop-opacity:1"
         offset="0"
         id="stop18939-8" />
      <stop
         style="stop-color:#d1ffff;stop-opacity:1"
         offset="1"
         id="stop18941-6" />
    </linearGradient>
    <radialGradient
       inkscape:collect="always"
       xlink:href="#linearGradient18810-2"
       id="radialGradient22075"
       gradientUnits="userSpaceOnUse"
       gradientTransform="matrix(0.55641303,1.3516715,-1.4752257,0.60727386,208.4649,-3936.8628)"
       cx="2716.3811"
       cy="-676.96649"
       fx="2716.3811"
       fy="-676.96649"
       r="11.14135" />
    <linearGradient
       inkscape:collect="always"
       id="linearGradient18810-2">
      <stop
         style="stop-color:#ffffff;stop-opacity:1"
         offset="0"
         id="stop18812-4" />
      <stop
         style="stop-color:#00ddf4;stop-opacity:1"
         offset="1"
         id="stop18814-7" />
    </linearGradient>
    <linearGradient
       inkscape:collect="always"
       xlink:href="#linearGradient20683"
       id="linearGradient22077"
       gradientUnits="userSpaceOnUse"
       gradientTransform="matrix(0.26458334,0,0,0.26458334,-0.14065931,18.562493)"
       x1="10302.711"
       y1="-2609.6377"
       x2="10302.711"
       y2="-2569.9363" />
    <linearGradient
       id="linearGradient20683"
       inkscape:collect="always">
      <stop
         id="stop20685"
         offset="0"
         style="stop-color:#ffcc00;stop-opacity:1" />
      <stop
         id="stop20687"
         offset="1"
         style="stop-color:#ff6600;stop-opacity:1" />
    </linearGradient>
    <linearGradient
       inkscape:collect="always"
       xlink:href="#linearGradient18937-6"
       id="linearGradient4461"
       gradientUnits="userSpaceOnUse"
       x1="2727.1089"
       y1="-682.49756"
       x2="2724.8362"
       y2="-686.71796" />
    <radialGradient
       inkscape:collect="always"
       xlink:href="#linearGradient18810-2"
       id="radialGradient4463"
       gradientUnits="userSpaceOnUse"
       gradientTransform="matrix(0.55641303,1.3516715,-1.4752257,0.60727386,208.4649,-3936.8628)"
       cx="2716.3811"
       cy="-676.96649"
       fx="2716.3811"
       fy="-676.96649"
       r="11.14135" />
    <linearGradient
       inkscape:collect="always"
       xlink:href="#linearGradient20683"
       id="linearGradient4465"
       gradientUnits="userSpaceOnUse"
       gradientTransform="matrix(0.26458334,0,0,0.26458334,-0.14065931,18.562493)"
       x1="10302.711"
       y1="-2609.6377"
       x2="10302.711"
       y2="-2569.9363" />
    <linearGradient
       inkscape:collect="always"
       xlink:href="#linearGradient18937-61"
       id="linearGradient22067"
       gradientUnits="userSpaceOnUse"
       x1="2727.1089"
       y1="-682.49756"
       x2="2724.8362"
       y2="-686.71796" />
    <linearGradient
       inkscape:collect="always"
       id="linearGradient18937-61">
      <stop
         style="stop-color:#00f4f4;stop-opacity:1"
         offset="0"
         id="stop18939-4" />
      <stop
         style="stop-color:#d1ffff;stop-opacity:1"
         offset="1"
         id="stop18941-9" />
    </linearGradient>
    <radialGradient
       inkscape:collect="always"
       xlink:href="#linearGradient18810-0"
       id="radialGradient22069"
       gradientUnits="userSpaceOnUse"
       gradientTransform="matrix(0.55641303,1.3516715,-1.4752257,0.60727386,208.4649,-3936.8628)"
       cx="2716.3811"
       cy="-676.96649"
       fx="2716.3811"
       fy="-676.96649"
       r="11.14135" />
    <linearGradient
       inkscape:collect="always"
       id="linearGradient18810-0">
      <stop
         style="stop-color:#ffffff;stop-opacity:1"
         offset="0"
         id="stop18812-7" />
      <stop
         style="stop-color:#00ddf4;stop-opacity:1"
         offset="1"
         id="stop18814-77" />
    </linearGradient>
    <linearGradient
       inkscape:collect="always"
       xlink:href="#linearGradient20677"
       id="linearGradient22071"
       gradientUnits="userSpaceOnUse"
       gradientTransform="matrix(0.26458334,0,0,0.26458334,-0.14065931,18.562493)"
       x1="10302.711"
       y1="-2609.6377"
       x2="10302.711"
       y2="-2573.6953" />
    <linearGradient
       id="linearGradient20677"
       inkscape:collect="always">
      <stop
         id="stop20679"
         offset="0"
         style="stop-color:#007dff;stop-opacity:1" />
      <stop
         id="stop20681"
         offset="1"
         style="stop-color:#0054ff;stop-opacity:1" />
    </linearGradient>
    <linearGradient
       inkscape:collect="always"
       xlink:href="#linearGradient18937-61"
       id="linearGradient4566"
       gradientUnits="userSpaceOnUse"
       x1="2727.1089"
       y1="-682.49756"
       x2="2724.8362"
       y2="-686.71796" />
    <radialGradient
       inkscape:collect="always"
       xlink:href="#linearGradient18810-0"
       id="radialGradient4568"
       gradientUnits="userSpaceOnUse"
       gradientTransform="matrix(0.55641303,1.3516715,-1.4752257,0.60727386,208.4649,-3936.8628)"
       cx="2716.3811"
       cy="-676.96649"
       fx="2716.3811"
       fy="-676.96649"
       r="11.14135" />
    <linearGradient
       inkscape:collect="always"
       xlink:href="#linearGradient20677"
       id="linearGradient4570"
       gradientUnits="userSpaceOnUse"
       gradientTransform="matrix(0.26458334,0,0,0.26458334,-0.14065931,18.562493)"
       x1="10302.711"
       y1="-2609.6377"
       x2="10302.711"
       y2="-2573.6953" />
  </defs>
  <sodipodi:namedview
     id="base"
     pagecolor="#a6abb0"
     bordercolor="#666666"
     borderopacity="1.0"
     inkscape:pageopacity="0.09019608"
     inkscape:pageshadow="2"
     inkscape:zoom="1.8027137"
     inkscape:cx="76.524123"
     inkscape:cy="-20.159882"
     inkscape:document-units="px"
     inkscape:current-layer="layer1"
     showgrid="false"
     inkscape:pagecheckerboard="false"
     showborder="true"
     units="px"
     inkscape:window-width="1920"
     inkscape:window-height="1017"
     inkscape:window-x="-8"
     inkscape:window-y="-8"
     inkscape:window-maximized="1"
     inkscape:showpageshadow="false"
     guidetolerance="28">
    <inkscape:grid
       type="xygrid"
       id="grid24034"
       spacingx="1px"
       spacingy="1px"
       empspacing="8"
       visible="true"
       enabled="true"
       snapvisiblegridlinesonly="true" />
  </sodipodi:namedview>
  <metadata
     id="metadata23486">
    <rdf:RDF>
      <cc:Work
         rdf:about="">
        <dc:format>image/svg+xml</dc:format>
        <dc:type
           rdf:resource="http://purl.org/dc/dcmitype/StillImage" />
        <dc:title />
        <cc:license
           rdf:resource="" />
        <dc:creator>
          <cc:Agent>
            <dc:title>Robert Brooks</dc:title>
          </cc:Agent>
        </dc:creator>
      </cc:Work>
    </rdf:RDF>
  </metadata>
  <g
     inkscape:label="Layer 1"
     inkscape:groupmode="layer"
     id="layer1"
     transform="translate(0,-229.26665)">
    <g
       id="g8014"
       transform="matrix(0.92215147,0,0,0.92215147,-637.16553,441.23511)">
      <path
         id="path7767"
         transform="matrix(0.26458334,0,0,0.26458334,-6.3049604e-6,18.562493)"
         d="m 2776.7188,-915.25 c -0.3839,0.005 -0.7952,0.004 -1.1876,0.0312 -0.083,0.006 -0.166,0.0245 -0.25,0.0312 -0.311,0.025 -0.6212,0.0546 -0.9374,0.0937 -0.1386,0.0172 -0.2668,0.0426 -0.4063,0.0625 -0.4341,0.0616 -0.8689,0.13018 -1.3125,0.21875 -0.1962,0.0393 -0.3957,0.0803 -0.5938,0.125 -0.043,0.01 -0.082,0.0213 -0.125,0.0312 -0.4197,0.0969 -0.8533,0.19111 -1.2812,0.3125 -0.7089,0.2011 -1.4253,0.44837 -2.1562,0.71875 -0.032,0.0118 -0.062,0.0193 -0.094,0.0312 -1.5204,0.56794 -3.0757,1.30368 -4.6875,2.1875 -0.053,0.0289 -0.1035,0.0645 -0.1563,0.0937 -0.7866,0.43578 -1.5988,0.89142 -2.4062,1.40625 -1.3708,0.87406 -2.6557,1.72813 -3.9062,2.5625 -9.2244,6.09042 -15.0892,10.8438 -18.8438,16.15625 -0.01,0.0125 -0.023,0.0187 -0.031,0.0312 -0.3086,0.43787 -0.5934,0.89695 -0.875,1.34375 -0.2176,0.34809 -0.4388,0.71459 -0.6563,1.09375 -0.141,0.24633 -0.2724,0.50006 -0.4063,0.75 -0.1244,0.22957 -0.2508,0.4783 -0.375,0.71875 -0.1131,0.22527 -0.2358,0.45888 -0.3437,0.6875 -0.8078,1.63841 -1.6129,3.46937 -2.375,5.625 -1.141,3.22707 -1.7454,6.56726 -2.1563,10.34375 -0.1455,-0.27486 -0.2862,-0.5353 -0.4374,-0.8125 -0.4579,-0.83912 -0.9105,-1.64527 -1.375,-2.4375 -0.1438,-0.24544 -0.2933,-0.47771 -0.4376,-0.71875 -0.012,-0.0199 -0.019,-0.0426 -0.031,-0.0625 -0.3177,-0.52929 -0.6174,-1.02299 -0.9375,-1.53125 -0.095,-0.15038 -0.1866,-0.28893 -0.2813,-0.4375 -0.374,-0.58569 -0.7483,-1.16087 -1.125,-1.71875 -0.034,-0.051 -0.059,-0.10544 -0.094,-0.15625 -0.4352,-0.64138 -0.8747,-1.30092 -1.3125,-1.90625 -2.3811,-3.29655 -4.8035,-6.02544 -7.1875,-8.34375 -0.4757,-0.463 -0.9335,-0.916 -1.4063,-1.34375 -10.4008,-9.41056 -19.9533,-10.43534 -23.1874,-9.65625 -0.3138,0.0756 -0.5603,0.14644 -0.75,0.25 -1.9018,1.03778 -1.582,3.32156 -10,9.1875 -2.4815,1.72921 -7.0162,2.48629 -11.9063,4.28125 -1.0864,0.39843 -2.1793,0.85211 -3.2813,1.375 -1.1022,0.52349 -2.2011,1.12026 -3.2812,1.8125 -0.5399,0.34572 -1.0664,0.69762 -1.5938,1.09375 -0.5394,0.40411 -1.041,0.81873 -1.5624,1.28125 -0.5102,0.45205 -1.0119,0.92402 -1.5,1.4375 -0.01,0.005 0.01,0.0258 0,0.0312 -1.1851,0.76652 -2.2821,1.57849 -3.25,2.46875 -0.098,0.0898 -0.1859,0.19034 -0.2813,0.28125 -0.3897,0.3717 -0.7735,0.73476 -1.125,1.125 -0.1254,0.13884 -0.2232,0.29642 -0.3437,0.4375 -0.3156,0.36998 -0.6248,0.74032 -0.9063,1.125 -0.1262,0.17211 -0.2245,0.35634 -0.3437,0.53125 -0.1649,0.24215 -0.3485,0.47145 -0.5,0.71875 -0.083,0.13464 -0.1714,0.27014 -0.25,0.40625 -0.035,0.0599 -0.06,0.12733 -0.094,0.1875 -0.1525,0.27131 -0.3008,0.5357 -0.4375,0.8125 -0.041,0.0833 -0.085,0.16623 -0.125,0.25 -0.1245,0.26273 -0.2335,0.54522 -0.3437,0.8125 -0.034,0.0818 -0.062,0.16783 -0.094,0.25 -0.028,0.0723 -0.066,0.14619 -0.094,0.21875 -0.074,0.19647 -0.1522,0.39508 -0.2187,0.59375 -0.2226,0.66623 -0.3963,1.34257 -0.5313,2.03125 -0.2038,1.03993 -0.3234,2.10191 -0.3437,3.1875 -0.027,1.44745 0.1109,2.9339 0.4375,4.40625 0.7348,3.3128 2.404,6.62129 5.1875,9.53125 0.7332,0.76646 1.4934,1.47527 2.25,2.1875 0.3921,0.36907 0.7897,0.7078 1.1875,1.0625 0.4487,0.40026 0.8882,0.80492 1.3438,1.1875 0.4223,0.35428 0.8534,0.69205 1.2812,1.03125 0.3236,0.25709 0.6422,0.53253 0.9688,0.78125 0.5242,0.3984 1.0625,0.77925 1.5937,1.15625 0.3608,0.25681 0.73,0.50273 1.0937,0.75 0.2932,0.19868 0.5801,0.40124 0.875,0.59375 1.1724,0.76821 2.3361,1.51233 3.5313,2.1875 -3.3743,1.8596 -5.6901,3.54551 -6.1563,4.65625 -1.7061,4.06556 5.5,1.09375 5.5,1.09375 1.9332,-0.0301 3.7782,-0.0119 5.5938,0.0312 -2.2784,1.37357 -4.467,2.70349 -6.4375,3.9375 -1.5339,0.96042 -2.9758,1.86799 -4.2813,2.71875 -1.2086,0.78824 -2.3307,1.57412 -3.3124,2.25 -0.056,0.0385 -0.1325,0.0869 -0.1876,0.125 -0.9885,0.68391 -1.8779,1.32975 -2.5937,1.875 -0.099,0.0754 -0.188,0.14622 -0.2813,0.21875 -0.049,0.038 -0.078,0.0878 -0.125,0.125 -0.3639,0.22704 -2.0624,1.25 -2.0624,1.25 0.017,0.20377 0.042,0.44077 0.062,0.65625 -0.015,0.0378 -0.058,0.0929 -0.062,0.125 -0.048,0.40456 -0.065,0.87995 -0.063,1.40625 0.024,5.78882 2.9252,18.33852 4.4688,24.625 0.5618,2.28657 0.9375,3.75 0.9375,3.75 l 0.031,0 11.5937,2.46875 c 0.1347,0.90434 0.2988,1.91749 0.4375,2.84375 1.2855,8.59812 2.6759,17.78201 4.1562,27.125 1.0058,6.35117 2.0154,12.62335 3,18.5 2.7111,16.17265 5.1632,29.29048 6.4376,32.46875 0.1157,0.28878 0.217,0.50565 0.3124,0.625 0.068,0.0851 0.1993,0.18135 0.3438,0.28125 0.023,0.0157 0.038,0.0151 0.062,0.0312 0.041,0.0273 0.078,0.0342 0.125,0.0625 0.2158,0.13273 0.4819,0.28301 0.8125,0.4375 0.048,0.0225 0.075,0.0395 0.125,0.0625 0.1733,0.0791 0.3305,0.13453 0.5312,0.21875 0.9204,0.38919 2.1982,0.85602 3.6563,1.34375 0.7073,0.23587 1.495,0.46353 2.3125,0.71875 0.022,0.007 0.041,0.0245 0.062,0.0312 0.5703,0.17814 1.1308,0.34474 1.75,0.53125 0.088,0.0265 0.1922,0.0671 0.2813,0.0937 0.3445,0.10297 0.7354,0.20724 1.0937,0.3125 22.2077,6.54336 70.4107,17.37521 76.875,16.625 0.1177,-0.013 0.2238,-0.0102 0.3125,-0.0312 0.1095,-0.0268 0.2162,-0.0547 0.2812,-0.0937 0.1788,-0.10734 2.0125,-1.17029 2.4688,-1.4375 0,-0.009 0,-0.0224 0,-0.0312 0.3691,-0.21561 1.5921,-0.91304 2.0625,-1.1875 0.4038,-0.23565 1.0111,-0.58976 1.5,-0.875 1.3053,-0.7615 2.1691,-1.27312 4,-2.34375 0.023,-0.018 0.071,-0.0444 0.094,-0.0625 1.0586,-0.61872 1.8451,-1.099 3.0626,-1.8125 1.404,-0.82411 3.1738,-1.83955 4.7187,-2.75 0.1526,-0.0899 0.3462,-0.19057 0.5,-0.28125 2.1034,-1.23901 4.452,-2.63669 6.75,-4 1.5038,-0.89211 2.9429,-1.75846 4.5,-2.6875 3.0493,-1.82066 6.1997,-3.70881 9.3125,-5.59375 0.951,-0.5756 1.8659,-1.1427 2.8125,-1.71875 0.157,-0.0955 0.312,-0.18575 0.4687,-0.28125 1.0369,-0.63178 2.0386,-1.24692 3.0626,-1.875 1.0599,-0.65023 2.0864,-1.26417 3.125,-1.90625 0.012,-0.008 0.019,-0.0235 0.031,-0.0312 0.3712,-0.22951 0.7258,-0.42809 1.0938,-0.65625 0.782,-0.48476 1.5163,-0.95993 2.2812,-1.4375 0.867,-0.54132 1.6597,-1.03313 2.5,-1.5625 0.074,-0.0466 0.1451,-0.0785 0.2188,-0.125 1.1665,-0.73538 2.2394,-1.44949 3.3437,-2.15625 0.6443,-0.41238 1.2865,-0.81796 1.9063,-1.21875 3.1135,-2.01351 5.885,-3.85128 8.1874,-5.46875 0.2823,-0.19763 0.5138,-0.37223 0.7813,-0.5625 0.3769,-0.26897 0.7789,-0.55895 1.125,-0.8125 0.1425,-0.10404 0.2691,-0.17993 0.4063,-0.28125 0.2996,-0.2219 0.5079,-0.38515 0.7812,-0.59375 0.1488,-0.11338 0.3281,-0.26573 0.4688,-0.375 0.3978,-0.30908 0.7951,-0.60043 1.125,-0.875 0.072,-0.0601 0.1498,-0.12909 0.2187,-0.1875 0.2479,-0.21027 0.4536,-0.40654 0.6563,-0.59375 0.1381,-0.12753 0.2581,-0.22709 0.375,-0.34375 0.038,-0.0373 0.058,-0.0575 0.094,-0.0937 0.025,-0.0254 0.039,-0.0377 0.062,-0.0625 0.1011,-0.10527 0.1686,-0.2173 0.25,-0.3125 0.081,-0.0942 0.1896,-0.19755 0.25,-0.28125 0.063,-0.0893 0.1482,-0.17305 0.1875,-0.25 0.01,-0.0104 0,-0.021 0,-0.0312 0.04,-0.0822 0.051,-0.15154 0.062,-0.21875 0.5109,-3.06559 -6.6396,-49.29261 -11.5625,-80.40625 0.8995,-0.60673 1.8522,-1.25788 2.6563,-1.8125 1.4934,-1.02343 2.8241,-1.9332 3.9374,-2.75 0.5467,-0.40304 1.0564,-0.81029 1.5,-1.15625 0.4495,-0.34975 0.8534,-0.65106 1.1876,-0.9375 0.075,-0.064 0.1334,-0.16143 0.1874,-0.28125 0.1622,-0.35951 0.2527,-0.95552 0.25,-1.75 0,-0.52955 -0.062,-1.1582 -0.125,-1.84375 -0.1896,-2.05706 -0.6155,-4.73173 -1.1874,-7.65625 -0.3814,-1.94926 -0.8247,-4.02599 -1.2813,-6.0625 -1.8262,-8.14784 -3.9375,-16.03125 -3.9375,-16.03125 0,0 -0.03,1.2e-4 -0.031,0 0,0 -1.2003,-0.17565 -1.2813,-0.1875 -0.095,-0.0136 -0.1841,-0.0217 -0.25,-0.0312 -0.028,-0.004 -0.3399,-0.0574 -0.375,-0.0625 -1.1627,-0.1696 -4.0293,-0.58447 -9.9063,-1.40625 -0.1564,-0.0219 -0.3723,-0.0403 -0.5312,-0.0625 -0.9859,-0.13748 -2.3616,-0.32008 -3.4375,-0.46875 -0.5187,-0.0716 -1.2437,-0.17613 -1.7813,-0.25 -1.2721,-0.17473 -2.3496,-0.31423 -3.7187,-0.5 -1.4096,-0.19168 -2.5303,-0.3611 -4.0313,-0.5625 -0.1025,-0.13396 -0.2045,-0.27304 -0.3124,-0.40625 -0.018,-0.0224 -0.044,-0.0402 -0.063,-0.0625 -0.1874,-0.22905 -0.3893,-0.46067 -0.5937,-0.6875 -0.1416,-0.15736 -0.2874,-0.31246 -0.4375,-0.46875 -0.198,-0.20604 -0.4118,-0.42084 -0.625,-0.625 -0.075,-0.0715 -0.142,-0.14744 -0.2188,-0.21875 -0.058,-0.054 -0.1283,-0.10234 -0.1874,-0.15625 -0.2418,-0.21962 -0.4892,-0.43884 -0.75,-0.65625 -0.028,-0.0236 -0.065,-0.0389 -0.094,-0.0625 -0.2926,-0.24155 -0.5889,-0.51121 -0.9062,-0.75 -0.3491,-0.26267 -0.7248,-0.52025 -1.0938,-0.75 -0.01,-0.005 -0.023,0.005 -0.031,0 -0.012,-0.007 -0.02,-0.024 -0.031,-0.0312 4.8713,-0.96741 9.7813,-1.90625 9.7813,-1.90625 0,0 -7.5471,-4.627 -21.2813,-4.46875 -0.6051,0.007 -1.2227,0.0418 -1.8437,0.0937 -0.2791,0.0231 -0.562,0.0621 -0.8438,0.0937 -0.073,0.008 -0.1451,0.0223 -0.2188,0.0312 -0.4999,0.0599 -0.9928,0.13346 -1.5,0.21875 -0.1364,0.023 -0.2693,0.069 -0.4062,0.0937 0,-0.009 0,-0.0225 0,-0.0312 0.051,-0.11443 0.1062,-0.22896 0.1562,-0.34375 1.0501,-2.40597 1.8752,-4.89548 2.4688,-7.40625 0.1074,-0.45446 0.1884,-0.91905 0.2812,-1.375 0.086,-0.42539 0.1762,-0.85506 0.25,-1.28125 0.013,-0.0735 0.019,-0.14526 0.031,-0.21875 0.1347,-0.79975 0.2526,-1.60641 0.3437,-2.40625 0.035,-0.31082 0.034,-0.627 0.063,-0.9375 0.036,-0.38433 0.099,-0.77274 0.125,-1.15625 0.013,-0.1884 0.021,-0.37435 0.031,-0.5625 0.015,-0.27178 0.021,-0.54137 0.031,-0.8125 0,-0.11437 0,-0.22951 0,-0.34375 0,-0.11479 0.029,-0.2291 0.031,-0.34375 0.01,-0.30165 0.031,-0.60571 0.031,-0.90625 10e-5,-0.074 2e-4,-0.14483 0,-0.21875 0,-0.55539 -0.04,-1.10566 -0.063,-1.65625 -8e-4,-0.0209 9e-4,-0.0416 0,-0.0625 -0.01,-0.12445 0.01,-0.25084 0,-0.375 -0.019,-0.37828 -0.065,-0.74959 -0.094,-1.125 0,-0.0417 0,-0.0833 0,-0.125 -0.048,-0.59722 -0.1159,-1.19261 -0.1875,-1.78125 -0.064,-0.52445 -0.136,-1.04595 -0.2188,-1.5625 -0.027,-0.16645 -0.065,-0.33444 -0.094,-0.5 -0.025,-0.14596 -0.036,-0.29226 -0.062,-0.4375 -0.043,-0.23286 -0.078,-0.45656 -0.125,-0.6875 -0.052,-0.25909 -0.1303,-0.52471 -0.1875,-0.78125 -0.1798,-0.80472 -0.3669,-1.59828 -0.5937,-2.375 -0.2332,-0.79836 -0.4995,-1.57957 -0.7813,-2.34375 -0.2605,-0.70649 -0.5425,-1.38903 -0.8437,-2.0625 0,-0.009 0,-0.0225 0,-0.0312 -0.01,-0.0215 -0.022,-0.041 -0.031,-0.0625 -0.1962,-0.43489 -0.412,-0.86152 -0.625,-1.28125 0,-0.008 0,-0.0231 0,-0.0312 -0.2578,-0.50697 -0.5305,-1.01683 -0.8125,-1.5 -0.1895,-0.32487 -0.3934,-0.62404 -0.5938,-0.9375 -0.033,-0.0515 -0.061,-0.10511 -0.094,-0.15625 -0.1694,-0.26111 -0.3231,-0.52856 -0.5,-0.78125 -0.047,-0.0674 -0.1085,-0.12069 -0.1563,-0.1875 -0.3785,-0.53002 -0.7759,-1.04155 -1.1874,-1.53125 -0.2699,-0.32106 -0.5287,-0.63483 -0.8126,-0.9375 -0.2067,-0.22097 -0.4108,-0.44543 -0.625,-0.65625 -0.121,-0.11902 -0.2516,-0.22805 -0.375,-0.34375 -0.1371,-0.12881 -0.2662,-0.25037 -0.4062,-0.375 -0.197,-0.17532 -0.4223,-0.33316 -0.625,-0.5 -0.01,-0.004 0.01,-0.027 0,-0.0312 -0.063,-0.0519 -0.1237,-0.10522 -0.1875,-0.15625 -0.3018,-0.24191 -0.5924,-0.46483 -0.9063,-0.6875 -0.2574,-0.18251 -0.5157,-0.36212 -0.7812,-0.53125 -0.5185,-0.3311 -1.045,-0.62849 -1.5938,-0.90625 -0.071,-0.0361 -0.1471,-0.0586 -0.2187,-0.0937 -0.093,-0.0454 -0.1877,-0.0811 -0.2813,-0.125 -0.2206,-0.1036 -0.431,-0.21771 -0.6562,-0.3125 -0.03,-0.0125 -0.064,-0.0189 -0.094,-0.0312 -0.2962,-0.12274 -0.6021,-0.23659 -0.9062,-0.34375 -0.134,-0.0473 -0.2707,-0.0808 -0.4062,-0.125 -0.1962,-0.0639 -0.3944,-0.13014 -0.5938,-0.1875 -0.2481,-0.0713 -0.497,-0.15776 -0.75,-0.21875 -0.061,-0.0148 -0.126,-0.0171 -0.1875,-0.0312 -0.032,-0.007 -0.062,-0.0242 -0.094,-0.0312 -0.3487,-0.0782 -0.7049,-0.12928 -1.0626,-0.1875 -0.2075,-0.0339 -0.4144,-0.0667 -0.625,-0.0937 -0.1493,-0.019 -0.2866,-0.047 -0.4374,-0.0625 -0.3665,-0.0377 -0.7498,-0.077 -1.125,-0.0937 -0.271,-0.0121 -0.537,8.6e-4 -0.8126,0 -0.1059,-3.3e-4 -0.2058,-10e-4 -0.3124,0 z"
         style="color:#000000;fill:#ffffff;fill-opacity:1;fill-rule:nonzero;stroke:none;stroke-width:30;stroke-linecap:round;stroke-linejoin:round;stroke-miterlimit:4;stroke-opacity:1;stroke-dasharray:none;stroke-dashoffset:0;marker:none;visibility:visible;display:inline;overflow:visible;enable-background:accumulate"
         inkscape:connector-curvature="0"
         gds_outline="1" />
      <g
         transform="matrix(0.5117586,0,0,0.5117586,366.66258,-79.913665)"
         id="g7707">
        <path
           style="color:#000000;fill:#000000;fill-opacity:1;fill-rule:nonzero;stroke:#241000;stroke-width:7.75512123;stroke-linecap:round;stroke-linejoin:round;stroke-miterlimit:4;stroke-opacity:1;stroke-dasharray:none;stroke-dashoffset:0;marker:none;visibility:visible;display:inline;overflow:visible;enable-background:accumulate"
           d="m 663.18056,-229.35578 c 0.78982,6.71349 7.92446,54.90721 9.5041,56.88176 1.57966,1.97456 43.83512,11.84733 45.80969,10.6626 1.97454,-1.18473 38.30634,-22.11502 38.70127,-24.48448 0.39491,-2.36947 -8.29313,-56.07736 -8.29313,-56.07736 0,0 -48.57406,-6.71349 -53.31299,-4.34402 -4.73893,2.36946 -32.40894,17.3615 -32.40894,17.3615 z"
           id="path39009"
           inkscape:connector-curvature="0"
           sodipodi:nodetypes="cssscsc" />
        <path
           inkscape:connector-curvature="0"
           id="path39011"
           d="m 663.18056,-229.35578 c 0.78982,6.71349 7.92446,54.90721 9.5041,56.88176 1.57966,1.97456 43.83512,11.84733 45.80969,10.6626 1.97454,-1.18473 38.30634,-22.11502 38.70127,-24.48448 0.39491,-2.36947 -8.29313,-56.07736 -8.29313,-56.07736 0,0 -48.57406,-6.71349 -53.31299,-4.34402 -4.73893,2.36946 -32.40894,17.3615 -32.40894,17.3615 z"
           style="color:#000000;fill:#ffcc00;fill-opacity:1;fill-rule:nonzero;stroke:none;stroke-width:50;marker:none;visibility:visible;display:inline;overflow:visible;enable-background:accumulate"
           sodipodi:nodetypes="cssscsc" />
        <path
           style="opacity:0.34070794;color:#000000;fill:#ff6600;fill-opacity:1;fill-rule:nonzero;stroke:none;stroke-width:50;marker:none;visibility:visible;display:inline;overflow:visible;enable-background:accumulate"
           d="m 720.69828,-245.7852 c -5.14437,4.52592 -12.48968,16.86969 -12.48968,16.86969 1.6039,8.661 5.39712,36.00242 11.37468,66.46642 5.56796,-3.25427 37.23973,-21.62256 37.61037,-23.84639 0.39492,-2.36946 -8.28891,-56.07633 -8.28891,-56.07633 0,0 -14.34712,-1.98325 -28.20646,-3.41339 z"
           id="path39013"
           inkscape:connector-curvature="0"
           sodipodi:nodetypes="cccscc" />
        <path
           inkscape:connector-curvature="0"
           style="opacity:0.49115044;color:#000000;fill:#ffff00;fill-opacity:1;fill-rule:nonzero;stroke:none;stroke-width:20;marker:none;visibility:visible;display:inline;overflow:visible;enable-background:accumulate"
           d="M 2520.4062,-944.53125 C 2513.0075,-940.52933 2506.5,-937 2506.5,-937 c 2.9851,25.37382 29.9672,207.50588 35.9375,214.96875 2.4157,3.01959 30.0782,10.92074 62.5625,18.96875 -21.9832,-10.69313 -41.8344,-21.71102 -43.75,-26.5 -4.2024,-10.50609 -23.962,-133.07329 -40.8438,-214.96875 z m 183.3126,192.625 c -0.9829,-6.87989 7.7297,54.23726 9.9374,70.53125 0.9315,-0.0382 1.5689,-0.14132 1.9063,-0.34375 0.3495,-0.20969 3.952,-2.29037 4.8437,-2.8125 -6.3761,-24.7902 -15.973,-62.37373 -16.6874,-67.375 z"
           transform="matrix(0.26458334,0,0,0.26458334,-6.3049604e-6,18.562493)"
           id="path7684" />
        <path
           inkscape:connector-curvature="0"
           style="color:#000000;fill:#ff6600;fill-opacity:1;fill-rule:nonzero;stroke:none;stroke-width:25;marker:none;visibility:visible;display:inline;overflow:visible;enable-background:accumulate"
           d="m 2648.1875,-1004.5312 c -9.5559,-0.049 -16.3889,0.5069 -19.1875,1.9062 -17.9109,8.95544 -122.5,65.625 -122.5,65.625 1.1727,9.9684 6.0895,44.1735 11.9375,82.4375 l 176.75,37.1875 129.3125,-74.40625 c 0,0 20.3143,103.73741 19.5625,109 -0.6038,4.22652 -77.5382,64.99018 -108.875,89.59375 38.2489,-22.36633 125.4473,-73.84023 126.6563,-81.09375 1.4925,-8.95548 -31.3438,-211.9375 -31.3438,-211.9375 0,0 -130.7106,-18.04685 -182.3125,-18.31245 z"
           transform="matrix(0.26458334,0,0,0.26458334,-6.3049604e-6,18.562493)"
           id="path6410" />
        <path
           sodipodi:nodetypes="cccscsc"
           inkscape:connector-curvature="0"
           id="path39020"
           d="m 656.49332,-231.71066 c 0.39491,4.73893 2.76437,15.79644 2.76437,15.79644 l 54.09989,11.45241 c 0,0 37.12455,-22.11501 42.65329,-26.85395 1.23627,-1.05966 -3.15927,-17.37608 -3.15927,-17.37608 0,0 -51.77523,-7.60097 -56.47227,-5.52875 -13.42697,5.92366 -39.88601,22.50993 -39.88601,22.50993 z"
           style="color:#000000;fill:#ff6600;fill-opacity:1;fill-rule:nonzero;stroke:#241000;stroke-width:7.75512123;stroke-linejoin:round;stroke-miterlimit:4;stroke-opacity:1;stroke-dasharray:none;marker:none;visibility:visible;display:inline;overflow:visible;enable-background:accumulate" />
        <path
           style="color:#000000;fill:#ffcc00;fill-opacity:1;fill-rule:nonzero;stroke:none;stroke-width:50;marker:none;visibility:visible;display:inline;overflow:visible;enable-background:accumulate"
           d="m 656.49332,-231.31283 c -0.40074,3.34653 2.76437,15.39861 2.76437,15.39861 l 54.49772,11.45241 c 0,0 36.72672,-22.11501 42.25546,-26.85395 1.23627,-1.05966 -3.15927,-17.37608 -3.15927,-17.37608 0,0 -51.77523,-7.60097 -56.47227,-5.52875 -13.42697,5.92366 -39.6871,21.31645 -39.88601,22.90776 z"
           id="path39018"
           inkscape:connector-curvature="0"
           sodipodi:nodetypes="cccscsc" />
        <path
           style="color:#000000;fill:#ffff00;fill-opacity:1;fill-rule:nonzero;stroke:none;stroke-width:25;marker:none;visibility:visible;display:inline;overflow:visible;enable-background:accumulate"
           d="m 2646.25,-1032.3438 c -7.0498,-0.036 -12.0309,0.3648 -14.25,1.3438 -50.7476,22.3886 -149.9982,80.57935 -150.75,86.59375 -0.03,0.25015 -0.043,0.53721 -0.062,0.8125 l 201.0246,36.53968 c 0,0 100.521,-51.66036 166.5067,-90.16468 -1.867,-7.44905 -3.2813,-12.87505 -3.2813,-12.87505 0,0 -149.8391,-21.9981 -199.1875,-22.25 z"
           transform="matrix(0.26458334,0,0,0.26458334,-6.3049604e-6,18.562493)"
           id="path6403"
           inkscape:connector-curvature="0"
           sodipodi:nodetypes="cscccccc" />
        <path
           style="color:#000000;fill:#ffa900;fill-opacity:1;stroke:none;stroke-width:25;marker:none;visibility:visible;display:inline;overflow:visible;enable-background:accumulate"
           d="m 2842.375,-1010.5312 -160.1629,103.47713 c 11.277,24.05756 15.4441,64.11657 15.4441,64.11657 0,0 138.8228,-83.5578 159.7188,-101.46875 4.6725,-4.00501 -11.9375,-65.68755 -11.9375,-65.68755 0,0 -2.2975,-0.3261 -3.0625,-0.4374 z"
           transform="matrix(0.26458334,0,0,0.26458334,-6.3049604e-6,18.562493)"
           id="path6398"
           inkscape:connector-curvature="0"
           sodipodi:nodetypes="cccscc" />
        <path
           inkscape:connector-curvature="0"
           style="opacity:0.49115044;color:#000000;fill:#ff6600;fill-opacity:1;fill-rule:nonzero;stroke:none;stroke-width:20;marker:none;visibility:visible;display:inline;overflow:visible;enable-background:accumulate"
           d="m 2732.4375,-1025 c -9.1117,0.4984 -18.6847,1.135 -28.7187,2 -61.6659,5.316 -76.5547,31.8743 -88.25,32.9375 -11.6953,1.06321 -58.4688,14.90625 -58.4688,14.90625 -41.4649,15.94806 -35.0674,16.98662 -27.625,37.1875 0.4101,1.11325 1.0719,2.29588 1.9688,3.5 l 99.75,18.125 c 6.0516,-15.61748 20.5475,-30.93309 33.2812,-39.6875 17.0113,-11.69524 69.1214,-6.37711 74.4375,-3.1875 5.316,3.18961 14.875,8.5 14.875,8.5 0,0 24.4673,-27.65133 26.5937,-35.09375 2.1265,-7.44243 21.2757,-8.49433 29.7813,-17 3.6614,-3.6614 8.6603,-7.3251 12.2813,-10.5625 -21.8467,-3.0525 -56.111,-7.676 -89.9063,-11.625 z"
           transform="matrix(0.26458334,0,0,0.26458334,-6.3049604e-6,18.562493)"
           id="path7702" />
        <path
           inkscape:connector-curvature="0"
           style="color:#000000;fill:#ff6600;fill-opacity:1;fill-rule:nonzero;stroke:none;stroke-width:25;marker:none;visibility:visible;display:inline;overflow:visible;enable-background:accumulate"
           d="m 2842.375,-1010.5312 -22.2188,14.37495 c 5.1607,18.36254 13.726,50.16943 12.2188,53.9375 -2.0573,5.14322 -118.635,86.25575 -134.9375,97.34375 0.1452,1.21413 0.2187,1.9375 0.2187,1.9375 0,0 138.8228,-83.5578 159.7188,-101.46875 4.6725,-4.00501 -11.9375,-65.68755 -11.9375,-65.68755 0,0 -2.2975,-0.3261 -3.0625,-0.4374 z"
           transform="matrix(0.26458334,0,0,0.26458334,-6.3049604e-6,18.562493)"
           id="path6419" />
        <path
           inkscape:connector-curvature="0"
           style="opacity:0.49115044;color:#000000;fill:#ffff00;fill-opacity:1;fill-rule:nonzero;stroke:none;stroke-width:20;marker:none;visibility:visible;display:inline;overflow:visible;enable-background:accumulate"
           d="m 2505.9688,-959.21875 c 0,0 -2.9401,0.52335 -7.375,1.5 -10.5424,6.84658 -17.1523,11.78062 -17.3438,13.3125 -1.5146,12.6483 10.4375,58.1875 10.4375,58.1875 l 87.3437,18.34375 c -30.6215,-10.3207 -63.5,-21.1875 -63.5,-21.1875 0,0 -5.3095,-30.81771 -9.5624,-70.15625 z"
           transform="matrix(0.26458334,0,0,0.26458334,-6.3049604e-6,18.562493)"
           id="path7679" />
        <g
           style="fill-rule:evenodd;stroke-linecap:round;stroke-linejoin:round;stroke-miterlimit:1.5"
           id="g25879"
           transform="matrix(0.1599432,-0.04554113,0.04554113,0.1599432,2711.011,-913.95701)">
          <g
             transform="translate(-5213.23,-615.32465)"
             id="g25750">
            <path
               sodipodi:nodetypes="cscssc"
               inkscape:connector-curvature="0"
               id="path25752"
               d="m -7737.631,1151.1913 c 86.0535,0.7115 109.3296,8.9807 126.8716,8.7252 14.4778,-0.2109 56.178,4.4113 56.178,4.4113 0,0 -18.6544,-20.2418 -59.8547,-31.4614 -45.5318,-12.3992 -133.1639,0.4646 -141.7268,11.1681 -8.5628,10.7036 18.5319,7.1568 18.5319,7.1568 z"
               style="color:#000000;fill:#9b4500;fill-opacity:1;fill-rule:nonzero;stroke:#2e0000;stroke-width:25;stroke-opacity:1;marker:none;visibility:visible;display:inline;overflow:visible;enable-background:accumulate" />
            <path
               style="color:#000000;fill:#d20202;fill-opacity:1;fill-rule:nonzero;stroke:none;stroke-width:25;marker:none;visibility:visible;display:inline;overflow:visible;enable-background:accumulate"
               d="m -7740.6584,1151.9482 c 64.6016,17.31 102.9033,43.54 129.899,44.2974 14.4736,0.4061 56.178,-31.9178 56.178,-31.9178 0,0 -18.6544,-20.2418 -59.8547,-31.4614 -45.5318,-12.3992 -133.1639,0.4646 -141.7268,11.1681 -8.5628,10.7036 15.5045,7.9137 15.5045,7.9137 z"
               id="path25754"
               inkscape:connector-curvature="0"
               sodipodi:nodetypes="cscssc" />
            <path
               id="path25756"
               transform="translate(6.054855,9.0822824)"
               d="m -7648.5312,1120.5625 c -14.2844,0.091 -29.3584,2.3104 -43.4063,5.5 41.5043,-8.545 83.4899,12.9229 103.75,26.7187 14.1929,1.1856 27.5625,2.4688 27.5625,2.4688 0,0 -18.6747,-20.2492 -59.875,-31.4688 -8.5372,-2.3248 -18.0866,-3.2818 -28.0312,-3.2187 z m -43.4063,5.5 c -4.0037,0.909 -7.9275,1.858 -11.7187,2.9063 4.6524,1.6257 11.7187,-2.9063 11.7187,-2.9063 z"
               style="color:#000000;fill:#ffff00;fill-opacity:1;fill-rule:nonzero;stroke:none;stroke-width:25;marker:none;visibility:visible;display:inline;overflow:visible;enable-background:accumulate"
               inkscape:connector-curvature="0" />
          </g>
          <g
             id="g25758"
             transform="matrix(0.91008205,0,0,0.91008205,-5373.9942,-314.97926)">
            <path
               sodipodi:nodetypes="ccsccsscsc"
               inkscape:connector-curvature="0"
               id="path25760"
               d="m -8187.25,738.71875 c -1.101,-0.0452 -1.9987,0.0249 -2.7188,0.1875 -7.219,1.63046 -8.2304,9.41504 -41.375,20.8125 -17.3633,5.97079 -53.2454,-4.248 -86.5937,15.4375 -0.012,0.007 -0.019,0.0239 -0.031,0.0312 -19.0558,5.82561 -33.2349,17.05478 -40.8124,31.9375 -8.7599,17.2053 -10.0435,39.53059 1.375,61.15625 54.1358,102.52916 176.3438,124.10587 197.7812,125.90625 41.1301,11.75945 90.7017,-30.16775 68.7188,-127.5 -22.9307,-101.52802 -79.8282,-127.29118 -96.3438,-127.96875 z"
               style="color:#000000;fill:#9b4500;fill-opacity:1;fill-rule:nonzero;stroke:#2e0000;stroke-width:51.24066544;stroke-miterlimit:1.5;stroke-opacity:1;stroke-dasharray:none;marker:none;visibility:visible;display:inline;overflow:visible;enable-background:accumulate" />
            <path
               inkscape:transform-center-y="-68.946908"
               inkscape:transform-center-x="110.764"
               sodipodi:nodetypes="ccsc"
               inkscape:connector-curvature="0"
               id="path25762"
               d="m -8172.2067,989.1804 c -210.5778,-63.8389 -225.9085,-193.4493 -135.5248,-211.44131 90.3835,-17.99195 183.0944,186.16711 175.9593,197.46551 -7.1351,11.2984 -40.4345,13.9758 -40.4345,13.9758 z"
               style="color:#000000;fill:#a60202;fill-opacity:1;fill-rule:nonzero;stroke:none;stroke-width:25;marker:none;visibility:visible;display:inline;overflow:visible;enable-background:accumulate" />
            <path
               id="path25764"
               d="m -8297.125,776.625 c -3.5316,0.0496 -7.0631,0.42219 -10.5938,1.125 -90.3837,17.99201 -75.0777,147.5986 135.5,211.4375 0,0 31.0123,-2.48419 39.5938,-12.8125 -6.552,-0.17413 -13.543,-0.47144 -21,-0.9375 -69.6602,-4.35377 -152.5991,-133.40544 -137.5312,-198.59375 -1.9916,-0.16794 -3.9746,-0.24676 -5.9688,-0.21875 z"
               style="color:#000000;fill:#d20202;fill-opacity:1;fill-rule:nonzero;stroke:none;stroke-width:10;marker:none;visibility:visible;display:inline;overflow:visible;enable-background:accumulate"
               inkscape:connector-curvature="0" />
            <path
               inkscape:connector-curvature="0"
               id="path25766"
               d="m -8299.5192,771.69445 c -3.0531,0.15361 -6.1209,0.54582 -9.1874,1.15625 -23.7499,4.7277 -41.3026,17.07601 -50.0626,34.2812 -8.7599,17.2053 -10.0434,39.53064 1.375,61.1563 58.3848,110.57635 195.9364,125.4585 200.9361,126.00607 22.7581,2.49244 25.4771,-7.63743 28.1508,-11.87123 2.006,-3.1764 2.0327,-9.70474 1.6631,-12.22854 -0.3695,-2.5239 -1.0957,-5.4411 -2.1562,-8.9063 -2.1211,-6.9304 -5.5773,-15.9229 -10.1875,-26.2813 -9.2203,-20.7167 -23.0527,-46.9319 -40.0313,-72.3124 -16.9785,-25.3806 -37.0618,-49.9217 -59,-67.2188 -19.1958,-15.13493 -40.1278,-24.85655 -61.5,-23.78125 z m 0.5313,10 c 18.1906,-0.89904 36.719,7.4151 54.7813,21.65625 20.6425,16.2756 40.2697,40.0838 56.875,64.9062 16.6052,24.8225 36.384,51.82257 44.5167,72.35752 15.0864,38.0929 5.72,47.91362 -17.5072,48.78428 -101.5493,-13.49444 -165.5258,-58.47193 -195.0156,-125.1418 -8.9644,-20.2665 -1.6989,-38.4418 5.5065,-52.5937 7.2053,-14.1519 21.6204,-24.76294 43.0624,-29.03125 2.5825,-0.51407 5.1826,-0.80907 7.7813,-0.9375 z"
               style="font-size:medium;font-style:normal;font-variant:normal;font-weight:normal;font-stretch:normal;text-indent:0;text-align:start;text-decoration:none;line-height:normal;letter-spacing:normal;word-spacing:normal;text-transform:none;direction:ltr;block-progression:tb;writing-mode:lr-tb;text-anchor:start;baseline-shift:baseline;color:#000000;fill:#ffd739;fill-opacity:1;fill-rule:nonzero;stroke:#2e0000;stroke-width:10;stroke-opacity:1;marker:none;visibility:visible;display:inline;overflow:visible;enable-background:accumulate;font-family:Sans;-inkscape-font-specification:Sans"
               sodipodi:nodetypes="ssssscccsssscssscssscc" />
            <path
               sodipodi:nodetypes="ssssscccsssscssscssscc"
               style="font-size:medium;font-style:normal;font-variant:normal;font-weight:normal;font-stretch:normal;text-indent:0;text-align:start;text-decoration:none;line-height:normal;letter-spacing:normal;word-spacing:normal;text-transform:none;direction:ltr;block-progression:tb;writing-mode:lr-tb;text-anchor:start;baseline-shift:baseline;color:#000000;fill:#8d0000;fill-opacity:1;fill-rule:nonzero;stroke:none;stroke-width:10;marker:none;visibility:visible;display:inline;overflow:visible;enable-background:accumulate;font-family:Sans;-inkscape-font-specification:Sans"
               d="m -8299.5192,771.69445 c -3.0531,0.15361 -6.1209,0.54582 -9.1874,1.15625 -23.7499,4.7277 -41.3026,17.07601 -50.0626,34.2812 -8.7599,17.2053 -10.0434,39.53064 1.375,61.1563 58.3848,110.57635 195.9364,125.4585 200.9361,126.00607 22.7581,2.49244 25.4771,-7.63743 28.1508,-11.87123 2.006,-3.1764 2.0327,-9.70474 1.6631,-12.22854 -0.3695,-2.5239 -1.0957,-5.4411 -2.1562,-8.9063 -2.1211,-6.9304 -5.5773,-15.9229 -10.1875,-26.2813 -9.2203,-20.7167 -23.0527,-46.9319 -40.0313,-72.3124 -16.9785,-25.3806 -37.0618,-49.9217 -59,-67.2188 -19.1958,-15.13493 -40.1278,-24.85655 -61.5,-23.78125 z m 0.5313,10 c 18.1906,-0.89904 36.719,7.4151 54.7813,21.65625 20.6425,16.2756 40.2697,40.0838 56.875,64.9062 16.6052,24.8225 31.086,53.33628 39.2187,73.87123 15.0864,38.0929 1.9357,40.34506 -21.2915,41.21572 -101.5493,-13.49444 -160.9888,-78.67425 -178.8644,-119.08695 -8.9644,-20.2665 -8.7678,-38.4418 -1.5624,-52.5937 7.2053,-14.1519 21.6204,-24.76294 43.0624,-29.03125 2.5825,-0.51407 5.1826,-0.80907 7.7813,-0.9375 z"
               id="path25768"
               inkscape:connector-curvature="0" />
            <path
               sodipodi:nodetypes="ssscssssscccss"
               inkscape:connector-curvature="0"
               id="path25770"
               d="m -8187.25,738.71875 c -1.101,-0.0452 -1.9987,0.0249 -2.7188,0.1875 -7.2191,1.63046 -8.2304,9.41504 -41.375,20.8125 -17.3698,5.97301 -53.2662,-4.24627 -86.625,15.46875 2.9737,-0.9091 6.0441,-1.70557 9.25,-2.34375 3.0666,-0.61043 6.1345,-1.00264 9.1876,-1.15625 21.3721,-1.0753 42.3042,8.64632 61.5,23.78125 21.9382,17.2971 42.0215,41.83815 59,67.21875 16.9785,25.3805 30.8109,51.5958 40.0312,72.3125 4.6102,10.3584 8.0664,19.35085 10.1875,26.28125 1.0605,3.4652 1.7868,6.38235 2.1563,8.90625 0.1322,0.90337 4.8428,29.75243 -33.6524,23.81551 41.2622,12.42679 91.5079,-29.44081 69.4024,-127.31551 -22.9307,-101.52802 -79.8282,-127.29118 -96.3438,-127.96875 z"
               style="color:#000000;fill:#d20202;fill-opacity:1;fill-rule:nonzero;stroke:none;stroke-width:25;marker:none;visibility:visible;display:inline;overflow:visible;enable-background:accumulate" />
            <path
               id="path25772"
               d="m -8187.25,738.71875 c -1.101,-0.0452 -1.9987,0.0249 -2.7188,0.1875 -7.219,1.63046 -8.2304,9.41504 -41.375,20.8125 -17.3698,5.97301 -53.2662,-4.24627 -86.625,15.46875 2.9738,-0.9091 6.0441,-1.70557 9.25,-2.34375 3.0667,-0.61043 6.1345,-1.00264 9.1876,-1.15625 21.3721,-1.0753 42.3042,8.64632 61.5,23.78125 21.9382,17.2971 42.0215,41.83815 59,67.21875 7.1715,10.72054 13.749,21.58387 19.6874,32.125 -8.5264,-21.42454 -21.2982,-50.05955 -34.375,-66.1875 -22.7057,-28.0037 -52.25,-53 -52.25,-53 0,0 26.8562,5.40636 36.6953,3.13579 9.8392,-2.27057 27.6485,-22.79204 27.6485,-22.79204 0,0 65.8392,16.62233 87.0312,113.5 4.053,18.52807 6.9318,34.71346 8.9376,48.78125 0.6659,-15.00384 -0.872,-32.17827 -5.25,-51.5625 -22.9307,-101.52802 -79.8282,-127.29118 -96.3438,-127.96875 z"
               style="color:#000000;fill:#ff0808;fill-opacity:1;fill-rule:nonzero;stroke:none;stroke-width:10;marker:none;visibility:visible;display:inline;overflow:visible;enable-background:accumulate"
               inkscape:connector-curvature="0"
               sodipodi:nodetypes="ccsccssscscscscsc" />
            <path
               id="path25774"
               d="m -8088.375,879.53125 c 0.077,32.70584 -8.9979,60.37857 -20.6562,65.375 -13.5391,5.80245 -28.8195,-20.73651 -41.9063,-34.59375 4.5479,8.76119 8.5572,17.09235 11.9375,24.6875 4.6102,10.3584 8.0664,19.35085 10.1875,26.28125 1.0605,3.4652 1.7868,6.38235 2.1563,8.90625 0.109,0.74529 3.3037,20.50142 -17.1876,24.0625 -0.1092,0.61853 -0.25,1.23029 -0.375,1.84375 34.9406,-1.21759 68.8957,-39.73918 55.8438,-116.5625 z"
               style="color:#000000;fill:#a60101;fill-opacity:1;fill-rule:nonzero;stroke:none;stroke-width:10;marker:none;visibility:visible;display:inline;overflow:visible;enable-background:accumulate"
               inkscape:connector-curvature="0" />
            <path
               inkscape:connector-curvature="0"
               style="opacity:0.53846154;color:#000000;fill:#800000;fill-opacity:1;fill-rule:nonzero;stroke:none;stroke-width:25;marker:none;visibility:visible;display:inline;overflow:visible;enable-background:accumulate"
               d="m -7845.625,1026.5625 c -0.2095,25.6913 -3.537,62.3001 -19.625,59.375 -14.0634,-2.557 -32.459,-26.7046 -64.2812,-45.0937 5.7467,7.3248 11.2159,14.9441 16.375,22.6562 15.4518,23.0983 28.0462,46.9586 36.4374,65.8125 4.1957,9.427 7.3509,17.6303 9.2813,23.9375 0.9651,3.1536 1.6012,5.7968 1.9375,8.0938 0.1203,0.8221 4.4088,27.0905 -30.625,21.6874 37.552,11.3094 83.3053,-26.8009 63.1875,-115.875 -3.4713,-15.3695 -7.817,-28.8275 -12.6875,-40.5937 z"
               transform="matrix(1.098802,0,0,1.098802,515.95545,-305.90268)"
               id="path25776" />
          </g>
          <g
             id="g25778"
             transform="translate(-4910.4873,-602.45808)">
            <path
               style="color:#000000;fill:#9b4500;fill-opacity:1;fill-rule:nonzero;stroke:#2e0000;stroke-width:28.63793564;stroke-miterlimit:1.5;stroke-opacity:1;stroke-dasharray:none;marker:none;visibility:visible;display:inline;overflow:visible;enable-background:accumulate"
               d="m -7731.7368,1191.8816 c 43.5043,-3.8474 85.1636,-20.2836 112.1593,-19.5262 14.4736,0.4061 56.178,4.4113 56.178,4.4113 0,0 -18.6544,-20.2418 -59.8547,-31.4614 -45.5318,-12.3992 -119.9653,14.3357 -128.5282,25.0392 -8.5628,10.7036 20.0456,21.5371 20.0456,21.5371 z"
               id="path25780"
               inkscape:connector-curvature="0"
               sodipodi:nodetypes="cscssc" />
            <path
               sodipodi:nodetypes="cscssc"
               inkscape:connector-curvature="0"
               id="path25782"
               d="m -7731.7368,1191.8816 c 43.5043,-3.8474 85.1636,-20.2836 112.1593,-19.5262 14.4736,0.4061 56.178,4.4113 56.178,4.4113 0,0 -18.6544,-20.2418 -59.8547,-31.4614 -45.5318,-12.3992 -119.9653,14.3357 -128.5282,25.0392 -8.5628,10.7036 20.0456,21.5371 20.0456,21.5371 z"
               style="color:#000000;fill:#ffcc00;fill-opacity:1;fill-rule:nonzero;stroke:none;stroke-width:25;marker:none;visibility:visible;display:inline;overflow:visible;enable-background:accumulate" />
            <path
               inkscape:connector-curvature="0"
               style="color:#000000;fill:#ff0000;fill-opacity:1;fill-rule:nonzero;stroke:none;stroke-width:25;marker:none;visibility:visible;display:inline;overflow:visible;enable-background:accumulate"
               d="m -7657.3493,1133.0014 c -14.2844,0.091 -29.3584,2.3104 -43.4063,5.5 41.5043,-8.545 83.4899,12.9229 103.75,26.7187 14.1929,1.1856 27.5625,2.4688 27.5625,2.4688 0,0 -18.6747,-20.2492 -59.875,-31.4688 -8.5372,-2.3248 -18.0866,-3.2818 -28.0312,-3.2187 z m -43.4063,5.5 c -4.0037,0.909 -7.9275,1.858 -11.7187,2.9063 4.6524,1.6257 11.7187,-2.9063 11.7187,-2.9063 z"
               transform="translate(6.054855,9.0822824)"
               id="path25784"
               sodipodi:nodetypes="ccccscccc" />
          </g>
          <g
             id="g25786"
             transform="translate(-4901.405,-603.21494)">
            <path
               id="path25788"
               d="m -7664.5625,1153.9062 c -25.1534,0 -50.0346,6.6833 -62.3437,15.7813 -8.1513,6.0248 -19.2241,10.1786 -30.4063,13.0313 -0.1448,0.037 -0.2927,0.057 -0.4375,0.094 -13.7042,3.0578 -28.0086,4.499 -38.4375,5.7813 -0.049,0.01 -0.1076,0.025 -0.1563,0.031 -4.0423,0.2651 -6.5624,0.3125 -6.5624,0.3125 0.8408,0.07 1.6385,0.1479 2.4687,0.2187 -8.6258,1.1831 -13.1631,2.3629 -9.3437,4.75 89.9101,7.4926 115.7885,17.7799 127.5624,52.0313 11.7741,34.2515 -4.03,38.3545 -2.125,82.4063 1.2472,28.8389 34.0626,62.5312 34.0626,62.5312 0,0 5.6264,-1.0786 7.25,-5.0312 0,0 0.062,0.062 0.062,0.062 0,0 12.705,-35.1727 19.75,-50.2187 10.6872,4.5104 52.125,11.2813 52.125,11.2813 0,0 10.2153,-0.8851 6.9376,-4.4688 -0.1666,-0.1821 -0.3814,-0.4022 -0.5626,-0.5938 0.024,0 0.5,0.094 0.5,0.094 0,0 -14.9322,-12.7262 -24.125,-34.1875 -0.7993,-1.8662 -1.5509,-3.7854 -2.25,-5.7813 -0.3462,-0.9886 -0.6833,-1.9805 -1,-3 0,-0.01 0,-0.022 0,-0.031 -0.3134,-1.0105 -0.625,-2.0536 -0.9062,-3.0938 -0.01,-0.019 0.01,-0.043 0,-0.062 -0.2831,-1.0505 -0.5656,-2.1076 -0.8125,-3.1876 0,-0.01 0,-0.021 0,-0.031 -0.2465,-1.0804 -0.4806,-2.172 -0.6875,-3.2812 0,-0.01 0,-0.021 0,-0.031 -0.6252,-3.359 -1.0493,-6.8563 -1.25,-10.4687 -2.1408,-38.5329 21.4152,-65.2721 -5.3438,-100.5938 -13.3795,-17.6609 -38.8153,-24.3437 -63.9687,-24.3438 z"
               style="color:#000000;fill:#ffcc00;fill-opacity:1;fill-rule:nonzero;stroke:#2e0000;stroke-width:46.63320923;stroke-linejoin:round;stroke-miterlimit:1.5;stroke-opacity:1;stroke-dasharray:none;marker:none;visibility:visible;display:inline;overflow:visible;enable-background:accumulate"
               inkscape:connector-curvature="0" />
            <g
               id="g25790">
              <path
                 style="color:#000000;fill:#ffcc00;fill-opacity:1;fill-rule:nonzero;stroke:none;stroke-width:25;marker:none;visibility:visible;display:inline;overflow:visible;enable-background:accumulate"
                 d="m -7802.9043,1188.946 c 89.9101,7.4925 118.8097,19.2664 130.5836,53.5178 11.774,34.2515 -4.0458,38.3657 -2.1407,82.4175 1.2472,28.839 31.0404,61.0104 31.0404,61.0104 0,0 22.4775,-61.0103 24.6182,-56.7289 2.1407,4.2814 54.5882,12.8442 54.5882,12.8442 0,0 -28.8996,-24.6182 -31.0403,-63.151 -2.1408,-38.5329 21.4071,-65.2918 -5.3518,-100.6135 -26.759,-35.3218 -101.684,-26.759 -126.3022,-8.563 -24.6182,18.1961 -75.9954,19.2665 -75.9954,19.2665 z"
                 id="path25792"
                 inkscape:connector-curvature="0"
                 sodipodi:nodetypes="csscscsssc" />
              <path
                 style="color:#000000;fill:#870101;fill-opacity:1;fill-rule:nonzero;stroke:none;stroke-width:25;marker:none;visibility:visible;display:inline;overflow:visible;enable-background:accumulate"
                 d="m -7809.7698,1193.9194 c 89.9101,7.4925 115.7823,17.7527 127.5562,52.0041 11.774,34.2515 -4.0458,38.3657 -2.1407,82.4175 1.2472,28.839 34.0678,62.5241 34.0678,62.5241 0,0 5.7916,-1.0811 7.328,-5.1629 5.9137,-15.7108 15.591,-54.9644 17.2902,-51.566 2.1407,4.2814 54.5882,12.8442 54.5882,12.8442 0,0 10.1962,-0.8916 6.9185,-4.4753 -8.4981,-9.2916 -36.4139,-30.8681 -37.9588,-58.6757 -2.1407,-38.5329 21.4071,-65.2918 -5.3518,-100.6135 -26.759,-35.3218 -99.2443,-22.8815 -126.3022,-8.563 -29.0964,15.3972 -87.0459,12.3599 -75.9954,19.2665 z"
                 id="path25794"
                 inkscape:connector-curvature="0"
                 sodipodi:nodetypes="cssccsccsssc" />
              <path
                 sodipodi:nodetypes="csscscsssc"
                 inkscape:connector-curvature="0"
                 id="path25796"
                 d="m -7802.9043,1188.946 c 89.9101,7.4925 118.8097,19.2664 130.5836,53.5178 11.774,34.2515 -4.0458,38.3657 -2.1407,82.4175 1.2472,28.839 31.5029,61.0104 31.5029,61.0104 0,0 22.015,-61.0103 24.1557,-56.7289 2.1407,4.2814 54.6412,13.3423 54.6412,13.3423 0,0 -28.9526,-25.1163 -31.0933,-63.6491 -2.1408,-38.5329 21.4071,-65.2918 -5.3518,-100.6135 -26.759,-35.3218 -101.684,-26.759 -126.3022,-8.563 -24.6182,18.1961 -75.9954,19.2665 -75.9954,19.2665 z"
                 style="color:#000000;fill:#d20202;fill-opacity:1;fill-rule:nonzero;stroke:none;stroke-width:25;marker:none;visibility:visible;display:inline;overflow:visible;enable-background:accumulate" />
              <path
                 id="path25798"
                 d="m -7664.5625,1153.9062 c -25.1534,0 -50.0346,6.6833 -62.3437,15.7813 -24.6182,18.1961 -76,19.25 -76,19.25 61.9485,5.1624 94.9365,12.3521 113.3124,27.5313 -0.5822,-7.6456 0.7898,-14.6082 6.75,-20.7813 21.1921,-21.9489 54.4751,-29.5319 77.9376,-5.3125 23.4625,24.2194 3.0457,52.2279 8.3437,71.9062 0.4267,1.5849 0.9037,3.0577 1.4375,4.4376 2.26,-32.2944 18.3901,-56.9752 -5.4688,-88.4688 -13.3795,-17.6609 -38.8153,-24.3437 -63.9687,-24.3438 z"
                 style="opacity:0.5;color:#000000;fill:#fa0000;fill-opacity:1;fill-rule:nonzero;stroke:none;stroke-width:25;marker:none;visibility:visible;display:inline;overflow:visible;enable-background:accumulate"
                 inkscape:connector-curvature="0" />
              <path
                 inkscape:connector-curvature="0"
                 style="opacity:0.32211537;color:#000000;fill:#c20202;fill-opacity:1;fill-rule:nonzero;stroke:none;stroke-width:25;marker:none;visibility:visible;display:inline;overflow:visible;enable-background:accumulate"
                 d="m -7592.3125,1261.4062 c -3.4443,6.7042 -7.9261,12.1389 -13.6563,14.25 -16.4923,6.0762 -46.3576,13.5412 -59.3437,-13.5312 -1.5928,13.4393 -7.3157,25.3739 -6.125,52.9062 1.2472,28.839 31.5,61.0313 31.5,61.0313 0,0 22.0156,-61.0314 24.1563,-56.75 2.1406,4.2814 54.6562,13.3437 54.6562,13.3437 0,0 -28.953,-25.0921 -31.0938,-63.625 -0.144,-2.5928 -0.1591,-5.1325 -0.094,-7.625 z"
                 transform="translate(-3.0274275,9.8391392)"
                 id="path25800" />
            </g>
          </g>
          <g
             id="g25802"
             transform="translate(-5096.0264,-279.76113)">
            <path
               sodipodi:nodetypes="csscc"
               style="color:#000000;fill:#9b4500;fill-opacity:1;fill-rule:nonzero;stroke:#2e0000;stroke-width:46.63320923;stroke-linejoin:round;stroke-miterlimit:1.5;stroke-opacity:1;stroke-dasharray:none;marker:none;visibility:visible;display:inline;overflow:visible;enable-background:accumulate"
               d="m -7668.997,838.30919 c 45.1311,-125.126 43.0971,-141.62298 151.3283,-173.94758 108.2312,-32.32463 123.0217,95.6566 59.4662,161.9935 -63.5555,66.3369 -195.6119,45.3007 -195.6119,45.3007 0,0 -25.8862,5.18624 -15.1826,-33.34662 z"
               id="path25804"
               inkscape:connector-curvature="0" />
            <path
               sodipodi:nodetypes="cssccsc"
               inkscape:connector-curvature="0"
               id="path25806"
               d="m -7671.1377,854.36455 c 45.1311,-134.75921 45.2378,-157.67834 153.469,-190.00294 108.2312,-32.32463 123.0217,95.6566 59.4662,161.9935 -63.5555,66.3369 -195.6119,45.3007 -195.6119,45.3007 l 49.0851,-57.9937 c 0,0 20.9992,-34.4734 7.2798,-46.2297 -13.7195,-11.7563 -73.6882,86.93214 -73.6882,86.93214 z"
               style="color:#000000;fill:#d20202;fill-opacity:1;fill-rule:nonzero;stroke:none;stroke-width:25;marker:none;visibility:visible;display:inline;overflow:visible;enable-background:accumulate" />
            <path
               id="path25808"
               d="m -7423.4375,760.34375 c -7.6454,22.07796 -30.6568,52.1259 -65.8437,59.34375 -41.744,8.56286 -52.4532,-10.71017 -50.3126,-28.90625 1.6663,-14.16348 -23.9172,44.29552 -66.125,84.03125 44.2336,-0.0136 108.6746,-7.91157 147.5313,-48.46875 17.9621,-18.74815 29.6443,-42.41459 34.75,-66 z"
               style="opacity:0.61946902;color:#000000;fill:#7f0101;fill-opacity:1;fill-rule:nonzero;stroke:none;stroke-width:25;marker:none;visibility:visible;display:inline;overflow:visible;enable-background:accumulate"
               inkscape:connector-curvature="0" />
            <path
               sodipodi:nodetypes="sscsssccscs"
               inkscape:connector-curvature="0"
               id="path25810"
               d="m -7485.5,659.21875 c -9.6219,-0.01 -20.3185,1.62074 -32.1562,5.15625 -38.7434,11.5712 -64.4837,22.31617 -83.8438,37.125 62.862,-8.81462 68.3125,40.46263 68.3125,67.875 0,32.11071 -19.2507,57.80554 -2.125,37.46875 17.1257,-20.33679 23.5386,-65.31143 23.5386,-86.71857 0,-21.40715 -3.2188,-22.46875 -3.2188,-22.46875 10.3177,-10.28294 36.0561,-17.86207 56.7431,-21.41447 0,0 32.1014,5.36517 33.1717,58.88304 0.3026,15.12711 -2.8294,27.76326 -2.0159,38.71875 17.8414,-54.89738 -0.1656,-114.56733 -58.4062,-114.625 z"
               style="color:#000000;fill:#ff0000;fill-opacity:1;fill-rule:nonzero;stroke:none;stroke-width:25;marker:none;visibility:visible;display:inline;overflow:visible;enable-background:accumulate" />
            <path
               sodipodi:nodetypes="sscscccsss"
               inkscape:connector-curvature="0"
               id="path25812-8"
               d="m -7570.2812,687.9375 c -6.2339,0.15559 -27.6596,0.53576 -55.2415,39.39747 -18.5284,26.10564 -23.8177,58.63083 -48.8206,120.60253 19.0194,85.58733 56.9147,-86.76242 76.9058,-80.5 17.2413,5.401 -7.2813,46.21875 -7.2813,46.21875 l -49.0937,58 c 0,0 18.8149,2.99175 45.6563,3.15625 8.3381,-3.94733 16.7912,-8.43454 24.6874,-13.40625 28.8997,-18.19607 82.6669,-78.57382 63.1331,-144.5 -6.216,-20.97889 -28.1222,-29.51342 -49.9455,-28.96875 z"
               style="color:#000000;fill:#ff0000;fill-opacity:1;fill-rule:nonzero;stroke:none;stroke-width:25;marker:none;visibility:visible;display:inline;overflow:visible;enable-background:accumulate" />
            <path
               style="color:#000000;fill:#6f0000;fill-opacity:1;fill-rule:nonzero;stroke:#2e0000;stroke-width:22.03264236;stroke-linejoin:round;stroke-opacity:1;marker:none;visibility:visible;display:inline;overflow:visible;enable-background:accumulate"
               d="m -7669.7313,841.68242 c 45.0352,-98.52974 89.2592,-150.68777 121.558,-125.8237 32.4748,24.99954 -5.4268,110.22496 -54.4693,140.88172 -60.5351,37.84061 -79.0392,11.93414 -67.0887,-15.05802 z"
               id="path25814"
               inkscape:connector-curvature="0"
               sodipodi:nodetypes="cssc" />
            <path
               sodipodi:nodetypes="cssc"
               inkscape:connector-curvature="0"
               id="path25816"
               d="m -7669.7313,841.68242 c 17.2059,-97.45938 85.417,-154.46948 122.6283,-125.8237 38.2674,29.45872 -6.4971,110.22496 -55.5396,140.88172 -60.5351,37.84061 -79.0392,11.93414 -67.0887,-15.05802 z"
               style="color:#000000;fill:#a60202;fill-opacity:1;fill-rule:nonzero;stroke:none;stroke-width:25;marker:none;visibility:visible;display:inline;overflow:visible;enable-background:accumulate" />
            <path
               id="path25818"
               d="m -7568.625,708.4375 c -37.6341,-0.44472 -86.8451,52.54145 -101.0938,133.25 -6.6483,15.01646 -3.8837,29.6948 10.3126,33.25 17.4418,-120.16298 116.9953,-139.18002 121.75,-100.375 8.0983,-23.68779 7.0862,-45.99854 -9.4376,-58.71875 -6.3956,-4.92349 -13.7203,-7.31395 -21.5312,-7.40625 z"
               style="opacity:0.6946903;color:#000000;fill:#d20202;fill-opacity:1;fill-rule:nonzero;stroke:none;stroke-width:25;marker:none;visibility:visible;display:inline;overflow:visible;enable-background:accumulate"
               inkscape:connector-curvature="0" />
          </g>
          <path
             inkscape:connector-curvature="0"
             style="color:#000000;fill:#3dfdfd;fill-opacity:1;fill-rule:nonzero;stroke:#2e0000;stroke-width:29.31069565;stroke-linejoin:round;stroke-miterlimit:1.5;stroke-opacity:1;stroke-dasharray:none;marker:none;visibility:visible;display:inline;overflow:visible;enable-background:accumulate"
             d="m 2610.1562,-989.53125 c -85.3789,6.84458 -78.1457,71.46348 -64.9062,102.625 13.2389,31.16163 17.5153,33.23919 24.5625,54.15625 7.0472,20.91706 5.7137,24.45757 6.0313,28.6875 2.3093,-8.20813 22.1562,-43.28125 22.1562,-43.28125 l 37.0312,27.46875 c 1.0421,-0.34736 2.0681,-0.67892 2.75,-0.90625 -4.5527,-14.84324 -21.0322,-70.5356 -19.5312,-94.125 3.0281,-47.5804 34.3438,-57.875 34.3438,-57.875 0,0 1.4487,0.83265 -14.4063,-8.84375 -15.8544,-9.67651 -17.9689,-7.309 -28.0313,-7.90625 z"
             transform="matrix(1.5301771,0.43569214,-0.43569214,1.5301771,-17214.306,928.83332)"
             id="path25820" />
          <path
             style="color:#000000;fill:#d20202;fill-opacity:1;fill-rule:nonzero;stroke:none;stroke-width:25;marker:none;visibility:visible;display:inline;overflow:visible;enable-background:accumulate"
             d="m -12789.169,551.9252 c -133.627,-26.7255 -150.697,75.2958 -144.015,128.7468 6.681,53.4509 12.319,58.4618 13.989,93.539 1.67,35.0772 -3.119,45.3621 -3.341,46.7696 4.036,-8.9047 52.825,-56.7917 52.825,-56.7917 l 44.224,57.86549 5.021,-0.35302 c 0,0 -13.682,-114.91059 1.644,-155.68809 31.419,-83.5968 103.93,-63.95148 120.581,-70.76318 -31.031,-6.0548 -31.448,2.6616 -51.493,-19.0529 -20.044,-21.7144 -24.298,-18.974 -39.435,-24.272 z"
             id="path25822"
             inkscape:connector-curvature="0"
             sodipodi:nodetypes="cssccccscsc" />
          <path
             style="opacity:0.57522122;color:#000000;fill:#ff0000;fill-opacity:1;fill-rule:nonzero;stroke:none;stroke-width:25;marker:none;visibility:visible;display:inline;overflow:visible;enable-background:accumulate"
             d="m -12828.948,547.5443 c -26.649,-0.1667 -46.949,6.1938 -62.281,16.4687 51.674,0.5666 87.275,44.4855 95.156,71.2813 0.495,1.6832 0.981,3.3238 1.469,4.9687 33.311,-50.2217 82.034,-39.1331 96.375,-45 -31.031,-6.0548 -31.456,2.652 -51.5,-19.0625 -20.044,-21.7144 -24.3,-18.9832 -39.437,-24.2812 -14.616,-2.9231 -27.834,-4.3003 -39.782,-4.375 z"
             id="path25824"
             inkscape:connector-curvature="0" />
          <path
             inkscape:connector-curvature="0"
             style="opacity:0.1946903;color:#000000;fill:#800000;fill-opacity:1;fill-rule:nonzero;stroke:none;stroke-width:25;marker:none;visibility:visible;display:inline;overflow:visible;enable-background:accumulate"
             d="m 2672.5938,-978.96875 c -12.6133,1.07078 -16.7017,3.59935 -22.0938,2.8125 -8.66,3.82091 -18.2743,10.60795 -27.7812,22.21875 -21.6532,26.44486 -10.4259,41.53792 -30.6876,46.8125 -17.5846,4.57762 -47.7813,-6.2385 -54.4062,-25.96875 -1.7695,16.882 2.473,34.06098 7.625,46.1875 13.2395,31.16146 17.5154,33.208 24.5625,54.125 4.8219,14.31125 5.9478,24.5844 6.125,28.25 1.3741,-6.50328 22.0937,-42.8125 22.0937,-42.8125 l 37,27.46875 c 1.0315,-0.3438 2.0392,-0.67971 2.7188,-0.90625 -4.6469,-14.85004 -21.4389,-70.56712 -19.5,-94.125 4.6035,-55.94293 45.4505,-57.07873 54.3438,-64.0625 z"
             transform="matrix(1.5301771,0.43569214,-0.43569214,1.5301771,-17214.306,928.83332)"
             id="path25826" />
          <path
             style="color:#000000;fill:#ff0000;fill-opacity:1;fill-rule:nonzero;stroke:none;stroke-width:25;marker:none;visibility:visible;display:inline;overflow:visible;enable-background:accumulate"
             d="m 2618.3438,-904.9375 c -0.2332,2.61243 -0.4188,5.70381 -0.5626,9.5 -0.8704,23.00037 12.8978,69.2754 12.8978,69.2754 l -33.7102,-24.2754 -19.125,35.375 c 0,0 0.063,-1.5061 -2.2188,-7.78125 -2.1082,-5.79995 -6.8269,-19.93758 -14.4062,-30.4375 2.9777,5.89991 5.5318,11.41278 8.5937,20.5 4.8219,14.31125 5.9485,24.58423 6.125,28.25 1.3747,-6.50345 22.0937,-42.8125 22.0937,-42.8125 l 37,27.46875 c 1.0421,-0.34736 2.0681,-0.67892 2.75,-0.90625 -4.0304,-12.87011 -17.5078,-57.4136 -19.4374,-84.15625 z"
             transform="matrix(1.5301771,0.43569214,-0.43569214,1.5301771,-17214.306,928.83332)"
             id="path25828"
             inkscape:connector-curvature="0"
             sodipodi:nodetypes="ccccccccccccc" />
          <path
             inkscape:connector-curvature="0"
             style="color:#000000;fill:#ff0000;fill-opacity:1;fill-rule:nonzero;stroke:none;stroke-width:25;marker:none;visibility:visible;display:inline;overflow:visible;enable-background:accumulate"
             d="m -12828.964,547.5304 c -97.292,-0.6086 -110.169,85.5515 -104.218,133.1563 4.839,38.7154 9.116,52.0287 11.75,69.75 1.008,0.421 0.505,-6.7432 -2.657,-27.0313 -9.082,-58.278 -11.346,-106.6991 30.282,-146.8124 38.341,-36.9474 115.659,-18.7085 127.656,-15.5938 -7.943,-5.5435 -13.211,-5.6253 -23.031,-9.0625 -14.616,-2.9231 -27.834,-4.3315 -39.782,-4.4063 z"
             id="path25830" />
          <path
             style="color:#000000;fill:#870101;fill-opacity:1;fill-rule:nonzero;stroke:none;stroke-width:25;marker:none;visibility:visible;display:inline;overflow:visible;enable-background:accumulate"
             d="m 2672.5938,-978.96875 c -9.5332,0.80927 -14.1858,2.45325 -18.2188,2.875 -38.3909,17.43465 -46.0626,42.47163 -41.7848,77.89951 3.3985,28.14351 15.2864,61.1551 22.4723,78.31924 1.0181,-0.33936 2.0149,-0.68205 2.6875,-0.90625 -4.6498,-14.84586 -21.439,-70.56608 -19.5,-94.125 4.6035,-55.94293 45.4505,-57.07873 54.3438,-64.0625 z"
             transform="matrix(1.5301771,0.43569214,-0.43569214,1.5301771,-17214.306,928.83332)"
             id="path25832"
             inkscape:connector-curvature="0"
             sodipodi:nodetypes="ccscccc" />
          <path
             style="opacity:0.32211537;color:#000000;fill:#fe0000;fill-opacity:1;fill-rule:nonzero;stroke:none;stroke-width:25;marker:none;visibility:visible;display:inline;overflow:visible;enable-background:accumulate"
             d="m -12531.798,566.6706 c -41.744,12.8442 -2.141,69.5732 23.548,55.6585 25.688,-13.9146 2.14,-48.166 -8.563,-52.4475 -10.704,-4.2814 -14.985,-3.211 -14.985,-3.211 z"
             id="path25834"
             inkscape:connector-curvature="0" />
        </g>
      </g>
    </g>
  </g>
</svg>
