<?xml version="1.0" encoding="UTF-8" standalone="no"?>
<!-- Created with Inkscape (http://www.inkscape.org/) -->

<svg
   xmlns:dc="http://purl.org/dc/elements/1.1/"
   xmlns:cc="http://creativecommons.org/ns#"
   xmlns:rdf="http://www.w3.org/1999/02/22-rdf-syntax-ns#"
   xmlns:svg="http://www.w3.org/2000/svg"
   xmlns="http://www.w3.org/2000/svg"
   xmlns:sodipodi="http://sodipodi.sourceforge.net/DTD/sodipodi-0.dtd"
   xmlns:inkscape="http://www.inkscape.org/namespaces/inkscape"
   width="2593.304"
   height="551.90656"
   viewBox="0 0 686.14498 146.02527"
   version="1.1"
   id="svg23489"
   inkscape:version="0.48.5 r10040"
   sodipodi:docname="header_board_dark_wood_small_arched.svg">
  <defs
     id="defs23483" />
  <sodipodi:namedview
     id="base"
     pagecolor="#7d848b"
     bordercolor="#666666"
     borderopacity="1.0"
     inkscape:pageopacity="1"
     inkscape:pageshadow="2"
     inkscape:zoom="0.075338452"
     inkscape:cx="4324.8128"
     inkscape:cy="-26.298767"
     inkscape:document-units="px"
     inkscape:current-layer="layer1"
     showgrid="false"
     inkscape:pagecheckerboard="false"
     showborder="true"
     units="px"
     inkscape:window-width="1920"
     inkscape:window-height="1017"
     inkscape:window-x="-8"
     inkscape:window-y="-8"
     inkscape:window-maximized="1"
     inkscape:showpageshadow="false"
     guidetolerance="28"
     fit-margin-top="25"
     fit-margin-left="25"
     fit-margin-bottom="25"
     fit-margin-right="25">
    <inkscape:grid
       type="xygrid"
       id="grid24034"
       spacingx="1px"
       spacingy="1px"
       empspacing="8"
       visible="true"
       enabled="true"
       snapvisiblegridlinesonly="true"
       originx="3806.026px"
       originy="699.21421px" />
  </sodipodi:namedview>
  <metadata
     id="metadata23486">
    <rdf:RDF>
      <cc:Work
         rdf:about="">
        <dc:format>image/svg+xml</dc:format>
        <dc:type
           rdf:resource="http://purl.org/dc/dcmitype/StillImage" />
        <dc:title></dc:title>
        <cc:license
           rdf:resource="" />
        <dc:creator>
          <cc:Agent>
            <dc:title>Robert Brooks</dc:title>
          </cc:Agent>
        </dc:creator>
      </cc:Work>
    </rdf:RDF>
  </metadata>
  <g
     inkscape:label="Layer 1"
     inkscape:groupmode="layer"
     id="layer1"
     transform="translate(1007.011,-335.97512)">
    <g
       transform="matrix(1.9372892,0,0,1.976171,-5898.7378,-470.50547)"
       id="g24122">
      <g
         transform="matrix(1.039771,0,0,1.0207656,314.88208,535.62815)"
         id="g24124">
        <path
           id="path24126"
           transform="matrix(0.12876573,0,0,0.13116319,1526.2212,-269.3993)"
           d="m 5934.5312,1141.4062 c -218.3663,0 -418.8844,37.748 -567.8437,86.9376 -20.8659,10.4913 -83.4063,34.125 -83.4063,34.125 0,0 -26.2727,13.5993 -50.8437,19.7812 -71.4369,35.222 -115.972,71.4312 -124.125,101.3125 l -29.4375,1.8437 -157.8125,-9.5624 -219.6563,1.5624 -4.8124,17.25 -1.1876,54.7188 14.7188,11.4688 -14.7188,10.5624 2.4063,111.0313 0.2813,0.25 0,0.6563 0.7187,0 24.375,21.625 1739.3125,4.0624 779.4375,4.3438 14.2187,-18.5625 1.8126,-28.4375 -20.375,-14.8125 c 0,0 12.6262,-5.2327 20.375,-9.2187 l 0,-33.3438 1.8437,-101.125 -4.25,-30.4688 L 7199,1377.5 c -0.2725,4.5788 -1.993,8.8852 -5.9688,11.0938 -9.0638,5.0353 -20.1252,-0.049 -20.25,-11 -134.5404,2.0343 -269.0381,4.6786 -403.5312,7.2812 l 0.062,-1.4375 c 0,-1.5179 -8,-23.5625 -8,-23.5625 -18.6366,-29.2264 -69.2557,-62.244 -142.6563,-93.5625 -0.859,7.2561 -4.1407,15.0621 -13.1562,20.5937 -9.1473,5.6127 -18.8157,-5.5065 -29.7188,-16.6874 -3.7932,-8.8866 -7.9125,-17.7697 -12.4062,-26.6563 -156.4339,-54.1716 -395.1314,-102.1563 -628.8438,-102.1563 z"
           style="color:#000000;fill:#3b2213;fill-opacity:1;fill-rule:nonzero;stroke:#3b2213;stroke-width:29.92752647;stroke-linejoin:round;stroke-miterlimit:4;stroke-opacity:1;stroke-dasharray:none;marker:none;visibility:visible;display:inline;overflow:visible;enable-background:accumulate"
           inkscape:connector-curvature="0" />
        <path
           id="path24128"
           transform="matrix(0.12876573,0,0,0.13116319,1526.2212,-269.3993)"
           d="m 5934.5312,1141.4062 c -218.3663,0 -418.8844,37.7436 -567.8437,86.9376 -20.8659,10.4913 -79.5937,32.25 -79.5937,32.25 0,0 -30.0853,15.4743 -54.6563,21.6562 -64.6524,31.8792 -107.2869,64.5545 -120.8437,92.625 l 240.375,12 c 0,0 -256.0909,2.4995 -288.875,-2.4688 l -142.0626,-8.5937 -219.5937,1.5625 -4.8125,17.2812 -1.25,54.7188 2.0938,1.5938 c 51.367,2.297 125.981,5.0608 118.75,6.0937 -6.928,0.9897 -68.4389,5.292 -110.6876,7.0625 l -10.1562,7.25 2.75,111.9688 16.1562,0.1562 571.5,15.4062 1970.3438,-14.2812 1.875,-18.25 -10.9375,-7.9688 c -9.8213,-1.1336 -44.0575,-5.0061 -57.3437,-5.8437 -3.4019,0.085 -5.6438,0.037 -4.9688,-0.1563 0.4631,-0.1323 2.4162,0 4.9688,0.1563 10.9309,-0.2745 37.9642,-1.7784 52.8124,-3.125 4.3265,-1.8493 10.3396,-4.4552 15.4688,-7.0937 l 0,-33.375 1.8438,-101.0938 -4.25,-30.5 -56.5626,0.094 c -0.2724,4.5788 -1.9926,8.9162 -5.9687,11.125 -9.0637,5.0353 -20.1563,-0.049 -20.2813,-11 l -404.0312,-0.1876 c -0.046,-0.2486 -0.1047,-0.5005 -0.1562,-0.75 -52.2544,-0.6234 -150.4805,-1.3437 -156.1563,-1.3437 -6.902,0 102.8249,-3.1003 154.2187,-5.125 -12.1733,-31.6318 -65.7959,-68.8095 -148,-103.875 -12.3134,48.2675 -77.465,5.9431 -55.2812,-22.8125 -156.4504,-54.1641 -395.1611,-102.0938 -628.8438,-102.0938 z"
           style="color:#000000;fill:#ceb254;fill-opacity:1;fill-rule:nonzero;stroke:none;stroke-width:50;marker:none;visibility:visible;display:inline;overflow:visible;enable-background:accumulate"
           inkscape:connector-curvature="0" />
        <path
           inkscape:connector-curvature="0"
           transform="matrix(0.3264138,0,0,0.3264138,83.511688,-67.910629)"
           id="path24130"
           d="m 7023.5625,-100.03125 c 0.2653,-0.0669 0.5538,-0.033 0.8125,-0.125 0.2495,-0.0887 0.4451,-0.32469 0.6875,-0.4375 -0.4889,0.22642 -0.9839,0.43269 -1.5,0.5625 z"
           style="color:#000000;fill:#bf7348;fill-opacity:1;fill-rule:nonzero;stroke:none;stroke-width:50;marker:none;visibility:visible;display:inline;overflow:visible;enable-background:accumulate" />
        <path
           inkscape:connector-curvature="0"
           transform="matrix(0.3264138,0,0,0.3264138,83.511688,-67.910629)"
           id="path24132"
           d="m 7019.9062,-99.8125 c 0.3325,0.04048 0.6696,0.176921 1,0.1875 0.2889,0.0092 0.5579,-0.110343 0.8438,-0.125 -0.6131,0.02956 -1.2207,0.01475 -1.8438,-0.0625 z"
           style="color:#000000;fill:#bf7348;fill-opacity:1;fill-rule:nonzero;stroke:none;stroke-width:50;marker:none;visibility:visible;display:inline;overflow:visible;enable-background:accumulate" />
        <path
           inkscape:connector-curvature="0"
           transform="matrix(0.3264138,0,0,0.3264138,83.511688,-67.910629)"
           id="path24134"
           d="m 7016.2812,-100.8125 c 0.3513,0.15004 0.6739,0.37899 1.0313,0.5 0.3086,0.10449 0.6261,0.10598 0.9375,0.1875 -0.6638,-0.17602 -1.3224,-0.41121 -1.9688,-0.6875 z"
           style="color:#000000;fill:#bf7348;fill-opacity:1;fill-rule:nonzero;stroke:none;stroke-width:50;marker:none;visibility:visible;display:inline;overflow:visible;enable-background:accumulate" />
        <path
           id="path24138"
           transform="matrix(0.12876573,0,0,0.13116319,1526.2212,-269.3993)"
           d="m 6072.25,1146.6562 c -238.7967,26.8747 -330.4375,77.6461 -479.5625,102.5 -59.7091,9.9517 -138.5654,-6.2861 -206.5,-27.0624 -3.9182,1.2308 -7.804,2.4719 -11.6563,3.7187 70.4368,22.3311 154.4636,41.0529 219.2813,30.25 157.6821,-26.2804 250.1582,-80.7567 516.0625,-106.25 -12.4945,-1.1596 -25.0455,-2.2231 -37.625,-3.1563 z m 220.0625,28.0626 c -236.6865,4.3404 -416.1492,23.0333 -631.8125,117.7187 -20.6725,9.0761 -59.2896,12.339 -111.2188,10.5313 -51.928,-1.8078 -117.3081,-8.4392 -192.4062,-18.0938 -30.0107,-3.8582 -61.6381,-8.2293 -94.5312,-12.9375 -4.8352,2.0056 -10.0401,4.0363 -15.3126,5.875 38.0413,5.5015 74.4999,10.5847 108.8438,15 75.2205,9.6703 140.7513,16.3018 193.125,18.125 52.3744,1.8232 91.4297,-0.9313 114.7188,-11.1563 226.0824,-99.2596 411.8731,-114.5657 667.625,-117.6874 -12.8484,-2.5557 -25.8588,-5.0059 -39.0313,-7.375 z m 142.0625,30.5937 c -144.7836,5.4359 -275.2305,15.8835 -381.75,29.0625 -85.7726,10.6121 -156.03,22.9764 -205.9375,36 -24.954,6.5118 -44.815,13.1698 -59.125,19.9688 -14.31,6.7988 -23.5923,13.4172 -26.0313,22.2187 -0.4784,1.7264 -0.068,3.7603 0.7813,5.1563 0.8493,1.3957 1.9729,2.3633 3.25,3.2187 2.5538,1.7108 5.8825,3.0132 10.2187,4.3437 8.6726,2.6614 21.322,5.1469 37.75,7.5626 32.8566,4.8311 80.6651,9.3541 139.6563,13.5312 117.9825,8.3541 280.6245,15.357 456.5313,20.6875 84.105,2.5487 171.2321,4.6936 257.9687,6.4375 0.01,2e-4 0.021,-2e-4 0.031,0 32.9876,-1.028 73.2482,-2.3005 98.9374,-3.3125 -0.3721,-0.967 -0.7694,-1.9291 -1.2187,-2.9063 -118.3046,-1.9563 -239.7526,-4.7112 -355.5,-8.2187 -175.8436,-5.3286 -338.4076,-12.3477 -456.1875,-20.6875 -58.8903,-4.1699 -106.6035,-8.6648 -139.0625,-13.4375 -16.2293,-2.3864 -28.6648,-4.8577 -36.5625,-7.2813 -3.9489,-1.2116 -6.784,-2.4765 -8.125,-3.375 -0.2646,-0.1761 -0.2039,-0.155 -0.3438,-0.2812 1.6589,-4.1422 8.4957,-10.3331 21.3438,-16.4375 13.5394,-6.4328 33.0227,-13.0011 57.6875,-19.4375 49.3296,-12.8728 119.3578,-25.2282 204.9063,-35.8125 112.7184,-13.9459 252.4314,-24.8621 407.6562,-29.9687 -8.8163,-2.3771 -17.775,-4.7241 -26.875,-7.0313 z m 71.0625,19.5937 c -93.3576,3.2541 -184.0715,7.9337 -265.1875,13.7188 -91.3414,6.5144 -170.5708,14.4461 -227.7188,23.2812 -28.5739,4.4178 -51.5668,9.0566 -68.0312,13.9376 -8.2322,2.4404 -14.8355,5.0156 -19.75,7.6874 -4.9149,2.6719 -8.4944,5.3709 -9.6562,9.5626 -0.4547,1.6412 0.068,3.5963 0.9374,4.7187 0.8716,1.1224 1.9985,1.8079 3.1876,2.4687 2.3784,1.3218 5.4639,2.3484 9.5624,3.4376 8.1982,2.1782 20.1342,4.2814 35.6563,6.375 31.0435,4.1868 76.1399,8.3215 131.4687,12.2812 110.6578,7.9195 262.3458,15.2513 424.5,21.25 76.9314,2.846 156.1854,5.3585 234.5313,7.5312 -1.9602,-2.361 -4.1261,-4.7576 -6.4687,-7.1562 -76.1347,-2.1301 -153.0189,-4.5803 -227.7188,-7.3438 -162.1051,-5.9968 -313.8662,-13.3411 -424.375,-21.25 -55.2548,-3.9544 -100.214,-8.1332 -130.9688,-12.2812 -15.3777,-2.074 -27.2147,-4.1291 -34.8437,-6.1562 -3.6971,-0.9824 -6.3668,-1.9458 -7.8125,-2.7188 0.6119,-1.0619 1.7216,-2.6415 5.3125,-4.5938 4.1926,-2.2793 10.4812,-4.7352 18.4375,-7.0937 15.9118,-4.7171 38.6906,-9.2963 67.0938,-13.6875 56.8055,-8.7824 135.8981,-16.7751 227.125,-23.2812 86.8782,-6.1962 184.8504,-11.113 285.2812,-14.375 -6.7421,-2.119 -13.5841,-4.2264 -20.5625,-6.3126 z m 51.9375,16.5626 c -35.3352,1.8455 -69.4688,3.9499 -101.7188,6.25 -73.9774,5.2759 -138.0339,11.6215 -184.3437,18.7812 -23.1545,3.5799 -41.8961,7.3757 -55.2813,11.3438 -6.6924,1.9838 -12.0138,3.9553 -16.0624,6.1562 -4.0483,2.2009 -7.1283,4.5409 -8.1563,8.25 -0.4271,1.5414 0.1434,3.3525 0.9375,4.375 0.7937,1.0225 1.5846,1.6892 2.5938,2.25 2.0182,1.1216 4.6848,1.9546 8.0312,2.8438 6.6924,1.7783 16.3539,3.4904 28.9375,5.1874 25.166,3.3944 61.7197,6.6993 106.5313,9.9063 89.6228,6.414 212.4047,12.2672 343.7187,17.125 18.9741,0.7019 38.1551,1.3442 57.4063,2 -2.7282,-2.4082 -5.6662,-4.8161 -8.75,-7.25 -16.2012,-0.5591 -32.3181,-1.1271 -48.3126,-1.7187 -131.2645,-4.856 -254.0882,-10.7216 -343.5624,-17.125 -44.7368,-3.2018 -81.1853,-6.5511 -106.0626,-9.9063 -12.4388,-1.6776 -22.0014,-3.3417 -28.125,-4.9687 -2.5542,-0.6789 -4.1223,-1.3255 -5.3124,-1.875 0.5979,-0.7536 1.0114,-1.6499 3.4374,-2.9688 3.3268,-1.8084 8.3335,-3.6291 14.75,-5.5312 12.8327,-3.8043 31.3601,-7.5717 54.3438,-11.125 45.9677,-7.1068 109.9183,-13.5135 183.7812,-18.7813 33.0233,-2.3552 68.0902,-4.4733 104.3438,-6.3437 0.7146,-1.6432 1.6572,-3.2652 2.875,-4.8438 -1.9673,-0.6811 -4.0069,-1.3522 -6,-2.0312 z m -1382.5625,73.0937 c -3.5828,2.3253 -7.0246,4.6253 -10.3437,6.9375 512.1566,54.4558 1374.8488,135.064 2094.25,147.3438 l 0.1562,-8 c -714.4718,-12.1989 -1570.8464,-91.8597 -2084.0625,-146.2813 z m 2080.7813,62.8125 -56.5626,0.094 c -0.021,0.3497 -0.056,0.6851 -0.094,1.0312 19.5978,-0.083 38.5457,-0.1777 56.75,-0.3438 l -0.094,-0.7812 z m -326.3126,0.094 c 86.8668,0.8904 169.4152,1.2967 243.5313,1.125 -0.025,-0.3307 -0.027,-0.6578 -0.031,-1 l -243.5,-0.125 z m -2232.8124,23.5937 -0.1876,8.1563 c 121.9971,21.51 305.2191,37.8839 520.5938,50.5 284.3656,16.6572 624.3592,26.6088 951.3125,32.5 445.6914,8.0304 866.7465,8.464 1089.9687,7.9374 l 0.1563,-8 c -223.1489,0.5268 -644.2751,0.094 -1090,-7.9374 -326.891,-5.8901 -666.7887,-15.8537 -950.9687,-32.5 -215.8699,-12.6453 -399.7202,-29.253 -520.875,-50.6563 z m 11.3124,62.9687 c -0.7265,0.032 -1.5341,0.064 -2.25,0.094 l -9,6.4375 c 99.4957,4.2284 217.0726,8.8978 332,13.4687 119.6217,4.7578 235.8434,9.4049 324.1876,13.3126 39.2496,1.736 70.3477,3.235 96.4374,4.625 -25.9978,0.523 -54.4565,1.0298 -94.3437,1.4374 -99.7255,1.0195 -235.7491,1.7032 -372.8125,2.1563 -100.9889,0.3339 -197.7973,0.4918 -285.7812,0.625 l 0.1874,7 c 87.936,-0.1332 184.6781,-0.2914 285.5938,-0.625 137.071,-0.4531 273.1166,-1.1365 372.875,-2.1563 49.8792,-0.5097 90.6864,-1.0864 118.0312,-1.7812 13.6725,-0.3473 23.9795,-0.7205 30.4376,-1.125 3.2288,-0.2022 5.4003,-0.403 6.9374,-0.6875 0.3844,-0.071 0.7325,-0.1225 1.1876,-0.2813 0.2267,-0.079 0.4883,-0.1667 0.875,-0.4062 0.3866,-0.2392 1.0468,-0.6286 1.5,-1.8438 0.4531,-1.215 -0.064,-2.9414 -0.625,-3.5937 -0.5606,-0.6523 -0.9831,-0.7944 -1.2813,-0.9375 -0.596,-0.2861 -0.9293,-0.3522 -1.3125,-0.4375 -2.7224,-0.605 -7.793,-1.0712 -16.0312,-1.6875 -8.2383,-0.6163 -19.3313,-1.3078 -32.9376,-2.0625 -27.2118,-1.5094 -64.4396,-3.2646 -108.625,-5.2187 -88.3706,-3.9089 -204.5959,-8.5547 -324.2187,-13.3126 -110.7943,-4.4065 -223.8328,-8.8944 -321.0313,-13 z M 7258,1532.2812 c -242.6106,1.2243 -693.2742,3.4042 -1168.5938,4.9688 -344.1376,1.1328 -693.3929,1.9199 -966.7812,1.75 -184.9596,-0.1148 -335.236,-0.6927 -425.625,-1.875 l 0.1875,8.0312 c 90.5525,1.1939 240.396,1.7288 425.4375,1.8438 273.408,0.1701 622.6691,-0.6172 966.8125,-1.75 475.296,-1.5645 925.9411,-3.7445 1168.5625,-4.9688 l 0,-8 z"
           style="opacity:0.5;color:#000000;fill:#f6de78;fill-opacity:1;fill-rule:nonzero;stroke:none;stroke-width:50;marker:none;visibility:visible;display:inline;overflow:visible;enable-background:accumulate"
           inkscape:connector-curvature="0" />
        <path
           id="path24136"
           transform="matrix(0.12876573,0,0,0.13116319,1526.2212,-269.3993)"
           d="m 6048.375,1145.0312 c -221.2021,27.4744 -311.6437,75.6179 -455.6875,99.625 -57.5853,9.5977 -132.9879,-5.1455 -199.2187,-24.8437 -3.9885,1.2298 -7.9529,2.4722 -11.875,3.7187 68.9307,21.3257 149.5626,38.474 212.2187,28.0313 152.8783,-25.4797 244.4485,-77.4656 492.2187,-103.8437 -12.5165,-1.0147 -25.0726,-1.9064 -37.6562,-2.6876 z m 220.9375,25.6876 c -225.4268,5.17 -400.1985,25.6283 -608.8125,117.2187 -20.6725,9.0761 -59.2898,12.339 -111.2188,10.5313 -51.9284,-1.8079 -117.3081,-8.4392 -192.4062,-18.0938 -27.6494,-3.5546 -56.6385,-7.5286 -86.75,-11.8125 -4.3505,1.9246 -9.175,4.0202 -14.3438,6.0313 34.8728,5.0121 68.3933,9.6433 100.0938,13.7187 75.2205,9.6703 140.751,16.3018 193.125,18.125 52.3744,1.8232 91.4296,-0.9312 114.7188,-11.1563 219.6726,-96.4455 401.3328,-113.6147 646.0624,-117.375 -13.33,-2.5102 -26.8233,-4.8836 -40.4687,-7.1874 z m 149.4063,30.7187 c -138.537,5.5859 -263.4248,15.7349 -366.0938,28.4375 -85.7726,10.6121 -156.03,22.9764 -205.9375,36 -24.954,6.5118 -44.815,13.1697 -59.125,19.9688 -14.31,6.7989 -23.5922,13.4172 -26.0313,22.2187 -0.4784,1.7264 -0.068,3.7603 0.7813,5.1563 0.8493,1.3957 1.9729,2.3633 3.25,3.2187 2.5538,1.7108 5.8825,3.0132 10.2187,4.3437 8.6727,2.6615 21.322,5.1468 37.75,7.5626 32.8567,4.8311 80.6651,9.3541 139.6563,13.5312 117.9825,8.3541 280.6244,15.357 456.5313,20.6875 112.4346,3.4071 230.2397,6.1155 345.3124,8.0625 3.921,-0.1443 8.1765,-0.3016 11.625,-0.4375 -0.9419,-2.4477 -2.1613,-4.9269 -3.5937,-7.4375 -117.5532,-1.9542 -238.1542,-4.7035 -353.125,-8.1875 -175.8436,-5.3286 -338.4076,-12.3477 -456.1875,-20.6875 -58.8903,-4.1699 -106.6035,-8.6648 -139.0625,-13.4375 -16.2293,-2.3864 -28.6648,-4.8577 -36.5625,-7.2813 -3.9489,-1.2117 -6.784,-2.4765 -8.125,-3.375 -0.2646,-0.1761 -0.2038,-0.155 -0.3438,-0.2812 1.659,-4.1422 8.4957,-10.3331 21.3438,-16.4375 13.5394,-6.4328 33.0227,-13.0011 57.6875,-19.4375 49.3296,-12.8728 119.3577,-25.2282 204.9063,-35.8125 109.0951,-13.4976 243.4921,-24.1376 392.75,-29.4375 -9.0608,-2.3609 -18.2861,-4.6529 -27.625,-6.9375 z m 73.0937,19.4375 c -88.5429,3.2276 -174.4021,7.747 -251.5625,13.25 -91.3414,6.5144 -170.5707,14.446 -227.7188,23.2812 -28.5739,4.4178 -51.5668,9.0566 -68.0312,13.9376 -8.2322,2.4404 -14.8355,5.0156 -19.75,7.6874 -4.9149,2.672 -8.4944,5.3708 -9.6562,9.5626 -0.4548,1.6412 0.068,3.5963 0.9374,4.7187 0.8717,1.1224 1.9984,1.8079 3.1876,2.4687 2.3784,1.3219 5.4636,2.3483 9.5624,3.4376 8.1983,2.1783 20.1342,4.2814 35.6563,6.375 31.0435,4.1869 76.1399,8.3215 131.4687,12.2812 110.6579,7.9195 262.3458,15.2513 424.5,21.25 75.6142,2.7973 153.4652,5.2894 230.5,7.4375 -2.2047,-2.3832 -4.5757,-4.7702 -7.1562,-7.1875 -74.5933,-2.1003 -149.8423,-4.5124 -223,-7.2188 -162.1051,-5.9968 -313.8658,-13.341 -424.375,-21.25 -55.2548,-3.9544 -100.2139,-8.1332 -130.9688,-12.2812 -15.3777,-2.074 -27.2147,-4.1291 -34.8437,-6.1562 -3.6971,-0.9825 -6.3668,-1.9458 -7.8125,-2.7188 0.6119,-1.0619 1.7216,-2.6415 5.3125,-4.5938 4.1926,-2.2793 10.4812,-4.7352 18.4375,-7.0937 15.9118,-4.7171 38.6905,-9.2963 67.0938,-13.6875 56.8055,-8.7824 135.898,-16.775 227.125,-23.2812 83.1072,-5.9272 176.3687,-10.6788 272.2187,-13.9376 -6.9221,-2.1069 -13.9719,-4.2108 -21.125,-6.2812 z m 54.125,16.75 c -31.2492,1.6918 -61.5401,3.5439 -90.2813,5.5938 -73.9774,5.2759 -138.0339,11.6215 -184.3437,18.7812 -23.1545,3.5799 -41.896,7.3757 -55.2813,11.3438 -6.6924,1.9839 -12.0138,3.9553 -16.0624,6.1562 -4.0484,2.2009 -7.1283,4.5409 -8.1563,8.25 -0.4271,1.5414 0.1438,3.3525 0.9375,4.375 0.7937,1.0225 1.5845,1.6892 2.5938,2.25 2.0182,1.1216 4.6848,1.9545 8.0312,2.8438 6.6924,1.7783 16.3543,3.4904 28.9375,5.1874 25.166,3.3944 61.7199,6.6993 106.5313,9.9063 89.6228,6.414 212.4047,12.2672 343.7187,17.125 17.1718,0.6353 34.5017,1.2461 51.9063,1.8437 -2.9603,-2.4276 -6.0953,-4.8624 -9.4063,-7.3124 -14.1178,-0.4916 -28.2002,-0.9838 -42.1563,-1.5 -131.2648,-4.8561 -254.0882,-10.7216 -343.5624,-17.125 -44.7369,-3.2019 -81.1852,-6.5511 -106.0626,-9.9063 -12.4388,-1.6776 -22.0013,-3.3416 -28.125,-4.9687 -2.5542,-0.6789 -4.1223,-1.3255 -5.3124,-1.875 0.5979,-0.7537 1.0114,-1.6499 3.4374,-2.9688 3.3269,-1.8084 8.3335,-3.6291 14.75,-5.5312 12.8328,-3.8044 31.3601,-7.5717 54.3438,-11.125 45.9677,-7.1069 109.9183,-13.5135 183.7812,-18.7813 33.8506,-2.4142 69.8367,-4.5648 107.0626,-6.4687 0.055,-0.073 0.1,-0.1459 0.1562,-0.2188 -5.693,-1.9709 -11.5309,-3.9226 -17.4375,-5.875 z m -1365.0625,73.0938 c -3.6966,2.3125 -7.2787,4.6042 -10.7188,6.9062 512.8677,54.4486 1371.9016,134.5212 2088.6563,146.75 l 0.1563,-8 C 6547.3169,1444.23 5694.7882,1365.1254 5180.875,1310.7188 z m -484.2812,85.8437 -0.1876,8.1875 c 121.9973,21.4992 305.1669,37.8569 520.4688,50.4688 284.3656,16.6573 624.3592,26.6088 951.3125,32.5 445.75,8.0315 866.8631,8.4644 1090.0625,7.9374 l 0.125,-8 c -223.1336,0.527 -644.2985,0.094 -1090.0625,-7.9374 -326.891,-5.8902 -666.7887,-15.8536 -950.9687,-32.5 -215.7973,-12.641 -399.5938,-29.2635 -520.75,-50.6563 z m 58.3124,64.9375 c -16.6797,1.0151 -34.2443,1.9909 -49.375,2.625 l -3.0624,2.1875 c 98.2736,4.1637 213.3446,8.7357 326.0624,13.2187 119.6218,4.7579 235.8433,9.4049 324.1876,13.3126 39.2496,1.736 70.3477,3.2349 96.4374,4.625 -25.9982,0.5231 -54.4565,1.0298 -94.3437,1.4374 -99.7255,1.0196 -235.7491,1.7032 -372.8125,2.1563 -101.0252,0.334 -197.8692,0.5231 -285.875,0.6563 l 0.1562,7 c 87.9652,-0.1332 184.7546,-0.3225 285.7188,-0.6563 137.071,-0.4531 273.1166,-1.1365 372.875,-2.1563 49.8792,-0.5098 90.6864,-1.0864 118.0312,-1.7812 13.6726,-0.3473 23.9794,-0.7205 30.4376,-1.125 3.2288,-0.2022 5.4003,-0.403 6.9374,-0.6875 0.3845,-0.071 0.7324,-0.1224 1.1876,-0.2813 0.2267,-0.079 0.4882,-0.1667 0.875,-0.4062 0.3866,-0.2392 1.0467,-0.6285 1.5,-1.8438 0.4531,-1.215 -0.064,-2.9414 -0.625,-3.5937 -0.5607,-0.6523 -0.9831,-0.7944 -1.2813,-0.9375 -0.596,-0.2861 -0.9293,-0.3523 -1.3125,-0.4375 -2.7224,-0.605 -7.793,-1.0712 -16.0312,-1.6875 -8.2384,-0.6163 -19.3312,-1.3078 -32.9376,-2.0625 -27.2118,-1.5094 -64.4395,-3.2645 -108.625,-5.2187 -88.3706,-3.9089 -204.5959,-8.5547 -324.2187,-13.3126 -93.1957,-3.7066 -188.1376,-7.4815 -273.9063,-11.0312 z M 7258,1527.7812 c -242.6106,1.2243 -693.2742,3.4042 -1168.5938,4.9688 -344.1376,1.1328 -693.3929,1.9199 -966.7812,1.75 -185.0417,-0.1149 -335.3742,-0.6916 -425.75,-1.875 l 0.1875,8.0312 c 90.5399,1.195 240.4392,1.7288 425.5625,1.8438 273.408,0.1701 622.6691,-0.6172 966.8125,-1.75 475.296,-1.5645 925.9411,-3.7445 1168.5625,-4.9688 l 0,-8 z"
           style="color:#000000;fill:#caab43;fill-opacity:1;fill-rule:nonzero;stroke:none;stroke-width:50;marker:none;visibility:visible;display:inline;overflow:visible;enable-background:accumulate"
           inkscape:connector-curvature="0" />
        <path
           sodipodi:nodetypes="sccccccccccccccsccccccccsccccccccsccccccccccccccccccccccccccc"
           inkscape:connector-curvature="0"
           id="path24140"
           transform="matrix(0.12876573,0,0,0.13116319,1526.2212,-269.3993)"
           d="m 5934.5625,1141.4062 c -218.3669,0 -418.8855,37.7436 -567.8437,86.9376 -20.8659,10.4912 -79.625,32.3124 -79.625,32.3124 0,0 -30.0854,15.4121 -54.6563,21.5938 -8.8046,4.3416 -17.0932,8.6736 -25.0625,13.0312 -0.478,0.2616 -0.9936,0.5512 -1.4688,0.8126 -1.938,1.0671 -3.7368,2.1508 -5.625,3.2187 -3.3998,1.922 -6.5202,3.8303 -9.75,5.75 -37.6737,22.3891 -63.9065,44.5368 -76,64.5937 4.6071,0.8451 10.1757,1.657 16.25,2.4376 17.9846,-23.306 49.9283,-48.7579 95.9376,-71.9688 1.9603,-0.9891 3.7159,-1.9188 5.7187,-2.9062 9.157,-2.3042 18.7158,-5.9345 27.5625,-9.5313 14.8914,-6.0542 27.0938,-12.0937 27.0938,-12.0937 0,0 58.7591,-21.8212 79.625,-32.3126 148.9588,-49.1938 349.4768,-90.7187 567.8437,-90.7187 87.3843,0 175.4397,0.8771 259.6563,14.0937 14.9615,2.3484 29.3989,5.1419 44.0937,7.7813 121.661,21.8547 233.6093,52.7078 320.5313,82.4375 -0.099,-4.5323 1.2036,-9.0692 4.5,-13.3438 -72.3853,-25.0604 -162.764,-48.6095 -261.7188,-66.875 -4.6974,-0.8675 -9.2298,-1.8142 -13.9688,-2.6562 -7.2347,-1.2788 -14.522,-2.5337 -21.8437,-3.75 -7.964,-1.3325 -16.1619,-2.4002 -24.2187,-3.6562 -98.3344,-15.3279 -202.9839,-25.1876 -307.0313,-25.1876 z m 625.625,122.625 c -2.6184,6.6385 -1.5032,13.0843 1.7813,18.6563 1.6125,2.7376 3.8902,5.1498 6.4374,7.3437 12.0014,10.3345 32.2632,13.5657 44.5313,-0.125 1.9465,-2.1718 3.7271,-4.6543 5.1875,-7.7187 0.1581,-0.3393 0.4084,-0.618 0.5625,-0.9687 0.7233,0.3082 1.3098,0.66 2.0313,0.9687 5.9601,2.5609 11.4438,5.0763 17.0937,7.6563 28.6288,13.0717 53.2388,26.3748 73.125,39.4687 3.6085,2.376 7.0787,4.8256 10.375,7.1875 9.5034,6.8113 17.6964,13.5084 24.4687,20.125 2.4684,2.4129 4.63,4.7797 6.7188,7.1562 1.9986,2.2743 3.8536,4.5136 5.5312,6.75 2.8997,-0.1078 5.5962,-0.2095 8.2188,-0.3124 -0.9548,-2.2925 -2.0781,-4.6019 -3.375,-6.9376 -1.1403,-2.0532 -1.9419,-4.0021 -3.4062,-6.0937 -0.2551,-0.3682 -0.4167,-0.7553 -0.6876,-1.125 -0.02,-0.028 -0.043,-0.035 -0.062,-0.062 -4.7845,-6.5927 -11.6724,-13.4295 -19.5,-20.3125 -2.7174,-2.39 -5.2768,-4.7409 -8.3438,-7.1563 -16.169,-12.7267 -37.4217,-25.7321 -62.5625,-38.7187 -4.8555,-2.5087 -9.4613,-5.0607 -14.625,-7.5625 -0.02,0 -0.1052,0.02 -0.125,0 -11.0132,-5.3351 -22.5299,-10.6401 -34.875,-15.9062 -2.1007,8.2315 -5.899,13.4291 -10.375,16.9062 -1.3596,1.0561 -2.8498,1.9138 -4.3437,2.5938 -0.6147,0.2806 -1.0864,0.8417 -1.7188,1.0624 -0.6561,0.2292 -1.3574,0.1461 -2.0312,0.3126 -1.5198,0.3754 -3.0754,0.644 -4.6563,0.7187 -0.7253,0.037 -1.3606,0.3354 -2.0937,0.3125 -0.8361,-0.026 -1.6875,-0.3992 -2.5313,-0.5 -1.4169,-0.1719 -2.7765,-0.3513 -4.1875,-0.7188 -0.7885,-0.2027 -1.6237,-0.2398 -2.4062,-0.5 -0.9052,-0.3011 -1.7045,-0.8766 -2.5938,-1.25 -1.3003,-0.5458 -2.5927,-1.0949 -3.8438,-1.7812 -8.0825,-4.4377 -14.9165,-11.5156 -17.7187,-19.4688 z"
           style="color:#000000;fill:#f6de78;fill-opacity:1;fill-rule:nonzero;stroke:none;stroke-width:50;marker:none;visibility:visible;display:inline;overflow:visible;enable-background:accumulate" />
      </g>
      <g
         transform="matrix(0.81057644,0,0,0.81057644,760.46122,523.47241)"
         id="g24142">
        <path
           style="color:#000000;fill:#ab8130;fill-opacity:1;fill-rule:nonzero;stroke:none;stroke-width:15;marker:none;visibility:visible;display:inline;overflow:visible;enable-background:accumulate"
           d="m 8254.7494,-305.37886 15.035,11.26979 1573.0614,5.62086 8.855,-11.5933 c -396.237,-5.71833 -810.7432,-5.95587 -1216.5423,-8.80555 z"
           id="path24144"
           inkscape:connector-curvature="0"
           transform="matrix(0.26458334,0,0,0.26458334,-6.3049604e-6,18.562493)"
           sodipodi:nodetypes="cccccc" />
        <path
           style="color:#000000;fill:#f6de78;fill-opacity:1;fill-rule:nonzero;stroke:none;stroke-width:4;marker:none;visibility:visible;display:inline;overflow:visible;enable-background:accumulate"
           d="m 9678.125,1611.1298 -111.1562,0.7812 -2.4376,8.75 -0.5937,27.6875 0.25,0.1875 c 1.8665,-12.6573 5.0322,-26.125 8.8437,-26.125 4.3092,0 112.0313,-5.1875 112.0313,-5.1875 0,0 337.3815,13.5961 342.5515,10.1489 4.217,-2.8112 -269.6452,-11.3989 -269.6452,-11.3989 z m 838.081,0.7187 c 11.245,1.0815 90.221,4.3707 105.419,5.5951 177.095,1.7783 190.156,1.5299 190.156,1.5299 0,0 10.351,11.1972 18.969,7.75 8.618,-3.4472 8.594,-10.3437 8.594,-10.3437 l 12.968,0 5.157,12.0624 3.562,29.4376 0.563,-30.5313 -2.156,-15.4375 -28.626,0.062 c -0.137,2.317 -0.988,4.5074 -3,5.625 -4.586,2.548 -10.218,-0.021 -10.281,-5.5625 z"
           transform="matrix(0.3264138,0,0,0.3264138,-938.17337,-622.90229)"
           id="path24146"
           inkscape:connector-curvature="0"
           sodipodi:nodetypes="cccccscscccccscccccccccc" />
        <path
           sodipodi:nodetypes="csscccccccsscsccc"
           inkscape:connector-curvature="0"
           style="opacity:0.3495575;color:#000000;fill:#ab8130;fill-opacity:1;fill-rule:nonzero;stroke:none;stroke-width:50;marker:none;visibility:visible;display:inline;overflow:visible;enable-background:accumulate"
           d="m 7589.2812,-482.09375 c -7.3009,0.11992 -17.4121,2.30714 -32.0312,4.5 -21.264,3.18961 -231.7914,-2.12711 -263.6875,1.0625 -24.5361,2.45361 -38.3477,-1.36502 -51.6563,-4.71875 l 0.5313,26.8125 10.0937,0.0937 356.7813,9.625 1230.0507,-8.90625 1.1563,-11.40625 -11.2813,-8.1875 c -8.6969,-0.15391 -16.2119,0.0273 -20.1562,0.9375 -13.8217,3.18961 -43.5888,6.37782 -51.0312,2.125 -7.4425,-4.25281 -1077.457,-6.375 -1077.457,-6.375 0,0 -22.9469,2.26092 -42.0846,-4.11831 -19.1377,-6.37922 -33.4105,3.05792 -40.853,-0.13169 -2.3257,-0.99675 -5.0563,-1.36701 -8.375,-1.3125 z"
           transform="matrix(0.26458334,0,0,0.26458334,267.84494,57.503508)"
           id="path24148" />
      </g>
      <path
         style="color:#000000;fill:#512e19;fill-opacity:1;fill-rule:nonzero;stroke:none;stroke-width:12;marker:none;visibility:visible;display:inline;overflow:visible;enable-background:accumulate"
         d="m 10509.636,1547.2835 c -1.993,2.7909 -2.259,7.4425 -1.462,9.436 0.798,1.9935 4.519,4.6515 5.848,5.7147 1.329,1.0632 1.993,1.5948 1.993,1.5948 0,0 -6.379,-17.41 -6.379,-16.7455 z"
         id="path24150"
         inkscape:connector-curvature="0"
         transform="matrix(0.26458334,0,0,0.26458334,-6.3049604e-6,18.562493)" />
    </g>
  </g>
</svg>
