<?xml version="1.0" encoding="UTF-8" standalone="no"?>
<!-- Created with Inkscape (http://www.inkscape.org/) -->

<svg
   xmlns:dc="http://purl.org/dc/elements/1.1/"
   xmlns:cc="http://creativecommons.org/ns#"
   xmlns:rdf="http://www.w3.org/1999/02/22-rdf-syntax-ns#"
   xmlns:svg="http://www.w3.org/2000/svg"
   xmlns="http://www.w3.org/2000/svg"
   xmlns:sodipodi="http://sodipodi.sourceforge.net/DTD/sodipodi-0.dtd"
   xmlns:inkscape="http://www.inkscape.org/namespaces/inkscape"
   width="1229.7378"
   height="336.13919"
   viewBox="0 0 325.36808 88.936831"
   version="1.1"
   id="svg23489"
   inkscape:version="0.48.5 r10040"
   sodipodi:docname="short_wooden_button_medium_wood.svg">
  <defs
     id="defs23483" />
  <sodipodi:namedview
     id="base"
     pagecolor="#7d848b"
     bordercolor="#666666"
     borderopacity="1.0"
     inkscape:pageopacity="0"
     inkscape:pageshadow="2"
     inkscape:zoom="0.16626794"
     inkscape:cx="1106.9849"
     inkscape:cy="1341.3375"
     inkscape:document-units="px"
     inkscape:current-layer="layer1"
     showgrid="false"
     inkscape:pagecheckerboard="false"
     showborder="true"
     units="px"
     inkscape:window-width="1920"
     inkscape:window-height="1017"
     inkscape:window-x="-8"
     inkscape:window-y="-8"
     inkscape:window-maximized="1"
     inkscape:showpageshadow="false"
     guidetolerance="28"
     fit-margin-top="25"
     fit-margin-left="25"
     fit-margin-right="25"
     fit-margin-bottom="25">
    <inkscape:grid
       type="xygrid"
       id="grid24034"
       spacingx="1px"
       spacingy="1px"
       empspacing="8"
       visible="true"
       enabled="true"
       snapvisiblegridlinesonly="true"
       originx="1549.0549px"
       originy="251.51569px" />
  </sodipodi:namedview>
  <metadata
     id="metadata23486">
    <rdf:RDF>
      <cc:Work
         rdf:about="">
        <dc:format>image/svg+xml</dc:format>
        <dc:type
           rdf:resource="http://purl.org/dc/dcmitype/StillImage" />
        <dc:title></dc:title>
        <cc:license
           rdf:resource="" />
        <dc:creator>
          <cc:Agent>
            <dc:title>Robert Brooks</dc:title>
          </cc:Agent>
        </dc:creator>
      </cc:Work>
    </rdf:RDF>
  </metadata>
  <g
     inkscape:label="Layer 1"
     inkscape:groupmode="layer"
     id="layer1"
     transform="translate(409.85414,-274.61012)">
    <g
       transform="matrix(1.7516774,0,0,1.7516774,-7027.1524,-501.77273)"
       id="g5447">
      <path
         id="path5449"
         d="m 3813.9458,449.27547 -29.4085,0.20777 -0.6434,2.3122 -0.1609,7.32532 1.9704,1.53476 -1.9704,1.41413 0.3217,21.7303 0.04,0.0335 0,0.0871 0.094,0 3.2639,2.89528 63.2002,0.54286 104.3571,0.58308 1.9033,-2.48645 0.2413,-6.69093 -2.7277,-1.98381 c 0,0 1.6903,-0.69949 2.7277,-1.23317 l 0,-8.44456 0.248,-13.53811 -0.5697,-4.08153 -7.5733,0.0134 c -0.037,0.61305 -0.2652,1.19215 -0.7975,1.48785 -1.2135,0.67417 -2.6976,-0.008 -2.7144,-1.47445 l -92.1124,-0.12063 -18.5579,1.16615 z"
         style="color:#000000;fill:#3b2213;fill-opacity:1;fill-rule:nonzero;stroke:#3b2213;stroke-width:4.53137112;stroke-linejoin:round;stroke-miterlimit:4;stroke-opacity:1;stroke-dasharray:none;marker:none;visibility:visible;display:inline;overflow:visible;enable-background:accumulate"
         inkscape:connector-curvature="0"
         sodipodi:nodetypes="cccccccccccccccccccccccccc" />
      <path
         id="path5451"
         d="m 3813.9423,449.27357 -29.4019,0.20777 -0.6434,2.3122 -0.1675,7.32532 0.2815,0.21446 c 6.8773,0.30755 16.8653,0.67935 15.8972,0.81765 -0.9276,0.13251 -9.1617,0.70794 -14.8182,0.94499 l -1.3605,0.97179 0.3686,21.85094 2.1647,0.0201 76.5172,2.06422 94.1297,-1.91008 0.248,-5.33042 -1.5512,-0.70509 c -1.3149,-0.15177 -5.8115,-1.03251 -7.5904,-1.14466 -0.4554,0.0114 -0.7539,0.006 -0.6635,-0.0201 0.062,-0.0177 0.3218,-10e-4 0.6635,0.0201 1.4635,-0.0367 5.0827,-0.23523 7.0706,-0.41552 0.5793,-0.2476 1.3842,-0.59842 2.071,-0.95169 l 0,-8.44456 0.248,-13.53811 -0.5697,-4.08153 -7.5733,0.0134 c -0.037,0.61305 -0.2652,1.19215 -0.7976,1.48785 -1.2135,0.67417 -2.6976,-0.008 -2.7143,-1.47445 l -92.1191,-0.11395 -18.5579,1.15945 z"
         style="color:#000000;fill:#ab653c;fill-opacity:1;fill-rule:nonzero;stroke:none;stroke-width:50;marker:none;visibility:visible;display:inline;overflow:visible;enable-background:accumulate"
         inkscape:connector-curvature="0"
         sodipodi:nodetypes="cccccscccccccccccccccccccccc" />
      <path
         inkscape:connector-curvature="0"
         id="path5453"
         transform="matrix(0.26458334,0,0,0.26458334,556.64647,-175.39853)"
         d="m 12311.062,2361 -111.156,0.7812 -2.437,8.7188 -0.594,27.6875 0.281,0.2187 c 1.866,-12.6572 5.002,-26.1562 8.813,-26.1562 4.309,0 112.031,-5.1562 112.031,-5.1562 0,0 76.704,10.3222 81.875,6.875 5.17,-3.4472 68.062,-6.8618 74.094,-6 2.072,0.2959 45.284,0.4349 96.281,0.5624 4.704,-0.5772 9.577,-1.1958 14.219,-1.75 15.724,-1.877 31.082,-3.6112 45.937,-5.125 l 60.719,0.063 -230.063,-0.3126 -70.156,4.375 -79.844,-4.7812 z m 380.063,0.7188 c -8.886,0.4868 -18.074,1.137 -27.563,1.9062 -9.485,0.7691 -19.274,1.6534 -29.281,2.6562 -6.685,0.6702 -14.02,1.6188 -20.906,2.375 90.439,0.1522 190.063,0.1563 190.063,0.1563 0,0 10.35,11.1973 18.968,7.75 8.618,-3.4472 8.594,-10.3437 8.594,-10.3437 l 12.969,0 5.156,12.0624 0.75,6.2813 c 1.048,0.019 2.172,0.044 3.25,0.062 l 0.125,-7.4375 -2,-14.4063 -0.03,0 c -8.099,-0.3061 -17.595,-0.6336 -28.719,-0.9062 l 0,-0.062 -0.03,0 c -0.14,2.3171 -0.988,4.5074 -3,5.625 -4.586,2.5481 -10.218,-0.023 -10.281,-5.5625 l -118.063,-0.1562 z m 159.375,27.875 1.719,14.1874 c -0.254,27.3905 -2.617,50.5734 -2.844,52.625 -0.242,2.1681 -3.381,3.1433 -4.344,3.625 -0.964,0.4821 -2.905,2.1563 -7,2.1563 -3.929,0 -46.606,2.6961 -48.156,3.125 1.042,0.1157 16.016,0.2906 31.156,0.4375 -1.234,-0.15 -2.369,-0.2551 -3.281,-0.3125 -1.721,0.043 -2.841,4e-4 -2.5,-0.094 0.234,-0.067 1.209,0.011 2.5,0.094 5.532,-0.1387 19.206,-0.8811 26.719,-1.5625 2.189,-0.9358 5.248,-2.2584 7.843,-3.5938 l 0,-31.9374 0.438,-23.5626 0.09,-5.3437 0.187,-9.8125 c -0.839,-0.015 -1.71,-0.016 -2.531,-0.031 z m -653.312,40.2187 1.031,62.0937 8.187,0.094 c 0,0 43.022,1.3138 73.313,1.8125 -0.788,0.023 -1.703,0.072 -2.469,0.094 l 218.344,5.875 289.562,-5.875 c -16.694,-2.0827 -34.283,-3.5861 -44.312,-2.4062 -22.44,2.64 -200.226,-8.8035 -229.282,-8.2812 -0.936,0.019 -1.725,0.051 -2.343,0.094 -13.663,0.9422 -120.875,6.3958 -194.157,9.25 -6.367,0.1062 -15.165,0.1643 -27.656,0 -36.613,-0.4817 -81.424,-5.5639 -83.594,-7.25 -2.167,-1.6862 -5.534,-41.671 -6.5,-54.4375 -0.04,-0.4676 -0.08,-0.7295 -0.124,-1.0625 z m 536.718,34.875 c -2.426,-0.011 -4.517,0.012 -6.218,0.031 -4.443,0.055 -6.281,0.243 -4.876,0.5624 7.497,1.7036 101.175,3.4063 103.219,3.4063 2.044,0 20.781,4.4063 20.781,4.4063 0,0 0.329,15.3375 -1.374,14.6562 -1.102,-0.44 -22.213,3.1171 -37.813,5.6875 l 43.75,-0.875 0.937,-20.125 -5.874,-2.6875 c -4.086,-0.4713 -16.205,-2.7606 -24.157,-3.8125 -37.615,-0.4483 -71.395,-1.1887 -88.375,-1.25 z"
         style="color:#000000;fill:#d3865b;fill-opacity:1;fill-rule:nonzero;stroke:none;stroke-width:50;marker:none;visibility:visible;display:inline;overflow:visible;enable-background:accumulate" />
      <path
         sodipodi:nodetypes="cccccc"
         inkscape:connector-curvature="0"
         id="path5455"
         d="m 3784.5409,484.5768 2.7784,2.16206 167.6935,1.20547 1.8991,-2.48636 -91.2327,-1.88848 z"
         style="color:#000000;fill:#734125;fill-opacity:1;fill-rule:nonzero;stroke:none;stroke-width:15;marker:none;visibility:visible;display:inline;overflow:visible;enable-background:accumulate" />
      <path
         sodipodi:nodetypes="cccsc"
         inkscape:connector-curvature="0"
         id="path5457"
         d="m 3784.0078,459.33522 1.6956,1.3203 -0.6166,0.44234 c 5.6565,-0.23705 13.8937,-0.81248 14.8213,-0.94499 0.9681,-0.1383 -9.023,-0.5101 -15.9003,-0.81765 z"
         style="color:#000000;fill:#3b2213;fill-opacity:1;fill-rule:nonzero;stroke:none;stroke-width:4;marker:none;visibility:visible;display:inline;overflow:visible;enable-background:accumulate" />
      <g
         transform="translate(3773.3136,323.77716)"
         id="g5459"
         class="switchable"
         name="grain">
        <path
           id="path5461"
           d="m 125.12796,126.39628 c -15.72097,1.60197 -33.54514,4.13559 -51.370689,6.30039 -17.988717,2.18474 -35.966898,3.98618 -51.684461,4.07625 2.950336,0.13816 4.979938,0.25709 4.522449,0.32244 -0.835542,0.11938 -7.586104,0.60111 -13.055306,0.86818 17.701125,0.71456 39.030795,-1.36006 60.374489,-3.95224 24.235263,-2.94322 48.471908,-6.56778 67.278738,-7.59849 l -16.06522,-0.0165 z m 58.39863,0.0331 -7.57403,0.008 c -2.4e-4,0.006 5.7e-4,0.0112 0,0.0165 2.94645,0.0722 5.46231,0.15867 7.60677,0.23976 l -0.0324,-0.26458 z m -7.17709,5.92005 c -18.24705,-0.0274 -55.81678,3.95383 -91.529238,7.03628 -18.432184,1.59088 -36.364567,2.94317 -50.833032,3.38994 -7.234233,0.22344 -13.601473,0.22096 -18.727477,-0.0909 -1.745982,-0.10623 -3.337468,-0.25538 -4.779159,-0.43823 l 0.02513,1.33948 c 1.425318,0.17158 2.975707,0.31022 4.671433,0.41338 5.191661,0.31594 11.593026,0.32343 18.851576,0.0992 14.517181,-0.44826 32.458318,-1.80652 50.899256,-3.39823 36.882601,-3.18341 75.816861,-7.30774 93.100211,-7.01146 2.25616,0.0387 4.01406,0.0706 6.00289,0.1075 l 0.0251,-1.32291 c -1.9894,-0.0369 -3.74624,-0.0688 -6.00289,-0.1075 -0.54771,-0.009 -1.11438,-0.0157 -1.70334,-0.0165 z m 7.40826,5.45703 c -25.64737,0.39833 -44.85981,1.66254 -55.67809,3.06753 -2.88476,0.37462 -5.17634,0.7634 -6.84613,1.14927 -0.83473,0.19293 -1.51415,0.38621 -2.05051,0.58703 -0.53628,0.2009 -0.92811,0.37462 -1.24035,0.71935 -0.15555,0.17235 -0.29894,0.43921 -0.28094,0.74414 0.0178,0.30493 0.19202,0.54663 0.36379,0.70281 0.34344,0.31218 0.75302,0.45638 1.33112,0.62011 1.15621,0.32744 2.95934,0.60131 5.51492,0.82682 13.67289,1.20645 41.81448,0.79899 58.96903,0.39687 l 0,-1.33119 c -17.16428,0.39711 -45.35086,0.80282 -58.85311,-0.3886 -2.51701,-0.22206 -4.28333,-0.4986 -5.26705,-0.77721 -0.21115,-0.0598 -0.21456,-0.0835 -0.34717,-0.14055 0.113,-0.0587 0.10351,-0.0689 0.27284,-0.13229 0.45028,-0.16867 1.08585,-0.35274 1.88516,-0.53745 1.59829,-0.36938 3.85494,-0.75321 6.71376,-1.12448 10.74079,-1.39491 29.99579,-2.66321 55.6866,-3.05924 l 0.0243,-1.32292 c -0.0649,9.7e-4 -0.13342,-9.7e-4 -0.19851,0 z m 0.0828,11.67474 c -9.74483,0.27361 -44.46028,1.24749 -84.931223,2.30685 -23.272541,0.60912 -46.711413,1.19486 -64.649388,1.59576 -8.968785,0.20044 -16.563968,0.35398 -22.07605,0.4382 -0.546896,0.008 -0.974961,0.009 -1.480031,0.0166 l 0.02513,1.32291 c 0.504259,-0.007 0.934756,-0.008 1.480031,-0.0166 5.517918,-0.0843 13.11383,-0.23772 22.084236,-0.4382 17.941137,-0.40097 41.376118,-0.98658 64.649389,-1.59575 40.438926,-1.05855 75.110196,-2.03208 84.898156,-2.30685 l 0,-1.32292 z"
           style="opacity:0.25;color:#000000;fill:#d3865b;fill-opacity:1;fill-rule:nonzero;stroke:none;stroke-width:50;marker:none;visibility:visible;display:inline;overflow:visible;enable-background:accumulate"
           inkscape:connector-curvature="0" />
        <path
           sodipodi:nodetypes="csccsccccccccccsssccccscccccccsccccccscccscccscccccssccccssccc"
           style="color:#000000;fill:#a96138;fill-opacity:1;fill-rule:nonzero;stroke:none;stroke-width:50;marker:none;visibility:visible;display:inline;overflow:visible;enable-background:accumulate"
           d="m 125.12802,125.67524 c -15.72102,1.60197 -33.545203,4.13559 -51.370712,6.30039 -17.988757,2.18474 -30.661272,3.79256 -47.16198,4.39869 -0.835555,0.11938 -7.586134,0.60111 -13.055336,0.86818 17.701154,0.71456 39.030805,-1.36006 60.374478,-3.95224 24.235305,-2.94322 48.47193,-6.56778 67.27878,-7.59849 l -16.06523,-0.0164 z m 58.39857,0.0331 -7.57397,0.008 c 0,0.006 0,0.0111 0,0.0167 2.9464,0.0722 5.46233,0.15867 7.60677,0.23976 l -0.0328,-0.26458 z m -7.17709,5.92005 c -18.24699,-0.0274 -55.81677,3.95383 -91.529169,7.03628 -18.432198,1.59088 -36.364599,2.94317 -50.833074,3.38994 -7.234238,0.22345 -13.601436,0.22096 -18.727473,-0.0909 -1.745986,-0.10623 -3.337455,-0.25538 -4.779169,-0.43823 l 0.02381,1.33948 c 1.425311,0.17158 2.975769,0.31022 4.671484,0.41338 5.191654,0.31594 11.592983,0.32343 18.851563,0.0992 14.517158,-0.44826 32.45829,-1.80652 50.89922,-3.39823 36.882658,-3.18341 75.816888,-7.30774 93.100268,-7.01146 2.2561,0.0387 4.01399,0.0706 6.00286,0.1075 l 0.0238,-1.32291 c -1.98941,-0.0369 -3.74624,-0.0688 -6.00287,-0.1075 -0.54769,-0.009 -1.11443,-0.0156 -1.70339,-0.0164 z m 7.40833,5.45703 c -25.64738,0.39833 -44.85984,1.66254 -55.67812,3.06753 -2.88475,0.37462 -5.17631,0.7634 -6.8461,1.14927 -0.83476,0.19293 -1.51421,0.38621 -2.05052,0.58703 -0.53631,0.2009 -0.92816,0.37462 -1.24036,0.71935 -0.15558,0.17235 -0.29898,0.43921 -0.28099,0.74414 0.0185,0.30493 0.19209,0.54663 0.3638,0.70281 0.34343,0.31218 0.753,0.45638 1.33112,0.62011 1.15623,0.32744 2.95936,0.60132 5.51497,0.82682 13.67288,1.20645 41.81449,0.79899 58.96902,0.39687 l 0,-1.33119 c -17.16432,0.39711 -45.35091,0.80282 -58.85313,-0.3886 -2.51698,-0.22206 -4.28334,-0.4986 -5.26706,-0.77721 -0.21114,-0.0598 -0.21458,-0.0835 -0.34713,-0.14055 0.11297,-0.0587 0.10345,-0.0689 0.27278,-0.13229 0.45032,-0.16867 1.08585,-0.35274 1.88516,-0.53745 1.59835,-0.36938 3.85498,-0.75321 6.7138,-1.12448 10.74076,-1.39491 29.99582,-2.66321 55.68659,-3.05924 l 0.0238,-1.32292 c -0.0651,0 -0.13335,0 -0.19844,0 z m 0.0828,11.67474 c -9.74487,0.27361 -44.46032,1.24749 -84.931256,2.30685 -23.272486,0.60912 -46.711395,1.19486 -64.649352,1.59576 -8.968846,0.20044 -16.563975,0.35398 -22.07604,0.4382 -0.546894,0.008 -0.974989,0.01 -1.480079,0.0167 l 0.02381,1.32291 c 0.504295,-0.007 0.934772,-0.008 1.480079,-0.0167 5.517885,-0.0843 13.113808,-0.23773 22.084242,-0.43821 17.941132,-0.40097 41.376072,-0.98658 64.649352,-1.59575 40.438924,-1.05855 75.110184,-2.03208 84.898184,-2.30685 l 0,-1.32292 z"
           id="path5463"
           inkscape:connector-curvature="0" />
      </g>
      <path
         inkscape:connector-curvature="0"
         id="path5465"
         d="m 3957.2699,460.86254 c -0.035,0 -0.071,2.7e-4 -0.1075,0 l 0.091,0.7855 0.016,-0.7855 z"
         style="color:#000000;fill:#a4613c;fill-opacity:1;fill-rule:nonzero;stroke:none;stroke-width:4;marker:none;visibility:visible;display:inline;overflow:visible;enable-background:accumulate" />
      <path
         inkscape:connector-curvature="0"
         id="path5469"
         d="m 3957.3693,455.52955 c -0.2852,-0.005 -0.5823,-0.0114 -0.8598,-0.0167 l 0.1651,1.3312 c 0.2172,0.004 0.4479,0.004 0.6699,0.008 l 0.024,-1.32292 z"
         style="color:#000000;fill:#a4613c;fill-opacity:1;fill-rule:nonzero;stroke:none;stroke-width:4;marker:none;visibility:visible;display:inline;overflow:visible;enable-background:accumulate" />
      <path
         inkscape:connector-curvature="0"
         id="path5471"
         d="m 3949.2662,449.49371 c 0,0.006 0,0.0111 0,0.0167 2.9432,0.0721 5.4557,0.15875 7.5986,0.23977 l -0.033,-0.26459 -7.5655,0.008 z"
         style="color:#000000;fill:#a4613c;fill-opacity:1;fill-rule:nonzero;stroke:none;stroke-width:4;marker:none;visibility:visible;display:inline;overflow:visible;enable-background:accumulate" />
      <path
         inkscape:connector-curvature="0"
         id="path5473"
         d="m 3914.5068,449.46892 -16.0652,-0.0164 c -3.9304,0.4005 -7.9941,0.85936 -12.1544,1.35599 -1.2282,0.14663 -2.5175,0.3103 -3.7621,0.46302 3.7489,0.009 7.34,0.0262 11.4104,0.0331 1.8222,-0.2001 3.7626,-0.45111 5.5314,-0.62838 2.6477,-0.26538 5.2374,-0.4993 7.7472,-0.70279 2.5099,-0.20352 4.9417,-0.37555 7.2927,-0.50438 z"
         style="color:#000000;fill:#ca6d3a;fill-opacity:1;fill-rule:nonzero;stroke:none;stroke-width:4;marker:none;visibility:visible;display:inline;overflow:visible;enable-background:accumulate" />
    </g>
  </g>
</svg>
