<?xml version="1.0" encoding="UTF-8" standalone="no"?>
<!-- Created with Inkscape (http://www.inkscape.org/) -->

<svg
   xmlns:dc="http://purl.org/dc/elements/1.1/"
   xmlns:cc="http://creativecommons.org/ns#"
   xmlns:rdf="http://www.w3.org/1999/02/22-rdf-syntax-ns#"
   xmlns:svg="http://www.w3.org/2000/svg"
   xmlns="http://www.w3.org/2000/svg"
   xmlns:sodipodi="http://sodipodi.sourceforge.net/DTD/sodipodi-0.dtd"
   xmlns:inkscape="http://www.inkscape.org/namespaces/inkscape"
   width="1229.7378"
   height="336.13922"
   viewBox="0 0 325.36807 88.936838"
   version="1.1"
   id="svg23489"
   inkscape:version="0.48.5 r10040"
   sodipodi:docname="round_wooden_button_dark_wood.svg">
  <defs
     id="defs23483" />
  <sodipodi:namedview
     id="base"
     pagecolor="#7d848b"
     bordercolor="#666666"
     borderopacity="1.0"
     inkscape:pageopacity="0"
     inkscape:pageshadow="2"
     inkscape:zoom="0.16626794"
     inkscape:cx="754.82554"
     inkscape:cy="-722.95967"
     inkscape:document-units="px"
     inkscape:current-layer="layer1"
     showgrid="false"
     inkscape:pagecheckerboard="false"
     showborder="true"
     units="px"
     inkscape:window-width="1920"
     inkscape:window-height="1017"
     inkscape:window-x="-8"
     inkscape:window-y="-8"
     inkscape:window-maximized="1"
     inkscape:showpageshadow="false"
     guidetolerance="28"
     fit-margin-top="25"
     fit-margin-left="25"
     fit-margin-right="25"
     fit-margin-bottom="25">
    <inkscape:grid
       type="xygrid"
       id="grid24034"
       spacingx="1px"
       spacingy="1px"
       empspacing="8"
       visible="true"
       enabled="true"
       snapvisiblegridlinesonly="true"
       originx="1861.8032px"
       originy="-1627.4076px" />
  </sodipodi:namedview>
  <metadata
     id="metadata23486">
    <rdf:RDF>
      <cc:Work
         rdf:about="">
        <dc:format>image/svg+xml</dc:format>
        <dc:type
           rdf:resource="http://purl.org/dc/dcmitype/StillImage" />
        <dc:title></dc:title>
        <cc:license
           rdf:resource="" />
        <dc:creator>
          <cc:Agent>
            <dc:title>Robert Brooks</dc:title>
          </cc:Agent>
        </dc:creator>
      </cc:Work>
    </rdf:RDF>
  </metadata>
  <g
     inkscape:label="Layer 1"
     inkscape:groupmode="layer"
     id="layer1"
     transform="translate(492.60214,222.52168)">
    <g
       id="g12251"
       transform="matrix(1.7516774,0,0,1.7516774,-7109.9004,-998.90453)">
      <path
         sodipodi:nodetypes="cccccccccccccccccccccccccc"
         inkscape:connector-curvature="0"
         style="color:#000000;fill:#3b2213;fill-opacity:1;fill-rule:nonzero;stroke:#3b2213;stroke-width:4.53137112;stroke-linejoin:round;stroke-miterlimit:4;stroke-opacity:1;stroke-dasharray:none;marker:none;visibility:visible;display:inline;overflow:visible;enable-background:accumulate"
         d="m 3813.9458,449.27547 -29.4085,0.20777 -0.6434,2.3122 -0.1609,7.32532 1.9704,1.53476 -1.9704,1.41413 0.3217,21.7303 0.04,0.0335 0,0.0871 0.094,0 3.2639,2.89528 63.2002,0.54286 104.3571,0.58308 1.9033,-2.48645 0.2413,-6.69093 -2.7277,-1.98381 c 0,0 1.6903,-0.69949 2.7277,-1.23317 l 0,-8.44456 0.248,-13.53811 -0.5697,-4.08153 -7.5733,0.0134 c -0.037,0.61305 -0.2652,1.19215 -0.7975,1.48785 -1.2135,0.67417 -2.6976,-0.008 -2.7144,-1.47445 l -92.1124,-0.12063 -18.5579,1.16615 z"
         id="path12253" />
      <path
         sodipodi:nodetypes="cccccscccccccccccccccccccccc"
         inkscape:connector-curvature="0"
         style="color:#000000;fill:#7f4a2c;fill-opacity:1;fill-rule:nonzero;stroke:none;stroke-width:50;marker:none;visibility:visible;display:inline;overflow:visible;enable-background:accumulate"
         d="m 3813.9423,449.27357 -29.4019,0.20777 -0.6434,2.3122 -0.1675,7.32532 0.2815,0.21446 c 6.8773,0.30755 16.8653,0.67935 15.8972,0.81765 -0.9276,0.13251 -9.1617,0.70794 -14.8182,0.94499 l -1.3605,0.97179 0.3686,21.85094 2.1647,0.0201 76.5172,2.06422 94.1297,-1.91008 0.248,-5.33042 -1.5512,-0.70509 c -1.3149,-0.15177 -5.8115,-1.03251 -7.5904,-1.14466 -0.4554,0.0114 -0.7539,0.006 -0.6635,-0.0201 0.062,-0.0177 0.3218,-10e-4 0.6635,0.0201 1.4635,-0.0367 5.0827,-0.23523 7.0706,-0.41552 0.5793,-0.2476 1.3842,-0.59842 2.071,-0.95169 l 0,-8.44456 0.248,-13.53811 -0.5697,-4.08153 -7.5733,0.0134 c -0.037,0.61305 -0.2652,1.19215 -0.7976,1.48785 -1.2135,0.67417 -2.6976,-0.008 -2.7143,-1.47445 l -92.1191,-0.11395 -18.5579,1.15945 z"
         id="path12255" />
      <path
         style="color:#000000;fill:#a4613c;fill-opacity:1;fill-rule:nonzero;stroke:none;stroke-width:50;marker:none;visibility:visible;display:inline;overflow:visible;enable-background:accumulate"
         d="m 3867.0012,481.61813 c -0.2479,0.005 -0.4566,0.0135 -0.6201,0.0249 -4.3061,0.29696 -43.9026,2.30533 -61.3752,2.80291 l 57.7702,1.55443 76.6136,-1.55443 c -4.417,-0.55105 -9.071,-0.94881 -11.7245,-0.63664 -5.9373,0.6985 -52.977,-2.3292 -60.664,-2.19107 z"
         id="path12257"
         inkscape:connector-curvature="0" />
      <path
         style="color:#000000;fill:#5d351d;fill-opacity:1;fill-rule:nonzero;stroke:none;stroke-width:15;marker:none;visibility:visible;display:inline;overflow:visible;enable-background:accumulate"
         d="m 3784.5409,484.5768 2.7784,2.16206 167.6935,1.20547 1.8991,-2.48636 -91.2327,-1.88848 z"
         id="path12259"
         inkscape:connector-curvature="0"
         sodipodi:nodetypes="cccccc" />
      <path
         style="color:#000000;fill:#3b2213;fill-opacity:1;fill-rule:nonzero;stroke:none;stroke-width:4;marker:none;visibility:visible;display:inline;overflow:visible;enable-background:accumulate"
         d="m 3784.0078,459.33522 1.6956,1.3203 -0.6166,0.44234 c 5.6565,-0.23705 13.8937,-0.81248 14.8213,-0.94499 0.9681,-0.1383 -9.023,-0.5101 -15.9003,-0.81765 z"
         id="path12261"
         inkscape:connector-curvature="0"
         sodipodi:nodetypes="cccsc" />
      <g
         name="grain"
         class="switchable"
         id="g12263"
         transform="translate(3773.3136,323.77716)">
        <path
           inkscape:connector-curvature="0"
           style="opacity:0.25;color:#000000;fill:#a4613c;fill-opacity:1;fill-rule:nonzero;stroke:none;stroke-width:50;marker:none;visibility:visible;display:inline;overflow:visible;enable-background:accumulate"
           d="m 125.12796,126.39628 c -15.72097,1.60197 -33.54514,4.13559 -51.370689,6.30039 -17.988717,2.18474 -35.966898,3.98618 -51.684461,4.07625 2.950336,0.13816 4.979938,0.25709 4.522449,0.32244 -0.835542,0.11938 -7.586104,0.60111 -13.055306,0.86818 17.701125,0.71456 39.030795,-1.36006 60.374489,-3.95224 24.235263,-2.94322 48.471908,-6.56778 67.278738,-7.59849 l -16.06522,-0.0165 z m 58.39863,0.0331 -7.57403,0.008 c -2.4e-4,0.006 5.7e-4,0.0112 0,0.0165 2.94645,0.0722 5.46231,0.15867 7.60677,0.23976 l -0.0324,-0.26458 z m -7.17709,5.92005 c -18.24705,-0.0274 -55.81678,3.95383 -91.529238,7.03628 -18.432184,1.59088 -36.364567,2.94317 -50.833032,3.38994 -7.234233,0.22344 -13.601473,0.22096 -18.727477,-0.0909 -1.745982,-0.10623 -3.337468,-0.25538 -4.779159,-0.43823 l 0.02513,1.33948 c 1.425318,0.17158 2.975707,0.31022 4.671433,0.41338 5.191661,0.31594 11.593026,0.32343 18.851576,0.0992 14.517181,-0.44826 32.458318,-1.80652 50.899256,-3.39823 36.882601,-3.18341 75.816861,-7.30774 93.100211,-7.01146 2.25616,0.0387 4.01406,0.0706 6.00289,0.1075 l 0.0251,-1.32291 c -1.9894,-0.0369 -3.74624,-0.0688 -6.00289,-0.1075 -0.54771,-0.009 -1.11438,-0.0157 -1.70334,-0.0165 z m 7.40826,5.45703 c -25.64737,0.39833 -44.85981,1.66254 -55.67809,3.06753 -2.88476,0.37462 -5.17634,0.7634 -6.84613,1.14927 -0.83473,0.19293 -1.51415,0.38621 -2.05051,0.58703 -0.53628,0.2009 -0.92811,0.37462 -1.24035,0.71935 -0.15555,0.17235 -0.29894,0.43921 -0.28094,0.74414 0.0178,0.30493 0.19202,0.54663 0.36379,0.70281 0.34344,0.31218 0.75302,0.45638 1.33112,0.62011 1.15621,0.32744 2.95934,0.60131 5.51492,0.82682 13.67289,1.20645 41.81448,0.79899 58.96903,0.39687 l 0,-1.33119 c -17.16428,0.39711 -45.35086,0.80282 -58.85311,-0.3886 -2.51701,-0.22206 -4.28333,-0.4986 -5.26705,-0.77721 -0.21115,-0.0598 -0.21456,-0.0835 -0.34717,-0.14055 0.113,-0.0587 0.10351,-0.0689 0.27284,-0.13229 0.45028,-0.16867 1.08585,-0.35274 1.88516,-0.53745 1.59829,-0.36938 3.85494,-0.75321 6.71376,-1.12448 10.74079,-1.39491 29.99579,-2.66321 55.6866,-3.05924 l 0.0243,-1.32292 c -0.0649,9.7e-4 -0.13342,-9.7e-4 -0.19851,0 z m 0.0828,11.67474 c -9.74483,0.27361 -44.46028,1.24749 -84.931223,2.30685 -23.272541,0.60912 -46.711413,1.19486 -64.649388,1.59576 -8.968785,0.20044 -16.563968,0.35398 -22.07605,0.4382 -0.546896,0.008 -0.974961,0.009 -1.480031,0.0166 l 0.02513,1.32291 c 0.504259,-0.007 0.934756,-0.008 1.480031,-0.0166 5.517918,-0.0843 13.11383,-0.23772 22.084236,-0.4382 17.941137,-0.40097 41.376118,-0.98658 64.649389,-1.59575 40.438926,-1.05855 75.110196,-2.03208 84.898156,-2.30685 l 0,-1.32292 z"
           id="path12265" />
        <path
           inkscape:connector-curvature="0"
           id="path12267"
           d="m 125.12802,125.67524 c -15.72102,1.60197 -33.545203,4.13559 -51.370712,6.30039 -17.988757,2.18474 -35.96693,3.98618 -51.684503,4.07625 2.950368,0.13816 4.979987,0.25709 4.522523,0.32244 -0.835555,0.11938 -7.586134,0.60111 -13.055336,0.86818 17.701154,0.71456 39.030805,-1.36006 60.374478,-3.95224 24.235305,-2.94322 48.47193,-6.56778 67.27878,-7.59849 l -16.06523,-0.0164 z m 58.39857,0.0331 -7.57397,0.008 c 0,0.006 0,0.0111 0,0.0167 2.9464,0.0722 5.46233,0.15867 7.60677,0.23976 l -0.0328,-0.26458 z m -7.17709,5.92005 c -18.24699,-0.0274 -55.81677,3.95383 -91.529169,7.03628 -18.432198,1.59088 -36.364599,2.94317 -50.833074,3.38994 -7.234238,0.22345 -13.601436,0.22096 -18.727473,-0.0909 -1.745986,-0.10623 -3.337455,-0.25538 -4.779169,-0.43823 l 0.02381,1.33948 c 1.425311,0.17158 2.975769,0.31022 4.671484,0.41338 5.191654,0.31594 11.592983,0.32343 18.851563,0.0992 14.517158,-0.44826 32.45829,-1.80652 50.89922,-3.39823 36.882658,-3.18341 75.816888,-7.30774 93.100268,-7.01146 2.2561,0.0387 4.01399,0.0706 6.00286,0.1075 l 0.0238,-1.32291 c -1.98941,-0.0369 -3.74624,-0.0688 -6.00287,-0.1075 -0.54769,-0.009 -1.11443,-0.0156 -1.70339,-0.0164 z m 7.40833,5.45703 c -25.64738,0.39833 -44.85984,1.66254 -55.67812,3.06753 -2.88475,0.37462 -5.17631,0.7634 -6.8461,1.14927 -0.83476,0.19293 -1.51421,0.38621 -2.05052,0.58703 -0.53631,0.2009 -0.92816,0.37462 -1.24036,0.71935 -0.15558,0.17235 -0.29898,0.43921 -0.28099,0.74414 0.0185,0.30493 0.19209,0.54663 0.3638,0.70281 0.34343,0.31218 0.753,0.45638 1.33112,0.62011 1.15623,0.32744 2.95936,0.60132 5.51497,0.82682 13.67288,1.20645 41.81449,0.79899 58.96902,0.39687 l 0,-1.33119 c -17.16432,0.39711 -45.35091,0.80282 -58.85313,-0.3886 -2.51698,-0.22206 -4.28334,-0.4986 -5.26706,-0.77721 -0.21114,-0.0598 -0.21458,-0.0835 -0.34713,-0.14055 0.11297,-0.0587 0.10345,-0.0689 0.27278,-0.13229 0.45032,-0.16867 1.08585,-0.35274 1.88516,-0.53745 1.59835,-0.36938 3.85498,-0.75321 6.7138,-1.12448 10.74076,-1.39491 29.99582,-2.66321 55.68659,-3.05924 l 0.0238,-1.32292 c -0.0651,0 -0.13335,0 -0.19844,0 z m 0.0828,11.67474 c -9.74487,0.27361 -44.46032,1.24749 -84.931256,2.30685 -23.272486,0.60912 -46.711395,1.19486 -64.649352,1.59576 -8.968846,0.20044 -16.563975,0.35398 -22.07604,0.4382 -0.546894,0.008 -0.974989,0.01 -1.480079,0.0167 l 0.02381,1.32291 c 0.504295,-0.007 0.934772,-0.008 1.480079,-0.0167 5.517885,-0.0843 13.113808,-0.23773 22.084242,-0.43821 17.941132,-0.40097 41.376072,-0.98658 64.649352,-1.59575 40.438924,-1.05855 75.110184,-2.03208 84.898184,-2.30685 l 0,-1.32292 z"
           style="color:#000000;fill:#7b4527;fill-opacity:1;fill-rule:nonzero;stroke:none;stroke-width:50;marker:none;visibility:visible;display:inline;overflow:visible;enable-background:accumulate" />
      </g>
      <path
         style="color:#000000;fill:#a4613c;fill-opacity:1;fill-rule:nonzero;stroke:none;stroke-width:4;marker:none;visibility:visible;display:inline;overflow:visible;enable-background:accumulate"
         d="m 3957.2699,460.86254 c -0.035,0 -0.071,2.7e-4 -0.1075,0 l 0.091,0.7855 0.016,-0.7855 z"
         id="path12269"
         inkscape:connector-curvature="0" />
      <path
         style="color:#000000;fill:#a4613c;fill-opacity:1;fill-rule:nonzero;stroke:none;stroke-width:4;marker:none;visibility:visible;display:inline;overflow:visible;enable-background:accumulate"
         d="m 3957.3445,456.85246 c -0.222,-0.004 -0.4527,-0.004 -0.6699,-0.008 l 0.4878,4.01836 c 0.036,2.7e-4 0.072,0 0.1075,0 l 0.075,-4.01008 z"
         id="path12271"
         inkscape:connector-curvature="0" />
      <path
         style="color:#000000;fill:#a4613c;fill-opacity:1;fill-rule:nonzero;stroke:none;stroke-width:4;marker:none;visibility:visible;display:inline;overflow:visible;enable-background:accumulate"
         d="m 3957.3693,455.52955 c -0.2852,-0.005 -0.5823,-0.0114 -0.8598,-0.0167 l 0.1651,1.3312 c 0.2172,0.004 0.4479,0.004 0.6699,0.008 l 0.024,-1.32292 z"
         id="path12273"
         inkscape:connector-curvature="0" />
      <path
         style="color:#000000;fill:#a4613c;fill-opacity:1;fill-rule:nonzero;stroke:none;stroke-width:4;marker:none;visibility:visible;display:inline;overflow:visible;enable-background:accumulate"
         d="m 3949.2662,449.49371 c 0,0.006 0,0.0111 0,0.0167 2.9432,0.0721 5.4557,0.15875 7.5986,0.23977 l -0.033,-0.26459 -7.5655,0.008 z"
         id="path12275"
         inkscape:connector-curvature="0" />
      <path
         style="color:#000000;fill:#975937;fill-opacity:1;fill-rule:nonzero;stroke:none;stroke-width:4;marker:none;visibility:visible;display:inline;overflow:visible;enable-background:accumulate"
         d="m 3914.5068,449.46892 -16.0652,-0.0164 c -3.9304,0.4005 -7.9941,0.85936 -12.1544,1.35599 -1.2282,0.14663 -2.5175,0.3103 -3.7621,0.46302 3.7489,0.009 7.34,0.0262 11.4104,0.0331 1.8222,-0.2001 3.7626,-0.45111 5.5314,-0.62838 2.6477,-0.26538 5.2374,-0.4993 7.7472,-0.70279 2.5099,-0.20352 4.9417,-0.37555 7.2927,-0.50438 z"
         id="path12277"
         inkscape:connector-curvature="0" />
      <path
         style="color:#000000;fill:#a4613c;fill-opacity:1;fill-rule:nonzero;stroke:none;stroke-width:4;marker:none;visibility:visible;display:inline;overflow:visible;enable-background:accumulate"
         d="m 3914.5106,449.47125 c -2.3511,0.1288 -4.7828,0.30083 -7.2927,0.50435 -2.5098,0.20349 -5.0996,0.43743 -7.7472,0.70278 -1.7688,0.17727 -3.7095,0.42831 -5.5314,0.62839 23.9286,0.0402 50.2872,0.0414 50.2872,0.0414 0,0 2.7387,2.96263 5.0189,2.05053 2.2802,-0.91208 2.2736,-2.73678 2.2736,-2.73678 l 3.4313,0 1.3645,3.19151 0.1984,1.66193 c 0.2773,0.005 0.5747,0.0114 0.8599,0.0164 l 0.033,-1.96784 -0.5291,-3.81166 -0.01,0 c -2.1429,-0.081 -4.6554,-0.16764 -7.5986,-0.23977 l 0,-0.0164 -0.01,0 c -0.037,0.61306 -0.2614,1.19258 -0.7937,1.48828 -1.2134,0.67418 -2.7035,-0.006 -2.7202,-1.47175 l -31.2373,-0.0413 z m 11.3192,27.2438 c -0.6419,-0.003 -1.1952,0.003 -1.6455,0.008 -1.175,0.0145 -1.6616,0.0643 -1.2898,0.14881 1.9828,0.45068 26.7692,0.90125 27.31,0.90125 0.5408,0 5.4983,1.16583 5.4983,1.16583 0,0 0.087,4.05804 -0.3638,3.87779 -0.291,-0.11642 -5.8769,0.82473 -10.0044,1.50482 l 11.5755,-0.23151 0.2479,-5.32474 -1.5544,-0.71107 c -1.0803,-0.12469 -4.2873,-0.73042 -6.3913,-1.00873 -9.9525,-0.11861 -18.8899,-0.31451 -23.3825,-0.33072 z"
         id="path12279"
         inkscape:connector-curvature="0" />
      <path
         style="color:#000000;fill:#a4613c;fill-opacity:1;fill-rule:nonzero;stroke:none;stroke-width:4;marker:none;visibility:visible;display:inline;overflow:visible;enable-background:accumulate"
         d="m 3813.9485,449.27877 -29.41,0.20669 -0.6451,2.30685 -0.1569,7.32562 0.074,0.0579 c 0.4937,-3.3489 1.3232,-6.92048 2.3315,-6.92048 1.1401,0 29.6415,-1.36428 29.6415,-1.36428 0,0 20.2949,2.73109 21.6631,1.81901 1.3678,-0.91206 18.0078,-1.81551 19.6037,-1.5875 0.5482,0.0783 11.9814,0.11509 25.4744,0.14884 1.2446,-0.15273 2.5339,-0.31639 3.7621,-0.46302 4.1603,-0.49663 8.224,-0.95549 12.1544,-1.356 l 16.0652,0.0164 -60.8708,-0.0827 -18.5621,1.1658 -21.1254,-1.27328 z"
         id="path12281"
         inkscape:connector-curvature="0" />
      <path
         style="color:#000000;fill:#a4613c;fill-opacity:1;fill-rule:nonzero;stroke:none;stroke-width:50;marker:none;visibility:visible;display:inline;overflow:visible;enable-background:accumulate"
         d="m 3783.8229,467.48771 0.2727,16.42895 2.1665,0.0249 c 0,0 24.9369,0.77801 26.965,0.46258 4.3214,-0.17503 5.4647,-0.38579 5.5017,-0.39812 0.3823,-0.12747 -1.348,0.21182 -11.0355,0.0844 -9.6872,-0.12746 -21.544,-1.47211 -22.1176,-1.91823 -0.5736,-0.44614 -1.465,-11.02545 -1.7198,-14.40325 -0.01,-0.12372 -0.021,-0.19302 -0.033,-0.28112 z"
         id="path12283"
         inkscape:connector-curvature="0"
         sodipodi:nodetypes="cccccsccc" />
      <path
         style="color:#000000;fill:#a4613c;fill-opacity:1;fill-rule:nonzero;stroke:none;stroke-width:50;marker:none;visibility:visible;display:inline;overflow:visible;enable-background:accumulate"
         d="m 3957.1414,459.36005 c 0,7.77531 -0.697,14.59032 -0.7605,15.16391 -0.064,0.57359 -0.8945,0.83166 -1.1493,0.95912 -0.2551,0.1275 -0.7686,0.57051 -1.8521,0.57051 -1.0395,0 -12.3312,0.71334 -12.7413,0.82682 0.2757,0.0306 4.2376,0.0769 8.2434,0.11576 -0.3265,-0.0397 -0.6271,-0.0675 -0.8684,-0.0827 -0.4553,0.0114 -0.7516,0 -0.6614,-0.0249 0.062,-0.0177 0.3199,0.003 0.6614,0.0249 1.4637,-0.0367 5.0816,-0.23312 7.0694,-0.4134 0.5792,-0.2476 1.3886,-0.59759 2.0754,-0.95086 l 0,-8.45011 0.1405,-7.64812 c -0.077,-0.0459 -0.1571,-0.0909 -0.1571,-0.0909 z"
         id="path12285"
         inkscape:connector-curvature="0" />
    </g>
  </g>
</svg>
