<?xml version="1.0" encoding="UTF-8" standalone="no"?>
<!-- Created with Inkscape (http://www.inkscape.org/) -->

<svg
   xmlns:dc="http://purl.org/dc/elements/1.1/"
   xmlns:cc="http://creativecommons.org/ns#"
   xmlns:rdf="http://www.w3.org/1999/02/22-rdf-syntax-ns#"
   xmlns:svg="http://www.w3.org/2000/svg"
   xmlns="http://www.w3.org/2000/svg"
   xmlns:sodipodi="http://sodipodi.sourceforge.net/DTD/sodipodi-0.dtd"
   xmlns:inkscape="http://www.inkscape.org/namespaces/inkscape"
   width="413.42517"
   height="434.56689"
   viewBox="0 0 109.38539 114.97916"
   version="1.1"
   id="svg23489"
   inkscape:version="0.48.5 r10040"
   sodipodi:docname="round_wooden_button_grey.svg">
  <defs
     id="defs23483" />
  <sodipodi:namedview
     id="base"
     pagecolor="#7d848b"
     bordercolor="#666666"
     borderopacity="1.0"
     inkscape:pageopacity="0"
     inkscape:pageshadow="2"
     inkscape:zoom="0.16626794"
     inkscape:cx="124.24587"
     inkscape:cy="-356.11749"
     inkscape:document-units="px"
     inkscape:current-layer="layer1"
     showgrid="false"
     inkscape:pagecheckerboard="false"
     showborder="true"
     units="px"
     inkscape:window-width="1920"
     inkscape:window-height="1017"
     inkscape:window-x="-8"
     inkscape:window-y="-8"
     inkscape:window-maximized="1"
     inkscape:showpageshadow="false"
     guidetolerance="28"
     fit-margin-top="25"
     fit-margin-left="25"
     fit-margin-right="25"
     fit-margin-bottom="25">
    <inkscape:grid
       type="xygrid"
       id="grid24034"
       spacingx="1px"
       spacingy="1px"
       empspacing="8"
       visible="true"
       enabled="true"
       snapvisiblegridlinesonly="true"
       originx="1231.2235px"
       originy="-1260.5654px" />
  </sodipodi:namedview>
  <metadata
     id="metadata23486">
    <rdf:RDF>
      <cc:Work
         rdf:about="">
        <dc:format>image/svg+xml</dc:format>
        <dc:type
           rdf:resource="http://purl.org/dc/dcmitype/StillImage" />
        <dc:title></dc:title>
        <cc:license
           rdf:resource="" />
        <dc:creator>
          <cc:Agent>
            <dc:title>Robert Brooks</dc:title>
          </cc:Agent>
        </dc:creator>
      </cc:Work>
    </rdf:RDF>
  </metadata>
  <g
     inkscape:label="Layer 1"
     inkscape:groupmode="layer"
     id="layer1"
     transform="translate(325.76127,151.50367)">
    <g
       id="g15771"
       transform="translate(-6259.3342,-370.54534)">
      <path
         sodipodi:nodetypes="scssccccscscs"
         inkscape:connector-curvature="0"
         id="path9075"
         d="m 5988.6113,235.8956 c -9.6132,0 -19.9992,1.77969 -27.3533,6.83036 -4.4965,3.08811 -8.7281,8.39709 -11.7576,13.00497 -4.4733,6.80434 -5.3424,15.25036 -5.3424,23.9304 0,12.10827 2.0286,20.89541 9.6409,28.92829 0.9795,0.15272 3.1719,1.92851 3.1719,1.92851 0,0 -0.026,0.65778 -0.045,1.5836 0.1795,0.16594 0.3595,0.33228 0.5441,0.49587 8.1493,7.22775 20.3023,10.82947 31.1446,10.82947 12.5241,0 23.8227,-5.262 31.8009,-13.69278 7.4209,-7.8422 11.9648,-18.42406 11.9648,-30.07296 0,-7.66766 -2.3101,-16.62342 -5.7745,-22.89059 -7.4563,-13.49014 -21.4863,-20.87514 -37.9912,-20.87514 z"
         style="color:#000000;fill:#3b2213;fill-opacity:1;fill-rule:nonzero;stroke:#3b2213;stroke-width:7.9375;stroke-miterlimit:4;stroke-opacity:1;stroke-dasharray:none;marker:none;visibility:visible;display:inline;overflow:visible;enable-background:accumulate" />
      <path
         id="path9073"
         d="m 5988.6113,235.8956 c -9.6132,0 -19.9992,1.77969 -27.3533,6.83036 -4.4965,3.08811 -8.7281,8.39709 -11.7576,13.00497 -4.4733,6.80434 -5.3424,15.25036 -5.3424,23.9304 0,12.10827 3.2495,22.55195 10.8617,30.58483 0.9797,0.15272 1.9511,0.27197 1.9511,0.27197 0,0 -0.026,0.65778 -0.045,1.5836 0.1795,0.16594 0.3595,0.33228 0.5441,0.49587 8.1493,7.22775 20.3023,10.82947 31.1446,10.82947 12.5241,0 23.8227,-5.262 31.8009,-13.69278 7.4209,-7.8422 11.9648,-18.42406 11.9648,-30.07296 0,-7.66766 -2.3101,-16.62342 -5.7745,-22.89059 -7.4563,-13.49014 -21.4863,-20.87514 -37.9912,-20.87514 z"
         style="color:#000000;fill:#5d351d;fill-opacity:1;fill-rule:nonzero;stroke:none;stroke-width:12;marker:none;visibility:visible;display:inline;overflow:visible;enable-background:accumulate"
         inkscape:connector-curvature="0" />
      <path
         name="grain"
         inkscape:connector-curvature="0"
         class="switchable"
         id="path9234"
         d="m 6021.8398,298.65794 c 0,0 -1.6737,2.87974 -1.6737,3.22857 0,0.17409 0.08,3.90451 0.1008,7.99523 0.05,-0.0493 0.1065,-0.10294 0.154,-0.15218 0.4301,-0.4545 0.84,-0.91353 1.2506,-1.38611 0.1378,-4.19018 0.238,-8.11589 0.1704,-9.68556 z m -66.8359,4.24275 c -0.064,1.67038 0.06,4.75272 0.1702,7.36983 0.9173,0.13986 1.7915,0.25353 1.7915,0.25353 0,0 -0.02,0.64617 -0.033,1.57203 0.064,0.0591 0.1221,0.12722 0.186,0.18586 0.038,-2.95574 0.1306,-6.26805 0.048,-6.42326 -0.1235,-0.24654 -2.1637,-2.95805 -2.1637,-2.95805 z"
         style="opacity:0.5;color:#000000;fill:#3b2213;fill-opacity:1;fill-rule:nonzero;stroke:none;stroke-width:18.89800072;marker:none;visibility:visible;display:inline;overflow:visible;enable-background:accumulate" />
      <path
         style="color:#000000;fill:#3b2213;fill-opacity:1;fill-rule:nonzero;stroke:#3b2213;stroke-width:7.9375;stroke-miterlimit:4;stroke-opacity:1;stroke-dasharray:none;marker:none;visibility:visible;display:inline;overflow:visible;enable-background:accumulate"
         d="m 6032.3828,273.37794 c 0,11.64889 -4.5506,19.09617 -11.9718,26.93838 -7.9778,8.43075 -19.2722,6.7155 -31.7961,6.7155 -10.8424,0 -22.9977,2.33449 -31.147,-4.89326 -9.3553,-8.29808 -13.318,-15.43142 -13.318,-28.76062 0,-8.68006 0.8734,-17.11873 5.3466,-23.92304 3.0293,-4.60788 7.2589,-9.92081 11.7555,-13.00889 7.3541,-5.0507 17.7495,-6.83558 27.3629,-6.83558 16.5048,0 30.527,7.39165 37.9831,20.88175 3.4646,6.26721 5.7848,15.21808 5.7848,22.88576 z"
         id="path9079"
         inkscape:connector-curvature="0"
         sodipodi:nodetypes="ssssssssss" />
      <path
         id="path9070"
         d="m 5988.6113,229.60906 c -9.6132,0 -19.9992,1.77973 -27.3533,6.8304 -2.5667,1.76286 -5.0425,4.25522 -7.2622,6.92636 l 7.9342,1.58365 -10.6862,1.96757 c -0.6152,0.85601 -1.1998,1.71648 -1.7434,2.54337 -4.4733,6.80432 -5.3424,15.23436 -5.3424,23.91438 0,13.32924 3.9532,24.65423 13.3086,32.95226 8.1493,7.22781 20.3023,10.81348 31.1447,10.81348 12.5245,0 23.8224,-5.26197 31.801,-13.6928 2.6544,-2.8054 4.9387,-5.95901 6.7822,-9.38978 -1.7816,-0.15923 -5.5301,-0.55855 -7.7585,-1.2157 3.2059,-0.70331 5.6185,-0.13659 8.5741,-0.39993 2.7957,-5.76521 4.3669,-12.22985 4.3669,-19.06753 0,-7.66766 -2.3101,-16.60739 -5.7747,-22.8746 -7.456,-13.4902 -21.4853,-20.89113 -37.991,-20.89113 z"
         style="color:#000000;fill:#7f4a2c;fill-opacity:1;fill-rule:nonzero;stroke:none;stroke-width:12;marker:none;visibility:visible;display:inline;overflow:visible;enable-background:accumulate"
         inkscape:connector-curvature="0" />
      <path
         id="path9217"
         d="m 5947.3413,291.77052 c -0.047,-0.12225 -0.098,-0.24513 -0.1448,-0.36792 0,0.0322 0.02,0.0466 0.02,0.0799 0.034,0.0985 0.091,0.18974 0.1292,0.28799 z"
         style="color:#000000;fill:#a4613c;fill-opacity:1;fill-rule:nonzero;stroke:none;stroke-width:12;marker:none;visibility:visible;display:inline;overflow:visible;enable-background:accumulate"
         inkscape:connector-curvature="0" />
      <path
         id="path9215"
         d="m 5961.4978,305.97521 c -1.3187,0.0687 -2.8946,0.14056 -4.1747,0.20791 0.051,0.046 0.092,0.0983 0.1431,0.14383 8.1493,7.22796 20.302,10.81348 31.1443,10.81348 6.4016,0 12.4839,-1.36995 17.964,-3.8391 -7.7442,2.30392 -18.6201,3.4449 -31.3843,-1.03972 -5.5713,-1.95748 -10.0682,-4.10182 -13.693,-6.28652 z"
         style="color:#000000;fill:#a4613c;fill-opacity:1;fill-rule:nonzero;stroke:none;stroke-width:12;marker:none;visibility:visible;display:inline;overflow:visible;enable-background:accumulate"
         inkscape:connector-curvature="0" />
      <path
         id="path9211"
         d="m 5947.933,292.29837 -0.3679,-0.0163 c 1.7808,4.37406 4.3309,8.33115 7.6938,11.83724 0.9918,-0.0409 2.2926,-0.10138 3.3115,-0.14384 -6.2777,-4.41668 -9.3228,-8.70847 -10.6374,-11.67728 z"
         style="color:#000000;fill:#a4613c;fill-opacity:1;fill-rule:nonzero;stroke:none;stroke-width:12;marker:none;visibility:visible;display:inline;overflow:visible;enable-background:accumulate"
         inkscape:connector-curvature="0" />
      <path
         id="path9209"
         d="m 5947.0855,289.89895 c 0,-4.7e-4 -0.02,4.4e-4 -0.031,0 0.031,0.41845 0.061,0.89967 0.1432,1.50365 0.047,0.12281 0.096,0.24567 0.1448,0.36792 0.067,0.17428 0.154,0.33891 0.2238,0.51189 l 0.3681,0.0163 c -0.4156,-0.93833 -0.712,-1.77931 -0.8479,-2.39943 z"
         style="color:#000000;fill:#a4613c;fill-opacity:1;fill-rule:nonzero;stroke:none;stroke-width:12;marker:none;visibility:visible;display:inline;overflow:visible;enable-background:accumulate"
         inkscape:connector-curvature="0" />
      <path
         id="path9207"
         d="m 5947.0372,289.75493 c 0,0.0388 0.02,0.1038 0.02,0.14384 0.02,4.5e-4 0.02,-4.7e-4 0.031,0 -0.02,-0.0409 -0.041,-0.10465 -0.047,-0.14384 z"
         style="color:#000000;fill:#a4613c;fill-opacity:1;fill-rule:nonzero;stroke:none;stroke-width:12;marker:none;visibility:visible;display:inline;overflow:visible;enable-background:accumulate"
         inkscape:connector-curvature="0" />
      <path
         id="path9205"
         d="m 5946.9733,288.45927 c 0,-0.0282 0,0.009 -0.031,0.0958 -0.047,0.19035 -0.026,0.60833 0.096,1.19971 -0.047,-0.75759 -0.051,-1.22497 -0.064,-1.29566 z"
         style="color:#000000;fill:#a4613c;fill-opacity:1;fill-rule:nonzero;stroke:none;stroke-width:12;marker:none;visibility:visible;display:inline;overflow:visible;enable-background:accumulate"
         inkscape:connector-curvature="0" />
      <path
         sodipodi:nodetypes="ccccccc"
         id="path9203"
         d="m 5945.3254,259.96998 c 0.3851,-0.0145 0.839,-0.0185 1.2318,-0.0322 0.5733,-1.66582 1.2104,-3.29701 2.0798,-4.83082 -0.662,0.0606 -1.3411,0.15525 -2.0002,0.20793 l -0.02,0 c -0.5405,1.5037 -0.9592,3.0632 -1.2956,4.65495 z"
         style="color:#000000;fill:#a4613c;fill-opacity:1;fill-rule:nonzero;stroke:none;stroke-width:12;marker:none;visibility:visible;display:inline;overflow:visible;enable-background:accumulate"
         inkscape:connector-curvature="0" />
      <path
         sodipodi:nodetypes="ccsccc"
         id="path9201"
         d="m 5945.7578,262.51336 c -0.2745,0.0128 -0.5627,0.0204 -0.8319,0.0317 -0.5291,3.50494 -0.7679,7.12676 -0.7679,10.82944 0,0.52161 0,1.03657 0.02,1.55166 0.1008,-4.29852 1.5812,-11.47182 2.5972,-15.40732 z"
         style="color:#000000;fill:#a4613c;fill-opacity:1;fill-rule:nonzero;stroke:none;stroke-width:12;marker:none;visibility:visible;display:inline;overflow:visible;enable-background:accumulate"
         inkscape:connector-curvature="0" />
      <path
         id="path9199"
         d="m 6021.836,243.82973 c -1.1453,0.10493 -2.4618,0.25661 -3.7272,0.39995 3.335,2.92395 6.2436,6.37421 8.4935,10.44552 0.5953,1.07693 1.1103,2.30385 1.6321,3.51916 0.4016,-0.006 1.144,-0.0261 1.5355,-0.0317 -0.8931,-2.76004 -1.9221,-5.40955 -3.1676,-7.66219 -1.3548,-2.45225 -3.0016,-4.62857 -4.7663,-6.67047 z"
         style="color:#000000;fill:#a4613c;fill-opacity:1;fill-rule:nonzero;stroke:none;stroke-width:12;marker:none;visibility:visible;display:inline;overflow:visible;enable-background:accumulate"
         inkscape:connector-curvature="0" />
      <path
         inkscape:connector-curvature="0"
         id="path9188"
         d="m 5988.6076,229.60805 c -9.6131,0 -19.9951,1.77823 -27.3494,6.82893 -1.9022,1.30655 -3.7582,3.01813 -5.4938,4.9019 -0.02,0.0224 -0.028,0.0452 -0.051,0.0677 -0.2819,0.30774 -0.5686,0.61328 -0.8456,0.92973 -0.2952,0.33843 -0.5923,0.68569 -0.8789,1.03105 l 3.2454,0.64238 4.6993,0.94659 -6.778,1.23393 -3.9049,0.72685 c -0.041,0.0598 -0.091,0.10947 -0.1334,0.16902 -0.5687,0.79681 -1.117,1.59717 -1.6228,2.36645 -0.782,1.18993 -1.4183,2.45349 -1.9947,3.73564 -0.174,0.38541 -0.3333,0.77344 -0.49,1.16636 -0.1065,0.27977 -0.237,0.54694 -0.3382,0.82823 -0.02,0.0409 -0.026,0.094 -0.033,0.13517 0.6592,-0.0527 1.3327,-0.14203 1.9942,-0.20279 0.2803,-0.4946 0.5475,-1.00883 0.8621,-1.48748 0.1431,-0.21858 0.3581,-0.43783 0.5071,-0.65927 1.1926,-1.77314 2.4803,-3.61741 3.9557,-5.39212 3.1921,-0.87193 10.1797,-2.79355 11.0208,-3.144 0.7275,-0.30306 -2.9831,-1.24506 -5.9166,-2.11287 0.7206,-0.61346 1.4595,-1.18335 2.1978,-1.69034 7.3542,-5.0507 17.7362,-6.82893 27.3492,-6.82893 10.1967,0 19.4352,2.8311 26.7749,8.16426 0.9574,0.69572 1.8293,1.48445 2.7214,2.26503 1.2655,-0.14347 2.5903,-0.30078 3.736,-0.40569 -0.6306,-0.72924 -1.2323,-1.48807 -1.9102,-2.16361 -0.068,-0.0694 -0.1306,-0.1509 -0.2023,-0.21971 -7.8577,-7.70589 -18.7931,-11.83228 -31.1188,-11.83228 z m 41.1596,28.54962 c -0.3918,0.006 -1.1365,0.0275 -1.5385,0.0336 0.316,0.73616 0.628,1.47305 0.913,2.24815 l 1.3524,0 c -0.2128,-0.77592 -0.4824,-1.52659 -0.7269,-2.28197 z m -83.2152,1.77482 c -0.3924,0.0145 -0.8485,0.0204 -1.2338,0.0339 -0.02,0.0862 -0.034,0.16685 -0.051,0.25353 -0.064,0.31193 -0.1292,0.63192 -0.186,0.94656 -0.081,0.44937 -0.084,0.93137 -0.1504,1.38607 0.2695,-0.0128 0.5537,-0.0224 0.8282,-0.0336 0.2265,-0.87617 0.5029,-1.73836 0.7944,-2.58625 z m 12.0184,44.05003 c -1.0189,0.0426 -2.3214,0.0944 -3.3131,0.13517 0.6698,0.69798 1.3248,1.40164 2.0627,2.06215 1.2798,-0.067 2.8559,-0.13404 4.1746,-0.20281 -1.1012,-0.6638 -1.9785,-1.32923 -2.9242,-1.99452 z"
         style="color:#000000;fill:#a4613c;fill-opacity:1;fill-rule:nonzero;stroke:none;stroke-width:12;marker:none;visibility:visible;display:inline;overflow:visible;enable-background:accumulate" />
      <path
         id="path9182"
         d="m 6030.4897,260.43385 c -0.3768,0 -0.9547,0 -1.3437,0 1.7461,4.74409 2.932,10.09221 3.1834,15.10046 0.034,-0.71414 0.047,-1.43666 0.047,-2.15952 0,-4.15734 -0.7135,-8.66445 -1.8874,-12.94094 z"
         style="color:#000000;fill:#a4613c;fill-opacity:1;fill-rule:nonzero;stroke:none;stroke-width:12;marker:none;visibility:visible;display:inline;overflow:visible;enable-background:accumulate"
         inkscape:connector-curvature="0" />
      <path
         id="path9086"
         d="m 6019.5639,241.28636 c 1.8363,1.97092 3.4789,4.12093 4.8954,6.47845 3.6967,6.15325 6.1741,14.94648 6.1741,22.47471 0,7.34563 -1.2736,15.41229 -4.2868,22.28279 0.5405,-0.004 1.0916,-0.0291 1.6635,-0.0799 2.7945,-5.76401 4.3669,-12.22984 4.3669,-19.06753 0,-7.66766 -2.3101,-16.60738 -5.7747,-22.87458 -1.9266,-3.48667 -4.3042,-6.56437 -7.0384,-9.21384 z m 6.1427,52.61165 c -1.5908,3.28179 -3.6031,6.23212 -6.0943,8.65393 -8.5142,8.27753 -22.3227,10.65356 -35.688,10.65356 -8.0928,0 -16.8566,-1.7173 -24.3783,-5.18278 8.052,6.09183 19.1092,9.11781 29.0653,9.11781 12.5245,0 23.8224,-5.26197 31.801,-13.6928 2.6535,-2.80449 4.9408,-5.96098 6.7822,-9.38978 -0.3848,-0.0344 -0.9546,-0.10351 -1.4879,-0.15997 z"
         style="color:#000000;fill:#7b4527;fill-opacity:1;fill-rule:nonzero;stroke:none;stroke-width:12;marker:none;visibility:visible;display:inline;overflow:visible;enable-background:accumulate"
         inkscape:connector-curvature="0" />
      <g
         transform="matrix(2.0443656,0,0,2.0443656,-2207.3385,-620.35736)"
         name="grain"
         class="switchable"
         id="g9705">
        <g
           id="g9701">
          <path
             sodipodi:nodetypes="ccsccsccccscccccccccccccccccccc"
             inkscape:connector-curvature="0"
             style="font-size:medium;font-style:normal;font-variant:normal;font-weight:normal;font-stretch:normal;text-indent:0;text-align:start;text-decoration:none;line-height:normal;letter-spacing:normal;word-spacing:normal;text-transform:none;direction:ltr;block-progression:tb;writing-mode:lr-tb;text-anchor:start;baseline-shift:baseline;opacity:0.5;color:#000000;fill:#a4613c;fill-opacity:1;stroke:none;stroke-width:5.00009584;marker:none;visibility:visible;display:inline;overflow:visible;enable-background:accumulate;font-family:Sans;-inkscape-font-specification:Sans"
             d="m 4024.2696,422.03312 c -0.6576,0.0688 -1.3461,0.1477 -2.0815,0.24257 -5.3733,0.69332 -14.3001,2.95323 -23.5596,4.3974 -3.251,0.50703 -6.5393,0.90221 -9.7182,1.10327 -0.152,0.33883 -0.2809,0.69029 -0.4069,1.04066 3.2532,-0.26052 6.6129,-0.72737 9.9764,-1.25193 9.3343,-1.45584 18.6615,-3.37392 23.865,-4.04528 1.0972,-0.14162 2.0837,-0.24481 3.0046,-0.32865 -0.3461,-0.40171 -0.7043,-0.78953 -1.0798,-1.15804 z m 4.9451,8.17667 c -4.8745,0.0752 -11.4119,0.18618 -19.1388,0.33644 -6.5799,0.128 -13.3223,0.27816 -18.7556,0.43818 -1.2379,0.0364 -2.3774,0.0731 -3.4583,0.10956 -0.088,0.41499 -0.1634,0.83482 -0.2272,1.25975 7.571,-0.34853 19.0193,-0.81453 23.4033,-0.89983 7.3188,-0.14231 13.891,-0.15077 18.5053,-0.13301 -0.1024,-0.37348 -0.2113,-0.74728 -0.3287,-1.11109 z m -40.4321,15.48592 c 0.1334,0.39789 0.2814,0.78839 0.4381,1.17371 l 38.0191,1.17138 c 0.044,-0.0805 0.09,-0.16132 0.1333,-0.24255 -0.8719,-0.0779 -2.1624,-0.30338 -3.2523,-0.62483 1.4963,-0.32823 2.641,-0.0984 3.9984,-0.18779 -13.649,-0.12238 -26.3839,-0.70321 -39.3366,-1.28992 z m 36.4766,5.16096 c -5.827,0.39118 -12.1784,0.90938 -18.7593,1.22274 -5.0486,0.24045 -9.0821,0.19915 -13.2149,0.36909 0.3315,0.34618 0.6832,0.68195 1.0483,1.00936 4.3272,-0.22686 8.5077,-0.23281 13.5047,-0.47081 5.9351,-0.28258 11.028,-0.47438 16.1707,-0.7456 0.35,-0.37861 0.9282,-0.98173 1.2505,-1.38478 z"
             id="path9135" />
          <path
             id="path9115"
             d="m 4024.2696,421.55063 c -0.6575,0.0688 -1.3461,0.1477 -2.0815,0.24257 -5.3733,0.69332 -14.3,2.95323 -23.5595,4.3974 -3.251,0.50703 -6.5394,0.90222 -9.7182,1.10328 -0.152,0.33882 -0.281,0.69028 -0.4069,1.04065 3.2532,-0.26053 6.6129,-0.72737 9.9763,-1.25193 9.3344,-1.45584 18.6615,-3.37392 23.8651,-4.04528 1.0972,-0.14162 2.0837,-0.2448 3.0046,-0.32866 -0.346,-0.40169 -0.7043,-0.78951 -1.0799,-1.15803 z m 4.9451,8.17667 c -4.8745,0.0753 -11.4118,0.18619 -19.1387,0.33644 -6.5799,0.128 -13.3223,0.27816 -18.7557,0.43818 -1.2379,0.0365 -2.3774,0.0731 -3.4583,0.10957 -0.088,0.41499 -0.1633,0.83481 -0.2271,1.25974 7.5709,-0.34854 19.0193,-0.81453 23.4033,-0.89984 7.3188,-0.14229 13.8909,-0.15076 18.5053,-0.133 -0.1025,-0.37348 -0.2114,-0.74728 -0.3288,-1.11109 z m -40.7035,15.51608 c 0.1335,0.39789 0.2815,0.78839 0.4382,1.17371 l 38.8333,1.11106 c 0.045,-0.0806 0.089,-0.16132 0.1332,-0.24255 -0.8718,-0.0779 -2.7051,-0.27322 -3.7951,-0.59466 1.4964,-0.32824 2.6411,-0.0984 3.9985,-0.18779 -13.6491,-0.12239 -26.6554,-0.67307 -39.6081,-1.25977 z m 37.2607,5.28159 c -5.827,0.39118 -12.6911,0.75859 -19.2719,1.07195 -5.0486,0.24044 -9.6852,0.4404 -13.8181,0.61034 0.3315,0.34618 0.6833,0.68195 1.0484,1.00935 4.3271,-0.22685 9.1108,-0.47405 14.1077,-0.71204 5.9352,-0.28259 11.7819,-0.5347 16.9246,-0.80592 0.35,-0.37861 0.687,-0.77064 1.0093,-1.17368 z"
             style="font-size:medium;font-style:normal;font-variant:normal;font-weight:normal;font-stretch:normal;text-indent:0;text-align:start;text-decoration:none;line-height:normal;letter-spacing:normal;word-spacing:normal;text-transform:none;direction:ltr;block-progression:tb;writing-mode:lr-tb;text-anchor:start;baseline-shift:baseline;color:#000000;fill:#7b4527;fill-opacity:1;stroke:none;stroke-width:5;marker:none;visibility:visible;display:inline;overflow:visible;enable-background:accumulate;font-family:Sans;-inkscape-font-specification:Sans"
             inkscape:connector-curvature="0" />
        </g>
        <path
           inkscape:connector-curvature="0"
           style="color:#000000;fill:#7f4a2c;fill-opacity:1;fill-rule:nonzero;stroke:none;stroke-width:12;marker:none;visibility:visible;display:inline;overflow:visible;enable-background:accumulate"
           d="m 4024.2618,421.55063 c -0.6552,0.0687 -1.3398,0.14805 -2.0737,0.24257 -0.012,0.003 -0.033,0.006 -0.047,0.008 0.4682,0.3403 0.8939,0.7293 1.3303,1.11112 0.619,-0.0702 1.2629,-0.14433 1.8231,-0.19563 -0.3085,-0.3567 -0.5995,-0.73371 -0.9312,-1.06414 -0.034,-0.0339 -0.067,-0.068 -0.1017,-0.10173 z m -34.1073,5.63368 c -0.4044,0.0316 -0.8192,0.084 -1.2206,0.10957 -0.085,0.18851 -0.166,0.37901 -0.2426,0.57118 -0.052,0.13686 -0.1147,0.26926 -0.1643,0.40687 -0.01,0.02 -0.01,0.0425 -0.015,0.0626 0.3227,-0.0258 0.6545,-0.072 0.9782,-0.10171 0.137,-0.24194 0.2685,-0.48572 0.4224,-0.71986 0.07,-0.10691 0.1698,-0.22034 0.2427,-0.32865 z m 39.0211,2.54299 c -0.1915,0.003 -0.5546,0.0125 -0.7511,0.0155 0.1545,0.36011 0.3065,0.71631 0.4459,1.09544 0.1903,0 0.473,0 0.6573,0 -0.1042,-0.37953 -0.2326,-0.74159 -0.3521,-1.11108 z m -40.7034,0.86851 c -0.1921,0.007 -0.4142,0.009 -0.6025,0.0158 -0.01,0.0422 -0.023,0.0828 -0.031,0.12519 -0.031,0.15259 -0.058,0.30772 -0.086,0.46164 -0.04,0.21981 -0.045,0.45049 -0.078,0.67291 0.1317,-0.006 0.2727,-0.01 0.4069,-0.0155 0.1106,-0.42856 0.2484,-0.84505 0.3911,-1.25976 z m 5.8763,21.54102 c -0.4985,0.0208 -1.1348,0.0505 -1.6198,0.0704 0.3275,0.34143 0.6488,0.68626 1.0096,1.00935 0.6262,-0.0328 1.3971,-0.0681 2.0421,-0.1017 -0.5388,-0.3247 -0.9695,-0.65263 -1.4319,-0.97808 z"
           id="path9176" />
      </g>
    </g>
  </g>
</svg>
