<?xml version="1.0" encoding="UTF-8" standalone="no"?>
<!-- Created with Inkscape (http://www.inkscape.org/) -->

<svg
   xmlns:dc="http://purl.org/dc/elements/1.1/"
   xmlns:cc="http://creativecommons.org/ns#"
   xmlns:rdf="http://www.w3.org/1999/02/22-rdf-syntax-ns#"
   xmlns:svg="http://www.w3.org/2000/svg"
   xmlns="http://www.w3.org/2000/svg"
   xmlns:sodipodi="http://sodipodi.sourceforge.net/DTD/sodipodi-0.dtd"
   xmlns:inkscape="http://www.inkscape.org/namespaces/inkscape"
   width="413.5433"
   height="434.68503"
   viewBox="0 0 109.41665 115.01042"
   version="1.1"
   id="svg23489"
   inkscape:version="0.48.5 r10040"
   sodipodi:docname="short_wooden_button_grey.svg">
  <defs
     id="defs23483" />
  <sodipodi:namedview
     id="base"
     pagecolor="#7d848b"
     bordercolor="#666666"
     borderopacity="1.0"
     inkscape:pageopacity="0"
     inkscape:pageshadow="2"
     inkscape:zoom="0.16626794"
     inkscape:cx="301.26207"
     inkscape:cy="-148.37938"
     inkscape:document-units="px"
     inkscape:current-layer="layer1"
     showgrid="false"
     inkscape:pagecheckerboard="false"
     showborder="true"
     units="px"
     inkscape:window-width="1920"
     inkscape:window-height="1017"
     inkscape:window-x="-8"
     inkscape:window-y="-8"
     inkscape:window-maximized="1"
     inkscape:showpageshadow="false"
     guidetolerance="28"
     fit-margin-top="25"
     fit-margin-left="25"
     fit-margin-right="25"
     fit-margin-bottom="25">
    <inkscape:grid
       type="xygrid"
       id="grid24034"
       spacingx="1px"
       spacingy="1px"
       empspacing="8"
       visible="true"
       enabled="true"
       snapvisiblegridlinesonly="true"
       originx="1408.2397px"
       originy="-1052.8273px" />
  </sodipodi:namedview>
  <metadata
     id="metadata23486">
    <rdf:RDF>
      <cc:Work
         rdf:about="">
        <dc:format>image/svg+xml</dc:format>
        <dc:type
           rdf:resource="http://purl.org/dc/dcmitype/StillImage" />
        <dc:title></dc:title>
        <cc:license
           rdf:resource="" />
        <dc:creator>
          <cc:Agent>
            <dc:title>Robert Brooks</dc:title>
          </cc:Agent>
        </dc:creator>
      </cc:Work>
    </rdf:RDF>
  </metadata>
  <g
     inkscape:label="Layer 1"
     inkscape:groupmode="layer"
     id="layer1"
     transform="translate(372.59681,96.570884)">
    <g
       id="g15821"
       transform="translate(-10279.701,-1536.1438)">
      <path
         style="color:#000000;fill:#282828;fill-opacity:1;fill-rule:nonzero;stroke:#282828;stroke-width:7.9375;stroke-miterlimit:4;stroke-opacity:1;stroke-dasharray:none;marker:none;visibility:visible;display:inline;overflow:visible;enable-background:accumulate"
         d="m 9962.1502,1456.4548 c -9.6131,0 -19.9991,1.7797 -27.3533,6.8302 -4.4965,3.0882 -8.7281,8.3971 -11.7574,13.005 -4.4733,6.8044 -5.3426,15.2504 -5.3426,23.9304 0,12.1083 2.0288,20.8955 9.6409,28.9284 0.9797,0.1522 3.172,1.9284 3.172,1.9284 0,0 -0.025,0.6578 -0.045,1.5837 0.1794,0.1666 0.3595,0.3323 0.5441,0.4958 8.1491,7.2278 20.302,10.8296 31.1443,10.8296 12.5243,0 23.823,-5.2621 31.801,-13.693 7.4208,-7.842 11.9648,-18.4239 11.9648,-30.0729 0,-7.6675 -2.31,-16.6233 -5.775,-22.8905 -7.4557,-13.4901 -21.4858,-20.8751 -37.9908,-20.8751 z"
         id="path12621"
         inkscape:connector-curvature="0"
         sodipodi:nodetypes="scssccccscscs" />
      <path
         sodipodi:nodetypes="ssssssssss"
         inkscape:connector-curvature="0"
         id="path12623"
         d="m 10005.922,1493.9371 c 0,11.6488 -4.551,22.2349 -11.972,30.077 -7.9778,8.4309 -19.2722,13.6905 -31.7961,13.6905 -10.8424,0 -22.9977,-3.5943 -31.147,-10.8221 -9.3553,-8.2979 -13.318,-19.6162 -13.318,-32.9454 0,-8.68 0.8734,-17.1188 5.3466,-23.9231 3.0296,-4.6078 7.2592,-9.9207 11.7555,-13.0088 7.3541,-5.0506 17.7495,-6.8357 27.3629,-6.8357 16.5049,0 30.5273,7.3918 37.9831,20.8819 3.465,6.2673 5.785,15.2179 5.785,22.8857 z"
         style="color:#000000;fill:#282828;fill-opacity:1;fill-rule:nonzero;stroke:#282828;stroke-width:7.67820072;stroke-miterlimit:4;stroke-opacity:1;stroke-dasharray:none;marker:none;visibility:visible;display:inline;overflow:visible;enable-background:accumulate" />
      <path
         inkscape:connector-curvature="0"
         style="color:#000000;fill:#717171;fill-opacity:1;fill-rule:nonzero;stroke:none;stroke-width:12;marker:none;visibility:visible;display:inline;overflow:visible;enable-background:accumulate"
         d="m 9962.1502,1456.4548 c -9.6131,0 -19.9991,1.7797 -27.3533,6.8302 -4.4965,3.0882 -8.7281,8.3971 -11.7574,13.005 -4.4733,6.8044 -5.3426,15.2504 -5.3426,23.9304 0,12.1083 3.2496,22.5521 10.8617,30.5849 0.9797,0.1522 1.9512,0.2719 1.9512,0.2719 0,0 -0.025,0.6578 -0.045,1.5837 0.1794,0.1666 0.3595,0.3323 0.5441,0.4958 8.1491,7.2278 20.302,10.8296 31.1443,10.8296 12.5243,0 23.823,-5.2621 31.801,-13.693 7.4208,-7.842 11.9648,-18.4239 11.9648,-30.0729 0,-7.6675 -2.31,-16.6233 -5.775,-22.8905 -7.4557,-13.4901 -21.4858,-20.8751 -37.9908,-20.8751 z"
         id="path12625" />
      <path
         style="opacity:0.5;color:#000000;fill:#282828;fill-opacity:1;fill-rule:nonzero;stroke:none;stroke-width:18.89800072;marker:none;visibility:visible;display:inline;overflow:visible;enable-background:accumulate"
         d="m 9995.3788,1519.2171 c 0,0 -1.6736,2.8797 -1.6736,3.2287 0,0.1739 0.08,3.9043 0.099,7.995 0.048,-0.048 0.1065,-0.1036 0.1539,-0.1522 0.4301,-0.4545 0.8401,-0.9135 1.2507,-1.3862 0.1378,-4.1901 0.238,-8.1159 0.1703,-9.6854 z m -66.8359,4.2427 c -0.064,1.6705 0.06,4.7529 0.1702,7.3699 0.9174,0.1392 1.7915,0.2535 1.7915,0.2535 0,0 -0.02,0.6462 -0.033,1.5721 0.064,0.06 0.1221,0.1263 0.186,0.1858 0.037,-2.9557 0.1306,-6.2681 0.05,-6.4231 -0.1235,-0.2467 -2.164,-2.9582 -2.164,-2.9582 z"
         id="path12627"
         class="switchable"
         inkscape:connector-curvature="0"
         name="grain" />
      <path
         sodipodi:nodetypes="ssssssssss"
         inkscape:connector-curvature="0"
         id="path12629"
         d="m 10005.922,1493.9371 c 0,11.6488 -4.551,19.0961 -11.972,26.9383 -7.9778,8.4308 -19.2722,6.7156 -31.7961,6.7156 -10.8424,0 -22.9977,2.3344 -31.147,-4.8934 -9.3553,-8.2979 -13.318,-15.4313 -13.318,-28.7605 0,-8.68 0.8734,-17.1188 5.3466,-23.9231 3.0296,-4.6078 7.2592,-9.9207 11.7555,-13.0088 7.3541,-5.0506 17.7495,-6.8357 27.3629,-6.8357 16.5049,0 30.5273,7.3918 37.9831,20.8819 3.465,6.2673 5.785,15.2179 5.785,22.8857 z"
         style="color:#000000;fill:#282828;fill-opacity:1;fill-rule:nonzero;stroke:#282828;stroke-width:7.9375;stroke-miterlimit:4;stroke-opacity:1;stroke-dasharray:none;marker:none;visibility:visible;display:inline;overflow:visible;enable-background:accumulate" />
      <path
         inkscape:connector-curvature="0"
         style="color:#000000;fill:#b0b0b0;fill-opacity:1;fill-rule:nonzero;stroke:none;stroke-width:12;marker:none;visibility:visible;display:inline;overflow:visible;enable-background:accumulate"
         d="m 9962.1502,1450.1681 c -9.6131,0 -19.9991,1.7799 -27.3533,6.8305 -2.5666,1.7628 -5.0425,4.2552 -7.262,6.9262 l 7.9341,1.5837 -10.686,1.9678 c -0.6154,0.8559 -1.1998,1.7164 -1.7435,2.5433 -4.4733,6.8042 -5.3426,15.2344 -5.3426,23.9144 0,13.3292 3.9531,24.6541 13.309,32.9522 8.1493,7.2277 20.302,10.8135 31.1443,10.8135 12.5246,0 23.8224,-5.262 31.8011,-13.6928 2.6545,-2.8054 4.9388,-5.9592 6.7827,-9.3898 -1.782,-0.1595 -5.5306,-0.5585 -7.759,-1.2157 3.206,-0.7033 5.6185,-0.1363 8.574,-0.3998 2.796,-5.7654 4.367,-12.23 4.367,-19.0676 0,-7.6677 -2.31,-16.6074 -5.775,-22.8747 -7.4557,-13.4902 -21.485,-20.8912 -37.9908,-20.8912 z"
         id="path12631" />
      <path
         inkscape:connector-curvature="0"
         style="color:#000000;fill:#dadada;fill-opacity:1;fill-rule:nonzero;stroke:none;stroke-width:12;marker:none;visibility:visible;display:inline;overflow:visible;enable-background:accumulate"
         d="m 9920.8806,1512.3297 c -0.047,-0.1235 -0.098,-0.2452 -0.145,-0.368 0,0.033 0.02,0.047 0.02,0.079 0.034,0.098 0.091,0.1898 0.1292,0.2879 z"
         id="path12633" />
      <path
         inkscape:connector-curvature="0"
         style="color:#000000;fill:#dadada;fill-opacity:1;fill-rule:nonzero;stroke:none;stroke-width:12;marker:none;visibility:visible;display:inline;overflow:visible;enable-background:accumulate"
         d="m 9935.0369,1526.5344 c -1.3186,0.068 -2.8947,0.142 -4.1748,0.208 0.051,0.045 0.092,0.098 0.1431,0.1431 8.1493,7.228 20.3021,10.8135 31.1446,10.8135 6.4014,0 12.4836,-1.3701 17.9636,-3.8393 -7.7442,2.304 -18.62,3.4452 -31.3842,-1.0396 -5.5713,-1.9576 -10.0683,-4.1018 -13.693,-6.2864 z"
         id="path12635" />
      <path
         inkscape:connector-curvature="0"
         style="color:#000000;fill:#dadada;fill-opacity:1;fill-rule:nonzero;stroke:none;stroke-width:12;marker:none;visibility:visible;display:inline;overflow:visible;enable-background:accumulate"
         d="m 9921.4723,1512.8576 -0.3682,-0.019 c 1.7809,4.374 4.331,8.3312 7.6941,11.8373 0.9915,-0.041 2.2923,-0.1009 3.3115,-0.145 -6.278,-4.4165 -9.3231,-8.7084 -10.6374,-11.6772 z"
         id="path12637" />
      <path
         inkscape:connector-curvature="0"
         style="color:#000000;fill:#dadada;fill-opacity:1;fill-rule:nonzero;stroke:none;stroke-width:12;marker:none;visibility:visible;display:inline;overflow:visible;enable-background:accumulate"
         d="m 9920.6246,1510.4582 c 0,-6e-4 -0.02,3e-4 -0.031,0 0.031,0.4184 0.061,0.8996 0.1431,1.5035 0.047,0.1235 0.096,0.2456 0.145,0.368 0.067,0.1738 0.1539,0.3389 0.2234,0.5118 l 0.3684,0.018 c -0.4158,-0.9382 -0.7122,-1.7794 -0.8478,-2.3994 z"
         id="path12639" />
      <path
         inkscape:connector-curvature="0"
         style="color:#000000;fill:#dadada;fill-opacity:1;fill-rule:nonzero;stroke:none;stroke-width:12;marker:none;visibility:visible;display:inline;overflow:visible;enable-background:accumulate"
         d="m 9920.5762,1510.3141 c 0,0.038 0.02,0.1036 0.02,0.1431 0.02,5e-4 0.02,-3e-4 0.031,0 -0.02,-0.041 -0.041,-0.1051 -0.047,-0.1431 z"
         id="path12641" />
      <path
         inkscape:connector-curvature="0"
         style="color:#000000;fill:#dadada;fill-opacity:1;fill-rule:nonzero;stroke:none;stroke-width:12;marker:none;visibility:visible;display:inline;overflow:visible;enable-background:accumulate"
         d="m 9920.5123,1509.0184 c 0,-0.028 0,0 -0.031,0.097 -0.047,0.1902 -0.026,0.6082 0.096,1.1998 -0.047,-0.7577 -0.051,-1.2251 -0.064,-1.2959 z"
         id="path12643" />
      <path
         inkscape:connector-curvature="0"
         style="color:#000000;fill:#dadada;fill-opacity:1;fill-rule:nonzero;stroke:none;stroke-width:12;marker:none;visibility:visible;display:inline;overflow:visible;enable-background:accumulate"
         d="m 9918.8644,1480.5291 c 0.3851,-0.018 0.8391,-0.018 1.2319,-0.033 0.5732,-1.6656 1.2106,-3.297 2.0796,-4.8307 -0.6619,0.061 -1.341,0.1557 -1.9998,0.2078 l -0.02,0 c -0.5405,1.5038 -0.9591,3.0632 -1.2956,4.655 z"
         id="path12645"
         sodipodi:nodetypes="ccccccc" />
      <path
         inkscape:connector-curvature="0"
         style="color:#000000;fill:#dadada;fill-opacity:1;fill-rule:nonzero;stroke:none;stroke-width:12;marker:none;visibility:visible;display:inline;overflow:visible;enable-background:accumulate"
         d="m 9919.2968,1483.0725 c -0.2744,0.018 -0.5627,0.02 -0.8319,0.031 -0.5288,3.505 -0.768,7.1269 -0.768,10.8294 0,0.5217 0,1.0367 0.02,1.5517 0.1008,-4.2985 1.5812,-11.4719 2.5972,-15.4074 z"
         id="path12647"
         sodipodi:nodetypes="ccsccc" />
      <path
         inkscape:connector-curvature="0"
         style="color:#000000;fill:#dadada;fill-opacity:1;fill-rule:nonzero;stroke:none;stroke-width:12;marker:none;visibility:visible;display:inline;overflow:visible;enable-background:accumulate"
         d="m 9995.3749,1464.3888 c -1.1452,0.1051 -2.4616,0.2568 -3.7271,0.4 3.335,2.9241 6.2436,6.3742 8.4932,10.4456 0.596,1.0769 1.111,2.3038 1.632,3.5192 0.402,0 1.144,-0.026 1.536,-0.033 -0.893,-2.7601 -1.922,-5.4097 -3.168,-7.6621 -1.3544,-2.4523 -3.0013,-4.6288 -4.7661,-6.6705 z"
         id="path12649" />
      <path
         inkscape:connector-curvature="0"
         style="color:#000000;fill:#dadada;fill-opacity:1;fill-rule:nonzero;stroke:none;stroke-width:12;marker:none;visibility:visible;display:inline;overflow:visible;enable-background:accumulate"
         d="m 9962.1467,1450.1673 c -9.613,0 -19.9952,1.7782 -27.3495,6.8288 -1.9023,1.3067 -3.7581,3.0182 -5.4937,4.9019 -0.02,0.024 -0.028,0.045 -0.051,0.067 -0.2819,0.3078 -0.5685,0.6133 -0.8454,0.9297 -0.2953,0.3384 -0.5922,0.6857 -0.879,1.0311 l 3.2456,0.6424 4.6993,0.9466 -6.7781,1.2337 -3.9048,0.7271 c -0.041,0.06 -0.091,0.1094 -0.1334,0.1684 -0.5685,0.797 -1.117,1.5972 -1.6226,2.3665 -0.7821,1.19 -1.4183,2.4535 -1.9949,3.7355 -0.174,0.3855 -0.3333,0.7736 -0.4902,1.1666 -0.1065,0.2797 -0.2368,0.5469 -0.3379,0.8282 -0.02,0.041 -0.026,0.094 -0.033,0.1363 0.6594,-0.053 1.3329,-0.1431 1.9944,-0.2029 0.2803,-0.4945 0.5475,-1.0088 0.8623,-1.4875 0.1431,-0.2185 0.3579,-0.4377 0.5067,-0.6592 1.1927,-1.7731 2.4808,-3.6174 3.9557,-5.3921 3.1923,-0.8719 10.1797,-2.7935 11.021,-3.1439 0.7272,-0.3032 -2.9831,-1.2451 -5.9166,-2.1131 0.7206,-0.6134 1.4594,-1.1833 2.1975,-1.6903 7.3544,-5.0506 17.7365,-6.8288 27.3495,-6.8288 10.1967,0 19.4355,2.831 26.7747,8.1643 0.9574,0.6956 1.8294,1.4843 2.7213,2.265 1.2658,-0.1432 2.5904,-0.3009 3.7363,-0.4057 -0.6309,-0.7292 -1.2323,-1.4882 -1.9102,-2.1637 -0.068,-0.068 -0.1306,-0.1504 -0.2023,-0.2197 -7.8578,-7.7058 -18.7933,-11.8324 -31.1191,-11.8324 z m 41.1593,28.5495 c -0.391,0 -1.136,0.027 -1.538,0.034 0.316,0.7363 0.628,1.4732 0.913,2.2483 l 1.352,0 c -0.213,-0.7761 -0.482,-1.5266 -0.727,-2.282 z m -83.2145,1.775 c -0.3928,0.018 -0.849,0.02 -1.234,0.034 -0.02,0.087 -0.034,0.1667 -0.051,0.2535 -0.064,0.3119 -0.1292,0.6321 -0.186,0.9467 -0.081,0.4493 -0.084,0.9313 -0.1522,1.3861 0.2695,-0.019 0.5539,-0.021 0.8281,-0.034 0.2266,-0.8762 0.5029,-1.7383 0.7948,-2.5862 z m 12.0182,44.0498 c -1.019,0.044 -2.3217,0.094 -3.3131,0.1363 0.6696,0.698 1.3247,1.4017 2.0624,2.0622 1.2798,-0.067 2.856,-0.1334 4.1749,-0.2027 -1.1012,-0.6638 -1.9788,-1.3293 -2.9242,-1.9945 z"
         id="path12651" />
      <path
         inkscape:connector-curvature="0"
         style="color:#000000;fill:#dadada;fill-opacity:1;fill-rule:nonzero;stroke:none;stroke-width:12;marker:none;visibility:visible;display:inline;overflow:visible;enable-background:accumulate"
         d="m 10004.029,1480.993 c -0.377,0 -0.955,0 -1.344,0 1.746,4.7441 2.932,10.0922 3.184,15.1005 0.03,-0.7142 0.05,-1.4367 0.05,-2.1595 0,-4.1574 -0.714,-8.6644 -1.888,-12.941 z"
         id="path12653" />
      <path
         inkscape:connector-curvature="0"
         style="color:#000000;fill:#a4a4a4;fill-opacity:1;fill-rule:nonzero;stroke:none;stroke-width:12;marker:none;visibility:visible;display:inline;overflow:visible;enable-background:accumulate"
         d="m 9993.103,1461.8456 c 1.8362,1.9708 3.479,4.121 4.8953,6.4782 3.6967,6.1534 6.1737,14.9468 6.1737,22.475 0,7.3455 -1.273,15.4121 -4.2863,22.2826 0.5403,0 1.0913,-0.028 1.6633,-0.08 2.794,-5.7639 4.367,-12.2298 4.367,-19.0674 0,-7.6678 -2.31,-16.6075 -5.775,-22.8748 -1.9263,-3.4864 -4.3037,-6.5643 -7.038,-9.2137 z m 6.1426,52.6115 c -1.5908,3.2818 -3.6032,6.2321 -6.0944,8.654 -8.5141,8.2775 -22.3226,10.6536 -35.6878,10.6536 -8.0929,0 -16.8567,-1.7174 -24.3782,-5.1829 8.0518,6.0919 19.109,9.1179 29.065,9.1179 12.5246,0 23.8224,-5.262 31.8011,-13.6928 2.6535,-2.8045 4.9408,-5.9609 6.7827,-9.3898 -0.385,-0.034 -0.9548,-0.1037 -1.4884,-0.1595 z"
         id="path12655" />
      <g
         transform="matrix(2.0443656,0,0,2.0443656,1766.2006,600.20174)"
         id="g12657"
         class="switchable"
         name="grain">
        <g
           id="g12659">
          <path
             id="path12661"
             d="m 4024.2696,422.03312 c -0.6576,0.0688 -1.3461,0.1477 -2.0815,0.24257 -5.3733,0.69332 -14.3001,2.95323 -23.5596,4.3974 -3.251,0.50703 -6.5393,0.90221 -9.7182,1.10327 -0.152,0.33883 -0.2809,0.69029 -0.4069,1.04066 3.2532,-0.26052 6.6129,-0.72737 9.9764,-1.25193 9.3343,-1.45584 18.6615,-3.37392 23.865,-4.04528 1.0972,-0.14162 2.0837,-0.24481 3.0046,-0.32865 -0.3461,-0.40171 -0.7043,-0.78953 -1.0798,-1.15804 z m 4.9451,8.17667 c -4.8745,0.0752 -11.4119,0.18618 -19.1388,0.33644 -6.5799,0.128 -13.3223,0.27816 -18.7556,0.43818 -1.2379,0.0364 -2.3774,0.0731 -3.4583,0.10956 -0.088,0.41499 -0.1634,0.83482 -0.2272,1.25975 7.571,-0.34853 19.0193,-0.81453 23.4033,-0.89983 7.3188,-0.14231 13.891,-0.15077 18.5053,-0.13301 -0.1024,-0.37348 -0.2113,-0.74728 -0.3287,-1.11109 z m -40.4321,15.48592 c 0.1334,0.39789 0.2814,0.78839 0.4381,1.17371 l 38.0191,1.17138 c 0.044,-0.0805 0.09,-0.16132 0.1333,-0.24255 -0.8719,-0.0779 -2.1624,-0.30338 -3.2523,-0.62483 1.4963,-0.32823 2.641,-0.0984 3.9984,-0.18779 -13.649,-0.12238 -26.3839,-0.70321 -39.3366,-1.28992 z m 36.4766,5.16096 c -5.827,0.39118 -12.1784,0.90938 -18.7593,1.22274 -5.0486,0.24045 -9.0821,0.19915 -13.2149,0.36909 0.3315,0.34618 0.6832,0.68195 1.0483,1.00936 4.3272,-0.22686 8.5077,-0.23281 13.5047,-0.47081 5.9351,-0.28258 11.028,-0.47438 16.1707,-0.7456 0.35,-0.37861 0.9282,-0.98173 1.2505,-1.38478 z"
             style="font-size:medium;font-style:normal;font-variant:normal;font-weight:normal;font-stretch:normal;text-indent:0;text-align:start;text-decoration:none;line-height:normal;letter-spacing:normal;word-spacing:normal;text-transform:none;direction:ltr;block-progression:tb;writing-mode:lr-tb;text-anchor:start;baseline-shift:baseline;opacity:0.5;color:#000000;fill:#dadada;fill-opacity:1;stroke:none;stroke-width:5.00009584;marker:none;visibility:visible;display:inline;overflow:visible;enable-background:accumulate;font-family:Sans;-inkscape-font-specification:Sans"
             inkscape:connector-curvature="0"
             sodipodi:nodetypes="ccsccsccccscccccccccccccccccccc" />
          <path
             inkscape:connector-curvature="0"
             style="font-size:medium;font-style:normal;font-variant:normal;font-weight:normal;font-stretch:normal;text-indent:0;text-align:start;text-decoration:none;line-height:normal;letter-spacing:normal;word-spacing:normal;text-transform:none;direction:ltr;block-progression:tb;writing-mode:lr-tb;text-anchor:start;baseline-shift:baseline;color:#000000;fill:#a4a4a4;fill-opacity:1;stroke:none;stroke-width:5;marker:none;visibility:visible;display:inline;overflow:visible;enable-background:accumulate;font-family:Sans;-inkscape-font-specification:Sans"
             d="m 4024.2696,421.55063 c -0.6575,0.0688 -1.3461,0.1477 -2.0815,0.24257 -5.3733,0.69332 -14.3,2.95323 -23.5595,4.3974 -3.251,0.50703 -6.5394,0.90222 -9.7182,1.10328 -0.152,0.33882 -0.281,0.69028 -0.4069,1.04065 3.2532,-0.26053 6.6129,-0.72737 9.9763,-1.25193 9.3344,-1.45584 18.6615,-3.37392 23.8651,-4.04528 1.0972,-0.14162 2.0837,-0.2448 3.0046,-0.32866 -0.346,-0.40169 -0.7043,-0.78951 -1.0799,-1.15803 z m 4.9451,8.17667 c -4.8745,0.0753 -11.4118,0.18619 -19.1387,0.33644 -6.5799,0.128 -13.3223,0.27816 -18.7557,0.43818 -1.2379,0.0365 -2.3774,0.0731 -3.4583,0.10957 -0.088,0.41499 -0.1633,0.83481 -0.2271,1.25974 7.5709,-0.34854 19.0193,-0.81453 23.4033,-0.89984 7.3188,-0.14229 13.8909,-0.15076 18.5053,-0.133 -0.1025,-0.37348 -0.2114,-0.74728 -0.3288,-1.11109 z m -40.7035,15.51608 c 0.1335,0.39789 0.2815,0.78839 0.4382,1.17371 l 38.8333,1.11106 c 0.045,-0.0806 0.089,-0.16132 0.1332,-0.24255 -0.8718,-0.0779 -2.7051,-0.27322 -3.7951,-0.59466 1.4964,-0.32824 2.6411,-0.0984 3.9985,-0.18779 -13.6491,-0.12239 -26.6554,-0.67307 -39.6081,-1.25977 z m 37.2607,5.28159 c -5.827,0.39118 -12.6911,0.75859 -19.2719,1.07195 -5.0486,0.24044 -9.6852,0.4404 -13.8181,0.61034 0.3315,0.34618 0.6833,0.68195 1.0484,1.00935 4.3271,-0.22685 9.1108,-0.47405 14.1077,-0.71204 5.9352,-0.28259 11.7819,-0.5347 16.9246,-0.80592 0.35,-0.37861 0.687,-0.77064 1.0093,-1.17368 z"
             id="path12663" />
        </g>
        <path
           id="path12665"
           d="m 4024.2618,421.55063 c -0.6552,0.0687 -1.3398,0.14805 -2.0737,0.24257 -0.012,0.003 -0.033,0.006 -0.047,0.008 0.4682,0.3403 0.8939,0.7293 1.3303,1.11112 0.619,-0.0702 1.2629,-0.14433 1.8231,-0.19563 -0.3085,-0.3567 -0.5995,-0.73371 -0.9312,-1.06414 -0.034,-0.0339 -0.067,-0.068 -0.1017,-0.10173 z m -34.1073,5.63368 c -0.4044,0.0316 -0.8192,0.084 -1.2206,0.10957 -0.085,0.18851 -0.166,0.37901 -0.2426,0.57118 -0.052,0.13686 -0.1147,0.26926 -0.1643,0.40687 -0.01,0.02 -0.01,0.0425 -0.015,0.0626 0.3227,-0.0258 0.6545,-0.072 0.9782,-0.10171 0.137,-0.24194 0.2685,-0.48572 0.4224,-0.71986 0.07,-0.10691 0.1698,-0.22034 0.2427,-0.32865 z m 39.0211,2.54299 c -0.1915,0.003 -0.5546,0.0125 -0.7511,0.0155 0.1545,0.36011 0.3065,0.71631 0.4459,1.09544 0.1903,0 0.473,0 0.6573,0 -0.1042,-0.37953 -0.2326,-0.74159 -0.3521,-1.11108 z m -40.7034,0.86851 c -0.1921,0.007 -0.4142,0.009 -0.6025,0.0158 -0.01,0.0422 -0.023,0.0828 -0.031,0.12519 -0.031,0.15259 -0.058,0.30772 -0.086,0.46164 -0.04,0.21981 -0.045,0.45049 -0.078,0.67291 0.1317,-0.006 0.2727,-0.01 0.4069,-0.0155 0.1106,-0.42856 0.2484,-0.84505 0.3911,-1.25976 z m 5.8763,21.54102 c -0.4985,0.0208 -1.1348,0.0505 -1.6198,0.0704 0.3275,0.34143 0.6488,0.68626 1.0096,1.00935 0.6262,-0.0328 1.3971,-0.0681 2.0421,-0.1017 -0.5388,-0.3247 -0.9695,-0.65263 -1.4319,-0.97808 z"
           style="color:#000000;fill:#b0b0b0;fill-opacity:1;fill-rule:nonzero;stroke:none;stroke-width:12;marker:none;visibility:visible;display:inline;overflow:visible;enable-background:accumulate"
           inkscape:connector-curvature="0" />
      </g>
    </g>
  </g>
</svg>
