<?xml version="1.0" encoding="UTF-8" standalone="no"?>
<!-- Created with Inkscape (http://www.inkscape.org/) -->

<svg
   xmlns:dc="http://purl.org/dc/elements/1.1/"
   xmlns:cc="http://creativecommons.org/ns#"
   xmlns:rdf="http://www.w3.org/1999/02/22-rdf-syntax-ns#"
   xmlns:svg="http://www.w3.org/2000/svg"
   xmlns="http://www.w3.org/2000/svg"
   xmlns:sodipodi="http://sodipodi.sourceforge.net/DTD/sodipodi-0.dtd"
   xmlns:inkscape="http://www.inkscape.org/namespaces/inkscape"
   width="413.4252"
   height="434.56693"
   viewBox="0 0 109.3854 114.97917"
   version="1.1"
   id="svg23489"
   inkscape:version="0.48.5 r10040"
   sodipodi:docname="long_wooden_button_red.svg">
  <defs
     id="defs23483" />
  <sodipodi:namedview
     id="base"
     pagecolor="#7d848b"
     bordercolor="#666666"
     borderopacity="1.0"
     inkscape:pageopacity="0"
     inkscape:pageshadow="2"
     inkscape:zoom="0.11756919"
     inkscape:cx="-536.16383"
     inkscape:cy="-971.90907"
     inkscape:document-units="px"
     inkscape:current-layer="layer1"
     showgrid="false"
     inkscape:pagecheckerboard="false"
     showborder="true"
     units="px"
     inkscape:window-width="1920"
     inkscape:window-height="1017"
     inkscape:window-x="-8"
     inkscape:window-y="-8"
     inkscape:window-maximized="1"
     inkscape:showpageshadow="false"
     guidetolerance="28"
     fit-margin-top="25"
     fit-margin-left="25"
     fit-margin-right="25"
     fit-margin-bottom="25">
    <inkscape:grid
       type="xygrid"
       id="grid24034"
       spacingx="1px"
       spacingy="1px"
       empspacing="8"
       visible="true"
       enabled="true"
       snapvisiblegridlinesonly="true"
       originx="247.41235px"
       originy="-2547.7569px" />
  </sodipodi:namedview>
  <metadata
     id="metadata23486">
    <rdf:RDF>
      <cc:Work
         rdf:about="">
        <dc:format>image/svg+xml</dc:format>
        <dc:type
           rdf:resource="http://purl.org/dc/dcmitype/StillImage" />
        <dc:title></dc:title>
        <cc:license
           rdf:resource="" />
        <dc:creator>
          <cc:Agent>
            <dc:title>Robert Brooks</dc:title>
          </cc:Agent>
        </dc:creator>
      </cc:Work>
    </rdf:RDF>
  </metadata>
  <g
     inkscape:label="Layer 1"
     inkscape:groupmode="layer"
     id="layer1"
     transform="translate(65.461212,492.07311)">
    <g
       id="g15670"
       transform="translate(-6107.7529,-936.64603)">
      <g
         id="g15372">
        <path
           sodipodi:nodetypes="scssccccscscs"
           inkscape:connector-curvature="0"
           id="path9916"
           d="m 6097.3245,461.42966 c -9.6132,0 -19.9992,1.77971 -27.3535,6.83038 -4.4964,3.08812 -8.728,8.39707 -11.7573,13.00499 -4.4732,6.80432 -5.3426,15.25032 -5.3426,23.93036 0,12.1083 2.0288,20.8954 9.641,28.9283 0.9796,0.1527 3.172,1.9285 3.172,1.9285 0,0 -0.026,0.6578 -0.045,1.5836 0.1793,0.166 0.3594,0.3323 0.5441,0.4959 8.149,7.2277 20.302,10.8295 31.1443,10.8295 12.5242,0 23.8229,-5.2621 31.8011,-13.6928 7.4207,-7.8422 11.9647,-18.4241 11.9647,-30.073 0,-7.66765 -2.3101,-16.6234 -5.7746,-22.89059 -7.4561,-13.49014 -21.4863,-20.87514 -37.9912,-20.87514 z"
           style="color:#000000;fill:#2a080a;fill-opacity:1;fill-rule:nonzero;stroke:#2a080a;stroke-width:7.9375;stroke-miterlimit:4;stroke-opacity:1;stroke-dasharray:none;marker:none;visibility:visible;display:inline;overflow:visible;enable-background:accumulate" />
        <path
           style="color:#000000;fill:#2a080a;fill-opacity:1;fill-rule:nonzero;stroke:#2a080a;stroke-width:7.67820072;stroke-miterlimit:4;stroke-opacity:1;stroke-dasharray:none;marker:none;visibility:visible;display:inline;overflow:visible;enable-background:accumulate"
           d="m 6141.096,498.912 c 0,11.64889 -4.5506,22.23489 -11.9719,30.07709 -7.9776,8.4308 -19.2722,13.6904 -31.7959,13.6904 -10.8426,0 -22.9978,-3.5942 -31.1471,-10.8219 -9.3554,-8.2981 -13.3179,-19.6164 -13.3179,-32.94559 0,-8.68004 0.8733,-17.11872 5.3466,-23.92302 3.0294,-4.6079 7.259,-9.92081 11.7553,-13.00891 7.3543,-5.05069 17.7496,-6.83556 27.3631,-6.83556 16.5048,0 30.5271,7.39165 37.9831,20.88173 3.4646,6.26722 5.7847,15.21811 5.7847,22.88576 z"
           id="path9918"
           inkscape:connector-curvature="0"
           sodipodi:nodetypes="ssssssssss" />
        <path
           id="path9920"
           d="m 6097.3245,461.42966 c -9.6132,0 -19.9992,1.77971 -27.3535,6.83038 -4.4964,3.08812 -8.728,8.39707 -11.7573,13.00499 -4.4732,6.80432 -5.3426,15.25032 -5.3426,23.93036 0,12.1083 3.2496,22.552 10.8618,30.5849 0.9797,0.1527 1.9512,0.2719 1.9512,0.2719 0,0 -0.026,0.6578 -0.045,1.5836 0.1793,0.166 0.3594,0.3323 0.5441,0.4959 8.149,7.2277 20.302,10.8295 31.1443,10.8295 12.5242,0 23.8229,-5.2621 31.8011,-13.6928 7.4207,-7.8422 11.9647,-18.4241 11.9647,-30.073 0,-7.66765 -2.3101,-16.6234 -5.7746,-22.89059 -7.4561,-13.49014 -21.4863,-20.87514 -37.9912,-20.87514 z"
           style="color:#000000;fill:#a42227;fill-opacity:1;fill-rule:nonzero;stroke:none;stroke-width:12;marker:none;visibility:visible;display:inline;overflow:visible;enable-background:accumulate"
           inkscape:connector-curvature="0" />
        <path
           name="grain"
           inkscape:connector-curvature="0"
           class="switchable"
           id="path9922"
           d="m 6130.5529,524.19199 c 0,0 -1.6735,2.8798 -1.6735,3.2286 0,0.1741 0.079,3.9045 0.099,7.9952 0.048,-0.049 0.1065,-0.1029 0.1539,-0.1521 0.43,-0.4546 0.84,-0.9136 1.2505,-1.3861 0.1377,-4.1902 0.238,-8.1159 0.1704,-9.6856 z m -66.8358,4.2428 c -0.064,1.6703 0.06,4.7527 0.1703,7.3698 0.9175,0.1399 1.7914,0.2535 1.7914,0.2535 0,0 -0.02,0.6462 -0.033,1.5721 0.064,0.059 0.1222,0.1272 0.1862,0.1858 0.038,-2.9557 0.1306,-6.268 0.048,-6.4232 -0.1236,-0.2466 -2.1638,-2.9581 -2.1638,-2.9581 z"
           style="opacity:0.5;color:#000000;fill:#2a080a;fill-opacity:1;fill-rule:nonzero;stroke:none;stroke-width:18.89800072;marker:none;visibility:visible;display:inline;overflow:visible;enable-background:accumulate" />
        <path
           style="color:#000000;fill:#2a080a;fill-opacity:1;fill-rule:nonzero;stroke:#2a080a;stroke-width:7.9375;stroke-miterlimit:4;stroke-opacity:1;stroke-dasharray:none;marker:none;visibility:visible;display:inline;overflow:visible;enable-background:accumulate"
           d="m 6141.096,498.912 c 0,11.64889 -4.5506,19.09619 -11.9719,26.93839 -7.9776,8.4308 -19.2722,6.7155 -31.7959,6.7155 -10.8426,0 -22.9978,2.3345 -31.1471,-4.8932 -9.3554,-8.2981 -13.3179,-15.4315 -13.3179,-28.76069 0,-8.68004 0.8733,-17.11872 5.3466,-23.92302 3.0294,-4.6079 7.259,-9.92081 11.7553,-13.00891 7.3543,-5.05069 17.7496,-6.83556 27.3631,-6.83556 16.5048,0 30.5271,7.39165 37.9831,20.88173 3.4646,6.26722 5.7847,15.21811 5.7847,22.88576 z"
           id="path9924"
           inkscape:connector-curvature="0"
           sodipodi:nodetypes="ssssssssss" />
        <path
           id="path9926"
           d="m 6097.3245,455.14312 c -9.6132,0 -19.9992,1.77974 -27.3535,6.83041 -2.5665,1.76288 -5.0423,4.25522 -7.2618,6.92635 l 7.934,1.58366 -10.686,1.96757 c -0.6154,0.856 -1.1998,1.71648 -1.7435,2.54336 -4.4732,6.80432 -5.3426,15.23437 -5.3426,23.91438 0,13.32924 3.9532,24.65424 13.3089,32.95224 8.1493,7.2278 20.3022,10.8135 31.1445,10.8135 12.5246,0 23.8222,-5.262 31.8009,-13.6928 2.6547,-2.8054 4.9388,-5.959 6.7825,-9.3898 -1.7817,-0.1592 -5.5304,-0.5585 -7.7587,-1.2157 3.206,-0.7033 5.6185,-0.1366 8.5741,-0.3999 2.7959,-5.7652 4.3669,-12.2298 4.3669,-19.06754 0,-7.66765 -2.3101,-16.60738 -5.7747,-22.87459 -7.4559,-13.49021 -21.4854,-20.89114 -37.991,-20.89114 z"
           style="color:#000000;fill:#dc4950;fill-opacity:1;fill-rule:nonzero;stroke:none;stroke-width:12;marker:none;visibility:visible;display:inline;overflow:visible;enable-background:accumulate"
           inkscape:connector-curvature="0" />
        <path
           id="path9928"
           d="m 6056.0547,517.30459 c -0.047,-0.1223 -0.098,-0.2451 -0.1448,-0.3679 0,0.032 0.02,0.047 0.02,0.08 0.034,0.099 0.091,0.1897 0.1292,0.288 z"
           style="color:#000000;fill:#f56e74;fill-opacity:1;fill-rule:nonzero;stroke:none;stroke-width:12;marker:none;visibility:visible;display:inline;overflow:visible;enable-background:accumulate"
           inkscape:connector-curvature="0" />
        <path
           id="path9930"
           d="m 6070.2111,531.50929 c -1.3186,0.069 -2.8946,0.1405 -4.1749,0.2079 0.051,0.046 0.092,0.098 0.1431,0.144 8.1493,7.228 20.3023,10.8135 31.1446,10.8135 6.4016,0 12.4837,-1.37 17.9638,-3.8391 -7.7442,2.3039 -18.62,3.4449 -31.3843,-1.0397 -5.5712,-1.9575 -10.0682,-4.1019 -13.693,-6.2865 z"
           style="color:#000000;fill:#f56e74;fill-opacity:1;fill-rule:nonzero;stroke:none;stroke-width:12;marker:none;visibility:visible;display:inline;overflow:visible;enable-background:accumulate"
           inkscape:connector-curvature="0" />
        <path
           id="path9932"
           d="m 6056.6462,517.83239 -0.3679,-0.016 c 1.781,4.3741 4.331,8.3312 7.694,11.8372 0.9915,-0.041 2.2923,-0.1013 3.3115,-0.1438 -6.2779,-4.4167 -9.3229,-8.7085 -10.6376,-11.6773 z"
           style="color:#000000;fill:#f56e74;fill-opacity:1;fill-rule:nonzero;stroke:none;stroke-width:12;marker:none;visibility:visible;display:inline;overflow:visible;enable-background:accumulate"
           inkscape:connector-curvature="0" />
        <path
           id="path9934"
           d="m 6055.7987,515.43299 c 0,-4e-4 -0.02,5e-4 -0.031,0 0.031,0.4185 0.061,0.8997 0.143,1.5037 0.047,0.1228 0.096,0.2457 0.1449,0.3679 0.067,0.1741 0.1541,0.3389 0.2236,0.5119 l 0.3682,0.016 c -0.4157,-0.9383 -0.712,-1.7793 -0.8478,-2.3994 z"
           style="color:#000000;fill:#f56e74;fill-opacity:1;fill-rule:nonzero;stroke:none;stroke-width:12;marker:none;visibility:visible;display:inline;overflow:visible;enable-background:accumulate"
           inkscape:connector-curvature="0" />
        <path
           id="path9936"
           d="m 6055.7504,515.28899 c 0,0.039 0.02,0.1038 0.02,0.1439 0.02,4e-4 0.02,-5e-4 0.031,0 -0.02,-0.041 -0.041,-0.1047 -0.047,-0.1439 z"
           style="color:#000000;fill:#f56e74;fill-opacity:1;fill-rule:nonzero;stroke:none;stroke-width:12;marker:none;visibility:visible;display:inline;overflow:visible;enable-background:accumulate"
           inkscape:connector-curvature="0" />
        <path
           id="path9938"
           d="m 6055.6864,513.99339 c 0,-0.028 0,0.01 -0.031,0.096 -0.047,0.1903 -0.026,0.6083 0.096,1.1997 -0.047,-0.7576 -0.051,-1.225 -0.064,-1.2957 z"
           style="color:#000000;fill:#f56e74;fill-opacity:1;fill-rule:nonzero;stroke:none;stroke-width:12;marker:none;visibility:visible;display:inline;overflow:visible;enable-background:accumulate"
           inkscape:connector-curvature="0" />
        <path
           sodipodi:nodetypes="ccccccc"
           id="path9940"
           d="m 6054.0387,485.50406 c 0.3849,-0.0145 0.8391,-0.0185 1.2318,-0.0322 0.5732,-1.66582 1.2105,-3.29701 2.0797,-4.83082 -0.6619,0.0606 -1.3411,0.15507 -2,0.20793 l -0.02,0 c -0.5405,1.50368 -0.9593,3.06319 -1.2956,4.65493 z"
           style="color:#000000;fill:#f56e74;fill-opacity:1;fill-rule:nonzero;stroke:none;stroke-width:12;marker:none;visibility:visible;display:inline;overflow:visible;enable-background:accumulate"
           inkscape:connector-curvature="0" />
        <path
           sodipodi:nodetypes="ccsccc"
           id="path9942"
           d="m 6054.4709,488.04742 c -0.2742,0.0128 -0.5627,0.0204 -0.8318,0.0317 -0.5289,3.50493 -0.768,7.12675 -0.768,10.82943 0,0.52162 0,1.03657 0.02,1.55168 0.1022,-4.29852 1.5811,-11.47184 2.5973,-15.40732 z"
           style="color:#000000;fill:#f56e74;fill-opacity:1;fill-rule:nonzero;stroke:none;stroke-width:12;marker:none;visibility:visible;display:inline;overflow:visible;enable-background:accumulate"
           inkscape:connector-curvature="0" />
        <path
           id="path9944"
           d="m 6130.549,469.36379 c -1.1452,0.10493 -2.4614,0.25662 -3.7269,0.39995 3.3348,2.92396 6.2435,6.37425 8.4934,10.44552 0.5955,1.07694 1.1103,2.30387 1.632,3.51918 0.4018,-0.006 1.144,-0.0263 1.5354,-0.0317 -0.8931,-2.76005 -1.922,-5.40957 -3.1674,-7.66217 -1.3547,-2.45229 -3.0016,-4.6286 -4.7665,-6.67049 z"
           style="color:#000000;fill:#f56e74;fill-opacity:1;fill-rule:nonzero;stroke:none;stroke-width:12;marker:none;visibility:visible;display:inline;overflow:visible;enable-background:accumulate"
           inkscape:connector-curvature="0" />
        <path
           id="path9946"
           d="m 6097.3211,455.14214 c -9.613,0 -19.9953,1.77821 -27.3495,6.8289 -1.9023,1.30657 -3.7581,3.01815 -5.4939,4.90191 -0.02,0.0224 -0.028,0.0452 -0.051,0.0677 -0.2817,0.30774 -0.5685,0.61329 -0.8452,0.92972 -0.2955,0.33845 -0.5924,0.68569 -0.8792,1.03109 l 3.2455,0.64237 4.6995,0.94658 -6.7782,1.23391 -3.9048,0.72686 c -0.041,0.0598 -0.091,0.10947 -0.1335,0.16902 -0.5684,0.79681 -1.117,1.59717 -1.6228,2.36645 -0.7822,1.18995 -1.4181,2.4535 -1.9949,3.73565 -0.1739,0.38539 -0.3331,0.77345 -0.49,1.16636 -0.1065,0.27975 -0.2369,0.54693 -0.338,0.82821 -0.02,0.0409 -0.026,0.094 -0.033,0.13517 0.6597,-0.0527 1.333,-0.14202 1.9946,-0.20279 0.28,-0.4946 0.5472,-1.00884 0.8622,-1.48749 0.1431,-0.21859 0.3581,-0.43781 0.5066,-0.65926 1.1928,-1.77314 2.4807,-3.6174 3.9557,-5.39212 3.1926,-0.87194 10.1798,-2.79356 11.0209,-3.14401 0.7276,-0.30306 -2.9831,-1.24506 -5.9162,-2.11287 0.7204,-0.61345 1.4592,-1.18335 2.1975,-1.69035 7.3542,-5.05068 17.7364,-6.82892 27.3495,-6.82892 10.1964,0 19.435,2.83112 26.7745,8.16425 0.9574,0.69573 1.8292,1.48446 2.7213,2.26505 1.266,-0.14348 2.5903,-0.3008 3.7361,-0.40569 -0.6307,-0.72924 -1.2321,-1.48808 -1.9098,-2.16361 -0.068,-0.0694 -0.1321,-0.1509 -0.2046,-0.21971 -7.8575,-7.70591 -18.7933,-11.83231 -31.1187,-11.83231 z m 41.1596,28.54961 c -0.3918,0.006 -1.1365,0.0276 -1.5385,0.0337 0.3158,0.73617 0.6282,1.47305 0.9132,2.24818 l 1.3522,0 c -0.2132,-0.77596 -0.4826,-1.52662 -0.7269,-2.282 z m -83.215,1.77481 c -0.3929,0.0145 -0.8488,0.0205 -1.2339,0.0339 -0.02,0.0862 -0.034,0.16685 -0.051,0.25353 -0.064,0.31193 -0.1292,0.63194 -0.186,0.9466 -0.081,0.44935 -0.084,0.93135 -0.1522,1.38605 0.2695,-0.0128 0.554,-0.0224 0.8281,-0.0337 0.2269,-0.87618 0.5033,-1.73838 0.7948,-2.58625 z m 12.0184,44.05003 c -1.0193,0.043 -2.3218,0.094 -3.3132,0.1352 0.6697,0.698 1.3248,1.4016 2.0626,2.0621 1.2797,-0.067 2.8559,-0.134 4.1745,-0.2028 -1.1014,-0.6638 -1.9786,-1.3292 -2.9239,-1.9945 z"
           style="color:#000000;fill:#f56e74;fill-opacity:1;fill-rule:nonzero;stroke:none;stroke-width:12;marker:none;visibility:visible;display:inline;overflow:visible;enable-background:accumulate"
           inkscape:connector-curvature="0" />
        <path
           id="path9948"
           d="m 6139.2029,485.96793 c -0.3768,0 -0.9547,0 -1.3438,0 1.7461,4.74407 2.932,10.0922 3.1836,15.10046 0.034,-0.71415 0.047,-1.43667 0.047,-2.15954 0,-4.15733 -0.7133,-8.66445 -1.8873,-12.94092 z"
           style="color:#000000;fill:#f56e74;fill-opacity:1;fill-rule:nonzero;stroke:none;stroke-width:12;marker:none;visibility:visible;display:inline;overflow:visible;enable-background:accumulate"
           inkscape:connector-curvature="0" />
        <path
           id="path9950"
           d="m 6128.2773,466.82043 c 1.8361,1.97093 3.4789,4.12093 4.8951,6.47845 3.6969,6.15327 6.1741,14.94647 6.1741,22.47472 0,7.34559 -1.2733,15.41229 -4.2866,22.28279 0.5404,0 1.0916,-0.029 1.6634,-0.08 2.7944,-5.764 4.3669,-12.2298 4.3669,-19.06748 0,-7.66768 -2.3101,-16.60739 -5.7747,-22.8746 -1.9266,-3.48667 -4.3041,-6.56435 -7.0382,-9.21384 z m 6.1426,52.61166 c -1.591,3.2818 -3.6032,6.2321 -6.0945,8.6539 -8.514,8.2775 -22.3226,10.6536 -35.6877,10.6536 -8.0929,0 -16.8567,-1.7173 -24.3783,-5.1828 8.0517,6.0918 19.109,9.1178 29.0651,9.1178 12.5246,0 23.8222,-5.262 31.8009,-13.6928 2.6535,-2.8045 4.9408,-5.961 6.7825,-9.3898 -0.3848,-0.034 -0.9546,-0.1033 -1.488,-0.1599 z"
           style="color:#000000;fill:#dc343b;fill-opacity:1;fill-rule:nonzero;stroke:none;stroke-width:12;marker:none;visibility:visible;display:inline;overflow:visible;enable-background:accumulate"
           inkscape:connector-curvature="0" />
        <g
           name="grain"
           class="switchable"
           id="g9952"
           transform="matrix(2.0443656,0,0,2.0443656,-2098.6251,-394.82328)">
          <g
             id="g9954">
            <path
               sodipodi:nodetypes="ccsccsccccscccccccccccccccccccc"
               inkscape:connector-curvature="0"
               style="font-size:medium;font-style:normal;font-variant:normal;font-weight:normal;font-stretch:normal;text-indent:0;text-align:start;text-decoration:none;line-height:normal;letter-spacing:normal;word-spacing:normal;text-transform:none;direction:ltr;block-progression:tb;writing-mode:lr-tb;text-anchor:start;baseline-shift:baseline;opacity:0.5;color:#000000;fill:#f56e74;fill-opacity:1;stroke:none;stroke-width:5.00009584;marker:none;visibility:visible;display:inline;overflow:visible;enable-background:accumulate;font-family:Sans;-inkscape-font-specification:Sans"
               d="m 4024.2696,422.03312 c -0.6576,0.0688 -1.3461,0.1477 -2.0815,0.24257 -5.3733,0.69332 -14.3001,2.95323 -23.5596,4.3974 -3.251,0.50703 -6.5393,0.90221 -9.7182,1.10327 -0.152,0.33883 -0.2809,0.69029 -0.4069,1.04066 3.2532,-0.26052 6.6129,-0.72737 9.9764,-1.25193 9.3343,-1.45584 18.6615,-3.37392 23.865,-4.04528 1.0972,-0.14162 2.0837,-0.24481 3.0046,-0.32865 -0.3461,-0.40171 -0.7043,-0.78953 -1.0798,-1.15804 z m 4.9451,8.17667 c -4.8745,0.0752 -11.4119,0.18618 -19.1388,0.33644 -6.5799,0.128 -13.3223,0.27816 -18.7556,0.43818 -1.2379,0.0364 -2.3774,0.0731 -3.4583,0.10956 -0.088,0.41499 -0.1634,0.83482 -0.2272,1.25975 7.571,-0.34853 19.0193,-0.81453 23.4033,-0.89983 7.3188,-0.14231 13.891,-0.15077 18.5053,-0.13301 -0.1024,-0.37348 -0.2113,-0.74728 -0.3287,-1.11109 z m -40.4321,15.48592 c 0.1334,0.39789 0.2814,0.78839 0.4381,1.17371 l 38.0191,1.17138 c 0.044,-0.0805 0.09,-0.16132 0.1333,-0.24255 -0.8719,-0.0779 -2.1624,-0.30338 -3.2523,-0.62483 1.4963,-0.32823 2.641,-0.0984 3.9984,-0.18779 -13.649,-0.12238 -26.3839,-0.70321 -39.3366,-1.28992 z m 36.4766,5.16096 c -5.827,0.39118 -12.1784,0.90938 -18.7593,1.22274 -5.0486,0.24045 -9.0821,0.19915 -13.2149,0.36909 0.3315,0.34618 0.6832,0.68195 1.0483,1.00936 4.3272,-0.22686 8.5077,-0.23281 13.5047,-0.47081 5.9351,-0.28258 11.028,-0.47438 16.1707,-0.7456 0.35,-0.37861 0.9282,-0.98173 1.2505,-1.38478 z"
               id="path9956" />
            <path
               id="path9958"
               d="m 4024.2696,421.55063 c -0.6575,0.0688 -1.3461,0.1477 -2.0815,0.24257 -5.3733,0.69332 -14.3,2.95323 -23.5595,4.3974 -3.251,0.50703 -6.5394,0.90222 -9.7182,1.10328 -0.152,0.33882 -0.281,0.69028 -0.4069,1.04065 3.2532,-0.26053 6.6129,-0.72737 9.9763,-1.25193 9.3344,-1.45584 18.6615,-3.37392 23.8651,-4.04528 1.0972,-0.14162 2.0837,-0.2448 3.0046,-0.32866 -0.346,-0.40169 -0.7043,-0.78951 -1.0799,-1.15803 z m 4.9451,8.17667 c -4.8745,0.0753 -11.4118,0.18619 -19.1387,0.33644 -6.5799,0.128 -13.3223,0.27816 -18.7557,0.43818 -1.2379,0.0365 -2.3774,0.0731 -3.4583,0.10957 -0.088,0.41499 -0.1633,0.83481 -0.2271,1.25974 7.5709,-0.34854 19.0193,-0.81453 23.4033,-0.89984 7.3188,-0.14229 13.8909,-0.15076 18.5053,-0.133 -0.1025,-0.37348 -0.2114,-0.74728 -0.3288,-1.11109 z m -40.7035,15.51608 c 0.1335,0.39789 0.2815,0.78839 0.4382,1.17371 l 38.8333,1.11106 c 0.045,-0.0806 0.089,-0.16132 0.1332,-0.24255 -0.8718,-0.0779 -2.7051,-0.27322 -3.7951,-0.59466 1.4964,-0.32824 2.6411,-0.0984 3.9985,-0.18779 -13.6491,-0.12239 -26.6554,-0.67307 -39.6081,-1.25977 z m 37.2607,5.28159 c -5.827,0.39118 -12.6911,0.75859 -19.2719,1.07195 -5.0486,0.24044 -9.6852,0.4404 -13.8181,0.61034 0.3315,0.34618 0.6833,0.68195 1.0484,1.00935 4.3271,-0.22685 9.1108,-0.47405 14.1077,-0.71204 5.9352,-0.28259 11.7819,-0.5347 16.9246,-0.80592 0.35,-0.37861 0.687,-0.77064 1.0093,-1.17368 z"
               style="font-size:medium;font-style:normal;font-variant:normal;font-weight:normal;font-stretch:normal;text-indent:0;text-align:start;text-decoration:none;line-height:normal;letter-spacing:normal;word-spacing:normal;text-transform:none;direction:ltr;block-progression:tb;writing-mode:lr-tb;text-anchor:start;baseline-shift:baseline;color:#000000;fill:#dc343b;fill-opacity:1;stroke:none;stroke-width:5;marker:none;visibility:visible;display:inline;overflow:visible;enable-background:accumulate;font-family:Sans;-inkscape-font-specification:Sans"
               inkscape:connector-curvature="0" />
          </g>
          <path
             inkscape:connector-curvature="0"
             style="color:#000000;fill:#dc4950;fill-opacity:1;fill-rule:nonzero;stroke:none;stroke-width:12;marker:none;visibility:visible;display:inline;overflow:visible;enable-background:accumulate"
             d="m 4024.2618,421.55063 c -0.6552,0.0687 -1.3398,0.14805 -2.0737,0.24257 -0.012,0.003 -0.033,0.006 -0.047,0.008 0.4682,0.3403 0.8939,0.7293 1.3303,1.11112 0.619,-0.0702 1.2629,-0.14433 1.8231,-0.19563 -0.3085,-0.3567 -0.5995,-0.73371 -0.9312,-1.06414 -0.034,-0.0339 -0.067,-0.068 -0.1017,-0.10173 z m -34.1073,5.63368 c -0.4044,0.0316 -0.8192,0.084 -1.2206,0.10957 -0.085,0.18851 -0.166,0.37901 -0.2426,0.57118 -0.052,0.13686 -0.1147,0.26926 -0.1643,0.40687 -0.01,0.02 -0.01,0.0425 -0.015,0.0626 0.3227,-0.0258 0.6545,-0.072 0.9782,-0.10171 0.137,-0.24194 0.2685,-0.48572 0.4224,-0.71986 0.07,-0.10691 0.1698,-0.22034 0.2427,-0.32865 z m 39.0211,2.54299 c -0.1915,0.003 -0.5546,0.0125 -0.7511,0.0155 0.1545,0.36011 0.3065,0.71631 0.4459,1.09544 0.1903,0 0.473,0 0.6573,0 -0.1042,-0.37953 -0.2326,-0.74159 -0.3521,-1.11108 z m -40.7034,0.86851 c -0.1921,0.007 -0.4142,0.009 -0.6025,0.0158 -0.01,0.0422 -0.023,0.0828 -0.031,0.12519 -0.031,0.15259 -0.058,0.30772 -0.086,0.46164 -0.04,0.21981 -0.045,0.45049 -0.078,0.67291 0.1317,-0.006 0.2727,-0.01 0.4069,-0.0155 0.1106,-0.42856 0.2484,-0.84505 0.3911,-1.25976 z m 5.8763,21.54102 c -0.4985,0.0208 -1.1348,0.0505 -1.6198,0.0704 0.3275,0.34143 0.6488,0.68626 1.0096,1.00935 0.6262,-0.0328 1.3971,-0.0681 2.0421,-0.1017 -0.5388,-0.3247 -0.9695,-0.65263 -1.4319,-0.97808 z"
             id="path9960" />
        </g>
      </g>
    </g>
  </g>
</svg>
