<?xml version="1.0" encoding="UTF-8" standalone="no"?>
<!-- Created with Inkscape (http://www.inkscape.org/) -->

<svg
   xmlns:dc="http://purl.org/dc/elements/1.1/"
   xmlns:cc="http://creativecommons.org/ns#"
   xmlns:rdf="http://www.w3.org/1999/02/22-rdf-syntax-ns#"
   xmlns:svg="http://www.w3.org/2000/svg"
   xmlns="http://www.w3.org/2000/svg"
   xmlns:sodipodi="http://sodipodi.sourceforge.net/DTD/sodipodi-0.dtd"
   xmlns:inkscape="http://www.inkscape.org/namespaces/inkscape"
   width="413.42517"
   height="434.56693"
   viewBox="0 0 109.38539 114.97917"
   version="1.1"
   id="svg23489"
   inkscape:version="0.48.5 r10040"
   sodipodi:docname="long_wooden_button_grey.svg">
  <defs
     id="defs23483" />
  <sodipodi:namedview
     id="base"
     pagecolor="#7d848b"
     bordercolor="#666666"
     borderopacity="1.0"
     inkscape:pageopacity="0"
     inkscape:pageshadow="2"
     inkscape:zoom="0.083133968"
     inkscape:cx="1085.1014"
     inkscape:cy="77.880579"
     inkscape:document-units="px"
     inkscape:current-layer="layer1"
     showgrid="false"
     inkscape:pagecheckerboard="false"
     showborder="true"
     units="px"
     inkscape:window-width="1920"
     inkscape:window-height="1017"
     inkscape:window-x="-8"
     inkscape:window-y="-8"
     inkscape:window-maximized="1"
     inkscape:showpageshadow="false"
     guidetolerance="28"
     fit-margin-top="25"
     fit-margin-left="25"
     fit-margin-right="25"
     fit-margin-bottom="25">
    <inkscape:grid
       type="xygrid"
       id="grid24034"
       spacingx="1px"
       spacingy="1px"
       empspacing="8"
       visible="true"
       enabled="true"
       snapvisiblegridlinesonly="true"
       originx="2001.0651px"
       originy="-2202.4011px" />
  </sodipodi:namedview>
  <metadata
     id="metadata23486">
    <rdf:RDF>
      <cc:Work
         rdf:about="">
        <dc:format>image/svg+xml</dc:format>
        <dc:type
           rdf:resource="http://purl.org/dc/dcmitype/StillImage" />
        <dc:title></dc:title>
        <cc:license
           rdf:resource="" />
        <dc:creator>
          <cc:Agent>
            <dc:title>Robert Brooks</dc:title>
          </cc:Agent>
        </dc:creator>
      </cc:Work>
    </rdf:RDF>
  </metadata>
  <g
     inkscape:label="Layer 1"
     inkscape:groupmode="layer"
     id="layer1"
     transform="translate(529.44856,400.69772)">
    <g
       id="g15696"
       transform="translate(-6463.0215,-845.27064)">
      <path
         sodipodi:nodetypes="scssccccscscs"
         inkscape:connector-curvature="0"
         id="path9870"
         d="m 5988.6113,461.42966 c -9.6132,0 -19.9992,1.77971 -27.3533,6.83038 -4.4965,3.08812 -8.7281,8.39707 -11.7576,13.00499 -4.4733,6.80432 -5.3424,15.25032 -5.3424,23.93036 0,12.1083 2.0286,20.8954 9.6409,28.9283 0.9795,0.1527 3.1719,1.9285 3.1719,1.9285 0,0 -0.026,0.6578 -0.045,1.5836 0.1795,0.166 0.3595,0.3323 0.5441,0.4959 8.1493,7.2277 20.3023,10.8295 31.1446,10.8295 12.5241,0 23.8227,-5.2621 31.8009,-13.6928 7.4209,-7.8422 11.9648,-18.4241 11.9648,-30.073 0,-7.66765 -2.3101,-16.6234 -5.7745,-22.89059 -7.4563,-13.49014 -21.4863,-20.87514 -37.9912,-20.87514 z"
         style="color:#000000;fill:#3b2213;fill-opacity:1;fill-rule:nonzero;stroke:#3b2213;stroke-width:7.9375;stroke-miterlimit:4;stroke-opacity:1;stroke-dasharray:none;marker:none;visibility:visible;display:inline;overflow:visible;enable-background:accumulate" />
      <path
         style="color:#000000;fill:#3b2213;fill-opacity:1;fill-rule:nonzero;stroke:#3b2213;stroke-width:7.9375;stroke-miterlimit:4;stroke-opacity:1;stroke-dasharray:none;marker:none;visibility:visible;display:inline;overflow:visible;enable-background:accumulate"
         d="m 6032.3828,498.912 c 0,11.64889 -4.5506,22.23489 -11.9718,30.07709 -7.9778,8.4308 -19.2722,13.6904 -31.7961,13.6904 -10.8424,0 -22.9977,-3.5942 -31.147,-10.8219 -9.3553,-8.2981 -13.318,-19.6164 -13.318,-32.94559 0,-8.68004 0.8734,-17.11872 5.3466,-23.92302 3.0293,-4.6079 7.2589,-9.92081 11.7555,-13.00891 7.3541,-5.05069 17.7495,-6.83556 27.3629,-6.83556 16.5048,0 30.527,7.39165 37.9831,20.88173 3.4646,6.26722 5.7848,15.21811 5.7848,22.88576 z"
         id="path9872"
         inkscape:connector-curvature="0"
         sodipodi:nodetypes="ssssssssss" />
      <path
         id="path9874"
         d="m 5988.6113,461.42966 c -9.6132,0 -19.9992,1.77971 -27.3533,6.83038 -4.4965,3.08812 -8.7281,8.39707 -11.7576,13.00499 -4.4733,6.80432 -5.3424,15.25032 -5.3424,23.93036 0,12.1083 3.2495,22.552 10.8617,30.5849 0.9797,0.1527 1.9511,0.2719 1.9511,0.2719 0,0 -0.026,0.6578 -0.045,1.5836 0.1795,0.166 0.3595,0.3323 0.5441,0.4959 8.1493,7.2277 20.3023,10.8295 31.1446,10.8295 12.5241,0 23.8227,-5.2621 31.8009,-13.6928 7.4209,-7.8422 11.9648,-18.4241 11.9648,-30.073 0,-7.66765 -2.3101,-16.6234 -5.7745,-22.89059 -7.4563,-13.49014 -21.4863,-20.87514 -37.9912,-20.87514 z"
         style="color:#000000;fill:#734125;fill-opacity:1;fill-rule:nonzero;stroke:none;stroke-width:12;marker:none;visibility:visible;display:inline;overflow:visible;enable-background:accumulate"
         inkscape:connector-curvature="0" />
      <path
         name="grain"
         inkscape:connector-curvature="0"
         class="switchable"
         id="path9876"
         d="m 6021.8398,524.19199 c 0,0 -1.6736,2.8798 -1.6736,3.2286 0,0.1741 0.079,3.9045 0.099,7.9952 0.048,-0.049 0.1065,-0.1029 0.1539,-0.1521 0.4304,-0.4546 0.8401,-0.9136 1.2509,-1.3862 0.1377,-4.1902 0.2378,-8.1159 0.1704,-9.6855 z m -66.8359,4.2428 c -0.064,1.6703 0.06,4.7527 0.1702,7.3698 0.9173,0.1399 1.7915,0.2535 1.7915,0.2535 0,0 -0.02,0.6462 -0.033,1.5721 0.064,0.059 0.1221,0.1272 0.186,0.1858 0.035,-2.9557 0.1306,-6.2681 0.048,-6.4233 -0.1235,-0.2465 -2.1637,-2.958 -2.1637,-2.958 z"
         style="opacity:0.5;color:#000000;fill:#3b2213;fill-opacity:1;fill-rule:nonzero;stroke:none;stroke-width:18.89800072;marker:none;visibility:visible;display:inline;overflow:visible;enable-background:accumulate" />
      <path
         style="color:#000000;fill:#3b2213;fill-opacity:1;fill-rule:nonzero;stroke:#3b2213;stroke-width:7.9375;stroke-miterlimit:4;stroke-opacity:1;stroke-dasharray:none;marker:none;visibility:visible;display:inline;overflow:visible;enable-background:accumulate"
         d="m 6032.3828,498.912 c 0,11.64889 -4.5506,19.09619 -11.9718,26.93839 -7.9778,8.4308 -19.2722,6.7155 -31.7961,6.7155 -10.8424,0 -22.9977,2.3345 -31.147,-4.8932 -9.3553,-8.2981 -13.318,-15.4315 -13.318,-28.76069 0,-8.68004 0.8734,-17.11872 5.3466,-23.92302 3.0293,-4.6079 7.2589,-9.92081 11.7555,-13.00891 7.3541,-5.05069 17.7495,-6.83556 27.3629,-6.83556 16.5048,0 30.527,7.39165 37.9831,20.88173 3.4646,6.26722 5.7848,15.21811 5.7848,22.88576 z"
         id="path9878"
         inkscape:connector-curvature="0"
         sodipodi:nodetypes="ssssssssss" />
      <path
         id="path9880"
         d="m 5988.6113,455.14312 c -9.6132,0 -19.9992,1.77974 -27.3533,6.83041 -2.5667,1.76288 -5.0425,4.25522 -7.2622,6.92635 l 7.9342,1.58366 -10.6862,1.96757 c -0.6152,0.856 -1.1998,1.71648 -1.7434,2.54336 -4.4733,6.80432 -5.3424,15.23437 -5.3424,23.91438 0,13.32924 3.9532,24.65424 13.3086,32.95224 8.1493,7.2278 20.3023,10.8135 31.1447,10.8135 12.5245,0 23.8224,-5.262 31.801,-13.6928 2.6544,-2.8054 4.9387,-5.959 6.7822,-9.3898 -1.7816,-0.1592 -5.5301,-0.5585 -7.7585,-1.2157 3.2059,-0.7033 5.6185,-0.1366 8.5741,-0.3999 2.7957,-5.7652 4.3669,-12.2298 4.3669,-19.06754 0,-7.66765 -2.3101,-16.60738 -5.7747,-22.87459 -7.456,-13.49021 -21.4853,-20.89114 -37.991,-20.89114 z"
         style="color:#000000;fill:#ab653c;fill-opacity:1;fill-rule:nonzero;stroke:none;stroke-width:12;marker:none;visibility:visible;display:inline;overflow:visible;enable-background:accumulate"
         inkscape:connector-curvature="0" />
      <path
         id="path9882"
         d="m 5947.3413,517.30459 c -0.047,-0.1223 -0.098,-0.2451 -0.1448,-0.3679 0,0.032 0.02,0.047 0.02,0.08 0.034,0.099 0.091,0.1897 0.1292,0.288 z"
         style="color:#000000;fill:#d3865b;fill-opacity:1;fill-rule:nonzero;stroke:none;stroke-width:12;marker:none;visibility:visible;display:inline;overflow:visible;enable-background:accumulate"
         inkscape:connector-curvature="0" />
      <path
         id="path9884"
         d="m 5961.4978,531.50929 c -1.3187,0.069 -2.8946,0.1405 -4.1747,0.2079 0.051,0.046 0.092,0.098 0.1431,0.144 8.1493,7.228 20.302,10.8135 31.1443,10.8135 6.4016,0 12.4839,-1.37 17.964,-3.8391 -7.7442,2.3039 -18.6201,3.4449 -31.3843,-1.0397 -5.5713,-1.9575 -10.0682,-4.1019 -13.693,-6.2865 z"
         style="color:#000000;fill:#d3865b;fill-opacity:1;fill-rule:nonzero;stroke:none;stroke-width:12;marker:none;visibility:visible;display:inline;overflow:visible;enable-background:accumulate"
         inkscape:connector-curvature="0" />
      <path
         id="path9886"
         d="m 5947.933,517.83239 -0.3679,-0.016 c 1.7808,4.3741 4.3309,8.3312 7.6938,11.8372 0.9918,-0.041 2.2926,-0.1013 3.3115,-0.1438 -6.2777,-4.4167 -9.3228,-8.7085 -10.6374,-11.6773 z"
         style="color:#000000;fill:#d3865b;fill-opacity:1;fill-rule:nonzero;stroke:none;stroke-width:12;marker:none;visibility:visible;display:inline;overflow:visible;enable-background:accumulate"
         inkscape:connector-curvature="0" />
      <path
         id="path9888"
         d="m 5947.0855,515.43299 c 0,-4e-4 -0.02,5e-4 -0.031,0 0.031,0.4185 0.061,0.8997 0.1432,1.5037 0.047,0.1228 0.096,0.2457 0.1448,0.3679 0.067,0.1741 0.154,0.3389 0.2238,0.5119 l 0.3681,0.016 c -0.4156,-0.9383 -0.712,-1.7793 -0.8479,-2.3994 z"
         style="color:#000000;fill:#d3865b;fill-opacity:1;fill-rule:nonzero;stroke:none;stroke-width:12;marker:none;visibility:visible;display:inline;overflow:visible;enable-background:accumulate"
         inkscape:connector-curvature="0" />
      <path
         id="path9890"
         d="m 5947.0372,515.28899 c 0,0.039 0.02,0.1038 0.02,0.1439 0.02,4e-4 0.02,-5e-4 0.031,0 -0.02,-0.041 -0.041,-0.1047 -0.047,-0.1439 z"
         style="color:#000000;fill:#d3865b;fill-opacity:1;fill-rule:nonzero;stroke:none;stroke-width:12;marker:none;visibility:visible;display:inline;overflow:visible;enable-background:accumulate"
         inkscape:connector-curvature="0" />
      <path
         id="path9892"
         d="m 5946.9733,513.99339 c 0,-0.028 0,0.01 -0.031,0.096 -0.047,0.1903 -0.026,0.6083 0.096,1.1997 -0.047,-0.7576 -0.051,-1.225 -0.064,-1.2957 z"
         style="color:#000000;fill:#d3865b;fill-opacity:1;fill-rule:nonzero;stroke:none;stroke-width:12;marker:none;visibility:visible;display:inline;overflow:visible;enable-background:accumulate"
         inkscape:connector-curvature="0" />
      <path
         sodipodi:nodetypes="ccccccc"
         id="path9894"
         d="m 5945.3254,485.50406 c 0.3851,-0.0145 0.839,-0.0185 1.2318,-0.0322 0.5733,-1.66582 1.2104,-3.29701 2.0798,-4.83082 -0.662,0.0606 -1.3411,0.15507 -2.0002,0.20793 l -0.02,0 c -0.5405,1.50368 -0.9592,3.06319 -1.2956,4.65493 z"
         style="color:#000000;fill:#d3865b;fill-opacity:1;fill-rule:nonzero;stroke:none;stroke-width:12;marker:none;visibility:visible;display:inline;overflow:visible;enable-background:accumulate"
         inkscape:connector-curvature="0" />
      <path
         sodipodi:nodetypes="ccsccc"
         id="path9896"
         d="m 5945.7578,488.04742 c -0.2745,0.0128 -0.5627,0.0204 -0.8319,0.0317 -0.5291,3.50493 -0.7679,7.12675 -0.7679,10.82943 0,0.52162 0,1.03657 0.02,1.55168 0.1008,-4.29852 1.5812,-11.47184 2.5972,-15.40732 z"
         style="color:#000000;fill:#d3865b;fill-opacity:1;fill-rule:nonzero;stroke:none;stroke-width:12;marker:none;visibility:visible;display:inline;overflow:visible;enable-background:accumulate"
         inkscape:connector-curvature="0" />
      <path
         id="path9898"
         d="m 6021.836,469.36379 c -1.1453,0.10493 -2.4618,0.25662 -3.7272,0.39995 3.335,2.92396 6.2436,6.37425 8.4935,10.44552 0.5953,1.07694 1.1103,2.30387 1.6321,3.51918 0.4016,-0.006 1.144,-0.0263 1.5355,-0.0317 -0.8931,-2.76005 -1.9221,-5.40957 -3.1676,-7.66217 -1.3548,-2.45229 -3.0016,-4.6286 -4.7663,-6.67049 z"
         style="color:#000000;fill:#d3865b;fill-opacity:1;fill-rule:nonzero;stroke:none;stroke-width:12;marker:none;visibility:visible;display:inline;overflow:visible;enable-background:accumulate"
         inkscape:connector-curvature="0" />
      <path
         id="path9900"
         d="m 5988.6076,455.14214 c -9.6131,0 -19.9951,1.77822 -27.3494,6.8289 -1.9022,1.30657 -3.7582,3.01817 -5.4938,4.90191 -0.02,0.0224 -0.028,0.0452 -0.051,0.0677 -0.2819,0.30772 -0.5686,0.61328 -0.8456,0.92971 -0.2952,0.33842 -0.5923,0.68569 -0.8789,1.03106 l 3.2454,0.6424 4.6993,0.94656 -6.778,1.23393 -3.9047,0.72687 c -0.041,0.0598 -0.091,0.10947 -0.1335,0.16902 -0.5684,0.79681 -1.117,1.59717 -1.6226,2.36645 -0.7822,1.18995 -1.4184,2.4535 -1.9949,3.73568 -0.1738,0.38536 -0.3332,0.77342 -0.49,1.16634 -0.1065,0.27974 -0.237,0.54692 -0.3382,0.82823 -0.02,0.0409 -0.026,0.094 -0.033,0.13517 0.6591,-0.0527 1.3327,-0.14203 1.9941,-0.20281 0.2804,-0.49459 0.5476,-1.00884 0.8626,-1.48749 0.1431,-0.21857 0.3579,-0.4378 0.5066,-0.65924 1.1928,-1.77316 2.4806,-3.61742 3.9557,-5.39214 3.1921,-0.87194 10.1797,-2.79355 11.0209,-3.14401 0.7274,-0.30305 -2.9831,-1.24505 -5.9167,-2.11286 0.7209,-0.61345 1.4597,-1.18336 2.1978,-1.69035 7.3542,-5.05069 17.7364,-6.82891 27.3494,-6.82891 10.1967,0 19.4353,2.8311 26.7748,8.16426 0.9574,0.69571 1.8292,1.48444 2.7213,2.26502 1.2655,-0.14348 2.5904,-0.30078 3.736,-0.40565 -0.6306,-0.72927 -1.2321,-1.4881 -1.9099,-2.16364 -0.07,-0.0694 -0.1306,-0.1509 -0.2026,-0.2197 -7.8577,-7.7059 -18.7933,-11.83231 -31.1189,-11.83231 z m 41.1596,28.54961 c -0.3916,0.006 -1.1365,0.0278 -1.5385,0.0337 0.3161,0.73617 0.628,1.47305 0.9134,2.24818 l 1.352,0 c -0.2128,-0.77596 -0.4824,-1.52661 -0.7269,-2.282 z m -83.2149,1.77482 c -0.3927,0.0145 -0.8488,0.0204 -1.2341,0.0339 -0.02,0.0862 -0.034,0.16685 -0.051,0.25353 -0.064,0.31193 -0.1292,0.63194 -0.186,0.94659 -0.081,0.44939 -0.084,0.93139 -0.1504,1.38605 0.2695,-0.0128 0.5537,-0.0224 0.8282,-0.0336 0.2265,-0.87615 0.5029,-1.73836 0.7946,-2.58623 z m 12.0181,44.05002 c -1.0187,0.043 -2.3214,0.094 -3.3126,0.1352 0.6693,0.698 1.3243,1.4016 2.0622,2.0621 1.2798,-0.067 2.8559,-0.134 4.1746,-0.2028 -1.1012,-0.6638 -1.9785,-1.3292 -2.9242,-1.9945 z"
         style="color:#000000;fill:#d3865b;fill-opacity:1;fill-rule:nonzero;stroke:none;stroke-width:12;marker:none;visibility:visible;display:inline;overflow:visible;enable-background:accumulate"
         inkscape:connector-curvature="0" />
      <path
         id="path9902"
         d="m 6030.4897,485.96793 c -0.3768,0 -0.9547,0 -1.3437,0 1.7461,4.74407 2.932,10.0922 3.1834,15.10046 0.034,-0.71415 0.047,-1.43667 0.047,-2.15954 0,-4.15733 -0.7135,-8.66445 -1.8874,-12.94092 z"
         style="color:#000000;fill:#d3865b;fill-opacity:1;fill-rule:nonzero;stroke:none;stroke-width:12;marker:none;visibility:visible;display:inline;overflow:visible;enable-background:accumulate"
         inkscape:connector-curvature="0" />
      <path
         id="path9904"
         d="m 6019.5639,466.82043 c 1.8363,1.97093 3.4789,4.12093 4.8954,6.47845 3.6967,6.15327 6.1741,14.94647 6.1741,22.47472 0,7.34559 -1.2736,15.41229 -4.2868,22.28279 0.5405,0 1.0916,-0.029 1.6635,-0.08 2.7945,-5.764 4.3669,-12.2298 4.3669,-19.06748 0,-7.66768 -2.3101,-16.60739 -5.7747,-22.8746 -1.9266,-3.48667 -4.3042,-6.56435 -7.0384,-9.21384 z m 6.1427,52.61166 c -1.5908,3.2818 -3.6031,6.2321 -6.0943,8.6539 -8.5142,8.2775 -22.3227,10.6536 -35.688,10.6536 -8.0928,0 -16.8566,-1.7173 -24.3783,-5.1828 8.052,6.0918 19.1092,9.1178 29.0653,9.1178 12.5245,0 23.8224,-5.262 31.801,-13.6928 2.6535,-2.8045 4.9408,-5.961 6.7822,-9.3898 -0.3848,-0.034 -0.9546,-0.1033 -1.4879,-0.1599 z"
         style="color:#000000;fill:#a96138;fill-opacity:1;fill-rule:nonzero;stroke:none;stroke-width:12;marker:none;visibility:visible;display:inline;overflow:visible;enable-background:accumulate"
         inkscape:connector-curvature="0" />
      <g
         name="grain"
         class="switchable"
         id="g9906"
         transform="matrix(2.0443656,0,0,2.0443656,-2207.3385,-394.82328)">
        <g
           id="g9908">
          <path
             sodipodi:nodetypes="ccsccsccccscccccccccccccccccccc"
             inkscape:connector-curvature="0"
             style="font-size:medium;font-style:normal;font-variant:normal;font-weight:normal;font-stretch:normal;text-indent:0;text-align:start;text-decoration:none;line-height:normal;letter-spacing:normal;word-spacing:normal;text-transform:none;direction:ltr;block-progression:tb;writing-mode:lr-tb;text-anchor:start;baseline-shift:baseline;opacity:0.5;color:#000000;fill:#d3865b;fill-opacity:1;stroke:none;stroke-width:5.00009584;marker:none;visibility:visible;display:inline;overflow:visible;enable-background:accumulate;font-family:Sans;-inkscape-font-specification:Sans"
             d="m 4024.2696,422.03312 c -0.6576,0.0688 -1.3461,0.1477 -2.0815,0.24257 -5.3733,0.69332 -14.3001,2.95323 -23.5596,4.3974 -3.251,0.50703 -6.5393,0.90221 -9.7182,1.10327 -0.152,0.33883 -0.2809,0.69029 -0.4069,1.04066 3.2532,-0.26052 6.6129,-0.72737 9.9764,-1.25193 9.3343,-1.45584 18.6615,-3.37392 23.865,-4.04528 1.0972,-0.14162 2.0837,-0.24481 3.0046,-0.32865 -0.3461,-0.40171 -0.7043,-0.78953 -1.0798,-1.15804 z m 4.9451,8.17667 c -4.8745,0.0752 -11.4119,0.18618 -19.1388,0.33644 -6.5799,0.128 -13.3223,0.27816 -18.7556,0.43818 -1.2379,0.0364 -2.3774,0.0731 -3.4583,0.10956 -0.088,0.41499 -0.1634,0.83482 -0.2272,1.25975 7.571,-0.34853 19.0193,-0.81453 23.4033,-0.89983 7.3188,-0.14231 13.891,-0.15077 18.5053,-0.13301 -0.1024,-0.37348 -0.2113,-0.74728 -0.3287,-1.11109 z m -40.4321,15.48592 c 0.1334,0.39789 0.2814,0.78839 0.4381,1.17371 l 38.0191,1.17138 c 0.044,-0.0805 0.09,-0.16132 0.1333,-0.24255 -0.8719,-0.0779 -2.1624,-0.30338 -3.2523,-0.62483 1.4963,-0.32823 2.641,-0.0984 3.9984,-0.18779 -13.649,-0.12238 -26.3839,-0.70321 -39.3366,-1.28992 z m 36.4766,5.16096 c -5.827,0.39118 -12.1784,0.90938 -18.7593,1.22274 -5.0486,0.24045 -9.0821,0.19915 -13.2149,0.36909 0.3315,0.34618 0.6832,0.68195 1.0483,1.00936 4.3272,-0.22686 8.5077,-0.23281 13.5047,-0.47081 5.9351,-0.28258 11.028,-0.47438 16.1707,-0.7456 0.35,-0.37861 0.9282,-0.98173 1.2505,-1.38478 z"
             id="path9910" />
          <path
             id="path9912"
             d="m 4024.2696,421.55063 c -0.6575,0.0688 -1.3461,0.1477 -2.0815,0.24257 -5.3733,0.69332 -14.3,2.95323 -23.5595,4.3974 -3.251,0.50703 -6.5394,0.90222 -9.7182,1.10328 -0.152,0.33882 -0.281,0.69028 -0.4069,1.04065 3.2532,-0.26053 6.6129,-0.72737 9.9763,-1.25193 9.3344,-1.45584 18.6615,-3.37392 23.8651,-4.04528 1.0972,-0.14162 2.0837,-0.2448 3.0046,-0.32866 -0.346,-0.40169 -0.7043,-0.78951 -1.0799,-1.15803 z m 4.9451,8.17667 c -4.8745,0.0753 -11.4118,0.18619 -19.1387,0.33644 -6.5799,0.128 -13.3223,0.27816 -18.7557,0.43818 -1.2379,0.0365 -2.3774,0.0731 -3.4583,0.10957 -0.088,0.41499 -0.1633,0.83481 -0.2271,1.25974 7.5709,-0.34854 19.0193,-0.81453 23.4033,-0.89984 7.3188,-0.14229 13.8909,-0.15076 18.5053,-0.133 -0.1025,-0.37348 -0.2114,-0.74728 -0.3288,-1.11109 z m -40.7035,15.51608 c 0.1335,0.39789 0.2815,0.78839 0.4382,1.17371 l 38.8333,1.11106 c 0.045,-0.0806 0.089,-0.16132 0.1332,-0.24255 -0.8718,-0.0779 -2.7051,-0.27322 -3.7951,-0.59466 1.4964,-0.32824 2.6411,-0.0984 3.9985,-0.18779 -13.6491,-0.12239 -26.6554,-0.67307 -39.6081,-1.25977 z m 37.2607,5.28159 c -5.827,0.39118 -12.6911,0.75859 -19.2719,1.07195 -5.0486,0.24044 -9.6852,0.4404 -13.8181,0.61034 0.3315,0.34618 0.6833,0.68195 1.0484,1.00935 4.3271,-0.22685 9.1108,-0.47405 14.1077,-0.71204 5.9352,-0.28259 11.7819,-0.5347 16.9246,-0.80592 0.35,-0.37861 0.687,-0.77064 1.0093,-1.17368 z"
             style="font-size:medium;font-style:normal;font-variant:normal;font-weight:normal;font-stretch:normal;text-indent:0;text-align:start;text-decoration:none;line-height:normal;letter-spacing:normal;word-spacing:normal;text-transform:none;direction:ltr;block-progression:tb;writing-mode:lr-tb;text-anchor:start;baseline-shift:baseline;color:#000000;fill:#a96138;fill-opacity:1;stroke:none;stroke-width:5;marker:none;visibility:visible;display:inline;overflow:visible;enable-background:accumulate;font-family:Sans;-inkscape-font-specification:Sans"
             inkscape:connector-curvature="0" />
        </g>
        <path
           inkscape:connector-curvature="0"
           style="color:#000000;fill:#ab653c;fill-opacity:1;fill-rule:nonzero;stroke:none;stroke-width:12;marker:none;visibility:visible;display:inline;overflow:visible;enable-background:accumulate"
           d="m 4024.2618,421.55063 c -0.6552,0.0687 -1.3398,0.14805 -2.0737,0.24257 -0.012,0.003 -0.033,0.006 -0.047,0.008 0.4682,0.3403 0.8939,0.7293 1.3303,1.11112 0.619,-0.0702 1.2629,-0.14433 1.8231,-0.19563 -0.3085,-0.3567 -0.5995,-0.73371 -0.9312,-1.06414 -0.034,-0.0339 -0.067,-0.068 -0.1017,-0.10173 z m -34.1073,5.63368 c -0.4044,0.0316 -0.8192,0.084 -1.2206,0.10957 -0.085,0.18851 -0.166,0.37901 -0.2426,0.57118 -0.052,0.13686 -0.1147,0.26926 -0.1643,0.40687 -0.01,0.02 -0.01,0.0425 -0.015,0.0626 0.3227,-0.0258 0.6545,-0.072 0.9782,-0.10171 0.137,-0.24194 0.2685,-0.48572 0.4224,-0.71986 0.07,-0.10691 0.1698,-0.22034 0.2427,-0.32865 z m 39.0211,2.54299 c -0.1915,0.003 -0.5546,0.0125 -0.7511,0.0155 0.1545,0.36011 0.3065,0.71631 0.4459,1.09544 0.1903,0 0.473,0 0.6573,0 -0.1042,-0.37953 -0.2326,-0.74159 -0.3521,-1.11108 z m -40.7034,0.86851 c -0.1921,0.007 -0.4142,0.009 -0.6025,0.0158 -0.01,0.0422 -0.023,0.0828 -0.031,0.12519 -0.031,0.15259 -0.058,0.30772 -0.086,0.46164 -0.04,0.21981 -0.045,0.45049 -0.078,0.67291 0.1317,-0.006 0.2727,-0.01 0.4069,-0.0155 0.1106,-0.42856 0.2484,-0.84505 0.3911,-1.25976 z m 5.8763,21.54102 c -0.4985,0.0208 -1.1348,0.0505 -1.6198,0.0704 0.3275,0.34143 0.6488,0.68626 1.0096,1.00935 0.6262,-0.0328 1.3971,-0.0681 2.0421,-0.1017 -0.5388,-0.3247 -0.9695,-0.65263 -1.4319,-0.97808 z"
           id="path9914" />
      </g>
    </g>
  </g>
</svg>
