<?xml version="1.0" encoding="UTF-8" standalone="no"?>
<!-- Created with Inkscape (http://www.inkscape.org/) -->

<svg
   xmlns:dc="http://purl.org/dc/elements/1.1/"
   xmlns:cc="http://creativecommons.org/ns#"
   xmlns:rdf="http://www.w3.org/1999/02/22-rdf-syntax-ns#"
   xmlns:svg="http://www.w3.org/2000/svg"
   xmlns="http://www.w3.org/2000/svg"
   xmlns:sodipodi="http://sodipodi.sourceforge.net/DTD/sodipodi-0.dtd"
   xmlns:inkscape="http://www.inkscape.org/namespaces/inkscape"
   width="413.4783"
   height="434.58279"
   viewBox="0 0 109.39945 114.98336"
   version="1.1"
   id="svg23489"
   inkscape:version="0.48.5 r10040"
   sodipodi:docname="round_wooden_button_red.svg">
  <defs
     id="defs23483" />
  <sodipodi:namedview
     id="base"
     pagecolor="#7d848b"
     bordercolor="#666666"
     borderopacity="1.0"
     inkscape:pageopacity="0"
     inkscape:pageshadow="2"
     inkscape:zoom="0.11756919"
     inkscape:cx="745.15355"
     inkscape:cy="-2099.8171"
     inkscape:document-units="px"
     inkscape:current-layer="layer1"
     showgrid="false"
     inkscape:pagecheckerboard="false"
     showborder="true"
     units="px"
     inkscape:window-width="1920"
     inkscape:window-height="1017"
     inkscape:window-x="-8"
     inkscape:window-y="-8"
     inkscape:window-maximized="1"
     inkscape:showpageshadow="false"
     guidetolerance="28"
     fit-margin-top="25"
     fit-margin-left="25"
     fit-margin-right="25"
     fit-margin-bottom="25">
    <inkscape:grid
       type="xygrid"
       id="grid24034"
       spacingx="1px"
       spacingy="1px"
       empspacing="8"
       visible="true"
       enabled="true"
       snapvisiblegridlinesonly="true"
       originx="247.45691px"
       originy="-2995.1174px" />
  </sodipodi:namedview>
  <metadata
     id="metadata23486">
    <rdf:RDF>
      <cc:Work
         rdf:about="">
        <dc:format>image/svg+xml</dc:format>
        <dc:type
           rdf:resource="http://purl.org/dc/dcmitype/StillImage" />
        <dc:title></dc:title>
        <cc:license
           rdf:resource="" />
        <dc:creator>
          <cc:Agent>
            <dc:title>Robert Brooks</dc:title>
          </cc:Agent>
        </dc:creator>
      </cc:Work>
    </rdf:RDF>
  </metadata>
  <g
     inkscape:label="Layer 1"
     inkscape:groupmode="layer"
     id="layer1"
     transform="translate(65.473012,610.44144)">
    <g
       id="g15620"
       transform="translate(-6107.7529,-1167.7696)">
      <path
         sodipodi:nodetypes="scssccccscscs"
         inkscape:connector-curvature="0"
         id="path10008"
         d="m 6097.3245,574.19669 c -9.6132,0 -19.9992,1.7797 -27.3535,6.8304 -4.4964,3.0881 -8.728,8.3971 -11.7573,13.005 -4.4732,6.8043 -5.3426,15.2503 -5.3426,23.9304 0,12.1082 2.0288,20.8954 9.641,28.9283 0.9796,0.1527 3.172,1.9285 3.172,1.9285 0,0 -0.026,0.6577 -0.045,1.5836 0.1793,0.1659 0.3594,0.3322 0.5441,0.4958 8.149,7.2278 20.302,10.8295 31.1443,10.8295 12.5242,0 23.8229,-5.262 31.8011,-13.6928 7.4207,-7.8422 11.9647,-18.424 11.9647,-30.0729 0,-7.6677 -2.3101,-16.6235 -5.7746,-22.8906 -7.4561,-13.4902 -21.4863,-20.8752 -37.9912,-20.8752 z"
         style="color:#000000;fill:#0c2126;fill-opacity:1;fill-rule:nonzero;stroke:#1f091e;stroke-width:7.9375;stroke-miterlimit:4;stroke-opacity:1;stroke-dasharray:none;marker:none;visibility:visible;display:inline;overflow:visible;enable-background:accumulate" />
      <path
         style="color:#000000;fill:#49b6d2;fill-opacity:1;fill-rule:nonzero;stroke:#1f091e;stroke-width:7.67820072;stroke-miterlimit:4;stroke-opacity:1;stroke-dasharray:none;marker:none;visibility:visible;display:inline;overflow:visible;enable-background:accumulate"
         d="m 6141.096,611.67909 c 0,11.6489 -4.5506,22.2348 -11.9719,30.077 -7.9776,8.4308 -19.2722,13.6904 -31.7959,13.6904 -10.8426,0 -22.9978,-3.5941 -31.1471,-10.8219 -9.3554,-8.2981 -13.3179,-19.6163 -13.3179,-32.9455 0,-8.6801 0.8733,-17.1188 5.3466,-23.9231 3.0294,-4.6079 7.259,-9.9208 11.7553,-13.0089 7.3543,-5.0507 17.7496,-6.8356 27.3631,-6.8356 16.5048,0 30.5271,7.3917 37.9831,20.8818 3.4646,6.2672 5.7847,15.2181 5.7847,22.8858 z"
         id="path10010"
         inkscape:connector-curvature="0"
         sodipodi:nodetypes="ssssssssss" />
      <path
         id="path10012"
         d="m 6097.3245,574.19669 c -9.6132,0 -19.9992,1.7797 -27.3535,6.8304 -4.4964,3.0881 -8.728,8.3971 -11.7573,13.005 -4.4732,6.8043 -5.3426,15.2503 -5.3426,23.9304 0,12.1082 3.2496,22.5519 10.8618,30.5848 0.9797,0.1527 1.9512,0.272 1.9512,0.272 0,0 -0.026,0.6577 -0.045,1.5836 0.1793,0.1659 0.3594,0.3322 0.5441,0.4958 8.149,7.2278 20.302,10.8295 31.1443,10.8295 12.5242,0 23.8229,-5.262 31.8011,-13.6928 7.4207,-7.8422 11.9647,-18.424 11.9647,-30.0729 0,-7.6677 -2.3101,-16.6235 -5.7746,-22.8906 -7.4561,-13.4902 -21.4863,-20.8752 -37.9912,-20.8752 z"
         style="color:#000000;fill:#bf38b1;fill-opacity:1;fill-rule:nonzero;stroke:none;stroke-width:12;marker:none;visibility:visible;display:inline;overflow:visible;enable-background:accumulate"
         inkscape:connector-curvature="0" />
      <path
         name="grain"
         inkscape:connector-curvature="0"
         class="switchable"
         id="path10014"
         d="m 6130.5529,636.95909 c 0,0 -1.6735,2.8797 -1.6735,3.2285 0,0.1741 0.079,3.9046 0.099,7.9953 0.048,-0.049 0.1065,-0.103 0.1539,-0.1522 0.43,-0.4545 0.84,-0.9135 1.2505,-1.3861 0.1377,-4.1902 0.238,-8.1159 0.1704,-9.6856 z m -66.8358,4.2427 c -0.064,1.6704 0.06,4.7528 0.1703,7.3699 0.9175,0.1398 1.7914,0.2535 1.7914,0.2535 0,0 -0.02,0.6461 -0.033,1.572 0.064,0.059 0.1222,0.1272 0.1862,0.1859 0.038,-2.9558 0.1306,-6.2681 0.048,-6.4233 -0.1236,-0.2465 -2.1638,-2.958 -2.1638,-2.958 z"
         style="opacity:0.5;color:#000000;fill:#1f091e;fill-opacity:1;fill-rule:nonzero;stroke:none;stroke-width:18.89800072;marker:none;visibility:visible;display:inline;overflow:visible;enable-background:accumulate" />
      <path
         style="color:#000000;fill:#0c2126;fill-opacity:1;fill-rule:nonzero;stroke:#1f091e;stroke-width:7.9375;stroke-miterlimit:4;stroke-opacity:1;stroke-dasharray:none;marker:none;visibility:visible;display:inline;overflow:visible;enable-background:accumulate"
         d="m 6141.096,611.67909 c 0,11.6489 -4.5506,19.0961 -11.9719,26.9383 -7.9776,8.4308 -19.2722,6.7156 -31.7959,6.7156 -10.8426,0 -22.9978,2.3344 -31.1471,-4.8933 -9.3554,-8.2981 -13.3179,-15.4314 -13.3179,-28.7606 0,-8.6801 0.8733,-17.1188 5.3466,-23.9231 3.0294,-4.6079 7.259,-9.9208 11.7553,-13.0089 7.3543,-5.0507 17.7496,-6.8356 27.3631,-6.8356 16.5048,0 30.5271,7.3917 37.9831,20.8818 3.4646,6.2672 5.7847,15.2181 5.7847,22.8858 z"
         id="path10016"
         inkscape:connector-curvature="0"
         sodipodi:nodetypes="ssssssssss" />
      <path
         id="path10018"
         d="m 6097.3245,567.91019 c -9.6132,0 -19.9992,1.7797 -27.3535,6.8304 -2.5665,1.7629 -5.0423,4.2552 -7.2618,6.9263 l 7.934,1.5837 -10.686,1.9676 c -0.6154,0.856 -1.1998,1.7165 -1.7435,2.5433 -4.4732,6.8044 -5.3426,15.2344 -5.3426,23.9144 0,13.3292 3.9532,24.6543 13.3089,32.9523 8.1493,7.2278 20.3022,10.8134 31.1445,10.8134 12.5246,0 23.8222,-5.2619 31.8009,-13.6927 2.6547,-2.8054 4.9388,-5.959 6.7825,-9.3898 -1.7817,-0.1593 -5.5304,-0.5586 -7.7587,-1.2157 3.206,-0.7033 5.6185,-0.1366 8.5741,-0.4 2.7959,-5.7652 4.3669,-12.2298 4.3669,-19.0675 0,-7.6676 -2.3101,-16.6074 -5.7747,-22.8746 -7.4559,-13.4902 -21.4854,-20.8911 -37.991,-20.8911 z"
         style="color:#000000;fill:#d568ce;fill-opacity:1;fill-rule:nonzero;stroke:none;stroke-width:12;marker:none;visibility:visible;display:inline;overflow:visible;enable-background:accumulate"
         inkscape:connector-curvature="0" />
      <path
         id="path10020"
         d="m 6056.0547,630.07169 c -0.047,-0.1223 -0.098,-0.2452 -0.1448,-0.368 0,0.032 0.02,0.047 0.02,0.08 0.034,0.099 0.091,0.1897 0.1292,0.2879 z"
         style="color:#000000;fill:#fa88f2;fill-opacity:1;fill-rule:nonzero;stroke:none;stroke-width:12;marker:none;visibility:visible;display:inline;overflow:visible;enable-background:accumulate"
         inkscape:connector-curvature="0" />
      <path
         id="path10022"
         d="m 6070.2111,644.27629 c -1.3186,0.069 -2.8946,0.1406 -4.1749,0.2079 0.051,0.046 0.092,0.098 0.1431,0.1439 8.1493,7.228 20.3023,10.8135 31.1446,10.8135 6.4016,0 12.4837,-1.37 17.9638,-3.8391 -7.7442,2.3039 -18.62,3.4449 -31.3843,-1.0398 -5.5712,-1.9574 -10.0682,-4.1018 -13.693,-6.2865 z"
         style="color:#000000;fill:#fa88f2;fill-opacity:1;fill-rule:nonzero;stroke:none;stroke-width:12;marker:none;visibility:visible;display:inline;overflow:visible;enable-background:accumulate"
         inkscape:connector-curvature="0" />
      <path
         id="path10024"
         d="m 6056.6462,630.59949 -0.3679,-0.016 c 1.781,4.374 4.331,8.3311 7.694,11.8372 0.9915,-0.041 2.2923,-0.1015 3.3115,-0.1438 -6.2779,-4.4167 -9.3229,-8.7085 -10.6376,-11.6773 z"
         style="color:#000000;fill:#fa88f2;fill-opacity:1;fill-rule:nonzero;stroke:none;stroke-width:12;marker:none;visibility:visible;display:inline;overflow:visible;enable-background:accumulate"
         inkscape:connector-curvature="0" />
      <path
         id="path10026"
         d="m 6055.7987,628.20009 c 0,-5e-4 -0.02,4e-4 -0.031,0 0.031,0.4184 0.061,0.8996 0.143,1.5036 0.047,0.1228 0.096,0.2457 0.1449,0.368 0.067,0.174 0.1541,0.3389 0.2236,0.5118 l 0.3682,0.016 c -0.4157,-0.9384 -0.712,-1.7793 -0.8478,-2.3995 z"
         style="color:#000000;fill:#fa88f2;fill-opacity:1;fill-rule:nonzero;stroke:none;stroke-width:12;marker:none;visibility:visible;display:inline;overflow:visible;enable-background:accumulate"
         inkscape:connector-curvature="0" />
      <path
         id="path10028"
         d="m 6055.7504,628.05609 c 0,0.039 0.02,0.1038 0.02,0.1438 0.02,5e-4 0.02,-5e-4 0.031,0 -0.02,-0.041 -0.041,-0.1046 -0.047,-0.1438 z"
         style="color:#000000;fill:#fa88f2;fill-opacity:1;fill-rule:nonzero;stroke:none;stroke-width:12;marker:none;visibility:visible;display:inline;overflow:visible;enable-background:accumulate"
         inkscape:connector-curvature="0" />
      <path
         id="path10030"
         d="m 6055.6864,626.76039 c 0,-0.028 0,0.01 -0.031,0.096 -0.047,0.1903 -0.026,0.6083 0.096,1.1997 -0.047,-0.7576 -0.051,-1.225 -0.064,-1.2957 z"
         style="color:#000000;fill:#fa88f2;fill-opacity:1;fill-rule:nonzero;stroke:none;stroke-width:12;marker:none;visibility:visible;display:inline;overflow:visible;enable-background:accumulate"
         inkscape:connector-curvature="0" />
      <path
         sodipodi:nodetypes="ccccccc"
         id="path10032"
         d="m 6054.0387,598.27109 c 0.3849,-0.014 0.8391,-0.018 1.2318,-0.032 0.5732,-1.6658 1.2105,-3.297 2.0797,-4.8308 -0.6619,0.061 -1.3411,0.1552 -2,0.2079 l -0.02,0 c -0.5405,1.5037 -0.9593,3.0632 -1.2956,4.655 z"
         style="color:#000000;fill:#fa88f2;fill-opacity:1;fill-rule:nonzero;stroke:none;stroke-width:12;marker:none;visibility:visible;display:inline;overflow:visible;enable-background:accumulate"
         inkscape:connector-curvature="0" />
      <path
         sodipodi:nodetypes="ccsccc"
         id="path10034"
         d="m 6054.4709,600.81449 c -0.2742,0.013 -0.5627,0.02 -0.8318,0.032 -0.5289,3.5049 -0.768,7.1267 -0.768,10.8294 0,0.5216 0,1.0366 0.02,1.5517 0.1022,-4.2986 1.5811,-11.4719 2.5973,-15.4074 z"
         style="color:#000000;fill:#fa88f2;fill-opacity:1;fill-rule:nonzero;stroke:none;stroke-width:12;marker:none;visibility:visible;display:inline;overflow:visible;enable-background:accumulate"
         inkscape:connector-curvature="0" />
      <path
         id="path10036"
         d="m 6130.549,582.13089 c -1.1452,0.1049 -2.4614,0.2566 -3.7269,0.3999 3.3348,2.9239 6.2435,6.3742 8.4934,10.4455 0.5955,1.077 1.1103,2.3039 1.632,3.5192 0.4018,-0.01 1.144,-0.026 1.5354,-0.032 -0.8931,-2.76 -1.922,-5.4095 -3.1674,-7.6622 -1.3547,-2.4522 -3.0016,-4.6285 -4.7665,-6.6704 z"
         style="color:#000000;fill:#fa88f2;fill-opacity:1;fill-rule:nonzero;stroke:none;stroke-width:12;marker:none;visibility:visible;display:inline;overflow:visible;enable-background:accumulate"
         inkscape:connector-curvature="0" />
      <path
         id="path10038"
         d="m 6097.3211,567.90919 c -9.613,0 -19.9953,1.7782 -27.3495,6.8289 -1.9023,1.3066 -3.7581,3.0181 -5.4939,4.9019 -0.02,0.022 -0.028,0.045 -0.051,0.068 -0.2817,0.3078 -0.5685,0.6133 -0.8452,0.9298 -0.2955,0.3384 -0.5924,0.6857 -0.8792,1.031 l 3.2455,0.6424 4.6995,0.9466 -6.7782,1.2339 -3.9048,0.7269 c -0.041,0.06 -0.091,0.1094 -0.1335,0.169 -0.5684,0.7968 -1.117,1.5972 -1.6228,2.3664 -0.7822,1.19 -1.4181,2.4535 -1.9949,3.7357 -0.1739,0.3854 -0.3331,0.7734 -0.49,1.1663 -0.1065,0.2798 -0.2369,0.547 -0.338,0.8283 -0.02,0.041 -0.026,0.094 -0.033,0.1351 0.6597,-0.053 1.333,-0.142 1.9946,-0.2027 0.28,-0.4947 0.5472,-1.0089 0.8622,-1.4875 0.1431,-0.2186 0.3581,-0.4378 0.5066,-0.6593 1.1928,-1.7731 2.4807,-3.6174 3.9557,-5.3921 3.1926,-0.872 10.1798,-2.7936 11.0209,-3.144 0.7276,-0.3031 -2.9831,-1.2451 -5.9162,-2.1129 0.7204,-0.6135 1.4592,-1.1833 2.1975,-1.6903 7.3542,-5.0507 17.7364,-6.829 27.3495,-6.829 10.1964,0 19.435,2.8311 26.7745,8.1643 0.9574,0.6957 1.8292,1.4845 2.7213,2.265 1.266,-0.1434 2.5903,-0.3007 3.7361,-0.4056 -0.6307,-0.7293 -1.2321,-1.4881 -1.9098,-2.1637 -0.068,-0.069 -0.1321,-0.1509 -0.2046,-0.2197 -7.8575,-7.7059 -18.7933,-11.8323 -31.1187,-11.8323 z m 41.1596,28.5496 c -0.3918,0.01 -1.1365,0.028 -1.5385,0.034 0.3158,0.7361 0.6282,1.473 0.9132,2.2481 l 1.3522,0 c -0.2132,-0.7759 -0.4826,-1.5266 -0.7269,-2.282 z m -83.215,1.7748 c -0.3929,0.014 -0.8488,0.02 -1.2339,0.034 -0.02,0.086 -0.034,0.1668 -0.051,0.2535 -0.064,0.3119 -0.1292,0.6319 -0.186,0.9466 -0.081,0.4493 -0.084,0.9313 -0.1522,1.386 0.2695,-0.013 0.554,-0.022 0.8281,-0.034 0.2269,-0.8762 0.5033,-1.7384 0.7948,-2.5863 z m 12.0184,44.05 c -1.0193,0.043 -2.3218,0.094 -3.3132,0.1352 0.6697,0.698 1.3248,1.4017 2.0626,2.0622 1.2797,-0.067 2.8559,-0.1341 4.1745,-0.2028 -1.1014,-0.6639 -1.9786,-1.3293 -2.9239,-1.9946 z"
         style="color:#000000;fill:#fa88f2;fill-opacity:1;fill-rule:nonzero;stroke:none;stroke-width:12;marker:none;visibility:visible;display:inline;overflow:visible;enable-background:accumulate"
         inkscape:connector-curvature="0" />
      <path
         id="path10040"
         d="m 6139.2029,598.73499 c -0.3768,0 -0.9547,0 -1.3438,0 1.7461,4.7441 2.932,10.0922 3.1836,15.1004 0.034,-0.7141 0.047,-1.4366 0.047,-2.1595 0,-4.1573 -0.7133,-8.6644 -1.8873,-12.9409 z"
         style="color:#000000;fill:#fa88f2;fill-opacity:1;fill-rule:nonzero;stroke:none;stroke-width:12;marker:none;visibility:visible;display:inline;overflow:visible;enable-background:accumulate"
         inkscape:connector-curvature="0" />
      <path
         id="path10042"
         d="m 6128.2773,579.58749 c 1.8361,1.9709 3.4789,4.1209 4.8951,6.4784 3.6969,6.1533 6.1741,14.9465 6.1741,22.4748 0,7.3456 -1.2733,15.4122 -4.2866,22.2827 0.5404,0 1.0916,-0.029 1.6634,-0.08 2.7944,-5.764 4.3669,-12.2298 4.3669,-19.0675 0,-7.6677 -2.3101,-16.6074 -5.7747,-22.8746 -1.9266,-3.4867 -4.3041,-6.5644 -7.0382,-9.2139 z m 6.1426,52.6116 c -1.591,3.2818 -3.6032,6.2322 -6.0945,8.654 -8.514,8.2775 -22.3226,10.6535 -35.6877,10.6535 -8.0929,0 -16.8567,-1.7173 -24.3783,-5.1828 8.0517,6.0919 19.109,9.1178 29.0651,9.1178 12.5246,0 23.8222,-5.2619 31.8009,-13.6927 2.6535,-2.8045 4.9408,-5.961 6.7825,-9.3898 -0.3848,-0.034 -0.9546,-0.1035 -1.488,-0.16 z"
         style="color:#000000;fill:#d553c4;fill-opacity:1;fill-rule:nonzero;stroke:none;stroke-width:12;marker:none;visibility:visible;display:inline;overflow:visible;enable-background:accumulate"
         inkscape:connector-curvature="0" />
      <g
         name="grain"
         class="switchable"
         id="g10044"
         transform="matrix(2.0443656,0,0,2.0443656,-2098.6251,-282.05625)">
        <g
           id="g10046">
          <path
             sodipodi:nodetypes="ccsccsccccscccccccccccccccccccc"
             inkscape:connector-curvature="0"
             style="font-size:medium;font-style:normal;font-variant:normal;font-weight:normal;font-stretch:normal;text-indent:0;text-align:start;text-decoration:none;line-height:normal;letter-spacing:normal;word-spacing:normal;text-transform:none;direction:ltr;block-progression:tb;writing-mode:lr-tb;text-anchor:start;baseline-shift:baseline;opacity:0.5;color:#000000;fill:#fa88f2;fill-opacity:1;stroke:none;stroke-width:5.00009584;marker:none;visibility:visible;display:inline;overflow:visible;enable-background:accumulate;font-family:Sans;-inkscape-font-specification:Sans"
             d="m 4024.2696,422.03312 c -0.6576,0.0688 -1.3461,0.1477 -2.0815,0.24257 -5.3733,0.69332 -14.3001,2.95323 -23.5596,4.3974 -3.251,0.50703 -6.5393,0.90221 -9.7182,1.10327 -0.152,0.33883 -0.2809,0.69029 -0.4069,1.04066 3.2532,-0.26052 6.6129,-0.72737 9.9764,-1.25193 9.3343,-1.45584 18.6615,-3.37392 23.865,-4.04528 1.0972,-0.14162 2.0837,-0.24481 3.0046,-0.32865 -0.3461,-0.40171 -0.7043,-0.78953 -1.0798,-1.15804 z m 4.9451,8.17667 c -4.8745,0.0752 -11.4119,0.18618 -19.1388,0.33644 -6.5799,0.128 -13.3223,0.27816 -18.7556,0.43818 -1.2379,0.0364 -2.3774,0.0731 -3.4583,0.10956 -0.088,0.41499 -0.1634,0.83482 -0.2272,1.25975 7.571,-0.34853 19.0193,-0.81453 23.4033,-0.89983 7.3188,-0.14231 13.891,-0.15077 18.5053,-0.13301 -0.1024,-0.37348 -0.2113,-0.74728 -0.3287,-1.11109 z m -40.4321,15.48592 c 0.1334,0.39789 0.2814,0.78839 0.4381,1.17371 l 38.0191,1.17138 c 0.044,-0.0805 0.09,-0.16132 0.1333,-0.24255 -0.8719,-0.0779 -2.1624,-0.30338 -3.2523,-0.62483 1.4963,-0.32823 2.641,-0.0984 3.9984,-0.18779 -13.649,-0.12238 -26.3839,-0.70321 -39.3366,-1.28992 z m 36.4766,5.16096 c -5.827,0.39118 -12.1784,0.90938 -18.7593,1.22274 -5.0486,0.24045 -9.0821,0.19915 -13.2149,0.36909 0.3315,0.34618 0.6832,0.68195 1.0483,1.00936 4.3272,-0.22686 8.5077,-0.23281 13.5047,-0.47081 5.9351,-0.28258 11.028,-0.47438 16.1707,-0.7456 0.35,-0.37861 0.9282,-0.98173 1.2505,-1.38478 z"
             id="path10048" />
          <path
             id="path10050"
             d="m 4024.2696,421.55063 c -0.6575,0.0688 -1.3461,0.1477 -2.0815,0.24257 -5.3733,0.69332 -14.3,2.95323 -23.5595,4.3974 -3.251,0.50703 -6.5394,0.90222 -9.7182,1.10328 -0.152,0.33882 -0.281,0.69028 -0.4069,1.04065 3.2532,-0.26053 6.6129,-0.72737 9.9763,-1.25193 9.3344,-1.45584 18.6615,-3.37392 23.8651,-4.04528 1.0972,-0.14162 2.0837,-0.2448 3.0046,-0.32866 -0.346,-0.40169 -0.7043,-0.78951 -1.0799,-1.15803 z m 4.9451,8.17667 c -4.8745,0.0753 -11.4118,0.18619 -19.1387,0.33644 -6.5799,0.128 -13.3223,0.27816 -18.7557,0.43818 -1.2379,0.0365 -2.3774,0.0731 -3.4583,0.10957 -0.088,0.41499 -0.1633,0.83481 -0.2271,1.25974 7.5709,-0.34854 19.0193,-0.81453 23.4033,-0.89984 7.3188,-0.14229 13.8909,-0.15076 18.5053,-0.133 -0.1025,-0.37348 -0.2114,-0.74728 -0.3288,-1.11109 z m -40.7035,15.51608 c 0.1335,0.39789 0.2815,0.78839 0.4382,1.17371 l 38.8333,1.11106 c 0.045,-0.0806 0.089,-0.16132 0.1332,-0.24255 -0.8718,-0.0779 -2.7051,-0.27322 -3.7951,-0.59466 1.4964,-0.32824 2.6411,-0.0984 3.9985,-0.18779 -13.6491,-0.12239 -26.6554,-0.67307 -39.6081,-1.25977 z m 37.2607,5.28159 c -5.827,0.39118 -12.6911,0.75859 -19.2719,1.07195 -5.0486,0.24044 -9.6852,0.4404 -13.8181,0.61034 0.3315,0.34618 0.6833,0.68195 1.0484,1.00935 4.3271,-0.22685 9.1108,-0.47405 14.1077,-0.71204 5.9352,-0.28259 11.7819,-0.5347 16.9246,-0.80592 0.35,-0.37861 0.687,-0.77064 1.0093,-1.17368 z"
             style="font-size:medium;font-style:normal;font-variant:normal;font-weight:normal;font-stretch:normal;text-indent:0;text-align:start;text-decoration:none;line-height:normal;letter-spacing:normal;word-spacing:normal;text-transform:none;direction:ltr;block-progression:tb;writing-mode:lr-tb;text-anchor:start;baseline-shift:baseline;color:#000000;fill:#d553c4;fill-opacity:1;stroke:none;stroke-width:5;marker:none;visibility:visible;display:inline;overflow:visible;enable-background:accumulate;font-family:Sans;-inkscape-font-specification:Sans"
             inkscape:connector-curvature="0" />
        </g>
        <path
           inkscape:connector-curvature="0"
           style="color:#000000;fill:#d568ce;fill-opacity:1;fill-rule:nonzero;stroke:none;stroke-width:12;marker:none;visibility:visible;display:inline;overflow:visible;enable-background:accumulate"
           d="m 4024.2618,421.55063 c -0.6552,0.0687 -1.3398,0.14805 -2.0737,0.24257 -0.012,0.003 -0.033,0.006 -0.047,0.008 0.4682,0.3403 0.8939,0.7293 1.3303,1.11112 0.619,-0.0702 1.2629,-0.14433 1.8231,-0.19563 -0.3085,-0.3567 -0.5995,-0.73371 -0.9312,-1.06414 -0.034,-0.0339 -0.067,-0.068 -0.1017,-0.10173 z m -34.1073,5.63368 c -0.4044,0.0316 -0.8192,0.084 -1.2206,0.10957 -0.085,0.18851 -0.166,0.37901 -0.2426,0.57118 -0.052,0.13686 -0.1147,0.26926 -0.1643,0.40687 -0.01,0.02 -0.01,0.0425 -0.015,0.0626 0.3227,-0.0258 0.6545,-0.072 0.9782,-0.10171 0.137,-0.24194 0.2685,-0.48572 0.4224,-0.71986 0.07,-0.10691 0.1698,-0.22034 0.2427,-0.32865 z m 39.0211,2.54299 c -0.1915,0.003 -0.5546,0.0125 -0.7511,0.0155 0.1545,0.36011 0.3065,0.71631 0.4459,1.09544 0.1903,0 0.473,0 0.6573,0 -0.1042,-0.37953 -0.2326,-0.74159 -0.3521,-1.11108 z m -40.7034,0.86851 c -0.1921,0.007 -0.4142,0.009 -0.6025,0.0158 -0.01,0.0422 -0.023,0.0828 -0.031,0.12519 -0.031,0.15259 -0.058,0.30772 -0.086,0.46164 -0.04,0.21981 -0.045,0.45049 -0.078,0.67291 0.1317,-0.006 0.2727,-0.01 0.4069,-0.0155 0.1106,-0.42856 0.2484,-0.84505 0.3911,-1.25976 z m 5.8763,21.54102 c -0.4985,0.0208 -1.1348,0.0505 -1.6198,0.0704 0.3275,0.34143 0.6488,0.68626 1.0096,1.00935 0.6262,-0.0328 1.3971,-0.0681 2.0421,-0.1017 -0.5388,-0.3247 -0.9695,-0.65263 -1.4319,-0.97808 z"
           id="path10052" />
      </g>
    </g>
  </g>
</svg>
