<?xml version="1.0" encoding="UTF-8" standalone="no"?>
<!-- Created with Inkscape (http://www.inkscape.org/) -->

<svg
   xmlns:dc="http://purl.org/dc/elements/1.1/"
   xmlns:cc="http://creativecommons.org/ns#"
   xmlns:rdf="http://www.w3.org/1999/02/22-rdf-syntax-ns#"
   xmlns:svg="http://www.w3.org/2000/svg"
   xmlns="http://www.w3.org/2000/svg"
   xmlns:sodipodi="http://sodipodi.sourceforge.net/DTD/sodipodi-0.dtd"
   xmlns:inkscape="http://www.inkscape.org/namespaces/inkscape"
   width="413.42517"
   height="434.56693"
   viewBox="0 0 109.38539 114.97917"
   version="1.1"
   id="svg23489"
   inkscape:version="0.48.5 r10040"
   sodipodi:docname="round_wooden_button_red.svg">
  <defs
     id="defs23483" />
  <sodipodi:namedview
     id="base"
     pagecolor="#7d848b"
     bordercolor="#666666"
     borderopacity="1.0"
     inkscape:pageopacity="0"
     inkscape:pageshadow="2"
     inkscape:zoom="0.11756919"
     inkscape:cx="220.83738"
     inkscape:cy="-1887.0683"
     inkscape:document-units="px"
     inkscape:current-layer="layer1"
     showgrid="false"
     inkscape:pagecheckerboard="false"
     showborder="true"
     units="px"
     inkscape:window-width="1920"
     inkscape:window-height="1017"
     inkscape:window-x="-8"
     inkscape:window-y="-8"
     inkscape:window-maximized="1"
     inkscape:showpageshadow="false"
     guidetolerance="28"
     fit-margin-top="25"
     fit-margin-left="25"
     fit-margin-right="25"
     fit-margin-bottom="25">
    <inkscape:grid
       type="xygrid"
       id="grid24034"
       spacingx="1px"
       spacingy="1px"
       empspacing="8"
       visible="true"
       enabled="true"
       snapvisiblegridlinesonly="true"
       originx="1004.4136px"
       originy="-3462.9161px" />
  </sodipodi:namedview>
  <metadata
     id="metadata23486">
    <rdf:RDF>
      <cc:Work
         rdf:about="">
        <dc:format>image/svg+xml</dc:format>
        <dc:type
           rdf:resource="http://purl.org/dc/dcmitype/StillImage" />
        <dc:title></dc:title>
        <cc:license
           rdf:resource="" />
        <dc:creator>
          <cc:Agent>
            <dc:title>Robert Brooks</dc:title>
          </cc:Agent>
        </dc:creator>
      </cc:Work>
    </rdf:RDF>
  </metadata>
  <g
     inkscape:label="Layer 1"
     inkscape:groupmode="layer"
     id="layer1"
     transform="translate(265.75112,734.20898)">
    <g
       id="g15746"
       transform="translate(-6308.0428,-1067.4694)">
      <path
         sodipodi:nodetypes="scssccccscscs"
         inkscape:connector-curvature="0"
         id="path9824"
         d="m 6097.3245,350.13671 c -9.6132,0 -19.9992,1.77971 -27.3535,6.83037 -4.4964,3.08811 -8.728,8.39708 -11.7573,13.00499 -4.4732,6.80432 -5.3426,15.25033 -5.3426,23.93038 0,12.10826 2.0288,20.8954 9.641,28.92828 0.9796,0.15272 3.172,1.92851 3.172,1.92851 0,0 -0.026,0.65778 -0.045,1.58361 0.1793,0.16594 0.3594,0.33228 0.5441,0.49586 8.149,7.22775 20.302,10.82947 31.1443,10.82947 12.5242,0 23.8229,-5.262 31.8011,-13.69276 7.4207,-7.84222 11.9647,-18.42405 11.9647,-30.07297 0,-7.66767 -2.3101,-16.62343 -5.7746,-22.8906 -7.4561,-13.49014 -21.4863,-20.87514 -37.9912,-20.87514 z"
         style="color:#000000;fill:#12280a;fill-opacity:1;fill-rule:nonzero;stroke:#12280a;stroke-width:7.9375;stroke-miterlimit:4;stroke-opacity:1;stroke-dasharray:none;marker:none;visibility:visible;display:inline;overflow:visible;enable-background:accumulate" />
      <path
         style="color:#000000;fill:#12280a;fill-opacity:1;fill-rule:nonzero;stroke:#12280a;stroke-width:7.67820072;stroke-miterlimit:4;stroke-opacity:1;stroke-dasharray:none;marker:none;visibility:visible;display:inline;overflow:visible;enable-background:accumulate"
         d="m 6141.096,387.61905 c 0,11.64889 -4.5506,22.23489 -11.9719,30.07707 -7.9776,8.43077 -19.2722,13.6904 -31.7959,13.6904 -10.8426,0 -22.9978,-3.59417 -31.1471,-10.82191 -9.3554,-8.29808 -13.3179,-19.61636 -13.3179,-32.94556 0,-8.68006 0.8733,-17.11871 5.3466,-23.92301 3.0294,-4.60792 7.259,-9.92084 11.7553,-13.00892 7.3543,-5.05068 17.7496,-6.83558 27.3631,-6.83558 16.5048,0 30.5271,7.39166 37.9831,20.88175 3.4646,6.26721 5.7847,15.2181 5.7847,22.88576 z"
         id="path9826"
         inkscape:connector-curvature="0"
         sodipodi:nodetypes="ssssssssss" />
      <path
         id="path9828"
         d="m 6097.3245,350.13671 c -9.6132,0 -19.9992,1.77971 -27.3535,6.83037 -4.4964,3.08811 -8.728,8.39708 -11.7573,13.00499 -4.4732,6.80432 -5.3426,15.25033 -5.3426,23.93038 0,12.10826 3.2496,22.55194 10.8618,30.58482 0.9797,0.15272 1.9512,0.27197 1.9512,0.27197 0,0 -0.026,0.65778 -0.045,1.58361 0.1793,0.16594 0.3594,0.33228 0.5441,0.49586 8.149,7.22775 20.302,10.82947 31.1443,10.82947 12.5242,0 23.8229,-5.262 31.8011,-13.69276 7.4207,-7.84222 11.9647,-18.42405 11.9647,-30.07297 0,-7.66767 -2.3101,-16.62343 -5.7746,-22.8906 -7.4561,-13.49014 -21.4863,-20.87514 -37.9912,-20.87514 z"
         style="color:#000000;fill:#459925;fill-opacity:1;fill-rule:nonzero;stroke:none;stroke-width:12;marker:none;visibility:visible;display:inline;overflow:visible;enable-background:accumulate"
         inkscape:connector-curvature="0" />
      <path
         name="grain"
         inkscape:connector-curvature="0"
         class="switchable"
         id="path9830"
         d="m 6130.5529,412.89906 c 0,0 -1.6735,2.87973 -1.6735,3.22856 0,0.17409 0.079,3.90451 0.099,7.99523 0.048,-0.0493 0.1065,-0.10294 0.1539,-0.15217 0.43,-0.45451 0.84,-0.91352 1.2505,-1.38612 0.1377,-4.19018 0.238,-8.11589 0.1704,-9.68554 z m -66.8358,4.24277 c -0.064,1.67036 0.06,4.75272 0.1703,7.36983 0.9175,0.13986 1.7914,0.2535 1.7914,0.2535 0,0 -0.02,0.64617 -0.033,1.57206 0.064,0.0591 0.1222,0.12722 0.1862,0.18583 0.038,-2.95574 0.1306,-6.26806 0.048,-6.42325 -0.1236,-0.24655 -2.1638,-2.95805 -2.1638,-2.95805 z"
         style="opacity:0.5;color:#000000;fill:#12280a;fill-opacity:1;fill-rule:nonzero;stroke:none;stroke-width:18.89800072;marker:none;visibility:visible;display:inline;overflow:visible;enable-background:accumulate" />
      <path
         style="color:#000000;fill:#12280a;fill-opacity:1;fill-rule:nonzero;stroke:#12280a;stroke-width:7.9375;stroke-miterlimit:4;stroke-opacity:1;stroke-dasharray:none;marker:none;visibility:visible;display:inline;overflow:visible;enable-background:accumulate"
         d="m 6141.096,387.61905 c 0,11.64889 -4.5506,19.09617 -11.9719,26.93838 -7.9776,8.43077 -19.2722,6.71552 -31.7959,6.71552 -10.8426,0 -22.9978,2.33447 -31.1471,-4.89325 -9.3554,-8.29811 -13.3179,-15.43145 -13.3179,-28.76065 0,-8.68006 0.8733,-17.11871 5.3466,-23.92301 3.0294,-4.60792 7.259,-9.92084 11.7553,-13.00892 7.3543,-5.05068 17.7496,-6.83558 27.3631,-6.83558 16.5048,0 30.5271,7.39166 37.9831,20.88175 3.4646,6.26721 5.7847,15.2181 5.7847,22.88576 z"
         id="path9832"
         inkscape:connector-curvature="0"
         sodipodi:nodetypes="ssssssssss" />
      <path
         id="path9834"
         d="m 6097.3245,343.85017 c -9.6132,0 -19.9992,1.77973 -27.3535,6.8304 -2.5665,1.76288 -5.0423,4.25522 -7.2618,6.92636 l 7.934,1.58365 -10.686,1.96757 c -0.6154,0.85602 -1.1998,1.71648 -1.7435,2.54337 -4.4732,6.80432 -5.3426,15.23438 -5.3426,23.91437 0,13.32926 3.9532,24.65424 13.3089,32.95228 8.1493,7.2278 20.3022,10.81347 31.1445,10.81347 12.5246,0 23.8222,-5.26197 31.8009,-13.6928 2.6547,-2.80539 4.9388,-5.95899 6.7825,-9.38976 -1.7817,-0.15923 -5.5304,-0.55857 -7.7587,-1.21571 3.206,-0.70333 5.6185,-0.13659 8.5741,-0.39994 2.7959,-5.76521 4.3669,-12.22983 4.3669,-19.06754 0,-7.66765 -2.3101,-16.60738 -5.7747,-22.87458 -7.4559,-13.4902 -21.4854,-20.89114 -37.991,-20.89114 z"
         style="color:#000000;fill:#67cf40;fill-opacity:1;fill-rule:nonzero;stroke:none;stroke-width:12;marker:none;visibility:visible;display:inline;overflow:visible;enable-background:accumulate"
         inkscape:connector-curvature="0" />
      <path
         id="path9836"
         d="m 6056.0547,406.01163 c -0.047,-0.12225 -0.098,-0.24514 -0.1448,-0.36792 0,0.0322 0.02,0.0466 0.02,0.0799 0.034,0.0985 0.091,0.18971 0.1292,0.28797 z"
         style="color:#000000;fill:#9ee91d;fill-opacity:1;fill-rule:nonzero;stroke:none;stroke-width:12;marker:none;visibility:visible;display:inline;overflow:visible;enable-background:accumulate"
         inkscape:connector-curvature="0" />
      <path
         id="path9838"
         d="m 6070.2111,420.21632 c -1.3186,0.0687 -2.8946,0.14056 -4.1749,0.20791 0.051,0.046 0.092,0.0983 0.1431,0.14401 8.1493,7.22797 20.3023,10.81347 31.1446,10.81347 6.4016,0 12.4837,-1.36995 17.9638,-3.8391 -7.7442,2.30393 -18.62,3.4449 -31.3843,-1.03972 -5.5712,-1.95748 -10.0682,-4.10182 -13.693,-6.2865 z"
         style="color:#000000;fill:#9ee91d;fill-opacity:1;fill-rule:nonzero;stroke:none;stroke-width:12;marker:none;visibility:visible;display:inline;overflow:visible;enable-background:accumulate"
         inkscape:connector-curvature="0" />
      <path
         id="path9840"
         d="m 6056.6462,406.53948 -0.3679,-0.0163 c 1.781,4.37408 4.331,8.33118 7.694,11.83724 0.9915,-0.0409 2.2923,-0.10152 3.3115,-0.14383 -6.2779,-4.41669 -9.3229,-8.70848 -10.6376,-11.67729 z"
         style="color:#000000;fill:#9ee91d;fill-opacity:1;fill-rule:nonzero;stroke:none;stroke-width:12;marker:none;visibility:visible;display:inline;overflow:visible;enable-background:accumulate"
         inkscape:connector-curvature="0" />
      <path
         id="path9842"
         d="m 6055.7987,404.14006 c 0,-4.7e-4 -0.02,4.5e-4 -0.031,0 0.031,0.41845 0.061,0.89968 0.143,1.50365 0.047,0.12281 0.096,0.2457 0.1449,0.36792 0.067,0.17409 0.1541,0.33892 0.2236,0.51189 l 0.3682,0.0163 c -0.4157,-0.93833 -0.712,-1.77928 -0.8478,-2.39943 z"
         style="color:#000000;fill:#9ee91d;fill-opacity:1;fill-rule:nonzero;stroke:none;stroke-width:12;marker:none;visibility:visible;display:inline;overflow:visible;enable-background:accumulate"
         inkscape:connector-curvature="0" />
      <path
         id="path9844"
         d="m 6055.7504,403.99604 c 0,0.0388 0.02,0.1038 0.02,0.14384 0.02,4.5e-4 0.02,-4.7e-4 0.031,0 -0.02,-0.0409 -0.041,-0.10465 -0.047,-0.14384 z"
         style="color:#000000;fill:#9ee91d;fill-opacity:1;fill-rule:nonzero;stroke:none;stroke-width:12;marker:none;visibility:visible;display:inline;overflow:visible;enable-background:accumulate"
         inkscape:connector-curvature="0" />
      <path
         id="path9846"
         d="m 6055.6864,402.70041 c 0,-0.0283 0,0.009 -0.031,0.0958 -0.047,0.19033 -0.026,0.60832 0.096,1.19969 -0.047,-0.75756 -0.051,-1.22496 -0.064,-1.29565 z"
         style="color:#000000;fill:#9ee91d;fill-opacity:1;fill-rule:nonzero;stroke:none;stroke-width:12;marker:none;visibility:visible;display:inline;overflow:visible;enable-background:accumulate"
         inkscape:connector-curvature="0" />
      <path
         sodipodi:nodetypes="ccccccc"
         id="path9848"
         d="m 6054.0387,374.21109 c 0.3849,-0.0145 0.8391,-0.0183 1.2318,-0.0322 0.5732,-1.6658 1.2105,-3.29701 2.0797,-4.8308 -0.6619,0.0606 -1.3411,0.15506 -2,0.20792 l -0.02,0 c -0.5405,1.50369 -0.9593,3.0632 -1.2956,4.65494 z"
         style="color:#000000;fill:#9ee91d;fill-opacity:1;fill-rule:nonzero;stroke:none;stroke-width:12;marker:none;visibility:visible;display:inline;overflow:visible;enable-background:accumulate"
         inkscape:connector-curvature="0" />
      <path
         sodipodi:nodetypes="ccsccc"
         id="path9850"
         d="m 6054.4709,376.75447 c -0.2742,0.0128 -0.5627,0.0204 -0.8318,0.0317 -0.5289,3.50494 -0.768,7.12677 -0.768,10.82944 0,0.52161 0,1.03657 0.02,1.55166 0.1022,-4.29851 1.5811,-11.47182 2.5973,-15.40732 z"
         style="color:#000000;fill:#9ee91d;fill-opacity:1;fill-rule:nonzero;stroke:none;stroke-width:12;marker:none;visibility:visible;display:inline;overflow:visible;enable-background:accumulate"
         inkscape:connector-curvature="0" />
      <path
         id="path9852"
         d="m 6130.549,358.07085 c -1.1452,0.10493 -2.4614,0.2566 -3.7269,0.39993 3.3348,2.92396 6.2435,6.37425 8.4934,10.44554 0.5955,1.07692 1.1103,2.30385 1.632,3.51915 0.4018,-0.006 1.144,-0.0261 1.5354,-0.0317 -0.8931,-2.76005 -1.922,-5.40957 -3.1674,-7.66217 -1.3547,-2.45229 -3.0016,-4.6286 -4.7665,-6.67049 z"
         style="color:#000000;fill:#9ee91d;fill-opacity:1;fill-rule:nonzero;stroke:none;stroke-width:12;marker:none;visibility:visible;display:inline;overflow:visible;enable-background:accumulate"
         inkscape:connector-curvature="0" />
      <path
         id="path9854"
         d="m 6097.3211,343.84919 c -9.613,0 -19.9953,1.7782 -27.3495,6.82891 -1.9023,1.30655 -3.7581,3.01814 -5.4939,4.90189 -0.02,0.0224 -0.028,0.0452 -0.051,0.0677 -0.2817,0.30774 -0.5685,0.61329 -0.8452,0.92972 -0.2955,0.33844 -0.5924,0.6857 -0.8792,1.03106 l 3.2455,0.6424 4.6995,0.94658 -6.7782,1.23392 -3.9048,0.72685 c -0.041,0.0596 -0.091,0.10947 -0.1335,0.16902 -0.5684,0.79681 -1.117,1.59717 -1.6228,2.36645 -0.7822,1.18994 -1.4181,2.45352 -1.9949,3.73567 -0.1739,0.38537 -0.3331,0.77344 -0.49,1.16634 -0.1065,0.27975 -0.2369,0.54693 -0.338,0.82822 -0.02,0.0409 -0.026,0.094 -0.033,0.13517 0.6597,-0.0527 1.333,-0.14202 1.9946,-0.2028 0.28,-0.49459 0.5472,-1.00884 0.8622,-1.48749 0.1431,-0.21857 0.3581,-0.43781 0.5066,-0.65925 1.1928,-1.77315 2.4807,-3.61741 3.9557,-5.39213 3.1926,-0.87194 10.1798,-2.79356 11.0209,-3.14401 0.7276,-0.30305 -2.9831,-1.24506 -5.9162,-2.11286 0.7204,-0.61345 1.4592,-1.18336 2.1975,-1.69035 7.3542,-5.05069 17.7364,-6.82892 27.3495,-6.82892 10.1964,0 19.435,2.8311 26.7745,8.16424 0.9574,0.69574 1.8292,1.48447 2.7213,2.26505 1.266,-0.14348 2.5903,-0.30078 3.7361,-0.40568 -0.6307,-0.72926 -1.2321,-1.48809 -1.9098,-2.16361 -0.068,-0.0694 -0.1321,-0.15091 -0.2046,-0.21973 -7.8575,-7.70588 -18.7933,-11.83228 -31.1187,-11.83228 z m 41.1596,28.5496 c -0.3918,0.006 -1.1365,0.0276 -1.5385,0.0337 0.3158,0.73619 0.6282,1.47305 0.9132,2.24815 l 1.3522,0 c -0.2132,-0.77592 -0.4826,-1.52659 -0.7269,-2.28197 z m -83.215,1.77481 c -0.3929,0.0145 -0.8488,0.0204 -1.2339,0.0339 -0.02,0.0862 -0.034,0.16685 -0.051,0.25353 -0.064,0.31193 -0.1292,0.63192 -0.186,0.94658 -0.081,0.44937 -0.084,0.93137 -0.1522,1.38606 0.2695,-0.0128 0.554,-0.0224 0.8281,-0.0337 0.2269,-0.87615 0.5033,-1.73835 0.7948,-2.58623 z m 12.0184,44.05003 c -1.0193,0.0426 -2.3218,0.0944 -3.3132,0.13517 0.6697,0.69798 1.3248,1.40166 2.0626,2.06215 1.2797,-0.067 2.8559,-0.13404 4.1745,-0.20282 -1.1014,-0.66379 -1.9786,-1.32921 -2.9239,-1.99451 z"
         style="color:#000000;fill:#9ee91d;fill-opacity:1;fill-rule:nonzero;stroke:none;stroke-width:12;marker:none;visibility:visible;display:inline;overflow:visible;enable-background:accumulate"
         inkscape:connector-curvature="0" />
      <path
         id="path9856"
         d="m 6139.2029,374.67496 c -0.3768,0 -0.9547,0 -1.3438,0 1.7461,4.74409 2.932,10.09221 3.1836,15.10046 0.034,-0.71414 0.047,-1.43666 0.047,-2.15953 0,-4.15733 -0.7133,-8.66443 -1.8873,-12.94093 z"
         style="color:#000000;fill:#9ee91d;fill-opacity:1;fill-rule:nonzero;stroke:none;stroke-width:12;marker:none;visibility:visible;display:inline;overflow:visible;enable-background:accumulate"
         inkscape:connector-curvature="0" />
      <path
         id="path9858"
         d="m 6128.2773,355.52747 c 1.8361,1.97094 3.4789,4.12093 4.8951,6.47845 3.6969,6.15326 6.1741,14.94648 6.1741,22.47473 0,7.34562 -1.2733,15.41228 -4.2866,22.28278 0.5404,-0.004 1.0916,-0.0292 1.6634,-0.0799 2.7944,-5.76405 4.3669,-12.22986 4.3669,-19.06755 0,-7.66766 -2.3101,-16.60737 -5.7747,-22.87458 -1.9266,-3.48667 -4.3041,-6.56435 -7.0382,-9.21384 z m 6.1426,52.61165 c -1.591,3.28179 -3.6032,6.23213 -6.0945,8.65395 -8.514,8.2775 -22.3226,10.65355 -35.6877,10.65355 -8.0929,0 -16.8567,-1.7173 -24.3783,-5.18279 8.0517,6.09184 19.109,9.11781 29.0651,9.11781 12.5246,0 23.8222,-5.26197 31.8009,-13.6928 2.6535,-2.80446 4.9408,-5.96098 6.7825,-9.38976 -0.3848,-0.0344 -0.9546,-0.1035 -1.488,-0.15996 z"
         style="color:#000000;fill:#58c230;fill-opacity:1;fill-rule:nonzero;stroke:none;stroke-width:12;marker:none;visibility:visible;display:inline;overflow:visible;enable-background:accumulate"
         inkscape:connector-curvature="0" />
      <g
         name="grain"
         class="switchable"
         id="g9860"
         transform="matrix(2.0443656,0,0,2.0443656,-2098.6251,-506.11624)">
        <g
           id="g9862">
          <path
             sodipodi:nodetypes="ccsccsccccscccccccccccccccccccc"
             inkscape:connector-curvature="0"
             style="font-size:medium;font-style:normal;font-variant:normal;font-weight:normal;font-stretch:normal;text-indent:0;text-align:start;text-decoration:none;line-height:normal;letter-spacing:normal;word-spacing:normal;text-transform:none;direction:ltr;block-progression:tb;writing-mode:lr-tb;text-anchor:start;baseline-shift:baseline;opacity:0.5;color:#000000;fill:#9ee91d;fill-opacity:1;stroke:none;stroke-width:5.00009584;marker:none;visibility:visible;display:inline;overflow:visible;enable-background:accumulate;font-family:Sans;-inkscape-font-specification:Sans"
             d="m 4024.2696,422.03312 c -0.6576,0.0688 -1.3461,0.1477 -2.0815,0.24257 -5.3733,0.69332 -14.3001,2.95323 -23.5596,4.3974 -3.251,0.50703 -6.5393,0.90221 -9.7182,1.10327 -0.152,0.33883 -0.2809,0.69029 -0.4069,1.04066 3.2532,-0.26052 6.6129,-0.72737 9.9764,-1.25193 9.3343,-1.45584 18.6615,-3.37392 23.865,-4.04528 1.0972,-0.14162 2.0837,-0.24481 3.0046,-0.32865 -0.3461,-0.40171 -0.7043,-0.78953 -1.0798,-1.15804 z m 4.9451,8.17667 c -4.8745,0.0752 -11.4119,0.18618 -19.1388,0.33644 -6.5799,0.128 -13.3223,0.27816 -18.7556,0.43818 -1.2379,0.0364 -2.3774,0.0731 -3.4583,0.10956 -0.088,0.41499 -0.1634,0.83482 -0.2272,1.25975 7.571,-0.34853 19.0193,-0.81453 23.4033,-0.89983 7.3188,-0.14231 13.891,-0.15077 18.5053,-0.13301 -0.1024,-0.37348 -0.2113,-0.74728 -0.3287,-1.11109 z m -40.4321,15.48592 c 0.1334,0.39789 0.2814,0.78839 0.4381,1.17371 l 38.0191,1.17138 c 0.044,-0.0805 0.09,-0.16132 0.1333,-0.24255 -0.8719,-0.0779 -2.1624,-0.30338 -3.2523,-0.62483 1.4963,-0.32823 2.641,-0.0984 3.9984,-0.18779 -13.649,-0.12238 -26.3839,-0.70321 -39.3366,-1.28992 z m 36.4766,5.16096 c -5.827,0.39118 -12.1784,0.90938 -18.7593,1.22274 -5.0486,0.24045 -9.0821,0.19915 -13.2149,0.36909 0.3315,0.34618 0.6832,0.68195 1.0483,1.00936 4.3272,-0.22686 8.5077,-0.23281 13.5047,-0.47081 5.9351,-0.28258 11.028,-0.47438 16.1707,-0.7456 0.35,-0.37861 0.9282,-0.98173 1.2505,-1.38478 z"
             id="path9864" />
          <path
             id="path9866"
             d="m 4024.2696,421.55063 c -0.6575,0.0688 -1.3461,0.1477 -2.0815,0.24257 -5.3733,0.69332 -14.3,2.95323 -23.5595,4.3974 -3.251,0.50703 -6.5394,0.90222 -9.7182,1.10328 -0.152,0.33882 -0.281,0.69028 -0.4069,1.04065 3.2532,-0.26053 6.6129,-0.72737 9.9763,-1.25193 9.3344,-1.45584 18.6615,-3.37392 23.8651,-4.04528 1.0972,-0.14162 2.0837,-0.2448 3.0046,-0.32866 -0.346,-0.40169 -0.7043,-0.78951 -1.0799,-1.15803 z m 4.9451,8.17667 c -4.8745,0.0753 -11.4118,0.18619 -19.1387,0.33644 -6.5799,0.128 -13.3223,0.27816 -18.7557,0.43818 -1.2379,0.0365 -2.3774,0.0731 -3.4583,0.10957 -0.088,0.41499 -0.1633,0.83481 -0.2271,1.25974 7.5709,-0.34854 19.0193,-0.81453 23.4033,-0.89984 7.3188,-0.14229 13.8909,-0.15076 18.5053,-0.133 -0.1025,-0.37348 -0.2114,-0.74728 -0.3288,-1.11109 z m -40.7035,15.51608 c 0.1335,0.39789 0.2815,0.78839 0.4382,1.17371 l 38.8333,1.11106 c 0.045,-0.0806 0.089,-0.16132 0.1332,-0.24255 -0.8718,-0.0779 -2.7051,-0.27322 -3.7951,-0.59466 1.4964,-0.32824 2.6411,-0.0984 3.9985,-0.18779 -13.6491,-0.12239 -26.6554,-0.67307 -39.6081,-1.25977 z m 37.2607,5.28159 c -5.827,0.39118 -12.6911,0.75859 -19.2719,1.07195 -5.0486,0.24044 -9.6852,0.4404 -13.8181,0.61034 0.3315,0.34618 0.6833,0.68195 1.0484,1.00935 4.3271,-0.22685 9.1108,-0.47405 14.1077,-0.71204 5.9352,-0.28259 11.7819,-0.5347 16.9246,-0.80592 0.35,-0.37861 0.687,-0.77064 1.0093,-1.17368 z"
             style="font-size:medium;font-style:normal;font-variant:normal;font-weight:normal;font-stretch:normal;text-indent:0;text-align:start;text-decoration:none;line-height:normal;letter-spacing:normal;word-spacing:normal;text-transform:none;direction:ltr;block-progression:tb;writing-mode:lr-tb;text-anchor:start;baseline-shift:baseline;color:#000000;fill:#58c230;fill-opacity:1;stroke:none;stroke-width:5;marker:none;visibility:visible;display:inline;overflow:visible;enable-background:accumulate;font-family:Sans;-inkscape-font-specification:Sans"
             inkscape:connector-curvature="0" />
        </g>
        <path
           inkscape:connector-curvature="0"
           style="color:#000000;fill:#67cf40;fill-opacity:1;fill-rule:nonzero;stroke:none;stroke-width:12;marker:none;visibility:visible;display:inline;overflow:visible;enable-background:accumulate"
           d="m 4024.2618,421.55063 c -0.6552,0.0687 -1.3398,0.14805 -2.0737,0.24257 -0.012,0.003 -0.033,0.006 -0.047,0.008 0.4682,0.3403 0.8939,0.7293 1.3303,1.11112 0.619,-0.0702 1.2629,-0.14433 1.8231,-0.19563 -0.3085,-0.3567 -0.5995,-0.73371 -0.9312,-1.06414 -0.034,-0.0339 -0.067,-0.068 -0.1017,-0.10173 z m -34.1073,5.63368 c -0.4044,0.0316 -0.8192,0.084 -1.2206,0.10957 -0.085,0.18851 -0.166,0.37901 -0.2426,0.57118 -0.052,0.13686 -0.1147,0.26926 -0.1643,0.40687 -0.01,0.02 -0.01,0.0425 -0.015,0.0626 0.3227,-0.0258 0.6545,-0.072 0.9782,-0.10171 0.137,-0.24194 0.2685,-0.48572 0.4224,-0.71986 0.07,-0.10691 0.1698,-0.22034 0.2427,-0.32865 z m 39.0211,2.54299 c -0.1915,0.003 -0.5546,0.0125 -0.7511,0.0155 0.1545,0.36011 0.3065,0.71631 0.4459,1.09544 0.1903,0 0.473,0 0.6573,0 -0.1042,-0.37953 -0.2326,-0.74159 -0.3521,-1.11108 z m -40.7034,0.86851 c -0.1921,0.007 -0.4142,0.009 -0.6025,0.0158 -0.01,0.0422 -0.023,0.0828 -0.031,0.12519 -0.031,0.15259 -0.058,0.30772 -0.086,0.46164 -0.04,0.21981 -0.045,0.45049 -0.078,0.67291 0.1317,-0.006 0.2727,-0.01 0.4069,-0.0155 0.1106,-0.42856 0.2484,-0.84505 0.3911,-1.25976 z m 5.8763,21.54102 c -0.4985,0.0208 -1.1348,0.0505 -1.6198,0.0704 0.3275,0.34143 0.6488,0.68626 1.0096,1.00935 0.6262,-0.0328 1.3971,-0.0681 2.0421,-0.1017 -0.5388,-0.3247 -0.9695,-0.65263 -1.4319,-0.97808 z"
           id="path9868" />
      </g>
    </g>
  </g>
</svg>
