<?xml version="1.0" encoding="UTF-8" standalone="no"?>
<!-- Created with Inkscape (http://www.inkscape.org/) -->

<svg
   xmlns:dc="http://purl.org/dc/elements/1.1/"
   xmlns:cc="http://creativecommons.org/ns#"
   xmlns:rdf="http://www.w3.org/1999/02/22-rdf-syntax-ns#"
   xmlns:svg="http://www.w3.org/2000/svg"
   xmlns="http://www.w3.org/2000/svg"
   xmlns:sodipodi="http://sodipodi.sourceforge.net/DTD/sodipodi-0.dtd"
   xmlns:inkscape="http://www.inkscape.org/namespaces/inkscape"
   width="413.39804"
   height="434.64658"
   viewBox="0 0 109.37822 115.00024"
   version="1.1"
   id="svg23489"
   inkscape:version="0.48.5 r10040"
   sodipodi:docname="round_button_blue_wood.svg">
  <defs
     id="defs23483" />
  <sodipodi:namedview
     id="base"
     pagecolor="#7d848b"
     bordercolor="#666666"
     borderopacity="1.0"
     inkscape:pageopacity="0"
     inkscape:pageshadow="2"
     inkscape:zoom="0.11756919"
     inkscape:cx="-122.80919"
     inkscape:cy="190.69888"
     inkscape:document-units="px"
     inkscape:current-layer="layer1"
     showgrid="false"
     inkscape:pagecheckerboard="false"
     showborder="true"
     units="px"
     inkscape:window-width="1920"
     inkscape:window-height="1017"
     inkscape:window-x="-8"
     inkscape:window-y="-8"
     inkscape:window-maximized="1"
     inkscape:showpageshadow="false"
     guidetolerance="28"
     fit-margin-top="25"
     fit-margin-left="25"
     fit-margin-right="25"
     fit-margin-bottom="25">
    <inkscape:grid
       type="xygrid"
       id="grid24034"
       spacingx="1px"
       spacingy="1px"
       empspacing="8"
       visible="true"
       enabled="true"
       snapvisiblegridlinesonly="true"
       originx="247.39878px"
       originy="-1617.1032px" />
  </sodipodi:namedview>
  <metadata
     id="metadata23486">
    <rdf:RDF>
      <cc:Work
         rdf:about="">
        <dc:format>image/svg+xml</dc:format>
        <dc:type
           rdf:resource="http://purl.org/dc/dcmitype/StillImage" />
        <dc:title />
        <cc:license
           rdf:resource="" />
        <dc:creator>
          <cc:Agent>
            <dc:title>Robert Brooks</dc:title>
          </cc:Agent>
        </dc:creator>
      </cc:Work>
    </rdf:RDF>
  </metadata>
  <g
     inkscape:label="Layer 1"
     inkscape:groupmode="layer"
     id="layer1"
     transform="translate(65.457638,245.85872)">
    <g
       id="g15795"
       transform="translate(-6107.7526,-464.87376)">
      <g
         transform="matrix(2.0443656,0,0,2.0443656,-4359.7863,-603.68006)"
         id="g11733">
        <path
           sodipodi:nodetypes="scssccccscscs"
           inkscape:connector-curvature="0"
           id="path9732"
           d="m 5115.0882,410.67783 c -4.7023,0 -9.7826,0.87054 -13.3799,3.34107 -2.1994,1.51055 -4.2693,4.10743 -5.7511,6.36138 -2.1881,3.32833 -2.6133,7.45969 -2.6133,11.70553 0,5.92275 0.9923,10.22097 4.7158,14.15025 0.4792,0.0747 1.5516,0.94333 1.5516,0.94333 0,0 -0.012,0.32175 -0.022,0.77462 0.088,0.0812 0.1758,0.16253 0.2661,0.24255 3.9862,3.53545 9.9308,5.29723 15.2343,5.29723 6.1262,0 11.6529,-2.57391 15.5554,-6.69781 3.6299,-3.83601 5.8526,-9.01211 5.8526,-14.71017 0,-3.75063 -1.13,-8.13133 -2.8246,-11.19692 -3.6472,-6.59869 -10.51,-10.21106 -18.5834,-10.21106 z"
           style="color:#000000;fill:#0c2126;fill-opacity:1;fill-rule:nonzero;stroke:#0c2126;stroke-width:3.88262272;stroke-miterlimit:4;stroke-opacity:1;stroke-dasharray:none;marker:none;visibility:visible;display:inline;overflow:visible;enable-background:accumulate" />
        <path
           style="color:#000000;fill:#49b6d2;fill-opacity:1;fill-rule:nonzero;stroke:#0c2126;stroke-width:3.75578618;stroke-miterlimit:4;stroke-opacity:1;stroke-dasharray:none;marker:none;visibility:visible;display:inline;overflow:visible;enable-background:accumulate"
           d="m 5136.499,429.01229 c 0,5.69805 -2.2259,10.87618 -5.856,14.71218 -3.9023,4.12391 -9.427,6.69665 -15.553,6.69665 -5.3036,0 -11.2493,-1.75809 -15.2355,-5.29353 -4.5762,-4.059 -6.5145,-9.59533 -6.5145,-16.1153 0,-4.24584 0.4272,-8.37361 2.6153,-11.70193 1.4818,-2.25395 3.5507,-4.85276 5.7501,-6.3633 3.5973,-2.47054 8.6822,-3.34361 13.3846,-3.34361 8.0733,0 14.9323,3.61562 18.5794,10.21429 1.6947,3.0656 2.8296,7.44392 2.8296,11.19455 z"
           id="path9734"
           inkscape:connector-curvature="0"
           sodipodi:nodetypes="ssssssssss" />
        <path
           id="path9736"
           d="m 5115.0882,410.67783 c -4.7023,0 -9.7826,0.87054 -13.3799,3.34107 -2.1994,1.51055 -4.2693,4.10743 -5.7511,6.36138 -2.1881,3.32833 -2.6133,7.45969 -2.6133,11.70553 0,5.92275 1.5895,11.03127 5.313,14.96055 0.4792,0.0747 0.9544,0.13303 0.9544,0.13303 0,0 -0.012,0.32175 -0.022,0.77462 0.088,0.0812 0.1758,0.16253 0.2661,0.24255 3.9862,3.53545 9.9308,5.29723 15.2343,5.29723 6.1262,0 11.6529,-2.57391 15.5554,-6.69781 3.6299,-3.83601 5.8526,-9.01211 5.8526,-14.71017 0,-3.75063 -1.13,-8.13133 -2.8246,-11.19692 -3.6472,-6.59869 -10.51,-10.21106 -18.5834,-10.21106 z"
           style="color:#000000;fill:#27869f;fill-opacity:1;fill-rule:nonzero;stroke:none;stroke-width:12;marker:none;visibility:visible;display:inline;overflow:visible;enable-background:accumulate"
           inkscape:connector-curvature="0" />
        <path
           name="grain"
           inkscape:connector-curvature="0"
           class="switchable"
           id="path9738"
           d="m 5131.3419,441.37799 c 0,0 -0.8186,1.40862 -0.8186,1.57925 0,0.0852 0.039,1.90989 0.049,3.91086 0.024,-0.0241 0.052,-0.0503 0.075,-0.0744 0.2103,-0.22232 0.4109,-0.44685 0.6117,-0.67802 0.067,-2.04962 0.1164,-3.96988 0.083,-4.73768 z m -32.6927,2.07534 c -0.031,0.81706 0.029,2.32479 0.083,3.60495 0.4488,0.0684 0.8763,0.12401 0.8763,0.12401 0,0 -0.01,0.31607 -0.016,0.76896 0.031,0.0289 0.059,0.0622 0.091,0.0909 0.019,-1.44579 0.064,-3.06601 0.024,-3.14192 -0.06,-0.1206 -1.0583,-1.44693 -1.0583,-1.44693 z"
           style="opacity:0.5;color:#000000;fill:#0c2126;fill-opacity:1;fill-rule:nonzero;stroke:none;stroke-width:18.89800072;marker:none;visibility:visible;display:inline;overflow:visible;enable-background:accumulate" />
        <path
           style="color:#000000;fill:#0c2126;fill-opacity:1;fill-rule:nonzero;stroke:#0c2126;stroke-width:3.88262272;stroke-miterlimit:4;stroke-opacity:1;stroke-dasharray:none;marker:none;visibility:visible;display:inline;overflow:visible;enable-background:accumulate"
           d="m 5136.499,429.01229 c 0,5.69805 -2.2259,9.34088 -5.856,13.17689 -3.9023,4.1239 -9.427,3.28489 -15.553,3.28489 -5.3036,0 -11.2493,1.14191 -15.2355,-2.39353 -4.5762,-4.05901 -6.5145,-7.54828 -6.5145,-14.06825 0,-4.24584 0.4272,-8.37361 2.6153,-11.70193 1.4818,-2.25395 3.5507,-4.85276 5.7501,-6.3633 3.5973,-2.47054 8.6822,-3.34361 13.3846,-3.34361 8.0733,0 14.9323,3.61562 18.5794,10.21429 1.6947,3.0656 2.8296,7.44392 2.8296,11.19455 z"
           id="path9740"
           inkscape:connector-curvature="0"
           sodipodi:nodetypes="ssssssssss" />
        <path
           id="path9742"
           d="m 5115.0882,407.60277 c -4.7023,0 -9.7826,0.87056 -13.3799,3.34109 -1.2554,0.86231 -2.4665,2.08144 -3.5522,3.38802 l 3.881,0.77465 -5.2271,0.96243 c -0.301,0.41872 -0.5869,0.83962 -0.8528,1.24409 -2.1881,3.32833 -2.6133,7.45188 -2.6133,11.6977 0,6.51999 1.9337,12.0596 6.51,16.11858 3.9862,3.53547 9.9308,5.2894 15.2343,5.2894 6.1264,0 11.6527,-2.57389 15.5554,-6.69782 1.2985,-1.37226 2.4158,-2.91484 3.3176,-4.593 -0.8715,-0.0779 -2.7051,-0.27322 -3.7951,-0.59466 1.5682,-0.34403 2.7483,-0.0668 4.194,-0.19563 1.3676,-2.82005 2.1361,-5.98222 2.1361,-9.32687 0,-3.75063 -1.13,-8.12349 -2.8247,-11.18909 -3.6471,-6.59872 -10.5096,-10.21889 -18.5833,-10.21889 z"
           style="color:#000000;fill:#49b6d2;fill-opacity:1;fill-rule:nonzero;stroke:none;stroke-width:12;marker:none;visibility:visible;display:inline;overflow:visible;enable-background:accumulate"
           inkscape:connector-curvature="0" />
        <path
           id="path9744"
           d="m 5094.9011,438.00901 c -0.023,-0.0598 -0.048,-0.11991 -0.071,-0.17997 0,0.0158 0.01,0.0228 0.01,0.0391 0.017,0.0482 0.044,0.0928 0.063,0.14086 z"
           style="color:#000000;fill:#4cdaff;fill-opacity:1;fill-rule:nonzero;stroke:none;stroke-width:12;marker:none;visibility:visible;display:inline;overflow:visible;enable-background:accumulate"
           inkscape:connector-curvature="0" />
        <path
           id="path9746"
           d="m 5101.8257,444.95722 c -0.645,0.0336 -1.4159,0.0688 -2.0421,0.1017 0.025,0.0225 0.045,0.048 0.07,0.0704 3.9862,3.53555 9.9308,5.2894 15.2343,5.2894 3.1313,0 6.1064,-0.67011 8.787,-1.87789 -3.7881,1.12696 -9.108,1.68507 -15.3516,-0.50858 -2.7252,-0.9575 -4.9249,-2.0064 -6.6979,-3.07504 z"
           style="color:#000000;fill:#4cdaff;fill-opacity:1;fill-rule:nonzero;stroke:none;stroke-width:12;marker:none;visibility:visible;display:inline;overflow:visible;enable-background:accumulate"
           inkscape:connector-curvature="0" />
        <path
           id="path9748"
           d="m 5095.1905,438.26721 -0.18,-0.008 c 0.8711,2.13957 2.1185,4.07518 3.7635,5.79017 0.485,-0.02 1.1213,-0.0496 1.6198,-0.0704 -3.0708,-2.16041 -4.5603,-4.25974 -5.2033,-5.71193 z"
           style="color:#000000;fill:#4cdaff;fill-opacity:1;fill-rule:nonzero;stroke:none;stroke-width:12;marker:none;visibility:visible;display:inline;overflow:visible;enable-background:accumulate"
           inkscape:connector-curvature="0" />
        <path
           id="path9750"
           d="m 5094.7759,437.09353 c 0,-2.3e-4 -0.01,2.2e-4 -0.015,0 0.015,0.20469 0.03,0.44008 0.07,0.73551 0.023,0.0601 0.047,0.12018 0.071,0.17997 0.033,0.0852 0.075,0.16578 0.1094,0.25039 l 0.1801,0.008 c -0.2033,-0.45898 -0.3483,-0.87034 -0.4147,-1.17368 z"
           style="color:#000000;fill:#4cdaff;fill-opacity:1;fill-rule:nonzero;stroke:none;stroke-width:12;marker:none;visibility:visible;display:inline;overflow:visible;enable-background:accumulate"
           inkscape:connector-curvature="0" />
        <path
           id="path9752"
           d="m 5094.7523,437.02309 c 0,0.019 0.01,0.0508 0.01,0.0704 0.01,2.2e-4 0.01,-2.3e-4 0.015,0 -0.01,-0.02 -0.02,-0.0512 -0.023,-0.0704 z"
           style="color:#000000;fill:#4cdaff;fill-opacity:1;fill-rule:nonzero;stroke:none;stroke-width:12;marker:none;visibility:visible;display:inline;overflow:visible;enable-background:accumulate"
           inkscape:connector-curvature="0" />
        <path
           id="path9754"
           d="m 5094.721,436.38932 c 0,-0.0138 0,0.004 -0.015,0.0469 -0.023,0.0931 -0.012,0.29756 0.047,0.58683 -0.023,-0.37057 -0.025,-0.59919 -0.031,-0.63377 z"
           style="color:#000000;fill:#4cdaff;fill-opacity:1;fill-rule:nonzero;stroke:none;stroke-width:12;marker:none;visibility:visible;display:inline;overflow:visible;enable-background:accumulate"
           inkscape:connector-curvature="0" />
        <path
           sodipodi:nodetypes="ccccccc"
           id="path9756"
           d="m 5093.915,422.4538 c 0.1883,-0.007 0.4104,-0.009 0.6025,-0.0158 0.2804,-0.81483 0.5921,-1.61273 1.0173,-2.36299 -0.3238,0.0297 -0.656,0.0759 -0.9783,0.10171 l -0.01,0 c -0.2644,0.73553 -0.4692,1.49836 -0.6337,2.27696 z"
           style="color:#000000;fill:#4cdaff;fill-opacity:1;fill-rule:nonzero;stroke:none;stroke-width:12;marker:none;visibility:visible;display:inline;overflow:visible;enable-background:accumulate"
           inkscape:connector-curvature="0" />
        <path
           sodipodi:nodetypes="ccsccc"
           id="path9758"
           d="m 5094.1264,423.69789 c -0.1342,0.006 -0.2752,0.01 -0.4069,0.0155 -0.2587,1.71444 -0.3756,3.48605 -0.3756,5.29721 0,0.25515 0,0.50704 0.01,0.759 0.05,-2.10262 0.7734,-5.61144 1.2704,-7.53648 z"
           style="color:#000000;fill:#4cdaff;fill-opacity:1;fill-rule:nonzero;stroke:none;stroke-width:12;marker:none;visibility:visible;display:inline;overflow:visible;enable-background:accumulate"
           inkscape:connector-curvature="0" />
        <path
           id="path9760"
           d="m 5131.34,414.55881 c -0.5602,0.0513 -1.2041,0.12552 -1.8231,0.19563 1.6313,1.43025 3.054,3.11795 4.1546,5.10942 0.2912,0.52678 0.5431,1.12693 0.7983,1.7214 0.1965,-0.003 0.5596,-0.0128 0.7511,-0.0155 -0.4369,-1.35008 -0.9402,-2.64608 -1.5494,-3.74795 -0.6627,-1.19953 -1.4682,-2.26407 -2.3315,-3.26286 z"
           style="color:#000000;fill:#4cdaff;fill-opacity:1;fill-rule:nonzero;stroke:none;stroke-width:12;marker:none;visibility:visible;display:inline;overflow:visible;enable-background:accumulate"
           inkscape:connector-curvature="0" />
        <path
           id="path9762"
           d="m 5115.0865,407.60229 c -4.7022,0 -9.7806,0.86981 -13.3779,3.34036 -0.9305,0.6391 -1.8383,1.47632 -2.6874,2.39776 -0.01,0.011 -0.014,0.0221 -0.025,0.0331 -0.1378,0.15053 -0.2781,0.29999 -0.4135,0.45477 -0.1445,0.16555 -0.2898,0.33541 -0.43,0.50435 l 1.5875,0.31422 2.2987,0.46302 -3.3155,0.60357 -1.91,0.35554 c -0.02,0.0292 -0.044,0.0535 -0.066,0.0827 -0.2781,0.38976 -0.5464,0.78126 -0.7938,1.15755 -0.3826,0.58206 -0.6937,1.20013 -0.9758,1.82729 -0.085,0.18852 -0.163,0.37833 -0.2397,0.57052 -0.052,0.13685 -0.1159,0.26753 -0.1654,0.40513 -0.01,0.02 -0.012,0.046 -0.016,0.0661 0.3226,-0.0258 0.652,-0.0695 0.9756,-0.0992 0.137,-0.24193 0.2677,-0.49347 0.4217,-0.7276 0.07,-0.10692 0.1752,-0.21416 0.2479,-0.32248 0.5834,-0.86733 1.2134,-1.76945 1.9349,-2.63755 1.5616,-0.42651 4.9795,-1.36647 5.3909,-1.53789 0.3559,-0.14824 -1.4592,-0.60902 -2.894,-1.03351 0.3524,-0.30007 0.7138,-0.57883 1.075,-0.82683 3.5973,-2.47054 8.6757,-3.34036 13.3779,-3.34036 4.9876,0 9.5067,1.38483 13.0968,3.99354 0.4683,0.34031 0.8948,0.72612 1.3311,1.10794 0.6192,-0.0702 1.2671,-0.14713 1.8275,-0.19844 -0.3085,-0.35671 -0.6027,-0.72789 -0.9342,-1.05833 -0.034,-0.0339 -0.065,-0.0738 -0.1,-0.10747 -3.8436,-3.76934 -9.1927,-5.78776 -15.2217,-5.78776 z m 20.1332,13.96502 c -0.1916,0.003 -0.5559,0.0135 -0.7525,0.0165 0.1545,0.3601 0.3072,0.72054 0.4466,1.09969 l 0.6615,0 c -0.1043,-0.37955 -0.2361,-0.74674 -0.3556,-1.11623 z m -40.7046,0.86815 c -0.1921,0.007 -0.4151,0.01 -0.6035,0.0166 -0.01,0.0422 -0.017,0.0816 -0.025,0.12401 -0.031,0.15258 -0.063,0.30911 -0.091,0.46302 -0.04,0.21981 -0.041,0.45558 -0.074,0.67799 0.1318,-0.006 0.271,-0.011 0.4051,-0.0165 0.1109,-0.42858 0.2461,-0.85032 0.3887,-1.26506 z m 5.8788,21.54704 c -0.4985,0.0208 -1.1356,0.0462 -1.6206,0.0661 0.3276,0.34142 0.648,0.68562 1.0089,1.0087 0.626,-0.0328 1.397,-0.0656 2.042,-0.0992 -0.5387,-0.3247 -0.9678,-0.65019 -1.4303,-0.97562 z"
           style="color:#000000;fill:#4cdaff;fill-opacity:1;fill-rule:nonzero;stroke:none;stroke-width:12;marker:none;visibility:visible;display:inline;overflow:visible;enable-background:accumulate"
           inkscape:connector-curvature="0" />
        <path
           id="path9764"
           d="m 5135.573,422.6807 c -0.1843,0 -0.467,0 -0.6573,0 0.8541,2.32057 1.4342,4.9366 1.5572,7.38638 0.017,-0.34932 0.023,-0.70274 0.023,-1.05633 0,-2.03356 -0.349,-4.23821 -0.9232,-6.33005 z"
           style="color:#000000;fill:#4cdaff;fill-opacity:1;fill-rule:nonzero;stroke:none;stroke-width:12;marker:none;visibility:visible;display:inline;overflow:visible;enable-background:accumulate"
           inkscape:connector-curvature="0" />
        <path
           id="path9766"
           d="m 5130.2287,413.31472 c 0.8982,0.96408 1.7017,2.01575 2.3945,3.16893 1.8083,3.00986 3.0201,7.31106 3.0201,10.99349 0,3.59311 -0.6229,7.53891 -2.0969,10.89961 0.2644,-0.002 0.534,-0.0143 0.8137,-0.0391 1.3669,-2.81947 2.1361,-5.98222 2.1361,-9.32687 0,-3.75063 -1.13,-8.12349 -2.8247,-11.18909 -0.9424,-1.7055 -2.1054,-3.21095 -3.4428,-4.50694 z m 3.0047,25.73495 c -0.7782,1.60529 -1.7625,3.04844 -2.9811,4.23307 -4.1647,4.04894 -10.9191,5.21118 -17.4567,5.21118 -3.9586,0 -8.2454,-0.84002 -11.9246,-2.53516 3.9386,2.97982 9.3472,4.45997 14.2172,4.45997 6.1264,0 11.6527,-2.57389 15.5554,-6.69782 1.298,-1.37181 2.4168,-2.91581 3.3176,-4.593 -0.1882,-0.0168 -0.4669,-0.0506 -0.7278,-0.0782 z"
           style="color:#000000;fill:#31a7c6;fill-opacity:1;fill-rule:nonzero;stroke:none;stroke-width:12;marker:none;visibility:visible;display:inline;overflow:visible;enable-background:accumulate"
           inkscape:connector-curvature="0" />
        <g
           name="grain"
           class="switchable"
           id="g9768"
           transform="translate(1106.0453,-8.1576891)">
          <g
             id="g9770">
            <path
               sodipodi:nodetypes="ccsccsccccscccccccccccccccccccc"
               inkscape:connector-curvature="0"
               style="font-size:medium;font-style:normal;font-variant:normal;font-weight:normal;font-stretch:normal;text-indent:0;text-align:start;text-decoration:none;line-height:normal;letter-spacing:normal;word-spacing:normal;text-transform:none;direction:ltr;block-progression:tb;writing-mode:lr-tb;text-anchor:start;baseline-shift:baseline;opacity:0.5;color:#000000;fill:#4cdaff;fill-opacity:1;stroke:none;stroke-width:5.00009584;marker:none;visibility:visible;display:inline;overflow:visible;enable-background:accumulate;font-family:Sans;-inkscape-font-specification:Sans"
               d="m 4024.2696,422.03312 c -0.6576,0.0688 -1.3461,0.1477 -2.0815,0.24257 -5.3733,0.69332 -14.3001,2.95323 -23.5596,4.3974 -3.251,0.50703 -6.5393,0.90221 -9.7182,1.10327 -0.152,0.33883 -0.2809,0.69029 -0.4069,1.04066 3.2532,-0.26052 6.6129,-0.72737 9.9764,-1.25193 9.3343,-1.45584 18.6615,-3.37392 23.865,-4.04528 1.0972,-0.14162 2.0837,-0.24481 3.0046,-0.32865 -0.3461,-0.40171 -0.7043,-0.78953 -1.0798,-1.15804 z m 4.9451,8.17667 c -4.8745,0.0752 -11.4119,0.18618 -19.1388,0.33644 -6.5799,0.128 -13.3223,0.27816 -18.7556,0.43818 -1.2379,0.0364 -2.3774,0.0731 -3.4583,0.10956 -0.088,0.41499 -0.1634,0.83482 -0.2272,1.25975 7.571,-0.34853 19.0193,-0.81453 23.4033,-0.89983 7.3188,-0.14231 13.891,-0.15077 18.5053,-0.13301 -0.1024,-0.37348 -0.2113,-0.74728 -0.3287,-1.11109 z m -40.4321,15.48592 c 0.1334,0.39789 0.2814,0.78839 0.4381,1.17371 l 38.0191,1.17138 c 0.044,-0.0805 0.09,-0.16132 0.1333,-0.24255 -0.8719,-0.0779 -2.1624,-0.30338 -3.2523,-0.62483 1.4963,-0.32823 2.641,-0.0984 3.9984,-0.18779 -13.649,-0.12238 -26.3839,-0.70321 -39.3366,-1.28992 z m 36.4766,5.16096 c -5.827,0.39118 -12.1784,0.90938 -18.7593,1.22274 -5.0486,0.24045 -9.0821,0.19915 -13.2149,0.36909 0.3315,0.34618 0.6832,0.68195 1.0483,1.00936 4.3272,-0.22686 8.5077,-0.23281 13.5047,-0.47081 5.9351,-0.28258 11.028,-0.47438 16.1707,-0.7456 0.35,-0.37861 0.9282,-0.98173 1.2505,-1.38478 z"
               id="path9772" />
            <path
               id="path9774"
               d="m 4024.2696,421.55063 c -0.6575,0.0688 -1.3461,0.1477 -2.0815,0.24257 -5.3733,0.69332 -14.3,2.95323 -23.5595,4.3974 -3.251,0.50703 -6.5394,0.90222 -9.7182,1.10328 -0.152,0.33882 -0.281,0.69028 -0.4069,1.04065 3.2532,-0.26053 6.6129,-0.72737 9.9763,-1.25193 9.3344,-1.45584 18.6615,-3.37392 23.8651,-4.04528 1.0972,-0.14162 2.0837,-0.2448 3.0046,-0.32866 -0.346,-0.40169 -0.7043,-0.78951 -1.0799,-1.15803 z m 4.9451,8.17667 c -4.8745,0.0753 -11.4118,0.18619 -19.1387,0.33644 -6.5799,0.128 -13.3223,0.27816 -18.7557,0.43818 -1.2379,0.0365 -2.3774,0.0731 -3.4583,0.10957 -0.088,0.41499 -0.1633,0.83481 -0.2271,1.25974 7.5709,-0.34854 19.0193,-0.81453 23.4033,-0.89984 7.3188,-0.14229 13.8909,-0.15076 18.5053,-0.133 -0.1025,-0.37348 -0.2114,-0.74728 -0.3288,-1.11109 z m -40.7035,15.51608 c 0.1335,0.39789 0.2815,0.78839 0.4382,1.17371 l 38.8333,1.11106 c 0.045,-0.0806 0.089,-0.16132 0.1332,-0.24255 -0.8718,-0.0779 -2.7051,-0.27322 -3.7951,-0.59466 1.4964,-0.32824 2.6411,-0.0984 3.9985,-0.18779 -13.6491,-0.12239 -26.6554,-0.67307 -39.6081,-1.25977 z m 37.2607,5.28159 c -5.827,0.39118 -12.6911,0.75859 -19.2719,1.07195 -5.0486,0.24044 -9.6852,0.4404 -13.8181,0.61034 0.3315,0.34618 0.6833,0.68195 1.0484,1.00935 4.3271,-0.22685 9.1108,-0.47405 14.1077,-0.71204 5.9352,-0.28259 11.7819,-0.5347 16.9246,-0.80592 0.35,-0.37861 0.687,-0.77064 1.0093,-1.17368 z"
               style="font-size:medium;font-style:normal;font-variant:normal;font-weight:normal;font-stretch:normal;text-indent:0;text-align:start;text-decoration:none;line-height:normal;letter-spacing:normal;word-spacing:normal;text-transform:none;direction:ltr;block-progression:tb;writing-mode:lr-tb;text-anchor:start;baseline-shift:baseline;color:#000000;fill:#31a7c6;fill-opacity:1;stroke:none;stroke-width:5;marker:none;visibility:visible;display:inline;overflow:visible;enable-background:accumulate;font-family:Sans;-inkscape-font-specification:Sans"
               inkscape:connector-curvature="0" />
          </g>
          <path
             inkscape:connector-curvature="0"
             style="color:#000000;fill:#49b6d2;fill-opacity:1;fill-rule:nonzero;stroke:none;stroke-width:12;marker:none;visibility:visible;display:inline;overflow:visible;enable-background:accumulate"
             d="m 4024.2618,421.55063 c -0.6552,0.0687 -1.3398,0.14805 -2.0737,0.24257 -0.012,0.003 -0.033,0.006 -0.047,0.008 0.4682,0.3403 0.8939,0.7293 1.3303,1.11112 0.619,-0.0702 1.2629,-0.14433 1.8231,-0.19563 -0.3085,-0.3567 -0.5995,-0.73371 -0.9312,-1.06414 -0.034,-0.0339 -0.067,-0.068 -0.1017,-0.10173 z m -34.1073,5.63368 c -0.4044,0.0316 -0.8192,0.084 -1.2206,0.10957 -0.085,0.18851 -0.166,0.37901 -0.2426,0.57118 -0.052,0.13686 -0.1147,0.26926 -0.1643,0.40687 -0.01,0.02 -0.01,0.0425 -0.015,0.0626 0.3227,-0.0258 0.6545,-0.072 0.9782,-0.10171 0.137,-0.24194 0.2685,-0.48572 0.4224,-0.71986 0.07,-0.10691 0.1698,-0.22034 0.2427,-0.32865 z m 39.0211,2.54299 c -0.1915,0.003 -0.5546,0.0125 -0.7511,0.0155 0.1545,0.36011 0.3065,0.71631 0.4459,1.09544 0.1903,0 0.473,0 0.6573,0 -0.1042,-0.37953 -0.2326,-0.74159 -0.3521,-1.11108 z m -40.7034,0.86851 c -0.1921,0.007 -0.4142,0.009 -0.6025,0.0158 -0.01,0.0422 -0.023,0.0828 -0.031,0.12519 -0.031,0.15259 -0.058,0.30772 -0.086,0.46164 -0.04,0.21981 -0.045,0.45049 -0.078,0.67291 0.1317,-0.006 0.2727,-0.01 0.4069,-0.0155 0.1106,-0.42856 0.2484,-0.84505 0.3911,-1.25976 z m 5.8763,21.54102 c -0.4985,0.0208 -1.1348,0.0505 -1.6198,0.0704 0.3275,0.34143 0.6488,0.68626 1.0096,1.00935 0.6262,-0.0328 1.3971,-0.0681 2.0421,-0.1017 -0.5388,-0.3247 -0.9695,-0.65263 -1.4319,-0.97808 z"
             id="path9776" />
        </g>
      </g>
    </g>
  </g>
</svg>
