<?xml version="1.0" encoding="UTF-8" standalone="no"?>
<!-- Created with Inkscape (http://www.inkscape.org/) -->

<svg
   xmlns:dc="http://purl.org/dc/elements/1.1/"
   xmlns:cc="http://creativecommons.org/ns#"
   xmlns:rdf="http://www.w3.org/1999/02/22-rdf-syntax-ns#"
   xmlns:svg="http://www.w3.org/2000/svg"
   xmlns="http://www.w3.org/2000/svg"
   xmlns:sodipodi="http://sodipodi.sourceforge.net/DTD/sodipodi-0.dtd"
   xmlns:inkscape="http://www.inkscape.org/namespaces/inkscape"
   width="706.38867"
   height="196.14035"
   viewBox="0 0 186.89866 51.895469"
   version="1.1"
   id="svg23489"
   inkscape:version="0.48.5 r10040"
   sodipodi:docname="light_wood_rectangle.svg">
  <defs
     id="defs23483" />
  <sodipodi:namedview
     id="base"
     pagecolor="#7d848b"
     bordercolor="#666666"
     borderopacity="1.0"
     inkscape:pageopacity="0"
     inkscape:pageshadow="2"
     inkscape:zoom="1.2054152"
     inkscape:cx="307.85017"
     inkscape:cy="200.66398"
     inkscape:document-units="px"
     inkscape:current-layer="layer1"
     showgrid="false"
     inkscape:pagecheckerboard="false"
     showborder="true"
     units="px"
     inkscape:window-width="1920"
     inkscape:window-height="1017"
     inkscape:window-x="-8"
     inkscape:window-y="-8"
     inkscape:window-maximized="1"
     inkscape:showpageshadow="false"
     guidetolerance="28"
     fit-margin-left="15"
     fit-margin-top="15"
     fit-margin-bottom="15"
     fit-margin-right="15">
    <inkscape:grid
       type="xygrid"
       id="grid24034"
       spacingx="1px"
       spacingy="1px"
       empspacing="8"
       visible="true"
       enabled="true"
       snapvisiblegridlinesonly="true"
       originx="-177.75013px"
       originy="136.57247px" />
  </sodipodi:namedview>
  <metadata
     id="metadata23486">
    <rdf:RDF>
      <cc:Work
         rdf:about="">
        <dc:format>image/svg+xml</dc:format>
        <dc:type
           rdf:resource="http://purl.org/dc/dcmitype/StillImage" />
        <dc:title></dc:title>
        <cc:license
           rdf:resource="" />
        <dc:creator>
          <cc:Agent>
            <dc:title>Robert Brooks</dc:title>
          </cc:Agent>
        </dc:creator>
      </cc:Work>
    </rdf:RDF>
  </metadata>
  <g
     inkscape:label="Layer 1"
     inkscape:groupmode="layer"
     id="layer1"
     transform="translate(-47.029723,-281.23934)">
    <path
       id="path5449"
       d="m 83.8571,287.85392 -29.4085,0.20777 -0.6434,2.3122 -0.1609,7.32532 1.9704,1.53476 -1.9704,1.41413 0.3217,21.7303 0.04,0.0335 0,0.0871 0.094,0 3.2639,2.89528 63.2002,0.54286 104.3571,0.58308 1.9033,-2.48645 0.2413,-6.69093 -2.7277,-1.98381 c 0,0 1.6903,-0.69949 2.7277,-1.23317 l 0,-8.44456 0.248,-13.53811 -0.5697,-4.08153 -7.5733,0.0134 c -0.037,0.61305 -0.2652,1.19215 -0.7975,1.48785 -1.2135,0.67417 -2.6976,-0.008 -2.7144,-1.47445 l -92.1124,-0.12063 -18.5579,1.16615 z"
       style="color:#000000;fill:#3b2213;fill-opacity:1;fill-rule:nonzero;stroke:#3b2213;stroke-width:5.29166698;stroke-linejoin:round;stroke-miterlimit:4;stroke-opacity:1;stroke-dasharray:none;marker:none;visibility:visible;display:inline;overflow:visible;enable-background:accumulate"
       inkscape:connector-curvature="0"
       sodipodi:nodetypes="cccccccccccccccccccccccccc" />
    <path
       id="path5451"
       d="m 83.8536,287.85202 -29.4019,0.20777 -0.6434,2.3122 -0.1675,7.32532 0.2815,0.21446 c 6.8773,0.30755 16.8653,0.67935 15.8972,0.81765 -0.9276,0.13251 -9.1617,0.70794 -14.8182,0.94499 l -1.3605,0.97179 0.3686,21.85094 2.1647,0.0201 76.5172,2.06422 94.1297,-1.91008 0.248,-5.33042 -1.5512,-0.70509 c -1.3149,-0.15177 -5.8115,-1.03251 -7.5904,-1.14466 -0.4554,0.0114 -0.7539,0.006 -0.6635,-0.0201 0.062,-0.0177 0.3218,-0.001 0.6635,0.0201 1.4635,-0.0367 5.0827,-0.23523 7.0706,-0.41552 0.5793,-0.2476 1.3842,-0.59842 2.071,-0.95169 l 0,-8.44456 0.248,-13.53811 -0.5697,-4.08153 -7.5733,0.0134 c -0.037,0.61305 -0.2652,1.19215 -0.7976,1.48785 -1.2135,0.67417 -2.6976,-0.008 -2.7143,-1.47445 l -92.1191,-0.11395 -18.5579,1.15945 z"
       style="color:#000000;fill:#ab653c;fill-opacity:1;fill-rule:nonzero;stroke:none;stroke-width:50;marker:none;visibility:visible;display:inline;overflow:visible;enable-background:accumulate"
       inkscape:connector-curvature="0"
       sodipodi:nodetypes="cccccscccccccccccccccccccccc" />
    <path
       id="path5453"
       d="m 83.859703,287.86119 -29.410026,0.20669 -0.644789,2.30685 -0.157163,7.32565 0.07435,0.0579 c 0.493712,-3.34888 1.323446,-6.92049 2.331773,-6.92049 1.14009,0 29.641536,-1.36425 29.641536,-1.36425 0,0 20.294596,2.73109 21.662756,1.81901 1.3679,-0.91207 18.00807,-1.81551 19.60404,-1.5875 0.54822,0.0783 11.98139,0.11507 25.47435,0.14881 1.2446,-0.15272 2.53391,-0.31639 3.76211,-0.46303 4.16031,-0.49662 8.22378,-0.95546 12.15417,-1.35598 l 16.06523,0.0167 -60.87084,-0.0827 -18.5621,1.15755 -21.125395,-1.26503 z m 100.558337,0.19018 c -2.35109,0.1288 -4.78208,0.30083 -7.29271,0.50435 -2.50957,0.20349 -5.09958,0.43746 -7.74726,0.70278 -1.76874,0.17733 -3.70946,0.42831 -5.53138,0.62839 23.92865,0.0403 50.2875,0.0414 50.2875,0.0414 0,0 2.73844,2.96262 5.01862,2.05052 2.28018,-0.91207 2.27383,-2.73677 2.27383,-2.73677 l 3.43138,0 1.36419,3.19151 0.19844,1.66193 c 0.27728,0.005 0.57467,0.0116 0.85989,0.0164 l 0.0331,-1.96783 -0.52916,-3.81167 -0.008,0 c -2.14286,-0.081 -4.65534,-0.16764 -7.59857,-0.23977 l 0,-0.0164 -0.008,0 c -0.037,0.61307 -0.2614,1.19258 -0.79375,1.48828 -1.21337,0.67419 -2.70351,-0.006 -2.72018,-1.47174 l -31.2375,-0.0413 z m 42.16797,7.37526 0.45482,3.75375 c -0.0672,7.24707 -0.69242,13.38088 -0.75248,13.9237 -0.064,0.57364 -0.89455,0.83166 -1.14935,0.95911 -0.25505,0.12756 -0.76861,0.57052 -1.85208,0.57052 -1.03955,0 -12.33117,0.71335 -12.74127,0.82683 0.27569,0.0306 4.23756,0.0769 8.24335,0.11575 -0.32649,-0.0397 -0.62679,-0.0675 -0.86809,-0.0827 -0.45535,0.0114 -0.75168,1e-4 -0.66146,-0.0249 0.0619,-0.0177 0.31988,0.003 0.66146,0.0249 1.46367,-0.0367 5.08158,-0.23313 7.0694,-0.41341 0.57917,-0.2476 1.38853,-0.59754 2.07513,-0.95086 l 0,-8.45011 0.11588,-6.23427 0.0238,-1.41385 0.0495,-2.59623 c -0.22198,-0.004 -0.45243,-0.004 -0.66966,-0.008 z m -172.85547,10.6412 0.272785,16.42896 2.166144,0.0249 c 0,0 11.382904,0.34761 19.397398,0.47955 -0.208491,0.006 -0.450585,0.019 -0.653256,0.0249 l 57.770189,1.55443 76.61328,-1.55443 c -4.41696,-0.55104 -9.07071,-0.94882 -11.72422,-0.63664 -5.93725,0.6985 -52.97646,-2.32926 -60.6642,-2.19106 -0.24765,0.005 -0.4564,0.0135 -0.61992,0.0249 -3.615,0.24929 -31.98151,1.69222 -51.370704,2.44739 -1.684602,0.0281 -4.012406,0.0435 -7.317317,0 -9.687189,-0.12745 -21.543433,-1.47211 -22.117579,-1.91823 -0.573352,-0.44614 -1.464205,-11.02545 -1.719792,-14.40325 -0.01058,-0.12372 -0.02117,-0.19302 -0.03281,-0.28112 z m 142.00664,9.22734 c -0.64188,-0.003 -1.19512,0.003 -1.64518,0.008 -1.17554,0.0146 -1.66185,0.0643 -1.29011,0.1488 1.98358,0.45075 26.76922,0.90125 27.31003,0.90125 0.54081,0 5.49831,1.16584 5.49831,1.16584 0,0 0.0871,4.05805 -0.36354,3.87778 -0.29157,-0.11641 -5.87719,0.82474 -10.00469,1.50482 l 11.57552,-0.23151 0.24792,-5.32474 -1.55417,-0.71107 c -1.08108,-0.12469 -4.28757,-0.7304 -6.39154,-1.00872 -9.9523,-0.11861 -18.88992,-0.31451 -23.38255,-0.33073 z"
       style="color:#000000;fill:#d3865b;fill-opacity:1;fill-rule:nonzero;stroke:none;stroke-width:50;marker:none;visibility:visible;display:inline;overflow:visible;enable-background:accumulate"
       inkscape:connector-curvature="0" />
    <path
       sodipodi:nodetypes="cccccc"
       inkscape:connector-curvature="0"
       id="path5455"
       d="m 54.4522,323.15525 2.7784,2.16206 167.6935,1.20547 1.8991,-2.48636 -91.2327,-1.88848 z"
       style="color:#000000;fill:#734125;fill-opacity:1;fill-rule:nonzero;stroke:none;stroke-width:15;marker:none;visibility:visible;display:inline;overflow:visible;enable-background:accumulate" />
    <path
       sodipodi:nodetypes="cccsc"
       inkscape:connector-curvature="0"
       id="path5457"
       d="m 53.9191,297.91367 1.6956,1.3203 -0.6166,0.44234 c 5.6565,-0.23705 13.8937,-0.81248 14.8213,-0.94499 0.9681,-0.1383 -9.023,-0.5101 -15.9003,-0.81765 z"
       style="color:#000000;fill:#3b2213;fill-opacity:1;fill-rule:nonzero;stroke:none;stroke-width:4;marker:none;visibility:visible;display:inline;overflow:visible;enable-background:accumulate" />
    <g
       transform="translate(43.2249,162.35561)"
       id="g5459"
       class="switchable"
       name="grain">
      <path
         id="path5461"
         d="m 125.12796,126.39628 c -15.72097,1.60197 -33.54514,4.13559 -51.370689,6.30039 -17.988717,2.18474 -35.966898,3.98618 -51.684461,4.07625 2.950336,0.13816 4.979938,0.25709 4.522449,0.32244 -0.835542,0.11938 -7.586104,0.60111 -13.055306,0.86818 17.701125,0.71456 39.030795,-1.36006 60.374489,-3.95224 24.235263,-2.94322 48.471908,-6.56778 67.278738,-7.59849 l -16.06522,-0.0165 z m 58.39863,0.0331 -7.57403,0.008 c -2.4e-4,0.006 5.7e-4,0.0112 0,0.0165 2.94645,0.0722 5.46231,0.15867 7.60677,0.23976 l -0.0324,-0.26458 z m -7.17709,5.92005 c -18.24705,-0.0274 -55.81678,3.95383 -91.529238,7.03628 -18.432184,1.59088 -36.364567,2.94317 -50.833032,3.38994 -7.234233,0.22344 -13.601473,0.22096 -18.727477,-0.0909 -1.745982,-0.10623 -3.337468,-0.25538 -4.779159,-0.43823 l 0.02513,1.33948 c 1.425318,0.17158 2.975707,0.31022 4.671433,0.41338 5.191661,0.31594 11.593026,0.32343 18.851576,0.0992 14.517181,-0.44826 32.458318,-1.80652 50.899256,-3.39823 36.882601,-3.18341 75.816861,-7.30774 93.100211,-7.01146 2.25616,0.0387 4.01406,0.0706 6.00289,0.1075 l 0.0251,-1.32291 c -1.9894,-0.0369 -3.74624,-0.0688 -6.00289,-0.1075 -0.54771,-0.009 -1.11438,-0.0157 -1.70334,-0.0165 z m 7.40826,5.45703 c -25.64737,0.39833 -44.85981,1.66254 -55.67809,3.06753 -2.88476,0.37462 -5.17634,0.7634 -6.84613,1.14927 -0.83473,0.19293 -1.51415,0.38621 -2.05051,0.58703 -0.53628,0.2009 -0.92811,0.37462 -1.24035,0.71935 -0.15555,0.17235 -0.29894,0.43921 -0.28094,0.74414 0.0178,0.30493 0.19202,0.54663 0.36379,0.70281 0.34344,0.31218 0.75302,0.45638 1.33112,0.62011 1.15621,0.32744 2.95934,0.60131 5.51492,0.82682 13.67289,1.20645 41.81448,0.79899 58.96903,0.39687 l 0,-1.33119 c -17.16428,0.39711 -45.35086,0.80282 -58.85311,-0.3886 -2.51701,-0.22206 -4.28333,-0.4986 -5.26705,-0.77721 -0.21115,-0.0598 -0.21456,-0.0835 -0.34717,-0.14055 0.113,-0.0587 0.10351,-0.0689 0.27284,-0.13229 0.45028,-0.16867 1.08585,-0.35274 1.88516,-0.53745 1.59829,-0.36938 3.85494,-0.75321 6.71376,-1.12448 10.74079,-1.39491 29.99579,-2.66321 55.6866,-3.05924 l 0.0243,-1.32292 c -0.0649,9.7e-4 -0.13342,-9.7e-4 -0.19851,0 z m 0.0828,11.67474 c -9.74483,0.27361 -44.46028,1.24749 -84.931223,2.30685 -23.272541,0.60912 -46.711413,1.19486 -64.649388,1.59576 -8.968785,0.20044 -16.563968,0.35398 -22.07605,0.4382 -0.546896,0.008 -0.974961,0.009 -1.480031,0.0166 l 0.02513,1.32291 c 0.504259,-0.007 0.934756,-0.008 1.480031,-0.0166 5.517918,-0.0843 13.11383,-0.23772 22.084236,-0.4382 17.941137,-0.40097 41.376118,-0.98658 64.649389,-1.59575 40.438926,-1.05855 75.110196,-2.03208 84.898156,-2.30685 l 0,-1.32292 z"
         style="opacity:0.25;color:#000000;fill:#d3865b;fill-opacity:1;fill-rule:nonzero;stroke:none;stroke-width:50;marker:none;visibility:visible;display:inline;overflow:visible;enable-background:accumulate"
         inkscape:connector-curvature="0" />
      <path
         sodipodi:nodetypes="csccsccccccccccsssccccscccccccsccccccscccscccscccccssccccssccc"
         style="color:#000000;fill:#a96138;fill-opacity:1;fill-rule:nonzero;stroke:none;stroke-width:50;marker:none;visibility:visible;display:inline;overflow:visible;enable-background:accumulate"
         d="m 125.12802,125.67524 c -15.72102,1.60197 -33.545203,4.13559 -51.370712,6.30039 -17.988757,2.18474 -30.661272,3.79256 -47.16198,4.39869 -0.835555,0.11938 -7.586134,0.60111 -13.055336,0.86818 17.701154,0.71456 39.030805,-1.36006 60.374478,-3.95224 24.235305,-2.94322 48.47193,-6.56778 67.27878,-7.59849 l -16.06523,-0.0164 z m 58.39857,0.0331 -7.57397,0.008 c 0,0.006 0,0.0111 0,0.0167 2.9464,0.0722 5.46233,0.15867 7.60677,0.23976 l -0.0328,-0.26458 z m -7.17709,5.92005 c -18.24699,-0.0274 -55.81677,3.95383 -91.529169,7.03628 -18.432198,1.59088 -36.364599,2.94317 -50.833074,3.38994 -7.234238,0.22345 -13.601436,0.22096 -18.727473,-0.0909 -1.745986,-0.10623 -3.337455,-0.25538 -4.779169,-0.43823 l 0.02381,1.33948 c 1.425311,0.17158 2.975769,0.31022 4.671484,0.41338 5.191654,0.31594 11.592983,0.32343 18.851563,0.0992 14.517158,-0.44826 32.45829,-1.80652 50.89922,-3.39823 36.882658,-3.18341 75.816888,-7.30774 93.100268,-7.01146 2.2561,0.0387 4.01399,0.0706 6.00286,0.1075 l 0.0238,-1.32291 c -1.98941,-0.0369 -3.74624,-0.0688 -6.00287,-0.1075 -0.54769,-0.009 -1.11443,-0.0156 -1.70339,-0.0164 z m 7.40833,5.45703 c -25.64738,0.39833 -44.85984,1.66254 -55.67812,3.06753 -2.88475,0.37462 -5.17631,0.7634 -6.8461,1.14927 -0.83476,0.19293 -1.51421,0.38621 -2.05052,0.58703 -0.53631,0.2009 -0.92816,0.37462 -1.24036,0.71935 -0.15558,0.17235 -0.29898,0.43921 -0.28099,0.74414 0.0185,0.30493 0.19209,0.54663 0.3638,0.70281 0.34343,0.31218 0.753,0.45638 1.33112,0.62011 1.15623,0.32744 2.95936,0.60132 5.51497,0.82682 13.67288,1.20645 41.81449,0.79899 58.96902,0.39687 l 0,-1.33119 c -17.16432,0.39711 -45.35091,0.80282 -58.85313,-0.3886 -2.51698,-0.22206 -4.28334,-0.4986 -5.26706,-0.77721 -0.21114,-0.0598 -0.21458,-0.0835 -0.34713,-0.14055 0.11297,-0.0587 0.10345,-0.0689 0.27278,-0.13229 0.45032,-0.16867 1.08585,-0.35274 1.88516,-0.53745 1.59835,-0.36938 3.85498,-0.75321 6.7138,-1.12448 10.74076,-1.39491 29.99582,-2.66321 55.68659,-3.05924 l 0.0238,-1.32292 c -0.0651,0 -0.13335,0 -0.19844,0 z m 0.0828,11.67474 c -9.74487,0.27361 -44.46032,1.24749 -84.931256,2.30685 -23.272486,0.60912 -46.711395,1.19486 -64.649352,1.59576 -8.968846,0.20044 -16.563975,0.35398 -22.07604,0.4382 -0.546894,0.008 -0.974989,0.01 -1.480079,0.0167 l 0.02381,1.32291 c 0.504295,-0.007 0.934772,-0.008 1.480079,-0.0167 5.517885,-0.0843 13.113808,-0.23773 22.084242,-0.43821 17.941132,-0.40097 41.376072,-0.98658 64.649352,-1.59575 40.438924,-1.05855 75.110184,-2.03208 84.898184,-2.30685 l 0,-1.32292 z"
         id="path5463"
         inkscape:connector-curvature="0" />
    </g>
    <path
       inkscape:connector-curvature="0"
       id="path5465"
       d="m 227.1812,299.44099 c -0.035,0 -0.071,2.7e-4 -0.1075,0 l 0.091,0.7855 0.016,-0.7855 z"
       style="color:#000000;fill:#a4613c;fill-opacity:1;fill-rule:nonzero;stroke:none;stroke-width:4;marker:none;visibility:visible;display:inline;overflow:visible;enable-background:accumulate" />
    <path
       inkscape:connector-curvature="0"
       id="path5469"
       d="m 227.2806,294.108 c -0.2852,-0.005 -0.5823,-0.0114 -0.8598,-0.0167 l 0.1651,1.3312 c 0.2172,0.004 0.4479,0.004 0.6699,0.008 l 0.024,-1.32292 z"
       style="color:#000000;fill:#a4613c;fill-opacity:1;fill-rule:nonzero;stroke:none;stroke-width:4;marker:none;visibility:visible;display:inline;overflow:visible;enable-background:accumulate" />
    <path
       inkscape:connector-curvature="0"
       id="path5471"
       d="m 219.1775,288.07216 c 0,0.006 0,0.0111 0,0.0167 2.9432,0.0721 5.4557,0.15875 7.5986,0.23977 l -0.033,-0.26459 -7.5655,0.008 z"
       style="color:#000000;fill:#a4613c;fill-opacity:1;fill-rule:nonzero;stroke:none;stroke-width:4;marker:none;visibility:visible;display:inline;overflow:visible;enable-background:accumulate" />
    <path
       inkscape:connector-curvature="0"
       id="path5473"
       d="m 184.4181,288.04737 -16.0652,-0.0164 c -3.9304,0.4005 -7.9941,0.85936 -12.1544,1.35599 -1.2282,0.14663 -2.5175,0.3103 -3.7621,0.46302 3.7489,0.009 7.34,0.0262 11.4104,0.0331 1.8222,-0.2001 3.7626,-0.45111 5.5314,-0.62838 2.6477,-0.26538 5.2374,-0.4993 7.7472,-0.70279 2.5099,-0.20352 4.9417,-0.37555 7.2927,-0.50438 z"
       style="color:#000000;fill:#ca6d3a;fill-opacity:1;fill-rule:nonzero;stroke:none;stroke-width:4;marker:none;visibility:visible;display:inline;overflow:visible;enable-background:accumulate" />
  </g>
</svg>
